<?xml version="1.0" encoding="UTF-8" standalone="no"?>
<!-- Created with Inkscape (http://www.inkscape.org/) -->

<svg
   xmlns:dc="http://purl.org/dc/elements/1.1/"
   xmlns:cc="http://creativecommons.org/ns#"
   xmlns:rdf="http://www.w3.org/1999/02/22-rdf-syntax-ns#"
   xmlns:svg="http://www.w3.org/2000/svg"
   xmlns="http://www.w3.org/2000/svg"
   xmlns:sodipodi="http://sodipodi.sourceforge.net/DTD/sodipodi-0.dtd"
   xmlns:inkscape="http://www.inkscape.org/namespaces/inkscape"
   width="32px"
   height="32px"
   id="svg3096"
   version="1.1"
   inkscape:version="0.48.4 r9939"
   sodipodi:docname="text_new.svg">
  <defs
     id="defs3098" />
  <sodipodi:namedview
     id="base"
     pagecolor="#ffffff"
     bordercolor="#666666"
     borderopacity="1.0"
     inkscape:pageopacity="0.0"
     inkscape:pageshadow="2"
     inkscape:zoom="22.395604"
     inkscape:cx="5.0606904"
     inkscape:cy="15.708215"
     inkscape:current-layer="layer1"
     showgrid="true"
     inkscape:grid-bbox="true"
     inkscape:document-units="px"
     inkscape:window-width="1920"
     inkscape:window-height="1178"
     inkscape:window-x="1272"
     inkscape:window-y="-8"
     inkscape:window-maximized="1" />
  <metadata
     id="metadata3101">
    <rdf:RDF>
      <cc:Work
         rdf:about="">
        <dc:format>image/svg+xml</dc:format>
        <dc:type
           rdf:resource="http://purl.org/dc/dcmitype/StillImage" />
        <dc:title></dc:title>
      </cc:Work>
    </rdf:RDF>
  </metadata>
  <g
     id="layer1"
     inkscape:label="Layer 1"
     inkscape:groupmode="layer">
    <path
       style="fill:#ff0000"
       d="M 28.0625 17.34375 C 26.76636 17.343763 25.756149 17.937392 25.03125 19.15625 C 24.306348 20.37513 23.937499 21.978415 23.9375 23.96875 C 23.937499 26.056608 24.281779 27.690547 25 28.875 C 25.718218 30.059456 26.730584 30.65625 28 30.65625 C 28.547847 30.65625 29.073802 30.56458 29.625 30.34375 C 30.176186 30.12292 30.634687 29.879949 30.96875 29.65625 L 30.96875 23.34375 L 27.53125 23.34375 L 27.53125 25.75 L 29 25.75 L 29 28.28125 C 28.926502 28.292724 28.869769 28.306766 28.78125 28.3125 C 28.69272 28.318238 28.604737 28.312502 28.53125 28.3125 C 27.676063 28.312502 27.03136 27.9389 26.59375 27.1875 C 26.156134 26.436106 25.937497 25.354263 25.9375 23.9375 C 25.937497 23.243468 26.003067 22.624325 26.125 22.09375 C 26.246928 21.563192 26.414542 21.125411 26.625 20.78125 C 26.845473 20.425637 27.09773 20.172086 27.375 20 C 27.652262 19.827935 27.940508 19.718761 28.28125 19.71875 C 28.571873 19.718761 28.866101 19.805586 29.125 19.9375 C 29.383887 20.069435 29.587491 20.222713 29.78125 20.40625 C 29.948271 20.561128 30.132103 20.747929 30.3125 20.96875 C 30.492883 21.18959 30.625207 21.348306 30.71875 21.46875 L 30.9375 21.46875 L 30.9375 18.46875 C 30.392982 18.015629 29.913038 17.714513 29.46875 17.5625 C 29.02445 17.410513 28.553557 17.343763 28.0625 17.34375 z M 9.03125 17.59375 L 9.03125 30.40625 L 10.84375 30.40625 L 10.84375 21.8125 L 12.21875 27.375 L 13.5625 27.375 L 14.9375 21.8125 L 14.9375 30.40625 L 16.84375 30.40625 L 16.84375 17.59375 L 14.625 17.59375 L 12.9375 24 L 11.28125 17.59375 L 9.03125 17.59375 z M 17.5625 17.59375 L 17.5625 30.40625 L 19.5 30.40625 L 19.5 26.21875 L 20.6875 26.21875 C 21.232007 26.218754 21.696704 26.101868 22.0625 25.84375 C 22.428285 25.585641 22.765184 25.192261 23.0625 24.6875 C 23.27963 24.314675 23.445574 23.860281 23.5625 23.3125 C 23.679413 22.764733 23.749993 22.198594 23.75 21.625 C 23.749993 20.885083 23.65867 20.246459 23.5 19.71875 C 23.341317 19.191062 23.113144 18.775927 22.8125 18.4375 C 22.561952 18.156455 22.263199 17.921791 21.9375 17.78125 C 21.61179 17.640734 21.224355 17.593763 20.75 17.59375 L 17.5625 17.59375 z M 19.5 19.96875 L 19.84375 19.96875 C 20.1611 19.96876 20.403334 19.985671 20.59375 20 C 20.784158 20.01435 20.987062 20.0811 21.1875 20.21875 C 21.33782 20.322006 21.448916 20.520278 21.5625 20.78125 C 21.676074 21.042241 21.749995 21.3574 21.75 21.71875 C 21.749995 22.085853 21.711364 22.369762 21.65625 22.625 C 21.601126 22.880253 21.529846 23.12896 21.40625 23.3125 C 21.262601 23.518998 21.087121 23.649926 20.875 23.71875 C 20.66287 23.787587 20.389871 23.812507 20.0625 23.8125 L 19.5 23.8125 L 19.5 19.96875 z "
       id="rect2987" />
  </g>
</svg>
