<?xml version="1.0" encoding="UTF-8" standalone="no"?>
<!-- Created with Inkscape (http://www.inkscape.org/) -->

<svg
   xmlns:dc="http://purl.org/dc/elements/1.1/"
   xmlns:cc="http://creativecommons.org/ns#"
   xmlns:rdf="http://www.w3.org/1999/02/22-rdf-syntax-ns#"
   xmlns:svg="http://www.w3.org/2000/svg"
   xmlns="http://www.w3.org/2000/svg"
   xmlns:sodipodi="http://sodipodi.sourceforge.net/DTD/sodipodi-0.dtd"
   xmlns:inkscape="http://www.inkscape.org/namespaces/inkscape"
   width="32px"
   height="32px"
   id="svg3096"
   version="1.1"
   inkscape:version="0.48.4 r9939"
   sodipodi:docname="x-shockwave-flash.svg">
  <defs
     id="defs3098" />
  <sodipodi:namedview
     id="base"
     pagecolor="#ffffff"
     bordercolor="#666666"
     borderopacity="1.0"
     inkscape:pageopacity="0.0"
     inkscape:pageshadow="2"
     inkscape:zoom="22.395604"
     inkscape:cx="5.0606904"
     inkscape:cy="2.7836987"
     inkscape:current-layer="layer1"
     showgrid="true"
     inkscape:grid-bbox="true"
     inkscape:document-units="px"
     inkscape:window-width="1920"
     inkscape:window-height="1178"
     inkscape:window-x="1272"
     inkscape:window-y="-8"
     inkscape:window-maximized="1" />
  <metadata
     id="metadata3101">
    <rdf:RDF>
      <cc:Work
         rdf:about="">
        <dc:format>image/svg+xml</dc:format>
        <dc:type
           rdf:resource="http://purl.org/dc/dcmitype/StillImage" />
        <dc:title></dc:title>
      </cc:Work>
    </rdf:RDF>
  </metadata>
  <g
     id="layer1"
     inkscape:label="Layer 1"
     inkscape:groupmode="layer">
    <path
       style="fill:#ff0000"
       d="M 14.3125 17.46875 L 11.5625 30.28125 L 13.5 30.28125 L 14.03125 27.6875 L 16.78125 27.6875 L 17.3125 30.28125 L 19.28125 30.28125 L 16.53125 17.46875 L 14.3125 17.46875 z M 21.78125 17.46875 L 21.78125 25.65625 C 21.781249 27.233615 22.065455 28.43808 22.625 29.28125 C 23.184541 30.124422 24.032634 30.53125 25.125 30.53125 C 26.217358 30.53125 27.03253 30.124422 27.59375 29.28125 C 28.154957 28.43808 28.437493 27.208101 28.4375 25.625 L 28.4375 17.46875 L 26.5 17.46875 L 26.5 25.46875 C 26.499994 26.392227 26.378392 27.050035 26.15625 27.46875 C 25.934098 27.88747 25.606036 28.093752 25.125 28.09375 C 24.637275 28.093752 24.279633 27.873428 24.0625 27.4375 C 23.845361 27.001578 23.718747 26.357812 23.71875 25.46875 L 23.71875 17.46875 L 21.78125 17.46875 z M 15.40625 20.75 L 16.3125 25.34375 L 14.5 25.34375 L 15.40625 20.75 z "
       id="rect2987" />
  </g>
</svg>
