<?xml version="1.0" encoding="UTF-8" standalone="no"?>
<!-- Created with Inkscape (http://www.inkscape.org/) -->

<svg
   xmlns:dc="http://purl.org/dc/elements/1.1/"
   xmlns:cc="http://creativecommons.org/ns#"
   xmlns:rdf="http://www.w3.org/1999/02/22-rdf-syntax-ns#"
   xmlns:svg="http://www.w3.org/2000/svg"
   xmlns="http://www.w3.org/2000/svg"
   xmlns:sodipodi="http://sodipodi.sourceforge.net/DTD/sodipodi-0.dtd"
   xmlns:inkscape="http://www.inkscape.org/namespaces/inkscape"
   width="32px"
   height="32px"
   id="svg3096"
   version="1.1"
   inkscape:version="0.48.4 r9939"
   sodipodi:docname="text_sgml.svg">
  <defs
     id="defs3098" />
  <sodipodi:namedview
     id="base"
     pagecolor="#ffffff"
     bordercolor="#666666"
     borderopacity="1.0"
     inkscape:pageopacity="0.0"
     inkscape:pageshadow="2"
     inkscape:zoom="22.395604"
     inkscape:cx="16.117235"
     inkscape:cy="15.708215"
     inkscape:current-layer="layer1"
     showgrid="true"
     inkscape:grid-bbox="true"
     inkscape:document-units="px"
     inkscape:window-width="1920"
     inkscape:window-height="1178"
     inkscape:window-x="1272"
     inkscape:window-y="-8"
     inkscape:window-maximized="1" />
  <metadata
     id="metadata3101">
    <rdf:RDF>
      <cc:Work
         rdf:about="">
        <dc:format>image/svg+xml</dc:format>
        <dc:type
           rdf:resource="http://purl.org/dc/dcmitype/StillImage" />
        <dc:title></dc:title>
      </cc:Work>
    </rdf:RDF>
  </metadata>
  <g
     id="layer1"
     inkscape:label="Layer 1"
     inkscape:groupmode="layer">
    <path
       style="fill:#ff0000"
       d="M 12.40625 17.59375 L 9.65625 30.40625 L 11.59375 30.40625 L 12.125 27.8125 L 14.875 27.8125 L 15.40625 30.40625 L 17.375 30.40625 L 14.625 17.59375 L 12.40625 17.59375 z M 17.625 17.59375 L 20.34375 30.40625 L 22.5 30.40625 L 25.21875 17.59375 L 23.25 17.59375 L 21.46875 26.59375 L 19.65625 17.59375 L 17.625 17.59375 z M 25.96875 17.59375 L 25.96875 19.875 L 27.1875 19.875 L 27.1875 28.125 L 25.96875 28.125 L 25.96875 30.40625 L 30.34375 30.40625 L 30.34375 28.125 L 29.125 28.125 L 29.125 19.875 L 30.34375 19.875 L 30.34375 17.59375 L 25.96875 17.59375 z M 13.5 20.875 L 14.40625 25.46875 L 12.59375 25.46875 L 13.5 20.875 z "
       id="rect2987" />
  </g>
</svg>
