<?xml version="1.0" encoding="UTF-8" standalone="no"?>
<!-- Created with Inkscape (http://www.inkscape.org/) -->

<svg
   xmlns:dc="http://purl.org/dc/elements/1.1/"
   xmlns:cc="http://creativecommons.org/ns#"
   xmlns:rdf="http://www.w3.org/1999/02/22-rdf-syntax-ns#"
   xmlns:svg="http://www.w3.org/2000/svg"
   xmlns="http://www.w3.org/2000/svg"
   xmlns:sodipodi="http://sodipodi.sourceforge.net/DTD/sodipodi-0.dtd"
   xmlns:inkscape="http://www.inkscape.org/namespaces/inkscape"
   width="32px"
   height="32px"
   id="svg3096"
   version="1.1"
   inkscape:version="0.48.4 r9939"
   sodipodi:docname="text_new.svg">
  <defs
     id="defs3098" />
  <sodipodi:namedview
     id="base"
     pagecolor="#ffffff"
     bordercolor="#666666"
     borderopacity="1.0"
     inkscape:pageopacity="0.0"
     inkscape:pageshadow="2"
     inkscape:zoom="22.395604"
     inkscape:cx="5.0606904"
     inkscape:cy="15.708215"
     inkscape:current-layer="layer1"
     showgrid="true"
     inkscape:grid-bbox="true"
     inkscape:document-units="px"
     inkscape:window-width="1920"
     inkscape:window-height="1018"
     inkscape:window-x="-8"
     inkscape:window-y="-8"
     inkscape:window-maximized="1" />
  <metadata
     id="metadata3101">
    <rdf:RDF>
      <cc:Work
         rdf:about="">
        <dc:format>image/svg+xml</dc:format>
        <dc:type
           rdf:resource="http://purl.org/dc/dcmitype/StillImage" />
        <dc:title></dc:title>
      </cc:Work>
    </rdf:RDF>
  </metadata>
  <g
     id="layer1"
     inkscape:label="Layer 1"
     inkscape:groupmode="layer">
    <path
       style="fill:#ff0000"
       d="M 12.625 17.34375 C 12.057101 17.343763 11.541867 17.502776 11.0625 17.8125 C 10.583127 18.122249 10.167782 18.557162 9.84375 19.125 C 9.5063523 19.715804 9.2707987 20.424046 9.09375 21.25 C 8.9166998 22.075972 8.8124995 22.98476 8.8125 24 C 8.8124995 25.089819 8.9083483 26.074555 9.09375 26.90625 C 9.2791501 27.737952 9.5376023 28.412374 9.875 28.96875 C 10.212395 29.525129 10.624399 29.937693 11.09375 30.21875 C 11.563095 30.499807 12.070463 30.65625 12.625 30.65625 C 12.999138 30.65625 13.286199 30.625594 13.5 30.5625 C 13.71379 30.499405 13.943634 30.401703 14.1875 30.28125 C 14.374565 30.189476 14.548375 30.094939 14.71875 29.96875 C 14.889112 29.842562 15.094172 29.705897 15.28125 29.5625 L 15.28125 26.5 L 15.0625 26.5 C 14.972298 26.637664 14.859047 26.77947 14.71875 26.96875 C 14.57844 27.158037 14.444931 27.333663 14.28125 27.5 C 14.087492 27.706494 13.853823 27.879549 13.625 28 C 13.396167 28.120455 13.171334 28.187502 12.9375 28.1875 C 12.693635 28.187502 12.438038 28.103545 12.1875 27.96875 C 11.936954 27.83396 11.735021 27.627975 11.53125 27.3125 C 11.330813 27.002767 11.163199 26.570425 11.03125 26.03125 C 10.899295 25.492084 10.812497 24.834276 10.8125 24.03125 C 10.812497 23.262652 10.878067 22.601679 11 22.0625 C 11.121928 21.523338 11.271654 21.076953 11.46875 20.75 C 11.675861 20.411594 11.912386 20.177525 12.15625 20.03125 C 12.400107 19.884996 12.66691 19.812511 12.9375 19.8125 C 13.181356 19.812511 13.411199 19.873822 13.625 20 C 13.83879 20.126199 14.035014 20.285213 14.21875 20.46875 C 14.399134 20.652307 14.54552 20.841976 14.6875 21.03125 C 14.829467 21.220543 14.968958 21.393598 15.0625 21.53125 L 15.28125 21.53125 L 15.28125 18.40625 C 15.14428 18.291545 14.963304 18.166055 14.78125 18.03125 C 14.599183 17.89647 14.411311 17.796494 14.1875 17.6875 C 13.973699 17.590003 13.720957 17.497739 13.46875 17.4375 C 13.216533 17.377286 12.939008 17.343763 12.625 17.34375 z M 20.0625 17.34375 C 19.494601 17.343763 18.979367 17.502776 18.5 17.8125 C 18.020627 18.122249 17.605282 18.557162 17.28125 19.125 C 16.943852 19.715804 16.708299 20.424046 16.53125 21.25 C 16.3542 22.075972 16.249999 22.98476 16.25 24 C 16.249999 25.089819 16.345848 26.074555 16.53125 26.90625 C 16.71665 27.737952 16.975102 28.412374 17.3125 28.96875 C 17.649895 29.525129 18.061899 29.937693 18.53125 30.21875 C 19.000595 30.499807 19.507963 30.65625 20.0625 30.65625 C 20.436638 30.65625 20.723699 30.625594 20.9375 30.5625 C 21.15129 30.499405 21.381134 30.401703 21.625 30.28125 C 21.812065 30.189476 21.985875 30.094939 22.15625 29.96875 C 22.326612 29.842562 22.531672 29.705897 22.71875 29.5625 L 22.71875 26.5 L 22.5 26.5 C 22.409798 26.637664 22.296547 26.77947 22.15625 26.96875 C 22.01594 27.158037 21.882431 27.333663 21.71875 27.5 C 21.524992 27.706494 21.291323 27.879549 21.0625 28 C 20.833667 28.120455 20.608834 28.187502 20.375 28.1875 C 20.131135 28.187502 19.875538 28.103545 19.625 27.96875 C 19.374454 27.83396 19.141271 27.627975 18.9375 27.3125 C 18.737063 27.002767 18.600699 26.570425 18.46875 26.03125 C 18.336795 25.492084 18.249997 24.834276 18.25 24.03125 C 18.249997 23.262652 18.315567 22.601679 18.4375 22.0625 C 18.559428 21.523338 18.709154 21.076953 18.90625 20.75 C 19.113361 20.411594 19.349886 20.177525 19.59375 20.03125 C 19.837607 19.884996 20.10441 19.812511 20.375 19.8125 C 20.618856 19.812511 20.848699 19.873822 21.0625 20 C 21.27629 20.126199 21.472514 20.285213 21.65625 20.46875 C 21.836634 20.652307 21.98302 20.841976 22.125 21.03125 C 22.266967 21.220543 22.406458 21.393598 22.5 21.53125 L 22.71875 21.53125 L 22.71875 18.40625 C 22.58178 18.291545 22.400804 18.166055 22.21875 18.03125 C 22.036683 17.89647 21.848811 17.796494 21.625 17.6875 C 21.411199 17.590003 21.158457 17.497739 20.90625 17.4375 C 20.654033 17.377286 20.376508 17.343763 20.0625 17.34375 z M 24.125 17.59375 L 24.125 30.40625 L 26.75 30.40625 C 27.344615 30.40625 27.878223 30.336632 28.3125 30.1875 C 28.746767 30.038368 29.135873 29.753567 29.5 29.375 C 29.984374 28.870246 30.40139 28.162301 30.71875 27.21875 C 31.036095 26.275205 31.187492 25.193064 31.1875 24 C 31.187492 22.761062 31.045632 21.696128 30.75 20.78125 C 30.454353 19.866391 30.045689 19.132932 29.53125 18.59375 C 29.230594 18.272554 28.847198 18.018706 28.40625 17.84375 C 27.965291 17.668819 27.451728 17.593763 26.84375 17.59375 L 24.125 17.59375 z M 26.0625 20 L 26.53125 20 C 26.945476 20.00001 27.263302 20.002284 27.46875 20.0625 C 27.67419 20.122737 27.865402 20.23992 28.0625 20.40625 C 28.45 20.744675 28.727525 21.213112 28.90625 21.8125 C 29.084964 22.411905 29.187494 23.156836 29.1875 24 C 29.187494 24.848913 29.101181 25.548551 28.9375 26.125 C 28.773807 26.701458 28.538253 27.155852 28.1875 27.5 C 27.983721 27.689286 27.745041 27.834554 27.53125 27.90625 C 27.31745 27.977951 26.988903 28.000002 26.53125 28 L 26.0625 28 L 26.0625 20 z "
       id="rect2987" />
  </g>
</svg>
