<?xml version="1.0" encoding="UTF-8" standalone="no"?>
<!-- Created with Inkscape (http://www.inkscape.org/) -->

<svg
   xmlns:dc="http://purl.org/dc/elements/1.1/"
   xmlns:cc="http://creativecommons.org/ns#"
   xmlns:rdf="http://www.w3.org/1999/02/22-rdf-syntax-ns#"
   xmlns:svg="http://www.w3.org/2000/svg"
   xmlns="http://www.w3.org/2000/svg"
   xmlns:sodipodi="http://sodipodi.sourceforge.net/DTD/sodipodi-0.dtd"
   xmlns:inkscape="http://www.inkscape.org/namespaces/inkscape"
   width="32px"
   height="32px"
   id="svg3096"
   version="1.1"
   inkscape:version="0.48.4 r9939"
   sodipodi:docname="xxx.svg">
  <defs
     id="defs3098" />
  <sodipodi:namedview
     id="base"
     pagecolor="#ffffff"
     bordercolor="#666666"
     borderopacity="1.0"
     inkscape:pageopacity="0.0"
     inkscape:pageshadow="2"
     inkscape:zoom="22.395604"
     inkscape:cx="20.652871"
     inkscape:cy="10.834243"
     inkscape:current-layer="layer1"
     showgrid="true"
     inkscape:grid-bbox="true"
     inkscape:document-units="px"
     inkscape:window-width="1920"
     inkscape:window-height="1018"
     inkscape:window-x="-8"
     inkscape:window-y="-8"
     inkscape:window-maximized="1" />
  <metadata
     id="metadata3101">
    <rdf:RDF>
      <cc:Work
         rdf:about="">
        <dc:format>image/svg+xml</dc:format>
        <dc:type
           rdf:resource="http://purl.org/dc/dcmitype/StillImage" />
        <dc:title></dc:title>
      </cc:Work>
    </rdf:RDF>
  </metadata>
  <g
     id="layer1"
     inkscape:label="Layer 1"
     inkscape:groupmode="layer">
    <path
       style="fill:#ff0000"
       d="M 11.375 19.21875 C 10.951547 19.218759 10.57619 19.340056 10.21875 19.5625 C 9.8613064 19.784962 9.5541144 20.092177 9.3125 20.5 C 9.0609198 20.924317 8.8820162 21.438047 8.75 22.03125 C 8.6179827 22.624466 8.5312496 23.270852 8.53125 24 C 8.5312496 24.782711 8.6117555 25.496424 8.75 26.09375 C 8.8882434 26.691081 9.0921697 27.162909 9.34375 27.5625 C 9.5953279 27.962093 9.900029 28.266894 10.25 28.46875 C 10.599967 28.670606 10.96151 28.78125 11.375 28.78125 C 11.653976 28.78125 11.87183 28.764064 12.03125 28.71875 C 12.190663 28.673435 12.380661 28.58651 12.5625 28.5 C 12.701985 28.434088 12.84171 28.371879 12.96875 28.28125 C 13.09578 28.190621 13.204255 28.102988 13.34375 28 L 13.34375 25.78125 L 13.21875 25.78125 C 13.151491 25.880121 13.042112 26.020309 12.9375 26.15625 C 12.832878 26.292196 12.715799 26.411786 12.59375 26.53125 C 12.449274 26.679554 12.295621 26.788492 12.125 26.875 C 11.954371 26.961511 11.799358 27.000002 11.625 27 C 11.443162 27.000002 11.249313 26.97181 11.0625 26.875 C 10.875681 26.778193 10.714441 26.601575 10.5625 26.375 C 10.413045 26.152549 10.285888 25.855987 10.1875 25.46875 C 10.089108 25.081519 10.031248 24.576736 10.03125 24 C 10.031248 23.44799 10.096581 22.98099 10.1875 22.59375 C 10.278415 22.206522 10.384286 21.922319 10.53125 21.6875 C 10.685682 21.444456 10.849413 21.261305 11.03125 21.15625 C 11.213082 21.05121 11.423235 21.000008 11.625 21 C 11.806831 21.000008 11.96558 21.034378 12.125 21.125 C 12.284412 21.215637 12.425497 21.336933 12.5625 21.46875 C 12.697003 21.600581 12.831633 21.739063 12.9375 21.875 C 13.043358 22.010951 13.11775 22.119888 13.1875 22.21875 L 13.34375 22.21875 L 13.34375 20 C 13.241619 19.917618 13.135748 19.815567 13 19.71875 C 12.864242 19.62195 12.698135 19.54703 12.53125 19.46875 C 12.371829 19.398728 12.219308 19.324514 12.03125 19.28125 C 11.843185 19.238004 11.60914 19.218759 11.375 19.21875 z M 16.9375 19.21875 C 16.514047 19.218759 16.10744 19.340056 15.75 19.5625 C 15.392556 19.784962 15.116614 20.092177 14.875 20.5 C 14.62342 20.924317 14.413266 21.438047 14.28125 22.03125 C 14.149233 22.624466 14.09375 23.270852 14.09375 24 C 14.09375 24.782711 14.174255 25.496424 14.3125 26.09375 C 14.450743 26.691081 14.62342 27.162909 14.875 27.5625 C 15.126578 27.962093 15.431279 28.266894 15.78125 28.46875 C 16.131217 28.670606 16.52401 28.78125 16.9375 28.78125 C 17.216476 28.78125 17.43433 28.764064 17.59375 28.71875 C 17.753163 28.673435 17.911911 28.58651 18.09375 28.5 C 18.233235 28.434088 18.37296 28.371879 18.5 28.28125 C 18.62703 28.190621 18.766755 28.102988 18.90625 28 L 18.90625 25.78125 L 18.75 25.78125 C 18.682741 25.880121 18.604612 26.020309 18.5 26.15625 C 18.395378 26.292196 18.278299 26.411786 18.15625 26.53125 C 18.011774 26.679554 17.858121 26.788492 17.6875 26.875 C 17.516871 26.961511 17.330608 27.000002 17.15625 27 C 16.974412 27.000002 16.780563 26.97181 16.59375 26.875 C 16.406931 26.778193 16.245691 26.601575 16.09375 26.375 C 15.944295 26.152549 15.817138 25.855987 15.71875 25.46875 C 15.620358 25.081519 15.593748 24.576736 15.59375 24 C 15.593748 23.44799 15.627831 22.98099 15.71875 22.59375 C 15.809665 22.206522 15.915536 21.922319 16.0625 21.6875 C 16.216932 21.444456 16.411913 21.261305 16.59375 21.15625 C 16.775582 21.05121 16.954485 21.000008 17.15625 21 C 17.338081 21.000008 17.49683 21.034378 17.65625 21.125 C 17.815662 21.215637 17.987997 21.336933 18.125 21.46875 C 18.259503 21.600581 18.362883 21.739063 18.46875 21.875 C 18.574608 22.010951 18.68025 22.119888 18.75 22.21875 L 18.90625 22.21875 L 18.90625 20 C 18.804119 19.917618 18.666998 19.815567 18.53125 19.71875 C 18.395492 19.62195 18.260635 19.54703 18.09375 19.46875 C 17.934329 19.398728 17.750558 19.324514 17.5625 19.28125 C 17.374435 19.238004 17.17164 19.218759 16.9375 19.21875 z M 19.96875 19.40625 L 19.96875 28.59375 L 21.9375 28.59375 C 22.380874 28.59375 22.738682 28.544607 23.0625 28.4375 C 23.386311 28.330393 23.697239 28.146888 23.96875 27.875 C 24.329923 27.512484 24.638361 26.990161 24.875 26.3125 C 25.111628 25.634843 25.218744 24.856862 25.21875 24 C 25.218744 23.110191 25.095437 22.344568 24.875 21.6875 C 24.654551 21.030445 24.352341 20.512242 23.96875 20.125 C 23.744566 19.894316 23.485043 19.719404 23.15625 19.59375 C 22.82745 19.468114 22.422088 19.406259 21.96875 19.40625 L 19.96875 19.40625 z M 27.75 19.40625 L 25.6875 28.59375 L 27.125 28.59375 L 27.53125 26.75 L 29.59375 26.75 L 29.96875 28.59375 L 31.46875 28.59375 L 29.40625 19.40625 L 27.75 19.40625 z M 21.40625 21.125 L 21.75 21.125 C 22.058867 21.125007 22.284308 21.144253 22.4375 21.1875 C 22.590686 21.230762 22.759284 21.318041 22.90625 21.4375 C 23.195189 21.680558 23.397984 22.007018 23.53125 22.4375 C 23.664508 22.867995 23.749996 23.394437 23.75 24 C 23.749996 24.609692 23.684549 25.117243 23.5625 25.53125 C 23.440442 25.945264 23.230289 26.284082 22.96875 26.53125 C 22.816802 26.667196 22.659413 26.761008 22.5 26.8125 C 22.34058 26.863996 22.091248 26.875002 21.75 26.875 L 21.40625 26.875 L 21.40625 21.125 z M 28.5625 21.75 L 29.25 25.0625 L 27.875 25.0625 L 28.5625 21.75 z "
       id="rect2987" />
  </g>
</svg>
