<?xml version="1.0" encoding="UTF-8" standalone="no"?>
<!-- Created with Inkscape (http://www.inkscape.org/) -->

<svg
   xmlns:dc="http://purl.org/dc/elements/1.1/"
   xmlns:cc="http://creativecommons.org/ns#"
   xmlns:rdf="http://www.w3.org/1999/02/22-rdf-syntax-ns#"
   xmlns:svg="http://www.w3.org/2000/svg"
   xmlns="http://www.w3.org/2000/svg"
   xmlns:sodipodi="http://sodipodi.sourceforge.net/DTD/sodipodi-0.dtd"
   xmlns:inkscape="http://www.inkscape.org/namespaces/inkscape"
   width="32px"
   height="32px"
   id="svg3096"
   version="1.1"
   inkscape:version="0.48.4 r9939"
   sodipodi:docname="ccd_new.svg">
  <defs
     id="defs3098" />
  <sodipodi:namedview
     id="base"
     pagecolor="#ffffff"
     bordercolor="#666666"
     borderopacity="1.0"
     inkscape:pageopacity="0.0"
     inkscape:pageshadow="2"
     inkscape:zoom="22.395604"
     inkscape:cx="9.0054048"
     inkscape:cy="15.708215"
     inkscape:current-layer="layer1"
     showgrid="true"
     inkscape:grid-bbox="true"
     inkscape:document-units="px"
     inkscape:window-width="1920"
     inkscape:window-height="1018"
     inkscape:window-x="-8"
     inkscape:window-y="-8"
     inkscape:window-maximized="1" />
  <metadata
     id="metadata3101">
    <rdf:RDF>
      <cc:Work
         rdf:about="">
        <dc:format>image/svg+xml</dc:format>
        <dc:type
           rdf:resource="http://purl.org/dc/dcmitype/StillImage" />
        <dc:title></dc:title>
      </cc:Work>
    </rdf:RDF>
  </metadata>
  <g
     id="layer1"
     inkscape:label="Layer 1"
     inkscape:groupmode="layer">
    <path
       style="fill:#ff0000"
       d="M 12.625 17.375 C 12.065876 17.375013 11.56571 17.535324 11.09375 17.84375 C 10.621784 18.152201 10.225276 18.590791 9.90625 19.15625 C 9.5740655 19.744579 9.2993131 20.427507 9.125 21.25 C 8.9506854 22.072511 8.8749995 22.989014 8.875 24 C 8.8749995 25.085252 8.973713 26.04679 9.15625 26.875 C 9.3387854 27.703217 9.5740655 28.414705 9.90625 28.96875 C 10.238431 29.522798 10.662901 29.938871 11.125 30.21875 C 11.587093 30.498629 12.079032 30.625 12.625 30.625 C 12.993357 30.625 13.289503 30.59408 13.5 30.53125 C 13.710487 30.46842 13.916152 30.369948 14.15625 30.25 C 14.340425 30.158611 14.519758 30.06316 14.6875 29.9375 C 14.85523 29.81184 15.034562 29.674046 15.21875 29.53125 L 15.21875 26.46875 L 15.03125 26.46875 C 14.942442 26.605838 14.825629 26.780263 14.6875 26.96875 C 14.549358 27.157243 14.411152 27.33436 14.25 27.5 C 14.059236 27.705628 13.850287 27.880054 13.625 28 C 13.399702 28.119951 13.167721 28.156252 12.9375 28.15625 C 12.697403 28.156252 12.434167 28.10298 12.1875 27.96875 C 11.940826 27.834525 11.731872 27.595403 11.53125 27.28125 C 11.33391 26.972815 11.16116 26.568165 11.03125 26.03125 C 10.901334 25.494343 10.843748 24.830911 10.84375 24.03125 C 10.843748 23.265872 10.911201 22.599419 11.03125 22.0625 C 11.151294 21.525597 11.305949 21.106833 11.5 20.78125 C 11.703911 20.444262 11.916154 20.208162 12.15625 20.0625 C 12.396339 19.916859 12.639841 19.843761 12.90625 19.84375 C 13.146338 19.843761 13.383253 19.9056 13.59375 20.03125 C 13.804237 20.15692 14.006602 20.285982 14.1875 20.46875 C 14.365097 20.651538 14.516464 20.842769 14.65625 21.03125 C 14.796024 21.219749 14.907903 21.394175 15 21.53125 L 15.21875 21.53125 L 15.21875 18.4375 C 15.083897 18.323276 14.929241 18.19674 14.75 18.0625 C 14.570746 17.928285 14.376603 17.796037 14.15625 17.6875 C 13.945752 17.590412 13.71706 17.528737 13.46875 17.46875 C 13.22043 17.408789 12.934156 17.375013 12.625 17.375 z M 16.625 17.625 L 16.625 30.375 L 19.21875 30.375 C 19.804178 30.375 20.322433 30.304758 20.75 30.15625 C 21.177557 30.007743 21.547749 29.751981 21.90625 29.375 C 22.38314 28.872361 22.781293 28.158348 23.09375 27.21875 C 23.406192 26.279159 23.562492 25.188065 23.5625 24 C 23.562492 22.766253 23.416064 21.692295 23.125 20.78125 C 22.833921 19.870224 22.443991 19.161923 21.9375 18.625 C 21.641489 18.30515 21.277885 18.049223 20.84375 17.875 C 20.409605 17.700802 19.879833 17.625013 19.28125 17.625 L 16.625 17.625 z M 26.90625 17.625 L 24.1875 30.375 L 26.09375 30.375 L 26.625 27.8125 L 29.34375 27.8125 L 29.84375 30.375 L 31.8125 30.375 L 29.09375 17.625 L 26.90625 17.625 z M 18.53125 20 L 19 20 C 19.407825 20.00001 19.703976 20.033786 19.90625 20.09375 C 20.108516 20.153734 20.305948 20.271867 20.5 20.4375 C 20.881512 20.774507 21.167786 21.246873 21.34375 21.84375 C 21.519703 22.440644 21.593744 23.160369 21.59375 24 C 21.593744 24.845356 21.536152 25.550966 21.375 26.125 C 21.213836 26.699042 20.939084 27.157294 20.59375 27.5 C 20.39312 27.688493 20.210488 27.803605 20 27.875 C 19.789504 27.9464 19.450581 28.000002 19 28 L 18.53125 28 L 18.53125 20 z M 27.96875 20.875 L 28.875 25.46875 L 27.0625 25.46875 L 27.96875 20.875 z "
       id="rect2987" />
  </g>
</svg>
