<?xml version="1.0" encoding="UTF-8" standalone="no"?>
<!-- Created with Inkscape (http://www.inkscape.org/) -->

<svg
   xmlns:dc="http://purl.org/dc/elements/1.1/"
   xmlns:cc="http://creativecommons.org/ns#"
   xmlns:rdf="http://www.w3.org/1999/02/22-rdf-syntax-ns#"
   xmlns:svg="http://www.w3.org/2000/svg"
   xmlns="http://www.w3.org/2000/svg"
   xmlns:sodipodi="http://sodipodi.sourceforge.net/DTD/sodipodi-0.dtd"
   xmlns:inkscape="http://www.inkscape.org/namespaces/inkscape"
   width="32px"
   height="32px"
   id="svg3096"
   version="1.1"
   inkscape:version="0.48.4 r9939"
   sodipodi:docname="dcm.svg">
  <defs
     id="defs3098" />
  <sodipodi:namedview
     id="base"
     pagecolor="#ffffff"
     bordercolor="#666666"
     borderopacity="1.0"
     inkscape:pageopacity="0.0"
     inkscape:pageshadow="2"
     inkscape:zoom="22.395604"
     inkscape:cx="7.4929519"
     inkscape:cy="5.060601"
     inkscape:current-layer="layer1"
     showgrid="true"
     inkscape:grid-bbox="true"
     inkscape:document-units="px"
     inkscape:window-width="1920"
     inkscape:window-height="1178"
     inkscape:window-x="1272"
     inkscape:window-y="-8"
     inkscape:window-maximized="1" />
  <metadata
     id="metadata3101">
    <rdf:RDF>
      <cc:Work
         rdf:about="">
        <dc:format>image/svg+xml</dc:format>
        <dc:type
           rdf:resource="http://purl.org/dc/dcmitype/StillImage" />
        <dc:title />
      </cc:Work>
    </rdf:RDF>
  </metadata>
  <g
     id="layer1"
     inkscape:label="Layer 1"
     inkscape:groupmode="layer">
    <path
       style="fill:#ff0000"
       d="M 20 17.34375 C 19.432101 17.343763 18.916867 17.502776 18.4375 17.8125 C 17.958127 18.122249 17.542782 18.557162 17.21875 19.125 C 16.881352 19.715804 16.645799 20.424046 16.46875 21.25 C 16.2917 22.075972 16.187499 22.98476 16.1875 24 C 16.187499 25.089819 16.283348 26.074555 16.46875 26.90625 C 16.65415 27.737952 16.912602 28.412374 17.25 28.96875 C 17.587395 29.525129 17.999399 29.937693 18.46875 30.21875 C 18.938095 30.499807 19.445463 30.65625 20 30.65625 C 20.374138 30.65625 20.661199 30.625594 20.875 30.5625 C 21.08879 30.499405 21.318634 30.401703 21.5625 30.28125 C 21.749565 30.189476 21.923375 30.094939 22.09375 29.96875 C 22.264112 29.842562 22.469172 29.705897 22.65625 29.5625 L 22.65625 26.5 L 22.4375 26.5 C 22.347298 26.637664 22.234047 26.77947 22.09375 26.96875 C 21.95344 27.158037 21.819931 27.333663 21.65625 27.5 C 21.462492 27.706494 21.228823 27.879549 21 28 C 20.771167 28.120455 20.546334 28.187502 20.3125 28.1875 C 20.068635 28.187502 19.813038 28.103545 19.5625 27.96875 C 19.311954 27.83396 19.078771 27.627975 18.875 27.3125 C 18.674563 27.002767 18.538199 26.570425 18.40625 26.03125 C 18.274295 25.492084 18.187497 24.834276 18.1875 24.03125 C 18.187497 23.262652 18.253067 22.601679 18.375 22.0625 C 18.496928 21.523338 18.646654 21.076953 18.84375 20.75 C 19.050861 20.411594 19.287386 20.177525 19.53125 20.03125 C 19.775107 19.884996 20.04191 19.812511 20.3125 19.8125 C 20.556356 19.812511 20.786199 19.873822 21 20 C 21.21379 20.126199 21.410014 20.285213 21.59375 20.46875 C 21.774134 20.652307 21.92052 20.841976 22.0625 21.03125 C 22.204467 21.220543 22.343958 21.393598 22.4375 21.53125 L 22.65625 21.53125 L 22.65625 18.40625 C 22.51928 18.291545 22.338304 18.166055 22.15625 18.03125 C 21.974183 17.89647 21.786311 17.796494 21.5625 17.6875 C 21.348699 17.590003 21.095957 17.497739 20.84375 17.4375 C 20.591533 17.377286 20.314008 17.343763 20 17.34375 z M 8.8125 17.59375 L 8.8125 30.40625 L 11.4375 30.40625 C 12.032115 30.40625 12.534473 30.336632 12.96875 30.1875 C 13.403017 30.038368 13.792123 29.753567 14.15625 29.375 C 14.640624 28.870246 15.05764 28.162301 15.375 27.21875 C 15.692345 26.275205 15.843742 25.193064 15.84375 24 C 15.843742 22.761062 15.701882 21.696128 15.40625 20.78125 C 15.110603 19.866391 14.701939 19.132932 14.1875 18.59375 C 13.886844 18.272554 13.503448 18.018706 13.0625 17.84375 C 12.621541 17.668819 12.107978 17.593763 11.5 17.59375 L 8.8125 17.59375 z M 23.375 17.59375 L 23.375 30.40625 L 25.1875 30.40625 L 25.1875 21.8125 L 26.5625 27.40625 L 27.90625 27.40625 L 29.28125 21.8125 L 29.28125 30.40625 L 31.1875 30.40625 L 31.1875 17.59375 L 28.96875 17.59375 L 27.28125 24.03125 L 25.625 17.59375 L 23.375 17.59375 z M 10.71875 20 L 11.21875 20 C 11.632976 20.00001 11.919552 20.002284 12.125 20.0625 C 12.33044 20.122737 12.552902 20.23992 12.75 20.40625 C 13.1375 20.744675 13.415025 21.213112 13.59375 21.8125 C 13.772464 22.411905 13.874994 23.156836 13.875 24 C 13.874994 24.848913 13.788681 25.548551 13.625 26.125 C 13.461307 26.701458 13.194503 27.155852 12.84375 27.5 C 12.639971 27.689286 12.432541 27.834554 12.21875 27.90625 C 12.00495 27.977951 11.676403 28.000002 11.21875 28 L 10.71875 28 L 10.71875 20 z "
       id="rect2987" />
  </g>
</svg>
