<?xml version="1.0" encoding="UTF-8" standalone="no"?>
<!-- Created with Inkscape (http://www.inkscape.org/) -->

<svg
   xmlns:dc="http://purl.org/dc/elements/1.1/"
   xmlns:cc="http://creativecommons.org/ns#"
   xmlns:rdf="http://www.w3.org/1999/02/22-rdf-syntax-ns#"
   xmlns:svg="http://www.w3.org/2000/svg"
   xmlns="http://www.w3.org/2000/svg"
   xmlns:sodipodi="http://sodipodi.sourceforge.net/DTD/sodipodi-0.dtd"
   xmlns:inkscape="http://www.inkscape.org/namespaces/inkscape"
   width="32px"
   height="32px"
   id="svg3096"
   version="1.1"
   inkscape:version="0.48.4 r9939"
   sodipodi:docname="dcm.svg">
  <defs
     id="defs3098" />
  <sodipodi:namedview
     id="base"
     pagecolor="#ffffff"
     bordercolor="#666666"
     borderopacity="1.0"
     inkscape:pageopacity="0.0"
     inkscape:pageshadow="2"
     inkscape:zoom="22.395604"
     inkscape:cx="20.652871"
     inkscape:cy="10.834243"
     inkscape:current-layer="layer1"
     showgrid="true"
     inkscape:grid-bbox="true"
     inkscape:document-units="px"
     inkscape:window-width="1920"
     inkscape:window-height="1018"
     inkscape:window-x="-8"
     inkscape:window-y="-8"
     inkscape:window-maximized="1" />
  <metadata
     id="metadata3101">
    <rdf:RDF>
      <cc:Work
         rdf:about="">
        <dc:format>image/svg+xml</dc:format>
        <dc:type
           rdf:resource="http://purl.org/dc/dcmitype/StillImage" />
        <dc:title></dc:title>
      </cc:Work>
    </rdf:RDF>
  </metadata>
  <g
     id="layer1"
     inkscape:label="Layer 1"
     inkscape:groupmode="layer">
    <path
       style="fill:#ff0000"
       d="M 12.46875 17.34375 C 12.011091 17.343763 11.538042 17.424555 11.09375 17.59375 C 10.649454 17.762971 10.338795 17.907644 10.125 18.0625 L 10.125 20.6875 L 10.3125 20.6875 C 10.563041 20.406453 10.853928 20.177822 11.15625 20 C 11.458569 19.822199 11.728227 19.750011 11.96875 19.75 C 12.359592 19.750011 12.659531 19.881236 12.875 20.125 C 13.090462 20.368784 13.187496 20.770174 13.1875 21.34375 C 13.187496 21.728061 13.143155 22.071008 13.03125 22.375 C 12.919338 22.679008 12.75959 22.926823 12.5625 23.15625 C 12.352042 23.414371 12.160829 23.60404 11.96875 23.71875 C 11.776665 23.833474 11.549678 23.953525 11.3125 24.0625 L 11.3125 26.96875 L 13.09375 26.96875 L 13.09375 25 C 13.411099 24.787779 13.685283 24.53937 13.9375 24.28125 C 14.189707 24.023143 14.413355 23.733201 14.59375 23.40625 C 14.774135 23.079313 14.901448 22.694537 15 22.25 C 15.098541 21.805479 15.156244 21.298081 15.15625 20.71875 C 15.156244 19.709249 14.921876 18.90647 14.4375 18.28125 C 13.953114 17.656054 13.293864 17.343763 12.46875 17.34375 z M 19.8125 17.34375 C 19.354841 17.343763 18.913042 17.424555 18.46875 17.59375 C 18.024454 17.762971 17.713795 17.907644 17.5 18.0625 L 17.5 20.6875 L 17.6875 20.6875 C 17.938041 20.406453 18.197678 20.177822 18.5 20 C 18.802319 19.822199 19.103227 19.750011 19.34375 19.75 C 19.734592 19.750011 20.034531 19.881236 20.25 20.125 C 20.465462 20.368784 20.562496 20.770174 20.5625 21.34375 C 20.562496 21.728061 20.518155 22.071008 20.40625 22.375 C 20.294338 22.679008 20.13459 22.926823 19.9375 23.15625 C 19.727042 23.414371 19.504579 23.60404 19.3125 23.71875 C 19.120415 23.833474 18.924678 23.953525 18.6875 24.0625 L 18.6875 26.96875 L 20.4375 26.96875 L 20.4375 25 C 20.754849 24.787779 21.060283 24.53937 21.3125 24.28125 C 21.564707 24.023143 21.757105 23.733201 21.9375 23.40625 C 22.117885 23.079313 22.276448 22.694537 22.375 22.25 C 22.473541 21.805479 22.499994 21.298081 22.5 20.71875 C 22.499994 19.709249 22.265626 18.90647 21.78125 18.28125 C 21.296864 17.656054 20.637614 17.343763 19.8125 17.34375 z M 27.1875 17.34375 C 26.729841 17.343763 26.288042 17.424555 25.84375 17.59375 C 25.399454 17.762971 25.057545 17.907644 24.84375 18.0625 L 24.84375 20.6875 L 25.0625 20.6875 C 25.313041 20.406453 25.572678 20.177822 25.875 20 C 26.177319 19.822199 26.446977 19.750011 26.6875 19.75 C 27.078342 19.750011 27.378281 19.881236 27.59375 20.125 C 27.809212 20.368784 27.937496 20.770174 27.9375 21.34375 C 27.937496 21.728061 27.861905 22.071008 27.75 22.375 C 27.638088 22.679008 27.47834 22.926823 27.28125 23.15625 C 27.070792 23.414371 26.879579 23.60404 26.6875 23.71875 C 26.495415 23.833474 26.268428 23.953525 26.03125 24.0625 L 26.03125 26.96875 L 27.8125 26.96875 L 27.8125 25 C 28.129849 24.787779 28.404033 24.53937 28.65625 24.28125 C 28.908457 24.023143 29.132105 23.733201 29.3125 23.40625 C 29.492885 23.079313 29.620198 22.694537 29.71875 22.25 C 29.817291 21.805479 29.874994 21.298081 29.875 20.71875 C 29.874994 19.709249 29.640626 18.90647 29.15625 18.28125 C 28.671864 17.656054 28.012614 17.343763 27.1875 17.34375 z M 11.1875 28.125 L 11.1875 30.40625 L 13.21875 30.40625 L 13.21875 28.125 L 11.1875 28.125 z M 18.5625 28.125 L 18.5625 30.40625 L 20.59375 30.40625 L 20.59375 28.125 L 18.5625 28.125 z M 25.9375 28.125 L 25.9375 30.40625 L 27.9375 30.40625 L 27.9375 28.125 L 25.9375 28.125 z "
       id="rect2987" />
  </g>
</svg>
