<?xml version="1.0" encoding="UTF-8" standalone="no"?>
<!-- Created with Inkscape (http://www.inkscape.org/) -->

<svg
   xmlns:dc="http://purl.org/dc/elements/1.1/"
   xmlns:cc="http://creativecommons.org/ns#"
   xmlns:rdf="http://www.w3.org/1999/02/22-rdf-syntax-ns#"
   xmlns:svg="http://www.w3.org/2000/svg"
   xmlns="http://www.w3.org/2000/svg"
   xmlns:sodipodi="http://sodipodi.sourceforge.net/DTD/sodipodi-0.dtd"
   xmlns:inkscape="http://www.inkscape.org/namespaces/inkscape"
   width="32px"
   height="32px"
   id="svg3096"
   version="1.1"
   inkscape:version="0.48.4 r9939"
   sodipodi:docname="default.svg">
  <defs
     id="defs3098" />
  <sodipodi:namedview
     id="base"
     pagecolor="#ffffff"
     bordercolor="#666666"
     borderopacity="1.0"
     inkscape:pageopacity="0.0"
     inkscape:pageshadow="2"
     inkscape:zoom="22.395604"
     inkscape:cx="20.652871"
     inkscape:cy="10.834243"
     inkscape:current-layer="layer1"
     showgrid="true"
     inkscape:grid-bbox="true"
     inkscape:document-units="px"
     inkscape:window-width="1920"
     inkscape:window-height="1018"
     inkscape:window-x="-8"
     inkscape:window-y="-8"
     inkscape:window-maximized="1" />
  <metadata
     id="metadata3101">
    <rdf:RDF>
      <cc:Work
         rdf:about="">
        <dc:format>image/svg+xml</dc:format>
        <dc:type
           rdf:resource="http://purl.org/dc/dcmitype/StillImage" />
        <dc:title></dc:title>
      </cc:Work>
    </rdf:RDF>
  </metadata>
  <g
     id="layer1"
     inkscape:label="Layer 1"
     inkscape:groupmode="layer">
    <path
       style="fill:#ff0000"
       d="M 20.3125 17.3125 C 19.113236 17.312513 18.150222 17.929086 17.46875 19.125 C 16.787275 20.320937 16.468749 21.940834 16.46875 24 C 16.468749 26.041971 16.787275 27.67334 17.46875 28.875 C 18.150222 30.076663 19.113236 30.6875 20.3125 30.6875 C 21.515096 30.6875 22.443519 30.076663 23.125 28.875 C 23.806466 27.67334 24.156242 26.041971 24.15625 24 C 24.156242 21.940834 23.809807 20.320937 23.125 19.125 C 22.440179 17.929086 21.508415 17.312513 20.3125 17.3125 z M 28.5625 17.34375 C 27.994601 17.343763 27.448117 17.502776 26.96875 17.8125 C 26.489377 18.122249 26.105282 18.557162 25.78125 19.125 C 25.443852 19.715804 25.177049 20.424046 25 21.25 C 24.82295 22.075972 24.749999 22.98476 24.75 24 C 24.749999 25.089819 24.845848 26.074555 25.03125 26.90625 C 25.21665 27.737952 25.475102 28.412374 25.8125 28.96875 C 26.149895 29.525129 26.530649 29.937693 27 30.21875 C 27.469345 30.499807 28.007963 30.65625 28.5625 30.65625 C 28.936638 30.65625 29.223699 30.625594 29.4375 30.5625 C 29.65129 30.499405 29.881134 30.401703 30.125 30.28125 C 30.312065 30.189476 30.485875 30.094939 30.65625 29.96875 C 30.826612 29.842562 31.000422 29.705897 31.1875 29.5625 L 31.1875 26.5 L 31 26.5 C 30.909798 26.637664 30.796547 26.77947 30.65625 26.96875 C 30.51594 27.158037 30.351181 27.333663 30.1875 27.5 C 29.993742 27.706494 29.791323 27.879549 29.5625 28 C 29.333667 28.120455 29.108834 28.187502 28.875 28.1875 C 28.631135 28.187502 28.375538 28.103545 28.125 27.96875 C 27.874454 27.83396 27.641271 27.627975 27.4375 27.3125 C 27.237063 27.002767 27.069449 26.570425 26.9375 26.03125 C 26.805545 25.492084 26.749997 24.834276 26.75 24.03125 C 26.749997 23.262652 26.815567 22.601679 26.9375 22.0625 C 27.059428 21.523338 27.209154 21.076953 27.40625 20.75 C 27.613361 20.411594 27.849886 20.177525 28.09375 20.03125 C 28.337607 19.884996 28.57316 19.812511 28.84375 19.8125 C 29.087606 19.812511 29.317449 19.873822 29.53125 20 C 29.74504 20.126199 29.941264 20.285213 30.125 20.46875 C 30.305384 20.652307 30.48302 20.841976 30.625 21.03125 C 30.766967 21.220543 30.875208 21.393598 30.96875 21.53125 L 31.1875 21.53125 L 31.1875 18.40625 C 31.05053 18.291545 30.900804 18.166055 30.71875 18.03125 C 30.536683 17.89647 30.317561 17.796494 30.09375 17.6875 C 29.879949 17.590003 29.658457 17.497739 29.40625 17.4375 C 29.154033 17.377286 28.876508 17.343763 28.5625 17.34375 z M 8.8125 17.59375 L 8.8125 30.40625 L 11.4375 30.40625 C 12.032115 30.40625 12.534473 30.336632 12.96875 30.1875 C 13.403017 30.038368 13.823373 29.753567 14.1875 29.375 C 14.671874 28.870246 15.05764 28.162301 15.375 27.21875 C 15.692345 26.275205 15.874992 25.193064 15.875 24 C 15.874992 22.761062 15.701882 21.696128 15.40625 20.78125 C 15.110603 19.866391 14.701939 19.132932 14.1875 18.59375 C 13.886844 18.272554 13.534698 18.018706 13.09375 17.84375 C 12.652791 17.668819 12.139228 17.593763 11.53125 17.59375 L 8.8125 17.59375 z M 20.3125 19.75 C 20.553016 19.750011 20.777848 19.813892 21 19.96875 C 21.222142 20.123629 21.423376 20.374608 21.59375 20.71875 C 21.760772 21.051439 21.896437 21.492088 22 22.03125 C 22.103551 22.570429 22.156244 23.231402 22.15625 24 C 22.156244 24.716988 22.090189 25.344438 22 25.875 C 21.909799 26.405571 21.780815 26.859965 21.59375 27.25 C 21.426717 27.594154 21.223812 27.836531 21 28 C 20.776178 28.163474 20.559697 28.250002 20.3125 28.25 C 20.065294 28.250002 19.817564 28.160606 19.59375 28 C 19.369929 27.839398 19.167025 27.588419 19 27.25 C 18.832969 26.911588 18.726884 26.473807 18.625 25.9375 C 18.52311 25.401202 18.468747 24.762875 18.46875 24 C 18.468747 23.254345 18.51977 22.59624 18.625 22.03125 C 18.730225 21.466277 18.864219 21.039968 19.03125 20.71875 C 19.211637 20.374608 19.40953 20.117893 19.625 19.96875 C 19.840462 19.819628 20.068635 19.750011 20.3125 19.75 z M 10.71875 20 L 11.21875 20 C 11.632976 20.00001 11.950802 20.002284 12.15625 20.0625 C 12.36169 20.122737 12.552902 20.23992 12.75 20.40625 C 13.1375 20.744675 13.415025 21.213112 13.59375 21.8125 C 13.772464 22.411905 13.874994 23.156836 13.875 24 C 13.874994 24.848913 13.788681 25.548551 13.625 26.125 C 13.461307 26.701458 13.194503 27.155852 12.84375 27.5 C 12.639971 27.689286 12.432541 27.834554 12.21875 27.90625 C 12.00495 27.977951 11.676403 28.000002 11.21875 28 L 10.71875 28 L 10.71875 20 z "
       id="rect2987" />
  </g>
</svg>
