<?xml version="1.0" encoding="UTF-8" standalone="no"?>
<!-- Created with Inkscape (http://www.inkscape.org/) -->

<svg
   xmlns:dc="http://purl.org/dc/elements/1.1/"
   xmlns:cc="http://creativecommons.org/ns#"
   xmlns:rdf="http://www.w3.org/1999/02/22-rdf-syntax-ns#"
   xmlns:svg="http://www.w3.org/2000/svg"
   xmlns="http://www.w3.org/2000/svg"
   xmlns:sodipodi="http://sodipodi.sourceforge.net/DTD/sodipodi-0.dtd"
   xmlns:inkscape="http://www.inkscape.org/namespaces/inkscape"
   width="32px"
   height="32px"
   id="svg3096"
   version="1.1"
   inkscape:version="0.48.4 r9939"
   sodipodi:docname="folder.svg">
  <defs
     id="defs3098" />
  <sodipodi:namedview
     id="base"
     pagecolor="#ffffff"
     bordercolor="#666666"
     borderopacity="1.0"
     inkscape:pageopacity="0.0"
     inkscape:pageshadow="2"
     inkscape:zoom="22.395604"
     inkscape:cx="13.356066"
     inkscape:cy="16.916171"
     inkscape:current-layer="layer1"
     showgrid="true"
     inkscape:grid-bbox="true"
     inkscape:document-units="px"
     inkscape:window-width="1920"
     inkscape:window-height="1018"
     inkscape:window-x="-8"
     inkscape:window-y="-8"
     inkscape:window-maximized="1" />
  <metadata
     id="metadata3101">
    <rdf:RDF>
      <cc:Work
         rdf:about="">
        <dc:format>image/svg+xml</dc:format>
        <dc:type
           rdf:resource="http://purl.org/dc/dcmitype/StillImage" />
        <dc:title />
      </cc:Work>
    </rdf:RDF>
  </metadata>
  <g
     id="layer1"
     inkscape:label="Layer 1"
     inkscape:groupmode="layer">
    <path
       style="fill:#000000"
       d="M 3.09375 3.125 L 2.28125 7.03125 L 2.28125 7.0625 L 2.125 7.03125 L 0 7.03125 L 0 14.4375 L 6.625 14.4375 L 6.8125 13.96875 C 6.8214367 13.946996 6.8216606 13.960679 6.84375 13.96875 L 6.90625 14 L 6.90625 13.96875 L 24.28125 13.96875 C 20.760744 13.612177 18.015878 10.642059 18 7.03125 L 16 7.03125 L 16 7 C 15.978776 7.0101303 15.94763 6.9899742 15.9375 6.96875 L 14.09375 3.125 L 3.09375 3.125 z M 32 7.03125 C 31.984122 10.642059 29.239256 13.612177 25.71875 13.96875 L 32 13.96875 L 32 7.03125 z M 7.46875 15.9375 L 7.09375 16.875 L 7.09375 16.9375 L 0 16.9375 L 0 27 L 8 27 L 8 16 L 32 16 L 32 15.9375 L 7.46875 15.9375 z "
       id="rect2983" />
  </g>
</svg>
