<?xml version="1.0" encoding="UTF-8" standalone="no"?>
<!-- Created with Inkscape (http://www.inkscape.org/) -->

<svg
   xmlns:dc="http://purl.org/dc/elements/1.1/"
   xmlns:cc="http://creativecommons.org/ns#"
   xmlns:rdf="http://www.w3.org/1999/02/22-rdf-syntax-ns#"
   xmlns:svg="http://www.w3.org/2000/svg"
   xmlns="http://www.w3.org/2000/svg"
   xmlns:sodipodi="http://sodipodi.sourceforge.net/DTD/sodipodi-0.dtd"
   xmlns:inkscape="http://www.inkscape.org/namespaces/inkscape"
   width="32px"
   height="32px"
   id="svg3096"
   version="1.1"
   inkscape:version="0.48.4 r9939"
   sodipodi:docname="audio_mpeg.svg">
  <defs
     id="defs3098" />
  <sodipodi:namedview
     id="base"
     pagecolor="#ffffff"
     bordercolor="#666666"
     borderopacity="1.0"
     inkscape:pageopacity="0.0"
     inkscape:pageshadow="2"
     inkscape:zoom="22.395604"
     inkscape:cx="5.0606904"
     inkscape:cy="15.708215"
     inkscape:current-layer="layer1"
     showgrid="true"
     inkscape:grid-bbox="true"
     inkscape:document-units="px"
     inkscape:window-width="1920"
     inkscape:window-height="1178"
     inkscape:window-x="1272"
     inkscape:window-y="-8"
     inkscape:window-maximized="1" />
  <metadata
     id="metadata3101">
    <rdf:RDF>
      <cc:Work
         rdf:about="">
        <dc:format>image/svg+xml</dc:format>
        <dc:type
           rdf:resource="http://purl.org/dc/dcmitype/StillImage" />
        <dc:title></dc:title>
      </cc:Work>
    </rdf:RDF>
  </metadata>
  <g
     id="layer1"
     inkscape:label="Layer 1"
     inkscape:groupmode="layer">
    <path
       style="fill:#ff0000"
       d="M 24.84375 17.3125 C 24.359366 17.312513 23.877266 17.418819 23.40625 17.59375 C 22.93523 17.768706 22.555175 17.935729 22.28125 18.125 L 22.28125 20.90625 L 22.46875 20.90625 C 22.812826 20.556372 23.163787 20.311426 23.53125 20.125 C 23.898709 19.938595 24.248485 19.843761 24.5625 19.84375 C 24.689438 19.843761 24.854197 19.840595 25.03125 19.875 C 25.208296 19.909426 25.338464 19.990515 25.46875 20.09375 C 25.585665 20.185534 25.704413 20.311024 25.78125 20.46875 C 25.858078 20.626496 25.874995 20.835646 25.875 21.09375 C 25.874995 21.443646 25.854738 21.694329 25.78125 21.875 C 25.707753 22.055688 25.58448 22.203527 25.4375 22.3125 C 25.297193 22.415753 25.13793 22.502579 24.9375 22.53125 C 24.737063 22.559937 24.51056 22.562508 24.25 22.5625 L 23.8125 22.5625 L 23.8125 24.84375 L 24.21875 24.84375 C 24.41584 24.843756 24.644498 24.866402 24.875 24.875 C 25.105495 24.883609 25.305059 24.908232 25.46875 25 C 25.632433 25.086043 25.743529 25.233882 25.84375 25.4375 C 25.943962 25.641128 25.999995 25.939674 26 26.3125 C 25.999995 26.696806 25.979738 26.98388 25.90625 27.1875 C 25.832753 27.391126 25.717346 27.575356 25.59375 27.71875 C 25.43674 27.9023 25.258404 28.008012 25.03125 28.0625 C 24.804089 28.116993 24.599999 28.156252 24.40625 28.15625 C 24.075532 28.156252 23.680445 28.030465 23.28125 27.8125 C 22.882052 27.59454 22.568537 27.360768 22.28125 27.0625 L 22.0625 27.0625 L 22.0625 29.875 C 22.339765 30.081491 22.713625 30.27116 23.15625 30.4375 C 23.598872 30.60384 24.131994 30.6875 24.75 30.6875 C 25.291167 30.6875 25.745842 30.567151 26.125 30.375 C 26.504148 30.182849 26.844388 29.92386 27.125 29.5625 C 27.412282 29.18967 27.611361 28.740715 27.75 28.21875 C 27.888627 27.696789 27.968743 27.133519 27.96875 26.53125 C 27.968743 25.997819 27.90937 25.571213 27.8125 25.25 C 27.715617 24.928797 27.601181 24.647162 27.4375 24.40625 C 27.280488 24.176822 27.096656 23.995459 26.90625 23.875 C 26.715833 23.754554 26.545363 23.665158 26.375 23.625 L 26.375 23.5 C 26.795905 23.345139 27.117771 22.996754 27.375 22.4375 C 27.632217 21.878262 27.749994 21.242506 27.75 20.53125 C 27.749994 19.99209 27.696116 19.526521 27.5625 19.125 C 27.428872 18.723501 27.21142 18.374819 26.9375 18.09375 C 26.706996 17.858592 26.416594 17.671791 26.0625 17.53125 C 25.708396 17.390734 25.314765 17.312513 24.84375 17.3125 z M 16.15625 17.34375 C 14.86011 17.343763 13.849899 17.968642 13.125 19.1875 C 12.400098 20.40638 12.031249 22.009665 12.03125 24 C 12.031249 26.087858 12.406779 27.721797 13.125 28.90625 C 13.843218 30.090706 14.824334 30.6875 16.09375 30.6875 C 16.641597 30.6875 17.198802 30.56458 17.75 30.34375 C 18.301186 30.12292 18.728437 29.911199 19.0625 29.6875 L 19.0625 23.34375 L 15.625 23.34375 L 15.625 25.78125 L 17.125 25.78125 L 17.125 28.28125 C 17.051502 28.292724 16.963519 28.306766 16.875 28.3125 C 16.78647 28.318238 16.698487 28.312502 16.625 28.3125 C 15.769813 28.312502 15.12511 27.9389 14.6875 27.1875 C 14.249884 26.436106 14.031247 25.354263 14.03125 23.9375 C 14.031247 23.243468 14.096817 22.624325 14.21875 22.09375 C 14.340678 21.563192 14.508292 21.125411 14.71875 20.78125 C 14.939223 20.425637 15.19148 20.172086 15.46875 20 C 15.746012 19.827935 16.065508 19.750011 16.40625 19.75 C 16.696873 19.750011 16.959851 19.805586 17.21875 19.9375 C 17.477637 20.069435 17.712491 20.222713 17.90625 20.40625 C 18.073271 20.561128 18.225853 20.747929 18.40625 20.96875 C 18.586633 21.18959 18.750207 21.348306 18.84375 21.46875 L 19.03125 21.46875 L 19.03125 18.46875 C 18.486732 18.015629 18.006788 17.714513 17.5625 17.5625 C 17.1182 17.410513 16.647307 17.343763 16.15625 17.34375 z "
       id="rect2987" />
  </g>
</svg>
