<?xml version="1.0" encoding="UTF-8" standalone="no"?>
<!-- Created with Inkscape (http://www.inkscape.org/) -->

<svg
   xmlns:dc="http://purl.org/dc/elements/1.1/"
   xmlns:cc="http://creativecommons.org/ns#"
   xmlns:rdf="http://www.w3.org/1999/02/22-rdf-syntax-ns#"
   xmlns:svg="http://www.w3.org/2000/svg"
   xmlns="http://www.w3.org/2000/svg"
   xmlns:sodipodi="http://sodipodi.sourceforge.net/DTD/sodipodi-0.dtd"
   xmlns:inkscape="http://www.inkscape.org/namespaces/inkscape"
   width="32px"
   height="32px"
   id="svg3096"
   version="1.1"
   inkscape:version="0.48.4 r9939"
   sodipodi:docname="doc.svg">
  <defs
     id="defs3098" />
  <sodipodi:namedview
     id="base"
     pagecolor="#ffffff"
     bordercolor="#666666"
     borderopacity="1.0"
     inkscape:pageopacity="0.0"
     inkscape:pageshadow="2"
     inkscape:zoom="22.395604"
     inkscape:cx="20.652871"
     inkscape:cy="10.834243"
     inkscape:current-layer="layer1"
     showgrid="true"
     inkscape:grid-bbox="true"
     inkscape:document-units="px"
     inkscape:window-width="1920"
     inkscape:window-height="1018"
     inkscape:window-x="-8"
     inkscape:window-y="-8"
     inkscape:window-maximized="1" />
  <metadata
     id="metadata3101">
    <rdf:RDF>
      <cc:Work
         rdf:about="">
        <dc:format>image/svg+xml</dc:format>
        <dc:type
           rdf:resource="http://purl.org/dc/dcmitype/StillImage" />
        <dc:title></dc:title>
      </cc:Work>
    </rdf:RDF>
  </metadata>
  <g
     id="layer1"
     inkscape:label="Layer 1"
     inkscape:groupmode="layer">
    <path
       style="fill:#ff0000"
       d="M 13.625 17.34375 C 12.32886 17.343763 11.318649 17.968642 10.59375 19.1875 C 9.8688478 20.40638 9.4999995 22.009665 9.5 24 C 9.4999995 26.087858 9.8442789 27.721797 10.5625 28.90625 C 11.280718 30.090706 12.293084 30.6875 13.5625 30.6875 C 14.110347 30.6875 14.636302 30.56458 15.1875 30.34375 C 15.738686 30.12292 16.197187 29.911199 16.53125 29.6875 L 16.53125 23.34375 L 13.09375 23.34375 L 13.09375 25.78125 L 14.5625 25.78125 L 14.5625 28.28125 C 14.489002 28.292724 14.432269 28.306766 14.34375 28.3125 C 14.25522 28.318238 14.167237 28.312502 14.09375 28.3125 C 13.238563 28.312502 12.59386 27.9389 12.15625 27.1875 C 11.718634 26.436106 11.499997 25.354263 11.5 23.9375 C 11.499997 23.243468 11.565567 22.624325 11.6875 22.09375 C 11.809428 21.563192 11.977042 21.125411 12.1875 20.78125 C 12.407973 20.425637 12.66023 20.172086 12.9375 20 C 13.214762 19.827935 13.503008 19.750011 13.84375 19.75 C 14.134373 19.750011 14.428601 19.805586 14.6875 19.9375 C 14.946387 20.069435 15.149991 20.222713 15.34375 20.40625 C 15.510771 20.561128 15.694603 20.747929 15.875 20.96875 C 16.055383 21.18959 16.187707 21.348306 16.28125 21.46875 L 16.5 21.46875 L 16.5 18.46875 C 15.955482 18.015629 15.475538 17.714513 15.03125 17.5625 C 14.58695 17.410513 14.116057 17.343763 13.625 17.34375 z M 18.5625 17.59375 L 18.5625 19.875 L 19.78125 19.875 L 19.78125 28.125 L 18.5625 28.125 L 18.5625 30.40625 L 22.9375 30.40625 L 22.9375 28.125 L 21.71875 28.125 L 21.71875 19.875 L 22.9375 19.875 L 22.9375 17.59375 L 18.5625 17.59375 z M 25.15625 17.59375 L 25.15625 30.40625 L 27.0625 30.40625 L 27.0625 24.9375 L 30.25 24.9375 L 30.25 22.46875 L 27.0625 22.46875 L 27.0625 20.0625 L 30.5 20.0625 L 30.5 17.59375 L 25.15625 17.59375 z "
       id="rect2987" />
  </g>
</svg>
