<?xml version="1.0" encoding="UTF-8" standalone="no"?>
<!-- Created with Inkscape (http://www.inkscape.org/) -->

<svg
   xmlns:dc="http://purl.org/dc/elements/1.1/"
   xmlns:cc="http://creativecommons.org/ns#"
   xmlns:rdf="http://www.w3.org/1999/02/22-rdf-syntax-ns#"
   xmlns:svg="http://www.w3.org/2000/svg"
   xmlns="http://www.w3.org/2000/svg"
   xmlns:sodipodi="http://sodipodi.sourceforge.net/DTD/sodipodi-0.dtd"
   xmlns:inkscape="http://www.inkscape.org/namespaces/inkscape"
   width="32px"
   height="32px"
   id="svg3096"
   version="1.1"
   inkscape:version="0.48.4 r9939"
   sodipodi:docname="gif.svg">
  <defs
     id="defs3098" />
  <sodipodi:namedview
     id="base"
     pagecolor="#ffffff"
     bordercolor="#666666"
     borderopacity="1.0"
     inkscape:pageopacity="0.0"
     inkscape:pageshadow="2"
     inkscape:zoom="22.395604"
     inkscape:cx="20.652871"
     inkscape:cy="10.834243"
     inkscape:current-layer="layer1"
     showgrid="true"
     inkscape:grid-bbox="true"
     inkscape:document-units="px"
     inkscape:window-width="1920"
     inkscape:window-height="1018"
     inkscape:window-x="-8"
     inkscape:window-y="-8"
     inkscape:window-maximized="1" />
  <metadata
     id="metadata3101">
    <rdf:RDF>
      <cc:Work
         rdf:about="">
        <dc:format>image/svg+xml</dc:format>
        <dc:type
           rdf:resource="http://purl.org/dc/dcmitype/StillImage" />
        <dc:title></dc:title>
      </cc:Work>
    </rdf:RDF>
  </metadata>
  <g
     id="layer1"
     inkscape:label="Layer 1"
     inkscape:groupmode="layer">
    <path
       style="fill:#ff0000"
       d="M 9.03125 17.8125 L 9.03125 30.1875 L 10.875 30.1875 L 10.875 24.75 L 13.625 24.75 L 13.625 30.1875 L 15.5 30.1875 L 15.5 17.8125 L 13.625 17.8125 L 13.625 22.34375 L 10.875 22.34375 L 10.875 17.8125 L 9.03125 17.8125 z M 16.28125 17.8125 L 16.28125 20.1875 L 18.53125 20.1875 L 18.53125 30.1875 L 20.375 30.1875 L 20.375 20.1875 L 22.625 20.1875 L 22.625 17.8125 L 16.28125 17.8125 z M 23.40625 17.8125 L 23.40625 30.1875 L 25.15625 30.1875 L 25.15625 21.90625 L 26.5 27.28125 L 27.78125 27.28125 L 29.125 21.90625 L 29.125 30.1875 L 30.96875 30.1875 L 30.96875 17.8125 L 28.8125 17.8125 L 27.1875 24.03125 L 25.5625 17.8125 L 23.40625 17.8125 z "
       id="rect2987" />
  </g>
</svg>
