<?xml version="1.0" encoding="UTF-8" standalone="no"?>
<!-- Created with Inkscape (http://www.inkscape.org/) -->

<svg
   xmlns:dc="http://purl.org/dc/elements/1.1/"
   xmlns:cc="http://creativecommons.org/ns#"
   xmlns:rdf="http://www.w3.org/1999/02/22-rdf-syntax-ns#"
   xmlns:svg="http://www.w3.org/2000/svg"
   xmlns="http://www.w3.org/2000/svg"
   xmlns:sodipodi="http://sodipodi.sourceforge.net/DTD/sodipodi-0.dtd"
   xmlns:inkscape="http://www.inkscape.org/namespaces/inkscape"
   width="32px"
   height="32px"
   id="svg3096"
   version="1.1"
   inkscape:version="0.48.4 r9939"
   sodipodi:docname="htm.svg">
  <defs
     id="defs3098" />
  <sodipodi:namedview
     id="base"
     pagecolor="#ffffff"
     bordercolor="#666666"
     borderopacity="1.0"
     inkscape:pageopacity="0.0"
     inkscape:pageshadow="2"
     inkscape:zoom="22.395604"
     inkscape:cx="20.652871"
     inkscape:cy="10.834243"
     inkscape:current-layer="layer1"
     showgrid="true"
     inkscape:grid-bbox="true"
     inkscape:document-units="px"
     inkscape:window-width="1920"
     inkscape:window-height="1018"
     inkscape:window-x="-8"
     inkscape:window-y="-8"
     inkscape:window-maximized="1" />
  <metadata
     id="metadata3101">
    <rdf:RDF>
      <cc:Work
         rdf:about="">
        <dc:format>image/svg+xml</dc:format>
        <dc:type
           rdf:resource="http://purl.org/dc/dcmitype/StillImage" />
        <dc:title></dc:title>
      </cc:Work>
    </rdf:RDF>
  </metadata>
  <g
     id="layer1"
     inkscape:label="Layer 1"
     inkscape:groupmode="layer">
    <path
       style="fill:#ff0000"
       d="M 27.34375 17.34375 C 26.04761 17.343763 25.037399 17.937392 24.3125 19.15625 C 23.587598 20.37513 23.249999 21.978415 23.25 23.96875 C 23.249999 26.056608 23.594279 27.690547 24.3125 28.875 C 25.030718 30.059456 26.043084 30.65625 27.3125 30.65625 C 27.860347 30.65625 28.386302 30.56458 28.9375 30.34375 C 29.488686 30.12292 29.947187 29.879949 30.28125 29.65625 L 30.28125 23.34375 L 26.84375 23.34375 L 26.84375 25.75 L 28.3125 25.75 L 28.3125 28.28125 C 28.239002 28.292724 28.151019 28.306766 28.0625 28.3125 C 27.97397 28.318238 27.917237 28.312502 27.84375 28.3125 C 26.988563 28.312502 26.34386 27.9389 25.90625 27.1875 C 25.468634 26.436106 25.249997 25.354263 25.25 23.9375 C 25.249997 23.243468 25.284317 22.624325 25.40625 22.09375 C 25.528178 21.563192 25.695792 21.125411 25.90625 20.78125 C 26.126723 20.425637 26.37898 20.172086 26.65625 20 C 26.933512 19.827935 27.253008 19.718761 27.59375 19.71875 C 27.884373 19.718761 28.147351 19.805586 28.40625 19.9375 C 28.665137 20.069435 28.899991 20.222713 29.09375 20.40625 C 29.260771 20.561128 29.444603 20.747929 29.625 20.96875 C 29.805383 21.18959 29.937707 21.348306 30.03125 21.46875 L 30.25 21.46875 L 30.25 18.46875 C 29.705482 18.015629 29.194288 17.714513 28.75 17.5625 C 28.3057 17.410513 27.834807 17.343763 27.34375 17.34375 z M 10.71875 17.59375 L 10.71875 19.9375 L 12.4375 19.9375 L 12.4375 25.03125 C 12.437497 25.553218 12.416269 26.008207 12.40625 26.34375 C 12.396225 26.679302 12.35808 26.968946 12.28125 27.25 C 12.201074 27.536796 12.063739 27.776899 11.875 27.9375 C 11.686256 28.098106 11.413257 28.156252 11.0625 28.15625 C 10.791913 28.156252 10.579958 28.120158 10.40625 28.03125 C 10.23254 27.942347 10.066596 27.853248 9.90625 27.75 L 9.71875 27.75 L 9.71875 30.34375 C 9.9492482 30.424052 10.227258 30.488231 10.53125 30.53125 C 10.83524 30.574269 11.155921 30.59375 11.5 30.59375 C 12.007763 30.59375 12.437169 30.510387 12.78125 30.3125 C 13.125324 30.114613 13.412385 29.83011 13.65625 29.46875 C 13.886744 29.130335 14.070576 28.709168 14.1875 28.21875 C 14.304415 27.728337 14.343745 27.187118 14.34375 26.625 L 14.34375 17.59375 L 10.71875 17.59375 z M 16.15625 17.59375 L 16.15625 30.40625 L 18.09375 30.40625 L 18.09375 26.21875 L 19.28125 26.21875 C 19.825757 26.218754 20.290454 26.101868 20.65625 25.84375 C 21.022035 25.585641 21.358934 25.192261 21.65625 24.6875 C 21.87338 24.314675 22.039324 23.860281 22.15625 23.3125 C 22.273163 22.764733 22.312493 22.198594 22.3125 21.625 C 22.312493 20.885083 22.25242 20.246459 22.09375 19.71875 C 21.935067 19.191062 21.675644 18.775927 21.375 18.4375 C 21.124452 18.156455 20.856949 17.921791 20.53125 17.78125 C 20.20554 17.640734 19.786855 17.593763 19.3125 17.59375 L 16.15625 17.59375 z M 18.09375 19.96875 L 18.40625 19.96875 C 18.7236 19.96876 18.997084 19.985671 19.1875 20 C 19.377908 20.01435 19.549562 20.0811 19.75 20.21875 C 19.90032 20.322006 20.042666 20.520278 20.15625 20.78125 C 20.269824 21.042241 20.343745 21.3574 20.34375 21.71875 C 20.343745 22.085853 20.305114 22.369762 20.25 22.625 C 20.194876 22.880253 20.092346 23.12896 19.96875 23.3125 C 19.825101 23.518998 19.649621 23.649926 19.4375 23.71875 C 19.22537 23.787587 18.952371 23.812507 18.625 23.8125 L 18.09375 23.8125 L 18.09375 19.96875 z "
       id="rect2987" />
  </g>
</svg>
