<?xml version="1.0" encoding="UTF-8" standalone="no"?>
<!-- Created with Inkscape (http://www.inkscape.org/) -->

<svg
   xmlns:dc="http://purl.org/dc/elements/1.1/"
   xmlns:cc="http://creativecommons.org/ns#"
   xmlns:rdf="http://www.w3.org/1999/02/22-rdf-syntax-ns#"
   xmlns:svg="http://www.w3.org/2000/svg"
   xmlns="http://www.w3.org/2000/svg"
   xmlns:sodipodi="http://sodipodi.sourceforge.net/DTD/sodipodi-0.dtd"
   xmlns:inkscape="http://www.inkscape.org/namespaces/inkscape"
   width="32px"
   height="32px"
   id="svg3096"
   version="1.1"
   inkscape:version="0.48.4 r9939"
   sodipodi:docname="audio_basic.svg">
  <defs
     id="defs3098" />
  <sodipodi:namedview
     id="base"
     pagecolor="#ffffff"
     bordercolor="#666666"
     borderopacity="1.0"
     inkscape:pageopacity="0.0"
     inkscape:pageshadow="2"
     inkscape:zoom="22.395604"
     inkscape:cx="5.0606904"
     inkscape:cy="2.7836987"
     inkscape:current-layer="layer1"
     showgrid="true"
     inkscape:grid-bbox="true"
     inkscape:document-units="px"
     inkscape:window-width="1920"
     inkscape:window-height="1178"
     inkscape:window-x="1272"
     inkscape:window-y="-8"
     inkscape:window-maximized="1" />
  <metadata
     id="metadata3101">
    <rdf:RDF>
      <cc:Work
         rdf:about="">
        <dc:format>image/svg+xml</dc:format>
        <dc:type
           rdf:resource="http://purl.org/dc/dcmitype/StillImage" />
        <dc:title></dc:title>
      </cc:Work>
    </rdf:RDF>
  </metadata>
  <g
     id="layer1"
     inkscape:label="Layer 1"
     inkscape:groupmode="layer">
    <path
       style="fill:#ff0000"
       d="M 19.5 17.34375 C 18.932101 17.343763 18.416867 17.502776 17.9375 17.8125 C 17.458127 18.122249 17.042782 18.557162 16.71875 19.125 C 16.381352 19.715804 16.145799 20.424046 15.96875 21.25 C 15.7917 22.075972 15.687499 22.98476 15.6875 24 C 15.687499 25.089819 15.783348 26.074555 15.96875 26.90625 C 16.15415 27.737952 16.412602 28.412374 16.75 28.96875 C 17.087395 29.525129 17.499399 29.937693 17.96875 30.21875 C 18.438095 30.499807 18.945463 30.65625 19.5 30.65625 C 19.874138 30.65625 20.161199 30.625594 20.375 30.5625 C 20.58879 30.499405 20.818634 30.401703 21.0625 30.28125 C 21.249565 30.189476 21.423375 30.094939 21.59375 29.96875 C 21.764112 29.842562 21.969172 29.705897 22.15625 29.5625 L 22.15625 26.5 L 21.9375 26.5 C 21.847298 26.637664 21.734047 26.77947 21.59375 26.96875 C 21.45344 27.158037 21.288681 27.333663 21.125 27.5 C 20.931242 27.706494 20.728823 27.879549 20.5 28 C 20.271167 28.120455 20.046334 28.187502 19.8125 28.1875 C 19.568635 28.187502 19.313038 28.103545 19.0625 27.96875 C 18.811954 27.83396 18.578771 27.627975 18.375 27.3125 C 18.174563 27.002767 18.006949 26.570425 17.875 26.03125 C 17.743045 25.492084 17.687497 24.834276 17.6875 24.03125 C 17.687497 23.262652 17.753067 22.601679 17.875 22.0625 C 17.996928 21.523338 18.146654 21.076953 18.34375 20.75 C 18.550861 20.411594 18.787386 20.177525 19.03125 20.03125 C 19.275107 19.884996 19.54191 19.812511 19.8125 19.8125 C 20.056356 19.812511 20.286199 19.873822 20.5 20 C 20.71379 20.126199 20.910014 20.285213 21.09375 20.46875 C 21.274134 20.652307 21.42052 20.841976 21.5625 21.03125 C 21.704467 21.220543 21.812708 21.393598 21.90625 21.53125 L 22.15625 21.53125 L 22.15625 18.40625 C 22.01928 18.291545 21.838304 18.166055 21.65625 18.03125 C 21.474183 17.89647 21.286311 17.796494 21.0625 17.6875 C 20.848699 17.590003 20.595957 17.497739 20.34375 17.4375 C 20.091533 17.377286 19.814008 17.343763 19.5 17.34375 z M 8.625 17.59375 L 8.625 30.40625 L 10.53125 30.40625 L 10.53125 26.21875 L 11.75 26.21875 C 12.294507 26.218754 12.727954 26.101868 13.09375 25.84375 C 13.459535 25.585641 13.796434 25.192261 14.09375 24.6875 C 14.31088 24.314675 14.476824 23.860281 14.59375 23.3125 C 14.710663 22.764733 14.781243 22.198594 14.78125 21.625 C 14.781243 20.885083 14.68992 20.277709 14.53125 19.75 C 14.372567 19.222312 14.144394 18.775927 13.84375 18.4375 C 13.593202 18.156455 13.294449 17.953041 12.96875 17.8125 C 12.64304 17.671984 12.255605 17.593763 11.78125 17.59375 L 8.625 17.59375 z M 23.5625 17.59375 L 23.5625 30.40625 L 25.375 30.40625 L 25.375 21.8125 L 26.75 27.40625 L 28.09375 27.40625 L 29.46875 21.8125 L 29.46875 30.40625 L 31.375 30.40625 L 31.375 17.59375 L 29.15625 17.59375 L 27.46875 24.03125 L 25.8125 17.59375 L 23.5625 17.59375 z M 10.53125 20 L 10.875 20 C 11.19235 20.00001 11.434584 19.985671 11.625 20 C 11.815408 20.01435 12.018312 20.11235 12.21875 20.25 C 12.36907 20.353256 12.511416 20.520278 12.625 20.78125 C 12.738574 21.042241 12.781245 21.3574 12.78125 21.71875 C 12.781245 22.085853 12.742614 22.401012 12.6875 22.65625 C 12.632376 22.911503 12.561096 23.12896 12.4375 23.3125 C 12.293851 23.518998 12.118371 23.649926 11.90625 23.71875 C 11.69412 23.787587 11.421121 23.812507 11.09375 23.8125 L 10.53125 23.8125 L 10.53125 20 z "
       id="rect2987" />
  </g>
</svg>
