<?xml version="1.0" encoding="UTF-8" standalone="no"?>
<!-- Created with Inkscape (http://www.inkscape.org/) -->

<svg
   xmlns:dc="http://purl.org/dc/elements/1.1/"
   xmlns:cc="http://creativecommons.org/ns#"
   xmlns:rdf="http://www.w3.org/1999/02/22-rdf-syntax-ns#"
   xmlns:svg="http://www.w3.org/2000/svg"
   xmlns="http://www.w3.org/2000/svg"
   xmlns:sodipodi="http://sodipodi.sourceforge.net/DTD/sodipodi-0.dtd"
   xmlns:inkscape="http://www.inkscape.org/namespaces/inkscape"
   width="32px"
   height="32px"
   id="svg3096"
   version="1.1"
   inkscape:version="0.48.4 r9939"
   sodipodi:docname="not-slow.svg">
  <defs
     id="defs3098" />
  <sodipodi:namedview
     id="base"
     pagecolor="#ffffff"
     bordercolor="#666666"
     borderopacity="1.0"
     inkscape:pageopacity="0.0"
     inkscape:pageshadow="2"
     inkscape:zoom="22.395604"
     inkscape:cx="27.891545"
     inkscape:cy="29.188675"
     inkscape:current-layer="layer1"
     showgrid="true"
     inkscape:grid-bbox="true"
     inkscape:document-units="px"
     inkscape:window-width="1920"
     inkscape:window-height="1178"
     inkscape:window-x="1272"
     inkscape:window-y="-8"
     inkscape:window-maximized="1" />
  <metadata
     id="metadata3101">
    <rdf:RDF>
      <cc:Work
         rdf:about="">
        <dc:format>image/svg+xml</dc:format>
        <dc:type
           rdf:resource="http://purl.org/dc/dcmitype/StillImage" />
        <dc:title></dc:title>
      </cc:Work>
    </rdf:RDF>
  </metadata>
  <g
     id="layer1"
     inkscape:label="Layer 1"
     inkscape:groupmode="layer">
    <path
       style="fill:#000000"
       d="M 24.90625 -0.03125 L 21.125 5.125 L 22.90625 5.125 L 22.90625 8.125 C 22.90625 8.1640145 22.929736 8.1875 22.96875 8.1875 L 26.84375 8.1875 C 26.882764 8.1875 26.90625 8.1640145 26.90625 8.125 L 26.90625 5.125 L 28.71875 5.125 L 24.90625 -0.03125 z M 17.875 7.03125 C 17.89216 11.006172 21.064055 14.21875 24.96875 14.21875 C 28.873445 14.21875 32.014097 11.006172 32.03125 7.03125 L 28.9375 7.03125 C 28.734446 9.0088363 27.063835 10.5625 24.96875 10.5625 C 22.873735 10.5625 21.203148 9.0087436 21 7.03125 L 17.875 7.03125 z "
       id="rect2983" />
  </g>
</svg>
