<?xml version="1.0" encoding="UTF-8" standalone="no"?>
<!-- Created with Inkscape (http://www.inkscape.org/) -->

<svg
   xmlns:dc="http://purl.org/dc/elements/1.1/"
   xmlns:cc="http://creativecommons.org/ns#"
   xmlns:rdf="http://www.w3.org/1999/02/22-rdf-syntax-ns#"
   xmlns:svg="http://www.w3.org/2000/svg"
   xmlns="http://www.w3.org/2000/svg"
   xmlns:sodipodi="http://sodipodi.sourceforge.net/DTD/sodipodi-0.dtd"
   xmlns:inkscape="http://www.inkscape.org/namespaces/inkscape"
   width="32px"
   height="32px"
   id="svg3096"
   version="1.1"
   inkscape:version="0.48.4 r9939"
   sodipodi:docname="octet-stream.svg">
  <defs
     id="defs3098" />
  <sodipodi:namedview
     id="base"
     pagecolor="#ffffff"
     bordercolor="#666666"
     borderopacity="1.0"
     inkscape:pageopacity="0.0"
     inkscape:pageshadow="2"
     inkscape:zoom="22.395604"
     inkscape:cx="5.0606904"
     inkscape:cy="15.708215"
     inkscape:current-layer="layer1"
     showgrid="true"
     inkscape:grid-bbox="true"
     inkscape:document-units="px"
     inkscape:window-width="1920"
     inkscape:window-height="1178"
     inkscape:window-x="1272"
     inkscape:window-y="-8"
     inkscape:window-maximized="1" />
  <metadata
     id="metadata3101">
    <rdf:RDF>
      <cc:Work
         rdf:about="">
        <dc:format>image/svg+xml</dc:format>
        <dc:type
           rdf:resource="http://purl.org/dc/dcmitype/StillImage" />
        <dc:title></dc:title>
      </cc:Work>
    </rdf:RDF>
  </metadata>
  <g
     id="layer1"
     inkscape:label="Layer 1"
     inkscape:groupmode="layer">
    <path
       style="fill:#ff0000"
       d="M 12.625 17.3125 C 11.425736 17.312513 10.493972 17.929086 9.8125 19.125 C 9.131025 20.320937 8.7812495 21.940834 8.78125 24 C 8.7812495 26.041971 9.131025 27.67334 9.8125 28.875 C 10.493972 30.076663 11.425736 30.6875 12.625 30.6875 C 13.827596 30.6875 14.787269 30.076663 15.46875 28.875 C 16.150216 27.67334 16.468742 26.041971 16.46875 24 C 16.468742 21.940834 16.122307 20.320937 15.4375 19.125 C 14.752679 17.929086 13.820915 17.312513 12.625 17.3125 z M 21.3125 17.34375 C 20.744601 17.343763 20.229367 17.502776 19.75 17.8125 C 19.270627 18.122249 18.855282 18.557162 18.53125 19.125 C 18.193852 19.715804 17.958299 20.424046 17.78125 21.25 C 17.6042 22.075972 17.499999 22.98476 17.5 24 C 17.499999 25.089819 17.595848 26.074555 17.78125 26.90625 C 17.96665 27.737952 18.225102 28.412373 18.5625 28.96875 C 18.899895 29.525129 19.311899 29.937693 19.78125 30.21875 C 20.250595 30.499807 20.757963 30.65625 21.3125 30.65625 C 21.686638 30.65625 21.973699 30.625594 22.1875 30.5625 C 22.40129 30.499405 22.631134 30.401703 22.875 30.28125 C 23.062065 30.189476 23.235875 30.094939 23.40625 29.96875 C 23.576612 29.842562 23.781672 29.705897 23.96875 29.5625 L 23.96875 26.5 L 23.75 26.5 C 23.659798 26.637664 23.546547 26.77947 23.40625 26.96875 C 23.26594 27.158037 23.101181 27.333663 22.9375 27.5 C 22.743742 27.706494 22.541323 27.879549 22.3125 28 C 22.083667 28.120455 21.858834 28.187502 21.625 28.1875 C 21.381135 28.187502 21.125538 28.103545 20.875 27.96875 C 20.624454 27.83396 20.391271 27.627975 20.1875 27.3125 C 19.987063 27.002767 19.819449 26.570425 19.6875 26.03125 C 19.555545 25.492084 19.499997 24.834276 19.5 24.03125 C 19.499997 23.262652 19.565567 22.601679 19.6875 22.0625 C 19.809428 21.523338 19.959154 21.076953 20.15625 20.75 C 20.363361 20.411594 20.599886 20.177525 20.84375 20.03125 C 21.087607 19.884996 21.35441 19.812511 21.625 19.8125 C 21.868856 19.812511 22.098699 19.873822 22.3125 20 C 22.52629 20.126199 22.722514 20.285213 22.90625 20.46875 C 23.086634 20.652307 23.23302 20.841976 23.375 21.03125 C 23.516967 21.220543 23.625208 21.393598 23.71875 21.53125 L 23.96875 21.53125 L 23.96875 18.40625 C 23.83178 18.291545 23.650804 18.166055 23.46875 18.03125 C 23.286683 17.89647 23.098811 17.796494 22.875 17.6875 C 22.661199 17.590003 22.408457 17.497739 22.15625 17.4375 C 21.904033 17.377286 21.626508 17.343763 21.3125 17.34375 z M 24.625 17.59375 L 24.625 20.0625 L 26.96875 20.0625 L 26.96875 30.40625 L 28.875 30.40625 L 28.875 20.0625 L 31.21875 20.0625 L 31.21875 17.59375 L 24.625 17.59375 z M 12.625 19.75 C 12.865516 19.750011 13.090348 19.813892 13.3125 19.96875 C 13.534642 20.123629 13.735876 20.374608 13.90625 20.71875 C 14.073272 21.051439 14.208937 21.492088 14.3125 22.03125 C 14.416051 22.570429 14.468744 23.231402 14.46875 24 C 14.468744 24.716988 14.433939 25.344438 14.34375 25.875 C 14.253549 26.405571 14.124565 26.859965 13.9375 27.25 C 13.770467 27.594154 13.567562 27.836531 13.34375 28 C 13.119928 28.163474 12.872197 28.250002 12.625 28.25 C 12.377794 28.250002 12.161314 28.160606 11.9375 28 C 11.713679 27.839398 11.510775 27.588419 11.34375 27.25 C 11.176719 26.911588 11.039384 26.473807 10.9375 25.9375 C 10.83561 25.401202 10.781247 24.762875 10.78125 24 C 10.781247 23.254345 10.83227 22.59624 10.9375 22.03125 C 11.042725 21.466277 11.176719 21.039968 11.34375 20.71875 C 11.524137 20.374608 11.72203 20.117893 11.9375 19.96875 C 12.152962 19.819628 12.381135 19.750011 12.625 19.75 z "
       id="rect2987" />
  </g>
</svg>
