<?xml version="1.0" encoding="UTF-8" standalone="no"?>
<!-- Created with Inkscape (http://www.inkscape.org/) -->

<svg
   xmlns:dc="http://purl.org/dc/elements/1.1/"
   xmlns:cc="http://creativecommons.org/ns#"
   xmlns:rdf="http://www.w3.org/1999/02/22-rdf-syntax-ns#"
   xmlns:svg="http://www.w3.org/2000/svg"
   xmlns="http://www.w3.org/2000/svg"
   xmlns:sodipodi="http://sodipodi.sourceforge.net/DTD/sodipodi-0.dtd"
   xmlns:inkscape="http://www.inkscape.org/namespaces/inkscape"
   width="32px"
   height="32px"
   id="svg3096"
   version="1.1"
   inkscape:version="0.48.4 r9939"
   sodipodi:docname="jpeg.svg">
  <defs
     id="defs3098" />
  <sodipodi:namedview
     id="base"
     pagecolor="#ffffff"
     bordercolor="#666666"
     borderopacity="1.0"
     inkscape:pageopacity="0.0"
     inkscape:pageshadow="2"
     inkscape:zoom="22.395604"
     inkscape:cx="20.652871"
     inkscape:cy="10.834243"
     inkscape:current-layer="layer1"
     showgrid="true"
     inkscape:grid-bbox="true"
     inkscape:document-units="px"
     inkscape:window-width="1920"
     inkscape:window-height="1018"
     inkscape:window-x="-8"
     inkscape:window-y="-8"
     inkscape:window-maximized="1" />
  <metadata
     id="metadata3101">
    <rdf:RDF>
      <cc:Work
         rdf:about="">
        <dc:format>image/svg+xml</dc:format>
        <dc:type
           rdf:resource="http://purl.org/dc/dcmitype/StillImage" />
        <dc:title></dc:title>
      </cc:Work>
    </rdf:RDF>
  </metadata>
  <g
     id="layer1"
     inkscape:label="Layer 1"
     inkscape:groupmode="layer">
    <path
       style="fill:#ff0000"
       d="M 9.3125 17.59375 L 9.3125 30.40625 L 11.21875 30.40625 L 11.21875 26.21875 L 12.4375 26.21875 C 12.982007 26.218754 13.415454 26.101868 13.78125 25.84375 C 14.147035 25.585641 14.483934 25.192261 14.78125 24.6875 C 14.99838 24.314675 15.164324 23.860281 15.28125 23.3125 C 15.398163 22.764733 15.468743 22.198594 15.46875 21.625 C 15.468743 20.885083 15.37742 20.277709 15.21875 19.75 C 15.060067 19.222312 14.831894 18.775927 14.53125 18.4375 C 14.280702 18.156455 14.013199 17.953041 13.6875 17.8125 C 13.36179 17.671984 12.943105 17.593763 12.46875 17.59375 L 9.3125 17.59375 z M 16.8125 17.59375 L 16.8125 30.40625 L 19.46875 30.40625 C 20.063365 30.40625 20.565723 30.336632 21 30.1875 C 21.434267 30.038368 21.823373 29.753567 22.1875 29.375 C 22.671874 28.870246 23.08889 28.162301 23.40625 27.21875 C 23.723595 26.275205 23.874992 25.193064 23.875 24 C 23.874992 22.761062 23.733132 21.696128 23.4375 20.78125 C 23.141853 19.866391 22.733189 19.132932 22.21875 18.59375 C 21.918094 18.272554 21.534698 18.018706 21.09375 17.84375 C 20.652791 17.668819 20.139228 17.593763 19.53125 17.59375 L 16.8125 17.59375 z M 25.34375 17.59375 L 25.34375 30.40625 L 27.25 30.40625 L 27.25 24.9375 L 30.4375 24.9375 L 30.4375 22.46875 L 27.25 22.46875 L 27.25 20.0625 L 30.6875 20.0625 L 30.6875 17.59375 L 25.34375 17.59375 z M 11.21875 20 L 11.5625 20 C 11.87985 20.00001 12.122084 19.985671 12.3125 20 C 12.502908 20.01435 12.705812 20.11235 12.90625 20.25 C 13.05657 20.353256 13.198916 20.520278 13.3125 20.78125 C 13.426074 21.042241 13.468745 21.3574 13.46875 21.71875 C 13.468745 22.085853 13.461364 22.401012 13.40625 22.65625 C 13.351126 22.911503 13.248596 23.12896 13.125 23.3125 C 12.981351 23.518998 12.805871 23.649926 12.59375 23.71875 C 12.38162 23.787587 12.108621 23.812507 11.78125 23.8125 L 11.21875 23.8125 L 11.21875 20 z M 18.75 20 L 19.25 20 C 19.664226 20.00001 19.950802 20.002284 20.15625 20.0625 C 20.36169 20.122737 20.584152 20.23992 20.78125 20.40625 C 21.16875 20.744675 21.446275 21.213112 21.625 21.8125 C 21.803714 22.411905 21.874994 23.156836 21.875 24 C 21.874994 24.848913 21.819931 25.548551 21.65625 26.125 C 21.492557 26.701458 21.225753 27.155852 20.875 27.5 C 20.671221 27.689286 20.463791 27.834554 20.25 27.90625 C 20.0362 27.977951 19.707653 28.000002 19.25 28 L 18.75 28 L 18.75 20 z "
       id="rect2987" />
  </g>
</svg>
