<?xml version="1.0" encoding="UTF-8" standalone="no"?>
<!-- Created with Inkscape (http://www.inkscape.org/) -->

<svg
   xmlns:dc="http://purl.org/dc/elements/1.1/"
   xmlns:cc="http://creativecommons.org/ns#"
   xmlns:rdf="http://www.w3.org/1999/02/22-rdf-syntax-ns#"
   xmlns:svg="http://www.w3.org/2000/svg"
   xmlns="http://www.w3.org/2000/svg"
   xmlns:sodipodi="http://sodipodi.sourceforge.net/DTD/sodipodi-0.dtd"
   xmlns:inkscape="http://www.inkscape.org/namespaces/inkscape"
   width="32px"
   height="32px"
   id="svg3096"
   version="1.1"
   inkscape:version="0.48.4 r9939"
   sodipodi:docname="image_g3fax.svg">
  <defs
     id="defs3098" />
  <sodipodi:namedview
     id="base"
     pagecolor="#ffffff"
     bordercolor="#666666"
     borderopacity="1.0"
     inkscape:pageopacity="0.0"
     inkscape:pageshadow="2"
     inkscape:zoom="22.395604"
     inkscape:cx="5.0606904"
     inkscape:cy="15.708215"
     inkscape:current-layer="layer1"
     showgrid="true"
     inkscape:grid-bbox="true"
     inkscape:document-units="px"
     inkscape:window-width="1920"
     inkscape:window-height="1178"
     inkscape:window-x="1272"
     inkscape:window-y="-8"
     inkscape:window-maximized="1" />
  <metadata
     id="metadata3101">
    <rdf:RDF>
      <cc:Work
         rdf:about="">
        <dc:format>image/svg+xml</dc:format>
        <dc:type
           rdf:resource="http://purl.org/dc/dcmitype/StillImage" />
        <dc:title></dc:title>
      </cc:Work>
    </rdf:RDF>
  </metadata>
  <g
     id="layer1"
     inkscape:label="Layer 1"
     inkscape:groupmode="layer">
    <path
       style="fill:#ff0000"
       d="M 28.5 17.34375 C 27.20386 17.343763 26.193649 17.937392 25.46875 19.15625 C 24.743848 20.37513 24.374999 21.978415 24.375 23.96875 C 24.374999 26.056608 24.719279 27.690547 25.4375 28.875 C 26.155718 30.059456 27.168084 30.65625 28.4375 30.65625 C 28.985347 30.65625 29.542552 30.56458 30.09375 30.34375 C 30.644936 30.12292 31.072187 29.879949 31.40625 29.65625 L 31.40625 23.34375 L 27.96875 23.34375 L 27.96875 25.75 L 29.4375 25.75 L 29.4375 28.28125 C 29.364002 28.292724 29.307269 28.306766 29.21875 28.3125 C 29.13022 28.318238 29.042237 28.312502 28.96875 28.3125 C 28.113563 28.312502 27.46886 27.9389 27.03125 27.1875 C 26.593634 26.436106 26.374997 25.354263 26.375 23.9375 C 26.374997 23.243468 26.440567 22.624325 26.5625 22.09375 C 26.684428 21.563192 26.852042 21.125411 27.0625 20.78125 C 27.282973 20.425637 27.53523 20.172086 27.8125 20 C 28.089762 19.827935 28.378008 19.718761 28.71875 19.71875 C 29.009374 19.718761 29.303601 19.805586 29.5625 19.9375 C 29.821387 20.069435 30.024991 20.222713 30.21875 20.40625 C 30.385771 20.561128 30.569603 20.747929 30.75 20.96875 C 30.930383 21.18959 31.062707 21.348306 31.15625 21.46875 L 31.375 21.46875 L 31.375 18.46875 C 30.830482 18.015629 30.350538 17.714513 29.90625 17.5625 C 29.46195 17.410513 28.991057 17.343763 28.5 17.34375 z M 8.59375 17.59375 L 8.59375 30.40625 L 10.53125 30.40625 L 10.53125 26.21875 L 11.71875 26.21875 C 12.263257 26.218754 12.727954 26.101868 13.09375 25.84375 C 13.459535 25.585641 13.765184 25.192261 14.0625 24.6875 C 14.27963 24.314675 14.445574 23.860281 14.5625 23.3125 C 14.679413 22.764733 14.749993 22.198594 14.75 21.625 C 14.749993 20.885083 14.65867 20.246459 14.5 19.71875 C 14.341317 19.191062 14.113144 18.775927 13.8125 18.4375 C 13.561952 18.156455 13.294449 17.921791 12.96875 17.78125 C 12.64304 17.640734 12.224355 17.593763 11.75 17.59375 L 8.59375 17.59375 z M 16.09375 17.59375 L 16.09375 30.40625 L 17.875 30.40625 L 17.875 21.59375 L 21.03125 30.40625 L 22.90625 30.40625 L 22.90625 17.59375 L 21.125 17.59375 L 21.125 24.9375 L 18.40625 17.59375 L 16.09375 17.59375 z M 10.53125 19.96875 L 10.84375 19.96875 C 11.1611 19.96876 11.403334 19.985671 11.59375 20 C 11.784158 20.01435 11.987062 20.0811 12.1875 20.21875 C 12.33782 20.322006 12.480166 20.520278 12.59375 20.78125 C 12.707324 21.042241 12.749995 21.3574 12.75 21.71875 C 12.749995 22.085853 12.742614 22.369762 12.6875 22.625 C 12.632376 22.880253 12.529846 23.12896 12.40625 23.3125 C 12.262601 23.518998 12.087121 23.649926 11.875 23.71875 C 11.66287 23.787587 11.389871 23.812507 11.0625 23.8125 L 10.53125 23.8125 L 10.53125 19.96875 z "
       id="rect2987" />
  </g>
</svg>
