<?xml version="1.0" encoding="UTF-8" standalone="no"?>
<!-- Created with Inkscape (http://www.inkscape.org/) -->

<svg
   xmlns:dc="http://purl.org/dc/elements/1.1/"
   xmlns:cc="http://creativecommons.org/ns#"
   xmlns:rdf="http://www.w3.org/1999/02/22-rdf-syntax-ns#"
   xmlns:svg="http://www.w3.org/2000/svg"
   xmlns="http://www.w3.org/2000/svg"
   xmlns:sodipodi="http://sodipodi.sourceforge.net/DTD/sodipodi-0.dtd"
   xmlns:inkscape="http://www.inkscape.org/namespaces/inkscape"
   width="32px"
   height="32px"
   id="svg3096"
   version="1.1"
   inkscape:version="0.48.4 r9939"
   sodipodi:docname="pdf.svg">
  <defs
     id="defs3098" />
  <sodipodi:namedview
     id="base"
     pagecolor="#ffffff"
     bordercolor="#666666"
     borderopacity="1.0"
     inkscape:pageopacity="0.0"
     inkscape:pageshadow="2"
     inkscape:zoom="22.395604"
     inkscape:cx="20.652871"
     inkscape:cy="10.834243"
     inkscape:current-layer="layer1"
     showgrid="true"
     inkscape:grid-bbox="true"
     inkscape:document-units="px"
     inkscape:window-width="1920"
     inkscape:window-height="1018"
     inkscape:window-x="-8"
     inkscape:window-y="-8"
     inkscape:window-maximized="1" />
  <metadata
     id="metadata3101">
    <rdf:RDF>
      <cc:Work
         rdf:about="">
        <dc:format>image/svg+xml</dc:format>
        <dc:type
           rdf:resource="http://purl.org/dc/dcmitype/StillImage" />
        <dc:title></dc:title>
      </cc:Work>
    </rdf:RDF>
  </metadata>
  <g
     id="layer1"
     inkscape:label="Layer 1"
     inkscape:groupmode="layer">
    <path
       style="fill:#ff0000"
       d="M 9.8125 17.59375 L 9.8125 30.40625 L 11.71875 30.40625 L 11.71875 25.71875 L 12.625 25.71875 L 14.65625 30.40625 L 17 30.40625 L 14.5 24.90625 C 14.974353 24.510481 15.338191 24.034036 15.59375 23.4375 C 15.849296 22.840978 15.968743 22.071425 15.96875 21.125 C 15.968743 20.436707 15.915351 19.862261 15.75 19.40625 C 15.584636 18.950261 15.3431 18.568055 15.0625 18.28125 C 14.785228 17.994469 14.504848 17.804801 14.1875 17.71875 C 13.870142 17.632725 13.472199 17.593763 13.03125 17.59375 L 9.8125 17.59375 z M 17.09375 17.59375 L 17.09375 20.0625 L 19.4375 20.0625 L 19.4375 30.40625 L 21.34375 30.40625 L 21.34375 20.0625 L 23.6875 20.0625 L 23.6875 17.59375 L 17.09375 17.59375 z M 24.84375 17.59375 L 24.84375 30.40625 L 26.75 30.40625 L 26.75 24.9375 L 29.9375 24.9375 L 29.9375 22.46875 L 26.75 22.46875 L 26.75 20.0625 L 30.1875 20.0625 L 30.1875 17.59375 L 24.84375 17.59375 z M 11.71875 19.9375 L 12.40625 19.9375 C 12.636745 19.93751 12.857537 19.948685 13.03125 19.96875 C 13.204955 19.988836 13.338464 20.064487 13.46875 20.15625 C 13.655817 20.288185 13.798162 20.458076 13.875 20.6875 C 13.951828 20.916944 13.999995 21.210051 14 21.53125 C 13.999995 21.892618 13.968045 22.159913 13.90625 22.375 C 13.844445 22.590103 13.727367 22.790946 13.59375 22.96875 C 13.453442 23.152305 13.30086 23.260884 13.09375 23.3125 C 12.886631 23.36413 12.619828 23.406257 12.3125 23.40625 L 11.71875 23.40625 L 11.71875 19.9375 z "
       id="rect2987" />
  </g>
</svg>
