<?xml version="1.0" encoding="UTF-8" standalone="no"?>
<!-- Created with Inkscape (http://www.inkscape.org/) -->

<svg
   xmlns:dc="http://purl.org/dc/elements/1.1/"
   xmlns:cc="http://creativecommons.org/ns#"
   xmlns:rdf="http://www.w3.org/1999/02/22-rdf-syntax-ns#"
   xmlns:svg="http://www.w3.org/2000/svg"
   xmlns="http://www.w3.org/2000/svg"
   xmlns:sodipodi="http://sodipodi.sourceforge.net/DTD/sodipodi-0.dtd"
   xmlns:inkscape="http://www.inkscape.org/namespaces/inkscape"
   width="32px"
   height="32px"
   id="svg3096"
   version="1.1"
   inkscape:version="0.48.4 r9939"
   sodipodi:docname="image_png.svg">
  <defs
     id="defs3098" />
  <sodipodi:namedview
     id="base"
     pagecolor="#ffffff"
     bordercolor="#666666"
     borderopacity="1.0"
     inkscape:pageopacity="0.0"
     inkscape:pageshadow="2"
     inkscape:zoom="22.395604"
     inkscape:cx="16.117235"
     inkscape:cy="15.708215"
     inkscape:current-layer="layer1"
     showgrid="true"
     inkscape:grid-bbox="true"
     inkscape:document-units="px"
     inkscape:window-width="1920"
     inkscape:window-height="1178"
     inkscape:window-x="1272"
     inkscape:window-y="-8"
     inkscape:window-maximized="1" />
  <metadata
     id="metadata3101">
    <rdf:RDF>
      <cc:Work
         rdf:about="">
        <dc:format>image/svg+xml</dc:format>
        <dc:type
           rdf:resource="http://purl.org/dc/dcmitype/StillImage" />
        <dc:title></dc:title>
      </cc:Work>
    </rdf:RDF>
  </metadata>
  <g
     id="layer1"
     inkscape:label="Layer 1"
     inkscape:groupmode="layer">
    <path
       style="fill:#ff0000"
       d="M 11.1875 18.5625 C 10.386835 18.562511 9.7283848 18.883008 9.21875 19.5 C 8.7091127 20.117012 8.4687495 20.899065 8.46875 21.875 C 8.4687495 22.602272 8.5558069 23.228438 8.78125 23.71875 C 9.0066914 24.209073 9.392513 24.588791 9.90625 24.875 C 10.130324 25.001689 10.369496 25.105394 10.625 25.1875 C 10.880499 25.269615 11.114205 25.343663 11.34375 25.4375 C 11.562357 25.526652 11.730342 25.677186 11.84375 25.84375 C 11.95715 26.01032 12.031246 26.207593 12.03125 26.4375 C 12.031246 26.68618 11.984126 26.873317 11.90625 27 C 11.828366 27.126687 11.713982 27.228045 11.59375 27.3125 C 11.495372 27.37819 11.374507 27.40935 11.21875 27.4375 C 11.062987 27.465654 10.939389 27.500002 10.84375 27.5 C 10.472109 27.500002 10.090562 27.364296 9.6875 27.125 C 9.2844349 26.885709 8.9189327 26.539496 8.59375 26.09375 L 8.40625 26.09375 L 8.40625 28.625 C 8.7341655 28.859602 9.0930114 29.035009 9.46875 29.1875 C 9.8444856 29.339991 10.27571 29.4375 10.78125 29.4375 C 11.65569 29.4375 12.365359 29.113905 12.875 28.46875 C 13.384631 27.823597 13.624994 26.96975 13.625 25.9375 C 13.624994 25.214931 13.535204 24.640286 13.3125 24.1875 C 13.089785 23.734724 12.748526 23.35651 12.28125 23.09375 C 12.043507 22.962379 11.80006 22.856329 11.59375 22.78125 C 11.387433 22.706184 11.192823 22.642271 10.96875 22.5625 C 10.627168 22.440514 10.372966 22.304056 10.25 22.15625 C 10.127029 22.008458 10.062498 21.808087 10.0625 21.53125 C 10.062498 21.348269 10.110984 21.174365 10.1875 21.03125 C 10.264012 20.888151 10.362175 20.789139 10.46875 20.71875 C 10.588983 20.634302 10.713947 20.561757 10.84375 20.53125 C 10.973547 20.500761 11.08758 20.500009 11.21875 20.5 C 11.590385 20.500009 11.955887 20.616195 12.3125 20.84375 C 12.669104 21.071322 12.972808 21.349681 13.21875 21.6875 L 13.40625 21.6875 L 13.40625 19.28125 C 13.119318 19.079503 12.767128 18.883733 12.375 18.75 C 11.982863 18.616288 11.589194 18.562511 11.1875 18.5625 z M 17.15625 18.5625 C 16.095985 18.562511 15.28048 19.034203 14.6875 20.03125 C 14.094517 21.028315 13.78125 22.340621 13.78125 23.96875 C 13.78125 25.676654 14.068733 27.031097 14.65625 28 C 15.243765 28.968905 16.086596 29.4375 17.125 29.4375 C 17.573148 29.4375 18.01786 29.368143 18.46875 29.1875 C 18.919629 29.006857 19.257981 28.80799 19.53125 28.625 L 19.53125 23.46875 L 16.71875 23.46875 L 16.71875 25.4375 L 17.9375 25.4375 L 17.9375 27.5 C 17.877377 27.509386 17.82241 27.49531 17.75 27.5 C 17.677581 27.504694 17.622614 27.531252 17.5625 27.53125 C 16.862942 27.531252 16.326722 27.208409 15.96875 26.59375 C 15.610772 25.979097 15.437498 25.096437 15.4375 23.9375 C 15.437498 23.36977 15.462757 22.87152 15.5625 22.4375 C 15.662239 22.003494 15.796591 21.65653 15.96875 21.375 C 16.149101 21.084102 16.366938 20.859519 16.59375 20.71875 C 16.820555 20.577998 17.065017 20.500009 17.34375 20.5 C 17.581485 20.500009 17.819466 20.548342 18.03125 20.65625 C 18.243024 20.764175 18.435252 20.912363 18.59375 21.0625 C 18.730376 21.189193 18.852432 21.319365 19 21.5 C 19.147557 21.680651 19.26723 21.838975 19.34375 21.9375 L 19.53125 21.9375 L 19.53125 19.46875 C 19.085825 19.098089 18.675935 18.874349 18.3125 18.75 C 17.949055 18.625672 17.557943 18.562511 17.15625 18.5625 z M 20.03125 18.75 L 20.03125 29.21875 L 21.5 29.21875 L 21.5 22.21875 L 22.625 26.78125 L 23.71875 26.78125 L 24.84375 22.21875 L 24.84375 29.21875 L 26.40625 29.21875 L 26.40625 18.75 L 24.59375 18.75 L 23.21875 24 L 21.84375 18.75 L 20.03125 18.75 z M 27.1875 18.75 L 27.1875 29.21875 L 31.59375 29.21875 L 31.59375 27.21875 L 28.75 27.21875 L 28.75 18.75 L 27.1875 18.75 z "
       id="rect2987" />
  </g>
</svg>
