<?xml version="1.0" encoding="UTF-8" standalone="no"?>
<!-- Created with Inkscape (http://www.inkscape.org/) -->

<svg
   xmlns:dc="http://purl.org/dc/elements/1.1/"
   xmlns:cc="http://creativecommons.org/ns#"
   xmlns:rdf="http://www.w3.org/1999/02/22-rdf-syntax-ns#"
   xmlns:svg="http://www.w3.org/2000/svg"
   xmlns="http://www.w3.org/2000/svg"
   xmlns:sodipodi="http://sodipodi.sourceforge.net/DTD/sodipodi-0.dtd"
   xmlns:inkscape="http://www.inkscape.org/namespaces/inkscape"
   width="32px"
   height="32px"
   id="svg3096"
   version="1.1"
   inkscape:version="0.48.4 r9939"
   sodipodi:docname="octet-stream.svg">
  <defs
     id="defs3098" />
  <sodipodi:namedview
     id="base"
     pagecolor="#ffffff"
     bordercolor="#666666"
     borderopacity="1.0"
     inkscape:pageopacity="0.0"
     inkscape:pageshadow="2"
     inkscape:zoom="22.395604"
     inkscape:cx="5.0606904"
     inkscape:cy="2.7836987"
     inkscape:current-layer="layer1"
     showgrid="true"
     inkscape:grid-bbox="true"
     inkscape:document-units="px"
     inkscape:window-width="1920"
     inkscape:window-height="1178"
     inkscape:window-x="1272"
     inkscape:window-y="-8"
     inkscape:window-maximized="1" />
  <metadata
     id="metadata3101">
    <rdf:RDF>
      <cc:Work
         rdf:about="">
        <dc:format>image/svg+xml</dc:format>
        <dc:type
           rdf:resource="http://purl.org/dc/dcmitype/StillImage" />
        <dc:title></dc:title>
      </cc:Work>
    </rdf:RDF>
  </metadata>
  <g
     id="layer1"
     inkscape:label="Layer 1"
     inkscape:groupmode="layer">
    <path
       style="fill:#ff0000"
       d="M 11.84375 17.375 C 10.864963 17.375013 10.060512 17.745747 9.4375 18.5 C 8.8144848 19.254277 8.4999994 20.213201 8.5 21.40625 C 8.4999994 22.295317 8.6306531 23.05686 8.90625 23.65625 C 9.1818449 24.255654 9.6532231 24.712618 10.28125 25.0625 C 10.555173 25.217373 10.843905 25.368377 11.15625 25.46875 C 11.468589 25.569132 11.750639 25.666538 12.03125 25.78125 C 12.29849 25.890236 12.517612 26.046381 12.65625 26.25 C 12.794878 26.453627 12.874995 26.687697 12.875 26.96875 C 12.874995 27.272754 12.813951 27.501385 12.71875 27.65625 C 12.623539 27.811121 12.49073 27.959257 12.34375 28.0625 C 12.223486 28.142804 12.065408 28.184337 11.875 28.21875 C 11.684584 28.253167 11.554416 28.281252 11.4375 28.28125 C 10.983181 28.281252 10.49273 28.136281 10 27.84375 C 9.5072659 27.551224 9.0850254 27.10741 8.6875 26.5625 L 8.46875 26.5625 L 8.46875 29.65625 C 8.8696162 29.943044 9.2906717 30.157335 9.75 30.34375 C 10.209325 30.530165 10.756994 30.625 11.375 30.625 C 12.443974 30.625 13.28323 30.257431 13.90625 29.46875 C 14.529258 28.680071 14.843743 27.636892 14.84375 26.375 C 14.843743 25.491682 14.709749 24.772266 14.4375 24.21875 C 14.165238 23.665246 13.72748 23.227465 13.15625 22.90625 C 12.865616 22.745654 12.595958 22.623032 12.34375 22.53125 C 12.091534 22.439484 11.836422 22.347518 11.5625 22.25 C 11.144927 22.100876 10.869072 21.930688 10.71875 21.75 C 10.568422 21.569329 10.499997 21.307175 10.5 20.96875 C 10.499997 20.745061 10.531462 20.549954 10.625 20.375 C 10.718533 20.200066 10.838465 20.086048 10.96875 20 C 11.115731 19.896765 11.24757 19.818544 11.40625 19.78125 C 11.564923 19.743978 11.745899 19.718761 11.90625 19.71875 C 12.360562 19.718761 12.814052 19.846821 13.25 20.125 C 13.685937 20.403199 14.043094 20.774528 14.34375 21.1875 L 14.53125 21.1875 L 14.53125 18.21875 C 14.180485 17.97212 13.791864 17.757235 13.3125 17.59375 C 12.833125 17.430291 12.334808 17.375013 11.84375 17.375 z M 14.75 17.59375 L 16.78125 30.40625 L 18.90625 30.40625 L 20.21875 22.0625 L 21.53125 30.40625 L 23.6875 30.40625 L 25.6875 17.59375 L 23.71875 17.59375 L 22.53125 26.40625 L 21.21875 17.59375 L 19.28125 17.59375 L 17.90625 26.40625 L 16.78125 17.59375 L 14.75 17.59375 z M 26.1875 17.59375 L 26.1875 30.40625 L 28.09375 30.40625 L 28.09375 24.9375 L 31.28125 24.9375 L 31.28125 22.46875 L 28.09375 22.46875 L 28.09375 20.0625 L 31.53125 20.0625 L 31.53125 17.59375 L 26.1875 17.59375 z "
       id="rect2987" />
  </g>
</svg>
