<?xml version="1.0" encoding="UTF-8" standalone="no"?>
<!-- Created with Inkscape (http://www.inkscape.org/) -->

<svg
   xmlns:dc="http://purl.org/dc/elements/1.1/"
   xmlns:cc="http://creativecommons.org/ns#"
   xmlns:rdf="http://www.w3.org/1999/02/22-rdf-syntax-ns#"
   xmlns:svg="http://www.w3.org/2000/svg"
   xmlns="http://www.w3.org/2000/svg"
   xmlns:sodipodi="http://sodipodi.sourceforge.net/DTD/sodipodi-0.dtd"
   xmlns:inkscape="http://www.inkscape.org/namespaces/inkscape"
   width="32px"
   height="32px"
   id="svg3981"
   version="1.1"
   inkscape:version="0.48.4 r9939"
   sodipodi:docname="history.svg">
  <defs
     id="defs3983" />
  <sodipodi:namedview
     id="base"
     pagecolor="#ffffff"
     bordercolor="#666666"
     borderopacity="1.0"
     inkscape:pageopacity="0.0"
     inkscape:pageshadow="2"
     inkscape:zoom="22.4"
     inkscape:cx="10.396603"
     inkscape:cy="15.164866"
     inkscape:current-layer="layer1"
     showgrid="true"
     inkscape:grid-bbox="true"
     inkscape:document-units="px"
     inkscape:snap-grids="false"
     inkscape:window-width="1920"
     inkscape:window-height="1178"
     inkscape:window-x="1272"
     inkscape:window-y="-8"
     inkscape:window-maximized="1">
    <inkscape:grid
       type="xygrid"
       id="grid3991" />
  </sodipodi:namedview>
  <metadata
     id="metadata3986">
    <rdf:RDF>
      <cc:Work
         rdf:about="">
        <dc:format>image/svg+xml</dc:format>
        <dc:type
           rdf:resource="http://purl.org/dc/dcmitype/StillImage" />
        <dc:title></dc:title>
      </cc:Work>
    </rdf:RDF>
  </metadata>
  <g
     id="layer1"
     inkscape:label="Layer 1"
     inkscape:groupmode="layer">
    <path
       style="fill:#000000"
       d="m 25,0 c -3.865993,0 -7,3.134007 -7,7 0,3.865994 3.134007,7 7,7 3.865994,0 7,-3.134006 7,-7 0,-3.865993 -3.134006,-7 -7,-7 z m 0,1.390625 c 3.037566,0 5.5,2.462434 5.5,5.5 0,3.037566 -2.462434,5.5 -5.5,5.5 -3.037566,0 -5.5,-2.462434 -5.5,-5.5 0,-3.037566 2.462434,-5.5 5.5,-5.5 z m -0.359375,0.4375 c -0.123661,0 -0.234375,0.09509 -0.234375,0.21875 l 0,0.5625 c 0,0.123661 0.110714,0.21875 0.234375,0.21875 l 0.546875,0 c 0.12366,0 0.21875,-0.09509 0.21875,-0.21875 l 0,-0.5625 c 0,-0.123661 -0.09509,-0.21875 -0.21875,-0.21875 l -0.546875,0 z M 26.734375,2.9375 C 26.611456,2.92618 26.499517,2.99332 26.4375,3.109375 l -1.84375,3.4375 c -0.06202,0.116058 -0.04647,0.247851 0.03125,0.34375 -0.0033,0.0061 -0.01258,0.0093 -0.01563,0.01563 -0.143869,0.297808 0.01128,0.667508 0.34375,0.828125 L 26.5625,8.51563 c 0.332477,0.160617 0.715507,0.04781 0.859375,-0.25 0.143869,-0.297808 -0.01127,-0.667508 -0.34375,-0.828125 L 25.46875,6.65625 C 25.457805,6.65095 25.448545,6.64533 25.4375,6.64062 l 1.703125,-3.15625 c 0.08269,-0.154744 0.02975,-0.35481 -0.125,-0.4375 l -0.15625,-0.07813 c -0.03868,-0.02067 -0.08403,-0.02748 -0.125,-0.03125 z M 21.4375,3.21875 c -0.05674,0.006 -0.101775,0.03002 -0.140625,0.07813 l -0.03125,0.04687 c -0.0777,0.0962 -0.06495,0.234799 0.03125,0.3125 L 21.71875,4 c 0.0962,0.0777 0.234799,0.06495 0.3125,-0.03125 l 0.04687,-0.04687 c 0.0777,-0.0962 0.04932,-0.234799 -0.04687,-0.3125 L 21.609375,3.265625 c -0.0481,-0.03885 -0.115137,-0.05291 -0.171875,-0.04687 z m 7.5,0.515625 c -0.05674,-0.006 -0.108149,0.008 -0.15625,0.04687 l -0.4375,0.34375 c -0.0962,0.0777 -0.108951,0.216299 -0.03125,0.3125 l 0.03125,0.04687 c 0.0777,0.0962 0.216299,0.10895 0.3125,0.03125 l 0.4375,-0.34375 c 0.0962,-0.0777 0.108951,-0.216299 0.03125,-0.3125 L 29.09375,3.8125 C 29.0549,3.7644 28.994238,3.74041 28.9375,3.73437 z m 0.359375,2.78125 c -0.12366,0 -0.234375,0.09509 -0.234375,0.21875 l 0,0.546875 c 0,0.12366 0.110715,0.234375 0.234375,0.234375 l 0.546875,0 c 0.123661,0 0.21875,-0.110715 0.21875,-0.234375 l 0,-0.546875 c 0,-0.123661 -0.09509,-0.21875 -0.21875,-0.21875 l -0.546875,0 z M 20.15625,6.53125 c -0.123661,0 -0.21875,0.09509 -0.21875,0.21875 l 0,0.5625 c 0,0.12366 0.09509,0.21875 0.21875,0.21875 l 0.5625,0 c 0.123661,0 0.21875,-0.09509 0.21875,-0.21875 l 0,-0.5625 c 0,-0.123661 -0.09509,-0.21875 -0.21875,-0.21875 l -0.5625,0 z m 7.921875,3.296875 c -0.05674,0.006 -0.117399,0.03002 -0.15625,0.07813 l -0.03125,0.04687 c -0.0777,0.0962 -0.06495,0.234799 0.03125,0.3125 l 0.4375,0.34375 c 0.0962,0.0777 0.234799,0.06495 0.3125,-0.03125 l 0.03125,-0.04687 c 0.0777,-0.0962 0.06495,-0.2348 -0.03125,-0.3125 l -0.4375,-0.34375 c -0.0481,-0.03885 -0.09951,-0.05291 -0.15625,-0.04687 z m -6.0625,0.109375 c -0.05674,-0.006 -0.10815,0.008 -0.15625,0.04687 l -0.4375,0.359375 c -0.0962,0.0777 -0.108951,0.216299 -0.03125,0.3125 l 0.03125,0.03125 c 0.0777,0.0962 0.216299,0.10895 0.3125,0.03125 l 0.4375,-0.34375 c 0.0962,-0.0777 0.10895,-0.216299 0.03125,-0.3125 l -0.03125,-0.04687 c -0.03885,-0.0481 -0.09951,-0.07209 -0.15625,-0.07813 z m 2.703125,1.03125 c -0.123661,0 -0.234375,0.110714 -0.234375,0.234375 l 0,0.546875 c 0,0.12366 0.110714,0.21875 0.234375,0.21875 l 0.546875,0 c 0.12366,0 0.21875,-0.09509 0.21875,-0.21875 l 0,-0.546875 c 0,-0.123661 -0.09509,-0.234375 -0.21875,-0.234375 l -0.546875,0 z"
       id="path3164"
       inkscape:connector-curvature="0" />
  </g>
</svg>
