<?xml version="1.0" encoding="UTF-8" standalone="no"?>
<!-- Created with Inkscape (http://www.inkscape.org/) -->

<svg
   xmlns:dc="http://purl.org/dc/elements/1.1/"
   xmlns:cc="http://creativecommons.org/ns#"
   xmlns:rdf="http://www.w3.org/1999/02/22-rdf-syntax-ns#"
   xmlns:svg="http://www.w3.org/2000/svg"
   xmlns="http://www.w3.org/2000/svg"
   xmlns:sodipodi="http://sodipodi.sourceforge.net/DTD/sodipodi-0.dtd"
   xmlns:inkscape="http://www.inkscape.org/namespaces/inkscape"
   width="32px"
   height="32px"
   id="svg3096"
   version="1.1"
   inkscape:version="0.48.4 r9939"
   sodipodi:docname="rtf.svg">
  <defs
     id="defs3098" />
  <sodipodi:namedview
     id="base"
     pagecolor="#ffffff"
     bordercolor="#666666"
     borderopacity="1.0"
     inkscape:pageopacity="0.0"
     inkscape:pageshadow="2"
     inkscape:zoom="22.395604"
     inkscape:cx="20.652871"
     inkscape:cy="10.834243"
     inkscape:current-layer="layer1"
     showgrid="true"
     inkscape:grid-bbox="true"
     inkscape:document-units="px"
     inkscape:window-width="1920"
     inkscape:window-height="1018"
     inkscape:window-x="-8"
     inkscape:window-y="-8"
     inkscape:window-maximized="1" />
  <metadata
     id="metadata3101">
    <rdf:RDF>
      <cc:Work
         rdf:about="">
        <dc:format>image/svg+xml</dc:format>
        <dc:type
           rdf:resource="http://purl.org/dc/dcmitype/StillImage" />
        <dc:title></dc:title>
      </cc:Work>
    </rdf:RDF>
  </metadata>
  <g
     id="layer1"
     inkscape:label="Layer 1"
     inkscape:groupmode="layer">
    <path
       style="fill:#ff0000"
       d="M 12.5 17.375 C 11.521213 17.375013 10.716762 17.745747 10.09375 18.5 C 9.4707348 19.254277 9.1562494 20.213201 9.15625 21.40625 C 9.1562494 22.295317 9.3181531 23.05686 9.59375 23.65625 C 9.8693449 24.255654 10.309473 24.712618 10.9375 25.0625 C 11.211423 25.217373 11.500155 25.368377 11.8125 25.46875 C 12.124839 25.569132 12.438139 25.666538 12.71875 25.78125 C 12.98599 25.890236 13.173862 26.046381 13.3125 26.25 C 13.451128 26.453627 13.531245 26.687697 13.53125 26.96875 C 13.531245 27.272754 13.470201 27.501385 13.375 27.65625 C 13.279789 27.811121 13.17823 27.959257 13.03125 28.0625 C 12.910986 28.142804 12.752908 28.184337 12.5625 28.21875 C 12.372084 28.253167 12.210666 28.281252 12.09375 28.28125 C 11.639431 28.281252 11.18023 28.136281 10.6875 27.84375 C 10.194766 27.551224 9.7412754 27.10741 9.34375 26.5625 L 9.125 26.5625 L 9.125 29.65625 C 9.5258662 29.943044 9.9469217 30.157335 10.40625 30.34375 C 10.865575 30.530165 11.413244 30.625 12.03125 30.625 C 13.100224 30.625 13.93948 30.257431 14.5625 29.46875 C 15.185508 28.680071 15.499993 27.636892 15.5 26.375 C 15.499993 25.491682 15.365999 24.772266 15.09375 24.21875 C 14.821488 23.665246 14.41498 23.227465 13.84375 22.90625 C 13.553116 22.745654 13.283458 22.623032 13.03125 22.53125 C 12.779034 22.439484 12.492672 22.347518 12.21875 22.25 C 11.801177 22.100876 11.525322 21.930688 11.375 21.75 C 11.224672 21.569329 11.156247 21.307175 11.15625 20.96875 C 11.156247 20.745061 11.187712 20.549954 11.28125 20.375 C 11.374783 20.200066 11.494715 20.086048 11.625 20 C 11.771981 19.896765 11.93507 19.818544 12.09375 19.78125 C 12.252423 19.743978 12.402149 19.718761 12.5625 19.71875 C 13.016812 19.718761 13.470302 19.846821 13.90625 20.125 C 14.342187 20.403199 14.699344 20.774528 15 21.1875 L 15.21875 21.1875 L 15.21875 18.21875 C 14.867985 17.97212 14.448114 17.757235 13.96875 17.59375 C 13.489375 17.430291 12.991058 17.375013 12.5 17.375 z M 16.09375 17.59375 L 16.09375 20.0625 L 18.40625 20.0625 L 18.40625 30.40625 L 20.34375 30.40625 L 20.34375 20.0625 L 22.65625 20.0625 L 22.65625 17.59375 L 16.09375 17.59375 z M 23.8125 17.59375 L 23.8125 30.40625 L 26.46875 30.40625 C 27.063365 30.40625 27.565723 30.336632 28 30.1875 C 28.434267 30.038368 28.823373 29.753567 29.1875 29.375 C 29.671874 28.870246 30.08889 28.162301 30.40625 27.21875 C 30.723595 26.275205 30.874992 25.193064 30.875 24 C 30.874992 22.761062 30.733132 21.696128 30.4375 20.78125 C 30.141853 19.866391 29.733189 19.132932 29.21875 18.59375 C 28.918094 18.272554 28.534698 18.018706 28.09375 17.84375 C 27.652791 17.668819 27.139228 17.593763 26.53125 17.59375 L 23.8125 17.59375 z M 25.75 20 L 26.21875 20 C 26.632976 20.00001 26.950802 20.002284 27.15625 20.0625 C 27.36169 20.122737 27.584152 20.23992 27.78125 20.40625 C 28.16875 20.744675 28.446275 21.213112 28.625 21.8125 C 28.803714 22.411905 28.874994 23.156836 28.875 24 C 28.874994 24.848913 28.788681 25.548551 28.625 26.125 C 28.461307 26.701458 28.225753 27.155852 27.875 27.5 C 27.671221 27.689286 27.463791 27.834554 27.25 27.90625 C 27.0362 27.977951 26.676403 28.000002 26.21875 28 L 25.75 28 L 25.75 20 z "
       id="rect2987" />
  </g>
</svg>
