<?xml version="1.0" encoding="UTF-8" standalone="no"?>
<!-- Created with Inkscape (http://www.inkscape.org/) -->

<svg
   xmlns:dc="http://purl.org/dc/elements/1.1/"
   xmlns:cc="http://creativecommons.org/ns#"
   xmlns:rdf="http://www.w3.org/1999/02/22-rdf-syntax-ns#"
   xmlns:svg="http://www.w3.org/2000/svg"
   xmlns="http://www.w3.org/2000/svg"
   xmlns:sodipodi="http://sodipodi.sourceforge.net/DTD/sodipodi-0.dtd"
   xmlns:inkscape="http://www.inkscape.org/namespaces/inkscape"
   width="32px"
   height="32px"
   id="svg3096"
   version="1.1"
   inkscape:version="0.48.4 r9939"
   sodipodi:docname="standard.svg">
  <defs
     id="defs3098" />
  <sodipodi:namedview
     id="base"
     pagecolor="#ffffff"
     bordercolor="#666666"
     borderopacity="1.0"
     inkscape:pageopacity="0.0"
     inkscape:pageshadow="2"
     inkscape:zoom="22.395604"
     inkscape:cx="20.652871"
     inkscape:cy="10.834243"
     inkscape:current-layer="layer1"
     showgrid="true"
     inkscape:grid-bbox="true"
     inkscape:document-units="px"
     inkscape:window-width="1920"
     inkscape:window-height="1018"
     inkscape:window-x="-8"
     inkscape:window-y="-8"
     inkscape:window-maximized="1" />
  <metadata
     id="metadata3101">
    <rdf:RDF>
      <cc:Work
         rdf:about="">
        <dc:format>image/svg+xml</dc:format>
        <dc:type
           rdf:resource="http://purl.org/dc/dcmitype/StillImage" />
        <dc:title></dc:title>
      </cc:Work>
    </rdf:RDF>
  </metadata>
  <g
     id="layer1"
     inkscape:label="Layer 1"
     inkscape:groupmode="layer">
    <path
       style="fill:#ff0000"
       d="M 9.9375 17.59375 L 9.9375 20.0625 L 12.28125 20.0625 L 12.28125 30.40625 L 14.1875 30.40625 L 14.1875 20.0625 L 16.53125 20.0625 L 16.53125 17.59375 L 9.9375 17.59375 z M 18.0625 17.59375 L 18.0625 19.875 L 19.28125 19.875 L 19.28125 28.125 L 18.0625 28.125 L 18.0625 30.40625 L 22.4375 30.40625 L 22.4375 28.125 L 21.1875 28.125 L 21.1875 19.875 L 22.4375 19.875 L 22.4375 17.59375 L 18.0625 17.59375 z M 24.71875 17.59375 L 24.71875 30.40625 L 26.625 30.40625 L 26.625 24.9375 L 29.8125 24.9375 L 29.8125 22.46875 L 26.625 22.46875 L 26.625 20.0625 L 30.0625 20.0625 L 30.0625 17.59375 L 24.71875 17.59375 z "
       id="rect2987" />
  </g>
</svg>
