<?xml version="1.0" encoding="UTF-8" standalone="no"?>
<!-- Created with Inkscape (http://www.inkscape.org/) -->

<svg
   xmlns:dc="http://purl.org/dc/elements/1.1/"
   xmlns:cc="http://creativecommons.org/ns#"
   xmlns:rdf="http://www.w3.org/1999/02/22-rdf-syntax-ns#"
   xmlns:svg="http://www.w3.org/2000/svg"
   xmlns="http://www.w3.org/2000/svg"
   xmlns:sodipodi="http://sodipodi.sourceforge.net/DTD/sodipodi-0.dtd"
   xmlns:inkscape="http://www.inkscape.org/namespaces/inkscape"
   width="32px"
   height="32px"
   id="svg3096"
   version="1.1"
   inkscape:version="0.48.4 r9939"
   sodipodi:docname="tif.svg">
  <defs
     id="defs3098" />
  <sodipodi:namedview
     id="base"
     pagecolor="#ffffff"
     bordercolor="#666666"
     borderopacity="1.0"
     inkscape:pageopacity="0.0"
     inkscape:pageshadow="2"
     inkscape:zoom="22.395604"
     inkscape:cx="20.652871"
     inkscape:cy="10.834243"
     inkscape:current-layer="layer1"
     showgrid="true"
     inkscape:grid-bbox="true"
     inkscape:document-units="px"
     inkscape:window-width="1920"
     inkscape:window-height="1018"
     inkscape:window-x="-8"
     inkscape:window-y="-8"
     inkscape:window-maximized="1" />
  <metadata
     id="metadata3101">
    <rdf:RDF>
      <cc:Work
         rdf:about="">
        <dc:format>image/svg+xml</dc:format>
        <dc:type
           rdf:resource="http://purl.org/dc/dcmitype/StillImage" />
        <dc:title></dc:title>
      </cc:Work>
    </rdf:RDF>
  </metadata>
  <g
     id="layer1"
     inkscape:label="Layer 1"
     inkscape:groupmode="layer">
    <path
       style="fill:#ff0000"
       d="M 12.09375 16.65625 C 11.6812 16.656261 11.276164 16.72154 10.875 16.875 C 10.473832 17.028482 10.170802 17.20896 9.9375 17.375 L 9.9375 19.8125 L 10.09375 19.8125 C 10.386799 19.505566 10.687032 19.257294 11 19.09375 C 11.312965 18.930224 11.607553 18.843759 11.875 18.84375 C 11.983113 18.843759 12.099204 18.876068 12.25 18.90625 C 12.40079 18.93645 12.545286 19.003186 12.65625 19.09375 C 12.755827 19.174268 12.840808 19.267883 12.90625 19.40625 C 12.971685 19.544634 12.999996 19.742326 13 19.96875 C 12.999996 20.2757 12.96884 20.497755 12.90625 20.65625 C 12.843653 20.81476 12.750183 20.935652 12.625 21.03125 C 12.5055 21.12183 12.358206 21.193598 12.1875 21.21875 C 12.016788 21.243916 11.815669 21.250007 11.59375 21.25 L 11.21875 21.25 L 11.21875 23.25 L 11.5625 23.25 C 11.730361 23.250005 11.928682 23.273707 12.125 23.28125 C 12.321312 23.288803 12.485584 23.325745 12.625 23.40625 C 12.764409 23.481732 12.883392 23.602624 12.96875 23.78125 C 13.054101 23.959885 13.093746 24.204184 13.09375 24.53125 C 13.093746 24.868387 13.062589 25.133873 13 25.3125 C 12.937403 25.491133 12.855267 25.655456 12.75 25.78125 C 12.616274 25.942271 12.443467 26.04595 12.25 26.09375 C 12.056527 26.141554 11.883766 26.156252 11.71875 26.15625 C 11.437078 26.156252 11.121244 26.066212 10.78125 25.875 C 10.441253 25.683792 10.150932 25.449158 9.90625 25.1875 L 9.75 25.1875 L 9.75 27.65625 C 9.9861468 27.837397 10.279266 28.010327 10.65625 28.15625 C 11.033231 28.302173 11.504894 28.375 12.03125 28.375 C 12.492161 28.375 12.864571 28.293567 13.1875 28.125 C 13.51042 27.956433 13.792253 27.692006 14.03125 27.375 C 14.275928 27.047931 14.475671 26.676649 14.59375 26.21875 C 14.711818 25.760855 14.749994 25.247096 14.75 24.71875 C 14.749994 24.250793 14.707504 23.875537 14.625 23.59375 C 14.542485 23.311972 14.451907 23.086342 14.3125 22.875 C 14.178773 22.673732 14.005919 22.511924 13.84375 22.40625 C 13.681572 22.300587 13.551348 22.222729 13.40625 22.1875 L 13.40625 22.09375 C 13.764735 21.957896 14.030918 21.646861 14.25 21.15625 C 14.469071 20.665653 14.593745 20.092706 14.59375 19.46875 C 14.593745 18.995766 14.520051 18.602238 14.40625 18.25 C 14.292439 17.897781 14.139548 17.590321 13.90625 17.34375 C 13.70993 17.137455 13.457832 16.967041 13.15625 16.84375 C 12.85466 16.720481 12.494913 16.656261 12.09375 16.65625 z M 19.0625 16.65625 C 18.041087 16.656261 17.236659 17.169622 16.65625 18.21875 C 16.075838 19.267898 15.8125 20.724826 15.8125 22.53125 C 15.8125 24.257176 16.063128 25.627241 16.59375 26.65625 C 17.124369 27.685262 17.862216 28.248145 18.8125 28.34375 C 18.826722 28.786551 18.886237 29.168956 18.96875 29.53125 C 19.051256 29.893541 19.178727 30.23331 19.34375 30.5 C 19.51161 30.771717 19.71695 30.976558 19.96875 31.125 C 20.220541 31.273436 20.505172 31.343747 20.84375 31.34375 C 21.22784 31.343747 21.501136 31.300315 21.6875 31.25 C 21.873851 31.199679 22.059415 31.159161 22.21875 31.09375 L 22.21875 29.09375 L 22.0625 29.09375 C 21.9999 29.149099 21.878072 29.210803 21.71875 29.28125 C 21.559415 29.351695 21.429145 29.406249 21.3125 29.40625 C 20.968231 29.406249 20.736002 29.278868 20.59375 29.0625 C 20.451487 28.84613 20.355126 28.498152 20.34375 28 C 20.992439 27.617581 21.502326 26.937381 21.84375 25.96875 C 22.185162 25.000124 22.343743 23.864692 22.34375 22.53125 C 22.343743 20.724826 22.052 19.267898 21.46875 18.21875 C 20.885488 17.169622 20.08106 16.656261 19.0625 16.65625 z M 23.59375 16.90625 L 23.59375 28.125 L 25.125 28.125 L 25.125 20.59375 L 26.3125 25.5 L 27.4375 25.5 L 28.625 20.59375 L 28.625 28.125 L 30.25 28.125 L 30.25 16.90625 L 28.34375 16.90625 L 26.9375 22.53125 L 25.5 16.90625 L 23.59375 16.90625 z M 19.0625 18.78125 C 19.267347 18.781259 19.467043 18.86415 19.65625 19 C 19.845448 19.135869 20.011143 19.354348 20.15625 19.65625 C 20.298503 19.948105 20.411795 20.308265 20.5 20.78125 C 20.588194 21.25425 20.656245 21.82574 20.65625 22.5 C 20.656245 23.128985 20.608064 23.690809 20.53125 24.15625 C 20.454426 24.621699 20.346824 25.032838 20.1875 25.375 C 20.045238 25.676913 19.878121 25.887845 19.6875 26.03125 C 19.496871 26.174659 19.273037 26.250002 19.0625 26.25 C 18.851955 26.250002 18.659372 26.172144 18.46875 26.03125 C 18.278122 25.890361 18.111005 25.671881 17.96875 25.375 C 17.82649 25.078124 17.711775 24.689231 17.625 24.21875 C 17.538221 23.748277 17.499998 23.20049 17.5 22.53125 C 17.499998 21.877117 17.535376 21.276893 17.625 20.78125 C 17.71462 20.285621 17.82649 19.906791 17.96875 19.625 C 18.122385 19.323098 18.316485 19.099587 18.5 18.96875 C 18.683509 18.837931 18.8548 18.781259 19.0625 18.78125 z "
       id="rect2987" />
  </g>
</svg>
