<?xml version="1.0" encoding="UTF-8" standalone="no"?>
<!-- Created with Inkscape (http://www.inkscape.org/) -->

<svg
   xmlns:dc="http://purl.org/dc/elements/1.1/"
   xmlns:cc="http://creativecommons.org/ns#"
   xmlns:rdf="http://www.w3.org/1999/02/22-rdf-syntax-ns#"
   xmlns:svg="http://www.w3.org/2000/svg"
   xmlns="http://www.w3.org/2000/svg"
   xmlns:sodipodi="http://sodipodi.sourceforge.net/DTD/sodipodi-0.dtd"
   xmlns:inkscape="http://www.inkscape.org/namespaces/inkscape"
   width="32px"
   height="32px"
   id="svg3096"
   version="1.1"
   inkscape:version="0.48.4 r9939"
   sodipodi:docname="txt.svg">
  <defs
     id="defs3098" />
  <sodipodi:namedview
     id="base"
     pagecolor="#ffffff"
     bordercolor="#666666"
     borderopacity="1.0"
     inkscape:pageopacity="0.0"
     inkscape:pageshadow="2"
     inkscape:zoom="22.395604"
     inkscape:cx="20.652871"
     inkscape:cy="10.834243"
     inkscape:current-layer="layer1"
     showgrid="true"
     inkscape:grid-bbox="true"
     inkscape:document-units="px"
     inkscape:window-width="1920"
     inkscape:window-height="1018"
     inkscape:window-x="-8"
     inkscape:window-y="-8"
     inkscape:window-maximized="1" />
  <metadata
     id="metadata3101">
    <rdf:RDF>
      <cc:Work
         rdf:about="">
        <dc:format>image/svg+xml</dc:format>
        <dc:type
           rdf:resource="http://purl.org/dc/dcmitype/StillImage" />
        <dc:title></dc:title>
      </cc:Work>
    </rdf:RDF>
  </metadata>
  <g
     id="layer1"
     inkscape:label="Layer 1"
     inkscape:groupmode="layer">
    <path
       style="fill:#ff0000"
       d="M 8.8125 17.59375 L 11.40625 23.9375 L 8.75 30.40625 L 10.875 30.40625 L 12.53125 26.1875 L 14.125 30.40625 L 16.375 30.40625 L 13.71875 23.8125 L 16.3125 17.59375 L 14.1875 17.59375 L 12.59375 21.59375 L 11.03125 17.59375 L 8.8125 17.59375 z M 16.78125 17.59375 L 16.78125 30.40625 L 18.59375 30.40625 L 18.59375 21.8125 L 19.96875 27.40625 L 21.3125 27.40625 L 22.6875 21.8125 L 22.6875 30.40625 L 24.59375 30.40625 L 24.59375 17.59375 L 22.375 17.59375 L 20.6875 24.03125 L 19.03125 17.59375 L 16.78125 17.59375 z M 25.84375 17.59375 L 25.84375 30.40625 L 31.25 30.40625 L 31.25 27.9375 L 27.78125 27.9375 L 27.78125 17.59375 L 25.84375 17.59375 z "
       id="rect2987" />
  </g>
</svg>
