<?xml version="1.0" encoding="UTF-8" standalone="no"?>
<!-- Created with Inkscape (http://www.inkscape.org/) -->

<svg
   xmlns:dc="http://purl.org/dc/elements/1.1/"
   xmlns:cc="http://creativecommons.org/ns#"
   xmlns:rdf="http://www.w3.org/1999/02/22-rdf-syntax-ns#"
   xmlns:svg="http://www.w3.org/2000/svg"
   xmlns="http://www.w3.org/2000/svg"
   xmlns:sodipodi="http://sodipodi.sourceforge.net/DTD/sodipodi-0.dtd"
   xmlns:inkscape="http://www.inkscape.org/namespaces/inkscape"
   width="32px"
   height="32px"
   id="svg3096"
   version="1.1"
   inkscape:version="0.48.4 r9939"
   sodipodi:docname="xml.svg">
  <defs
     id="defs3098" />
  <sodipodi:namedview
     id="base"
     pagecolor="#ffffff"
     bordercolor="#666666"
     borderopacity="1.0"
     inkscape:pageopacity="0.0"
     inkscape:pageshadow="2"
     inkscape:zoom="22.395604"
     inkscape:cx="20.652871"
     inkscape:cy="10.834243"
     inkscape:current-layer="layer1"
     showgrid="true"
     inkscape:grid-bbox="true"
     inkscape:document-units="px"
     inkscape:window-width="1920"
     inkscape:window-height="1018"
     inkscape:window-x="-8"
     inkscape:window-y="-8"
     inkscape:window-maximized="1" />
  <metadata
     id="metadata3101">
    <rdf:RDF>
      <cc:Work
         rdf:about="">
        <dc:format>image/svg+xml</dc:format>
        <dc:type
           rdf:resource="http://purl.org/dc/dcmitype/StillImage" />
        <dc:title></dc:title>
      </cc:Work>
    </rdf:RDF>
  </metadata>
  <g
     id="layer1"
     inkscape:label="Layer 1"
     inkscape:groupmode="layer">
    <path
       style="fill:#ff0000"
       d="M 8.40625 17.59375 L 11 23.9375 L 8.375 30.40625 L 10.5 30.40625 L 12.125 26.1875 L 13.75 30.40625 L 15.96875 30.40625 L 13.3125 23.8125 L 15.90625 17.59375 L 13.78125 17.59375 L 12.1875 21.59375 L 10.625 17.59375 L 8.40625 17.59375 z M 16.25 17.59375 L 18.84375 23.9375 L 16.1875 30.40625 L 18.3125 30.40625 L 19.96875 26.1875 L 21.5625 30.40625 L 23.8125 30.40625 L 21.15625 23.8125 L 23.75 17.59375 L 21.625 17.59375 L 20.03125 21.59375 L 18.46875 17.59375 L 16.25 17.59375 z M 24.09375 17.59375 L 26.6875 23.9375 L 24.03125 30.40625 L 26.15625 30.40625 L 27.8125 26.1875 L 29.40625 30.40625 L 31.625 30.40625 L 29 23.8125 L 31.59375 17.59375 L 29.46875 17.59375 L 27.875 21.59375 L 26.3125 17.59375 L 24.09375 17.59375 z "
       id="rect2987" />
  </g>
</svg>
