<?xml version="1.0" standalone="no"?>
<!DOCTYPE svg PUBLIC "-//W3C//DTD SVG 1.1//EN" "http://www.w3.org/Graphics/SVG/1.1/DTD/svg11.dtd" >
<svg xmlns="http://www.w3.org/2000/svg">
<metadata>Generated by IcoMoon</metadata>
<defs>
<font id="cui-icon" horiz-adv-x="1024">
<font-face units-per-em="1024" ascent="870.4" descent="-153.6" />
<missing-glyph horiz-adv-x="1024" />
<glyph unicode="&#x20;" horiz-adv-x="0" d="" />
<glyph unicode="&#xe800;" glyph-name="address_book" d="M43.2-160v864l149.164 160h617.964q41.766 0 81.401-24.747t64.353-64.427 24.719-81.493v-640l-85.236-85.333v682.667q0 128-127.855 128h-522.925l-85.236-85.333h522.925q52.847 0 90.351-37.547t37.504-90.453v-597.333q0-52.907-37.504-90.453t-90.351-37.547h-639.273zM213.673 105.387q0-3.84 2.77-6.613t6.606-2.773h407.43q3.836 0 6.606 2.773t2.77 6.613v43.52q0 14.933-3.836 22.4t-14.916 13.867q-4.688 2.987-34.308 13.44t-65.632 23.253-51.781 19.627v38.4q14.916 4.267 28.767 22.827t13.851 33.92v84.907q0 36.267-22.588 59.947t-62.649 23.68-62.649-23.68-22.588-59.947v-84.907q0-15.36 13.851-33.92t28.767-22.827v-38.4q-19.178-8.107-82.466-30.507t-69.255-25.813q-11.081-6.4-14.916-13.867t-3.836-22.4v-43.52z" />
<glyph unicode="&#xe801;" glyph-name="adjust" d="M0 352q0-69.381 18.39-135.837t51.409-122.462 80.457-103.445 103.445-80.457 122.462-51.409 135.837-18.39 135.837 18.39 122.671 51.409 103.445 80.457 80.248 103.445 51.409 122.462 18.39 135.837-18.39 135.837-51.409 122.671-80.248 103.445-103.445 80.248-122.671 51.409-135.837 18.39-135.837-18.39-122.462-51.409-103.445-80.248-80.457-103.445-51.409-122.671-18.39-135.837zM106.162 352q0 77.74 27.585 149.002t75.86 124.97 115.775 89.234 144.823 43.886v-814.184q-77.322 8.359-144.823 43.886t-115.775 89.234-75.86 124.97-27.585 149.002z" />
<glyph unicode="&#xe802;" glyph-name="adjust_alt" d="M21.333 96v128q0 17.493 12.587 30.080t30.080 12.587h42.667v597.333h128v-597.333h42.667q17.493 0 30.080-12.587t12.587-30.080v-128q0-17.493-12.587-30.080t-30.080-12.587h-213.333q-17.493 0-30.080 12.587t-12.587 30.080zM64 138.667h213.333v21.333h-213.333v-21.333zM106.667-160v170.667h128v-170.667h-128zM362.667 309.333v128q0 17.493 12.587 30.080t30.080 12.587h42.667v384h128v-384h42.667q17.493 0 30.080-12.587t12.587-30.080v-128q0-17.493-12.587-30.080t-30.080-12.587h-213.333q-17.493 0-30.080 12.587t-12.587 30.080zM405.333 352h213.333v21.333h-213.333v-21.333zM448-160v384h128v-384h-128zM704 522.667v128q0 17.493 12.587 30.080t30.080 12.587h42.667v170.667h128v-170.667h42.667q17.493 0 30.080-12.587t12.587-30.080v-128q0-17.493-12.587-30.080t-30.080-12.587h-213.333q-17.493 0-30.080 12.587t-12.587 30.080zM746.667 565.333h213.333v21.333h-213.333v-21.333zM789.333-160v597.333h128v-597.333h-128z" />
<glyph unicode="&#xe803;" glyph-name="airplane" d="M20.323 58.873v70.065q0 8.604 4.507 18.438t11.063 15.57l353.188 294.599v285.994q0 47.939 33.598 84.2t90.551 36.261 89.321-36.057 32.369-84.405v-285.994l353.188-295.009q6.556-5.327 11.063-15.16t4.507-18.438v-69.655q0-8.195-5.327-11.473t-12.702 0.41l-391.703 203.638v-245.84l106.94-86.454q6.556-5.327 11.268-14.955t4.712-18.233v-30.73q0-8.604-5.736-12.907t-13.931-1.844l-144.225 42.203q-8.195 2.458-40.973 2.458t-40.973-2.458l-144.225-42.203q-8.195-2.458-13.931 1.844t-5.736 12.907v30.73q0 8.604 4.712 18.233t11.268 14.955l106.94 86.454v245.84l-391.703-204.048q-7.375-3.688-12.702-0.41t-5.327 11.472z" />
<glyph unicode="&#xe804;" glyph-name="alarm" d="M0.255 641.581q2.106 24.127 20.488 39.445l160.841 137.484q18.382 15.319 43.848 12.446t41.168-21.637l55.911-65.487q-78.889-31.020-143.416-85.592t-108.185-126.187l-57.443 67.019q-15.318 18.382-13.212 42.509zM88.909 293.85q0 85.401 33.509 163.525t89.803 134.42 134.417 89.805 163.522 33.509q85.782 0 163.713-33.509t134.417-89.996 89.803-134.42 33.317-163.334q0-57.062-15.127-111.825t-42.316-100.911-66.060-85.018-85.016-66.061-100.908-42.318-111.823-15.127q-85.399 0-163.33 33.318t-134.417 89.805-89.994 134.42-33.509 163.717zM203.795 293.85q0-62.040 24.318-118.91t65.294-97.847 97.845-65.295 118.907-24.318 118.907 24.318 97.845 65.295 65.294 97.847 24.318 118.91-24.318 118.91-65.294 97.847-97.845 65.295-118.907 24.318-118.907-24.318-97.845-65.295-65.294-97.847-24.318-118.91zM356.977 274.702v36.382q0 8.042 5.553 14.553t13.595 6.51h67.017q2.298 6.893 6.319 11.872t5.553 6.51 8.808 5.744 8.042 4.596v142.845q0 8.042 5.744 13.978t13.403 5.936h37.53q8.042 0 13.978-5.936t5.936-13.978v-143.611q16.084-10.723 27.381-28.531t11.297-37.722q0-31.786-22.594-54.189t-54.38-22.403q-20.68 0-38.104 10.34t-27.764 27.956h-68.166q-8.042 0-13.595 5.553t-5.553 13.595zM700.87 742.3l55.528 66.636q15.318 18.382 40.593 21.446t44.040-11.872l161.99-135.952q18.382-15.319 20.68-39.445t-13.020-42.509l-59.741-71.614q-43.274 72.38-107.61 127.335t-142.459 85.975z" />
<glyph unicode="&#xe805;" glyph-name="albums" d="M0 132.571v438.857q0 14.994 10.789 25.783t25.783 10.789v-512q-14.994 0-25.783 10.789t-10.789 25.783zM73.143 96v512q0 14.994 10.789 25.783t25.783 10.789h36.571v-585.143h-36.571q-14.994 0-25.783 10.789t-10.789 25.783zM182.857 59.429v585.143q0 14.994 10.789 25.783t25.783 10.789h585.143q14.994 0 25.783-10.789t10.789-25.783v-585.143q0-14.994-10.789-25.783t-25.783-10.789h-585.143q-14.994 0-25.783 10.789t-10.789 25.783zM291.109 165.486q5.12-16.091 21.029-25.6t38.217-9.509q5.12 0 13.714 1.28t22.309 6.217 24.869 12.617 19.383 22.126 8.229 33.097v208.823l219.429 50.103v-161.28q0 0.366-8.046 0.732t-21.029-0.914-23.589-4.937q-32.183-12.069-49.371-35.109t-9.509-46.080q5.486-17.189 23.040-27.246t40.96-10.057q4.389 0 12.8 1.28t21.211 5.486 23.589 10.423 18.651 18.286 7.863 27.063v322.194q0 14.263-9.509 14.263l1.463-0.366-273.92-67.657q-10.606-2.926-10.606-19.383v-241.737q0 0.366-8.046 0.914t-21.029-0.732-23.589-4.937q-32.183-10.971-49.189-33.829t-9.326-45.531zM877.714 59.429v585.143h36.571q14.994 0 25.783-10.789t10.789-25.783v-512q0-14.994-10.789-25.783t-25.783-10.789h-36.571zM987.429 96v512q14.994 0 25.783-10.789t10.789-25.783v-438.857q0-14.994-10.789-25.783t-25.783-10.789z" />
<glyph unicode="&#xe806;" glyph-name="align_center" d="M0-74.667v85.333q0 8.533 6.187 14.933t15.147 6.4h981.333q8.96 0 15.147-6.4t6.187-14.933v-85.333q0-8.96-6.187-15.147t-15.147-6.187h-981.333q-8.96 0-15.147 6.187t-6.187 15.147zM0 437.333v85.333q0 8.533 6.187 14.933t15.147 6.4h981.333q8.96 0 15.147-6.4t6.187-14.933v-85.333q0-8.96-6.187-15.147t-15.147-6.187h-981.333q-8.96 0-15.147 6.187t-6.187 15.147zM170.667 181.333v85.333q0 8.533 6.187 14.933t15.147 6.4h640q8.96 0 15.147-6.4t6.187-14.933v-85.333q0-8.96-6.187-15.147t-15.147-6.187h-640q-8.96 0-15.147 6.187t-6.187 15.147zM170.667 693.333v85.333q0 8.533 6.187 14.933t15.147 6.4h640q8.96 0 15.147-6.4t6.187-14.933v-85.333q0-8.96-6.187-15.147t-15.147-6.187h-640q-8.96 0-15.147 6.187t-6.187 15.147z" />
<glyph unicode="&#xe807;" glyph-name="align_left" d="M0-74.667v85.333q0 8.533 6.187 14.933t15.147 6.4h981.333q8.96 0 15.147-6.4t6.187-14.933v-85.333q0-8.96-6.187-15.147t-15.147-6.187h-981.333q-8.96 0-15.147 6.187t-6.187 15.147zM0 181.333v85.333q0 8.533 6.187 14.933t15.147 6.4h724.907q8.533 0 14.933-6.4t6.4-14.933v-85.333q0-8.96-6.4-15.147t-14.933-6.187h-724.907q-8.96 0-15.147 6.187t-6.187 15.147zM0 437.333v85.333q0 8.533 6.187 14.933t15.147 6.4h895.573q8.533 0 14.933-6.4t6.4-14.933v-85.333q0-8.96-6.4-15.147t-14.933-6.187h-895.573q-8.96 0-15.147 6.187t-6.187 15.147zM0 693.333v85.333q0 8.533 6.187 14.933t15.147 6.4h554.24q8.533 0 14.933-6.4t6.4-14.933v-85.333q0-8.96-6.4-15.147t-14.933-6.187h-554.24q-8.96 0-15.147 6.187t-6.187 15.147z" />
<glyph unicode="&#xe808;" glyph-name="align_right" d="M0-74.667v85.333q0 8.533 6.187 14.933t15.147 6.4h981.333q8.96 0 15.147-6.4t6.187-14.933v-85.333q0-8.96-6.187-15.147t-15.147-6.187h-981.333q-8.96 0-15.147 6.187t-6.187 15.147zM85.76 437.333v85.333q0 8.533 6.4 14.933t14.933 6.4h895.573q8.96 0 15.147-6.4t6.187-14.933v-85.333q0-8.96-6.187-15.147t-15.147-6.187h-895.573q-8.533 0-14.933 6.187t-6.4 15.147zM256.427 181.333v85.333q0 8.533 6.4 14.933t14.933 6.4h724.907q8.96 0 15.147-6.4t6.187-14.933v-85.333q0-8.96-6.187-15.147t-15.147-6.187h-724.907q-8.533 0-14.933 6.187t-6.4 15.147zM427.093 693.333v85.333q0 8.533 6.4 14.933t14.933 6.4h554.24q8.96 0 15.147-6.4t6.187-14.933v-85.333q0-8.96-6.187-15.147t-15.147-6.187h-554.24q-8.533 0-14.933 6.187t-6.4 15.147z" />
<glyph unicode="&#xe809;" glyph-name="allergy" d="M651.756 846.272c-0.007 0-0.015 0-0.023 0-74.15 0-134.263-61.475-134.278-137.314 0-0.012 0-0.025 0-0.037 0-75.852 60.118-137.342 134.278-137.342 0.008 0 0.016 0 0.025 0 0.006 0 0.014 0 0.022 0 74.16 0 134.278 61.49 134.278 137.342 0 0.013 0 0.025 0 0.038-0.015 75.838-60.127 137.313-134.278 137.313-0.008 0-0.016 0-0.025 0zM124.144 680.804c-68.563-0.001-124.144-55.385-124.144-123.706 0-0.001 0-0.002 0-0.004s0-0.002 0-0.003c0-68.32 55.581-123.705 124.144-123.706 68.563 0.001 124.144 55.385 124.144 123.706 0 0.001 0 0.002 0 0.004s0 0.002 0 0.003c0 68.32-55.581 123.705-124.144 123.706zM499.523 501.040c-104.332-0.002-188.909-78.266-188.912-174.81 0.003-96.545 84.58-174.808 188.912-174.811 104.332 0.002 188.909 78.266 188.912 174.81-0.003 96.545-84.58 174.808-188.912 174.811zM898.915 430.188c0 0-0.001 0-0.002 0-69.081 0-125.083-54.657-125.083-122.079s56.002-122.079 125.083-122.079c0.001 0 0.001 0 0.002 0s0.001 0 0.002 0c69.081 0 125.083 54.657 125.083 122.079s-56.002 122.079-125.083 122.079c-0.001 0-0.001 0-0.002 0zM166.591 190.043c0 0 0 0 0 0-72.822 0-131.856-57.957-131.856-129.45 0-0.010 0-0.019 0-0.029 0.020-71.477 59.046-129.413 131.856-129.413 0 0 0 0 0 0s0 0 0 0c72.809 0 131.835 57.937 131.856 129.413 0 0.010 0 0.020 0 0.029 0 71.493-59.034 129.45-131.856 129.45 0 0 0 0 0 0zM693.388 56.302c-0.010 0-0.022 0-0.034 0-59.194 0-107.181-44.448-107.181-99.278 0-0.014 0-0.028 0-0.043 0.014-54.818 47.995-99.253 107.181-99.253 0.012 0 0.024 0 0.036 0 59.172 0.015 107.137 44.445 107.151 99.254 0 0.013 0 0.027 0 0.042 0 54.82-47.97 99.263-107.151 99.278z" />
<glyph unicode="&#xe80a;" glyph-name="anchor" d="M3.845 202.24q-1.28 8.533 4.267 13.867t14.080 4.053l274.768-39.253q8.533-1.28 10.453-6.613t-4.053-11.307l-71.252-71.68q40.959-44.373 88.105-72.533t108.585-40.533v567.467q-35.839 24.747-61.012 64.213t-25.173 83.413q0 70.827 49.706 120.747t120.531 49.92q70.399 0 120.744-50.133t50.346-120.533q0-44.373-24.533-83.84t-59.946-63.787v-567.467q61.012 12.373 107.305 40.32t87.252 72.32l-72.532 71.68q-6.4 6.4-4.48 11.733t10.453 6.613l274.342 38.827q8.96 1.28 14.293-4.053t4.053-13.867l-39.253-274.347q-1.28-8.96-6.613-10.667t-11.306 4.267l-80.212 80.213q-71.679-75.52-167.677-118.4t-203.090-42.88q-107.945 0-204.156 42.453t-167.464 117.973l-78.932-78.933q-6.4-6.4-11.733-4.48t-6.613 10.453zM421.971 693.333q0-37.12 26.453-63.573t63.999-26.453q37.119 0 63.359 26.453t26.24 63.573-26.24 63.573-63.359 26.453q-37.546 0-63.999-26.453t-26.453-63.573z" />
<glyph unicode="&#xe80b;" glyph-name="arrow_diag" d="M9.456 855.055q8.96 8.951 20.901 8.945l366.758-0.186q11.941-0.006 14.71-6.191t-6.191-15.136l-106.67-106.561 213.123-213.34 213.34 213.123-106.562 106.67q-8.525 8.534-5.963 14.929t14.503 6.39l366.758-0.186q11.941-0.006 20.892-8.966t8.945-20.901l-0.186-365.052q-0.007-12.794-6.405-15.349t-15.776 5.979l-105.709 105.816-213.34-213.123 213.123-213.34 106.67 106.561q8.96 8.951 15.143 6.176t6.176-14.716l-0.186-366.758q-0.006-11.941-8.966-20.892t-20.901-8.945l-366.758 0.186q-11.941 0.006-14.71 6.191t6.191 15.136l106.67 106.561-213.123 213.34-213.34-213.123 106.562-106.67q8.951-8.96 6.176-15.143t-14.716-6.176l-366.761 0.188q-11.939 0.005-20.89 8.965t-8.945 20.901l0.186 366.758q0.006 11.941 6.404 14.496t14.923-5.978l106.561-106.67 213.34 213.123-213.123 213.34-106.67-106.561q-8.96-8.951-15.143-6.176t-6.176 14.716l0.186 366.758q0.006 11.941 8.967 20.892z" />
<glyph unicode="&#xe80c;" glyph-name="arrow_e_w" d="M1024 351.951c0 3.968-1.419 7.688-5.166 10.333l-345.122 266.593c-3.527 2.866-6.654 3.389-9.3 2.067s-4.133-3.858-4.133-8.266v-171.529h-296.557v171.529c0 4.409-1.488 6.944-4.133 8.266s-5.773 0.799-9.3-2.067l-345.122-266.593c-3.747-2.645-5.166-6.365-5.166-10.333s1.419-7.467 5.166-10.333l345.122-266.593c3.527-2.645 6.654-3.279 9.3-2.067s4.133 3.637 4.133 8.266v171.529h296.557v-171.529c0-4.629 1.488-7.054 4.133-8.266s5.773-0.579 9.3 2.067l345.122 266.593c3.747 2.866 5.166 6.365 5.166 10.333z" />
<glyph unicode="&#xe80d;" glyph-name="arrow_n_e" d="M18.023 857.365q-8.131-7.893-7.015-20.793l91.477-822.696q1.116-12.899 8.842-15.886t17.212 6.222l233.989 227.154 370.825-381.967q9.172-9.448 22.726-9.399t22.588 8.819l224.954 218.384q9.034 8.77 9.484 22.316t-8.722 22.994l-370.825 381.967 233.989 227.154q9.486 9.209 6.729 17.020t-15.166 9.747l-820.095 115.361q-12.861 1.498-20.992-6.396z" />
<glyph unicode="&#xe80e;" glyph-name="arrow_n_s" d="M512.049 864c-3.968 0-7.688-1.419-10.333-5.166l-266.592-345.122c-2.866-3.527-3.389-6.654-2.067-9.3s3.858-4.133 8.266-4.133h171.528v-296.557h-171.528c-4.409 0-6.944-1.487-8.266-4.133s-0.799-5.773 2.067-9.3l266.592-345.122c2.645-3.747 6.365-5.166 10.333-5.166s7.467 1.419 10.333 5.166l266.592 345.122c2.645 3.527 3.279 6.654 2.067 9.3s-3.637 4.133-8.266 4.133h-171.528v296.557h171.528c4.629 0 7.054 1.487 8.266 4.133s0.579 5.773-2.067 9.3l-266.592 345.122c-2.866 3.747-6.365 5.166-10.333 5.166z" />
<glyph unicode="&#xe80f;" glyph-name="arrow_n_w" d="M1005.977 857.365q8.131-7.893 7.015-20.793l-91.477-822.696q-1.116-12.899-8.842-15.886t-17.212 6.222l-233.989 227.154-370.825-381.967q-9.172-9.448-22.726-9.399t-22.588 8.819l-224.954 218.384q-9.034 8.77-9.484 22.316-0.451 13.546 8.722 22.994l370.825 381.967-233.989 227.154q-9.486 9.209-6.729 17.020t15.166 9.747l820.095 115.361q12.861 1.498 20.992-6.396z" />
<glyph unicode="&#xe810;" glyph-name="arrow_ne_sw" d="M1018.718-148.802c3.88 3.927 6.114 8.997 4.992 15.281l-80.856 601.421c-0.688 6.286-3.272 9.863-7.183 11.141s-7.864 0.224-12.176-4.14l-167.757-169.778-293.519 290.050 167.757 169.778c4.312 4.364 5.318 8.328 3.994 12.224s-4.932 6.437-11.226 7.050l-602.318 73.678c-6.296 1.047-11.339-1.247-15.219-5.174s-5.899-8.779-4.992-15.281l80.856-601.421c0.904-6.068 3.379-9.754 7.183-11.141s7.648-0.442 12.176 4.14l167.757 169.778 293.519-290.050-167.757-169.778c-4.527-4.582-5.426-8.437-3.994-12.225s5.148-6.219 11.226-7.050l602.318-73.678c6.512-0.828 11.339 1.247 15.219 5.174z" />
<glyph unicode="&#xe811;" glyph-name="arrow_s_e" d="M18.023-153.365q-8.131 7.893-7.015 20.793l91.477 822.696q1.116 12.899 8.842 15.886t17.212-6.222l233.989-227.154 370.825 381.967q9.172 9.448 22.726 9.399t22.588-8.819l224.954-218.384q9.034-8.77 9.484-22.316t-8.722-22.994l-370.825-381.967 233.989-227.154q9.486-9.209 6.729-17.020t-15.166-9.747l-820.095-115.361q-12.861-1.498-20.992 6.396z" />
<glyph unicode="&#xe812;" glyph-name="arrow_s_w" d="M1005.977-153.365q8.131 7.893 7.015 20.793l-91.477 822.696q-1.116 12.899-8.842 15.886t-17.212-6.222l-233.989-227.154-370.825 381.967q-9.172 9.448-22.726 9.399t-22.588-8.819l-224.954-218.383q-9.034-8.77-9.484-22.316-0.451-13.546 8.722-22.994l370.825-381.967-233.989-227.154q-9.486-9.209-6.729-17.020t15.166-9.747l820.095-115.361q12.861-1.498 20.992 6.396z" />
<glyph unicode="&#xe813;" glyph-name="arrow_se_nw" d="M5.282-148.802c-3.88 3.927-6.114 8.997-4.992 15.281l80.856 601.421c0.688 6.286 3.272 9.863 7.183 11.141s7.864 0.224 12.176-4.14l167.757-169.778 293.519 290.050-167.757 169.778c-4.312 4.364-5.318 8.328-3.994 12.224s4.932 6.437 11.226 7.050l602.318 73.678c6.296 1.047 11.339-1.247 15.219-5.174s5.898-8.779 4.992-15.281l-80.856-601.421c-0.904-6.068-3.379-9.754-7.183-11.141s-7.648-0.442-12.176 4.14l-167.757 169.778-293.519-290.050 167.757-169.778c4.527-4.582 5.426-8.437 3.994-12.225s-5.148-6.219-11.226-7.050l-602.318-73.678c-6.512-0.828-11.339 1.247-15.219 5.174z" />
<glyph unicode="&#xe814;" glyph-name="arrowrefresh_n" d="M515.766-123.268q-77.44 0-154.668 24.121t-142.819 71.517q-81.248 58.399-133.298 142.611t-68.976 175.831 1.693 188.949 73.208 181.121l1.693 2.539-86.326 62.63q-7.194 5.078-6.136 10.579t9.098 8.040l262.787 81.674q8.463 2.539 14.388-1.904t5.924-12.907l5.078-275.066q0-8.464-5.078-11.214t-11.849 2.327l-84.634 61.361q-53.742-83.789-60.090-181.121t34.911-185.776 122.084-146.843q99.021-71.517 223.009-71.517 74.054 0 144.935 28.776t124.623 82.52q53.319 53.321 81.883 122.722t29.41 142.611q0.846 79.981-29.622 154.672t-99.444 134.782q-20.312 17.774-64.745 47.819-11.002 7.617-11.637 23.063t9.098 29.834l23.697 35.124q9.31 14.388 24.332 19.466t25.602-2.116q11.426-7.617 39.566-28.776t37.874-29.199q57.128-47.396 97.329-115.951t57.974-136.475 17.35-132.243q-0.846-98.177-38.508-190.642t-109.6-164.405q-41.894-41.895-90.558-72.152t-96.482-46.126-90.135-23.063-82.941-7.194z" />
<glyph unicode="&#xe815;" glyph-name="arrowrefresh_s" d="M508.235 827.268q77.44 0 154.668-24.121t142.819-71.517q81.248-58.399 133.298-142.611t68.976-175.831-1.693-188.949-73.208-181.121l-1.693-2.539 86.326-62.63q7.194-5.078 6.136-10.579t-9.098-8.040l-262.787-81.674q-8.463-2.539-14.388 1.904t-5.924 12.907l-5.078 275.066q0 8.464 5.078 11.214t11.849-2.327l84.634-61.361q53.742 83.789 60.090 181.121t-34.911 185.776-122.084 146.843q-99.021 71.517-223.009 71.517-74.054 0-144.935-28.776t-124.623-82.52q-53.319-53.321-81.883-122.722t-29.41-142.611q-0.846-79.981 29.622-154.672t99.444-134.783q20.312-17.774 64.745-47.819 11.002-7.617 11.637-23.063t-9.098-29.834l-23.697-35.124q-9.31-14.388-24.332-19.466t-25.602 2.116q-11.425 7.617-39.566 28.776t-37.874 29.199q-57.128 47.396-97.329 115.951t-57.974 136.475-17.35 132.243q0.846 98.178 38.508 190.642t109.6 164.405q41.894 41.895 90.558 72.152t96.482 46.127 90.135 23.063 82.941 7.194z" />
<glyph unicode="&#xe816;" glyph-name="arrowrefresh_w" d="M987.268 355.765q0-77.44-24.121-154.668t-71.517-142.819q-58.399-81.248-142.611-133.298t-175.831-68.976-188.949 1.693-181.121 73.208l-2.539 1.693-62.63-86.326q-5.078-7.194-10.579-6.136t-8.040 9.098l-81.674 262.787q-2.539 8.463 1.904 14.388t12.907 5.924l275.066 5.078q8.464 0 11.214-5.078t-2.327-11.849l-61.361-84.634q83.789-53.742 181.121-60.090t185.776 34.911 146.843 122.084q71.517 99.021 71.517 223.009 0 74.054-28.776 144.935t-82.52 124.623q-53.321 53.319-122.722 81.883t-142.611 29.41q-79.981 0.846-154.672-29.622t-134.783-99.444q-17.774-20.312-47.819-64.745-7.617-11.002-23.063-11.637t-29.834 9.098l-35.124 23.697q-14.388 9.31-19.466 24.332t2.116 25.602q7.617 11.426 28.776 39.566t29.199 37.874q47.396 57.128 115.951 97.329t136.475 57.974 132.243 17.35q98.178-0.846 190.642-38.508t164.405-109.6q41.895-41.894 72.152-90.558t46.126-96.482 23.063-90.135 7.194-82.941z" />
<glyph unicode="&#xe817;" glyph-name="arrowreturn_e" d="M1023.401 465.93q-1.929 6.215-8.787 8.787l-435.937 161.17q-6.858 2.572-10.073-0.643t-1.5-10.073l53.153-168.457q-72.013-25.719-142.955-40.292t-141.883-15.86-132.453 12.002-114.664 46.508-88.302 84.229q8.573-78.87 62.583-150.24t144.884-121.092 214.111-64.082 270.264 20.789l48.009-153.883q2.143-6.858 6.858-7.716t9.002 5.144l265.334 381.922q4.286 5.572 2.357 11.788z" />
<glyph unicode="&#xe818;" glyph-name="arrowreturn_n" d="M398.070 863.401q-6.215-1.929-8.787-8.787l-161.17-435.937q-2.572-6.858 0.643-10.073t10.073-1.5l168.457 53.152q25.719-72.013 40.293-142.955t15.86-141.883-12.002-132.453-46.508-114.664-84.229-88.302q78.87 8.573 150.24 62.583t121.092 144.884 64.082 214.111-20.789 270.264l153.883 48.009q6.858 2.143 7.716 6.858t-5.144 9.002l-381.922 265.334q-5.572 4.286-11.788 2.358z" />
<glyph unicode="&#xe819;" glyph-name="arrowreturn_s" d="M625.93-159.401q6.215 1.929 8.787 8.787l161.17 435.937q2.572 6.858-0.643 10.073t-10.073 1.5l-168.457-53.152q-25.719 72.013-40.293 142.955t-15.86 141.883 12.002 132.453 46.508 114.664 84.229 88.302q-78.87-8.573-150.24-62.583t-121.092-144.884-64.082-214.111 20.789-270.264l-153.883-48.009q-6.858-2.143-7.716-6.858t5.144-9.002l381.922-265.334q5.572-4.286 11.788-2.357z" />
<glyph unicode="&#xe81a;" glyph-name="arrowreturnthick_e" d="M1024 351.349q0-7.874-7.199-13.272l-481.406-354.982q-7.199-5.399-12.598-2.7t-5.399 11.698v203.361q-21.146 1.8-44.316 4.949t-60.738 11.473-72.886 20.021-77.16 31.944-77.385 45.891-69.961 63.213-58.938 82.109-39.817 104.83-16.197 129.125q15.747-37.793 41.617-68.387t56.914-50.84 67.937-36.218 74.46-23.845 76.485-14.172 74.685-6.974 68.387-2.025 57.814 0v224.957q0 9.448 5.399 12.148t12.598-3.149l480.506-355.882q7.199-5.399 7.199-13.272z" />
<glyph unicode="&#xe81b;" glyph-name="arrowreturnthick_n" d="M512.651 864q7.873 0 13.272-7.199l354.982-481.406q5.399-7.199 2.7-12.598t-11.698-5.399h-203.361q-1.8-21.146-4.949-44.316t-11.473-60.738-20.021-72.886-31.944-77.16-45.891-77.385-63.213-69.961-82.109-58.938-104.83-39.817-129.125-16.197q37.793 15.747 68.387 41.617t50.84 56.914 36.218 67.937 23.845 74.46 14.172 76.485 6.974 74.685 2.025 68.387 0 57.814h-224.957q-9.448 0-12.148 5.399t3.149 12.598l355.882 480.506q5.399 7.199 13.272 7.199z" />
<glyph unicode="&#xe81c;" glyph-name="arrowreturnthick_s" d="M511.349-160q-7.874 0-13.272 7.199l-354.982 481.406q-5.399 7.199-2.699 12.598t11.698 5.399h203.361q1.8 21.146 4.949 44.316t11.473 60.738 20.021 72.886 31.944 77.16 45.891 77.385 63.213 69.961 82.109 58.938 104.83 39.817 129.125 16.197q-37.793-15.747-68.387-41.617t-50.84-56.914-36.218-67.937-23.845-74.46-14.172-76.485-6.974-74.685-2.025-68.387 0-57.814h224.957q9.448 0 12.148-5.399t-3.149-12.598l-355.882-480.506q-5.399-7.199-13.272-7.199z" />
<glyph unicode="&#xe81d;" glyph-name="arrowstop_e" d="M1024 728.671v-753.342h-133.565v753.342zM406.038 727.833q5.343 2.671 12.466-3.116l464.362-359.286q7.569-5.342 7.569-13.356t-7.569-13.802l-464.362-359.285q-7.123-5.342-12.466-2.894t-5.343 11.798v230.619h-377.99q-8.904 0-15.805 6.901t-6.901 15.805v221.715q0 8.904 6.901 15.805t15.805 6.901h377.99v230.619q0 8.904 5.343 11.575z" />
<glyph unicode="&#xe81e;" glyph-name="arrowstop_n" d="M135.329 864h753.342v-133.565h-753.342zM136.167 246.038q-2.671 5.343 3.116 12.466l359.285 464.362q5.343 7.569 13.356 7.569t13.802-7.569l359.285-464.362q5.343-7.123 2.894-12.466t-11.798-5.343h-230.619v-377.99q0-8.904-6.901-15.805t-15.805-6.901h-221.715q-8.904 0-15.805 6.901t-6.901 15.805v377.99h-230.619q-8.904 0-11.575 5.343z" />
<glyph unicode="&#xe81f;" glyph-name="arrowstop_s" d="M135.329-160h753.342v133.565h-753.342zM136.167 457.962q-2.671-5.343 3.116-12.466l359.285-464.362q5.343-7.569 13.356-7.569t13.802 7.569l359.285 464.362q5.343 7.123 2.894 12.466t-11.798 5.343h-230.619v377.99q0 8.904-6.901 15.805t-15.805 6.901h-221.715q-8.904 0-15.805-6.901t-6.901-15.805v-377.99h-230.619q-8.904 0-11.575-5.343z" />
<glyph unicode="&#xe820;" glyph-name="arrowstop_w" d="M0 728.671v-753.342h133.565v753.342zM617.962 727.833q-5.343 2.671-12.466-3.116l-464.362-359.286q-7.569-5.342-7.569-13.356t7.569-13.802l464.362-359.285q7.123-5.342 12.466-2.894t5.343 11.798v230.619h377.99q8.904 0 15.805 6.901t6.901 15.805v221.715q0 8.904-6.901 15.805t-15.805 6.901h-377.99v230.619q0 8.904-5.343 11.575z" />
<glyph unicode="&#xe821;" glyph-name="asterisk" d="M0 428.8v-153.6q0-10.24 7.424-17.92t18.176-7.68h239.104l-154.624-154.624q-7.68-7.68-7.68-18.432t7.68-17.92l108.544-108.544q7.168-7.68 18.176-7.68t18.176 7.68l154.624 154.624v-239.104q0-10.24 7.424-17.92t18.176-7.68h153.6q10.752 0 18.176 7.68t7.424 17.92v239.616l155.136-155.136q7.68-7.68 18.432-7.68t17.92 7.68l108.544 108.544q7.68 7.68 7.68 18.432t-7.68 18.432l-154.112 154.112h238.080q10.752 0 18.176 7.68t7.424 17.92v153.6q0 10.752-7.424 18.176t-18.176 7.424h-238.592l154.624 155.136q7.68 7.168 7.68 18.176t-7.68 18.176l-108.544 108.544q-7.68 7.68-18.432 7.68t-17.92-7.68l-155.136-154.624v238.592q0 10.752-7.424 18.176t-18.176 7.424h-153.6q-10.752 0-18.176-7.424t-7.424-18.176v-238.080l-154.624 154.112q-7.168 7.68-17.92 7.68t-18.432-7.68l-108.544-108.032q-7.168-7.68-7.168-18.432t7.168-18.432l155.136-155.136h-239.616q-10.752 0-18.176-7.424t-7.424-18.176z" />
<glyph unicode="&#xe822;" glyph-name="ax" d="M0 2.778q1.154 3.463 3.463 9.236t10.005 22.704 16.547 32.902 23.281 35.98 29.439 35.403q105.055 102.362 220.501 218.192l4.233-0.77v54.644l149.694 154.312 133.532-136.225q-346.336-344.412-400.98-399.056-24.244-24.244-44.639-58.3t-28.477-55.991l-8.466-21.935zM452.546 620.026l190.485 190.1 380.97-380.97q-1.924-3.078-5.003-8.274t-14.431-21.935-23.859-31.17-32.517-35.98-40.791-36.173-48.679-31.747-55.991-23.089-62.918-10.005-69.46 7.889q0 32.71-3.463 76.964t-6.927 72.346l-3.463 27.707z" />
<glyph unicode="&#xe823;" glyph-name="ban" d="M0 352q0 69.381 18.39 135.837t51.409 122.462 80.457 103.445 103.445 80.457 122.462 51.409 135.837 18.39 135.837-18.39 122.671-51.409 103.445-80.457 80.248-103.445 51.409-122.462 18.39-135.837-18.39-135.837-51.409-122.671-80.248-103.445-103.445-80.248-122.671-51.409-135.837-18.39-135.837 18.39-122.462 51.409-103.445 80.248-80.457 103.445-51.409 122.671-18.39 135.837zM135.837 352q0-108.251 58.514-200.62l518.269 518.269q-92.369 58.514-200.62 58.514-76.487 0-146.077-29.884t-119.954-80.248-80.248-119.954-29.884-146.077zM311.38 34.351q92.369-58.514 200.62-58.514 76.487 0 146.077 29.884t119.954 80.248 80.248 119.954 29.884 146.077q0 108.251-58.514 200.62z" />
<glyph unicode="&#xe824;" glyph-name="bank" d="M0-135.36v42.666q0 8.96 6.187 15.146t15.147 6.187h981.333q8.96 0 15.147-6.187t6.187-15.146v-42.666q0-8.96-6.187-15.147t-15.147-6.187h-981.333q-8.96 0-15.147 6.187t-6.187 15.147zM0 424.422q0 8.533 5.12 19.627t11.52 16.213l478.72 395.090q6.827 5.547 16.64 5.333t16.64-5.76l478.72-394.237q6.4-5.12 11.52-16.427t5.12-19.84q0-9.387-6.4-17.92t-14.933-8.533h-106.667v-341.331h64q8.96 0 15.147-5.973t6.187-14.933v-42.666q0-8.96-6.187-15.36t-15.147-6.4h-896q-8.96 0-15.147 6.4t-6.187 15.36v42.666q0 8.96 6.187 14.933t15.147 5.973h64v341.331h-106.667q-8.533 0-14.933 8.533t-6.4 17.92zM213.333 56.638h85.333v341.331h-85.333v-341.331zM384 56.638h85.333v341.331h-85.333v-341.331zM554.667 56.638h85.333v341.331h-85.333v-341.331zM725.333 56.638h85.333v341.331h-85.333v-341.331z" />
<glyph unicode="&#xe825;" glyph-name="barcode" d="M0-160v85.333h128v-85.333h-128zM0-32v896h85.333v-896h-85.333zM128-32v896h85.333v-896h-85.333zM170.667-160v85.333h85.333v-85.333h-85.333zM298.667-160v85.333h85.333v-85.333h-85.333zM298.667-32v896h170.667v-896h-170.667zM426.667-160v85.333h85.333v-85.333h-85.333zM512-32v896h85.333v-896h-85.333zM554.667-160v85.333h85.333v-85.333h-85.333zM682.667-160v85.333h85.333v-85.333h-85.333zM682.667-32v896h85.333v-896h-85.333zM810.667-32v896h85.333v-896h-85.333zM853.333-160v85.333h170.667v-85.333h-170.667zM938.667-32v896h85.333v-896h-85.333z" />
<glyph unicode="&#xe826;" glyph-name="baseball" d="M0.211-19.211q0 8.879 5.919 14.798l21.14 21.562q6.342 5.919 15.22 5.919t14.798-5.919l21.14-21.14 247.756 247.756q14.375 14.375 32.344 43.125t27.27 46.718 31.709 61.939q20.717 41.856 64.053 104.218t66.167 85.192l256.634 256.634q22.408 22.408 53.694 22.408 31.709 0 53.694-21.985l90.054-90.055q21.985-21.985 21.985-53.694 0-30.864-21.985-53.694l-257.057-256.634q-22.408-22.831-84.77-66.167t-104.641-64.476q-40.588-20.294-61.093-31.075t-48.198-28.327-42.068-31.921l-248.178-247.756 21.14-20.717q5.919-6.342 5.919-15.009t-5.919-15.009l-21.562-21.14q-5.919-6.342-14.798-6.342t-14.798 6.342l-119.65 119.65q-5.919 5.919-5.919 14.798zM741.364 16.304q0 54.963 38.685 93.437t93.648 38.474 93.437-38.474 38.474-93.437-38.474-93.648-93.437-38.685-93.648 38.685-38.685 93.648z" />
<glyph unicode="&#xe827;" glyph-name="basketball" d="M0 374.202q3.625 84.276 34.435 164.021t87.448 146.35l219.299-219.299q-28.998-24.467-56.411-39.873t-58.223-22.428-49.614-9.062-55.958-3.851q-77.027-3.625-120.977-15.858zM2.719 290.379q42.591 14.499 121.883 18.124 31.717 1.359 49.841 2.945t50.067 7.476 56.184 15.405 55.958 28.092 62.074 44.857l55.731-55.278-332.573-332.573q-100.588 117.352-119.165 270.952zM179.427-38.117l332.573 332.573 55.278-55.731q-26.28-30.358-44.857-62.074t-28.092-55.958-15.405-56.184-7.476-50.067-2.945-49.841q-3.625-79.292-18.124-121.883-153.6 18.577-270.952 119.165zM179.427 742.117q66.605 56.637 146.35 87.448t164.021 34.435q-12.234-43.95-15.858-120.977-1.812-37.154-3.851-55.958t-9.062-49.614-22.428-58.223-39.873-56.411zM456.722 465.274q26.28 30.358 44.857 62.074t28.092 55.958 15.405 56.184 7.476 50.067 2.945 49.841q3.625 79.292 18.124 121.883 153.6-18.577 270.952-119.165l-332.573-332.573zM534.202-160q12.234 43.95 15.858 120.977 1.812 36.701 3.851 55.731t9.062 49.614 22.428 57.996 39.873 56.864l219.299-219.299q-66.605-56.637-146.35-87.448t-164.021-34.435zM569.543 352l332.573 332.573q100.588-117.352 119.165-270.952-42.591-14.499-121.883-18.124-31.717-1.359-49.841-2.945t-50.067-7.476-56.184-15.405-55.958-28.092-62.074-44.857zM682.818 238.726q28.998 24.467 56.411 39.873t58.223 22.428 49.614 9.062 55.958 3.851q77.027 3.625 120.977 15.858-3.625-84.276-34.435-164.021t-87.448-146.35z" />
<glyph unicode="&#xe828;" glyph-name="bathrobe" d="M81.92 249.6l204.8 491.52 143.36 81.92q0 1.638 0.205 4.506t2.458 9.83 6.144 12.288 12.288 9.83 19.866 4.506h81.92q18.022 0 28.262-10.24t11.469-20.48l1.229-10.24 143.36-81.92 204.8-491.52h-121.651l-124.109 245.76v-163.84l83.968-405.914-124.928-44.646-122.88 348.16v-389.12l-293.683 15.974 88.883 475.546v163.84l-122.88-245.76h-122.88zM423.117 771.021l88.883-242.893 88.883 242.893q-8.192 6.144-35.226 14.131t-53.658 7.987-53.658-7.987-35.226-14.131zM564.429 229.939q0.41-0.819 0.819-2.048t2.662-5.325 5.325-6.963 8.806-6.963 12.902-5.734 17.613-2.867 23.142 1.638q16.794 2.458 29.286 8.806t17.818 13.312 8.397 13.722 3.482 11.264v4.096z" />
<glyph unicode="&#xe829;" glyph-name="battery_0" d="M51.81 644.571c-28.342 0-51.81-22.276-51.81-48.762v-489.143c0-26.486 23.468-47.238 51.81-47.238h836.571c28.342 0 50.286 20.752 50.286 47.238v99.048c1.563-0.086 4.508 0 6.095 0h3.048c42.338 0 76.19 30.53 76.19 70.095v150.857c0 39.566-33.853 71.619-76.19 71.619h-3.048c-1.572 0-4.547 0.086-6.095 0v97.524c0 26.486-21.944 48.762-50.286 48.762h-836.571zM149.333 547.048h643.048c24.265 0 44.19-19.926 44.19-44.19v-301.714c0-24.265-19.926-44.19-44.19-44.19h-643.048c-24.265 0-44.19 19.926-44.19 44.19v301.714c0 24.265 19.926 44.19 44.19 44.19z" />
<glyph unicode="&#xe82a;" glyph-name="battery_1" d="M51.81 644.571c-28.342 0-51.81-22.276-51.81-48.762v-489.143c0-26.486 23.468-47.238 51.81-47.238h836.571c28.342 0 50.286 20.752 50.286 47.238v99.048c1.563-0.086 4.508 0 6.095 0h3.048c42.338 0 76.19 30.53 76.19 70.095v150.857c0 39.566-33.853 71.619-76.19 71.619h-3.048c-1.572 0-4.547 0.086-6.095 0v97.524c0 26.486-21.944 48.762-50.286 48.762h-836.571zM149.333 547.048h643.048c24.265 0 44.19-19.926 44.19-44.19v-301.714c0-24.265-19.926-44.19-44.19-44.19h-643.048c-24.265 0-44.19 19.926-44.19 44.19v301.714c0 24.265 19.926 44.19 44.19 44.19zM225.524 498.286c-26.5 0-47.238-20.738-47.238-47.238v-198.095c0-26.5 20.738-47.238 47.238-47.238h3.048c26.5 0 47.238 20.738 47.238 47.238v198.095c0 26.5-20.738 47.238-47.238 47.238h-3.048z" />
<glyph unicode="&#xe82b;" glyph-name="battery_2" d="M51.81 644.571c-28.342 0-51.81-22.276-51.81-48.762v-489.143c0-26.486 23.468-47.238 51.81-47.238h836.571c28.342 0 50.286 20.752 50.286 47.238v99.048c1.563-0.086 4.508 0 6.095 0h3.048c42.338 0 76.19 30.53 76.19 70.095v150.857c0 39.566-33.853 71.619-76.19 71.619h-3.048c-1.572 0-4.547 0.086-6.095 0v97.524c0 26.486-21.944 48.762-50.286 48.762h-836.571zM149.333 547.048h643.048c24.265 0 44.19-19.926 44.19-44.19v-301.714c0-24.265-19.926-44.19-44.19-44.19h-643.048c-24.265 0-44.19 19.926-44.19 44.19v301.714c0 24.265 19.926 44.19 44.19 44.19zM225.524 498.286c-26.5 0-47.238-20.738-47.238-47.238v-198.095c0-26.5 20.738-47.238 47.238-47.238h3.048c26.5 0 47.238 20.738 47.238 47.238v198.095c0 26.5-20.738 47.238-47.238 47.238h-3.048zM458.667 498.286c-26.5 0-47.238-20.738-47.238-47.238v-198.095c0-26.5 20.738-47.238 47.238-47.238h1.524c26.5 0 48.762 20.738 48.762 47.238v198.095c0 26.5-22.262 47.238-48.762 47.238h-1.524z" />
<glyph unicode="&#xe82c;" glyph-name="battery_3" d="M51.81 644.571c-28.342 0-51.81-22.276-51.81-48.762v-489.143c0-26.486 23.468-47.238 51.81-47.238h836.571c28.342 0 50.286 20.752 50.286 47.238v99.048c1.563-0.086 4.508 0 6.095 0h3.048c42.338 0 76.19 30.53 76.19 70.095v150.857c0 39.566-33.853 71.619-76.19 71.619h-3.048c-1.572 0-4.547 0.086-6.095 0v97.524c0 26.486-21.944 48.762-50.286 48.762h-836.571zM149.333 547.048h643.048c24.265 0 44.19-19.926 44.19-44.19v-301.714c0-24.265-19.926-44.19-44.19-44.19h-643.048c-24.265 0-44.19 19.926-44.19 44.19v301.714c0 24.265 19.926 44.19 44.19 44.19zM225.524 498.286c-26.5 0-47.238-20.738-47.238-47.238v-198.095c0-26.5 20.738-47.238 47.238-47.238h3.048c26.5 0 47.238 20.738 47.238 47.238v198.095c0 26.5-20.738 47.238-47.238 47.238h-3.048zM458.667 498.286c-26.5 0-47.238-20.738-47.238-47.238v-198.095c0-26.5 20.738-47.238 47.238-47.238h1.524c26.5 0 48.762 20.738 48.762 47.238v198.095c0 26.5-22.262 47.238-48.762 47.238h-1.524zM691.81 498.286c-26.5 0-48.762-20.738-48.762-47.238v-198.095c0-26.5 22.261-47.238 48.762-47.238h1.524c26.5 0 47.238 20.738 47.238 47.238v198.095c0 26.5-20.738 47.238-47.238 47.238h-1.524z" />
<glyph unicode="&#xe82d;" glyph-name="beach_umbrella" d="M6.753 540.221q11.613 26.237 24.516 48.172 51.183 88.603 130.539 150.754t170.324 90.108 190.969 21.936 190.754-49.033l23.226 40q9.032 15.484 26.667 20.215t33.549-4.301q15.484-9.032 20.215-26.667t-4.301-33.549l-23.226-40q82.581-57.205 137.851-140.646t76.56-176.13 7.312-192.475-65.162-188.389q-14.194-24.516-27.527-42.151 3.441 58.065-23.656 109.893t-78.71 81.506q-40.861 23.656-88.173 26.667t-88.173-13.333q-3.441 53.764-31.613 100.646t-76.775 75.269q-48.172 27.957-103.227 29.248t-101.506-22.366q-7.742 45.162-33.549 83.011t-66.237 61.076q-54.624 30.538-113.334 27.312t-107.313-36.774zM158.582-160l287.744 498.068q22.366-4.731 42.151-15.914 19.355-11.613 33.979-27.527l-262.368-454.627h-101.506zM182.668 652.91l14.194-4.731q37.85-12.043 61.076-22.151t44.517-26.022 36.99-36.99 33.334-54.194l6.882-12.903 7.742 12.473q26.237 41.721 56.129 75.915t55.699 55.269 52.904 36.774 46.237 23.226 37.205 11.828 24.731 4.946 9.678 0.645l3.441 16.344q-88.173 39.57-184.087 39.57-81.721 0-158.066-28.602t-137.42-81.936zM692.35 315.273l14.624 0.86q3.871 0 10.753 0.214t9.893 0.214q59.355 0 97.42-17.635t90.538-65.377l10.753-10.323 3.011 14.624q24.946 128.604-23.441 251.186t-155.055 199.141l-12.043-10.753q2.581-3.441 7.527-16.129t10.968-46.022 5.376-72.044-16.129-96.775-47.312-117.85z" />
<glyph unicode="&#xe82e;" glyph-name="beer" d="M23.469 625.452q0 59.958 38.973 102.143t94.22 42.185q32.121 0 59.53-8.994 7.709 29.123 22.699 51.393 36.403 51.821 101.929 51.821 92.936 0 148.183-62.528 39.401 23.983 80.516 23.983 13.276 0 26.125-2.57 56.96-11.992 89.509-65.526 22.27 12.42 49.037 9.208t49.894-14.99 39.615-32.12 18.202-41.757q1.285-14.133 1.285-25.482t-1.285-19.915-2.356-14.347-4.283-11.778-4.925-8.78-5.996-8.78q-9.85-12.42-28.052-24.84t-31.478-18.844l-13.276-6.424v-13.276h111.78q76.233 0 114.349-49.68 17.988-23.983 21.628-60.815t-3.426-79.23-24.198-104.927q-50.965-186.299-220.133-214.136v-90.794q0-35.547-26.125-60.601t-62.1-25.054h-513.929q-35.119 0-59.102 24.84t-23.983 60.815v564.035q0 25.268-10.707 49.894t-21.414 46.253-10.707 39.615zM112.122 623.953q4.711-21.628 13.491-43.47t17.559-51.607 8.78-54.605v-158.033q0-17.131 11.349-30.193t31.478-13.062 31.478 12.848 11.349 29.979v122.486l1.285 5.139q0.857 1.285 2.57-3.426 0.428-0.857 0.428-1.285 11.563-35.975 40.686-35.975 14.99 0 22.699 16.917t9.422 40.044q1.285 22.698 8.994 42.185t25.696 35.118 44.112 19.486q5.996 0.857 39.83 1.927t73.877 2.57 87.796 7.281 85.869 14.775 63.813 26.339 25.696 40.9q0 29.979-26.125 42.399t-56.746 6.852-45.611-21.842q-0.857 2.57-2.57 6.852t-7.709 15.418-12.848 20.343-17.773 17.987-22.913 11.778q-32.121 5.996-60.173-13.919t-43.898-61.029q-23.555 113.492-125.913 109.21-26.125-1.285-44.541-15.204t-26.339-33.191-11.992-38.116-4.069-32.12v-13.276l-3.426 3.426q0 0-9.208 7.923t-14.347 10.921-17.988 10.493-20.771 8.351-22.056 2.784-22.699-4.497q-25.696-11.992-34.476-29.123t-4.069-38.759zM194.779-10.105q0-17.559 12.634-30.193t30.193-12.634 30.193 12.634 12.634 30.193v312.639q0-31.692-23.127-58.459t-62.528-26.767v-227.413zM366.089-10.105q0-17.559 12.634-30.193t30.193-12.634 30.193 12.634 12.634 30.193v495.083q-6.424-0.857-16.703-2.784t-29.337-8.565-23.769-14.775q-15.846-27.409-15.846-85.655v-383.304zM537.399-10.105q0-17.559 12.634-30.193t30.193-12.634 30.193 12.634 12.634 30.193v516.069q-44.112-6.424-85.655-11.563v-504.505zM751.536 103.388q15.846 5.139 29.123 10.707t31.906 17.345 33.191 26.125 28.266 37.688 21.414 51.607q42.399 154.606 25.696 176.877-11.992 15.846-46.254 15.846h-123.343v-336.194z" />
<glyph unicode="&#xe82f;" glyph-name="bell" d="M30.295 90.521q0 17.618 12.676 30.295t30.295 12.676h16.329l107.428 128.913 57.151 300.797h0.43q13.321 78.637 68.539 136.433t132.995 74.984l-0.86 1.289-15.47 47.268q-5.586 16.759 3.008 28.791t26.212 12.032h85.942q17.618 0 26.212-12.032t3.008-28.791l-15.47-47.268q-0.86-0.859-0.86-1.289 77.778-17.188 132.995-74.984t68.539-136.433h0.43l57.151-300.797 107.428-128.913h16.329q17.618 0 30.295-12.676t12.676-30.295-11.817-34.807-28.146-23.634q-7.305-3.008-21.271-7.735t-59.73-16.759-94.107-21.486-121.393-16.974-145.242-7.52-144.168 7.305-123.327 17.618-92.388 20.626-61.234 17.618l-20.626 7.305q-16.329 6.446-28.146 23.634t-11.817 34.807zM398.556-81.363q59.3-4.297 113.444-4.297t113.444 4.297q-12.891-34.807-43.83-56.722t-69.613-21.915-69.613 21.915-43.83 56.722z" />
<glyph unicode="&#xe830;" glyph-name="bicycle" d="M0 222.105q0 54.033 26.687 99.83t72.484 72.484 99.83 26.687q16.474 0 35.583-3.295l48.432 134.754h-51.068q-13.508 0-23.228 9.719t-9.719 23.228 9.719 23.228 23.228 9.719h87.969q22.734 0 34.265-13.838t5.272-34.594l-18.121-50.409h291.583l40.196 98.841h-45.797q-13.508 0-23.228 5.272t-9.719 12.19 9.719 13.673 22.898 9.060l132.448 21.745q13.508 2.306 23.063-6.095t9.555-21.91q0-13.838-9.719-23.887t-23.228-10.049h-17.462q-0.988-7.248-0.988-7.578l-40.855-110.043 55.022-92.581q34.595 12.849 70.178 12.849 54.033 0 99.83-26.687t72.484-72.484 26.687-99.83-26.687-99.83-72.484-72.484-99.83-26.687q-73.472 0-128.988 47.773t-67.048 119.269h-67.542q-13.179 0-23.393 9.555l-229.313 229.641-12.19-33.936q46.126-26.028 73.802-72.319t27.676-100.983q0-54.033-26.687-99.83t-72.484-72.484-99.83-26.687-99.83 26.687-72.484 72.484-26.687 99.83zM65.894 222.105q0-55.022 39.042-94.064t94.064-39.042 94.064 39.042 39.042 94.064q0 33.606-15.65 62.599t-42.667 47.444l-43.82-121.245q-3.624-9.884-12.19-15.815t-18.78-5.93q-5.931 0-11.202 1.977-12.849 4.612-18.615 16.968t-1.153 25.205l43.49 120.586q-1.647 0-5.931 0.659t-6.589 0.659q-55.022 0-94.064-39.042t-39.042-94.064zM377.246 453.723l170.996-170.996 63.588 170.996h-234.584zM608.535 256.040h20.757q5.93 35.253 23.722 65.894t44.808 53.045l-27.676 46.785zM696.175 190.146q10.873-44.149 46.785-72.648t82.039-28.499q55.022 0 94.064 39.042t39.042 94.064-39.042 94.064-94.064 39.042q-15.485 0-35.254-5.272l61.611-103.454q1.318-2.636 3.954-11.202t2.636-12.19q0-13.508-9.719-23.228t-23.228-9.719h-128.824zM696.834 256.040h72.154l-36.571 61.282q-26.028-25.040-35.583-61.282z" />
<glyph unicode="&#xe831;" glyph-name="bin" d="M146.286 662.857v36.571q0 7.68 5.303 12.983t12.983 5.303h201.143v73.143q0 29.989 21.577 51.566t51.566 21.577h146.286q29.989 0 51.566-21.577t21.577-51.566v-73.143h201.143q7.68 0 12.983-5.303t5.303-12.983v-36.571q0-7.68-5.303-12.983t-12.983-5.303h-694.857q-7.68 0-12.983 5.303t-5.303 12.983zM182.857-147.931v737.646q0 9.143 4.023 13.714t14.263 4.571h614.4q25.6 0 25.6-14.994v-734.72q0-8.411-7.314-13.349t-18.286-4.937h-614.4q-6.217 0-10.789 2.926t-6.034 5.851zM292.571-32q0-7.68 5.303-12.983t12.983-5.303h36.571q7.68 0 12.983 5.303t5.303 12.983v512q0 7.68-5.303 12.983t-12.983 5.303h-36.571q-7.68 0-12.983-5.303t-5.303-12.983v-512zM438.857 717.714h146.286v73.143h-146.286v-73.143zM475.429-32q0-7.68 5.303-12.983t12.983-5.303h36.571q7.68 0 12.983 5.303t5.303 12.983v512q0 7.68-5.303 12.983t-12.983 5.303h-36.571q-7.68 0-12.983-5.303t-5.303-12.983v-512zM658.286-32q0-7.68 5.303-12.983t12.983-5.303h36.571q7.68 0 12.983 5.303t5.303 12.983v512q0 7.68-5.303 12.983t-12.983 5.303h-36.571q-7.68 0-12.983-5.303t-5.303-12.983v-512z" />
<glyph unicode="&#xe832;" glyph-name="binoculars" d="M0-160v42.667h384v-42.667h-384zM0-74.667v128l85.333 298.667 128 384h42.667v128l170.667-42.667v-85.333h42.667v42.667h85.333v-42.667h42.667v85.333l170.667 42.667v-128h42.667l128-384 85.333-298.667v-128h-384v128l42.667 298.667h-341.333l42.667-298.667v-128h-384zM384 437.333h42.667v213.333h-42.667v-213.333zM597.333 437.333h42.667v213.333h-42.667v-213.333zM640-160v42.667h384v-42.667h-384z" />
<glyph unicode="&#xe833;" glyph-name="birthday_cake" d="M47.682-4.989v67.505l3.215 1.071q11.787 3.572 33.217 13.572t31.788 13.572q2.857-8.929 6.786-34.11t11.072-42.146 21.787-26.252q9.644-6.072 20.359-6.786t20.001 2.5 20.001 9.822 18.573 13.215 17.858 14.465 16.073 11.787q4.643-8.215 11.072-24.466t11.251-28.038 14.465-23.394 22.144-16.251q10.358-2.857 18.394-3.214t16.787 4.107 15.358 9.465 14.465 13.037 13.394 14.644 12.322 14.287 11.787 12.322q5.358-6.429 12.679-18.751t13.751-22.144 14.465-19.823 18.573-15.537 22.68-5.536q11.787 0 22.323 5.536t18.751 15.358 14.465 19.644 13.751 22.323 12.501 18.93q7.143-6.429 19.823-21.073t21.787-24.466 23.573-16.965 29.109-4.643q11.787 2.143 21.251 9.286t16.073 18.394 11.072 21.966 9.644 24.287 9.108 20.716l26.073-19.287q10.358-8.215 18.394-13.572t20.001-11.251 21.609-7.143 20.359 2.679 18.93 14.644q8.929 11.429 13.394 26.609t7.679 35.181 6.072 29.645q10.001-3.214 27.145-10.179t29.288-12.322l12.144-5.715v-67.505q0-17.144-9.822-33.038t-22.859-26.609-33.395-21.251-33.752-15.715-31.609-11.608q-137.51-46.789-332.88-46.789-188.585 0-323.951 43.932-15.358 5-27.145 9.286t-29.824 12.144-31.252 16.43-25.895 19.466-19.466 24.823-6.786 28.931zM47.682 123.591v168.94h2.143q7.858 28.216 43.932 53.575t96.792 45.003v44.289q15.715 30.359 35.717 43.574v117.151q0 7.143 5.179 12.501t12.679 5.358h35.717q7.501 0 12.679-5.358t5.179-12.501v-85.72q28.216 7.858 35.717 9.644v147.51q0 7.143 5.179 12.501t12.679 5.358h35.717q7.501 0 12.679-5.358t5.179-12.501v-135.724q32.145 3.929 71.434 5.715v58.576q0 7.143 5.179 12.501t12.679 5.358h35.717q7.501 0 12.679-5.358t5.179-12.501v-58.576q39.288-1.786 71.434-5.715v135.724q0 7.143 5.179 12.501t12.679 5.358h35.717q7.501 0 12.679-5.358t5.179-12.501v-147.51q7.501-1.786 35.717-9.644v85.72q0 7.143 5.179 12.501t12.679 5.358h35.717q7.501 0 12.679-5.358t5.179-12.501v-117.151q8.929-5.715 17.858-16.608t13.572-19.108l4.286-7.858v-48.575q127.866-46.789 140.724-94.292h2.143v-169.298q-2.5 1.071-16.43 7.679t-19.823 9.108-18.573 6.072-20.359 3.036-17.323-4.107-16.787-11.787q-9.286-10.715-14.287-25.359t-8.393-36.61-5.179-28.752q-6.072 3.929-15.537 11.251t-16.965 13.572-17.501 12.501-18.573 9.465-18.93 3.214-20.001-4.643q-11.072-5.358-20.001-16.787t-13.394-21.787-10.715-26.609-9.465-23.394q-6.429 6.072-18.751 20.18t-20.716 22.68-21.966 15.894-27.859 7.322q-11.072-1.071-20.716-6.608t-17.68-15.18-13.751-18.573-12.858-21.251-11.429-18.394q-3.929 5-18.394 29.466t-27.68 36.788-30.716 13.751q-11.072 1.071-21.787-2.679t-20.18-11.965-16.608-16.073-16.43-18.93-14.287-16.43q-3.929 7.501-12.322 30.002t-17.858 36.967-23.752 21.609q-9.644 4.643-19.823 4.643t-18.93-3.214-18.93-9.465-17.323-12.144-16.787-13.751-15.358-11.787q-2.5 8.929-5.715 29.466t-8.215 35.717-14.287 25.895q-23.93 26.788-109.293-9.644zM101.614 271.816q1.429-3.929 3.929-7.679t6.786-7.143 7.501-5.893 9.286-5.715 8.572-4.465 9.286-4.286 7.501-3.393q75.005-35.002 164.297-48.039t193.228-13.037q225.73 0 357.525 61.433 0.714 0.357 6.608 3.036l7.858 3.572q0 0 7.501 3.929t8.215 4.822 7.322 4.822 6.965 5.715 4.822 6.072 3.572 6.965q1.429 4.643-5.536 11.608t-19.644 14.108-23.93 13.037-23.037 11.251-12.501 5.715h-18.216q-14.287-12.858-35.717-23.394t-37.681-15.894-41.253-12.144q-91.792-24.645-192.871-24.645t-192.871 24.645q-25.002 6.786-41.253 12.144t-37.681 15.894-35.717 23.394h-18.216q-1.072-0.714-12.501-5.893t-23.037-11.251-23.93-13.215-19.466-14.108-5.715-11.965zM226.266 685.416q0 1.429 0.179 4.286t2.143 12.858 5.358 21.43 10.715 30.002 17.323 38.574q15.715-31.788 24.645-58.576t10.001-37.86l1.071-10.715q0-14.644-10.536-25.18t-25.18-10.536-25.18 10.536-10.536 25.18zM232.695 440.042q-10.001-10.358 0.714-21.787t34.467-20.359 40.003-13.93 28.038-7.858q79.648-19.287 176.084-19.287t176.441 19.287q12.144 2.857 28.038 7.858t39.824 13.93 34.467 20.359 0.536 21.787q-4.643-4.643-11.429-4.643h-35.717q-7.501 0-12.679 5.179t-5.179 12.679v20.001q-12.858 4.286-35.717 10.001v-30.002q0-7.501-5.179-12.679t-12.679-5.179h-35.717q-7.501 0-12.679 5.179t-5.179 12.679v42.86q-30.716 3.929-71.434 5.715v-84.292q0-7.501-5.179-12.679t-12.679-5.179h-35.717q-7.501 0-12.679 5.179t-5.179 12.679v84.292q-40.717-1.786-71.434-5.715v-7.143q0-7.501-5.179-12.679t-12.679-5.179h-35.717q-12.501 0-16.787 12.501-17.501-4.286-36.788-10.358v-20.001q0-7.501-5.179-12.679t-12.679-5.179h-35.717q-2.143 0-5 1.071t-4.643 2.5zM333.416 756.85q0 1.429 0.179 4.286t2.143 12.858 5.358 21.43 10.715 30.002 17.323 38.574q15.715-31.788 24.645-58.576t10.001-37.86l1.072-10.715q0-14.644-10.536-25.18t-25.18-10.536-25.18 10.536-10.536 25.18zM476.283 685.416q0 1.429 0.179 4.286t2.143 12.858 5.358 21.43 10.715 30.002 17.323 38.574q15.715-31.788 24.645-58.576t10.001-37.86l1.071-10.715q0-14.644-10.536-25.18t-25.18-10.536-25.18 10.536-10.536 25.18zM619.15 756.85q0 1.429 0.179 4.286t2.143 12.858 5.358 21.43 10.715 30.002 17.323 38.574q15.715-31.788 24.645-58.576t10.001-37.86l1.071-10.715q0-14.644-10.536-25.18t-25.18-10.536-25.18 10.536-10.536 25.18zM726.301 685.416q0 1.429 0.179 4.286t2.143 12.858 5.358 21.43 10.715 30.002 17.323 38.574q15.715-31.788 24.645-58.576t10.001-37.86l1.071-10.715q0-14.644-10.536-25.18t-25.18-10.536-25.18 10.536-10.536 25.18z" />
<glyph unicode="&#xe834;" glyph-name="blacksmith" d="M22.261 374.261q0-4.452 0.668-12.466t6.456-30.052 15.805-41.628 32.278-42.073 52.090-36.285q54.317-24.932 116.647-40.070t97.503-17.363l34.727-2.671q0.445-2.671 1.336-7.791t2.671-20.257 2.671-29.83 0.224-34.727q-0.668-20.035-3.784-37.398t-9.795-34.95-17.141-29.83-27.158-20.035-38.066-7.791q-18.254 0-31.388-13.134t-13.134-31.388v-44.522h534.261v44.522q0 18.254-13.134 31.388t-31.388 13.134q-3.562 0-10.017 0.891t-22.261 8.459q-15.807 7.569-28.050 20.257t-22.261 40.292-10.017 65.002q0 30.72 3.562 54.762t13.357 48.306 26.49 42.073 43.854 33.837 64.779 25.823 89.711 15.583 117.983 5.788v128.668h-623.304v-44.522h-356.174zM111.304 418.783v311.652l133.565 133.565h44.522v-178.087h712.348v-133.565h-712.348v-133.565h-178.087z" />
<glyph unicode="&#xe835;" glyph-name="blog" d="M44.522-48.696q0 8.904 6.678 15.583t15.583 6.678h22.261v44.522h-22.261q-8.904 0-15.583 6.456t-6.678 15.805q0 8.904 6.678 15.583t15.583 6.678h22.261v44.522h-22.261q-8.904 0-15.583 6.456t-6.678 15.805q0 8.904 6.678 15.583t15.583 6.678h22.261v44.522h-22.261q-8.904 0-15.583 6.456t-6.678 15.805q0 8.904 6.678 15.583t15.583 6.678h22.261v44.522h-22.261q-8.904 0-15.583 6.456t-6.678 15.805q0 8.904 6.678 15.583t15.583 6.678h22.261v44.522h-22.261q-8.904 0-15.583 6.456t-6.678 15.805q0 8.904 6.678 15.583t15.583 6.678h22.261v44.522h-22.261q-8.904 0-15.583 6.456t-6.678 15.805q0 8.904 6.678 15.583t15.583 6.678h22.261v44.522h-22.261q-8.904 0-15.583 6.456t-6.678 15.805q0 8.904 6.678 15.583t15.583 6.678h22.261v44.522h-22.261q-8.904 0-15.583 6.456t-6.678 15.805q0 8.904 6.678 15.583t15.583 6.678h22.261v100.174l111.304 77.913h601.044q82.81 0 130.449-48.083t47.638-130.003v-578.783l-44.522-89.043v667.826q0 59.659-36.953 96.612t-96.612 36.953h-572.995l-62.33-44.522h590.803q55.207 0 94.386-39.179t39.179-94.386v-667.826q0-55.207-39.179-94.386t-94.386-39.179h-667.826v89.043h-22.261q-8.904 0-15.583 6.456t-6.678 15.805z" />
<glyph unicode="&#xe836;" glyph-name="bluetooth" d="M223.375 146.243l213.152 204.017v8.7l-203.582 198.797 73.516 75.256 130.066-127.456v358.443l364.099-310.593-208.802-199.667 208.367-203.582-363.664-310.158v365.404l-140.941-134.851zM541.363 67.072l103.531 88.306-103.531 100.921v-189.227zM541.363 450.746l103.096 98.311-103.096 87.436v-185.747z" />
<glyph unicode="&#xe837;" glyph-name="boat" d="M32.283 279.893q5.12 15.787 21.333 22.613l418.988 174.080q15.787 6.827 39.040 6.827t39.467-6.827l418.988-174.080q16.213-7.253 21.547-22.827t-4.053-30.507l-240.641-372.48q-4.693-8.107-7.253-11.733t-8.107-9.6-11.52-8.533-15.573-4.693-21.973-2.133q-18.773 0-61.44 42.453t-75.947 84.693l-33.28 42.667q-5.12-6.827-14.080-18.347t-33.28-40.747-45.227-51.627-43.52-40.747-34.56-18.347q-12.373 0-21.973 2.133t-15.573 4.693-11.52 8.533-8.107 9.6-7.253 11.733l-240.641 372.48q-8.96 14.933-3.84 30.72zM127.857 405.76v159.573q0 17.493 11.52 34.987t27.733 24.32l97.28 41.813 67.414 135.68q3.84 8.107 13.013 13.653t17.707 5.547h64v21.333q0 8.96 6.4 15.147t14.933 6.187h128q8.96 0 15.147-6.187t6.187-15.147v-21.333h64q8.96 0 17.92-5.547t12.8-13.653l66.987-135.253 97.707-42.24q16.213-6.827 27.733-24.32t11.52-34.987v-159.573l-384.001 159.573zM170.524 469.76l301.228 125.013q-2.56 8.533-2.56 13.227v84.907q-6.827-0.427-34.56-5.973t-30.72-6.827l-220.161-94.72q-4.267-2.133-8.747-8.747t-4.48-11.307v-95.573zM551.965 594.773l301.228-125.013v95.573q0 4.693-4.48 11.52t-8.747 8.533l-220.161 94.72q-2.133 0.853-31.147 6.4t-34.133 5.973v-84.48q0-4.693-2.56-13.227z" />
<glyph unicode="&#xe838;" glyph-name="bold" d="M111.573-160v75.947q34.987 5.547 60.16 27.52t25.173 55.68v706.133q0 15.36-0.213 22.187t-1.28 17.28-2.987 14.72-6.187 11.093-10.027 9.813-15.36 7.68-21.12 7.893-28.16 7.040v61.013h467.627q48.64 0 97.707-19.2t89.6-53.12 66.133-85.973 25.6-112.213q0-34.133-10.453-64.64t-27.307-52.053-37.12-39.68-40.533-29.653-37.12-19.413-27.52-11.307l-10.24-3.413q5.12-1.28 13.867-3.84t34.133-12.8 48.64-23.253 51.413-35.84 48.427-49.28 34.133-65.067 13.867-82.133q0-52.907-22.187-97.493t-57.6-74.027-80.213-50.347-89.173-30.080-85.76-9.173h-465.92zM410.24-32h127.573q72.107 0 113.707 40.96t41.6 114.773q0 38.4-9.387 71.467t-28.16 58.88-49.28 40.533-69.76 14.72h-126.293v-341.333zM410.24 437.333h126.293q24.747 0 44.16 8.533t31.787 22.613 20.48 33.707 11.307 40.32 3.2 44.16q0 29.867-5.547 55.040t-17.707 47.147-34.56 34.56-53.12 12.587h-126.293v-298.667z" />
<glyph unicode="&#xe839;" glyph-name="bomb" d="M0 216.123q0 55.926 20.283 110.080t53.76 96.886 75.422 75.618 86.843 51.397v95.311h98.462q0 59.077 28.554 99.84t76.603 50.609q51.2 10.634 98.265-16.738t70.695-82.511q20.874-48.443 57.502-58.683 31.114-8.665 75.225 9.058l-68.135 20.086 102.4 30.326-51.2 93.735 93.735-51.2 30.326 102.4 29.932-102.4 94.129 51.2-51.2-93.735 102.4-30.326-102.4-29.932 51.2-94.129-94.129 51.2-29.932-102.4-30.326 102.4-93.735-51.2 38.597 70.105q-39.385-17.723-74.831-17.723-16.935 0-32.689 3.938-55.532 15.36-83.102 80.738-20.086 46.474-55.138 65.378t-69.711 11.815q-11.422-2.363-21.268-6.695t-19.889-12.997-16.935-20.677-11.225-30.326-4.332-41.157h98.462v-95.311q115.003-35.84 175.655-125.243t60.652-208.738q0-72.074-28.16-137.649t-75.618-113.034-113.034-75.618-137.649-28.16-137.649 28.16-113.034 75.618-75.618 113.034-28.16 137.649z" />
<glyph unicode="&#xe83a;" glyph-name="book" d="M42.667-160v864l149.333 160h618.667q41.813 0 81.493-24.747t64.427-64.427 24.747-81.493v-640l-85.333-85.333v682.667q0 128-128 128h-523.52l-85.333-85.333h523.52q52.907 0 90.453-37.547t37.547-90.453v-597.333q0-52.907-37.547-90.453t-90.453-37.547h-640z" />
<glyph unicode="&#xe83b;" glyph-name="book_open" d="M0 8.96v670.293l42.667 22.613v56.32q3.84 2.133 11.307 5.973t32.427 13.653 51.627 17.28 67.413 13.653 82.133 6.187 79.573-5.547 63.36-13.44 44.587-15.573 28.373-13.227l8.533-5.547q2.987 2.133 9.173 5.76t27.52 12.8 45.227 16.213 62.507 12.8 80 5.76 81.707-5.76 68.48-14.293 50.56-16.853 33.067-13.867l11.093-5.973v-56.32l42.667-22.613v-670.293q-42.667 20.48-128 38.827v-158.72l-62.72 85.76-65.28-85.76v184.32q-21.333 2.987-42.667 2.987-46.933 0-100.267-9.387t-83.2-18.773l-29.867-9.387q-11.947 4.267-32.853 10.453t-77.227 16.64-103.253 10.453-121.6-16.853-125.867-33.493zM128 179.2q3.84 1.28 29.653 9.387t37.76 10.88 41.173 6.187 62.933 3.413q69.973 0 169.813-29.013v510.72q-67.84 48.213-169.813 48.213-54.613 0-97.493-7.467t-58.667-15.147l-15.36-7.253v-529.92zM554.667 180.053q99.84 29.013 169.813 29.013 33.707 0 62.933-3.413t41.173-6.187 37.76-10.88 29.653-9.387v529.92q-2.133 1.28-5.973 3.2t-18.773 7.040-32.853 9.173-48.64 7.253-65.28 3.2q-101.973 0-169.813-48.213v-510.72z" />
<glyph unicode="&#xe83c;" glyph-name="bookmark" d="M187.154-148.631v990.975q0 8.662 6.497 15.159t15.159 6.497h606.378q9.096 0 15.376-6.28t6.28-15.376v-980.147q0-13.86-8.446-16.892t-14.51 4.331l-299.291 267.234-307.087-271.998q-6.064-6.497-13.21-4.331t-7.147 10.828z" />
<glyph unicode="&#xe83d;" glyph-name="bowling" d="M0 352q0 104.22 40.505 198.884t109.227 163.385 163.385 109.227 198.884 40.505 198.884-40.505 163.385-109.227 109.227-163.385 40.505-198.884-40.505-198.884-109.227-163.385-163.385-109.227-198.884-40.505-198.884 40.505-163.385 109.227-109.227 163.385-40.505 198.884zM498.347 511.289q0-33.678 24.121-57.799t57.799-24.121 57.799 24.121 24.121 57.799-24.121 57.799-57.799 24.121-57.799-24.121-24.121-57.799zM634.88 647.822q0-33.678 24.121-57.799t57.799-24.121 57.799 24.121 24.121 57.799-24.121 57.799-57.799 24.121-57.799-24.121-24.121-57.799zM771.413 420.267q0-33.678 24.121-57.799t57.799-24.121 57.799 24.121 24.121 57.799-24.121 57.799-57.799 24.121-57.799-24.121-24.121-57.799z" />
<glyph unicode="&#xe83e;" glyph-name="briefcase" d="M0-10.667v298.667l130.56-85.333h296.107v-42.667h170.667v42.667h298.667l128 85.333v-298.667q0-34.987-25.173-60.16t-60.16-25.173h-853.333q-34.987 0-60.16 25.173t-25.173 60.16zM0 352v192q0 34.987 25.173 60.16t60.16 25.173h128v42.667h85.333q0 52.907 37.547 90.453t90.453 37.547h170.667q52.907 0 90.453-37.547t37.547-90.453h85.333v-42.667h128q34.987 0 60.16-25.173t25.173-60.16v-192l-149.333-106.667h-277.333v63.147h-170.667v-63.147h-277.333zM384 629.333h256v42.667q0 17.493-12.587 30.080t-30.080 12.587h-170.667q-17.493 0-30.080-12.587t-12.587-30.080v-42.667z" />
<glyph unicode="&#xe83f;" glyph-name="brightness_increase" d="M0 352q0-19.232 2.137-42.738h159.84q-2.564 21.369-2.564 42.738t2.564 42.738h-159.84q-2.137-23.506-2.137-42.738zM121.376 682.364l113.255-113.255q26.070 34.19 60.26 60.26l-113.255 113.255q-32.908-27.352-60.26-60.26zM121.376 21.636q27.352-32.908 60.26-60.26l113.255 113.255q-34.19 26.070-60.26 60.26zM255.573 352q0-69.663 34.404-128.641t93.382-93.382 128.641-34.404 128.641 34.404 93.382 93.382 34.404 128.641-34.404 128.641-93.382 93.382-128.641 34.404-128.641-34.404-93.382-93.382-34.404-128.641zM344.895 352q0 69.235 48.935 118.17t118.17 48.935 118.17-48.935 48.935-118.17-48.935-118.17-118.17-48.935-118.17 48.935-48.935 118.17zM469.262 861.863v-159.84q24.788 2.992 42.738 2.992t42.738-2.992v159.84q-23.506 2.137-42.738 2.137t-42.738-2.137zM469.262 1.977v-159.84q23.506-2.137 42.738-2.137t42.738 2.137v159.84q-21.369-2.564-42.738-2.564t-42.738 2.564zM729.109 629.369q34.19-26.070 60.26-60.26l113.255 113.255q-27.352 32.908-60.26 60.26zM729.109 74.631l113.255-113.255q32.908 27.352 60.26 60.26l-113.255 113.255q-26.070-34.19-60.26-60.26zM862.023 394.738q2.992-24.788 2.992-42.738t-2.992-42.738h159.84q2.137 23.506 2.137 42.738t-2.137 42.738h-159.84z" />
<glyph unicode="&#xe840;" glyph-name="brightness_reduce" d="M0 352q0-23.086 2.565-51.303h149.291q-4.104 27.19-4.104 51.303t4.104 51.303h-149.291q-2.565-28.216-2.565-51.303zM115.944 675.719l105.17-105.17q31.295 41.042 72.337 72.337l-105.17 105.17q-41.555-34.373-72.337-72.337zM115.944 28.281q32.834-39.503 72.337-72.337l105.17 105.17q-41.042 31.295-72.337 72.337zM307.303 352q0-84.649 60.024-144.673t144.673-60.024 144.673 60.024 60.024 144.673-60.024 144.673-144.673 60.024-144.673-60.024-60.024-144.673zM411.96 352q0 41.555 29.243 70.798t70.798 29.242 70.798-29.242 29.242-70.798-29.242-70.798-70.798-29.242-70.798 29.242-29.243 70.798zM460.697 861.435v-149.291q27.19 4.104 51.303 4.104t51.303-4.104v149.291q-28.216 2.565-51.303 2.565t-51.303-2.565zM460.697-8.144v-149.291q28.216-2.565 51.303-2.565t51.303 2.565v149.291q-27.19-4.104-51.303-4.104t-51.303 4.104zM730.549 642.886q41.042-31.295 72.337-72.337l105.17 105.17q-32.321 40.016-72.337 72.337zM730.549 61.114l105.17-105.17q37.964 30.782 72.337 72.337l-105.17 105.17q-31.295-41.042-72.337-72.337zM872.144 403.303q4.104-27.19 4.104-51.303t-4.104-51.303h149.291q2.565 28.216 2.565 51.303t-2.565 51.303h-149.291z" />
<glyph unicode="&#xe841;" glyph-name="broken_link_1" d="M681.224 637.708c-14.518-0.365-29.059-2.641-43.246-6.765-28.462-8.273-53.646-23.929-75.698-45.631l-97.021-95.507-11.728-11.673 11.728-12.734 72.499-72.161 12.794-11.673 11.728 11.673 93.823 94.446 2.132 1.061 1.066 1.061c7.606 7.571 14.293 10.685 22.389 11.673 6.707 0.819 12.776-0.391 20.257-6.367 0.479-0.382 0.572-0.641 1.066-1.061l178.049-177.219c4.035-4.016 5.645-8.239 6.397-12.734v-1.061c0.776-5.868 0.971-10.241-1.066-14.857-2.419-5.479-5.898-10.115-10.662-14.857l-56.507-56.243c-8.061-8.202-15.713-12.13-25.588-13.795-9.113-1.537-15.488 0.414-22.389 6.367l-63.97 63.672-11.728-11.673c-25.013-23.63-53.535-39.604-85.293-48.815l-27.72-7.428 20.257-21.224 73.565-72.161c32.118-31.718 72.622-47.496 118.344-45.631 45.756 1.866 87.607 21.159 121.543 55.182l55.441 55.182c33.104 32.949 50.991 74.012 52.242 118.854 1.252 44.85-14.064 84.85-45.845 116.731l-179.116 178.28c-21.116 21.018-46.317 35.497-74.631 42.448-14.101 3.462-28.595 5.008-43.113 4.643zM212.578 620.729c-41.168-1.019-77.005-16.688-107.483-47.024l-55.974-55.713c-30.933-31.015-47.271-67.507-48.977-109.502s11.683-77.263 40.114-105.788l179.116-177.949c19.106-19.017 41.533-31.455 67.235-37.341s51.713-4.853 78.097 3.184c26.384 8.037 49.936 22.377 70.633 42.978l92.090 91.66 0.333 0.729-72.299 71.962-92.823-92.39c-10.235-10.187-22.031-16.373-35.45-18.637s-25.281 0.987-35.517 9.816l-179.116 177.949c-8.87 10.414-12.137 22.326-9.862 35.683s8.556 25.202 18.791 35.616l55.907 55.713c10.008 9.735 21.083 15.394 33.251 16.979s23.733-2.364 34.65-11.872l53.242-52.993c25.702 25.582 55.958 43.574 90.757 53.988l-71.3 70.967c-29.113 28.978-64.249 43.002-105.417 41.983zM681.89 603.683c11.365 0.385 22.658-0.751 33.917-3.515 22.407-5.501 41.544-16.943 58.639-33.958l179.116-177.219c25.991-26.074 37.272-55.674 36.25-92.324-1.023-36.658-14.794-67.785-42.647-95.507l-55.441-55.182c-28.84-28.913-60.597-44.102-98.087-45.631h-1.066c-36.989-1.255-66.912 10.558-92.756 36.081l-56.507 56.243c21.68 9.023 42.261 20.84 60.771 36.081l44.779-44.57v-1.061c13.032-11.242 30.923-16.060 47.977-13.796h2.132c16.964 2.862 32.37 11.782 44.779 24.407l55.441 55.182c7.519 7.484 13.947 16.006 18.125 25.469 4.559 10.326 5.763 22.62 4.265 33.958-1.62 12.258-7.109 22.994-15.992 31.836l-180.182 179.341c-13.342 11.343-30.276 17.627-46.911 15.918h-1.066c-15.22-1.858-28.89-10.303-40.514-21.224v1.061l-2.132-1.061v-1.061h-1.066l-83.161-82.773-49.044 46.692 84.227 83.834v1.061h1.066c18.246 17.755 38.124 29.498 60.771 36.081 11.514 3.347 22.952 5.253 34.317 5.638z" />
<glyph unicode="&#xe842;" glyph-name="broken_link_2" d="M692.556 863.919c-54.593 1.517-101.926-18.351-140.748-56.873l-166.339-166.354 95.254-96.684 167.761 167.776c8.796 8.796 18.33 14.124 29.856 15.64s22.69-1.289 32.699-5.687c10.009-4.398 18.823-10.294 27.012-18.484l75.35-73.935c13.952-13.65 22.558-30.446 25.591-48.342s-2.388-33.271-14.217-46.92l-71.085-71.092c33.969-35.792 57.74-76.475 71.085-122.277l96.676 96.684c38.519 38.825 56.299 86.675 54.025 142.183s-23.24 104.59-65.398 146.449l-75.35 73.935c-40.642 40.645-87.577 62.466-142.17 63.982zM92.598 832.639l-65.398-63.982 904.202-897.175 65.398 63.982-904.202 897.175zM577.398 542.586l-46.916-46.92 236.002-237.446c0.828 22.61-1.588 45.562-8.53 68.248-10.767 35.186-29.268 66.238-56.868 93.841l-123.688 122.277zM257.516 445.901c-1.385-22.724 0.432-45.389 7.108-68.248 10.009-34.276 28.756-65.423 55.446-92.419l127.953-127.965 48.338 48.342-238.846 240.289zM199.226 359.169l-95.254-95.263c-38.822-38.825-56.811-85.86-55.446-140.761s21.913-102.959 62.555-143.605l73.928-73.935c41.552-41.252 91.595-63.129 147.857-65.404s102.533 14.692 140.748 52.608l167.761 167.776-96.676 96.684-166.339-167.776c-13.952-11.83-30.443-15.83-48.338-12.796s-34.386 10.522-48.338 24.171l-73.928 75.357c-13.042 13.346-20.624 27.849-22.747 44.077s2.9 32.361 15.639 46.92l71.085 69.67c-34.272 34.276-58.555 75.869-72.507 122.277z" />
<glyph unicode="&#xe843;" glyph-name="broken_link_3" d="M767.454 845.287c-38.375 20.752-80.237 24.144-121.777 10.676l-232.901-76.525c-27.457-9.022-51.023-24.44-69.415-45.848-18.319-21.324-30.162-46.478-35.391-74.605-5.245-28.213-3.118-57.754 6.089-86.32l40.995-124.772 4.545-16.171 126.154 41.451-4.545 16.171-41.005 122.465-0.911 2.773c-3.25 9.891-3.033 17.032-0.356 24.459 2.359 6.546 6.1 11.125 15.754 15.161l231.98 76.991c5.602 1.841 10.186 1.080 14.764-0.525 5.431-1.903 8.846-4.574 11.962-8.358 3.699-4.492 6.203-9.531 8.239-15.725l24.607-72.556-0.466-0.921c3.599-10.56 3.667-18.892 0.802-28.153-2.644-8.546-5.734-12.741-13.913-16.091l-84.565-27.786 5.010-15.25c9.588-31.969 11.464-62.691 5.594-94.163l-4.733-27.668 120.609 39.629c41.546 13.832 73.384 42.819 91.725 83.131 18.354 40.342 19.415 84.032 4.704 128.267l-23.22 73.011c-14.143 43.045-41.969 76.505-80.336 97.253zM751.64 816.282c31.365-16.961 52.366-42.508 64.265-78.725l23.22-73.011 0.921-0.466c12.502-37.592 10.899-71.219-4.14-104.273-15.052-33.084-38.029-53.053-71.801-64.297l-73.94-25.063c1.716 22.867 0.392 45.46-4.782 68.317l59.612 19.587c16.080 6.587 28.237 19.689 33.38 36.312 4.922 15.908 3.905 33.128-1.634 49.384l-23.22 73.011c-3.212 9.777-8.267 18.146-14.655 25.905l-0.921 0.465c-6.897 8.081-16.048 15.467-26.221 19.033-11.345 3.977-23.522 3.023-35.074-0.772l-232.901-76.525-0.921 0.466-0.466-0.921c-15.987-6.683-28.68-17.969-34.292-33.54-5.032-13.962-3.67-29.474 0.733-44.304l-0.921 0.466-0.466-0.921 0.456-1.386 0.921-0.465-0.465-0.921 35.984-109.522-63.305-20.032-35.063 109.056-0.921 0.466c-7.697 23.88-8.545 46.497-4.317 69.238 4.244 22.827 12.851 41.922 27.479 58.949 14.555 16.942 32.838 28.454 55.066 35.758l232.901 76.525c33.973 11.015 64.129 9.164 95.487-7.794zM142.899 45.686q-1.486 59.765 40.778 102.030l69.009 69.011q15.189-50.52 52.499-87.832l-51.509-51.51q-13.868-15.849-11.556-33.515t16.509-32.194l54.15-54.152q15.189-14.859 34.669-18.161t34.669 9.576l173.017 173.352q12.877 14.859 9.575 34.34t-18.16 34.34l-89.81 89.813 69.999 70.001 0.66-0.33 89.15-89.153q30.047-30.048 41.768-68.35t3.137-75.615-36.32-65.048l-173.017-173.352q-41.603-41.274-102.853-38.798t-106.485 47.383l-54.15 54.152q-44.245 44.246-45.731 104.011z" />
<glyph unicode="&#xe844;" glyph-name="brush" d="M0.162-92.457q-1.244 8.707 7.049 10.78 19.072 6.634 35.243 15.756t27.572 17.622 21.975 21.354 16.585 21.768 13.060 23.841 9.951 22.183 8.707 22.598q9.536 25.293 24.462 43.744t31.304 27.573 30.682 13.061 27.572 3.939q51.827 0.829 82.924-30.268 31.096-30.683 33.999-74.634t-24.048-79.195q-16.585-18.658-32.755-29.439-66.754-44.366-201.090-44.78-44.779 0-104.069 4.976-8.292 0.829-9.122 9.122zM324.809 208.566q58.461 106.975 67.168 118.17 6.219 8.293 31.511 32.756t52.242 48.927q16.17 14.512 139.519 110.914t244.003 189.902 121.069 93.5q9.122 6.634 19.28 7.671t16.792-5.183q14.097-14.098 2.073-30.683-0.415-0.415-91.423-118.792t-189.895-246.292-115.057-147.817q-23.219-29.024-45.608-50.378t-33.999-29.646q-4.975-3.317-34.413-20.939t-56.388-33.378l-27.365-15.756q-6.219-2.488-10.365-0.622t-4.975 6.841q-7.878 29.439-27.365 48.512-17.829 18.244-49.754 27.366-13.268 3.732-7.049 14.927z" />
<glyph unicode="&#xe845;" glyph-name="bug" d="M32.681-72.851q0 17.866 12.854 30.72t30.72 12.854h69.283l87.149 87.149h48.803q-17.43 61.004-25.273 130.723h-113.729l-95.864 97.171q-12.637 13.072-12.419 31.156t12.854 30.72 30.938 12.419 30.502-12.854l70.591-71.462h71.462v27.888q0 47.496 13.072 92.378-6.1 3.486-6.972 4.357l-93.249 88.892v153.382l-36.603 38.346q-12.637 12.637-12.419 30.72t13.29 30.72q13.072 12.201 31.156 11.983t30.72-12.854l61.004-63.619v-151.203l51.854-49.675q36.167 51.854 90.853 80.831t118.74 28.977q63.183 0 117.433-28.323t90.417-78.87l53.597 47.932v149.46l57.518 63.183q12.201 13.508 30.066 14.38t31.374-11.329 14.38-30.066-11.329-31.374l-34.86-38.346v-155.125l-99.786-88.892-1.307-0.871q13.944-44.446 13.944-94.992 0.436-10.458 0-27.888h69.283l71.462 71.462q12.637 12.637 30.72 12.637t30.72-12.637q13.072-12.637 13.072-30.72t-13.072-30.72l-97.171-97.171h-110.679q-7.843-71.898-24.837-130.723h48.368l87.149-87.149h69.283q17.866 0 30.72-12.854t12.854-30.72-12.854-30.72-30.72-12.855h-105.014l-87.149 87.149h-47.060q-67.54-130.723-196.521-130.723t-196.521 130.723h-47.060l-87.149-87.149h-105.014q-17.866 0-30.72 12.854t-12.854 30.72zM381.277 613.447v10.458q0 57.954 45.753 98.043l-40.089 44.010q-5.665 6.536-5.665 14.815v61.44q0 9.151 6.318 15.469t15.469 6.318 15.469-6.318 6.318-15.469v-53.161l40.089-43.574q23.966 9.151 47.060 9.151t47.060-9.151l40.089 43.574v53.161q0 9.151 6.318 15.469t15.469 6.318 15.469-6.318 6.318-15.469v-61.44q0-8.279-5.665-14.815l-40.089-44.010q45.753-40.089 45.753-98.043v-10.458q-62.747 30.066-130.723 30.066t-130.723-30.066z" />
<glyph unicode="&#xe846;" glyph-name="building" d="M39.385-160v39.385h39.385v39.385h39.385v787.692h787.692v-787.692h39.385v-39.385h39.385v-39.385h-393.846v118.154h-157.538v-118.154h-393.846zM118.154 745.846l78.769 78.769h196.923l39.385 39.385h157.538l39.385-39.385h196.923l78.769-78.769h-787.692zM236.308 36.923h157.538v78.769h-157.538v-78.769zM236.308 194.462h157.538v78.769h-157.538v-78.769zM236.308 352h157.538v78.769h-157.538v-78.769zM236.308 509.538h157.538v78.769h-157.538v-78.769zM433.231 36.923h157.538v78.769h-157.538v-78.769zM433.231 194.462h157.538v78.769h-157.538v-78.769zM433.231 352h157.538v78.769h-157.538v-78.769zM433.231 509.538h157.538v78.769h-157.538v-78.769zM630.154 36.923h157.538v78.769h-157.538v-78.769zM630.154 194.462h157.538v78.769h-157.538v-78.769zM630.154 352h157.538v78.769h-157.538v-78.769zM630.154 509.538h157.538v78.769h-157.538v-78.769z" />
<glyph unicode="&#xe847;" glyph-name="bullets" d="M0-100.575v275.48h39.354v-275.48h-39.354zM39.354 214.26h39.354v275.48h-39.354v-275.48zM78.709-100.575h393.543l39.354 39.354v196.772l-39.354 39.354h-393.543v-275.48zM78.709 529.095v275.48h39.354v-275.48h-39.354zM118.063 214.26h393.543l39.354 39.354v196.772l-39.354 39.354h-393.543v-275.48zM157.417 529.095h393.543l39.354 39.354v196.772l-39.354 39.354h-393.543v-275.48zM550.961-61.221h118.063l276.267 98.386-276.267 98.386h-118.063v-196.772zM590.315 253.614h118.063l276.267 98.386-276.267 98.386h-118.063v-196.772zM629.669 568.449h118.063l276.267 98.386-276.267 98.386h-118.063v-196.772z" />
<glyph unicode="&#xe848;" glyph-name="bullhorn" d="M0 352v40.96q0 33.587 24.166 57.754t57.754 24.166v-204.8q-33.587 0-57.754 24.166t-24.166 57.754zM122.88 270.080v204.8q0 16.794 12.083 28.877t28.877 12.083h163.84l573.44 204.8v-696.32l-573.44 204.8h-30.72l38.093-246.17q2.867-16.794-7.373-28.672t-27.443-11.878h-67.994q-16.794 0-31.334 11.878t-17.408 28.262l-47.514 258.048q-13.107 12.288-13.107 29.491zM942.080 24.32v696.32q0 16.794 12.083 28.877t28.877 12.083 28.877-12.083 12.083-28.877v-696.32q0-16.794-12.083-28.877t-28.877-12.083-28.877 12.083-12.083 28.877z" />
<glyph unicode="&#xe849;" glyph-name="buoy" d="M0-75.668v128.002q26.027 0 48.213-4.693t40.747-14.72 28.373-16.64 25.173-18.987q19.2-15.787 30.72-21.334t31.573-5.547q13.653 0 24.533 3.413t17.28 7.893 20.48 15.574q15.36 12.374 25.173 18.987t28.373 16.64 40.533 14.72 48 4.693 48.213-4.693 40.747-14.72 28.373-16.64 25.173-18.987q19.2-15.36 30.933-21.12t31.36-5.76q14.080 0 24.747 3.413t17.28 7.893 20.693 15.574q14.933 11.947 25.173 18.987t28.373 16.854 40.533 14.507 48.427 4.693 48.213-4.907 40.32-14.507 28.587-16.64 24.96-18.987q14.080-11.093 20.693-15.574t17.28-7.893 24.747-3.413v-128.002q-26.027 0-48.427 4.693t-40.533 14.507-28.373 16.854-25.173 18.987q-14.080 11.094-20.48 15.574t-17.28 7.893-24.533 3.413q-14.080 0-24.747-3.413t-17.28-7.893-20.693-15.574q-14.933-11.947-25.173-18.987t-28.373-16.854-40.533-14.507-48.427-4.693-48.213 4.693-40.32 14.507-28.373 16.854-25.173 18.987q-14.080 11.094-20.693 15.574t-17.28 7.893-24.747 3.413q-13.653 0-24.533-3.413t-17.28-7.893-20.48-15.574q-14.933-11.947-25.173-18.987t-28.373-16.854-40.32-14.507-48.213-4.693-48.427 4.693-40.533 14.507-28.373 16.854-25.173 18.987q-19.2 15.36-30.933 21.12t-31.36 5.76zM0 137.668v128.002q26.027 0 48.213-4.693t40.747-14.72 28.373-16.64 25.173-18.987q19.2-15.787 30.72-21.334t31.573-5.547q13.653 0 24.533 3.413t17.28 7.893 20.48 15.574q15.36 12.374 25.173 18.987t28.373 16.64 40.533 14.72 48 4.693 48.213-4.693 40.747-14.72 28.373-16.64 25.173-18.987q19.2-15.36 30.933-21.12t31.36-5.76q14.080 0 24.747 3.413t17.28 7.893 20.693 15.574q14.933 11.947 25.173 18.987t28.373 16.854 40.533 14.507 48.427 4.693 48.213-4.907 40.32-14.507 28.587-16.64 24.96-18.987q14.080-11.093 20.693-15.574t17.28-7.893 24.747-3.413v-128.002q-26.027 0-48.427 4.693t-40.533 14.507-28.373 16.854-25.173 18.987q-14.080 11.093-20.48 15.574t-17.28 7.893-24.533 3.413q-14.080 0-24.747-3.413t-17.28-7.893-20.693-15.574q-14.933-11.947-25.173-18.987t-28.373-16.854-40.533-14.507-48.427-4.693-48.213 4.693-40.32 14.507-28.373 16.854-25.173 18.987q-14.080 11.093-20.693 15.574t-17.28 7.893-24.747 3.413q-13.653 0-24.533-3.413t-17.28-7.893-20.48-15.574q-14.933-11.947-25.173-18.987t-28.373-16.854-40.32-14.507-48.213-4.693-48.427 4.693-40.533 14.507-28.373 16.854-25.173 18.987q-19.2 15.36-30.933 21.12t-31.36 5.76zM300.8 307.057q6.4 67.841 53.76 116.055t114.773 55.467v322.138q0 8.96 6.187 15.147t15.147 6.187 15.147-6.187 6.187-15.147v-322.138q71.253-8.107 119.893-60.588t50.347-124.588q-22.187-13.654-45.653-32.854-1.707-1.28-4.267-3.84t-4.267-4.053-5.12-2.773-7.68-1.28-8.107 1.28-5.547 2.56-5.333 4.267-4.907 3.84q-17.067 13.654-29.653 22.4t-36.267 21.334-53.12 18.987-63.147 6.4q-58.453 0-108.373-22.614zM554.667 608.715v213.336q262.827 37.121 273.493 39.254 8.107 1.28 9.813-3.2t-4.267-10.453z" />
<glyph unicode="&#xe84a;" glyph-name="bus" d="M0 464v128q0 31.68 156.48 88.96l21.12 42.56q6.080 11.84 19.68 20.16t26.72 8.32h576q13.12 0 26.72-8.32t19.68-20.16l21.12-42.24q26.88-9.6 50.88-19.68t49.6-22.56 40.8-24.8 15.2-22.24v-128q0-13.12-9.44-22.56t-22.56-9.44h-32q-13.12 0-22.56 9.44t-9.44 22.56v128q0 10.24-32 27.52v-651.52q0-6.72-4.64-11.36t-11.36-4.64h-64q-6.4 0-11.2 4.64t-4.8 11.36v48h-576v-48q0-6.72-4.64-11.36t-11.36-4.64h-64q-6.4 0-11.2 4.64t-4.8 11.36v651.52q-32-17.28-32-27.52v-128q0-13.44-8.32-22.72t-21.44-9.28h-32q-13.44 0-23.84 9.44t-10.4 22.56zM160 140.8l32-28.8h96v64l-128 32v-67.2zM192 297.28q0-6.72 4.48-12.96t10.56-8.48q4.16-1.6 12.16-4.32t36.48-9.44 60.96-11.84 85.44-9.44 109.92-4.32 109.28 4 86.4 9.76 60 11.68 37.44 10.080l11.84 3.84q6.080 2.24 10.56 8.48t4.48 12.96v310.72q0 6.72-4.64 11.36t-11.36 4.64h-608q-6.72 0-11.36-4.64t-4.64-11.36v-310.72zM416 48h224v64h-224v-64zM736 112h96l32 28.8v67.2l-128-32v-64z" />
<glyph unicode="&#xe84b;" glyph-name="cake" d="M42.667-160v517.973l938.667 158.72v-524.373zM42.667 443.307l384 420.693q191.573 0 267.947-6.827 139.947-12.373 205.227-59.733 78.080-57.173 81.493-183.467v-11.947z" />
<glyph unicode="&#xe84c;" glyph-name="calculator" d="M64-32v768q0 52.907 37.547 90.453t90.453 37.547h640q52.907 0 90.453-37.547t37.547-90.453v-768q0-52.907-37.547-90.453t-90.453-37.547h-640q-52.907 0-90.453 37.547t-37.547 90.453zM192-23.467q0-3.413 2.56-5.973t5.973-2.56h110.933q3.413 0 5.973 2.56t2.56 5.973v68.267q0 3.413-2.56 5.973t-5.973 2.56h-110.933q-3.413 0-5.973-2.56t-2.56-5.973v-68.267zM192 104.533q0-3.413 2.56-5.973t5.973-2.56h110.933q3.413 0 5.973 2.56t2.56 5.973v68.267q0 3.413-2.56 5.973t-5.973 2.56h-110.933q-3.413 0-5.973-2.56t-2.56-5.973v-68.267zM192 232.533q0-3.413 2.56-5.973t5.973-2.56h110.933q3.413 0 5.973 2.56t2.56 5.973v68.267q0 3.413-2.56 5.973t-5.973 2.56h-110.933q-3.413 0-5.973-2.56t-2.56-5.973v-68.267zM192 360.533q0-3.413 2.56-5.973t5.973-2.56h110.933q3.413 0 5.973 2.56t2.56 5.973v68.267q0 3.413-2.56 5.973t-5.973 2.56h-110.933q-3.413 0-5.973-2.56t-2.56-5.973v-68.267zM192 565.333q0-17.493 12.587-30.080t30.080-12.587h554.667q17.493 0 30.080 12.587t12.587 30.080v128q0 17.493-12.587 30.080t-30.080 12.587h-554.667q-17.493 0-30.080-12.587t-12.587-30.080v-128zM362.667-23.467q0-3.413 2.56-5.973t5.973-2.56h110.933q3.413 0 5.973 2.56t2.56 5.973v68.267q0 3.413-2.56 5.973t-5.973 2.56h-110.933q-3.413 0-5.973-2.56t-2.56-5.973v-68.267zM362.667 104.533q0-3.413 2.56-5.973t5.973-2.56h110.933q3.413 0 5.973 2.56t2.56 5.973v68.267q0 3.413-2.56 5.973t-5.973 2.56h-110.933q-3.413 0-5.973-2.56t-2.56-5.973v-68.267zM362.667 232.533q0-3.413 2.56-5.973t5.973-2.56h110.933q3.413 0 5.973 2.56t2.56 5.973v68.267q0 3.413-2.56 5.973t-5.973 2.56h-110.933q-3.413 0-5.973-2.56t-2.56-5.973v-68.267zM362.667 360.533q0-3.413 2.56-5.973t5.973-2.56h110.933q3.413 0 5.973 2.56t2.56 5.973v68.267q0 3.413-2.56 5.973t-5.973 2.56h-110.933q-3.413 0-5.973-2.56t-2.56-5.973v-68.267zM533.333-23.467q0-3.413 2.56-5.973t5.973-2.56h110.933q3.413 0 5.973 2.56t2.56 5.973v68.267q0 3.413-2.56 5.973t-5.973 2.56h-110.933q-3.413 0-5.973-2.56t-2.56-5.973v-68.267zM533.333 104.533q0-3.413 2.56-5.973t5.973-2.56h110.933q3.413 0 5.973 2.56t2.56 5.973v68.267q0 3.413-2.56 5.973t-5.973 2.56h-110.933q-3.413 0-5.973-2.56t-2.56-5.973v-68.267zM533.333 232.533q0-3.413 2.56-5.973t5.973-2.56h110.933q3.413 0 5.973 2.56t2.56 5.973v68.267q0 3.413-2.56 5.973t-5.973 2.56h-110.933q-3.413 0-5.973-2.56t-2.56-5.973v-68.267zM533.333 360.533q0-3.413 2.56-5.973t5.973-2.56h110.933q3.413 0 5.973 2.56t2.56 5.973v68.267q0 3.413-2.56 5.973t-5.973 2.56h-110.933q-3.413 0-5.973-2.56t-2.56-5.973v-68.267zM704-23.467q0-3.413 2.56-5.973t5.973-2.56h110.933q3.413 0 5.973 2.56t2.56 5.973v324.267q0 3.413-2.56 5.973t-5.973 2.56h-110.933q-3.413 0-5.973-2.56t-2.56-5.973v-324.267zM704 360.533q0-3.413 2.56-5.973t5.973-2.56h110.933q3.413 0 5.973 2.56t2.56 5.973v68.267q0 3.413-2.56 5.973t-5.973 2.56h-110.933q-3.413 0-5.973-2.56t-2.56-5.973v-68.267z" />
<glyph unicode="&#xe84d;" glyph-name="calendar" d="M21.333-117.333v682.667h981.333v-682.667q0-17.493-12.587-30.080t-30.080-12.587h-896q-17.493 0-30.080 12.587t-12.587 30.080zM21.333 608v128q0 17.493 12.587 30.080t30.080 12.587h85.333v42.667q0 17.493 12.587 30.080t30.080 12.587h42.667q17.493 0 30.080-12.587t12.587-30.080v-42.667h469.333v42.667q0 17.493 12.587 30.080t30.080 12.587h42.667q17.493 0 30.080-12.587t12.587-30.080v-42.667h85.333q17.493 0 30.080-12.587t12.587-30.080v-128h-981.333zM106.667-74.667h128v128h-128v-128zM106.667 96h128v128h-128v-128zM106.667 266.667h128v128h-128v-128zM277.333-74.667h128v128h-128v-128zM277.333 96h128v128h-128v-128zM277.333 266.667h128v128h-128v-128zM448-74.667h128v128h-128v-128zM448 96h128v128h-128v-128zM448 266.667h128v128h-128v-128zM618.667-74.667h128v128h-128v-128zM618.667 96h128v128h-128v-128zM618.667 266.667h128v128h-128v-128zM789.333-74.667h128v128h-128v-128zM789.333 96h128v128h-128v-128zM789.333 266.667h128v128h-128v-128z" />
<glyph unicode="&#xe84e;" glyph-name="camera" d="M0 92.062v401.723q0 55.138 39.385 94.523t94.523 39.385h134.302q0.394 1.182 1.181 4.332l12.603 30.72q13.785 34.265 49.625 58.683t72.862 24.418h215.040q37.022 0 72.862-24.418t49.625-58.683l12.603-30.72q0.788-3.151 1.181-4.332h134.302q55.138 0 94.523-39.385t39.385-94.523v-401.723q0-55.138-39.385-94.523t-94.523-39.385h-756.185q-55.138 0-94.523 39.385t-39.385 94.523zM305.231 273.231q0-55.926 27.766-103.582t75.422-75.422 103.582-27.766q42.142 0 80.345 16.345t65.969 44.111 44.111 66.166 16.345 80.148-16.345 80.148-44.111 66.166-65.969 44.111-80.345 16.345q-55.926 0-103.582-27.766t-75.422-75.422-27.766-103.582zM403.692 273.231q0 44.898 31.705 76.603t76.603 31.705 76.603-31.705 31.705-76.603-31.705-76.603-76.603-31.705-76.603 31.705-31.705 76.603zM827.077 470.154h78.769v39.385h-78.769v-39.385z" />
<glyph unicode="&#xe84f;" glyph-name="camera_small" d="M42.667 138.667v298.667q0 17.493 12.587 30.080t30.080 12.587h384q17.493 0 30.080-12.587t12.587-30.080h42.667v57.173q-42.667 61.013-42.667 134.827 0 47.787 18.56 91.307t49.92 74.88 74.88 49.92 91.307 18.56 91.307-18.56 74.88-49.92 49.92-74.88 18.56-91.307q0-73.813-42.667-134.827v-533.76q0-49.493-35.627-85.12t-85.12-35.627h-142.507q-49.493 0-85.12 35.627t-35.627 85.12v177.92h-42.667q0-17.493-12.587-30.080t-30.080-12.587h-384q-17.493 0-30.080 12.587t-12.587 30.080zM597.333 629.333q0-61.867 43.733-105.6t105.6-43.733 105.6 43.733 43.733 105.6-43.733 105.6-105.6 43.733-105.6-43.733-43.733-105.6zM640 10.667h42.667v42.667h-42.667v-42.667zM640.853 619.52q19.627-11.52 42.24-11.52 35.413 0 60.16 24.747t24.747 60.16q0 21.76-11.52 42.24 40.96-3.84 68.907-34.133t27.947-71.68q0-44.373-31.147-75.52t-75.52-31.147q-41.387 0-71.68 27.947t-34.133 68.907zM682.667-74.667h42.667v42.667h-42.667v-42.667zM725.333 10.667h42.667v42.667h-42.667v-42.667zM768-74.667h42.667v42.667h-42.667v-42.667zM810.667 10.667h42.667v42.667h-42.667v-42.667z" />
<glyph unicode="&#xe850;" glyph-name="candle" d="M101.744-57.436v41.026q0 8.205 5.949 14.359t14.564 6.154h779.487q8.615 0 14.564-6.154t5.949-14.359v-41.026q0-8.615-5.949-14.564t-14.564-5.949h-61.538l-82.051-82.051h-492.308l-82.051 82.051h-61.538q-8.615 0-14.564 5.949t-5.949 14.564zM306.872 25.436v137.436q0 25.436 11.692 46.564t29.333 30.154v92.718q0 33.641 24.205 57.846t57.846 24.205h205.128q33.641 0 57.846-24.205t24.205-57.846v-306.872h-410.256zM380.718 573.538q2.872 23.385 16 48.615t29.538 50.256 34.256 51.077 31.59 49.641 20.718 47.59 2.461 43.282q59.487-38.564 107.897-114.051 53.333-82.462 60.718-157.128 8.205-84.513-49.231-118.564-28.308-16.41-70.564-18.872 28.308 15.179 34.051 42.872t-6.154 54.359-31.385 49.231-38.359 30.359q-2.872-14.359-12.103-29.949t-19.487-27.282-18.667-25.846-11.487-27.077 3.897-30.154 25.846-35.692q-44.308 13.949-70.564 32.821t-34.051 40-4.923 44.513z" />
<glyph unicode="&#xe851;" glyph-name="car" d="M0 450.462v39.385q0 8.271 5.711 13.982t13.982 5.711h74.831l64.591 215.434q17.329 35.052 35.643 47.655t55.729 12.603h523.028q37.415 0 55.729-12.603t35.643-47.655l64.591-215.434h74.831q8.271 0 13.982-5.711t5.711-13.982v-39.385q0-8.271-5.711-13.982t-13.982-5.711h-36.234l16.542-39.385v-452.923q0-8.271-5.711-13.982t-13.982-5.711h-78.769q-7.877 0-13.785 5.711t-5.908 13.982v59.077h-708.923v-59.077q0-8.271-5.711-13.982t-13.982-5.711h-78.769q-7.877 0-13.785 5.711t-5.908 13.982v452.923l16.542 39.385h-36.234q-8.271 0-13.982 5.711t-5.711 13.982zM78.769 273.231l39.385-39.385h118.154v78.769l-157.538 43.323v-82.708zM174.868 509.538h674.265q-40.172 166.597-46.868 181.169-9.058 15.754-23.631 15.754h-533.268q-14.572 0-23.631-15.754-3.151-6.302-14.769-51.594t-21.858-87.434zM354.462 76.308h315.077v78.769h-315.077v-78.769zM787.692 233.846h118.154l39.385 39.385v82.708l-157.538-43.323v-78.769z" />
<glyph unicode="&#xe852;" glyph-name="cardio" d="M3.862 30.653l286.183 81.302 198.784 752.044 150.002-693.507 109.351 338.623 78.050-397.161 193.906-81.302h-232.118l-36.992 105.693-135.368-296.346-136.181 515.862-109.758-325.208h-365.859z" />
<glyph unicode="&#xe853;" glyph-name="cargo" d="M19.692-160v157.538h748.308l236.308 236.308v-157.538l-39.385-39.385v39.385l-39.385-39.385v-39.385l-78.769-78.769v39.385l-39.385-39.385v-39.385l-39.385-39.385h-157.538v39.385h-118.154v-39.385h-157.538v39.385h-118.154v-39.385h-196.923zM98.462 36.923v118.154h275.692v-118.154h-275.692zM98.462 194.462v157.538h275.692v-157.538h-275.692zM98.462 391.385v157.538h275.692v-157.538h-275.692zM98.462 588.308v51.2q0 14.966 2.954 24.222t13.588 19.889l62.228 62.228h275.692q-42.535-42.929-61.046-61.046-12.603-12.209-15.163-20.48t-2.56-24.418v-51.594h-275.692zM216.615 785.231l65.378 65.378q3.151 3.151 5.514 5.12t4.135 3.545 4.726 2.363 4.332 1.378 5.514 0.788 5.908 0.197h258.954l-78.769-78.769h-275.692zM452.923 36.923v118.154h275.692l78.769 78.769v-118.154l-78.769-78.769h-275.692zM452.923 194.462v157.538h275.692l78.769 78.769v-157.538l-78.769-78.769h-275.692zM452.923 391.385v157.538h275.692l78.769 78.769v-157.538l-78.769-78.769h-275.692zM452.923 588.308v51.594q0 11.422 0.394 15.951t4.529 12.406 12.8 16.542l61.046 61.046h254.031q21.662 0 21.662-20.874v-57.895l-78.769-78.769h-275.692zM571.077 785.231l78.769 78.769h236.308q22.055 0 30.72-8.862t8.665-30.523v-39.385l-78.769-78.769v40.172q0 19.692-8.862 29.145t-30.523 9.452h-236.308zM846.769 155.077v118.154l78.769 78.769v-118.154zM846.769 312.615v157.538l78.769 78.769v-157.538zM846.769 509.538v157.538l78.769 78.769v-157.538z" />
<glyph unicode="&#xe854;" glyph-name="cars" d="M0 380.444v28.444q0 5.973 4.124 10.098t10.098 4.124h54.044l46.649 127.147q12.516 25.316 25.742 34.418t40.249 9.102h320.853q27.022 0 40.249-9.102t25.742-34.418l46.649-127.147h54.044q5.973 0 10.098-4.124t4.124-10.098v-28.444q0-5.973-4.124-10.098t-10.098-4.124h-26.169l11.947-28.444v-327.111q0-5.973-4.124-10.098t-10.098-4.124h-56.889q-5.973 0-10.098 4.124t-4.124 10.098v42.667h-455.111v-42.667q0-5.973-4.124-10.098t-10.098-4.124h-56.889q-5.973 0-10.098 4.124t-4.124 10.098v327.111l11.947 28.444h-26.169q-5.973 0-10.098 4.124t-4.124 10.098zM56.889 252.444l28.444-28.444h85.333v56.889l-113.778 31.289v-59.733zM126.293 394.667h430.080q-29.013 120.32-33.849 130.844-6.542 11.378-17.067 11.378h-328.249q-10.524 0-17.067-11.378-2.276-4.551-10.667-37.262t-15.787-63.147zM227.556 110.222h227.556v56.889h-227.556v-56.889zM512 224h85.333l28.444 28.444v59.733l-113.778-31.289v-56.889zM528.782 638.72l12.8 25.316q11.662 23.893 25.458 33.707t40.533 9.813h249.742q15.929 0 26.169-2.276t17.493-8.533 11.52-12.8 10.809-19.911l32.427-70.258h54.044q5.973 0 10.098-4.124t4.124-10.098v-28.444q0-5.973-4.124-10.098t-10.098-4.124h-26.169l11.947-28.444v-298.667q0-5.973-4.124-10.098t-10.098-4.124h-56.889q-5.973 0-10.098 4.124t-4.124 10.098v42.667h-227.556v28.444h142.222v56.889h-113.778v77.653q0 21.049-7.964 28.587t-29.298 7.538h-26.738l-42.667 113.778h293.262q-14.791 63.431-19.627 73.956-6.542 11.378-17.067 11.378h-257.138q-10.524 0-17.067-11.378l-12.516-23.324q-23.324 16.213-45.511 22.756zM881.778 394.667h56.889l28.444 28.444v59.733l-85.333-31.289v-56.889z" />
<glyph unicode="&#xe855;" glyph-name="cart_in" d="M0 592.54q0 14.456 8.835 25.7 12.449 14.858 31.322 14.858h150.99l69.873-83.125v-37.346h31.724l48.59-57.826v-22.488h18.874l2.008-2.409q23.693-30.519 61.44-30.519 17.267 0 32.728 8.031t25.5 21.283l20.078 24.496v-20.882h40.157v40.157h-24.094l64.251 77.904v-37.747h40.157v40.157h-38.149l66.259 80.314h163.037l30.921 129.707q3.212 13.653 14.256 22.287t24.696 8.634h100.392q16.464 0 28.311-11.846t11.846-28.311-11.846-28.311-28.311-11.846h-68.668l-173.478-722.824q-3.213-15.661-14.256-27.909t-24.696-12.248h-43.771q3.614-9.638 3.614-20.078 0-24.897-17.669-42.566t-42.566-17.669-42.566 17.669-17.669 42.566q0 8.433 3.614 20.078h-208.013q3.614-9.638 3.614-20.078 0-24.897-17.669-42.566t-42.566-17.669-42.566 17.669-17.669 42.566q0 8.433 3.614 20.078h-43.771q-16.464 0-28.311 11.846t-11.846 28.311 11.846 28.311 28.311 11.846h490.315l38.149 160.627h-588.7q-14.055 0-25.098 8.634t-14.256 22.689l-80.314 361.412q-0.803 5.622-0.803 8.433zM90.353 552.784l8.835-40.157h41.362v40.157h-50.196zM108.022 472.471l8.835-40.157h23.693v40.157h-32.527zM126.093 392.157l8.835-40.157h5.622v40.157h-14.456zM180.706 271.686h40.157v40.157h-40.157v-40.157zM180.706 352h40.157v40.157h-40.157v-40.157zM180.706 432.314h40.157v40.157h-40.157v-40.157zM180.706 512.627h40.157v40.157h-40.157v-40.157zM221.666 706.184q0 7.228 6.024 7.228h113.644v100.392q0 8.031 5.823 14.055t14.256 6.024h120.471q8.433 0 14.256-6.024t5.823-14.055v-100.392h114.447q6.024 0 6.024-6.827 0-3.614-2.008-5.622l-191.147-230.099q-2.409-3.213-5.622-3.213-4.417 0-7.63 4.417l-192.351 228.493q-2.008 2.811-2.008 5.622zM261.020 271.686h40.157v40.157h-40.157v-40.157zM261.020 352h40.157v40.157h-40.157v-40.157zM261.020 432.314h40.157v40.157h-40.157v-40.157zM341.333 271.686h40.157v40.157h-40.157v-40.157zM341.333 352h40.157v40.157h-40.157v-40.157zM421.647 271.686h40.157v40.157h-40.157v-40.157zM421.647 352h40.157v40.157h-40.157v-40.157zM501.961 271.686h40.157v40.157h-40.157v-40.157zM501.961 352h40.157v40.157h-40.157v-40.157zM582.274 271.686h40.157v40.157h-40.157v-40.157zM582.274 352h40.157v40.157h-40.157v-40.157zM582.274 432.314h40.157v40.157h-40.157v-40.157zM662.588 271.686h40.157v40.157h-40.157v-40.157zM662.588 352h40.157v40.157h-40.157v-40.157zM662.588 432.314h40.157v40.157h-40.157v-40.157zM662.588 512.627h40.157v40.157h-40.157v-40.157zM742.902 352h4.016l9.638 40.157h-13.653v-40.157zM742.902 432.314h23.291l6.024 25.299 3.213 14.858h-32.527v-40.157zM742.902 512.627h41.362l8.835 40.157h-50.196v-40.157z" />
<glyph unicode="&#xe856;" glyph-name="cart_out" d="M0 592.339q0 14.456 8.835 25.7 12.449 14.858 31.322 14.858h140.147q-10.441-15.26-10.441-31.724 0-13.252 5.622-24.496 12.047-24.094 52.204-24.094h33.33v-40.157h40.157v-40.157h-40.157v-40.157h281.098v120.471h40.157v-40.157h40.157v40.157q4.016 0.402 10.24 1.606t18.874 7.429 17.067 15.46q6.024 12.047 6.024 22.889 0 15.26-12.85 32.929h151.793l30.921 129.707q2.811 13.653 13.854 22.287t25.098 8.634h100.392q16.464 0 28.311-11.846t11.846-28.311-11.846-28.311-28.311-11.846h-68.668l-173.478-722.824q-3.213-15.661-14.256-27.909t-24.696-12.248h-43.771q3.614-11.646 3.614-20.078 0-24.897-17.669-42.566t-42.566-17.669-42.566 17.669-17.669 42.566q0 8.433 3.614 20.078h-208.013q3.614-11.646 3.614-20.078 0-24.897-17.669-42.566t-42.566-17.669-42.566 17.669-17.669 42.566q0 8.433 3.614 20.078h-43.771q-16.464 0-28.311 11.846t-11.846 28.311 11.846 28.311 28.311 11.846h490.315l38.149 160.627h-588.7q-14.055 0-25.299 8.834t-14.055 22.488l-80.314 361.412q-0.803 5.622-0.803 8.433zM90.353 552.584l8.835-40.157h41.362v40.157h-50.196zM108.022 472.27l8.835-40.157h23.693v40.157h-32.527zM126.093 391.956l8.835-40.157h5.622v40.157h-14.456zM180.706 271.486h40.157v40.157h-40.157v-40.157zM180.706 351.799h40.157v40.157h-40.157v-40.157zM180.706 432.113h40.157v40.157h-40.157v-40.157zM180.706 512.427h40.157v40.157h-40.157v-40.157zM221.666 597.961q0 2.008 2.008 4.819l191.147 228.091q2.409 3.213 6.024 3.213 4.417 0 7.228-3.213l192.351-227.689q2.008-2.008 2.008-4.819 0-5.622-6.024-5.622h-114.447v-100.392q0-8.433-5.823-14.256t-14.256-5.823h-120.471q-8.433 0-14.256 5.823t-5.823 14.256v100.392h-113.644q-6.024 0-6.024 5.22zM261.020 271.486h40.157v40.157h-40.157v-40.157zM261.020 351.799h40.157v40.157h-40.157v-40.157zM341.333 271.486h40.157v40.157h-40.157v-40.157zM341.333 351.799h40.157v40.157h-40.157v-40.157zM421.647 271.486h40.157v40.157h-40.157v-40.157zM421.647 351.799h40.157v40.157h-40.157v-40.157zM501.961 271.486h40.157v40.157h-40.157v-40.157zM501.961 351.799h40.157v40.157h-40.157v-40.157zM582.274 271.486h40.157v40.157h-40.157v-40.157zM582.274 351.799h40.157v40.157h-40.157v-40.157zM582.274 432.113h40.157v40.157h-40.157v-40.157zM662.588 271.486h40.157v40.157h-40.157v-40.157zM662.588 351.799h40.157v40.157h-40.157v-40.157zM662.588 432.113h40.157v40.157h-40.157v-40.157zM662.588 512.427h40.157v40.157h-40.157v-40.157zM742.902 351.799h4.016l9.638 40.157h-13.653v-40.157zM742.902 432.113h23.291l6.024 25.299 3.213 14.858h-32.527v-40.157zM742.902 512.427h41.362l8.835 40.157h-50.196v-40.157z" />
<glyph unicode="&#xe857;" glyph-name="celebration" d="M20.48 372.48h491.52l-204.8-225.28v-266.24h122.88v-40.96h-327.68v40.96h122.88v266.24zM552.96-119.040q0-16.794 12.083-28.877t28.877-12.083h368.64q16.794 0 28.877 12.083t12.083 28.877v491.52q0 22.528-12.698 44.442t-30.72 39.936l-36.045 36.045q0 0-30.72 39.936t-12.698 44.442v122.88h-204.8v-122.88q0-22.528-12.698-44.442t-30.72-39.936l-36.045-36.045q0 0-30.72-39.936t-12.698-44.442v-491.52zM675.84 741.12h204.8v81.92q0 16.794-12.083 28.877t-28.877 12.083h-122.88q-16.794 0-28.877-12.083t-12.083-28.877v-81.92z" />
<glyph unicode="&#xe858;" glyph-name="certificate" d="M167.92 427.615l55.218 92.304-55.218 92.304 93.953 52.333-2.060 107.551 107.551-2.060 52.333 93.953 92.304-55.218 92.304 55.218 52.333-93.953 107.551 2.060-2.060-107.551 93.953-52.333-55.218-92.304 55.218-92.304-93.953-52.333 2.060-107.551-107.551 2.060-52.333-93.953-92.304 55.218-92.304-55.218-52.333 93.953-107.551-2.060 2.060 107.551zM253.631 592.032l41.619-65.932-19.779-26.785 69.64 53.569-26.785 38.735 45.328 25.136-1.236 52.333 51.097-0.824 23.9 45.328 41.619-26.785 53.569 69.64-26.785-19.779-63.047 41.619-39.147-70.052-80.766 1.648 1.236-79.942zM285.36-160v366.332l46.152 0.824 65.52-117.441 114.968 69.228 115.38-69.228 65.107 117.441 46.152-0.824v-365.92l-226.64 205.624z" />
<glyph unicode="&#xe859;" glyph-name="charts" d="M0-103.111v75.852h75.852v170.667q0 7.964 5.689 13.464t13.274 5.499h151.704q7.964 0 13.464-5.499t5.499-13.464v-170.667h37.926v398.222q0 7.964 5.689 13.464t13.274 5.499h151.704q7.964 0 13.464-5.499t5.499-13.464v-398.222h37.926v815.407q0 7.964 5.689 13.464t13.274 5.499h151.704q7.964 0 13.464-5.499t5.499-13.464v-815.407h37.926v549.926q0 7.964 5.689 13.464t13.274 5.499h151.704q7.964 0 13.464-5.499t5.499-13.464v-549.926h75.852v-75.852h-1024z" />
<glyph unicode="&#xe85a;" glyph-name="chat" d="M0 402.126q0 58.157 25.848 112.437t73.235 98.221 110.284 76.896 140.87 50.833 161.548 17.878q104.252 0 199.027-28.217t163.271-75.819 109.207-113.729 40.71-138.5-40.71-138.5-109.207-113.729-163.271-75.819-199.027-28.217q-107.268 0-207.212 30.586l-208.074-128.376q-7.754-4.308-11.631-1.077t-1.292 11.416l48.68 204.626q-62.896 48.249-97.575 109.852t-34.679 129.238z" />
<glyph unicode="&#xe85b;" glyph-name="check" d="M0 119.779v463.978q0 77.020 54.517 131.306t131.074 54.285h463.978q32.015 0 64.493-12.063l-80.732-80.732h-494.137q-19.023 0-32.71-13.687t-13.687-32.71v-556.774q0-19.023 13.687-32.71t32.71-13.687h556.774q19.023 0 32.71 13.687t13.687 32.71v124.81l92.796 92.796v-171.208q0-77.020-54.285-131.306t-131.306-54.285h-463.978q-76.556 0-131.074 54.285t-54.517 131.306zM193.015 401.878q0 9.744 6.496 16.703l108.571 108.107q6.496 6.96 16.471 6.96t16.935-6.96l131.77-131.77q6.96-6.96 16.703-6.96t16.703 6.96l367.935 367.935q6.96 6.96 16.703 6.96t16.703-6.96l109.035-107.179q6.96-6.96 6.96-16.703t-6.96-16.703l-510.376-510.376q-6.96-6.96-16.703-6.96t-16.703 6.96l-273.747 273.283q-6.496 6.96-6.496 16.703z" />
<glyph unicode="&#xe85c;" glyph-name="chevron_down" d="M179.127 697.807l332.873-332.873 332.873 332.873 179.127-179.127-512-512.488-512 512.488z" />
<glyph unicode="&#xe85d;" glyph-name="chevron_e_w" d="M336 688l-336-336 336-336 117 118-218 218 218 218-117 118zM688 688l-117-118 218-218-218-218 117-118 336 336-336 336z" />
<glyph unicode="&#xe85e;" glyph-name="chevron_left" d="M166.193 352l512-512 179.127 179.127-332.385 332.873 332.873 332.873-179.615 179.127z" />
<glyph unicode="&#xe85f;" glyph-name="chevron_n_s" d="M848 528l-336 336-336-336 118-117 218 218 218-218 118 117zM848 176l-118 117-218-218-218 218-118-117 336-336 336 336z" />
<glyph unicode="&#xe860;" glyph-name="chevron_ne" d="M0.585 506.64l664.087-1.661-1.661-664.086 357.361-0.894 3.043 1021.931-1021.936 2.069z" />
<glyph unicode="&#xe861;" glyph-name="chevron_nw" d="M359.337-159.692l-0.559 665.183 665.187 0.559-0.304 357.95-1023.628-0.379 1.352-1023.621z" />
<glyph unicode="&#xe862;" glyph-name="chevron_right" d="M166.193 684.873l332.873-332.873-332.873-332.873 179.127-179.127 512.488 512-512.488 512z" />
<glyph unicode="&#xe863;" glyph-name="chevron_se" d="M664.664 863.692l0.559-665.183-665.188-0.559 0.302-357.95 1023.629 0.379-1.352 1023.621z" />
<glyph unicode="&#xe864;" glyph-name="chevron_sw" d="M359.337 863.692l-0.559-665.183 665.187-0.559-0.304-357.95-1023.628 0.379 1.352 1023.621z" />
<glyph unicode="&#xe865;" glyph-name="chevron_up" d="M179.127 6.193l332.873 332.873 332.873-332.873 179.127 179.127-512 512.488-512-512.488z" />
<glyph unicode="&#xe866;" glyph-name="circle" d="M1024 352c0-282.77-229.23-512-512-512s-512 229.23-512 512c0 282.77 229.23 512 512 512s512-229.23 512-512z" />
<glyph unicode="&#xe867;" glyph-name="circle_arrow_down" d="M0 352q0 104.164 40.532 198.878t109.204 163.386 163.386 109.204 198.878 40.532 198.878-40.532 163.386-109.204 109.204-163.386 40.532-198.878-40.532-198.878-109.204-163.386-163.386-109.204-198.878-40.532-198.878 40.532-163.386 109.204-109.204 163.386-40.532 198.878zM271.121 344.86q-2.31-4.62 3.57-11.34l225.969-262.090q5.46-6.72 13.861-6.72t13.861 6.72l224.709 262.090q5.46 6.72 3.36 11.34t-10.92 4.62h-147.006v231.009q0 8.4-6.090 14.701t-14.911 6.3h-126.005q-8.82 0-14.911-6.3t-6.090-14.701v-231.009h-148.266q-8.82 0-11.13-4.62z" />
<glyph unicode="&#xe868;" glyph-name="circle_arrow_left" d="M0 352q0-104.164 40.532-198.878t109.204-163.386 163.386-109.204 198.878-40.532 198.878 40.532 163.386 109.204 109.204 163.386 40.532 198.878-40.532 198.878-109.204 163.386-163.386 109.204-198.878 40.532-198.878-40.532-163.386-109.204-109.204-163.386-40.532-198.878zM223.029 351.789q0 7.77 6.72 13.651l268.811 223.869q6.72 5.46 11.34 3.15t4.62-10.71v-143.226h231.009q8.82 0 14.911-6.090t6.090-14.911v-126.005q0-8.4-6.090-14.701t-14.911-6.3h-231.009v-148.266q0-8.82-4.62-11.13t-11.34 3.57l-268.811 223.869q-6.72 5.46-6.72 13.23z" />
<glyph unicode="&#xe869;" glyph-name="circle_arrow_right" d="M0 352q0-104.164 40.532-198.878t109.204-163.386 163.386-109.204 198.878-40.532 198.878 40.532 163.386 109.204 109.204 163.386 40.532 198.878-40.532 198.878-109.204 163.386-163.386 109.204-198.878 40.532-198.878-40.532-163.386-109.204-109.204-163.386-40.532-198.878zM262.51 417.523q0 8.82 6.090 14.911t14.911 6.090h231.009v143.226q0 8.4 4.62 10.71t11.76-3.15l268.39-223.869q6.72-5.88 6.72-13.651t-6.72-13.23l-268.39-223.869q-7.14-5.46-11.76-3.36t-4.62 10.92v148.266h-231.009q-8.82 0-14.911 6.090t-6.090 14.911v126.005z" />
<glyph unicode="&#xe86a;" glyph-name="circle_arrow_top" d="M0 352q0 104.164 40.532 198.878t109.204 163.386 163.386 109.204 198.878 40.532 198.878-40.532 163.386-109.204 109.204-163.386 40.532-198.878-40.532-198.878-109.204-163.386-163.386-109.204-198.878-40.532-198.878 40.532-163.386 109.204-109.204 163.386-40.532 198.878zM271.331 354.1q2.1-4.62 10.92-4.62h148.266v-231.009q0-8.82 6.090-14.911t14.911-6.090h126.005q8.82 0 14.911 6.090t6.090 14.911v231.009h147.006q8.82 0 10.92 4.62t-3.36 11.34l-224.709 262.090q-5.46 6.72-13.861 6.72t-13.861-6.72l-225.549-262.090q-5.88-6.72-3.78-11.34z" />
<glyph unicode="&#xe86b;" glyph-name="circle_exclamation_mark" d="M0 352q0 69.381 18.39 135.837t51.409 122.671 80.248 103.445 103.445 80.248 122.671 51.409 135.837 18.39q69.799 0 136.046-18.39t122.462-51.409 103.445-80.248 80.248-103.445 51.409-122.671 18.39-135.837q0-104.072-40.542-198.949t-109.087-163.422-163.422-109.087-198.949-40.542q-69.381 0-135.837 18.39t-122.671 51.409-103.445 80.248-80.248 103.445-51.409 122.462-18.39 136.046zM428.408 38.531q0-8.777 6.060-14.838t14.838-6.060h125.388q8.777 0 14.838 6.060t6.060 14.838v125.388q0 8.359-6.060 14.629t-14.838 6.269h-125.388q-8.777 0-14.838-6.269t-6.060-14.629v-125.388zM428.408 498.286q0-28.003 4.18-46.811l38.452-193.933q1.672-9.613 9.404-20.271t15.673-10.658h32.601q7.941 0 15.673 10.658t9.404 20.271l37.616 199.367q4.18 18.808 4.18 41.378v167.184q0 8.359-6.060 14.629t-14.838 6.269h-125.388q-8.777 0-14.838-6.269t-6.060-14.629v-167.184z" />
<glyph unicode="&#xe86c;" glyph-name="circle_info" d="M0 352q0 69.381 18.39 135.837t51.409 122.671 80.248 103.445 103.445 80.248 122.671 51.409 135.837 18.39q69.799 0 136.046-18.39t122.462-51.409 103.445-80.248 80.248-103.445 51.409-122.671 18.39-135.837q0-104.072-40.542-198.949t-109.087-163.422-163.422-109.087-198.949-40.542q-69.381 0-135.837 18.39t-122.671 51.409-103.445 80.248-80.248 103.445-51.409 122.462-18.39 136.046zM386.612 80.327q0-8.777 6.060-14.838t14.838-6.060h250.776q8.777 0 14.838 6.060t6.060 14.838v83.592q0 8.359-6.060 14.629t-14.838 6.269h-62.694v271.673q0 8.359-6.060 14.629t-14.838 6.269h-167.184q-8.777 0-14.838-6.269t-6.060-14.629v-83.592q0-8.777 6.060-14.838t14.838-6.060h62.694v-167.184h-62.694q-8.777 0-14.838-6.269t-6.060-14.629v-83.592zM470.204 540.082q0-8.777 6.060-14.838t14.838-6.060h83.592q8.777 0 14.838 6.060t6.060 14.838v83.592q0 8.359-6.060 14.629t-14.838 6.269h-83.592q-8.777 0-14.838-6.269t-6.060-14.629v-83.592z" />
<glyph unicode="&#xe86d;" glyph-name="circle_minus" d="M0 352q0-69.381 18.39-135.837t51.409-122.671 80.248-103.445 103.445-80.248 122.671-51.409 135.837-18.39q69.799 0 136.046 18.39t122.462 51.409 103.445 80.248 80.248 103.445 51.409 122.671 18.39 135.837q0 104.072-40.542 198.949t-109.087 163.422-163.422 109.087-198.949 40.542q-69.381 0-135.837-18.39t-122.671-51.409-103.445-80.248-80.248-103.445-51.409-122.462-18.39-136.046zM261.224 414.694q0 8.777 6.060 14.838t14.838 6.060h459.755q8.777 0 14.838-6.060t6.060-14.838v-125.388q0-8.777-6.060-14.838t-14.838-6.060h-459.755q-8.777 0-14.838 6.060t-6.060 14.838v125.388z" />
<glyph unicode="&#xe86e;" glyph-name="circle_ok" d="M0 352q0 96.887 38.421 192.522t111.922 169.135 169.135 111.922 192.522 38.421 192.522-38.421 169.135-111.922 111.922-169.135 38.421-192.522-38.421-192.522-111.922-169.135-169.135-111.922-192.522-38.421-192.522 38.421-169.135 111.922-111.922 169.135-38.421 192.522zM212.15 347.615q0-5.638 4.176-9.396l215.491-215.909q4.176-4.176 9.814-4.176t9.814 4.176l355.393 355.393q4.176 4.176 4.176 9.814t-4.176 9.814l-89.788 88.117q-4.176 4.176-9.814 4.176t-9.814-4.176l-245.977-245.977q-4.176-4.176-9.814-4.176t-9.396 4.176l-107.328 106.91q-4.176 4.176-9.814 4.176t-9.396-4.176l-89.37-88.953q-4.176-4.176-4.176-9.814z" />
<glyph unicode="&#xe86f;" glyph-name="circle_plus" d="M0 352q0-69.799 18.39-136.046t51.409-122.462 80.248-103.445 103.445-80.248 122.671-51.409 135.837-18.39q104.072 0 198.949 40.542t163.422 109.087 109.087 163.422 40.542 198.949-40.542 198.949-109.087 163.422-163.422 109.087-198.949 40.542q-69.381 0-135.837-18.39t-122.671-51.409-103.445-80.248-80.248-103.445-51.409-122.462-18.39-136.046zM215.667 415.53q0 8.777 6.269 15.047t15.047 6.269h190.589v192.679q0 8.777 6.060 15.047t14.838 6.269h127.060q8.777 0 15.047-6.269t6.269-15.047v-192.679h190.171q8.777 0 15.047-6.269t6.269-15.047v-127.060q0-8.777-6.269-14.838t-15.047-6.060h-190.171v-190.589q0-8.777-6.269-15.047t-15.047-6.269h-127.060q-8.777 0-14.838 6.269t-6.060 15.047v190.589h-190.589q-8.777 0-15.047 6.060t-6.269 14.838v127.060z" />
<glyph unicode="&#xe870;" glyph-name="circle_question_mark" d="M0 352q0 69.381 18.39 135.837t51.409 122.671 80.248 103.445 103.445 80.248 122.671 51.409 135.837 18.39q69.799 0 136.046-18.39t122.462-51.409 103.445-80.248 80.248-103.445 51.409-122.671 18.39-135.837q0-104.072-40.542-198.949t-109.087-163.422-163.422-109.087-198.949-40.542q-69.381 0-135.837 18.39t-122.671 51.409-103.445 80.248-80.248 103.445-51.409 122.462-18.39 136.046zM310.962 467.357q0-4.598 2.926-7.523 2.508-3.344 7.523-3.344h112.431q9.613 0 10.449 9.613 2.090 30.929 19.644 46.811t49.319 15.882q22.57 0 36.78-13.375t14.211-34.273q0-11.703-5.433-22.779t-14.211-19.435-12.957-11.703-8.359-6.269q-73.979-53.917-73.979-120.372v-42.632q0-2.090 4.18-6.269t6.269-4.18h106.998q4.18 0 7.314 2.926t3.135 7.105q0.836 39.288 12.121 60.604t41.796 40.96q20.48 12.957 30.929 20.48t20.898 17.972 14.629 21.734 6.687 26.958 2.508 38.243q0 40.124-16.927 71.889t-45.14 50.991-61.858 29.048-69.59 9.822q-91.951 0-144.823-46.811t-57.469-132.075zM428.408 38.531q0-8.777 6.060-14.838t14.838-6.060h127.478q8.359 0 14.629 6.060t6.269 14.838v125.388q0 8.359-6.269 14.629t-14.629 6.269h-127.478q-8.777 0-14.838-6.269t-6.060-14.629v-125.388z" />
<glyph unicode="&#xe871;" glyph-name="circle_remove" d="M0 352q0-96.887 38.421-192.522t111.922-169.135 169.135-111.922 192.522-38.421 192.522 38.421 169.135 111.922 111.922 169.135 38.421 192.522-38.421 192.522-111.922 169.135-169.135 111.922-192.522 38.421-192.522-38.421-169.135-111.922-111.922-169.135-38.421-192.522zM269.781 484.803q0 8.77 5.847 15.034l88.953 88.535q5.847 5.847 14.617 5.847t14.617-5.847l118.186-118.186 118.186 118.186q5.847 5.847 14.617 5.847t15.034-5.847l88.535-88.535q5.847-6.264 5.847-15.034t-5.847-14.617l-118.186-118.186 118.186-118.186q5.847-5.847 5.847-14.617t-5.847-14.617l-88.535-88.953q-6.264-5.847-15.034-5.847t-14.617 5.847l-118.186 118.186-118.186-118.186q-5.847-5.847-14.617-5.847t-14.617 5.847l-88.953 88.953q-5.847 5.847-5.847 14.617t5.847 14.617l118.186 118.186-118.186 118.186q-5.847 5.847-5.847 14.617z" />
</font>
</defs>
</svg>
