<?xml version="1.0" encoding="UTF-8" standalone="no"?>
<svg
   xmlns:dc="http://purl.org/dc/elements/1.1/"
   xmlns:cc="http://creativecommons.org/ns#"
   xmlns:rdf="http://www.w3.org/1999/02/22-rdf-syntax-ns#"
   xmlns:svg="http://www.w3.org/2000/svg"
   xmlns="http://www.w3.org/2000/svg"
   xmlns:sodipodi="http://sodipodi.sourceforge.net/DTD/sodipodi-0.dtd"
   xmlns:inkscape="http://www.inkscape.org/namespaces/inkscape"
   version="1.1"
   width="32px"
   height="32px"
   id="svg2"
   inkscape:version="0.91 r13725"
   sodipodi:docname="address_book.svg">
  <metadata
     id="metadata12">
    <rdf:RDF>
      <cc:Work
         rdf:about="">
        <dc:format>image/svg+xml</dc:format>
        <dc:type
           rdf:resource="http://purl.org/dc/dcmitype/StillImage" />
      </cc:Work>
    </rdf:RDF>
  </metadata>
  <defs
     id="defs10" />
  <sodipodi:namedview
     pagecolor="#ffffff"
     bordercolor="#666666"
     borderopacity="1"
     objecttolerance="10"
     gridtolerance="10"
     guidetolerance="10"
     inkscape:pageopacity="0"
     inkscape:pageshadow="2"
     inkscape:window-width="1920"
     inkscape:window-height="1178"
     id="namedview8"
     showgrid="false"
     inkscape:zoom="7.375"
     inkscape:cx="-23.322034"
     inkscape:cy="16"
     inkscape:window-x="1272"
     inkscape:window-y="-8"
     inkscape:window-maximized="1"
     inkscape:current-layer="svg2" />
  <g
     id="g4"
     transform="matrix(0.01,0,0,-0.01,-1,24)" />
  <path
     d="M 1.35,32 1.35,5 6.0113636,0 25.322727,0 q 1.305182,0 2.543773,0.7733333 1.238591,0.7733334 2.011045,2.0133334 0.772455,1.24 0.772455,2.5466666 l 0,19.9999997 L 27.986364,28 l 0,-21.3333333 q 0,-4 -3.995455,-4 l -16.341409,0 -2.6636364,2.6666666 16.3414094,0 q 1.651454,0 2.823454,1.1733334 1.172,1.1733333 1.172,2.8266666 l 0,18.6666667 q 0,1.653333 -1.172,2.826667 Q 22.978727,32 21.327273,32 L 1.35,32 Z m 5.327273,-8.293333 q 0,0.12 0.08657,0.206666 Q 6.850409,24 6.970273,24 l 12.732182,0 q 0.119863,0 0.206431,-0.08667 0.08657,-0.08666 0.08657,-0.206663 l 0,-1.36 q 0,-0.466667 -0.119864,-0.7 -0.119864,-0.233334 -0.466136,-0.433334 -0.1465,-0.09333 -1.072114,-0.42 -0.925614,-0.326666 -2.051,-0.726666 -1.125386,-0.4 -1.618159,-0.613334 l 0,-1.2 Q 15.134318,18.12 15.567159,17.54 16,16.96 16,16.48 l 0,-2.653333 q 0,-1.133334 -0.705864,-1.873334 -0.705863,-0.74 -1.957772,-0.74 -1.251909,0 -1.957773,0.74 -0.705864,0.74 -0.705864,1.873334 l 0,2.653333 q 0,0.48 0.432841,1.06 0.432841,0.58 0.898977,0.713333 l 0,1.2 q -0.599318,0.253334 -2.577068,0.953334 -1.97775,0.7 -2.164204,0.806666 -0.346273,0.2 -0.466137,0.433334 -0.119863,0.233333 -0.119863,0.7 l 0,1.36 z"
     id="path6"
     inkscape:connector-curvature="0" />
</svg>
