<?xml version="1.0" encoding="UTF-8" standalone="no"?>
<svg
   xmlns:dc="http://purl.org/dc/elements/1.1/"
   xmlns:cc="http://creativecommons.org/ns#"
   xmlns:rdf="http://www.w3.org/1999/02/22-rdf-syntax-ns#"
   xmlns:svg="http://www.w3.org/2000/svg"
   xmlns="http://www.w3.org/2000/svg"
   xmlns:sodipodi="http://sodipodi.sourceforge.net/DTD/sodipodi-0.dtd"
   xmlns:inkscape="http://www.inkscape.org/namespaces/inkscape"
   version="1.1"
   width="32px"
   height="32px"
   id="svg2"
   inkscape:version="0.91 r13725"
   sodipodi:docname="adjust.svg">
  <metadata
     id="metadata12">
    <rdf:RDF>
      <cc:Work
         rdf:about="">
        <dc:format>image/svg+xml</dc:format>
        <dc:type
           rdf:resource="http://purl.org/dc/dcmitype/StillImage" />
      </cc:Work>
    </rdf:RDF>
  </metadata>
  <defs
     id="defs10" />
  <sodipodi:namedview
     pagecolor="#ffffff"
     bordercolor="#666666"
     borderopacity="1"
     objecttolerance="10"
     gridtolerance="10"
     guidetolerance="10"
     inkscape:pageopacity="0"
     inkscape:pageshadow="2"
     inkscape:window-width="1280"
     inkscape:window-height="972"
     id="namedview8"
     showgrid="false"
     inkscape:zoom="7.375"
     inkscape:cx="-0.20338983"
     inkscape:cy="16"
     inkscape:window-x="-8"
     inkscape:window-y="-8"
     inkscape:window-maximized="1"
     inkscape:current-layer="svg2" />
  <g
     id="g4"
     transform="matrix(0.01306122,0,0,0.01306122,-0.82142857,1.4744898)" />
  <path
     d="m 0,16 q 0,2.168163 0.5746939,4.244898 0.5746939,2.076735 1.6065306,3.826939 1.0318367,1.750204 2.5142857,3.232653 1.482449,1.482449 3.2326528,2.514286 1.750204,1.031836 3.826939,1.60653 Q 13.831837,32 16,32 q 2.168163,0 4.244898,-0.574694 2.076735,-0.574694 3.833469,-1.60653 1.756735,-1.031837 3.232653,-2.514286 1.475919,-1.482449 2.507756,-3.232653 1.031836,-1.750204 1.60653,-3.826939 Q 32,18.168163 32,16 32,13.831837 31.425306,11.755102 30.850612,9.6783673 29.818776,7.9216327 28.786939,6.164898 27.31102,4.6889796 25.835102,3.2130612 24.078367,2.1812245 22.321633,1.1493878 20.244898,0.5746939 18.168163,0 16,0 13.831837,0 11.755102,0.5746939 9.678367,1.1493878 7.928163,2.1812245 6.1779592,3.2130612 4.6955102,4.6889796 3.2130612,6.164898 2.1812245,7.9216327 1.1493878,9.6783673 0.5746939,11.755102 0,13.831837 0,16 Z m 3.317551,0 q 0,-2.429388 0.8620408,-4.656326 Q 5.0416327,9.1167347 6.550204,7.4383673 8.058776,5.76 10.168163,4.6497959 12.277551,3.5395918 14.693878,3.2783674 l 0,25.4432656 Q 12.277551,28.460408 10.168163,27.350204 8.058776,26.24 6.550204,24.561633 5.0416327,22.883265 4.1795918,20.656327 3.317551,18.429388 3.317551,16 Z"
     id="path6"
     inkscape:connector-curvature="0" />
</svg>
