<?xml version="1.0" encoding="UTF-8" standalone="no"?>
<svg
   xmlns:dc="http://purl.org/dc/elements/1.1/"
   xmlns:cc="http://creativecommons.org/ns#"
   xmlns:rdf="http://www.w3.org/1999/02/22-rdf-syntax-ns#"
   xmlns:svg="http://www.w3.org/2000/svg"
   xmlns="http://www.w3.org/2000/svg"
   xmlns:sodipodi="http://sodipodi.sourceforge.net/DTD/sodipodi-0.dtd"
   xmlns:inkscape="http://www.inkscape.org/namespaces/inkscape"
   version="1.1"
   width="32px"
   height="32px"
   id="svg2"
   inkscape:version="0.91 r13725"
   sodipodi:docname="adjust_alt.svg">
  <metadata
     id="metadata12">
    <rdf:RDF>
      <cc:Work
         rdf:about="">
        <dc:format>image/svg+xml</dc:format>
        <dc:type
           rdf:resource="http://purl.org/dc/dcmitype/StillImage" />
      </cc:Work>
    </rdf:RDF>
  </metadata>
  <defs
     id="defs10" />
  <sodipodi:namedview
     pagecolor="#ffffff"
     bordercolor="#666666"
     borderopacity="1"
     objecttolerance="10"
     gridtolerance="10"
     guidetolerance="10"
     inkscape:pageopacity="0"
     inkscape:pageshadow="2"
     inkscape:window-width="1280"
     inkscape:window-height="972"
     id="namedview8"
     showgrid="false"
     inkscape:zoom="7.375"
     inkscape:cx="-0.20338983"
     inkscape:cy="16"
     inkscape:window-x="-8"
     inkscape:window-y="-8"
     inkscape:window-maximized="1"
     inkscape:current-layer="svg2" />
  <g
     id="g4"
     transform="matrix(0.01333333,0,0,-0.01333333,-2.8333333,22.666667)" />
  <path
     d="m 0.6666665,24 0,-4 q 0,-0.546667 0.3933333,-0.94 0.3933334,-0.393333 0.94,-0.393333 l 1.3333334,0 0,-18.666667 4.0000003,0 0,18.666667 1.333333,0 q 0.546667,0 0.94,0.393333 0.393333,0.393333 0.393333,0.94 l 0,4 q 0,0.546667 -0.393333,0.94 -0.393333,0.393333 -0.94,0.393333 l -6.6666667,0 q -0.5466666,0 -0.94,-0.393333 Q 0.6666665,24.546667 0.6666665,24 Z m 1.3333333,-1.333333 6.6666667,0 0,-0.666667 -6.6666667,0 0,0.666667 z M 3.3333332,32 l 0,-5.333333 4.0000003,0 0,5.333333 -4.0000003,0 z m 7.9999998,-14.666667 0,-4 q 0,-0.546666 0.393333,-0.94 Q 12.119999,12 12.666666,12 l 1.333333,0 0,-12 4,0 0,12 1.333334,0 q 0.546666,0 0.94,0.393333 0.393333,0.393334 0.393333,0.94 l 0,4 q 0,0.546667 -0.393333,0.94 -0.393334,0.393334 -0.94,0.393334 l -6.666667,0 q -0.546667,0 -0.94,-0.393334 -0.393333,-0.393333 -0.393333,-0.94 z M 12.666666,16 l 6.666667,0 0,-0.666667 -6.666667,0 0,0.666667 z m 1.333333,16 0,-12 4,0 0,12 -4,0 z m 8,-21.333333 0,-4.0000003 q 0,-0.5466667 0.393334,-0.94 0.393333,-0.3933334 0.94,-0.3933334 l 1.333333,0 0,-5.3333333 4,0 0,5.3333333 1.333334,0 q 0.546666,0 0.939999,0.3933334 0.393335,0.3933333 0.393335,0.94 l 0,4.0000003 q 0,0.546666 -0.393335,0.94 Q 30.546666,12 30,12 l -6.666666,0 Q 22.786667,12 22.393333,11.606667 22,11.213333 22,10.666667 Z m 1.333334,-1.3333337 6.666667,0 0,-0.6666666 -6.666666,0 0,0.6666666 z M 24.666666,32 l 0,-18.666667 4,0 0,18.666667 -4,0 z"
     id="path6"
     inkscape:connector-curvature="0" />
</svg>
