<?xml version="1.0" encoding="UTF-8" standalone="no"?>
<svg
   xmlns:dc="http://purl.org/dc/elements/1.1/"
   xmlns:cc="http://creativecommons.org/ns#"
   xmlns:rdf="http://www.w3.org/1999/02/22-rdf-syntax-ns#"
   xmlns:svg="http://www.w3.org/2000/svg"
   xmlns="http://www.w3.org/2000/svg"
   xmlns:sodipodi="http://sodipodi.sourceforge.net/DTD/sodipodi-0.dtd"
   xmlns:inkscape="http://www.inkscape.org/namespaces/inkscape"
   version="1.1"
   width="32px"
   height="32px"
   id="svg2"
   inkscape:version="0.91 r13725"
   sodipodi:docname="alarm.svg">
  <metadata
     id="metadata12">
    <rdf:RDF>
      <cc:Work
         rdf:about="">
        <dc:format>image/svg+xml</dc:format>
        <dc:type
           rdf:resource="http://purl.org/dc/dcmitype/StillImage" />
      </cc:Work>
    </rdf:RDF>
  </metadata>
  <defs
     id="defs10" />
  <sodipodi:namedview
     pagecolor="#ffffff"
     bordercolor="#666666"
     borderopacity="1"
     objecttolerance="10"
     gridtolerance="10"
     guidetolerance="10"
     inkscape:pageopacity="0"
     inkscape:pageshadow="2"
     inkscape:window-width="1280"
     inkscape:window-height="972"
     id="namedview8"
     showgrid="false"
     inkscape:zoom="7.375"
     inkscape:cx="-0.20338983"
     inkscape:cy="16"
     inkscape:window-x="-8"
     inkscape:window-y="-8"
     inkscape:window-maximized="1"
     inkscape:current-layer="svg2" />
  <g
     id="g4"
     transform="matrix(0.01196733,0,0,-0.01196761,1.0642004,24.351801)" />
  <path
     d="m 0.00795683,6.9505938 q 0.06582,-0.7539596 0.640252,-1.2326643 L 5.6744858,1.4215572 Q 6.2489174,0.9428525 7.0447445,1.0326097 7.8405716,1.1223667 8.3312316,1.7087799 L 10.078462,3.7552407 Q 7.6131926,4.7246175 5.5966981,6.4300026 3.5802037,8.1353878 2.2159286,10.373331 L 0.42082973,8.2789991 Q -0.05786347,7.7045537 0.00795683,6.9505938 Z M 2.7783928,17.817186 q 0,-2.668777 1.0471411,-5.110171 1.047141,-2.441393 2.806338,-4.2006313 1.7591967,-1.7592393 4.2005321,-2.8064056 2.441333,-1.0471663 5.110047,-1.0471663 2.680682,0 5.116032,1.0471663 2.435351,1.0471663 4.200532,2.8123895 1.76518,1.7652224 2.806337,4.2006314 1.041157,2.43541 1.041157,5.104187 0,1.783174 -0.472709,3.494543 -0.47271,1.711369 -1.322389,3.153468 -0.84968,1.442098 -2.064364,2.65681 -1.214683,1.214712 -2.656746,2.064412 -1.442063,0.849702 -3.15339,1.322422 -1.711328,0.472721 -3.49446,0.472721 -2.668714,0 -5.104064,-1.041183 Q 8.4030356,28.899197 6.6378555,27.133975 4.8726749,25.368752 3.8255339,22.933341 2.7783928,20.497932 2.7783928,17.817186 Z m 3.5901979,0 q 0,1.938753 0.7599251,3.715944 0.7599248,1.777192 2.0404288,3.057727 1.2805044,1.280535 3.0576514,2.040479 1.777148,0.759942 3.715855,0.759942 1.938707,0 3.715854,-0.759942 1.777148,-0.759944 3.057652,-2.040479 1.280505,-1.280535 2.04043,-3.057727 0.759925,-1.777191 0.759925,-3.715944 0,-1.938754 -0.759925,-3.715943 -0.759925,-1.777191 -2.04043,-3.057726 -1.280504,-1.2805335 -3.057652,-2.0404782 -1.777147,-0.7599426 -3.715854,-0.7599426 -1.938707,0 -3.715855,0.7599426 -1.777147,0.7599447 -3.0576514,2.0404782 -1.280504,1.280535 -2.0404288,3.057726 -0.7599251,1.777189 -0.7599251,3.715943 z m 4.7869303,0.598381 0,-1.136923 q 0,-0.251321 0.173527,-0.45477 0.173526,-0.20345 0.42484,-0.20345 l 2.094281,0 q 0.0718,-0.215417 0.197461,-0.370996 0.125657,-0.155579 0.173526,-0.203449 0.04787,-0.04787 0.275249,-0.179515 0.227379,-0.131644 0.251313,-0.143611 l 0,-4.463918 q 0,-0.25132 0.17951,-0.436818 0.17951,-0.185499 0.418857,-0.185499 l 1.172798,0 q 0.251314,0 0.436807,0.185499 0.185494,0.185498 0.185494,0.436818 l 0,4.487854 q 0.502628,0.335092 0.855664,0.891586 0.353036,0.556495 0.353036,1.178811 0,0.993312 -0.706072,1.693418 -0.706073,0.700104 -1.699361,0.700104 -0.646235,0 -1.190749,-0.323124 -0.544513,-0.323126 -0.867631,-0.873637 l -2.130183,0 q -0.251314,0 -0.42484,-0.17353 -0.173527,-0.173531 -0.173527,-0.42485 z M 21.902179,3.8031112 23.637442,1.7207475 q 0.478693,-0.5744455 1.268536,-0.6701864 0.789844,-0.095741 1.376243,0.3709961 L 31.3444,5.6700591 q 0.574431,0.4787046 0.646235,1.2326644 0.0718,0.7539596 -0.406889,1.3284052 L 29.716843,10.469072 Q 28.364535,8.2071934 26.354025,6.4898408 24.343514,4.772488 21.902179,3.8031112 Z"
     id="path6"
     inkscape:connector-curvature="0" />
</svg>
