<?xml version="1.0" encoding="UTF-8" standalone="no"?>
<svg
   xmlns:dc="http://purl.org/dc/elements/1.1/"
   xmlns:cc="http://creativecommons.org/ns#"
   xmlns:rdf="http://www.w3.org/1999/02/22-rdf-syntax-ns#"
   xmlns:svg="http://www.w3.org/2000/svg"
   xmlns="http://www.w3.org/2000/svg"
   xmlns:sodipodi="http://sodipodi.sourceforge.net/DTD/sodipodi-0.dtd"
   xmlns:inkscape="http://www.inkscape.org/namespaces/inkscape"
   version="1.1"
   width="32px"
   height="32px"
   id="svg2"
   inkscape:version="0.91 r13725"
   sodipodi:docname="albums.svg">
  <metadata
     id="metadata12">
    <rdf:RDF>
      <cc:Work
         rdf:about="">
        <dc:format>image/svg+xml</dc:format>
        <dc:type
           rdf:resource="http://purl.org/dc/dcmitype/StillImage" />
      </cc:Work>
    </rdf:RDF>
  </metadata>
  <defs
     id="defs10" />
  <sodipodi:namedview
     pagecolor="#ffffff"
     bordercolor="#666666"
     borderopacity="1"
     objecttolerance="10"
     gridtolerance="10"
     guidetolerance="10"
     inkscape:pageopacity="0"
     inkscape:pageshadow="2"
     inkscape:window-width="1280"
     inkscape:window-height="972"
     id="namedview8"
     showgrid="false"
     inkscape:zoom="7.375"
     inkscape:cx="-0.20338983"
     inkscape:cy="16"
     inkscape:window-x="-8"
     inkscape:window-y="-8"
     inkscape:window-maximized="1"
     inkscape:current-layer="svg2" />
  <g
     id="g4"
     transform="matrix(0.01142857,0,0,-0.01142857,2,20.428571)" />
  <path
     d="M 0,22.857143 0,9.1428572 Q 0,8.6742857 0.3371429,8.3371429 0.6742857,8 1.1428571,8 l 0,16 Q 0.6742857,24 0.3371429,23.662857 0,23.325714 0,22.857143 Z M 2.2857143,24 l 0,-16 q 0,-0.4685714 0.3371428,-0.8057143 Q 2.96,6.8571429 3.4285714,6.8571429 l 1.1428572,0 0,18.2857141 -1.1428572,0 Q 2.96,25.142857 2.6228571,24.805714 2.2857143,24.468571 2.2857143,24 Z m 3.4285714,1.142857 0,-18.2857141 q 0,-0.4685715 0.3371429,-0.8057143 0.3371428,-0.3371429 0.8057143,-0.3371429 l 18.2857141,0 q 0.468572,0 0.805714,0.3371429 0.337143,0.3371428 0.337143,0.8057143 l 0,18.2857141 q 0,0.468571 -0.337143,0.805714 -0.337142,0.337143 -0.805714,0.337143 l -18.2857141,0 q -0.4685715,0 -0.8057143,-0.337143 Q 5.7142857,25.611428 5.7142857,25.142857 Z M 9.097143,21.828571 q 0.16,0.502857 0.657143,0.8 0.497143,0.297143 1.194285,0.297143 0.16,0 0.428572,-0.04 0.268571,-0.04 0.697143,-0.194286 0.428571,-0.154285 0.777143,-0.394285 0.348571,-0.24 0.605714,-0.691429 0.257143,-0.451429 0.257143,-1.034286 l 0,-6.525714 6.857143,-1.565714 0,5.04 q 0,-0.01143 -0.251429,-0.02286 -0.251429,-0.01143 -0.657143,0.02857 -0.405714,0.04 -0.737143,0.154286 -1.005714,0.377143 -1.542857,1.097143 -0.537143,0.72 -0.297143,1.44 0.171429,0.537142 0.72,0.851428 0.548572,0.314286 1.28,0.314286 0.137143,0 0.4,-0.04 0.262857,-0.04 0.662857,-0.171429 0.4,-0.131428 0.737143,-0.325714 0.337143,-0.194286 0.582857,-0.571429 0.245715,-0.377142 0.245715,-0.845714 l 0,-10.068571 q 0,-0.4457143 -0.297143,-0.4457143 l 0.04571,0.011429 -8.56,2.1142853 q -0.331428,0.09143 -0.331428,0.605714 l 0,7.554286 q 0,-0.01143 -0.251429,-0.02857 -0.251429,-0.01714 -0.657143,0.02286 -0.405714,0.04 -0.737143,0.154286 -1.005714,0.342857 -1.537143,1.057143 -0.531428,0.714286 -0.291428,1.422857 z m 18.331428,3.314286 0,-18.2857141 1.142858,0 q 0.468571,0 0.805714,0.3371428 Q 29.714286,7.5314286 29.714286,8 l 0,16 q 0,0.468571 -0.337143,0.805714 -0.337143,0.337143 -0.805714,0.337143 l -1.142858,0 z M 30.857143,24 l 0,-16 Q 31.325714,8 31.662857,8.3371429 32,8.6742857 32,9.1428572 l 0,13.7142858 q 0,0.468571 -0.337143,0.805714 Q 31.325714,24 30.857143,24 Z"
     id="path6"
     inkscape:connector-curvature="0" />
</svg>
