<?xml version="1.0" encoding="UTF-8" standalone="no"?>
<svg
   xmlns:dc="http://purl.org/dc/elements/1.1/"
   xmlns:cc="http://creativecommons.org/ns#"
   xmlns:rdf="http://www.w3.org/1999/02/22-rdf-syntax-ns#"
   xmlns:svg="http://www.w3.org/2000/svg"
   xmlns="http://www.w3.org/2000/svg"
   xmlns:sodipodi="http://sodipodi.sourceforge.net/DTD/sodipodi-0.dtd"
   xmlns:inkscape="http://www.inkscape.org/namespaces/inkscape"
   version="1.1"
   width="32px"
   height="32px"
   id="svg2"
   inkscape:version="0.91 r13725"
   sodipodi:docname="align_right.svg">
  <metadata
     id="metadata12">
    <rdf:RDF>
      <cc:Work
         rdf:about="">
        <dc:format>image/svg+xml</dc:format>
        <dc:type
           rdf:resource="http://purl.org/dc/dcmitype/StillImage" />
      </cc:Work>
    </rdf:RDF>
  </metadata>
  <defs
     id="defs10" />
  <sodipodi:namedview
     pagecolor="#ffffff"
     bordercolor="#666666"
     borderopacity="1"
     objecttolerance="10"
     gridtolerance="10"
     guidetolerance="10"
     inkscape:pageopacity="0"
     inkscape:pageshadow="2"
     inkscape:window-width="1280"
     inkscape:window-height="972"
     id="namedview8"
     showgrid="false"
     inkscape:zoom="7.375"
     inkscape:cx="-0.20338983"
     inkscape:cy="16"
     inkscape:window-x="-8"
     inkscape:window-y="-8"
     inkscape:window-maximized="1"
     inkscape:current-layer="svg2" />
  <g
     id="g4"
     transform="matrix(0.01333333,0,0,-0.01333333,-1.3333333,20.5)" />
  <path
     d="M 0,29.333333 0,26.666667 Q 0,26.4 0.1933333,26.2 0.3866667,26 0.6666667,26 l 30.6666663,0 q 0.28,0 0.473334,0.2 Q 32,26.4 32,26.666667 l 0,2.666666 q 0,0.28 -0.193333,0.473334 Q 31.613333,30 31.333333,30 L 0.6666667,30 q -0.28,0 -0.4733334,-0.193333 Q 0,29.613333 0,29.333333 Z m 2.68,-16 0,-2.666666 Q 2.68,10.4 2.88,10.2 3.08,10 3.3466667,10 l 27.9866663,0 q 0.28,0 0.473334,0.2 Q 32,10.4 32,10.666667 l 0,2.666666 q 0,0.28 -0.193333,0.473334 Q 31.613333,14 31.333333,14 L 3.3466667,14 Q 3.08,14 2.88,13.806667 2.68,13.613333 2.68,13.333333 Z m 5.333333,8 0,-2.666666 Q 8.013333,18.4 8.213333,18.2 8.413333,18 8.68,18 l 22.653333,0 q 0.28,0 0.473334,0.2 Q 32,18.4 32,18.666667 l 0,2.666666 q 0,0.28 -0.193333,0.473334 Q 31.613333,22 31.333333,22 L 8.68,22 q -0.266667,0 -0.466667,-0.193333 -0.2,-0.193334 -0.2,-0.473334 z m 5.333334,-15.9999997 0,-2.6666666 q 0,-0.2666667 0.2,-0.4666667 0.2,-0.2 0.466666,-0.2 l 17.32,0 q 0.28,0 0.473334,0.2 Q 32,2.4 32,2.6666667 l 0,2.6666666 q 0,0.28 -0.193333,0.4733334 Q 31.613333,6 31.333333,6 l -17.32,0 q -0.266666,0 -0.466666,-0.1933333 -0.2,-0.1933334 -0.2,-0.4733334 z"
     id="path6"
     inkscape:connector-curvature="0" />
</svg>
