<?xml version="1.0" encoding="UTF-8" standalone="no"?>
<svg
   xmlns:dc="http://purl.org/dc/elements/1.1/"
   xmlns:cc="http://creativecommons.org/ns#"
   xmlns:rdf="http://www.w3.org/1999/02/22-rdf-syntax-ns#"
   xmlns:svg="http://www.w3.org/2000/svg"
   xmlns="http://www.w3.org/2000/svg"
   xmlns:sodipodi="http://sodipodi.sourceforge.net/DTD/sodipodi-0.dtd"
   xmlns:inkscape="http://www.inkscape.org/namespaces/inkscape"
   version="1.1"
   width="32px"
   height="32px"
   id="svg2"
   inkscape:version="0.91 r13725"
   sodipodi:docname="anchor.svg">
  <metadata
     id="metadata12">
    <rdf:RDF>
      <cc:Work
         rdf:about="">
        <dc:format>image/svg+xml</dc:format>
        <dc:type
           rdf:resource="http://purl.org/dc/dcmitype/StillImage" />
      </cc:Work>
    </rdf:RDF>
  </metadata>
  <defs
     id="defs10" />
  <sodipodi:namedview
     pagecolor="#ffffff"
     bordercolor="#666666"
     borderopacity="1"
     objecttolerance="10"
     gridtolerance="10"
     guidetolerance="10"
     inkscape:pageopacity="0"
     inkscape:pageshadow="2"
     inkscape:window-width="1280"
     inkscape:window-height="972"
     id="namedview8"
     showgrid="false"
     inkscape:zoom="7.375"
     inkscape:cx="-0.20338983"
     inkscape:cy="16"
     inkscape:window-x="-8"
     inkscape:window-y="-8"
     inkscape:window-maximized="1"
     inkscape:current-layer="svg2" />
  <g
     id="g4"
     transform="matrix(0.01333309,0,0,-0.01333333,-1.4071621,33.333333)" />
  <path
     d="M 0.12016663,20.68 Q 0.08016723,20.413333 0.25349753,20.246667 0.42682763,20.08 0.69348933,20.12 l 8.58651057,1.226667 q 0.266661,0.04 0.32666,0.206666 0.06,0.166667 -0.126667,0.353334 l -2.226625,2.24 q 1.279976,1.386666 2.7532831,2.266666 1.473306,0.88 3.393271,1.266667 l 0,-17.7333333 Q 12.279945,9.1733333 11.493293,7.94 10.70664,6.7066667 10.70664,5.3333333 10.70664,3.12 12.259945,1.56 13.81325,0 16.026544,0 q 2.19996,0 3.773265,1.5666667 1.573305,1.5666666 1.573305,3.7666666 0,1.3866667 -0.766653,2.62 -0.766652,1.2333334 -1.873299,1.9933334 l 0,17.7333333 q 1.906632,-0.386667 3.353272,-1.26 1.446641,-0.873333 2.726617,-2.26 l -2.266625,-2.24 q -0.199996,-0.2 -0.139997,-0.366667 0.06,-0.166666 0.32666,-0.206666 l 8.573178,-1.213334 q 0.279995,-0.04 0.446659,0.126667 0.166664,0.166667 0.126666,0.433333 l -1.226644,8.573334 q -0.04,0.28 -0.206662,0.333333 -0.166664,0.05333 -0.353327,-0.133333 L 27.586335,26.96 q -2.23996,2.36 -5.239905,3.7 Q 19.346484,32 15.999878,32 12.626605,32 9.6199929,30.673333 6.6133819,29.346667 4.3867557,26.986667 l -2.4666219,2.466666 q -0.1999964,0.2 -0.36666,0.14 -0.1666637,-0.06 -0.2066629,-0.326666 z M 13.186596,5.3333333 q 0,1.16 0.826652,1.9866667 0.82665,0.8266667 1.999962,0.8266667 1.15998,0 1.979966,-0.8266667 0.819985,-0.8266667 0.819985,-1.9866667 0,-1.16 -0.819985,-1.9866666 Q 17.17319,2.52 16.01321,2.52 q -1.173312,0 -1.999962,0.8266667 -0.826652,0.8266666 -0.826652,1.9866666 z"
     id="path6"
     inkscape:connector-curvature="0" />
</svg>
