<?xml version="1.0" encoding="UTF-8" standalone="no"?>
<svg
   xmlns:dc="http://purl.org/dc/elements/1.1/"
   xmlns:cc="http://creativecommons.org/ns#"
   xmlns:rdf="http://www.w3.org/1999/02/22-rdf-syntax-ns#"
   xmlns:svg="http://www.w3.org/2000/svg"
   xmlns="http://www.w3.org/2000/svg"
   xmlns:sodipodi="http://sodipodi.sourceforge.net/DTD/sodipodi-0.dtd"
   xmlns:inkscape="http://www.inkscape.org/namespaces/inkscape"
   version="1.1"
   width="32px"
   height="32px"
   id="svg2985"
   inkscape:version="0.91 r13725"
   sodipodi:docname="arrow_ne_sw.svg">
  <metadata
     id="metadata2995">
    <rdf:RDF>
      <cc:Work
         rdf:about="">
        <dc:format>image/svg+xml</dc:format>
        <dc:type
           rdf:resource="http://purl.org/dc/dcmitype/StillImage" />
        <dc:title />
      </cc:Work>
    </rdf:RDF>
  </metadata>
  <defs
     id="defs2993" />
  <sodipodi:namedview
     pagecolor="#ffffff"
     bordercolor="#666666"
     borderopacity="1"
     objecttolerance="10"
     gridtolerance="10"
     guidetolerance="10"
     inkscape:pageopacity="0"
     inkscape:pageshadow="2"
     inkscape:window-width="1280"
     inkscape:window-height="972"
     id="namedview2991"
     showgrid="true"
     inkscape:zoom="10.429825"
     inkscape:cx="15.516063"
     inkscape:cy="11.209964"
     inkscape:window-x="-8"
     inkscape:window-y="-8"
     inkscape:window-maximized="1"
     inkscape:current-layer="svg2985">
    <inkscape:grid
       type="xygrid"
       id="grid3123" />
  </sodipodi:namedview>
  <g
     id="g2987"
     transform="matrix(0.01437786,0,0,-0.01437845,-7.2240749,37.064579)" />
  <path
     d="m 31.834934,31.650058 c 0.121263,-0.122718 0.191067,-0.281169 0.156008,-0.477523 L 29.464196,12.37814 c -0.0215,-0.196437 -0.102241,-0.30822 -0.224476,-0.348159 -0.122241,-0.03994 -0.245742,-0.007 -0.380487,0.12936 l -5.242411,5.305552 -0.511357,-0.505314 -8.181721,-8.0850127 -0.4794,-0.4737296 5.242412,-5.3055534 C 19.821505,2.9589181 19.852957,2.835029 19.81157,2.7132687 19.77016,2.5915062 19.657439,2.5121105 19.460766,2.4929492 L 0.6383276,0.19051128 c -0.1967542,-0.032717 -0.3543369,0.03897 -0.4756071,0.1617012 -0.1212704,0.1227309 -0.1843286,0.2743483 -0.1560087,0.4775219 L 2.5334577,19.624129 c 0.028244,0.189621 0.105601,0.304814 0.2244772,0.348161 0.1188762,0.04334 0.2390037,0.0138 0.3804857,-0.12936 l 5.2424123,-5.305553 0.479398,0.473732 8.1817211,8.085013 0.511358,0.505313 -5.242412,5.305552 c -0.141478,0.143178 -0.16957,0.263666 -0.124814,0.382017 0.04476,0.118347 0.160862,0.194337 0.3508,0.220318 l 18.822433,2.302435 c 0.203496,0.02589 0.354338,-0.03896 0.475608,-0.161699 z"
     id="path2989"
     inkscape:connector-curvature="0" />
</svg>
