<?xml version="1.0" encoding="UTF-8" standalone="no"?>
<svg
   xmlns:dc="http://purl.org/dc/elements/1.1/"
   xmlns:cc="http://creativecommons.org/ns#"
   xmlns:rdf="http://www.w3.org/1999/02/22-rdf-syntax-ns#"
   xmlns:svg="http://www.w3.org/2000/svg"
   xmlns="http://www.w3.org/2000/svg"
   xmlns:sodipodi="http://sodipodi.sourceforge.net/DTD/sodipodi-0.dtd"
   xmlns:inkscape="http://www.inkscape.org/namespaces/inkscape"
   version="1.1"
   width="32px"
   height="32px"
   id="svg2985"
   inkscape:version="0.91 r13725"
   sodipodi:docname="arrowreturn_s.svg">
  <metadata
     id="metadata2995">
    <rdf:RDF>
      <cc:Work
         rdf:about="">
        <dc:format>image/svg+xml</dc:format>
        <dc:type
           rdf:resource="http://purl.org/dc/dcmitype/StillImage" />
        <dc:title />
      </cc:Work>
    </rdf:RDF>
  </metadata>
  <defs
     id="defs2993" />
  <sodipodi:namedview
     pagecolor="#ffffff"
     bordercolor="#666666"
     borderopacity="1"
     objecttolerance="10"
     gridtolerance="10"
     guidetolerance="10"
     inkscape:pageopacity="0"
     inkscape:pageshadow="2"
     inkscape:window-width="1280"
     inkscape:window-height="972"
     id="namedview2991"
     showgrid="false"
     inkscape:zoom="7.375"
     inkscape:cx="-15.836331"
     inkscape:cy="16"
     inkscape:window-x="-8"
     inkscape:window-y="-8"
     inkscape:window-maximized="1"
     inkscape:current-layer="svg2985" />
  <g
     id="g2987"
     transform="matrix(0.01339511,0,0,-0.0133953,-3.3233058,39.650439)" />
  <path
     d="m 19.560308,31.981294 q 0.194231,-0.06028 0.274601,-0.274603 l 5.036566,-13.623027 q 0.08037,-0.214325 -0.02009,-0.31479 -0.100465,-0.100465 -0.314785,-0.04688 l -5.264283,1.661015 Q 18.468607,17.132597 18.013173,14.915675 17.557739,12.698751 17.517554,10.481828 17.477364,8.2649048 17.892617,6.3426782 18.307865,4.4204523 19.345986,2.7594334 20.384109,1.0984158 21.978128,1.0472441e-6 19.513426,0.26790715 17.283139,1.9557152 q -2.230288,1.6878082 -3.784121,4.5276137 -1.553833,2.8398049 -2.00257,6.6909561 -0.448737,3.85115 0.649663,8.44574 l -4.8088457,1.500274 q -0.2143219,0.06698 -0.2411121,0.214325 -0.026791,0.147348 0.1607413,0.281301 L 19.191943,31.90762 q 0.174136,0.133953 0.368365,0.07367 z"
     id="path2989"
     inkscape:connector-curvature="0" />
</svg>
