<?xml version="1.0" encoding="UTF-8" standalone="no"?>
<svg
   xmlns:dc="http://purl.org/dc/elements/1.1/"
   xmlns:cc="http://creativecommons.org/ns#"
   xmlns:rdf="http://www.w3.org/1999/02/22-rdf-syntax-ns#"
   xmlns:svg="http://www.w3.org/2000/svg"
   xmlns="http://www.w3.org/2000/svg"
   xmlns:sodipodi="http://sodipodi.sourceforge.net/DTD/sodipodi-0.dtd"
   xmlns:inkscape="http://www.inkscape.org/namespaces/inkscape"
   version="1.1"
   width="32px"
   height="32px"
   id="svg2985"
   inkscape:version="0.91 r13725"
   sodipodi:docname="arrowreturn_e.svg">
  <metadata
     id="metadata2995">
    <rdf:RDF>
      <cc:Work
         rdf:about="">
        <dc:format>image/svg+xml</dc:format>
        <dc:type
           rdf:resource="http://purl.org/dc/dcmitype/StillImage" />
        <dc:title />
      </cc:Work>
    </rdf:RDF>
  </metadata>
  <defs
     id="defs2993" />
  <sodipodi:namedview
     pagecolor="#ffffff"
     bordercolor="#666666"
     borderopacity="1"
     objecttolerance="10"
     gridtolerance="10"
     guidetolerance="10"
     inkscape:pageopacity="0"
     inkscape:pageshadow="2"
     inkscape:window-width="1280"
     inkscape:window-height="972"
     id="namedview2991"
     showgrid="false"
     inkscape:zoom="7.375"
     inkscape:cx="7.2823131"
     inkscape:cy="16"
     inkscape:window-x="-8"
     inkscape:window-y="-8"
     inkscape:window-maximized="1"
     inkscape:current-layer="svg2985" />
  <g
     id="g2987"
     transform="matrix(0.0133953,0,0,-0.01339511,-1.5257045,41.447956)" />
  <path
     d="m 31.981294,12.43969 q -0.06028,-0.19423 -0.274604,-0.2746 L 18.083663,7.1285244 q -0.214325,-0.08037 -0.31479,0.020093 -0.100464,0.1004633 -0.04688,0.3147852 l 1.661019,5.2642824 q -2.250413,0.803706 -4.467335,1.25914 Q 12.698754,14.44226 10.48183,14.482444 8.2649067,14.522634 6.3426817,14.107382 4.4204523,13.692133 2.7594334,12.654012 1.0984158,11.61589 8.9724408e-7,10.02187 0.267907,12.486572 1.9557152,14.716859 q 1.6878082,2.230288 4.5276135,3.784122 2.839804,1.553833 6.6909553,2.002569 3.85115,0.448737 8.44574,-0.649663 l 1.500274,4.808848 q 0.06698,0.214322 0.214325,0.241112 0.147348,0.02679 0.281301,-0.160741 L 31.90762,12.808055 q 0.133953,-0.174136 0.07367,-0.368365 z"
     id="path2989"
     inkscape:connector-curvature="0" />
</svg>
