<?xml version="1.0" encoding="UTF-8" standalone="no"?>
<svg
   xmlns:dc="http://purl.org/dc/elements/1.1/"
   xmlns:cc="http://creativecommons.org/ns#"
   xmlns:rdf="http://www.w3.org/1999/02/22-rdf-syntax-ns#"
   xmlns:svg="http://www.w3.org/2000/svg"
   xmlns="http://www.w3.org/2000/svg"
   xmlns:sodipodi="http://sodipodi.sourceforge.net/DTD/sodipodi-0.dtd"
   xmlns:inkscape="http://www.inkscape.org/namespaces/inkscape"
   version="1.1"
   width="32px"
   height="32px"
   id="svg2985"
   inkscape:version="0.91 r13725"
   sodipodi:docname="arrowreturnthick_n.svg">
  <metadata
     id="metadata2995">
    <rdf:RDF>
      <cc:Work
         rdf:about="">
        <dc:format>image/svg+xml</dc:format>
        <dc:type
           rdf:resource="http://purl.org/dc/dcmitype/StillImage" />
        <dc:title />
      </cc:Work>
    </rdf:RDF>
  </metadata>
  <defs
     id="defs2993" />
  <sodipodi:namedview
     pagecolor="#ffffff"
     bordercolor="#666666"
     borderopacity="1"
     objecttolerance="10"
     gridtolerance="10"
     guidetolerance="10"
     inkscape:pageopacity="0"
     inkscape:pageshadow="2"
     inkscape:window-width="1280"
     inkscape:window-height="972"
     id="namedview2991"
     showgrid="false"
     inkscape:zoom="7.375"
     inkscape:cx="-16.40678"
     inkscape:cy="16"
     inkscape:window-x="-8"
     inkscape:window-y="-8"
     inkscape:window-maximized="1"
     inkscape:current-layer="svg2985" />
  <g
     id="g2987"
     transform="matrix(0.0140598,0,0,-0.01405975,-4.1748007,39.093256)" />
  <path
     d="m 16.020349,0 q 0.246046,0 0.414764,0.2249561 L 27.528294,15.268893 q 0.168718,0.224956 0.08436,0.393673 -0.08436,0.168717 -0.365555,0.168717 l -6.35503,0 q -0.05624,0.660808 -0.154657,1.384886 -0.09842,0.724077 -0.358525,1.898066 -0.260106,1.17399 -0.625661,2.277681 -0.365555,1.10369 -0.998245,2.411247 -0.632692,1.307558 -1.434099,2.418278 -0.801409,1.110721 -1.975401,2.186292 -1.173995,1.075571 -2.565915,1.841828 -1.39192,0.766256 -3.2759334,1.244288 Q 7.6196206,31.97188 5.4684703,32 q 1.1810243,-0.492091 2.1370903,-1.300527 0.956066,-0.808436 1.588756,-1.778559 0.632692,-0.970123 1.1318154,-2.123023 0.499122,-1.1529 0.745168,-2.326889 0.246047,-1.17399 0.442884,-2.390158 0.196838,-1.216169 0.217927,-2.33392 0.02109,-1.11775 0.06327,-2.137082 0.04218,-1.019332 0,-1.806679 l -7.0298995,0 q -0.2952558,0 -0.3796144,-0.168717 -0.084359,-0.168717 0.098418,-0.393673 L 15.605585,0.2249561 Q 15.774302,0 16.020349,0 Z"
     id="path2989"
     inkscape:connector-curvature="0" />
</svg>
