<?xml version="1.0" encoding="UTF-8" standalone="no"?>
<svg
   xmlns:dc="http://purl.org/dc/elements/1.1/"
   xmlns:cc="http://creativecommons.org/ns#"
   xmlns:rdf="http://www.w3.org/1999/02/22-rdf-syntax-ns#"
   xmlns:svg="http://www.w3.org/2000/svg"
   xmlns="http://www.w3.org/2000/svg"
   xmlns:sodipodi="http://sodipodi.sourceforge.net/DTD/sodipodi-0.dtd"
   xmlns:inkscape="http://www.inkscape.org/namespaces/inkscape"
   version="1.1"
   width="32px"
   height="32px"
   id="svg2985"
   inkscape:version="0.91 r13725"
   sodipodi:docname="arrow_e_w.svg">
  <metadata
     id="metadata2995">
    <rdf:RDF>
      <cc:Work
         rdf:about="">
        <dc:format>image/svg+xml</dc:format>
        <dc:type
           rdf:resource="http://purl.org/dc/dcmitype/StillImage" />
        <dc:title />
      </cc:Work>
    </rdf:RDF>
  </metadata>
  <defs
     id="defs2993" />
  <sodipodi:namedview
     pagecolor="#ffffff"
     bordercolor="#666666"
     borderopacity="1"
     objecttolerance="10"
     gridtolerance="10"
     guidetolerance="10"
     inkscape:pageopacity="0"
     inkscape:pageshadow="2"
     inkscape:window-width="1280"
     inkscape:window-height="972"
     id="namedview2991"
     showgrid="false"
     inkscape:zoom="7.375"
     inkscape:cx="9.7421443"
     inkscape:cy="16"
     inkscape:window-x="-8"
     inkscape:window-y="-8"
     inkscape:window-maximized="1"
     inkscape:current-layer="svg2985" />
  <g
     id="g2987"
     transform="matrix(0.010333,0,0,-0.01033308,-3.6761382,34.317858)" />
  <path
     d="m 32,16.001531 c 0,-0.123997 -0.04435,-0.240245 -0.161453,-0.322909 L 21.053481,7.3475806 c -0.110219,-0.089553 -0.207951,-0.105914 -0.290615,-0.064582 -0.08266,0.041333 -0.129163,0.1205525 -0.129163,0.2583269 l 0,5.3602825 -0.51665,0 -8.266397,0 -0.484359,0 0,-5.3602825 c 0,-0.1377744 -0.0465,-0.2169946 -0.129163,-0.2583269 -0.08266,-0.041333 -0.180396,-0.024972 -0.290615,0.064582 L 0.16145299,15.678622 C 0.04434603,15.761282 -8.5e-8,15.877534 -8.5e-8,16.001531 c 0,0.123997 0.044349195,0.233355 0.161453075,0.322909 L 10.946519,24.655482 c 0.110219,0.08266 0.207951,0.102471 0.290615,0.06458 0.08266,-0.03789 0.129163,-0.113664 0.129163,-0.258327 l 0,-5.360282 0.484359,0 8.266397,0 0.51665,0 0,5.360282 c 0,0.144663 0.0465,0.220439 0.129163,0.258327 0.08266,0.03789 0.180396,0.01808 0.290615,-0.06458 L 31.838547,16.32444 C 31.955654,16.23488 32,16.125528 32,16.001531 Z"
     id="path2989"
     inkscape:connector-curvature="0" />
</svg>
