<?xml version="1.0" encoding="UTF-8" standalone="no"?>
<svg
   xmlns:dc="http://purl.org/dc/elements/1.1/"
   xmlns:cc="http://creativecommons.org/ns#"
   xmlns:rdf="http://www.w3.org/1999/02/22-rdf-syntax-ns#"
   xmlns:svg="http://www.w3.org/2000/svg"
   xmlns="http://www.w3.org/2000/svg"
   xmlns:sodipodi="http://sodipodi.sourceforge.net/DTD/sodipodi-0.dtd"
   xmlns:inkscape="http://www.inkscape.org/namespaces/inkscape"
   version="1.1"
   width="32px"
   height="32px"
   id="svg2985"
   inkscape:version="0.91 r13725"
   sodipodi:docname="arrowreturnthick_s.svg">
  <metadata
     id="metadata2995">
    <rdf:RDF>
      <cc:Work
         rdf:about="">
        <dc:format>image/svg+xml</dc:format>
        <dc:type
           rdf:resource="http://purl.org/dc/dcmitype/StillImage" />
        <dc:title />
      </cc:Work>
    </rdf:RDF>
  </metadata>
  <defs
     id="defs2993" />
  <sodipodi:namedview
     pagecolor="#ffffff"
     bordercolor="#666666"
     borderopacity="1"
     objecttolerance="10"
     gridtolerance="10"
     guidetolerance="10"
     inkscape:pageopacity="0"
     inkscape:pageshadow="2"
     inkscape:window-width="1280"
     inkscape:window-height="972"
     id="namedview2991"
     showgrid="false"
     inkscape:zoom="7.375"
     inkscape:cx="-16.40678"
     inkscape:cy="16"
     inkscape:window-x="-8"
     inkscape:window-y="-8"
     inkscape:window-maximized="1"
     inkscape:current-layer="svg2985" />
  <g
     id="g2987"
     transform="matrix(0.0140598,0,0,-0.01405975,-4.1748007,39.093256)" />
  <path
     d="m 15.979651,32 q -0.246048,0 -0.414765,-0.224956 L 4.4717048,16.731107 q -0.1687175,-0.224956 -0.084358,-0.393673 0.084358,-0.168717 0.3655546,-0.168717 l 6.3550286,0 q 0.05624,-0.660808 0.154659,-1.384886 0.09842,-0.724077 0.358524,-1.898067 0.260107,-1.173989 0.625662,-2.27768 Q 12.61233,9.5043937 13.24502,8.1968366 13.87771,6.8892794 14.679119,5.7785589 15.480528,4.6678383 16.65452,3.5922671 17.828515,2.516696 19.220435,1.7504394 20.612355,0.9841828 22.496368,0.5061511 24.380381,0.0281195 26.53153,0 25.350506,0.4920914 24.39444,1.3005272 23.438374,2.1089631 22.805682,3.0790861 22.172992,4.0492091 21.673869,5.202109 21.174747,6.3550088 20.9287,7.5289982 20.682654,8.7029877 20.485816,9.9191564 20.288979,11.135325 20.26789,12.253076 q -0.02109,1.11775 -0.06327,2.137082 -0.04218,1.019332 0,1.806679 l 7.0299,0 q 0.295254,0 0.379613,0.168717 0.08436,0.168717 -0.09842,0.393673 L 16.394415,31.775044 Q 16.225696,32 15.979651,32 Z"
     id="path2989"
     inkscape:connector-curvature="0" />
</svg>
