<?xml version="1.0" encoding="UTF-8" standalone="no"?>
<svg
   xmlns:dc="http://purl.org/dc/elements/1.1/"
   xmlns:cc="http://creativecommons.org/ns#"
   xmlns:rdf="http://www.w3.org/1999/02/22-rdf-syntax-ns#"
   xmlns:svg="http://www.w3.org/2000/svg"
   xmlns="http://www.w3.org/2000/svg"
   xmlns:sodipodi="http://sodipodi.sourceforge.net/DTD/sodipodi-0.dtd"
   xmlns:inkscape="http://www.inkscape.org/namespaces/inkscape"
   version="1.1"
   width="32px"
   height="32px"
   id="svg2985"
   inkscape:version="0.91 r13725"
   sodipodi:docname="arrowrefresh_w.svg">
  <metadata
     id="metadata2995">
    <rdf:RDF>
      <cc:Work
         rdf:about="">
        <dc:format>image/svg+xml</dc:format>
        <dc:type
           rdf:resource="http://purl.org/dc/dcmitype/StillImage" />
        <dc:title />
      </cc:Work>
    </rdf:RDF>
  </metadata>
  <defs
     id="defs2993" />
  <sodipodi:namedview
     pagecolor="#ffffff"
     bordercolor="#666666"
     borderopacity="1"
     objecttolerance="10"
     gridtolerance="10"
     guidetolerance="10"
     inkscape:pageopacity="0"
     inkscape:pageshadow="2"
     inkscape:window-width="1280"
     inkscape:window-height="972"
     id="namedview2991"
     showgrid="false"
     inkscape:zoom="7.375"
     inkscape:cx="-16.40678"
     inkscape:cy="16"
     inkscape:window-x="-8"
     inkscape:window-y="-8"
     inkscape:window-maximized="1"
     inkscape:current-layer="svg2985" />
  <g
     id="g2987"
     transform="matrix(0.01322434,0,0,-0.01322399,-1.7228576,33.244078)" />
  <path
     d="m 30.852136,15.882329 q 0,2.419991 -0.753787,4.83337 -0.753788,2.413378 -2.234914,4.463097 -1.824959,2.539007 -4.456603,4.165559 -2.631643,1.626551 -5.494712,2.155511 -2.86307,0.52896 -5.904669,-0.0529 Q 8.9658544,30.86511 6.3474341,29.159215 l -0.079345,-0.0529 -1.9572023,2.697695 Q 4.1521944,32.028818 3.9802779,31.995758 3.8083616,31.962698 3.7290155,31.711442 L 1.1767172,23.499349 q -0.079347,-0.26448 0.059509,-0.449616 0.1388556,-0.185136 0.4033424,-0.185136 l 8.5958224,-0.158688 q 0.264486,0 0.350445,0.158688 0.08596,0.158688 -0.07273,0.370272 l -1.9175277,2.644799 q 2.6184187,1.679447 5.6600157,1.877807 3.041599,0.19836 5.805486,-1.09098 2.763887,-1.289339 4.588846,-3.815122 2.234913,-3.094414 2.234913,-6.969044 0,-2.3142 -0.899255,-4.529219 Q 25.086325,9.1380914 23.406834,7.4586446 21.740567,5.7924215 19.571776,4.899802 17.402983,4.0071825 15.115172,3.9807345 12.615772,3.9542865 10.281677,4.906414 7.9475804,5.8585414 6.069723,8.0140523 5.5143007,8.6488036 4.5753726,10.037323 4.3373345,10.381147 3.854646,10.400983 3.3719576,10.420819 2.92233,10.116667 L 1.8247098,9.3761232 Q 1.3750823,9.0851954 1.2163902,8.6157437 1.0576981,8.1462919 1.2825119,7.8156924 1.5205501,7.4586446 2.181767,6.579249 2.8429841,5.6998535 3.0942465,5.3957017 4.5753726,3.6104627 6.7177174,2.3541834 8.8600604,1.0979041 10.982566,0.54249509 13.105073,-0.01291261 15.115172,3.1138675e-4 18.183219,0.02675939 21.072738,1.203696 q 2.889517,1.1769354 5.137656,3.4250141 1.309209,1.3091753 2.25475,2.8299345 0.94554,1.5207589 1.441453,3.0150704 0.495913,1.494311 0.720726,2.81671 0.224813,1.3224 0.224813,2.591904 z"
     id="path2989"
     inkscape:connector-curvature="0" />
</svg>
