<?xml version="1.0" encoding="UTF-8" standalone="no"?>
<svg
   xmlns:dc="http://purl.org/dc/elements/1.1/"
   xmlns:cc="http://creativecommons.org/ns#"
   xmlns:rdf="http://www.w3.org/1999/02/22-rdf-syntax-ns#"
   xmlns:svg="http://www.w3.org/2000/svg"
   xmlns="http://www.w3.org/2000/svg"
   xmlns:sodipodi="http://sodipodi.sourceforge.net/DTD/sodipodi-0.dtd"
   xmlns:inkscape="http://www.inkscape.org/namespaces/inkscape"
   version="1.1"
   width="32px"
   height="32px"
   id="svg2985"
   inkscape:version="0.91 r13725"
   sodipodi:docname="arrow_se_nw.svg">
  <metadata
     id="metadata2995">
    <rdf:RDF>
      <cc:Work
         rdf:about="">
        <dc:format>image/svg+xml</dc:format>
        <dc:type
           rdf:resource="http://purl.org/dc/dcmitype/StillImage" />
        <dc:title />
      </cc:Work>
    </rdf:RDF>
  </metadata>
  <defs
     id="defs2993" />
  <sodipodi:namedview
     pagecolor="#ffffff"
     bordercolor="#666666"
     borderopacity="1"
     objecttolerance="10"
     gridtolerance="10"
     guidetolerance="10"
     inkscape:pageopacity="0"
     inkscape:pageshadow="2"
     inkscape:window-width="1280"
     inkscape:window-height="972"
     id="namedview2991"
     showgrid="true"
     inkscape:zoom="10.429825"
     inkscape:cx="15.516063"
     inkscape:cy="11.209964"
     inkscape:window-x="-8"
     inkscape:window-y="-8"
     inkscape:window-maximized="1"
     inkscape:current-layer="svg2985">
    <inkscape:grid
       type="xygrid"
       id="grid3123" />
  </sodipodi:namedview>
  <g
     id="g2987"
     transform="matrix(0.01437786,0,0,-0.01437845,-7.2240748,37.064581)" />
  <path
     d="M 0.16506626,31.650061 C 0.04380336,31.52734 -0.02600114,31.368892 0.00905786,31.172538 L 2.5358048,12.378143 c 0.021495,-0.196439 0.1022409,-0.308222 0.2244758,-0.348161 0.1222406,-0.03994 0.2457421,-0.007 0.3804871,0.12936 L 8.3831779,17.464895 8.8945349,16.95958 17.076257,8.8745668 17.555656,8.4008371 12.313245,3.0952833 C 12.178495,2.958918 12.147044,2.8350289 12.18843,2.7132686 12.22984,2.5915061 12.342561,2.5121104 12.539234,2.4929491 L 31.361672,0.19051097 c 0.196756,-0.032716 0.354338,0.038971 0.475609,0.1617012 0.121262,0.1227304 0.184328,0.2743482 0.156008,0.4775219 L 29.466544,19.624131 c -0.02824,0.189622 -0.105606,0.304814 -0.224478,0.348161 -0.118876,0.04334 -0.239004,0.0138 -0.380485,-0.12936 l -5.242414,-5.305553 -0.479398,0.473733 -8.181721,8.085012 -0.511357,0.505314 5.242411,5.305552 c 0.141479,0.143177 0.16957,0.263666 0.124815,0.382017 -0.04476,0.118346 -0.160863,0.194336 -0.3508,0.220318 L 0.64068306,31.811757 c -0.2034956,0.02589 -0.3543381,-0.03896 -0.4756081,-0.161699 z"
     id="path2989"
     inkscape:connector-curvature="0" />
</svg>
