<?xml version="1.0" encoding="UTF-8" standalone="no"?>
<svg
   xmlns:dc="http://purl.org/dc/elements/1.1/"
   xmlns:cc="http://creativecommons.org/ns#"
   xmlns:rdf="http://www.w3.org/1999/02/22-rdf-syntax-ns#"
   xmlns:svg="http://www.w3.org/2000/svg"
   xmlns="http://www.w3.org/2000/svg"
   xmlns:sodipodi="http://sodipodi.sourceforge.net/DTD/sodipodi-0.dtd"
   xmlns:inkscape="http://www.inkscape.org/namespaces/inkscape"
   version="1.1"
   width="32px"
   height="32px"
   id="svg2985"
   inkscape:version="0.91 r13725"
   sodipodi:docname="arrowstop_e.svg">
  <metadata
     id="metadata2995">
    <rdf:RDF>
      <cc:Work
         rdf:about="">
        <dc:format>image/svg+xml</dc:format>
        <dc:type
           rdf:resource="http://purl.org/dc/dcmitype/StillImage" />
        <dc:title />
      </cc:Work>
    </rdf:RDF>
  </metadata>
  <defs
     id="defs2993" />
  <sodipodi:namedview
     pagecolor="#ffffff"
     bordercolor="#666666"
     borderopacity="1"
     objecttolerance="10"
     gridtolerance="10"
     guidetolerance="10"
     inkscape:pageopacity="0"
     inkscape:pageshadow="2"
     inkscape:window-width="1280"
     inkscape:window-height="972"
     id="namedview2991"
     showgrid="false"
     inkscape:zoom="14.75"
     inkscape:cx="10.448393"
     inkscape:cy="21.864627"
     inkscape:window-x="-8"
     inkscape:window-y="-8"
     inkscape:window-maximized="1"
     inkscape:current-layer="svg2985" />
  <g
     id="g2987"
     transform="matrix(0.01391304,0,0,-0.01391285,-6.6875507,37.732624)" />
  <path
     id="rect3133"
     style="fill:#ff0000;fill-opacity:1"
     d="m 32,4.2290307 0,23.5419413 -4.173913,0 0,-23.5419413 z m -19.311304,0.026201 q 0.166956,-0.083477 0.389565,0.09739 L 27.589565,15.580294 q 0.236522,0.166953 0.236522,0.417385 0,0.250431 -0.236522,0.431299 L 13.078261,27.656649 q -0.222609,0.166953 -0.389565,0.09043 -0.166957,-0.07652 -0.166957,-0.36869 l 0,-7.206858 -11.81217385,0 q -0.2782609,0 -0.493913,-0.215649 Q -5e-8,19.740237 -5e-8,19.46198 l 0,-6.928599 q 0,-0.278258 0.2156522,-0.493907 0.2156521,-0.215648 0.493913,-0.215648 l 11.81217385,0 0,-7.2068587 q 0,-0.2782569 0.166957,-0.3617341 z"
     inkscape:connector-curvature="0" />
</svg>
