<?xml version="1.0" encoding="UTF-8" standalone="no"?>
<svg
   xmlns:dc="http://purl.org/dc/elements/1.1/"
   xmlns:cc="http://creativecommons.org/ns#"
   xmlns:rdf="http://www.w3.org/1999/02/22-rdf-syntax-ns#"
   xmlns:svg="http://www.w3.org/2000/svg"
   xmlns="http://www.w3.org/2000/svg"
   xmlns:sodipodi="http://sodipodi.sourceforge.net/DTD/sodipodi-0.dtd"
   xmlns:inkscape="http://www.inkscape.org/namespaces/inkscape"
   version="1.1"
   width="32px"
   height="32px"
   id="svg2"
   inkscape:version="0.91 r13725"
   sodipodi:docname="arrow_n_w.svg">
  <metadata
     id="metadata12">
    <rdf:RDF>
      <cc:Work
         rdf:about="">
        <dc:format>image/svg+xml</dc:format>
        <dc:type
           rdf:resource="http://purl.org/dc/dcmitype/StillImage" />
        <dc:title />
      </cc:Work>
    </rdf:RDF>
  </metadata>
  <defs
     id="defs10" />
  <sodipodi:namedview
     pagecolor="#ffffff"
     bordercolor="#666666"
     borderopacity="1"
     objecttolerance="10"
     gridtolerance="10"
     guidetolerance="10"
     inkscape:pageopacity="0"
     inkscape:pageshadow="2"
     inkscape:window-width="1280"
     inkscape:window-height="972"
     id="namedview8"
     showgrid="false"
     inkscape:zoom="7.375"
     inkscape:cx="-39.525424"
     inkscape:cy="16"
     inkscape:window-x="-8"
     inkscape:window-y="-8"
     inkscape:window-maximized="1"
     inkscape:current-layer="svg2" />
  <g
     id="g4"
     transform="matrix(0.01959542,0,0,0.01967359,-11.611243,-0.74904818)" />
  <path
     d="m 31.436778,0.20733007 q 0.254091,0.246668 0.219212,0.6497687 L 28.797324,26.56635 q -0.03488,0.403099 -0.276308,0.496444 -0.241435,0.09334 -0.53787,-0.194442 L 20.670998,19.769792 9.0827108,31.706261 q -0.286635,0.295249 -0.710177,0.293731 -0.42354,-0.0015 -0.705863,-0.275593 L 0.63684283,24.899914 q -0.282321,-0.274075 -0.2963815,-0.697376 -0.0141012,-0.4233 0.2725772,-0.718549 L 12.201323,11.54752 4.8891738,4.4489624 Q 4.5927358,4.1611819 4.6788888,3.9170992 4.7650388,3.6730126 5.1528198,3.612504 L 30.780789,0.00746367 q 0.401901,-0.046801 0.655989,0.1998664 z"
     id="path6"
     inkscape:connector-curvature="0" />
</svg>
