<?xml version="1.0" encoding="UTF-8" standalone="no"?>
<svg
   xmlns:dc="http://purl.org/dc/elements/1.1/"
   xmlns:cc="http://creativecommons.org/ns#"
   xmlns:rdf="http://www.w3.org/1999/02/22-rdf-syntax-ns#"
   xmlns:svg="http://www.w3.org/2000/svg"
   xmlns="http://www.w3.org/2000/svg"
   xmlns:sodipodi="http://sodipodi.sourceforge.net/DTD/sodipodi-0.dtd"
   xmlns:inkscape="http://www.inkscape.org/namespaces/inkscape"
   version="1.1"
   width="32px"
   height="32px"
   id="svg2"
   inkscape:version="0.91 r13725"
   sodipodi:docname="asterisk.svg">
  <metadata
     id="metadata12">
    <rdf:RDF>
      <cc:Work
         rdf:about="">
        <dc:format>image/svg+xml</dc:format>
        <dc:type
           rdf:resource="http://purl.org/dc/dcmitype/StillImage" />
      </cc:Work>
    </rdf:RDF>
  </metadata>
  <defs
     id="defs10" />
  <sodipodi:namedview
     pagecolor="#ffffff"
     bordercolor="#666666"
     borderopacity="1"
     objecttolerance="10"
     gridtolerance="10"
     guidetolerance="10"
     inkscape:pageopacity="0"
     inkscape:pageshadow="2"
     inkscape:window-width="1280"
     inkscape:window-height="972"
     id="namedview8"
     showgrid="false"
     inkscape:zoom="7.375"
     inkscape:cx="-23.322034"
     inkscape:cy="16"
     inkscape:window-x="-8"
     inkscape:window-y="-8"
     inkscape:window-maximized="1"
     inkscape:current-layer="svg2" />
  <g
     id="g4"
     transform="matrix(0.016,0,0,0.016,-6.8,0.4)" />
  <path
     d="m 0,13.6 0,4.8 q 0,0.32 0.232,0.56 0.232,0.24 0.568,0.24 l 7.472,0 -4.832,4.832 q -0.24,0.24 -0.24,0.576 0,0.336 0.24,0.56 l 3.392,3.392 q 0.224,0.24 0.568,0.24 0.344,0 0.568,-0.24 l 4.832,-4.832 0,7.472 q 0,0.32 0.232,0.56 Q 13.264,32 13.6,32 l 4.8,0 q 0.336,0 0.568,-0.24 Q 19.2,31.52 19.2,31.2 l 0,-7.488 4.848,4.848 q 0.24,0.24 0.576,0.24 0.336,0 0.56,-0.24 l 3.392,-3.392 q 0.24,-0.24 0.24,-0.576 0,-0.336 -0.24,-0.576 L 23.76,19.2 l 7.44,0 q 0.336,0 0.568,-0.24 Q 32,18.72 32,18.4 l 0,-4.8 Q 32,13.264 31.768,13.032 31.536,12.8 31.2,12.8 l -7.456,0 4.832,-4.848 q 0.24,-0.224 0.24,-0.568 0,-0.344 -0.24,-0.568 L 25.184,3.424 q -0.24,-0.24 -0.576,-0.24 -0.336,0 -0.56,0.24 L 19.2,8.256 19.2,0.8 Q 19.2,0.464 18.968,0.232 18.736,0 18.4,0 L 13.6,0 Q 13.264,0 13.032,0.232 12.8,0.464 12.8,0.8 l 0,7.44 -4.832,-4.816 q -0.224,-0.24 -0.56,-0.24 -0.336,0 -0.576,0.24 L 3.44,6.8 q -0.224,0.24 -0.224,0.576 0,0.336 0.224,0.576 L 8.288,12.8 0.8,12.8 Q 0.464,12.8 0.232,13.032 0,13.264 0,13.6 Z"
     id="path6"
     inkscape:connector-curvature="0" />
</svg>
