<?xml version="1.0" encoding="UTF-8" standalone="no"?>
<svg
   xmlns:dc="http://purl.org/dc/elements/1.1/"
   xmlns:cc="http://creativecommons.org/ns#"
   xmlns:rdf="http://www.w3.org/1999/02/22-rdf-syntax-ns#"
   xmlns:svg="http://www.w3.org/2000/svg"
   xmlns="http://www.w3.org/2000/svg"
   xmlns:sodipodi="http://sodipodi.sourceforge.net/DTD/sodipodi-0.dtd"
   xmlns:inkscape="http://www.inkscape.org/namespaces/inkscape"
   version="1.1"
   width="32px"
   height="32px"
   id="svg2"
   inkscape:version="0.91 r13725"
   sodipodi:docname="ban.svg">
  <metadata
     id="metadata12">
    <rdf:RDF>
      <cc:Work
         rdf:about="">
        <dc:format>image/svg+xml</dc:format>
        <dc:type
           rdf:resource="http://purl.org/dc/dcmitype/StillImage" />
      </cc:Work>
    </rdf:RDF>
  </metadata>
  <defs
     id="defs10" />
  <sodipodi:namedview
     pagecolor="#ffffff"
     bordercolor="#666666"
     borderopacity="1"
     objecttolerance="10"
     gridtolerance="10"
     guidetolerance="10"
     inkscape:pageopacity="0"
     inkscape:pageshadow="2"
     inkscape:window-width="1280"
     inkscape:window-height="972"
     id="namedview8"
     showgrid="false"
     inkscape:zoom="7.375"
     inkscape:cx="-23.322034"
     inkscape:cy="16"
     inkscape:window-x="-8"
     inkscape:window-y="-8"
     inkscape:window-maximized="1"
     inkscape:current-layer="svg2" />
  <g
     id="g4"
     transform="matrix(0.01306122,0,0,-0.01306122,-0.82142857,23.02551)" />
  <path
     d="M 0,16 Q 0,13.831837 0.5746939,11.755102 1.1493878,9.6783673 2.1812245,7.9281633 3.2130612,6.1779592 4.6955102,4.6955102 6.1779592,3.2130612 7.928163,2.1812245 9.678367,1.1493878 11.755102,0.5746939 13.831837,0 16,0 q 2.168163,0 4.244898,0.5746939 2.076735,0.5746939 3.833469,1.6065306 1.756735,1.0318367 3.232653,2.5142857 1.475919,1.482449 2.507756,3.2326531 1.031836,1.750204 1.60653,3.8269387 Q 32,13.831837 32,16 q 0,2.168163 -0.574694,4.244898 -0.574694,2.076735 -1.60653,3.833469 -1.031837,1.756735 -2.507756,3.232653 -1.475918,1.475919 -3.232653,2.507756 -1.756734,1.031836 -3.833469,1.60653 Q 18.168163,32 16,32 13.831837,32 11.755102,31.425306 9.678367,30.850612 7.928163,29.818776 6.1779592,28.786939 4.6955102,27.31102 3.2130612,25.835102 2.1812245,24.078367 1.1493878,22.321633 0.5746939,20.244898 0,18.168163 0,16 Z m 4.244898,0 q 0,3.382857 1.8285714,6.269388 L 22.269388,6.0734694 Q 19.382857,4.244898 16,4.244898 q -2.390204,0 -4.564898,0.9338775 Q 9.260408,6.1126531 7.686531,7.6865306 6.1126531,9.2604082 5.1787755,11.435102 4.244898,13.609796 4.244898,16 Z m 5.485714,9.926531 Q 12.617143,27.755102 16,27.755102 q 2.390204,0 4.564898,-0.933878 2.174694,-0.933877 3.748571,-2.507755 1.573878,-1.573877 2.507755,-3.748571 Q 27.755102,18.390204 27.755102,16 q 0,-3.382857 -1.828571,-6.2693878 z"
     id="path6"
     inkscape:connector-curvature="0" />
</svg>
