<?xml version="1.0" encoding="UTF-8" standalone="no"?>
<svg
   xmlns:dc="http://purl.org/dc/elements/1.1/"
   xmlns:cc="http://creativecommons.org/ns#"
   xmlns:rdf="http://www.w3.org/1999/02/22-rdf-syntax-ns#"
   xmlns:svg="http://www.w3.org/2000/svg"
   xmlns="http://www.w3.org/2000/svg"
   xmlns:sodipodi="http://sodipodi.sourceforge.net/DTD/sodipodi-0.dtd"
   xmlns:inkscape="http://www.inkscape.org/namespaces/inkscape"
   version="1.1"
   width="32px"
   height="32px"
   id="svg2"
   inkscape:version="0.91 r13725"
   sodipodi:docname="barcode.svg">
  <metadata
     id="metadata12">
    <rdf:RDF>
      <cc:Work
         rdf:about="">
        <dc:format>image/svg+xml</dc:format>
        <dc:type
           rdf:resource="http://purl.org/dc/dcmitype/StillImage" />
      </cc:Work>
    </rdf:RDF>
  </metadata>
  <defs
     id="defs10" />
  <sodipodi:namedview
     pagecolor="#ffffff"
     bordercolor="#666666"
     borderopacity="1"
     objecttolerance="10"
     gridtolerance="10"
     guidetolerance="10"
     inkscape:pageopacity="0"
     inkscape:pageshadow="2"
     inkscape:window-width="1280"
     inkscape:window-height="972"
     id="namedview8"
     showgrid="false"
     inkscape:zoom="7.375"
     inkscape:cx="-0.20338983"
     inkscape:cy="16"
     inkscape:window-x="-8"
     inkscape:window-y="-8"
     inkscape:window-maximized="1"
     inkscape:current-layer="svg2" />
  <g
     id="g4"
     transform="matrix(0.01333333,0,0,-0.01333333,-1.3333333,33.333333)" />
  <path
     d="m 0,32 0,-2.666667 4,0 L 4,32 0,32 Z m 0,-4 0,-28 2.6666667,0 0,28 L 0,28 Z m 4,0 0,-28 2.666667,0 0,28 L 4,28 Z m 1.3333333,4 0,-2.666667 L 8,29.333333 8,32 5.3333333,32 Z m 3.9999997,0 0,-2.666667 2.666667,0 L 12,32 9.333333,32 Z m 0,-4 0,-28 5.333334,0 0,28 -5.333334,0 z m 4,4 0,-2.666667 2.666667,0 L 16,32 13.333333,32 Z M 16,28 16,0 l 2.666667,0 0,28 L 16,28 Z m 1.333333,4 0,-2.666667 2.666667,0 L 20,32 17.333333,32 Z m 4,0 0,-2.666667 2.666667,0 L 24,32 21.333333,32 Z m 0,-4 0,-28 L 24,0 l 0,28 -2.666667,0 z m 4,0 0,-28 L 28,0 l 0,28 -2.666667,0 z m 1.333334,4 0,-2.666667 5.333333,0 L 32,32 26.666667,32 Z m 2.666666,-4 0,-28 L 32,0 l 0,28 -2.666667,0 z"
     id="path6"
     inkscape:connector-curvature="0" />
</svg>
