<?xml version="1.0" encoding="UTF-8" standalone="no"?>
<svg
   xmlns:dc="http://purl.org/dc/elements/1.1/"
   xmlns:cc="http://creativecommons.org/ns#"
   xmlns:rdf="http://www.w3.org/1999/02/22-rdf-syntax-ns#"
   xmlns:svg="http://www.w3.org/2000/svg"
   xmlns="http://www.w3.org/2000/svg"
   xmlns:sodipodi="http://sodipodi.sourceforge.net/DTD/sodipodi-0.dtd"
   xmlns:inkscape="http://www.inkscape.org/namespaces/inkscape"
   version="1.1"
   width="32px"
   height="32px"
   id="svg2"
   inkscape:version="0.91 r13725"
   sodipodi:docname="basketball.svg">
  <metadata
     id="metadata12">
    <rdf:RDF>
      <cc:Work
         rdf:about="">
        <dc:format>image/svg+xml</dc:format>
        <dc:type
           rdf:resource="http://purl.org/dc/dcmitype/StillImage" />
      </cc:Work>
    </rdf:RDF>
  </metadata>
  <defs
     id="defs10" />
  <sodipodi:namedview
     pagecolor="#ffffff"
     bordercolor="#666666"
     borderopacity="1"
     objecttolerance="10"
     gridtolerance="10"
     guidetolerance="10"
     inkscape:pageopacity="0"
     inkscape:pageshadow="2"
     inkscape:window-width="1280"
     inkscape:window-height="972"
     id="namedview8"
     showgrid="false"
     inkscape:zoom="7.375"
     inkscape:cx="-0.20338983"
     inkscape:cy="16"
     inkscape:window-x="-8"
     inkscape:window-y="-8"
     inkscape:window-maximized="1"
     inkscape:current-layer="svg2" />
  <g
     id="g4"
     transform="matrix(0.01415929,0,0,-0.01415929,-2.2380531,34.238053)" />
  <path
     d="M 0,15.306195 Q 0.1132743,12.672566 1.0761062,10.180531 2.0389381,7.6884956 3.8088496,5.6070797 L 10.661947,12.460177 Q 9.755752,13.224779 8.899115,13.706195 8.042478,14.187611 7.079646,14.40708 6.116814,14.626549 5.529204,14.690266 4.9415929,14.753982 3.780531,14.810619 1.3734513,14.923894 0,15.306195 Z m 0.084956,2.619469 q 1.3309734,-0.453098 3.8088495,-0.566372 0.9911505,-0.04248 1.5575215,-0.09204 0.566372,-0.04956 1.564602,-0.233629 0.99823,-0.18407 1.755752,-0.481416 0.757523,-0.297345 1.748673,-0.877876 0.99115,-0.580531 1.939823,-1.40177 L 14.20177,16 3.8088496,26.39292 Q 0.6654867,22.725664 0.0849558,17.925664 Z M 5.60708,28.19115 16,17.79823 l 1.727434,1.741593 q -0.821239,0.948673 -1.40177,1.939823 -0.580531,0.99115 -0.877876,1.748673 -0.297346,0.757522 -0.481416,1.755752 -0.184071,0.99823 -0.233629,1.564602 -0.04956,0.566371 -0.09203,1.557522 -0.113274,2.477876 -0.566372,3.808849 -4.8,-0.580531 -8.467256,-3.723894 z m 0,-24.3823004 Q 7.688496,2.0389381 10.180531,1.0761062 12.672566,0.1132743 15.306195,0 14.923894,1.3734513 14.810619,3.780531 14.753982,4.9415929 14.690265,5.5292035 14.626549,6.1168142 14.40708,7.079646 14.187611,8.0424779 13.706195,8.899115 13.224779,9.7557522 12.460177,10.661947 Z m 8.665486,8.6513274 q 0.821239,-0.948673 1.40177,-1.939823 0.580531,-0.9911505 0.877876,-1.7486726 0.297346,-0.7575221 0.481416,-1.7557522 0.184071,-0.9982301 0.233629,-1.5646018 0.04956,-0.5663716 0.09203,-1.5575221 0.113274,-2.4778761 0.566372,-3.8088495 4.8,0.5805309 8.467256,3.7238938 L 16,14.20177 Z M 16.693805,32 q 0.382301,-1.373451 0.495576,-3.780531 0.05664,-1.146903 0.120354,-1.741593 0.06372,-0.59469 0.283185,-1.550442 0.219469,-0.955753 0.700885,-1.81239 0.481416,-0.856637 1.246018,-1.776991 L 26.39292,28.19115 Q 24.311504,29.961062 21.819469,30.923894 19.327434,31.886726 16.693805,32 Z M 17.79823,16 28.19115,5.6070797 q 3.143363,3.6672566 3.723894,8.4672563 -1.330973,0.453098 -3.808849,0.566372 -0.991151,0.04248 -1.557522,0.09203 -0.566372,0.04956 -1.564602,0.233629 -0.99823,0.18407 -1.755752,0.481416 -0.757523,0.297345 -1.748673,0.877876 -0.99115,0.580531 -1.939823,1.40177 z m 3.539823,3.539823 q 0.906195,-0.764602 1.762832,-1.246018 0.856637,-0.481416 1.819469,-0.700885 0.962832,-0.219469 1.550442,-0.283185 0.587611,-0.06372 1.748673,-0.120354 2.40708,-0.113275 3.780531,-0.495576 -0.113274,2.633629 -1.076106,5.125664 -0.962832,2.492035 -2.732744,4.573451 z"
     id="path6"
     inkscape:connector-curvature="0" />
</svg>
