<?xml version="1.0" encoding="UTF-8" standalone="no"?>
<svg
   xmlns:dc="http://purl.org/dc/elements/1.1/"
   xmlns:cc="http://creativecommons.org/ns#"
   xmlns:rdf="http://www.w3.org/1999/02/22-rdf-syntax-ns#"
   xmlns:svg="http://www.w3.org/2000/svg"
   xmlns="http://www.w3.org/2000/svg"
   xmlns:sodipodi="http://sodipodi.sourceforge.net/DTD/sodipodi-0.dtd"
   xmlns:inkscape="http://www.inkscape.org/namespaces/inkscape"
   version="1.1"
   width="32px"
   height="32px"
   id="svg2"
   inkscape:version="0.91 r13725"
   sodipodi:docname="bathrobe.svg">
  <metadata
     id="metadata12">
    <rdf:RDF>
      <cc:Work
         rdf:about="">
        <dc:format>image/svg+xml</dc:format>
        <dc:type
           rdf:resource="http://purl.org/dc/dcmitype/StillImage" />
      </cc:Work>
    </rdf:RDF>
  </metadata>
  <defs
     id="defs10" />
  <sodipodi:namedview
     pagecolor="#ffffff"
     bordercolor="#666666"
     borderopacity="1"
     objecttolerance="10"
     gridtolerance="10"
     guidetolerance="10"
     inkscape:pageopacity="0"
     inkscape:pageshadow="2"
     inkscape:window-width="1280"
     inkscape:window-height="972"
     id="namedview8"
     showgrid="false"
     inkscape:zoom="7.375"
     inkscape:cx="-0.20338983"
     inkscape:cy="16"
     inkscape:window-x="-8"
     inkscape:window-y="-8"
     inkscape:window-maximized="1"
     inkscape:current-layer="svg2" />
  <g
     id="g4"
     transform="matrix(0.0128,0,0,-0.0128,-4.1,22.74)" />
  <path
     d="M 2.56,19.2 8.96,3.84 13.44,1.28 q 0,-0.0512 0.0064,-0.1408 0.0064,-0.0896 0.0768,-0.3072 0.0704,-0.2176 0.192,-0.384 0.1216,-0.1664 0.384,-0.3072 Q 14.3616,0 14.72,0 l 2.56,0 q 0.5632,0 0.8832,0.32 0.32,0.32 0.3584,0.64 l 0.0384,0.32 4.48,2.56 6.4,15.36 -3.8016,0 -3.8784,-7.68 0,5.12 2.624,12.6848 L 20.48,30.72 16.64,19.84 16.64,32 7.4624,31.5008 10.24,16.64 l 0,-5.12 -3.84,7.68 -3.84,0 z M 13.2224,2.9056 16,10.496 18.7776,2.9056 Q 18.5216,2.7136 17.6768,2.464 16.832,2.2144 16,2.2144 q -0.832,0 -1.6768,0.2496 -0.8448,0.2496 -1.1008,0.4416 z m 4.416,16.9088 q 0.0128,0.0256 0.0256,0.064 0.0128,0.0384 0.0832,0.1664 0.0704,0.128 0.1664,0.2176 0.096,0.0896 0.2752,0.2176 0.1792,0.128 0.4032,0.1792 0.224,0.0512 0.5504,0.0896 0.3264,0.0384 0.7232,-0.0512 0.5248,-0.0768 0.9152,-0.2752 0.3904,-0.1984 0.5568,-0.416 0.1664,-0.2176 0.2624,-0.4288 0.096,-0.2112 0.1088,-0.352 l 0,-0.128 z"
     id="path6"
     inkscape:connector-curvature="0" />
</svg>
