<?xml version="1.0" encoding="UTF-8" standalone="no"?>
<svg
   xmlns:dc="http://purl.org/dc/elements/1.1/"
   xmlns:cc="http://creativecommons.org/ns#"
   xmlns:rdf="http://www.w3.org/1999/02/22-rdf-syntax-ns#"
   xmlns:svg="http://www.w3.org/2000/svg"
   xmlns="http://www.w3.org/2000/svg"
   xmlns:sodipodi="http://sodipodi.sourceforge.net/DTD/sodipodi-0.dtd"
   xmlns:inkscape="http://www.inkscape.org/namespaces/inkscape"
   version="1.1"
   width="32px"
   height="32px"
   id="svg2"
   inkscape:version="0.91 r13725"
   sodipodi:docname="beach_umbrella.svg">
  <metadata
     id="metadata12">
    <rdf:RDF>
      <cc:Work
         rdf:about="">
        <dc:format>image/svg+xml</dc:format>
        <dc:type
           rdf:resource="http://purl.org/dc/dcmitype/StillImage" />
      </cc:Work>
    </rdf:RDF>
  </metadata>
  <defs
     id="defs10" />
  <sodipodi:namedview
     pagecolor="#ffffff"
     bordercolor="#666666"
     borderopacity="1"
     objecttolerance="10"
     gridtolerance="10"
     guidetolerance="10"
     inkscape:pageopacity="0"
     inkscape:pageshadow="2"
     inkscape:window-width="1280"
     inkscape:window-height="972"
     id="namedview8"
     showgrid="false"
     inkscape:zoom="7.375"
     inkscape:cx="-23.322034"
     inkscape:cy="16"
     inkscape:window-x="-8"
     inkscape:window-y="-8"
     inkscape:window-maximized="1"
     inkscape:current-layer="svg2" />
  <g
     id="g4"
     transform="matrix(0.01344097,0,0,-0.01344097,-1.4634767,33.664831)" />
  <path
     d="M 0.21102162,10.118108 Q 0.57392782,9.2982087 0.97715682,8.6127193 2.5766319,5.84388 5.0564908,3.9016602 7.5363496,1.9594404 10.379115,1.0857775 q 2.842764,-0.87366282 5.96779,-0.68548932 3.125024,0.1881735 5.961068,1.53227032 l 0.725812,-1.25001002 q 0.282261,-0.4838748 0.83334,-0.6317254 0.551081,-0.1478493 1.048397,0.1344096 0.483875,0.2822603 0.631724,0.83334002 0.147851,0.5510797 -0.134408,1.0483955 l -0.725814,1.2500099 q 2.580667,1.7876487 4.307831,4.3951964 1.727165,2.6075475 2.392493,5.5040745 0.665328,2.896529 0.228496,6.014833 -0.436832,3.118305 -2.036306,5.887144 -0.443553,0.766135 -0.860222,1.317215 0.107527,-1.814531 -0.739254,-3.434167 -0.846781,-1.619637 -2.459698,-2.547064 -1.276891,-0.739253 -2.755397,-0.83334 -1.478507,-0.09409 -2.7554,0.41667 Q 19.902041,18.357419 19.021656,16.892354 18.141273,15.42729 16.622444,14.540186 15.117057,13.666522 13.396612,13.626199 11.676168,13.585876 10.224543,14.32513 9.9826066,12.913828 9.1761476,11.731022 8.3696896,10.548219 7.1062386,9.8224064 5.3992353,8.8680977 3.5645432,8.968905 1.729851,9.0697122 0.21102162,10.118108 Z M 4.9556835,32 13.947693,16.435361 q 0.69893,0.147851 1.317215,0.497316 0.604842,0.362906 1.061836,0.860222 L 8.1277526,32 4.9556835,32 Z M 5.7083776,6.5965742 6.1519296,6.7444248 q 1.182805,0.3763471 1.908617,0.6922099 0.725814,0.3158627 1.391142,0.8131785 0.6653284,0.4973158 1.1559234,1.1559232 0.490595,0.6586076 1.041675,1.6935606 l 0.215055,0.403229 0.241938,-0.389788 Q 12.926179,9.8089654 13.860326,8.7404085 14.794473,7.6718516 15.600932,7.0132442 16.407387,6.3546368 17.25417,5.8640415 18.100951,5.3734462 18.699073,5.1382292 19.297197,4.9030123 19.861717,4.7686026 20.426238,4.6341929 20.634573,4.6140315 20.842908,4.59387 20.936995,4.59387 l 0.107527,-0.5107568 q -2.755398,-1.2365689 -5.752733,-1.2365689 -2.553785,0 -4.939556,0.8938243 -2.3857724,0.8938243 -4.2943904,2.5605043 z m 15.9275474,10.5511578 0.456993,-0.02688 q 0.120968,0 0.336024,-0.0067 0.215056,-0.0067 0.309143,-0.0067 1.854853,0 3.044379,0.55108 1.189525,0.55108 2.829324,2.043027 l 0.336024,0.322583 0.09409,-0.456993 Q 29.821475,15.548259 28.309366,11.717581 26.797257,7.8869071 23.463897,5.4944149 L 23.08755,5.8304391 q 0.08065,0.1075277 0.235216,0.5040362 0.154572,0.3965086 0.342745,1.4381836 0.188173,1.0416749 0.168012,2.2513621 -0.02016,1.209686 -0.504036,3.024216 -0.483875,1.814532 -1.478507,3.682825 z"
     id="path6"
     inkscape:connector-curvature="0" />
</svg>
