<?xml version="1.0" encoding="UTF-8" standalone="no"?>
<svg
   xmlns:dc="http://purl.org/dc/elements/1.1/"
   xmlns:cc="http://creativecommons.org/ns#"
   xmlns:rdf="http://www.w3.org/1999/02/22-rdf-syntax-ns#"
   xmlns:svg="http://www.w3.org/2000/svg"
   xmlns="http://www.w3.org/2000/svg"
   xmlns:sodipodi="http://sodipodi.sourceforge.net/DTD/sodipodi-0.dtd"
   xmlns:inkscape="http://www.inkscape.org/namespaces/inkscape"
   version="1.1"
   width="32px"
   height="32px"
   id="svg2"
   inkscape:version="0.91 r13725"
   sodipodi:docname="beer.svg">
  <metadata
     id="metadata12">
    <rdf:RDF>
      <cc:Work
         rdf:about="">
        <dc:format>image/svg+xml</dc:format>
        <dc:type
           rdf:resource="http://purl.org/dc/dcmitype/StillImage" />
      </cc:Work>
    </rdf:RDF>
  </metadata>
  <defs
     id="defs10" />
  <sodipodi:namedview
     pagecolor="#ffffff"
     bordercolor="#666666"
     borderopacity="1"
     objecttolerance="10"
     gridtolerance="10"
     guidetolerance="10"
     inkscape:pageopacity="0"
     inkscape:pageshadow="2"
     inkscape:window-width="1280"
     inkscape:window-height="972"
     id="namedview8"
     showgrid="false"
     inkscape:zoom="7.375"
     inkscape:cx="-23.322034"
     inkscape:cy="16"
     inkscape:window-x="-8"
     inkscape:window-y="-8"
     inkscape:window-maximized="1"
     inkscape:current-layer="svg2" />
  <g
     id="g4"
     transform="matrix(0.01338358,0,0,-0.01338352,-2.8924533,22.541366)" />
  <path
     d="m 0.73341734,7.4546215 q 0,-1.873693 1.21790576,-3.1919699 1.2179058,-1.3182769 2.9443876,-1.3182769 1.0037685,0 1.8603176,0.281054 0.240905,-0.9100795 0.70933,-1.6060226 Q 8.6029623,0 10.650649,0 q 2.904238,0 4.63072,1.9539941 1.231289,-0.7494772 2.516113,-0.7494772 0.41489,0 0.816399,0.080301 1.780015,0.3747386 2.797168,2.0476788 0.695946,-0.3881222 1.53242,-0.2877457 0.836472,0.1003764 1.559187,0.4684232 0.722712,0.3680469 1.237981,1.0037641 0.515268,0.6357173 0.568802,1.3048934 0.04015,0.4416562 0.04015,0.7963195 0,0.3546633 -0.04015,0.6223338 -0.04015,0.2676704 -0.07361,0.4483479 -0.03346,0.1806776 -0.133837,0.3680469 -0.100376,0.1873693 -0.15391,0.2743622 -0.05353,0.086993 -0.187371,0.2743621 -0.307822,0.3881222 -0.876625,0.7762443 -0.568802,0.3881221 -0.983693,0.5888749 l -0.41489,0.2007527 0,0.414889 3.493114,0 q 2.382277,0 3.573416,1.552489 0.562111,0.749477 0.675871,1.90046 0.11376,1.150983 -0.107069,2.475952 -0.220829,1.324968 -0.756172,3.278962 -1.592646,5.821832 -6.87916,6.691761 l 0,2.837307 q 0,1.110832 -0.816399,1.893768 Q 21.852706,32 20.728485,32 L 4.6681899,32 Q 3.5707363,32 2.8212558,31.223756 2.0717753,30.447512 2.0717753,29.323296 l 0,-17.626098 q 0,-0.789628 -0.3345895,-1.55918 Q 1.4025963,9.3684651 1.0680068,8.6925972 0.73341734,8.0167294 0.73341734,7.4546215 Z m 2.77040106,0.046842 q 0.1472194,0.6758679 0.4215828,1.3584275 0.2743634,0.6825596 0.5487268,1.612714 0.2743633,0.930155 0.2743633,1.706399 l 0,4.93852 q 0,0.535341 0.3546649,0.943538 0.3546649,0.408198 0.9836931,0.408198 0.629028,0 0.983693,-0.401506 0.354665,-0.401506 0.354665,-0.936846 l 0,-3.827688 0.04015,-0.160602 q 0.02677,-0.04015 0.0803,0.107068 0.01338,0.02677 0.01338,0.04015 0.361357,1.124216 1.271441,1.124216 0.468425,0 0.709329,-0.528649 0.240905,-0.528649 0.294439,-1.25136 0.04015,-0.709326 0.2810547,-1.318276 0.240905,-0.608951 0.803014,-1.097449 0.562111,-0.4884987 1.37851,-0.6089504 0.187369,-0.026767 1.244673,-0.060226 1.057302,-0.033459 2.308668,-0.080301 1.251364,-0.046842 2.743632,-0.2275199 1.49227,-0.1806775 2.683409,-0.4617315 1.191138,-0.2810539 1.994154,-0.8230865 0.803014,-0.5420327 0.803014,-1.2781264 0,-0.9368465 -0.816398,-1.3249686 Q 22.441583,4.9652866 21.484657,5.1392724 20.527732,5.3132582 20.059306,5.821832 20.032539,5.741531 19.979005,5.6076956 19.925471,5.4738604 19.7381,5.1258888 19.550731,4.7779173 19.336593,4.4901716 19.122455,4.2024259 18.781174,3.9280637 18.439893,3.6537015 18.065153,3.5600168 17.061384,3.3726475 16.18476,3.9949813 15.308136,4.617315 14.812943,5.9021331 14.076846,2.3554999 10.87817,2.4893351 q -0.816398,0.040151 -1.3918917,0.475115 -0.575494,0.4349645 -0.82309,1.0372229 -0.247597,0.6022585 -0.37474,1.1911335 -0.127144,0.5888749 -0.127144,1.0037641 l 0,0.4148891 -0.107068,-0.1070681 q 0,0 -0.287747,-0.2475952 Q 7.4787413,6.0092012 7.3181393,5.9155165 7.1575353,5.8218319 6.7560283,5.5876202 6.3545213,5.3534086 6.1069248,5.3266416 5.8593285,5.2998745 5.4176703,5.2396487 4.9760122,5.1794228 4.7083406,5.3801757 3.9053258,5.7549143 3.6309624,6.2902551 3.356599,6.825596 3.5038184,7.5014638 Z M 6.0868493,27.315767 q 0,0.548725 0.394816,0.943539 0.394815,0.394814 0.943542,0.394814 0.548727,0 0.943542,-0.394814 0.394816,-0.394814 0.394816,-0.943539 l 0,-9.76997 q 0,0.99038 -0.722713,1.82685 -0.722713,0.836471 -1.954003,0.836471 l 0,7.106649 z m 5.3534317,0 q 0,0.548725 0.394815,0.943539 0.394817,0.394814 0.943543,0.394814 0.548727,0 0.943543,-0.394814 0.394815,-0.394814 0.394815,-0.943539 l 0,-15.47135 q -0.200754,0.02677 -0.52196,0.08699 -0.321205,0.06023 -0.916775,0.26767 -0.595569,0.207445 -0.742788,0.461732 -0.495193,0.856545 -0.495193,2.676704 l 0,11.978251 z m 5.353433,0 q 0,0.548725 0.394815,0.943539 0.394815,0.394814 0.943542,0.394814 0.548727,0 0.943543,-0.394814 0.394815,-0.394814 0.394815,-0.943539 l 0,-16.127143 q -1.378508,0.200753 -2.676715,0.361355 l 0,15.765788 z m 6.69179,-3.546633 q 0.495192,-0.160602 0.910082,-0.334588 0.414892,-0.173986 0.997078,-0.542032 0.582186,-0.368047 1.037227,-0.816395 0.455042,-0.448348 0.883316,-1.17775 0.428274,-0.729402 0.669179,-1.612714 1.324975,-4.831452 0.803015,-5.527395 -0.37474,-0.49519 -1.445427,-0.49519 l -3.85447,0 0,10.506064 z"
     id="path6"
     inkscape:connector-curvature="0" />
</svg>
