<?xml version="1.0" encoding="UTF-8" standalone="no"?>
<svg
   xmlns:dc="http://purl.org/dc/elements/1.1/"
   xmlns:cc="http://creativecommons.org/ns#"
   xmlns:rdf="http://www.w3.org/1999/02/22-rdf-syntax-ns#"
   xmlns:svg="http://www.w3.org/2000/svg"
   xmlns="http://www.w3.org/2000/svg"
   xmlns:sodipodi="http://sodipodi.sourceforge.net/DTD/sodipodi-0.dtd"
   xmlns:inkscape="http://www.inkscape.org/namespaces/inkscape"
   version="1.1"
   width="32px"
   height="32px"
   id="svg2"
   inkscape:version="0.91 r13725"
   sodipodi:docname="bicycle.svg">
  <metadata
     id="metadata12">
    <rdf:RDF>
      <cc:Work
         rdf:about="">
        <dc:format>image/svg+xml</dc:format>
        <dc:type
           rdf:resource="http://purl.org/dc/dcmitype/StillImage" />
      </cc:Work>
    </rdf:RDF>
  </metadata>
  <defs
     id="defs10" />
  <sodipodi:namedview
     pagecolor="#ffffff"
     bordercolor="#666666"
     borderopacity="1"
     objecttolerance="10"
     gridtolerance="10"
     guidetolerance="10"
     inkscape:pageopacity="0"
     inkscape:pageshadow="2"
     inkscape:window-width="1280"
     inkscape:window-height="972"
     id="namedview8"
     showgrid="false"
     inkscape:zoom="7.375"
     inkscape:cx="-0.20338983"
     inkscape:cy="16"
     inkscape:window-x="-8"
     inkscape:window-y="-8"
     inkscape:window-maximized="1"
     inkscape:current-layer="svg2" />
  <g
     id="g4"
     transform="matrix(0.01029601,0,0,-0.01029597,3.1163707,21.774103)" />
  <path
     d="m 0,20.059225 q 0,-1.688538 0.8339768,-3.119679 0.8339769,-1.43114 2.2651223,-2.265113 1.4311454,-0.833974 3.1196911,-0.833974 0.5148005,0 1.1119691,0.10296 l 1.5135135,-4.2110521 -1.5958816,0 q -0.4221364,0 -0.7258687,-0.303731 Q 6.2187902,9.1249048 6.2187902,8.70277 q 0,-0.4221347 0.3037323,-0.7258658 0.3037323,-0.3037311 0.7258687,-0.3037311 l 2.7490348,0 q 0.710425,0 1.070785,0.4324307 0.36036,0.4324308 0.164736,1.0810767 l -0.56628,1.5752825 9.111969,0 1.256113,-3.0887899 -1.431145,0 q -0.422137,0 -0.725869,-0.1647354 -0.303732,-0.1647356 -0.303732,-0.3809509 0,-0.2162154 0.303732,-0.4272828 0.303732,-0.2110673 0.715573,-0.2831391 L 23.732304,5.737531 q 0.422136,-0.072072 0.72072,0.1904754 0.298585,0.2625472 0.298585,0.684682 0,0.4324307 -0.303733,0.7464576 -0.303732,0.3140271 -0.725868,0.3140271 l -0.545689,0 q -0.03089,0.2265113 -0.03089,0.2368073 l -1.276705,3.4388536 1.719434,2.893168 q 1.081081,-0.401543 2.19305,-0.401543 1.688545,0 3.119691,0.833974 1.431145,0.833973 2.265122,2.265113 Q 32,18.370687 32,20.059225 q 0,1.68854 -0.833977,3.119679 -0.833977,1.431139 -2.265122,2.265114 -1.431146,0.833974 -3.119691,0.833974 -2.296011,0 -4.030888,-1.492916 -1.734878,-1.492916 -2.095238,-3.727142 l -2.110682,0 q -0.411841,0 -0.731017,-0.298583 L 9.647362,13.58306 9.2664093,14.643545 q 1.4414417,0.813381 2.3063067,2.259965 0.864864,1.446585 0.864864,3.155715 0,1.68854 -0.833976,3.119679 -0.833977,1.431139 -2.2651227,2.265114 -1.4311454,0.833974 -3.1196911,0.833974 -1.6885457,0 -3.1196911,-0.833974 Q 1.6679537,24.610043 0.8339768,23.178904 0,21.747765 0,20.059225 Z m 2.0592021,0 q 0,1.719428 1.2200772,2.9395 1.2200772,1.220072 2.9395109,1.220072 1.7194337,0 2.939511,-1.220072 1.2200768,-1.220072 1.2200768,-2.9395 0,-1.050188 -0.48906,-1.956233 -0.4890606,-0.906047 -1.3333334,-1.482621 l -1.3693694,3.788918 q -0.1132561,0.308879 -0.3809524,0.494206 -0.2676963,0.185327 -0.5868726,0.185327 -0.1853282,0 -0.3500643,-0.06178 Q 5.4671815,20.882903 5.2870013,20.496805 5.1068211,20.110706 5.2509653,19.709163 l 1.3590733,-3.768326 q -0.05148,0 -0.1853282,-0.02059 -0.1338481,-0.02059 -0.2059202,-0.02059 -1.7194337,0 -2.9395109,1.220073 -1.2200772,1.220073 -1.2200772,2.939499 z m 9.7297299,-7.238067 5.343629,5.34361 1.98713,-5.34361 -7.330759,0 z m 7.227799,6.177583 0.648649,0 q 0.185328,-1.101669 0.741312,-2.059195 0.555985,-0.957525 1.400258,-1.657651 l -0.864865,-1.462028 z m 2.738739,2.059193 q 0.339768,1.379661 1.462033,2.270261 1.122265,0.890602 2.563707,0.890602 1.719434,0 2.939511,-1.220072 1.220077,-1.220072 1.220077,-2.9395 0,-1.719426 -1.220077,-2.939499 -1.220077,-1.220073 -2.939511,-1.220073 -0.483913,0 -1.101673,0.164736 l 1.925354,3.232935 q 0.04118,0.08237 0.123552,0.350063 0.08237,0.267695 0.08237,0.38095 0,0.422136 -0.303732,0.725867 -0.303733,0.30373 -0.725869,0.30373 l -4.02574,0 z m 0.02059,-2.059193 2.254826,0 -1.142857,-1.915051 q -0.813385,0.782494 -1.111969,1.915051 z"
     id="path6"
     inkscape:connector-curvature="0" />
</svg>
