<?xml version="1.0" encoding="UTF-8" standalone="no"?>
<svg
   xmlns:dc="http://purl.org/dc/elements/1.1/"
   xmlns:cc="http://creativecommons.org/ns#"
   xmlns:rdf="http://www.w3.org/1999/02/22-rdf-syntax-ns#"
   xmlns:svg="http://www.w3.org/2000/svg"
   xmlns="http://www.w3.org/2000/svg"
   xmlns:sodipodi="http://sodipodi.sourceforge.net/DTD/sodipodi-0.dtd"
   xmlns:inkscape="http://www.inkscape.org/namespaces/inkscape"
   version="1.1"
   width="32px"
   height="32px"
   id="svg2"
   inkscape:version="0.91 r13725"
   sodipodi:docname="binoculars.svg">
  <metadata
     id="metadata12">
    <rdf:RDF>
      <cc:Work
         rdf:about="">
        <dc:format>image/svg+xml</dc:format>
        <dc:type
           rdf:resource="http://purl.org/dc/dcmitype/StillImage" />
      </cc:Work>
    </rdf:RDF>
  </metadata>
  <defs
     id="defs10" />
  <sodipodi:namedview
     pagecolor="#ffffff"
     bordercolor="#666666"
     borderopacity="1"
     objecttolerance="10"
     gridtolerance="10"
     guidetolerance="10"
     inkscape:pageopacity="0"
     inkscape:pageshadow="2"
     inkscape:window-width="1280"
     inkscape:window-height="972"
     id="namedview8"
     showgrid="false"
     inkscape:zoom="7.375"
     inkscape:cx="-23.322034"
     inkscape:cy="16"
     inkscape:window-x="-8"
     inkscape:window-y="-8"
     inkscape:window-maximized="1"
     inkscape:current-layer="svg2" />
  <g
     id="g4"
     transform="matrix(0.01333333,0,0,-0.01333333,-1.3333333,22.666667)" />
  <path
     d="m 0,32 0,-1.333333 12,0 L 12,32 0,32 Z m 0,-2.666667 0,-4 L 2.6666667,16 6.666667,4 8,4 8,0 l 5.333333,1.3333333 0,2.6666667 1.333334,0 0,-1.3333333 2.666666,0 0,1.3333333 1.333334,0 0,-2.6666667 L 24,0 l 0,4 1.333333,0 4,12 L 32,25.333333 l 0,4 -12,0 0,-4 L 21.333333,16 10.666667,16 12,25.333333 l 0,4 -12,0 z m 12,-16 1.333333,0 0,-6.6666663 -1.333333,0 0,6.6666663 z m 6.666667,0 1.333333,0 0,-6.6666663 -1.333333,0 0,6.6666663 z M 20,32 l 0,-1.333333 12,0 L 32,32 20,32 Z"
     id="path6"
     inkscape:connector-curvature="0" />
</svg>
