<?xml version="1.0" encoding="UTF-8" standalone="no"?>
<svg
   xmlns:dc="http://purl.org/dc/elements/1.1/"
   xmlns:cc="http://creativecommons.org/ns#"
   xmlns:rdf="http://www.w3.org/1999/02/22-rdf-syntax-ns#"
   xmlns:svg="http://www.w3.org/2000/svg"
   xmlns="http://www.w3.org/2000/svg"
   xmlns:sodipodi="http://sodipodi.sourceforge.net/DTD/sodipodi-0.dtd"
   xmlns:inkscape="http://www.inkscape.org/namespaces/inkscape"
   version="1.1"
   width="32px"
   height="32px"
   id="svg2"
   inkscape:version="0.91 r13725"
   sodipodi:docname="birthday_cake.svg">
  <metadata
     id="metadata12">
    <rdf:RDF>
      <cc:Work
         rdf:about="">
        <dc:format>image/svg+xml</dc:format>
        <dc:type
           rdf:resource="http://purl.org/dc/dcmitype/StillImage" />
      </cc:Work>
    </rdf:RDF>
  </metadata>
  <defs
     id="defs10" />
  <sodipodi:namedview
     pagecolor="#ffffff"
     bordercolor="#666666"
     borderopacity="1"
     objecttolerance="10"
     gridtolerance="10"
     guidetolerance="10"
     inkscape:pageopacity="0"
     inkscape:pageshadow="2"
     inkscape:window-width="1280"
     inkscape:window-height="972"
     id="namedview8"
     showgrid="false"
     inkscape:zoom="7.375"
     inkscape:cx="-0.20338983"
     inkscape:cy="16"
     inkscape:window-x="-8"
     inkscape:window-y="-8"
     inkscape:window-maximized="1"
     inkscape:current-layer="svg2" />
  <g
     id="g4"
     transform="matrix(0.01116149,0,0,-0.01116149,0.76770143,28.844941)" />
  <path
     d="m 1.490059,27.155912 0,-2.109522 0.1004534,-0.03348 q 0.3683293,-0.111614 1.0380189,-0.424136 0.6696895,-0.312522 0.9933728,-0.424137 0.089292,0.279037 0.2120684,1.065923 0.1227764,0.786885 0.3460063,1.317056 0.2232298,0.530171 0.680851,0.820369 0.3013603,0.189746 0.6362051,0.212069 0.3348448,0.02232 0.6250436,-0.07813 0.2901988,-0.100453 0.6250436,-0.306941 0.3348448,-0.206487 0.5803977,-0.412975 0.2455528,-0.206488 0.5580746,-0.45204 0.3125218,-0.245553 0.5022672,-0.36833 0.1450994,0.256715 0.3460064,0.764563 0.200907,0.507848 0.351587,0.876177 0.15068,0.368329 0.45204,0.731078 0.301361,0.362748 0.692013,0.507848 0.323683,0.08929 0.574817,0.100453 0.251133,0.01116 0.52459,-0.128357 0.273457,-0.139519 0.479944,-0.29578 0.206488,-0.156261 0.452041,-0.407394 0.245552,-0.251134 0.418556,-0.457621 0.173003,-0.206488 0.385071,-0.44646 0.212068,-0.239972 0.368329,-0.385072 0.167423,0.200907 0.396233,0.585979 0.228811,0.385071 0.429718,0.692012 0.200907,0.306941 0.45204,0.619463 0.251134,0.312522 0.580398,0.485525 0.329264,0.173003 0.708755,0.173003 0.368329,0 0.697593,-0.173003 0.329264,-0.173003 0.585978,-0.479944 0.256715,-0.306941 0.452041,-0.613882 0.195326,-0.306941 0.429717,-0.697594 0.234392,-0.390652 0.390653,-0.591559 0.223229,0.200907 0.619462,0.658528 0.396233,0.457622 0.680851,0.764563 0.284619,0.306941 0.736659,0.530171 0.45204,0.223229 0.909662,0.145099 0.368329,-0.06697 0.664109,-0.290199 0.295779,-0.22323 0.502267,-0.574817 0.206487,-0.351587 0.346006,-0.686432 0.139519,-0.334844 0.30136,-0.758981 0.161842,-0.424137 0.284618,-0.647367 l 0.814789,0.602721 q 0.323684,0.256714 0.574817,0.424137 0.251134,0.167422 0.625044,0.351587 0.37391,0.184164 0.67527,0.22323 0.30136,0.03907 0.636205,-0.08371 0.334845,-0.122776 0.591559,-0.457621 0.279038,-0.357168 0.418556,-0.831531 0.139519,-0.474363 0.239972,-1.099407 0.100454,-0.625044 0.189746,-0.926404 0.312522,0.100453 0.848273,0.318103 0.535752,0.217649 0.915243,0.385071 l 0.37949,0.178584 0,2.109522 q 0,0.535752 -0.306941,1.032438 -0.306941,0.496687 -0.714335,0.831531 -0.407395,0.334845 -1.0436,0.664109 -0.636205,0.329264 -1.054761,0.491106 -0.418556,0.161834 -0.987792,0.36274 Q 22.105336,32 16,32 10.106731,32 5.8765257,30.627136 5.3965815,30.470875 5.0282522,30.336938 4.659923,30.203 4.0962676,29.957447 3.5326122,29.711894 3.119637,29.444018 2.7066617,29.176142 2.3104287,28.835717 1.9141957,28.495291 1.7021274,28.059993 1.490059,27.624695 1.490059,27.155912 Z m 0,-4.018137 0,-5.279386 0.066969,0 q 0.2455528,-0.881758 1.3728636,-1.674224 1.1273108,-0.792466 3.0247645,-1.406348 l 0,-1.384026 q 0.4911057,-0.948726 1.1161493,-1.361702 l 0,-3.6609694 q 0,-0.2232298 0.1618417,-0.3906522 Q 7.3944887,7.813045 7.6288801,7.813045 l 1.1161489,0 q 0.234392,0 0.396233,0.1674224 0.161842,0.1674224 0.161842,0.3906522 l 0,2.6787584 q 0.881758,-0.245553 1.116149,-0.30136 l 0,-4.6096969 q 0,-0.2232299 0.161842,-0.3906523 0.161842,-0.1674224 0.396233,-0.1674224 l 1.116149,0 q 0.234392,0 0.396233,0.1674224 0.161842,0.1674224 0.161842,0.3906523 l 0,4.2413669 q 1.004534,-0.122776 2.232298,-0.178584 l 0,-1.8304844 q 0,-0.2232298 0.161842,-0.3906522 0.161842,-0.1674224 0.396233,-0.1674224 l 1.116149,0 q 0.234392,0 0.396233,0.1674224 0.161842,0.1674224 0.161842,0.3906522 l 0,1.8304844 q 1.227764,0.05581 2.232299,0.178584 l 0,-4.2413669 q 0,-0.2232299 0.161841,-0.3906523 0.161842,-0.1674224 0.396233,-0.1674224 l 1.116149,0 q 0.234392,0 0.396233,0.1674224 0.161842,0.1674224 0.161842,0.3906523 l 0,4.6096969 q 0.234391,0.05581 1.116149,0.30136 l 0,-2.6787584 q 0,-0.2232298 0.161842,-0.3906522 Q 23.020579,7.813045 23.25497,7.813045 l 1.116149,0 q 0.234392,0 0.396233,0.1674224 0.161842,0.1674224 0.161842,0.3906522 l 0,3.6609694 q 0.279037,0.178584 0.558075,0.51901 0.279037,0.340425 0.424136,0.59714 l 0.133938,0.245552 0,1.517963 q 3.995815,1.462156 4.397628,2.946635 l 0.06697,0 0,5.290547 q -0.07813,-0.03348 -0.513428,-0.239972 -0.435298,-0.206488 -0.619463,-0.284618 -0.184165,-0.07813 -0.580398,-0.189745 -0.396233,-0.111615 -0.636205,-0.09487 -0.239972,0.01674 -0.541332,0.128357 -0.301361,0.111615 -0.52459,0.368329 -0.290199,0.334845 -0.44646,0.792466 -0.156261,0.457622 -0.262295,1.144053 -0.106034,0.686429 -0.161842,0.898498 -0.189745,-0.122777 -0.485525,-0.351587 -0.295779,-0.228811 -0.530171,-0.424137 -0.234391,-0.195326 -0.546913,-0.390652 -0.312522,-0.195327 -0.580397,-0.29578 -0.267876,-0.100453 -0.59156,-0.100453 -0.323683,0 -0.625043,0.145099 -0.346006,0.167422 -0.625044,0.52459 -0.279037,0.357168 -0.418556,0.680851 -0.139518,0.323683 -0.334845,0.831531 -0.195326,0.507848 -0.295779,0.731078 -0.200907,-0.189745 -0.585978,-0.630624 -0.385072,-0.440879 -0.647367,-0.708755 -0.262295,-0.267876 -0.686432,-0.496686 -0.424137,-0.228811 -0.870596,-0.228811 -0.346007,0.03348 -0.647367,0.206488 -0.30136,0.173003 -0.552494,0.474363 -0.251133,0.30136 -0.429717,0.580398 -0.178584,0.279037 -0.401814,0.664109 -0.22323,0.385071 -0.357168,0.574816 -0.122776,-0.15626 -0.574817,-0.920823 -0.45204,-0.764562 -0.865015,-1.149634 -0.412976,-0.385071 -0.959889,-0.429717 -0.346006,-0.03348 -0.680851,0.08371 -0.334845,0.117196 -0.630624,0.37391 -0.29578,0.256715 -0.51901,0.502267 -0.223229,0.245553 -0.513428,0.59156 -0.290199,0.346006 -0.44646,0.513428 -0.122776,-0.234391 -0.385071,-0.937565 -0.262296,-0.703174 -0.558075,-1.155215 -0.29578,-0.45204 -0.742239,-0.67527 -0.301361,-0.145099 -0.619463,-0.145099 -0.3181028,0 -0.5915594,0.100453 Q 7.6512031,24.30973 7.3331005,24.505057 7.014998,24.700384 6.7917681,24.884548 6.5685382,25.068713 6.2671779,25.314266 5.9658176,25.559819 5.7872337,25.682595 5.7091033,25.403558 5.6086499,24.761772 5.5081964,24.119986 5.3519355,23.645623 5.1956746,23.171259 4.9054758,22.836414 4.1576558,21.999302 1.490059,23.137775 Z m 1.6853854,-4.63202 q 0.044646,0.122777 0.1227764,0.239972 0.078131,0.117196 0.2120684,0.22323 0.1339379,0.106034 0.2343914,0.184165 0.1004534,0.07813 0.2901988,0.178584 0.1897453,0.100453 0.2678758,0.139518 0.07813,0.03907 0.2901988,0.133938 0.2120684,0.09487 0.2343914,0.106034 2.3439135,1.093827 5.1342866,1.501221 2.790373,0.407395 6.038368,0.407395 7.054063,0 11.172654,-1.919777 0.02232,-0.01116 0.206488,-0.09487 l 0.245553,-0.111615 q 0,0 0.234391,-0.122776 0.234391,-0.122777 0.256714,-0.15068 0.02232,-0.0279 0.228811,-0.15068 0.206487,-0.122777 0.217649,-0.178584 0.01116,-0.05581 0.15068,-0.189746 0.139519,-0.133938 0.111615,-0.217649 0.04465,-0.145099 -0.173003,-0.362748 -0.217649,-0.217652 -0.613882,-0.440882 -0.396233,-0.22323 -0.74782,-0.407395 -0.351587,-0.184164 -0.719917,-0.351587 -0.368329,-0.167422 -0.390652,-0.178584 l -0.569236,0 q -0.44646,0.401814 -1.116149,0.731078 -0.66969,0.329264 -1.177538,0.496686 -0.507848,0.167423 -1.289152,0.379491 Q 19.158702,19.119637 16,19.119637 q -3.158703,0 -6.027206,-0.770143 Q 9.191489,18.137426 8.683641,17.970003 8.1757932,17.802581 7.5061036,17.473317 6.8364141,17.144053 6.3899544,16.742239 l -0.5692362,0 q -0.033485,0.02232 -0.3906522,0.184165 -0.3571678,0.161842 -0.7199163,0.351587 -0.3627485,0.189745 -0.74782,0.412975 -0.3850715,0.22323 -0.6083014,0.440879 -0.2232299,0.217649 -0.1785839,0.37391 z M 7.0708054,5.5807464 q 0,-0.044646 0.00558,-0.1339379 0.00558,-0.089292 0.066969,-0.4018137 Q 7.2047433,4.732473 7.3107775,4.3753052 7.4168117,4.0181374 7.6456223,3.4377398 7.8744329,2.8573422 8.1869547,2.2322986 8.67806,3.2256714 8.957098,4.0627834 9.236135,4.8998954 9.26962,5.2459016 L 9.3031,5.5807464 q 0,0.4576212 -0.329264,0.7868853 -0.329264,0.329264 -0.7868853,0.329264 -0.4576212,0 -0.7868852,-0.329264 Q 7.0708054,6.0383676 7.0708054,5.5807464 Z m 0.2009069,7.6679456 q -0.3125218,0.323683 0.022323,0.680851 0.3348448,0.357168 1.077084,0.636205 0.7422397,0.279037 1.2500877,0.435298 0.507847,0.156261 0.876177,0.245553 Q 12.986397,15.84932 16,15.84932 q 3.013603,0 5.513777,-0.602721 0.379491,-0.08929 0.876177,-0.245553 0.496687,-0.156261 1.244507,-0.435298 0.74782,-0.279037 1.077084,-0.636205 0.329264,-0.357168 0.01674,-0.680851 -0.145099,0.145099 -0.357168,0.145099 l -1.116149,0 q -0.234391,0 -0.396233,-0.161841 -0.161842,-0.161842 -0.161842,-0.396233 l 0,-0.625044 Q 22.29508,12.076735 21.580744,11.898151 l 0,0.937566 q 0,0.234391 -0.161842,0.396233 -0.161841,0.161841 -0.396233,0.161841 l -1.116149,0 q -0.234391,0 -0.396233,-0.161841 -0.161841,-0.161842 -0.161841,-0.396233 l 0,-1.339379 q -0.959887,-0.122777 -2.232297,-0.178584 l 0,2.634112 q 0,0.234391 -0.161842,0.396233 -0.161841,0.161842 -0.396233,0.161842 l -1.116149,0 q -0.234391,0 -0.396233,-0.161842 -0.161842,-0.161842 -0.161842,-0.396233 l 0,-2.634112 q -1.27241,0.05581 -2.232298,0.178584 l 0,0.223229 q 0,0.234392 -0.161842,0.396233 -0.161841,0.161842 -0.396233,0.161842 l -1.116149,0 q -0.390652,0 -0.52459,-0.390652 -0.546913,0.133938 -1.149634,0.323683 l 0,0.625044 q 0,0.234391 -0.161842,0.396233 -0.161841,0.161841 -0.396233,0.161841 l -1.1161489,0 q -0.066969,0 -0.1562609,-0.03348 -0.089292,-0.03348 -0.1450994,-0.07813 z M 10.419253,3.3484479 q 0,-0.044646 0.0056,-0.133938 0.0056,-0.089292 0.06697,-0.4018137 0.06139,-0.3125218 0.167422,-0.6696896 Q 10.76528,1.7858389 10.99409,1.2054412 11.222901,0.6250436 11.535423,0 q 0.491105,0.99337286 0.770143,1.8304848 0.279037,0.837112 0.312521,1.1831183 l 0.03349,0.3348448 q 0,0.4576212 -0.329264,0.7868852 -0.329264,0.329264 -0.786885,0.329264 -0.457622,0 -0.786886,-0.329264 -0.329264,-0.329264 -0.329264,-0.7868852 z m 4.464597,2.2322985 q 0,-0.044646 0.0056,-0.1339379 0.0056,-0.089292 0.06697,-0.4018137 0.06139,-0.3125218 0.167423,-0.6696896 0.106034,-0.3571678 0.334844,-0.9375654 0.228811,-0.5803976 0.541333,-1.2054412 0.491105,0.9933728 0.770143,1.8304848 0.279037,0.837112 0.312522,1.1831182 l 0.03348,0.3348448 q 0,0.4576212 -0.329264,0.7868853 -0.329264,0.329264 -0.786885,0.329264 -0.457622,0 -0.786886,-0.329264 -0.329264,-0.3292641 -0.329264,-0.7868853 z m 4.464598,-2.2322985 q 0,-0.044646 0.0056,-0.133938 0.0056,-0.089292 0.06697,-0.4018137 0.06139,-0.3125218 0.167423,-0.6696896 Q 19.694475,1.7858389 19.923285,1.2054412 20.152096,0.6250436 20.464618,0 q 0.491106,0.99337286 0.770143,1.8304848 0.279037,0.837112 0.312522,1.1831183 l 0.03348,0.3348448 q 0,0.4576212 -0.329264,0.7868852 -0.329264,0.329264 -0.786885,0.329264 -0.457621,0 -0.786885,-0.329264 -0.329264,-0.329264 -0.329264,-0.7868852 z m 3.348447,2.2322985 q 0,-0.044646 0.0056,-0.1339379 0.0056,-0.089292 0.06697,-0.4018137 0.06139,-0.3125218 0.167423,-0.6696896 0.106034,-0.3571678 0.334844,-0.9375654 0.228811,-0.5803976 0.541333,-1.2054412 0.491105,0.9933728 0.770143,1.8304848 0.279037,0.837112 0.312522,1.1831182 l 0.03348,0.3348448 q 0,0.4576212 -0.329264,0.7868853 -0.329264,0.329264 -0.786885,0.329264 -0.457622,0 -0.786886,-0.329264 -0.329264,-0.3292641 -0.329264,-0.7868853 z"
     id="path6"
     inkscape:connector-curvature="0" />
</svg>
