<?xml version="1.0" encoding="UTF-8" standalone="no"?>
<svg
   xmlns:dc="http://purl.org/dc/elements/1.1/"
   xmlns:cc="http://creativecommons.org/ns#"
   xmlns:rdf="http://www.w3.org/1999/02/22-rdf-syntax-ns#"
   xmlns:svg="http://www.w3.org/2000/svg"
   xmlns="http://www.w3.org/2000/svg"
   xmlns:sodipodi="http://sodipodi.sourceforge.net/DTD/sodipodi-0.dtd"
   xmlns:inkscape="http://www.inkscape.org/namespaces/inkscape"
   version="1.1"
   width="32px"
   height="32px"
   id="svg2"
   inkscape:version="0.91 r13725"
   sodipodi:docname="blog.svg">
  <metadata
     id="metadata12">
    <rdf:RDF>
      <cc:Work
         rdf:about="">
        <dc:format>image/svg+xml</dc:format>
        <dc:type
           rdf:resource="http://purl.org/dc/dcmitype/StillImage" />
      </cc:Work>
    </rdf:RDF>
  </metadata>
  <defs
     id="defs10" />
  <sodipodi:namedview
     pagecolor="#ffffff"
     bordercolor="#666666"
     borderopacity="1"
     objecttolerance="10"
     gridtolerance="10"
     guidetolerance="10"
     inkscape:pageopacity="0"
     inkscape:pageshadow="2"
     inkscape:window-width="1280"
     inkscape:window-height="972"
     id="namedview8"
     showgrid="false"
     inkscape:zoom="7.375"
     inkscape:cx="-0.20338983"
     inkscape:cy="16"
     inkscape:window-x="-8"
     inkscape:window-y="-8"
     inkscape:window-maximized="1"
     inkscape:current-layer="svg2" />
  <g
     id="g4"
     transform="matrix(0.01391304,0,0,-0.01391304,-3.5434783,21.23913)" />
  <path
     d="m 1.3913045,28.521739 q 0,-0.278261 0.2086957,-0.486956 0.2086956,-0.208696 0.4869565,-0.208696 l 0.6956521,0 0,-1.391304 -0.6956521,0 q -0.2782609,0 -0.4869565,-0.20174 -0.2086957,-0.201739 -0.2086957,-0.493913 0,-0.27826 0.2086957,-0.486956 0.2086956,-0.208696 0.4869565,-0.208696 l 0.6956521,0 0,-1.391304 -0.6956521,0 q -0.2782609,0 -0.4869565,-0.201739 -0.2086957,-0.201739 -0.2086957,-0.493913 0,-0.278261 0.2086957,-0.486957 0.2086956,-0.208695 0.4869565,-0.208695 l 0.6956521,0 0,-1.391305 -0.6956521,0 q -0.2782609,0 -0.4869565,-0.201739 -0.2086957,-0.201739 -0.2086957,-0.493913 0,-0.278261 0.2086957,-0.486956 0.2086956,-0.208696 0.4869565,-0.208696 l 0.6956521,0 0,-1.391304 -0.6956521,0 q -0.2782609,0 -0.4869565,-0.20174 -0.2086957,-0.201739 -0.2086957,-0.493913 0,-0.278261 0.2086957,-0.486956 0.2086956,-0.208696 0.4869565,-0.208696 l 0.6956521,0 0,-1.391304 -0.6956521,0 q -0.2782609,0 -0.4869565,-0.201739 -0.2086957,-0.201739 -0.2086957,-0.493913 0,-0.278261 0.2086957,-0.486957 0.2086956,-0.208695 0.4869565,-0.208695 l 0.6956521,0 0,-1.391305 -0.6956521,0 q -0.2782609,0 -0.4869565,-0.201739 -0.2086957,-0.201739 -0.2086957,-0.493913 0,-0.278261 0.2086957,-0.486957 0.2086956,-0.208695 0.4869565,-0.208695 l 0.6956521,0 0,-1.3913046 -0.6956521,0 q -0.2782609,0 -0.4869565,-0.2017391 -0.2086957,-0.2017391 -0.2086957,-0.493913 0,-0.2782609 0.2086957,-0.4869566 0.2086956,-0.2086956 0.4869565,-0.2086956 l 0.6956521,0 0,-1.3913044 -0.6956521,0 q -0.2782609,0 -0.4869565,-0.2017391 -0.2086957,-0.2017391 -0.2086957,-0.493913 0,-0.2782609 0.2086957,-0.4869566 0.2086956,-0.2086956 0.4869565,-0.2086956 l 0.6956521,0 0,-3.1304348 L 6.2608695,0 25.043479,0 q 2.587826,0 4.076521,1.5026087 1.488695,1.5026087 1.488695,4.0626087 l 0,18.0869566 -1.391303,2.782609 0,-20.8695656 q 0,-1.8643478 -1.154784,-3.0191304 -1.154782,-1.1547827 -3.01913,-1.1547827 l -17.9060865,0 -1.9478261,1.3913044 18.4626086,0 q 1.725218,0 2.949565,1.2243478 1.224348,1.2243479 1.224348,2.9495652 l 0,20.8695653 q 0,1.725217 -1.224348,2.949565 Q 25.377392,32 23.652174,32 l -20.8695652,0 0,-2.782609 -0.6956521,0 q -0.2782609,0 -0.4869565,-0.201739 -0.2086957,-0.201739 -0.2086957,-0.493913 z"
     id="path6"
     inkscape:connector-curvature="0" />
</svg>
