<?xml version="1.0" encoding="UTF-8" standalone="no"?>
<svg
   xmlns:dc="http://purl.org/dc/elements/1.1/"
   xmlns:cc="http://creativecommons.org/ns#"
   xmlns:rdf="http://www.w3.org/1999/02/22-rdf-syntax-ns#"
   xmlns:svg="http://www.w3.org/2000/svg"
   xmlns="http://www.w3.org/2000/svg"
   xmlns:sodipodi="http://sodipodi.sourceforge.net/DTD/sodipodi-0.dtd"
   xmlns:inkscape="http://www.inkscape.org/namespaces/inkscape"
   version="1.1"
   width="32px"
   height="32px"
   id="svg2"
   inkscape:version="0.91 r13725"
   sodipodi:docname="boat.svg">
  <metadata
     id="metadata12">
    <rdf:RDF>
      <cc:Work
         rdf:about="">
        <dc:format>image/svg+xml</dc:format>
        <dc:type
           rdf:resource="http://purl.org/dc/dcmitype/StillImage" />
      </cc:Work>
    </rdf:RDF>
  </metadata>
  <defs
     id="defs10" />
  <sodipodi:namedview
     pagecolor="#ffffff"
     bordercolor="#666666"
     borderopacity="1"
     objecttolerance="10"
     gridtolerance="10"
     guidetolerance="10"
     inkscape:pageopacity="0"
     inkscape:pageshadow="2"
     inkscape:window-width="1280"
     inkscape:window-height="972"
     id="namedview8"
     showgrid="false"
     inkscape:zoom="7.375"
     inkscape:cx="-23.322034"
     inkscape:cy="16"
     inkscape:window-x="-8"
     inkscape:window-y="-8"
     inkscape:window-maximized="1"
     inkscape:current-layer="svg2" />
  <g
     id="g4"
     transform="matrix(0.01333337,0,0,-0.01333333,-2.5261861,33.333333)" />
  <path
     d="M 1.0088484,18.253333 Q 1.1688491,17.76 1.6755174,17.546667 l 13.0933766,-5.44 q 0.493334,-0.213334 1.220004,-0.213334 0.726669,0 1.233337,0.213334 l 13.093378,5.44 q 0.506668,0.226666 0.673334,0.713333 0.166667,0.486667 -0.126666,0.953333 l -7.520026,11.64 q -0.146666,0.253334 -0.226666,0.366667 -0.08,0.113333 -0.253335,0.3 -0.173333,0.186667 -0.360001,0.266667 -0.186667,0.08 -0.486668,0.146666 Q 21.715583,32 21.328917,32 20.742247,32 19.40891,30.673333 18.075571,29.346667 17.035569,28.026667 l -1.040004,-1.333334 q -0.160001,0.213334 -0.440002,0.573334 -0.280001,0.36 -1.040003,1.273333 -0.760002,0.913333 -1.413338,1.613333 -0.653335,0.7 -1.360004,1.273334 Q 11.03555,32 10.662215,32 q -0.386668,0 -0.6866695,-0.06667 -0.300002,-0.06667 -0.486668,-0.146666 -0.186668,-0.08 -0.360002,-0.266667 -0.173333,-0.186667 -0.253334,-0.3 -0.08,-0.113333 -0.226668,-0.366667 l -7.5200245,-11.64 q -0.28000097,-0.466666 -0.12,-0.96 z M 3.9955251,14.32 l 0,-4.9866667 Q 3.9955251,8.7866667 4.3555263,8.24 4.7155276,7.6933333 5.222196,7.48 l 3.0400095,-1.3066667 2.1066745,-4.24 Q 10.48888,1.68 10.775548,1.5066667 11.062216,1.3333333 11.328883,1.3333333 l 2.000007,0 0,-0.6666666 q 0,-0.28 0.2,-0.4733334 Q 13.728891,0 13.995558,0 l 4.000013,0 q 0.28,0 0.473335,0.1933333 0.193333,0.1933334 0.193333,0.4733334 l 0,0.6666666 2.000008,0 q 0.280002,0 0.560002,0.1733334 Q 21.50225,1.68 21.62225,1.9333333 L 23.71559,6.16 26.768934,7.48 q 0.506668,0.2133333 0.866669,0.76 0.360002,0.5466667 0.360002,1.0933333 l 0,4.9866667 -12.00004,-4.9866667 z m 1.3333378,-2 9.4133641,-3.9066667 Q 14.662227,8.1466667 14.662227,8 l 0,-2.6533333 Q 14.448892,5.36 13.582223,5.5333333 12.715554,5.7066667 12.62222,5.7466667 l -6.8800224,2.96 Q 5.6088638,8.7733333 5.4688633,8.98 5.3288629,9.1866667 5.3288629,9.3333333 l 0,2.9866667 z M 17.248902,8.4133333 26.662267,12.32 l 0,-2.9866667 q 0,-0.1466666 -0.14,-0.36 Q 26.382265,8.76 26.248931,8.7066667 l -6.880021,-2.96 q -0.06667,-0.026667 -0.973337,-0.2 Q 17.488903,5.3733333 17.328902,5.36 l 0,2.64 q 0,0.1466667 -0.08,0.4133333 z"
     id="path6"
     inkscape:connector-curvature="0" />
</svg>
