<?xml version="1.0" encoding="UTF-8" standalone="no"?>
<svg
   xmlns:dc="http://purl.org/dc/elements/1.1/"
   xmlns:cc="http://creativecommons.org/ns#"
   xmlns:rdf="http://www.w3.org/1999/02/22-rdf-syntax-ns#"
   xmlns:svg="http://www.w3.org/2000/svg"
   xmlns="http://www.w3.org/2000/svg"
   xmlns:sodipodi="http://sodipodi.sourceforge.net/DTD/sodipodi-0.dtd"
   xmlns:inkscape="http://www.inkscape.org/namespaces/inkscape"
   version="1.1"
   width="32px"
   height="32px"
   id="svg2"
   inkscape:version="0.91 r13725"
   sodipodi:docname="bold.svg">
  <metadata
     id="metadata12">
    <rdf:RDF>
      <cc:Work
         rdf:about="">
        <dc:format>image/svg+xml</dc:format>
        <dc:type
           rdf:resource="http://purl.org/dc/dcmitype/StillImage" />
      </cc:Work>
    </rdf:RDF>
  </metadata>
  <defs
     id="defs10" />
  <sodipodi:namedview
     pagecolor="#ffffff"
     bordercolor="#666666"
     borderopacity="1"
     objecttolerance="10"
     gridtolerance="10"
     guidetolerance="10"
     inkscape:pageopacity="0"
     inkscape:pageshadow="2"
     inkscape:window-width="1280"
     inkscape:window-height="972"
     id="namedview8"
     showgrid="false"
     inkscape:zoom="7.375"
     inkscape:cx="-23.322034"
     inkscape:cy="16"
     inkscape:window-x="-8"
     inkscape:window-y="-8"
     inkscape:window-maximized="1"
     inkscape:current-layer="svg2" />
  <g
     id="g4"
     transform="matrix(0.01333333,0,0,-0.01333333,-4.8716667,33.333333)" />
  <path
     d="m 3.4866665,32 0,-2.373333 q 1.0933333,-0.173334 1.88,-0.86 0.7866667,-0.686667 0.7866667,-1.74 l 0,-22.066667 q 0,-0.48 -0.00667,-0.6933333 -0.00667,-0.2133334 -0.04,-0.54 Q 6.0733332,3.4 6.0133332,3.2666667 5.9533332,3.1333333 5.8199998,2.92 5.6866665,2.7066667 5.5066665,2.6133333 q -0.18,-0.093333 -0.48,-0.24 -0.3,-0.1466666 -0.66,-0.2466666 -0.36,-0.1 -0.88,-0.22 L 3.4866665,0 18.099999,0 q 1.52,0 3.053334,0.6 1.533333,0.6 2.8,1.66 1.266666,1.06 2.066666,2.6866667 Q 26.82,6.5733333 26.82,8.4533333 26.82,9.52 26.493334,10.473333 26.166667,11.426667 25.639999,12.1 q -0.526666,0.673333 -1.16,1.24 -0.633333,0.566667 -1.266666,0.926667 -0.633334,0.36 -1.16,0.606666 -0.526667,0.246667 -0.86,0.353334 l -0.32,0.106666 q 0.16,0.04 0.433333,0.12 0.273333,0.08 1.066667,0.4 0.793333,0.32 1.52,0.726667 0.726666,0.406667 1.606666,1.12 0.88,0.713333 1.513334,1.54 0.633333,0.826667 1.066666,2.033333 0.433334,1.206667 0.433334,2.566667 0,1.653333 -0.693334,3.046667 -0.693333,1.393333 -1.8,2.313333 -1.106666,0.92 -2.506665,1.573333 -1.4,0.653334 -2.786668,0.94 Q 19.339999,32 18.046666,32 L 3.4866665,32 Z M 12.82,28 l 3.986666,0 q 2.253333,0 3.553333,-1.28 1.3,-1.28 1.3,-3.586667 0,-1.2 -0.293333,-2.233333 -0.293333,-1.033333 -0.88,-1.84 -0.586667,-0.806667 -1.54,-1.266667 -0.953333,-0.46 -2.18,-0.46 l -3.946666,0 L 12.82,28 Z m 0,-14.666667 3.946666,0 q 0.773333,0 1.38,-0.266666 Q 18.753333,12.8 19.139999,12.36 q 0.386667,-0.44 0.64,-1.053333 0.253334,-0.613334 0.353334,-1.26 0.1,-0.646667 0.1,-1.3800003 0,-0.9333334 -0.173334,-1.72 Q 19.886666,6.16 19.506667,5.4733333 19.126666,4.7866667 18.426666,4.3933333 17.726666,4 16.766666,4 L 12.82,4 l 0,9.333333 z"
     id="path6"
     inkscape:connector-curvature="0" />
</svg>
