<?xml version="1.0" encoding="UTF-8" standalone="no"?>
<svg
   xmlns:dc="http://purl.org/dc/elements/1.1/"
   xmlns:cc="http://creativecommons.org/ns#"
   xmlns:rdf="http://www.w3.org/1999/02/22-rdf-syntax-ns#"
   xmlns:svg="http://www.w3.org/2000/svg"
   xmlns="http://www.w3.org/2000/svg"
   xmlns:sodipodi="http://sodipodi.sourceforge.net/DTD/sodipodi-0.dtd"
   xmlns:inkscape="http://www.inkscape.org/namespaces/inkscape"
   version="1.1"
   width="32px"
   height="32px"
   id="svg2"
   inkscape:version="0.91 r13725"
   sodipodi:docname="bomb.svg">
  <metadata
     id="metadata12">
    <rdf:RDF>
      <cc:Work
         rdf:about="">
        <dc:format>image/svg+xml</dc:format>
        <dc:type
           rdf:resource="http://purl.org/dc/dcmitype/StillImage" />
      </cc:Work>
    </rdf:RDF>
  </metadata>
  <defs
     id="defs10" />
  <sodipodi:namedview
     pagecolor="#ffffff"
     bordercolor="#666666"
     borderopacity="1"
     objecttolerance="10"
     gridtolerance="10"
     guidetolerance="10"
     inkscape:pageopacity="0"
     inkscape:pageshadow="2"
     inkscape:window-width="1280"
     inkscape:window-height="972"
     id="namedview8"
     showgrid="false"
     inkscape:zoom="7.375"
     inkscape:cx="-0.20338983"
     inkscape:cy="16"
     inkscape:window-x="-8"
     inkscape:window-y="-8"
     inkscape:window-maximized="1"
     inkscape:current-layer="svg2" />
  <g
     id="g4"
     transform="matrix(0.01230769,0,0,-0.01230769,-0.69230769,24.203846)" />
  <path
     d="m 0,20.246154 q 0,-1.747692 0.6338462,-3.44 0.6338461,-1.692308 1.68,-3.027692 Q 3.36,12.443077 4.6707692,11.415385 5.9815385,10.387692 7.384615,9.8092307 l 0,-2.9784615 3.076923,0 q 0,-1.8461538 0.892308,-3.12 0.892308,-1.2738461 2.393846,-1.5815384 1.6,-0.3323077 3.07077,0.5230769 1.470769,0.8553846 2.20923,2.5784615 0.652308,1.5138462 1.796923,1.8338462 0.972308,0.2707692 2.35077,-0.283077 l -2.129231,-0.6276923 3.2,-0.9476923 -1.6,-2.9292307 2.929231,1.6 0.947692,-3.2 0.935385,3.2 2.941538,-1.6 L 28.8,5.2061538 32,6.1538461 28.8,7.0892307 30.4,10.030769 27.458462,8.4307692 26.523077,11.630769 25.575385,8.4307692 22.646154,10.030769 23.852308,7.84 q -1.23077,0.5538461 -2.338462,0.5538461 -0.529231,0 -1.021538,-0.1230769 -1.735385,-0.48 -2.596923,-2.5230769 Q 17.267692,4.2953846 16.172308,3.7046154 15.076923,3.1138461 13.993846,3.3353846 13.636923,3.4092308 13.329231,3.5446154 13.021538,3.68 12.707692,3.9507692 q -0.313846,0.2707692 -0.52923,0.6461539 -0.215385,0.3753846 -0.35077,0.9476923 -0.135384,0.5723077 -0.135384,1.2861538 l 3.076923,0 0,2.9784615 q 3.593846,1.1200003 5.489231,3.9138463 1.895384,2.793846 1.895384,6.523077 0,2.252308 -0.88,4.301538 -0.88,2.049231 -2.363077,3.532308 -1.483077,1.483077 -3.532307,2.363077 -2.049231,0.88 -4.301539,0.88 -2.252308,0 -4.3015384,-0.88 Q 4.7261538,29.563077 3.2430769,28.08 1.76,26.596923 0.88,24.547692 0,22.498462 0,20.246154 Z"
     id="path6"
     inkscape:connector-curvature="0" />
</svg>
