<?xml version="1.0" encoding="UTF-8" standalone="no"?>
<svg
   xmlns:dc="http://purl.org/dc/elements/1.1/"
   xmlns:cc="http://creativecommons.org/ns#"
   xmlns:rdf="http://www.w3.org/1999/02/22-rdf-syntax-ns#"
   xmlns:svg="http://www.w3.org/2000/svg"
   xmlns="http://www.w3.org/2000/svg"
   xmlns:sodipodi="http://sodipodi.sourceforge.net/DTD/sodipodi-0.dtd"
   xmlns:inkscape="http://www.inkscape.org/namespaces/inkscape"
   version="1.1"
   width="32px"
   height="32px"
   id="svg2"
   inkscape:version="0.91 r13725"
   sodipodi:docname="book_open.svg">
  <metadata
     id="metadata12">
    <rdf:RDF>
      <cc:Work
         rdf:about="">
        <dc:format>image/svg+xml</dc:format>
        <dc:type
           rdf:resource="http://purl.org/dc/dcmitype/StillImage" />
      </cc:Work>
    </rdf:RDF>
  </metadata>
  <defs
     id="defs10" />
  <sodipodi:namedview
     pagecolor="#ffffff"
     bordercolor="#666666"
     borderopacity="1"
     objecttolerance="10"
     gridtolerance="10"
     guidetolerance="10"
     inkscape:pageopacity="0"
     inkscape:pageshadow="2"
     inkscape:window-width="1280"
     inkscape:window-height="972"
     id="namedview8"
     showgrid="false"
     inkscape:zoom="7.375"
     inkscape:cx="-0.20338983"
     inkscape:cy="16"
     inkscape:window-x="-8"
     inkscape:window-y="-8"
     inkscape:window-maximized="1"
     inkscape:current-layer="svg2" />
  <g
     id="g4"
     transform="matrix(0.01333333,0,0,-0.01333333,-1.3333333,20.183333)" />
  <path
     d="M 0,26.72 0,5.7733333 1.3333333,5.0666666 l 0,-1.76 Q 1.4533333,3.2399999 1.6866667,3.12 1.92,3 2.7,2.6933333 3.48,2.3866666 4.3133333,2.1533333 5.1466667,1.9199999 6.42,1.7266666 7.693333,1.5333333 8.986667,1.5333333 q 1.293333,0 2.486666,0.1733333 1.193334,0.1733333 1.98,0.42 0.786667,0.2466667 1.393334,0.4866667 0.606666,0.24 0.886666,0.4133333 L 16,3.2 q 0.09333,-0.066667 0.286667,-0.18 0.193333,-0.1133334 0.86,-0.4 0.666666,-0.2866667 1.413333,-0.5066667 0.746667,-0.22 1.953333,-0.4 1.206667,-0.18 2.5,-0.18 1.293334,0 2.553334,0.18 1.26,0.18 2.14,0.4466666 0.88,0.2666667 1.58,0.5266667 0.7,0.26 1.033333,0.4333334 l 0.346667,0.1866666 0,1.76 L 32,5.7733333 32,26.72 q -1.333333,-0.64 -4,-1.213333 l 0,4.96 -1.96,-2.68 -2.04,2.68 0,-5.76 q -0.666667,-0.09333 -1.333333,-0.09333 -1.466667,0 -3.133334,0.293333 -1.666666,0.293333 -2.6,0.586667 L 16,25.786667 Q 15.626667,25.653334 14.973333,25.46 14.32,25.266667 12.56,24.94 10.8,24.613334 9.333333,24.613334 7.866667,24.613334 5.5333333,25.14 3.2,25.666667 1.6,26.186667 Z M 4,21.4 q 0.12,-0.04 0.9266667,-0.293333 0.8066666,-0.253333 1.1800003,-0.34 Q 6.48,20.68 7.393333,20.573334 8.306667,20.466667 9.36,20.466667 q 2.186667,0 5.306667,0.906667 l 0,-15.9600007 Q 12.546667,3.9066666 9.36,3.9066666 7.653333,3.9066666 6.313333,4.14 4.9733333,4.3733333 4.48,4.6133333 L 4,4.8399999 4,21.4 Z m 13.333333,-0.02667 q 3.12,-0.906663 5.306667,-0.906663 1.053333,0 1.966667,0.106667 0.913333,0.106666 1.286666,0.193333 0.373334,0.08667 1.18,0.34 Q 27.88,21.36 28,21.4 L 28,4.8399999 q -0.06667,-0.04 -0.186667,-0.1 -0.12,-0.06 -0.586666,-0.2199999 Q 26.76,4.36 26.2,4.2333333 25.64,4.1066666 24.68,4.0066666 q -0.96,-0.1 -2.04,-0.1 -3.186667,0 -5.306667,1.5066667 l 0,15.9600007 z"
     id="path6"
     inkscape:connector-curvature="0" />
</svg>
