<?xml version="1.0" encoding="UTF-8" standalone="no"?>
<svg
   xmlns:dc="http://purl.org/dc/elements/1.1/"
   xmlns:cc="http://creativecommons.org/ns#"
   xmlns:rdf="http://www.w3.org/1999/02/22-rdf-syntax-ns#"
   xmlns:svg="http://www.w3.org/2000/svg"
   xmlns="http://www.w3.org/2000/svg"
   xmlns:sodipodi="http://sodipodi.sourceforge.net/DTD/sodipodi-0.dtd"
   xmlns:inkscape="http://www.inkscape.org/namespaces/inkscape"
   version="1.1"
   width="32px"
   height="32px"
   id="svg2"
   inkscape:version="0.91 r13725"
   sodipodi:docname="briefcase.svg">
  <metadata
     id="metadata12">
    <rdf:RDF>
      <cc:Work
         rdf:about="">
        <dc:format>image/svg+xml</dc:format>
        <dc:type
           rdf:resource="http://purl.org/dc/dcmitype/StillImage" />
      </cc:Work>
    </rdf:RDF>
  </metadata>
  <defs
     id="defs10" />
  <sodipodi:namedview
     pagecolor="#ffffff"
     bordercolor="#666666"
     borderopacity="1"
     objecttolerance="10"
     gridtolerance="10"
     guidetolerance="10"
     inkscape:pageopacity="0"
     inkscape:pageshadow="2"
     inkscape:window-width="1280"
     inkscape:window-height="972"
     id="namedview8"
     showgrid="false"
     inkscape:zoom="7.375"
     inkscape:cx="-23.322034"
     inkscape:cy="16"
     inkscape:window-x="-8"
     inkscape:window-y="-8"
     inkscape:window-maximized="1"
     inkscape:current-layer="svg2" />
  <g
     id="g4"
     transform="matrix(0.01333333,0,0,-0.01333333,-1.3333333,21.833333)" />
  <path
     d="M 0,27.333333 0,18 l 4.08,2.666667 9.253333,0 0,1.333333 5.333334,0 0,-1.333333 9.333333,0 L 32,18 l 0,9.333333 q 0,1.093334 -0.786667,1.88 Q 30.426667,30 29.333333,30 L 2.6666667,30 q -1.0933334,0 -1.88,-0.786667 Q 0,28.426667 0,27.333333 Z M 0,16 0,10 q 0,-1.0933333 0.7866667,-1.88 0.7866666,-0.7866667 1.88,-0.7866667 l 4.0000003,0 0,-1.3333333 2.666666,0 q 0,-1.6533333 1.173334,-2.8266667 Q 11.68,2 13.333333,2 l 5.333334,0 Q 20.32,2 21.493333,3.1733333 22.666667,4.3466667 22.666667,6 l 2.666666,0 0,1.3333333 4,0 q 1.093334,0 1.88,0.7866667 Q 32,8.9066667 32,10 l 0,6 -4.666667,3.333333 -8.666666,0 0,-1.973333 -5.333334,0 0,1.973333 -8.6666663,0 z m 12,-8.6666667 8,0 L 20,6 q 0,-0.5466667 -0.393333,-0.94 -0.393334,-0.3933333 -0.94,-0.3933333 l -5.333334,0 q -0.546666,0 -0.94,0.3933333 Q 12,5.4533333 12,6 l 0,1.3333333 z"
     id="path6"
     inkscape:connector-curvature="0" />
</svg>
