<?xml version="1.0" encoding="UTF-8" standalone="no"?>
<svg
   xmlns:dc="http://purl.org/dc/elements/1.1/"
   xmlns:cc="http://creativecommons.org/ns#"
   xmlns:rdf="http://www.w3.org/1999/02/22-rdf-syntax-ns#"
   xmlns:svg="http://www.w3.org/2000/svg"
   xmlns="http://www.w3.org/2000/svg"
   xmlns:sodipodi="http://sodipodi.sourceforge.net/DTD/sodipodi-0.dtd"
   xmlns:inkscape="http://www.inkscape.org/namespaces/inkscape"
   version="1.1"
   width="32px"
   height="32px"
   id="svg2"
   inkscape:version="0.91 r13725"
   sodipodi:docname="brightness_reduce.svg">
  <metadata
     id="metadata12">
    <rdf:RDF>
      <cc:Work
         rdf:about="">
        <dc:format>image/svg+xml</dc:format>
        <dc:type
           rdf:resource="http://purl.org/dc/dcmitype/StillImage" />
      </cc:Work>
    </rdf:RDF>
  </metadata>
  <defs
     id="defs10" />
  <sodipodi:namedview
     pagecolor="#ffffff"
     bordercolor="#666666"
     borderopacity="1"
     objecttolerance="10"
     gridtolerance="10"
     guidetolerance="10"
     inkscape:pageopacity="0"
     inkscape:pageshadow="2"
     inkscape:window-width="1280"
     inkscape:window-height="972"
     id="namedview8"
     showgrid="false"
     inkscape:zoom="7.375"
     inkscape:cx="-0.20338983"
     inkscape:cy="16"
     inkscape:window-x="-8"
     inkscape:window-y="-8"
     inkscape:window-maximized="1"
     inkscape:current-layer="svg2" />
  <g
     id="g4"
     transform="matrix(0.01603206,0,0,0.01603206,-6.838477,0.36152304)" />
  <path
     d="m 0,16 q 0,0.721443 0.08016,1.603206 l 4.665331,0 Q 4.617235,16.753507 4.617235,16 q 0,-0.753507 0.128256,-1.603206 l -4.6653307,0 Q 0,15.278557 0,16 Z M 3.6232466,5.883768 6.909819,9.1703408 Q 7.887776,7.887776 9.170341,6.9098192 L 5.883768,3.6232464 Q 4.58517,4.6973952 3.6232466,5.883768 Z m 0,20.232464 Q 4.649299,27.350701 5.883768,28.376754 L 9.170341,25.090181 Q 7.887776,24.112224 6.909819,22.829659 Z M 9.603206,16 q 0,2.645291 1.875752,4.521042 1.875751,1.875752 4.521042,1.875752 2.645291,0 4.521042,-1.875752 Q 22.396794,18.645291 22.396794,16 q 0,-2.645291 -1.875752,-4.521042 Q 18.645291,9.6032064 16,9.6032064 q -2.645291,0 -4.521042,1.8757516 Q 9.603206,13.354709 9.603206,16 Z m 3.270541,0 q 0,-1.298597 0.913829,-2.212426 Q 14.701403,12.873747 16,12.873747 q 1.298597,0 2.212426,0.913827 0.913827,0.913829 0.913827,2.212426 0,1.298597 -0.913827,2.212426 Q 17.298597,19.126253 16,19.126253 q -1.298597,0 -2.212424,-0.913827 Q 12.873747,17.298597 12.873747,16 Z m 1.523047,-15.91984 0,4.6653312 Q 15.246493,4.6172352 16,4.6172352 q 0.753507,0 1.603206,0.128256 l 0,-4.6653312 Q 16.721443,0 16,0 15.278557,0 14.396794,0.08016 Z m 0,27.174349 0,4.665331 Q 15.278557,32 16,32 q 0.721443,0 1.603206,-0.08016 l 0,-4.665331 Q 16.753507,27.382765 16,27.382765 q -0.753507,0 -1.603206,-0.128256 z M 22.829659,6.9098192 q 1.282565,0.9779568 2.260522,2.2605216 L 28.376754,5.883768 Q 27.366733,4.6332672 26.116232,3.6232464 Z m 0,18.1803618 3.286573,3.286573 q 1.186373,-0.961924 2.260522,-2.260522 l -3.286573,-3.286573 q -0.977957,1.282565 -2.260522,2.260522 z m 4.42485,-10.693387 Q 27.382765,15.246493 27.382765,16 q 0,0.753507 -0.128256,1.603206 l 4.665331,0 Q 32,16.721443 32,16 32,15.278557 31.91984,14.396794 l -4.665331,0 z"
     id="path6"
     inkscape:connector-curvature="0" />
</svg>
