<?xml version="1.0" encoding="UTF-8" standalone="no"?>
<svg
   xmlns:dc="http://purl.org/dc/elements/1.1/"
   xmlns:cc="http://creativecommons.org/ns#"
   xmlns:rdf="http://www.w3.org/1999/02/22-rdf-syntax-ns#"
   xmlns:svg="http://www.w3.org/2000/svg"
   xmlns="http://www.w3.org/2000/svg"
   xmlns:sodipodi="http://sodipodi.sourceforge.net/DTD/sodipodi-0.dtd"
   xmlns:inkscape="http://www.inkscape.org/namespaces/inkscape"
   version="1.1"
   width="32px"
   height="32px"
   id="svg2"
   inkscape:version="0.91 r13725"
   sodipodi:docname="brightness_increase.svg">
  <metadata
     id="metadata12">
    <rdf:RDF>
      <cc:Work
         rdf:about="">
        <dc:format>image/svg+xml</dc:format>
        <dc:type
           rdf:resource="http://purl.org/dc/dcmitype/StillImage" />
      </cc:Work>
    </rdf:RDF>
  </metadata>
  <defs
     id="defs10" />
  <sodipodi:namedview
     pagecolor="#ffffff"
     bordercolor="#666666"
     borderopacity="1"
     objecttolerance="10"
     gridtolerance="10"
     guidetolerance="10"
     inkscape:pageopacity="0"
     inkscape:pageshadow="2"
     inkscape:window-width="1280"
     inkscape:window-height="972"
     id="namedview8"
     showgrid="false"
     inkscape:zoom="7.375"
     inkscape:cx="-0.20338983"
     inkscape:cy="16"
     inkscape:window-x="-8"
     inkscape:window-y="-8"
     inkscape:window-maximized="1"
     inkscape:current-layer="svg2" />
  <g
     id="g4"
     transform="matrix(0.01335559,0,0,0.01335559,-1.3756594,1.3222371)" />
  <path
     d="m 0,16 q 0,0.601002 0.066778,1.335559 l 4.9949916,0 Q 4.9816366,16.66778 4.9816366,16 q 0,-0.66778 0.080133,-1.335559 l -4.9949916,0 Q 0,15.398998 0,16 Z M 3.7929883,5.6761269 7.33222,9.2153589 Q 8.146912,8.1469115 9.215359,7.3322204 L 5.6761269,3.7929883 Q 4.6477462,4.6477462 3.7929883,5.6761269 Z m 0,20.6477461 q 0.8547579,1.028381 1.8831386,1.883139 L 9.215359,24.66778 Q 8.146912,23.853088 7.33222,22.784641 Z M 7.986644,16 q 0,2.176962 1.075126,4.020033 1.075125,1.843072 2.918197,2.918197 1.843071,1.075126 4.020033,1.075126 2.176962,0 4.020033,-1.075126 1.843072,-1.075125 2.918197,-2.918197 Q 24.013356,18.176962 24.013356,16 q 0,-2.176962 -1.075126,-4.020033 Q 21.863105,10.136895 20.020033,9.0617696 18.176962,7.9866444 16,7.9866444 q -2.176962,0 -4.020033,1.0751252 Q 10.136895,10.136895 9.06177,11.979967 7.986644,13.823038 7.986644,16 Z m 2.791319,0 q 0,-2.163606 1.529216,-3.692821 Q 13.836394,10.777963 16,10.777963 q 2.163606,0 3.692821,1.529216 1.529216,1.529215 1.529216,3.692821 0,2.163606 -1.529216,3.692821 Q 18.163606,21.222037 16,21.222037 q -2.163606,0 -3.692821,-1.529216 Q 10.777963,18.163606 10.777963,16 Z m 3.886478,-15.933222 0,4.9949916 Q 15.439065,4.9682805 16,4.9682805 q 0.560935,0 1.335559,0.093489 l 0,-4.9949916 Q 16.601002,0 16,0 15.398998,0 14.664441,0.066778 Z m 0,26.871452 0,4.994992 Q 15.398998,32 16,32 q 0.601002,0 1.335559,-0.06678 l 0,-4.994992 Q 16.66778,27.018358 16,27.018358 q -0.66778,0 -1.335559,-0.08013 z m 8.1202,-19.6060096 q 1.068447,0.8146911 1.883139,1.8831385 l 3.539232,-3.539232 Q 27.352254,4.6477462 26.323873,3.7929883 Z m 0,17.3355596 3.539232,3.539232 q 1.028381,-0.854758 1.883139,-1.883139 L 24.66778,22.784641 q -0.814692,1.068447 -1.883139,1.883139 z M 26.93823,14.664441 Q 27.03172,15.439065 27.03172,16 q 0,0.560935 -0.09349,1.335559 l 4.994992,0 Q 32,16.601002 32,16 32,15.398998 31.93322,14.664441 l -4.994992,0 z"
     id="path6"
     inkscape:connector-curvature="0" />
</svg>
