<?xml version="1.0" encoding="UTF-8" standalone="no"?>
<svg
   xmlns:dc="http://purl.org/dc/elements/1.1/"
   xmlns:cc="http://creativecommons.org/ns#"
   xmlns:rdf="http://www.w3.org/1999/02/22-rdf-syntax-ns#"
   xmlns:svg="http://www.w3.org/2000/svg"
   xmlns="http://www.w3.org/2000/svg"
   xmlns:sodipodi="http://sodipodi.sourceforge.net/DTD/sodipodi-0.dtd"
   xmlns:inkscape="http://www.inkscape.org/namespaces/inkscape"
   version="1.1"
   width="32px"
   height="32px"
   id="svg2"
   inkscape:version="0.91 r13725"
   sodipodi:docname="broken_link_2.svg">
  <metadata
     id="metadata12">
    <rdf:RDF>
      <cc:Work
         rdf:about="">
        <dc:format>image/svg+xml</dc:format>
        <dc:type
           rdf:resource="http://purl.org/dc/dcmitype/StillImage" />
        <dc:title />
      </cc:Work>
    </rdf:RDF>
  </metadata>
  <defs
     id="defs10" />
  <sodipodi:namedview
     pagecolor="#ffffff"
     bordercolor="#666666"
     borderopacity="1"
     objecttolerance="10"
     gridtolerance="10"
     guidetolerance="10"
     inkscape:pageopacity="0"
     inkscape:pageshadow="2"
     inkscape:window-width="1920"
     inkscape:window-height="1178"
     id="namedview8"
     showgrid="false"
     inkscape:zoom="14.75"
     inkscape:cx="-5.8335222"
     inkscape:cy="18.889738"
     inkscape:window-x="1272"
     inkscape:window-y="-8"
     inkscape:window-maximized="1"
     inkscape:current-layer="svg2" />
  <g
     id="g4"
     transform="matrix(0.01421701,0,0,-0.0142183,-4.5189042,35.424731)" />
  <path
     d="m 21.642375,0.00252489 c -1.706041,-0.047394 -3.185202,0.5734715 -4.398387,1.77728791 L 12.045894,6.97838 15.022581,9.9997695 20.265103,4.7567701 c 0.274861,-0.2748871 0.572827,-0.4413599 0.932991,-0.4887542 0.360164,-0.047394 0.709073,0.040285 1.021847,0.1777288 0.312775,0.1374441 0.588229,0.3216891 0.844135,0.5776186 l 2.354692,2.3104743 c 0.435989,0.4265491 0.704927,0.9514419 0.799707,1.5106947 0.09478,0.5592528 -0.07464,1.0397135 -0.444281,1.4662627 l -2.221408,2.22161 c 1.061537,1.118507 1.804376,2.389859 2.221408,3.821168 l 3.021114,-3.021389 C 29.999015,12.11889 30.554663,10.623597 30.483578,8.8889645 30.412493,7.1543314 29.757326,5.620532 28.439883,4.3124481 L 26.085191,2.0019738 C 24.815138,0.73180529 23.348416,0.04991919 21.642375,0.00252489 Z M 2.893695,0.98003329 0.85,2.9794822 29.106305,31.016199 31.15,29.01675 2.893695,0.98003329 Z m 15.15,9.06416871 -1.466129,1.466262 7.375073,7.420177 c 0.02589,-0.706547 -0.04963,-1.423827 -0.266569,-2.132746 -0.336469,-1.099548 -0.914627,-2.069947 -1.777126,-2.932524 l -3.865249,-3.821169 z m -9.996334,3.021389 c -0.04329,0.710132 0.01351,1.418397 0.22214,2.132745 0.312775,1.071112 0.898633,2.044474 1.732698,2.888093 l 3.998534,3.998898 1.510557,-1.510695 -7.463929,-7.509041 z m -1.821555,2.710364 -2.9766858,2.976957 c -1.2131847,1.213296 -1.7753489,2.683112 -1.7326979,4.398788 0.042651,1.715675 0.684786,3.217484 1.9548387,4.487652 l 2.310264,2.310474 c 1.298487,1.289127 2.862357,1.97279 4.620528,2.043881 1.75817,0.07109 3.204158,-0.459133 4.398387,-1.643991 l 5.242522,-5.243 -3.021114,-3.021389 -5.198094,5.242999 c -0.435989,0.369676 -0.951356,0.494679 -1.510558,0.39989 C 9.753995,27.633426 9.238628,27.399418 8.802639,26.972869 L 6.492375,24.617962 c -0.407554,-0.41707 -0.644504,-0.870278 -0.71085,-1.377398 -0.06635,-0.50712 0.09063,-1.011277 0.48871,-1.466262 L 8.491642,19.597124 C 7.420628,18.526012 6.661795,17.226222 6.225806,15.775955 Z"
     id="path3002"
     inkscape:connector-curvature="0" />
</svg>
