<?xml version="1.0" encoding="UTF-8" standalone="no"?>
<svg
   xmlns:dc="http://purl.org/dc/elements/1.1/"
   xmlns:cc="http://creativecommons.org/ns#"
   xmlns:rdf="http://www.w3.org/1999/02/22-rdf-syntax-ns#"
   xmlns:svg="http://www.w3.org/2000/svg"
   xmlns="http://www.w3.org/2000/svg"
   id="svg2"
   height="32px"
   width="32px"
   version="1.1">
  <metadata
     id="metadata12">
    <rdf:RDF>
      <cc:Work
         rdf:about="">
        <dc:format>image/svg+xml</dc:format>
        <dc:type
           rdf:resource="http://purl.org/dc/dcmitype/StillImage" />
        <dc:title></dc:title>
      </cc:Work>
    </rdf:RDF>
  </metadata>
  <defs
     id="defs10" />
  <g
     transform="matrix(0.01031828,0,0,-0.01031859,-1.873451,33.059217)"
     id="g4" />
  <path
     d="M 23.982947,0.58478548 C 22.783742,-0.06370531 21.475526,-0.1697231 20.177402,0.25117531 L 12.899259,2.6425937 C 12.041234,2.9245195 11.30479,3.4063294 10.730047,4.0753519 10.157591,4.7417136 9.787484,5.5278001 9.624082,6.4067679 9.460178,7.2884203 9.526652,8.2115912 9.814376,9.1042743 l 1.28108,3.8991197 0.142031,0.505338 0.519868,-0.170816 2.945915,-0.967955 0.476545,-0.156581 -0.142032,-0.505338 -1.267156,-3.7836927 -0.01424,-0.043323 -0.01424,-0.043323 -0.01424,-0.043323 C 13.626357,7.4852997 13.633126,7.2621358 13.716776,7.0300302 13.7905,6.8254744 13.907405,6.6823811 14.209104,6.5562597 l 7.249365,-2.4059632 c 0.175064,-0.057522 0.318299,-0.033748 0.461382,0.016403 0.169707,0.059484 0.27644,0.1429265 0.373808,0.2611807 0.115583,0.1403761 0.193856,0.2978436 0.257454,0.4914134 l 0.768958,2.2673685 -0.01455,0.028783 c 0.112459,0.330011 0.114593,0.5903853 0.02506,0.8797758 -0.08262,0.2670482 -0.179173,0.3981637 -0.434772,0.5028592 l -2.166114,0.7117317 -0.476545,0.1565815 0.156577,0.4765595 c 0.299611,0.9990402 0.35826,1.9590972 0.174821,2.9425932 l -0.147916,0.864612 0.823123,-0.270457 2.945915,-0.967955 c 1.2983,-0.432238 2.293262,-1.338108 2.866396,-2.5978478 0.573566,-1.2606748 0.60672,-2.6260048 0.147007,-4.0083491 L 26.493453,3.6239403 C 26.051493,2.2787778 25.181919,1.2331506 23.982947,0.58478548 Z M 23.48876,1.4911722 c 0.980171,0.5300443 1.636426,1.3283758 2.008281,2.4601648 l 0.725635,2.2816039 0.02879,0.014549 c 0.390676,1.1747525 0.340583,2.2256068 -0.129365,3.2585432 -0.47037,1.0338769 -1.188396,1.6579009 -2.243791,2.0092699 l -2.310624,0.783214 c 0.05362,-0.714607 0.01224,-1.420613 -0.149451,-2.13492 L 23.23777,9.5657424 23.2811,9.5515084 c 0.502502,-0.2058413 0.882412,-0.6152857 1.043127,-1.1347604 0.15381,-0.4971275 0.12203,-1.0352413 -0.05105,-1.5432441 L 23.547539,4.5918956 C 23.447158,4.286378 23.289201,4.0248198 23.089566,3.7823632 l -0.02879,-0.014545 C 22.84526,3.5152997 22.55929,3.2844742 22.241381,3.173045 21.886844,3.0487776 21.506307,3.078568 21.145329,3.1971771 l -7.278143,2.3914185 -0.02878,-0.014548 -0.01455,0.028783 c -0.499586,0.208842 -0.896254,0.5615423 -1.071611,1.0481129 -0.15724,0.436307 -0.114692,0.9210522 0.0229,1.384495 l -0.02879,-0.014549 -0.01455,0.028783 0.01424,0.043323 0.02879,0.014539 -0.01454,0.028785 1.124503,3.4225605 -1.978281,0.626013 L 10.81079,8.7768781 10.78202,8.7623301 C 10.541495,8.0160778 10.514995,7.3092998 10.647112,6.5986295 10.779732,5.885276 11.048713,5.2885581 11.505828,4.7564577 11.960659,4.2270178 12.532008,3.8672745 13.226654,3.63903 L 20.504797,1.2476117 C 21.566443,0.90338837 22.50883,0.96124829 23.488768,1.4911669 Z M 4.465579,25.572299 Q 4.419147,23.704635 5.739887,22.383855 L 7.896408,20.22727 q 0.474641,1.578744 1.640607,2.744744 l -1.609652,1.609701 q -0.433368,0.495292 -0.36114,1.047336 0.07223,0.552045 0.515914,1.006062 l 1.692199,1.692248 q 0.474641,0.464337 1.083419,0.567523 0.608779,0.103186 1.08342,-0.299239 l 5.406781,-5.417258 q 0.402413,-0.464337 0.29923,-1.073134 -0.103183,-0.608796 -0.567506,-1.073133 l -2.806573,-2.806655 2.187476,-2.187539 0.02064,0.01032 2.785936,2.786017 q 0.938964,0.938992 1.305263,2.135948 0.366299,1.196956 0.09802,2.362957 -0.268275,1.166 -1.135011,2.032761 L 14.12865,30.783187 Q 12.828546,32.07301 10.914505,31.995621 9.000463,31.918231 7.586858,30.514904 L 5.8946612,28.822654 Q 4.5120113,27.439963 4.465579,25.572299 Z"
     style="color:#000000;font-style:normal;font-variant:normal;font-weight:normal;font-stretch:normal;font-size:medium;line-height:normal;font-family:Sans;-inkscape-font-specification:Sans;text-indent:0;text-align:start;text-decoration:none;text-decoration-line:none;letter-spacing:normal;word-spacing:normal;text-transform:none;direction:ltr;block-progression:tb;writing-mode:lr-tb;baseline-shift:baseline;text-anchor:start;display:inline;overflow:visible;visibility:visible;fill-opacity:1;fill-rule:nonzero;stroke:none;stroke-width:1;marker:none;enable-background:accumulate"
     id="path6" />
</svg>
