<?xml version="1.0" encoding="UTF-8" standalone="no"?>
<svg
   xmlns:dc="http://purl.org/dc/elements/1.1/"
   xmlns:cc="http://creativecommons.org/ns#"
   xmlns:rdf="http://www.w3.org/1999/02/22-rdf-syntax-ns#"
   xmlns:svg="http://www.w3.org/2000/svg"
   xmlns="http://www.w3.org/2000/svg"
   xmlns:sodipodi="http://sodipodi.sourceforge.net/DTD/sodipodi-0.dtd"
   xmlns:inkscape="http://www.inkscape.org/namespaces/inkscape"
   version="1.1"
   width="32px"
   height="32px"
   id="svg2"
   inkscape:version="0.91 r13725"
   sodipodi:docname="broken_link_1.svg">
  <metadata
     id="metadata12">
    <rdf:RDF>
      <cc:Work
         rdf:about="">
        <dc:format>image/svg+xml</dc:format>
        <dc:type
           rdf:resource="http://purl.org/dc/dcmitype/StillImage" />
        <dc:title />
      </cc:Work>
    </rdf:RDF>
  </metadata>
  <defs
     id="defs10" />
  <sodipodi:namedview
     pagecolor="#ffffff"
     bordercolor="#666666"
     borderopacity="1"
     objecttolerance="10"
     gridtolerance="10"
     guidetolerance="10"
     inkscape:pageopacity="0"
     inkscape:pageshadow="2"
     inkscape:window-width="1920"
     inkscape:window-height="1178"
     id="namedview8"
     showgrid="false"
     inkscape:zoom="14.75"
     inkscape:cx="5.709389"
     inkscape:cy="11.166201"
     inkscape:window-x="1272"
     inkscape:window-y="-8"
     inkscape:window-maximized="1"
     inkscape:current-layer="svg2" />
  <g
     id="g4"
     transform="matrix(0.01,0,0,-0.01,-1.5934717,33.000755)" />
  <path
     d="m 21.288243,7.0716322 c -0.45368,0.011407 -0.908089,0.082537 -1.351446,0.2114096 -0.889423,0.2585314 -1.676443,0.7477872 -2.365553,1.4259776 l -3.031905,2.9846036 -0.366494,0.364785 0.366494,0.397947 2.265599,2.255035 0.399812,0.364785 0.366494,-0.364785 2.898635,-2.91828 0.03332,-0.03316 0.06663,-0.03316 0.03332,-0.03316 c 0.237696,-0.236587 0.446644,-0.333898 0.699671,-0.364785 0.209584,-0.02558 0.399239,0.01222 0.633035,0.198974 0.01496,0.01195 0.01787,0.02003 0.03332,0.03316 l 5.564046,5.538099 c 0.126097,0.12551 0.176396,0.257477 0.199906,0.397948 l 0,0.03316 c 0.02424,0.183366 0.03035,0.320044 -0.03332,0.464272 -0.07558,0.17121 -0.184313,0.316102 -0.333176,0.464271 l -1.765835,1.757601 c -0.251913,0.25631 -0.491029,0.379049 -0.799624,0.431109 -0.284769,0.04804 -0.483997,-0.01293 -0.69967,-0.198973 l -1.632565,-1.624952 -0.366494,-0.364785 -0.366494,0.364785 c -0.781647,0.738443 -1.672965,1.237624 -2.665411,1.525465 l -0.866259,0.232136 0.633035,0.663245 2.298918,2.255034 c 1.003686,0.991201 2.269448,1.484263 3.698258,1.425978 1.429874,-0.05832 2.73771,-0.661233 3.798211,-1.724438 l 1.732517,-1.724438 c 1.034487,-1.029663 1.593458,-2.312882 1.632565,-3.714174 0.03912,-1.401565 -0.439513,-2.651551 -1.432659,-3.64785 L 24.96776,8.543208 C 24.307883,7.8864087 23.520344,7.4339282 22.635526,7.2167172 22.194877,7.1085436 21.741924,7.0602258 21.288243,7.0716322 Z M 6.6430582,7.6022286 C 5.356553,7.6340643 4.2366638,8.1237329 3.2842235,9.0717317 L 1.5350474,10.812751 c -0.96665594,0.969222 -1.47722104,2.10959 -1.53052924,3.421931 -0.053308,1.312342 0.3651058,2.414463 1.25357634,3.305864 l 5.5973637,5.560898 c 0.597052,0.594268 1.2979164,0.982957 2.1010941,1.166897 0.803178,0.183941 1.6160157,0.151663 2.4405157,-0.09949 0.824502,-0.251148 1.560488,-0.699281 2.207295,-1.343072 l 2.877811,-2.86439 0.01041,-0.02279 -2.259352,-2.248816 -2.900717,2.88719 c -0.31985,0.318358 -0.688454,0.511666 -1.107812,0.582412 -0.4193567,0.07075 -0.7900437,-0.03084 -1.1098937,-0.306751 L 3.517447,15.29173 C 3.2402442,14.966297 3.1381812,14.594051 3.2092588,14.176649 3.2803368,13.759245 3.4766328,13.389072 3.7964822,13.06364 L 5.543576,11.322621 c 0.3127416,-0.304209 0.6588286,-0.481075 1.039094,-0.530597 0.3802652,-0.04953 0.7416507,0.07387 1.0828233,0.371003 l 1.6638,1.656041 C 10.13247,12.019637 11.07797,11.45737 12.165457,11.131937 L 9.9373403,8.9142109 C 9.0275453,8.0086598 7.9295634,7.5703929 6.6430582,7.6022286 Z m 14.6660088,0.532669 c 0.35516,-0.012029 0.708051,0.023471 1.059917,0.10985 0.700214,0.1718929 1.298243,0.5294562 1.832471,1.0611926 l 5.597363,5.5380988 c 0.812226,0.814804 1.164763,1.73982 1.1328,2.885117 -0.03197,1.145571 -0.462312,2.11827 -1.332705,2.984605 l -1.732518,1.724438 c -0.901241,0.90354 -1.893655,1.378187 -3.065223,1.425977 l -0.03332,0 c -1.155891,0.03923 -2.091003,-0.329931 -2.898635,-1.127517 l -1.765832,-1.7576 c 0.677513,-0.281984 1.320664,-0.651256 1.899105,-1.127517 l 1.399341,1.392815 0,0.03316 c 0.407264,0.351317 0.966338,0.501869 1.499294,0.43111 l 0.06664,0 c 0.530122,-0.08944 1.011555,-0.368178 1.399341,-0.762732 l 1.732518,-1.724438 c 0.234956,-0.233861 0.435855,-0.500181 0.5664,-0.795895 0.142455,-0.322697 0.180108,-0.706888 0.13327,-1.061193 -0.05064,-0.383072 -0.222149,-0.718547 -0.499764,-0.994868 L 22.702166,10.79824 22.668846,10.76508 C 22.251924,10.410621 21.72271,10.214236 21.202867,10.267646 l -0.03332,0 c -0.475634,0.05806 -0.902818,0.321984 -1.26607,0.663245 l 0,-0.03316 -0.06663,0.03316 0,0.03316 -0.03332,0 -2.598776,2.586657 -1.532611,-1.459139 2.632093,-2.6198194 0,-0.033162 0.03332,0 c 0.57018,-0.554851 1.19137,-0.921798 1.899102,-1.1275172 0.359821,-0.1045902 0.717251,-0.1641463 1.072412,-0.1761745 z"
     id="path2993"
     inkscape:connector-curvature="0" />
</svg>
