<?xml version="1.0" encoding="UTF-8" standalone="no"?>
<svg
   xmlns:dc="http://purl.org/dc/elements/1.1/"
   xmlns:cc="http://creativecommons.org/ns#"
   xmlns:rdf="http://www.w3.org/1999/02/22-rdf-syntax-ns#"
   xmlns:svg="http://www.w3.org/2000/svg"
   xmlns="http://www.w3.org/2000/svg"
   xmlns:sodipodi="http://sodipodi.sourceforge.net/DTD/sodipodi-0.dtd"
   xmlns:inkscape="http://www.inkscape.org/namespaces/inkscape"
   version="1.1"
   width="32px"
   height="32px"
   id="svg2"
   inkscape:version="0.91 r13725"
   sodipodi:docname="brush.svg">
  <metadata
     id="metadata12">
    <rdf:RDF>
      <cc:Work
         rdf:about="">
        <dc:format>image/svg+xml</dc:format>
        <dc:type
           rdf:resource="http://purl.org/dc/dcmitype/StillImage" />
      </cc:Work>
    </rdf:RDF>
  </metadata>
  <defs
     id="defs10" />
  <sodipodi:namedview
     pagecolor="#ffffff"
     bordercolor="#666666"
     borderopacity="1"
     objecttolerance="10"
     gridtolerance="10"
     guidetolerance="10"
     inkscape:pageopacity="0"
     inkscape:pageshadow="2"
     inkscape:window-width="1280"
     inkscape:window-height="972"
     id="namedview8"
     showgrid="false"
     inkscape:zoom="7.375"
     inkscape:cx="-0.20338983"
     inkscape:cy="16"
     inkscape:window-x="-8"
     inkscape:window-y="-8"
     inkscape:window-maximized="1"
     inkscape:current-layer="svg2" />
  <g
     id="g4"
     transform="matrix(0.01295682,0,0,-0.01295728,-1.4762153,21.953186)" />
  <path
     d="m 0.00507048,29.889288 q -0.038871,-0.272103 0.220266,-0.336889 0.5960141,-0.207317 1.10133032,-0.492377 0.5053163,-0.28506 0.861629,-0.550684 0.3563128,-0.265625 0.6867118,-0.667301 0.3303991,-0.401676 0.5182731,-0.680258 0.1878739,-0.278582 0.4081401,-0.745044 0.220266,-0.466463 0.3109638,-0.693215 0.090698,-0.226753 0.2720934,-0.706173 0.2980069,-0.790395 0.7644527,-1.366992 0.4664458,-0.5766 0.9782404,-0.86166 0.5117944,-0.285061 0.9588054,-0.408156 0.44701,-0.123092 0.861629,-0.123092 1.619603,-0.02591 2.5913655,0.945882 0.971761,0.958838 1.062459,2.332311 0.0907,1.373474 -0.751496,2.474843 -0.518273,0.583078 -1.0235895,0.919968 -2.086048,1.38643 -6.2840603,1.399387 -1.3993373,0 -3.25216362,-0.155487 -0.2591364,-0.02591 -0.2850501,-0.285061 z M 10.150266,20.482297 q 1.826912,-3.34298 2.099005,-3.692828 0.194353,-0.259146 0.984719,-1.023625 0.790366,-0.764481 1.63256,-1.52896 0.505316,-0.453506 4.359973,-3.466076 3.854656,-3.0125711 7.625092,-5.9344403 3.770437,-2.9218679 3.783394,-2.9218679 0.28505,-0.2073167 0.602492,-0.2397099 0.317442,-0.032393 0.524752,0.1619661 0.440532,0.440548 0.06478,0.9588396 -0.01296,0.012957 -2.856981,3.7122627 -2.844023,3.6993067 -5.934226,7.6966317 -3.090204,3.997325 -3.59552,4.619275 -0.725582,0.907011 -1.425251,1.57431 -0.699668,0.6673 -1.062459,0.926446 -0.155482,0.103656 -1.075418,0.654342 -0.919934,0.550686 -1.762128,1.043063 l -0.85515,0.492376 q -0.194353,0.07774 -0.323921,0.01944 -0.129568,-0.05831 -0.155482,-0.213795 -0.246179,-0.919968 -0.85515,-1.516004 -0.557144,-0.570121 -1.554819,-0.855181 -0.4146195,-0.116613 -0.220266,-0.466463 z"
     id="path6"
     inkscape:connector-curvature="0" />
</svg>
