<?xml version="1.0" encoding="UTF-8" standalone="no"?>
<svg
   xmlns:dc="http://purl.org/dc/elements/1.1/"
   xmlns:cc="http://creativecommons.org/ns#"
   xmlns:rdf="http://www.w3.org/1999/02/22-rdf-syntax-ns#"
   xmlns:svg="http://www.w3.org/2000/svg"
   xmlns="http://www.w3.org/2000/svg"
   xmlns:sodipodi="http://sodipodi.sourceforge.net/DTD/sodipodi-0.dtd"
   xmlns:inkscape="http://www.inkscape.org/namespaces/inkscape"
   version="1.1"
   width="32px"
   height="32px"
   id="svg2"
   inkscape:version="0.91 r13725"
   sodipodi:docname="bug.svg">
  <metadata
     id="metadata12">
    <rdf:RDF>
      <cc:Work
         rdf:about="">
        <dc:format>image/svg+xml</dc:format>
        <dc:type
           rdf:resource="http://purl.org/dc/dcmitype/StillImage" />
      </cc:Work>
    </rdf:RDF>
  </metadata>
  <defs
     id="defs10" />
  <sodipodi:namedview
     pagecolor="#ffffff"
     bordercolor="#666666"
     borderopacity="1"
     objecttolerance="10"
     gridtolerance="10"
     guidetolerance="10"
     inkscape:pageopacity="0"
     inkscape:pageshadow="2"
     inkscape:window-width="1280"
     inkscape:window-height="972"
     id="namedview8"
     showgrid="false"
     inkscape:zoom="7.375"
     inkscape:cx="-0.20338983"
     inkscape:cy="16"
     inkscape:window-x="-8"
     inkscape:window-y="-8"
     inkscape:window-maximized="1"
     inkscape:current-layer="svg2" />
  <g
     id="g4"
     transform="matrix(0.01361702,0,0,-0.01361702,-3.1702128,21.962766)" />
  <path
     d="m 1.0212755,29.276596 q 0,-0.558298 0.4017021,-0.96 0.4017022,-0.401702 0.96,-0.401702 l 2.1651064,0 2.7234045,-2.723405 1.525106,0 q -0.544681,-1.906383 -0.789787,-4.085106 l -3.5540426,0 -2.9957447,-3.036596 q -0.3948936,-0.40851 -0.3880851,-0.973617 0.00681,-0.565106 0.4017021,-0.96 0.3948936,-0.394893 0.9668085,-0.388085 0.5719149,0.0068 0.9531915,0.401702 l 2.2059574,2.233192 2.2331919,0 0,-0.87149 q 0,-1.484255 0.40851,-2.886808 -0.190638,-0.108936 -0.217872,-0.13617 l -2.9140426,-2.777873 0,-4.7931912 -1.1438298,-1.1982979 q -0.3948936,-0.3948936 -0.3880851,-0.96 0.00681,-0.5651064 0.4153191,-0.96 0.4085107,-0.3812766 0.9736171,-0.374468 0.5651063,0.00681 0.96,0.4017021 l 1.9063833,1.9880851 0,4.7251069 1.620425,1.55234 q 1.1302125,-1.620426 2.8391485,-2.5259576 1.708936,-0.9055319 3.710638,-0.9055319 1.974468,0 3.669788,0.8851064 1.695319,0.8851061 2.825532,2.4646811 l 1.674893,-1.497873 0,-4.6706379 1.797447,-1.9744681 q 0.381277,-0.4221276 0.939574,-0.4493617 0.558298,-0.027234 0.980426,0.3540426 0.422128,0.3812766 0.449362,0.9395745 0.02723,0.5582978 -0.354043,0.9804255 l -1.089362,1.1982979 0,4.8476592 -3.118297,2.777873 -0.04085,0.02723 q 0.435745,1.388936 0.435745,2.96851 0.01362,0.326809 0,0.87149 l 2.165107,0 2.233191,-2.233192 q 0.394894,-0.394893 0.96,-0.394893 0.565106,0 0.96,0.394893 0.408511,0.394894 0.408511,0.96 0,0.565107 -0.408511,0.96 l -3.036596,3.036596 -3.458723,0 q -0.245106,2.246808 -0.77617,4.085106 l 1.511489,0 2.723404,2.723405 2.165107,0 q 0.558299,0 0.960001,0.401702 0.401702,0.401702 0.401702,0.96 0,0.558298 -0.401702,0.96 -0.401702,0.401706 -0.960001,0.401706 l -3.281701,0 -2.723405,-2.723404 -1.470639,0 Q 20.030637,32 15.999998,32 11.96936,32 9.8587225,27.914894 l -1.470638,0 -2.7234047,2.723404 -3.2817022,0 q -0.5582978,0 -0.96,-0.401702 -0.4017021,-0.401702 -0.4017021,-0.96 z M 11.914892,7.8297872 l 0,-0.3268085 q 0,-1.8110638 1.429787,-3.0638298 L 12.091913,3.0638298 Q 11.914892,2.8595745 11.914892,2.6008511 l 0,-1.92 q 0,-0.2859575 0.197447,-0.4834043 Q 12.309786,0 12.595743,0 q 0.285958,0 0.483404,0.1974468 0.197447,0.1974468 0.197447,0.4834043 l 0,1.6612766 1.252766,1.3617021 q 0.748937,-0.2859575 1.470639,-0.2859575 0.721703,0 1.470638,0.2859575 l 1.252766,-1.3617021 0,-1.6612766 q 0,-0.2859575 0.197446,-0.4834043 Q 19.118296,0 19.404254,0 q 0.285957,0 0.483404,0.1974468 0.197447,0.1974468 0.197447,0.4834043 l 0,1.92 q 0,0.2587234 -0.177021,0.4629787 l -1.252766,1.3753191 q 1.429787,1.252766 1.429787,3.0638298 l 0,0.3268085 q -1.960851,-0.9395744 -4.085107,-0.9395744 -2.124255,0 -4.085106,0.9395744 z"
     id="path6"
     inkscape:connector-curvature="0" />
</svg>
