<?xml version="1.0" encoding="UTF-8" standalone="no"?>
<svg
   xmlns:dc="http://purl.org/dc/elements/1.1/"
   xmlns:cc="http://creativecommons.org/ns#"
   xmlns:rdf="http://www.w3.org/1999/02/22-rdf-syntax-ns#"
   xmlns:svg="http://www.w3.org/2000/svg"
   xmlns="http://www.w3.org/2000/svg"
   xmlns:sodipodi="http://sodipodi.sourceforge.net/DTD/sodipodi-0.dtd"
   xmlns:inkscape="http://www.inkscape.org/namespaces/inkscape"
   version="1.1"
   width="32px"
   height="32px"
   id="svg2"
   inkscape:version="0.91 r13725"
   sodipodi:docname="building.svg">
  <metadata
     id="metadata12">
    <rdf:RDF>
      <cc:Work
         rdf:about="">
        <dc:format>image/svg+xml</dc:format>
        <dc:type
           rdf:resource="http://purl.org/dc/dcmitype/StillImage" />
      </cc:Work>
    </rdf:RDF>
  </metadata>
  <defs
     id="defs10" />
  <sodipodi:namedview
     pagecolor="#ffffff"
     bordercolor="#666666"
     borderopacity="1"
     objecttolerance="10"
     gridtolerance="10"
     guidetolerance="10"
     inkscape:pageopacity="0"
     inkscape:pageshadow="2"
     inkscape:window-width="1280"
     inkscape:window-height="972"
     id="namedview8"
     showgrid="false"
     inkscape:zoom="7.375"
     inkscape:cx="-23.322034"
     inkscape:cy="16"
     inkscape:window-x="-8"
     inkscape:window-y="-8"
     inkscape:window-maximized="1"
     inkscape:current-layer="svg2" />
  <g
     id="g4"
     transform="matrix(0.01230769,0,0,-0.01230769,-0.92307692,25.307692)" />
  <path
     d="m 1.230769,32 0,-1.230769 1.2307692,0 0,-1.230769 1.2307693,0 0,-24.6153851 24.6153845,0 0,24.6153851 1.230769,0 0,1.230769 1.23077,0 0,1.230769 -12.307693,0 0,-3.692308 -4.923077,0 0,3.692308 -12.307692,0 z M 3.6923075,3.6923077 6.1538459,1.2307692 l 6.1538461,0 L 13.538461,0 l 4.923077,0 1.230769,1.2307692 6.153847,0 2.461538,2.4615385 -24.6153845,0 z m 3.6923075,22.1538463 4.923077,0 0,-2.461539 -4.923077,0 0,2.461539 z m 0,-4.923077 4.923077,0 0,-2.461539 -4.923077,0 0,2.461539 z m 0,-4.923077 4.923077,0 0,-2.461538 -4.923077,0 0,2.461538 z m 0,-4.923077 4.923077,0 0,-2.4615384 -4.923077,0 0,2.4615384 z m 6.153846,14.769231 4.923077,0 0,-2.461539 -4.923077,0 0,2.461539 z m 0,-4.923077 4.923077,0 0,-2.461539 -4.923077,0 0,2.461539 z m 0,-4.923077 4.923077,0 0,-2.461538 -4.923077,0 0,2.461538 z m 0,-4.923077 4.923077,0 0,-2.4615384 -4.923077,0 0,2.4615384 z m 6.153846,14.769231 4.923077,0 0,-2.461539 -4.923077,0 0,2.461539 z m 0,-4.923077 4.923077,0 0,-2.461539 -4.923077,0 0,2.461539 z m 0,-4.923077 4.923077,0 0,-2.461538 -4.923077,0 0,2.461538 z m 0,-4.923077 4.923077,0 0,-2.4615384 -4.923077,0 0,2.4615384 z"
     id="path6"
     inkscape:connector-curvature="0" />
</svg>
