<?xml version="1.0" encoding="UTF-8" standalone="no"?>
<svg
   xmlns:dc="http://purl.org/dc/elements/1.1/"
   xmlns:cc="http://creativecommons.org/ns#"
   xmlns:rdf="http://www.w3.org/1999/02/22-rdf-syntax-ns#"
   xmlns:svg="http://www.w3.org/2000/svg"
   xmlns="http://www.w3.org/2000/svg"
   xmlns:sodipodi="http://sodipodi.sourceforge.net/DTD/sodipodi-0.dtd"
   xmlns:inkscape="http://www.inkscape.org/namespaces/inkscape"
   version="1.1"
   width="32px"
   height="32px"
   id="svg2"
   inkscape:version="0.91 r13725"
   sodipodi:docname="bullhorn.svg">
  <metadata
     id="metadata12">
    <rdf:RDF>
      <cc:Work
         rdf:about="">
        <dc:format>image/svg+xml</dc:format>
        <dc:type
           rdf:resource="http://purl.org/dc/dcmitype/StillImage" />
      </cc:Work>
    </rdf:RDF>
  </metadata>
  <defs
     id="defs10" />
  <sodipodi:namedview
     pagecolor="#ffffff"
     bordercolor="#666666"
     borderopacity="1"
     objecttolerance="10"
     gridtolerance="10"
     guidetolerance="10"
     inkscape:pageopacity="0"
     inkscape:pageshadow="2"
     inkscape:window-width="1280"
     inkscape:window-height="972"
     id="namedview8"
     showgrid="false"
     inkscape:zoom="7.375"
     inkscape:cx="-0.20338983"
     inkscape:cy="16"
     inkscape:window-x="-8"
     inkscape:window-y="-8"
     inkscape:window-maximized="1"
     inkscape:current-layer="svg2" />
  <g
     id="g4"
     transform="matrix(0.0128,0,0,-0.0128,0.3,22.16)" />
  <path
     d="M 0,16 0,14.72 Q 0,13.6704 0.7552,12.9152 1.5104,12.16 2.56,12.16 l 0,6.4 Q 1.5104,18.56 0.7552,17.8048 0,17.0496 0,16 Z m 3.84,2.56 0,-6.4 q 0,-0.5248 0.3776,-0.9024 Q 4.5952,10.88 5.12,10.88 l 5.12,0 17.92,-6.4 0,21.76 -17.92,-6.4 -0.96,0 1.1904,7.6928 Q 10.56,28.0576 10.24,28.4288 9.92,28.8 9.3824,28.8 l -2.1248,0 Q 6.7328,28.8 6.2784,28.4288 5.824,28.0576 5.7344,27.5456 L 4.2496,19.4816 Q 3.84,19.0976 3.84,18.56 Z m 25.6,7.68 0,-21.76 q 0,-0.5248 0.3776,-0.9024 Q 30.1952,3.2 30.72,3.2 31.2448,3.2 31.6224,3.5776 32,3.9552 32,4.48 l 0,21.76 q 0,0.5248 -0.3776,0.9024 Q 31.2448,27.52 30.72,27.52 30.1952,27.52 29.8176,27.1424 29.44,26.7648 29.44,26.24 Z"
     id="path6"
     inkscape:connector-curvature="0" />
</svg>
