<?xml version="1.0" encoding="UTF-8" standalone="no"?>
<svg
   xmlns:dc="http://purl.org/dc/elements/1.1/"
   xmlns:cc="http://creativecommons.org/ns#"
   xmlns:rdf="http://www.w3.org/1999/02/22-rdf-syntax-ns#"
   xmlns:svg="http://www.w3.org/2000/svg"
   xmlns="http://www.w3.org/2000/svg"
   xmlns:sodipodi="http://sodipodi.sourceforge.net/DTD/sodipodi-0.dtd"
   xmlns:inkscape="http://www.inkscape.org/namespaces/inkscape"
   version="1.1"
   width="32px"
   height="32px"
   id="svg2"
   inkscape:version="0.91 r13725"
   sodipodi:docname="buoy.svg">
  <metadata
     id="metadata12">
    <rdf:RDF>
      <cc:Work
         rdf:about="">
        <dc:format>image/svg+xml</dc:format>
        <dc:type
           rdf:resource="http://purl.org/dc/dcmitype/StillImage" />
      </cc:Work>
    </rdf:RDF>
  </metadata>
  <defs
     id="defs10" />
  <sodipodi:namedview
     pagecolor="#ffffff"
     bordercolor="#666666"
     borderopacity="1"
     objecttolerance="10"
     gridtolerance="10"
     guidetolerance="10"
     inkscape:pageopacity="0"
     inkscape:pageshadow="2"
     inkscape:window-width="1280"
     inkscape:window-height="972"
     id="namedview8"
     showgrid="false"
     inkscape:zoom="7.375"
     inkscape:cx="-23.322034"
     inkscape:cy="16"
     inkscape:window-x="-8"
     inkscape:window-y="-8"
     inkscape:window-maximized="1"
     inkscape:current-layer="svg2" />
  <g
     id="g4"
     transform="matrix(0.01333333,0,0,-0.01333352,-1.3333333,22.587708)" />
  <path
     d="m 0,29.36463 0,-4.000055 q 0.8133333,0 1.5066667,0.146669 Q 2.2,25.657912 2.78,25.97125 q 0.58,0.313338 0.8866667,0.520008 0.3066666,0.206669 0.7866666,0.593341 0.6,0.49334 0.96,0.666676 0.36,0.173336 0.9866667,0.173336 0.426667,0 0.766667,-0.106667 0.34,-0.106666 0.54,-0.246669 0.2,-0.140003 0.64,-0.486673 0.48,-0.386672 0.786666,-0.593342 Q 9.44,26.284588 10.02,25.97125 q 0.58,-0.313338 1.266667,-0.460006 0.686666,-0.146669 1.5,-0.146669 0.813333,0 1.506666,0.146669 0.693334,0.146668 1.273334,0.460006 0.58,0.313338 0.886666,0.520008 0.306667,0.206669 0.786667,0.593341 0.6,0.480007 0.966667,0.660009 0.366666,0.180003 0.98,0.180003 0.44,0 0.773333,-0.106667 0.333333,-0.106666 0.54,-0.246669 0.206667,-0.140003 0.646667,-0.486673 0.466666,-0.373339 0.786666,-0.593342 0.32,-0.220004 0.886667,-0.526674 0.566667,-0.306671 1.266667,-0.453339 0.7,-0.146669 1.513333,-0.146669 0.813333,0 1.506667,0.153336 0.693333,0.153334 1.26,0.453338 0.566666,0.300004 0.893333,0.520008 0.326667,0.220003 0.78,0.593342 0.44,0.34667 0.646667,0.486673 0.206666,0.140001 0.54,0.246669 Q 31.56,27.924611 32,27.924611 l 0,4.000056 q -0.813333,0 -1.513333,-0.146669 -0.7,-0.146668 -1.266667,-0.453339 -0.566667,-0.306671 -0.886667,-0.526675 -0.32,-0.220002 -0.786666,-0.593341 -0.44,-0.346672 -0.64,-0.486675 -0.2,-0.140001 -0.54,-0.246669 -0.34,-0.106667 -0.766667,-0.106667 -0.44,0 -0.773333,0.106667 -0.333334,0.106667 -0.54,0.246669 Q 24.08,29.857971 23.64,30.204643 q -0.466667,0.373339 -0.786667,0.593341 -0.32,0.220004 -0.886666,0.526675 Q 21.4,31.63133 20.7,31.777998 q -0.7,0.146669 -1.513333,0.146669 -0.813334,0 -1.506667,-0.146669 -0.693333,-0.146668 -1.26,-0.453339 -0.566667,-0.306671 -0.886667,-0.526675 -0.32,-0.220002 -0.786666,-0.593341 -0.44,-0.346672 -0.646667,-0.486675 -0.206667,-0.140001 -0.54,-0.246669 -0.333333,-0.106667 -0.773333,-0.106667 -0.426667,0 -0.766667,0.106667 -0.34,0.106667 -0.54,0.246669 -0.2,0.140003 -0.64,0.486675 -0.466667,0.373339 -0.786667,0.593341 -0.32,0.220004 -0.886666,0.526675 Q 8.6,31.63133 7.906667,31.777998 7.213333,31.924667 6.4,31.924667 q -0.8133333,0 -1.5133333,-0.146669 Q 4.1866667,31.63133 3.62,31.324659 3.0533333,31.017988 2.7333333,30.797984 2.4133333,30.577982 1.9466667,30.204643 1.3466667,29.724635 0.98,29.544632 0.6133333,29.36463 0,29.36463 Z m 0,-6.666759 0,-4.000055 q 0.8133333,0 1.5066667,0.146668 Q 2.2,18.991154 2.78,19.304491 q 0.58,0.313337 0.8866667,0.520008 0.3066666,0.206669 0.7866666,0.593341 0.6,0.49334 0.96,0.666676 0.36,0.173335 0.9866667,0.173335 0.426667,0 0.766667,-0.106667 0.34,-0.106666 0.54,-0.246669 0.2,-0.140003 0.64,-0.486673 0.48,-0.386672 0.786666,-0.593342 Q 9.44,19.617828 10.02,19.304491 q 0.58,-0.313337 1.266667,-0.460007 0.686666,-0.146668 1.5,-0.146668 0.813333,0 1.506666,0.146668 0.693334,0.14667 1.273334,0.460007 0.58,0.313337 0.886666,0.520008 Q 16.76,20.031168 17.24,20.41784 q 0.6,0.480007 0.966667,0.66001 0.366666,0.180001 0.98,0.180001 0.44,0 0.773333,-0.106667 0.333333,-0.106666 0.54,-0.246669 0.206667,-0.140003 0.646667,-0.486673 0.466666,-0.373339 0.786666,-0.593342 0.32,-0.220004 0.886667,-0.526674 0.566667,-0.306671 1.266667,-0.45334 0.7,-0.146668 1.513333,-0.146668 0.813333,0 1.506667,0.153336 0.693333,0.153334 1.26,0.453338 0.566666,0.300004 0.893333,0.520008 0.326667,0.220003 0.78,0.593342 0.44,0.34667 0.646667,0.486673 0.206666,0.140001 0.54,0.246669 Q 31.56,21.257851 32,21.257851 l 0,4.000056 q -0.813333,0 -1.513333,-0.146669 -0.7,-0.146668 -1.266667,-0.453339 -0.566667,-0.306671 -0.886667,-0.526675 -0.32,-0.220001 -0.786666,-0.59334 -0.44,-0.34667 -0.64,-0.486674 -0.2,-0.140002 -0.54,-0.246671 -0.34,-0.106667 -0.766667,-0.106667 -0.44,0 -0.773333,0.106667 -0.333334,0.106667 -0.54,0.246671 Q 24.08,23.191214 23.64,23.537884 q -0.466667,0.373339 -0.786667,0.59334 -0.32,0.220004 -0.886666,0.526675 Q 21.4,24.96457 20.7,25.111238 q -0.7,0.146669 -1.513333,0.146669 -0.813334,0 -1.506667,-0.146669 -0.693333,-0.146668 -1.26,-0.453339 -0.566667,-0.306671 -0.886667,-0.526675 -0.32,-0.220001 -0.786666,-0.59334 -0.44,-0.34667 -0.646667,-0.486674 -0.206667,-0.140002 -0.54,-0.246671 -0.333333,-0.106667 -0.773333,-0.106667 -0.426667,0 -0.766667,0.106667 -0.34,0.106667 -0.54,0.246671 -0.2,0.140004 -0.64,0.486674 -0.466667,0.373339 -0.786667,0.59334 -0.32,0.220004 -0.886666,0.526675 Q 8.6,24.96457 7.906667,25.111238 7.213333,25.257907 6.4,25.257907 q -0.8133333,0 -1.5133333,-0.146669 Q 4.1866667,24.96457 3.62,24.657899 3.0533333,24.351228 2.7333333,24.131224 2.4133333,23.911223 1.9466667,23.537884 1.3466667,23.057876 0.98,22.877874 0.6133333,22.697871 0,22.697871 Z m 9.4,-5.293405 q 0.2,-2.12003 1.68,-3.626719 1.48,-1.506688 3.586667,-1.733358 l 0,-10.0668071 q 0,-0.2800039 0.193333,-0.4733399 0.193333,-0.193336 0.473333,-0.193336 0.28,0 0.473334,0.193336 Q 16,1.697578 16,1.9775819 l 0,10.0668071 q 2.226667,0.253338 3.746667,1.893362 1.52,1.640023 1.573333,3.893387 -0.693333,0.426672 -1.426667,1.026681 -0.05333,0.04 -0.133333,0.12 -0.08,0.08 -0.133333,0.126667 -0.05333,0.04667 -0.16,0.08667 -0.106667,0.04 -0.24,0.04 -0.133334,0 -0.253334,-0.04 -0.12,-0.04 -0.173333,-0.08 -0.05333,-0.04 -0.166667,-0.133334 Q 18.52,18.884486 18.48,18.857819 17.946667,18.431146 17.553333,18.157808 17.16,17.884472 16.42,17.491132 15.68,17.097794 14.76,16.897791 13.84,16.697788 12.786667,16.697788 10.96,16.697788 9.4,17.404466 Z m 7.933333,-9.4267998 0,-6.6667602 Q 25.546667,0.15088993 25.88,0.08422243 q 0.253333,-0.040001 0.306667,0.1000014 0.05333,0.1400018 -0.133334,0.3266712 z"
     id="path6"
     inkscape:connector-curvature="0" />
</svg>
