<?xml version="1.0" encoding="UTF-8" standalone="no"?>
<svg
   xmlns:dc="http://purl.org/dc/elements/1.1/"
   xmlns:cc="http://creativecommons.org/ns#"
   xmlns:rdf="http://www.w3.org/1999/02/22-rdf-syntax-ns#"
   xmlns:svg="http://www.w3.org/2000/svg"
   xmlns="http://www.w3.org/2000/svg"
   xmlns:sodipodi="http://sodipodi.sourceforge.net/DTD/sodipodi-0.dtd"
   xmlns:inkscape="http://www.inkscape.org/namespaces/inkscape"
   version="1.1"
   width="32px"
   height="32px"
   id="svg2"
   inkscape:version="0.48.4 r9939"
   sodipodi:docname="bus.svg">
  <metadata
     id="metadata12">
    <rdf:RDF>
      <cc:Work
         rdf:about="">
        <dc:format>image/svg+xml</dc:format>
        <dc:type
           rdf:resource="http://purl.org/dc/dcmitype/StillImage" />
      </cc:Work>
    </rdf:RDF>
  </metadata>
  <defs
     id="defs10" />
  <sodipodi:namedview
     pagecolor="#ffffff"
     bordercolor="#666666"
     borderopacity="1"
     objecttolerance="10"
     gridtolerance="10"
     guidetolerance="10"
     inkscape:pageopacity="0"
     inkscape:pageshadow="2"
     inkscape:window-width="1280"
     inkscape:window-height="962"
     id="namedview8"
     showgrid="false"
     inkscape:zoom="7.375"
     inkscape:cx="-0.20338983"
     inkscape:cy="16"
     inkscape:window-x="-8"
     inkscape:window-y="-8"
     inkscape:window-maximized="1"
     inkscape:current-layer="svg2" />
  <g
     id="g4"
     transform="matrix(0.01,0,0,-0.01,4,25)" />
  <path
     d="m 0,12.5 v -4 Q 0,7.51 4.89,5.72 L 5.55,4.39 Q 5.74,4.02 6.165,3.76 6.59,3.5 7,3.5 h 18 q 0.41,0 0.835,0.26 0.425,0.26 0.615,0.63 l 0.66,1.32 q 0.84,0.3 1.59,0.615 0.75,0.315 1.55,0.705 0.8,0.39 1.275,0.775 Q 32,8.19 32,8.5 v 4 q 0,0.41 -0.295,0.705 Q 31.41,13.5 31,13.5 h -1 q -0.41,0 -0.705,-0.295 Q 29,12.91 29,12.5 v -4 Q 29,8.18 28,7.64 V 28 q 0,0.21 -0.145,0.355 Q 27.71,28.5 27.5,28.5 h -2 q -0.2,0 -0.35,-0.145 Q 25,28.21 25,28 V 26.5 H 7 V 28 Q 7,28.21 6.855,28.355 6.71,28.5 6.5,28.5 h -2 Q 4.3,28.5 4.15,28.355 4,28.21 4,28 V 7.64 Q 3,8.18 3,8.5 v 4 Q 3,12.92 2.74,13.21 2.48,13.5 2.07,13.5 h -1 Q 0.65,13.5 0.325,13.205 0,12.91 0,12.5 z m 5,10.1 1,0.9 h 3 v -2 l -4,-1 v 2.1 z m 1,-4.89 q 0,0.21 0.14,0.405 0.14,0.195 0.33,0.265 0.13,0.05 0.38,0.135 0.25,0.085 1.14,0.295 0.89,0.21 1.905,0.37 1.015,0.16 2.67,0.295 1.655,0.135 3.435,0.135 1.78,0 3.415,-0.125 1.635,-0.125 2.7,-0.305 Q 23.18,19 23.99,18.815 24.8,18.63 25.16,18.5 l 0.37,-0.12 Q 25.72,18.31 25.86,18.115 26,17.92 26,17.71 V 8 Q 26,7.79 25.855,7.645 25.71,7.5 25.5,7.5 H 6.5 Q 6.29,7.5 6.145,7.645 6,7.79 6,8 v 9.71 z m 7,7.79 h 7 v -2 h -7 v 2 z m 10,-2 h 3 l 1,-0.9 v -2.1 l -4,1 v 2 z"
     id="path6"
     inkscape:connector-curvature="0" />
</svg>
