<?xml version="1.0" encoding="UTF-8" standalone="no"?>
<svg
   xmlns:dc="http://purl.org/dc/elements/1.1/"
   xmlns:cc="http://creativecommons.org/ns#"
   xmlns:rdf="http://www.w3.org/1999/02/22-rdf-syntax-ns#"
   xmlns:svg="http://www.w3.org/2000/svg"
   xmlns="http://www.w3.org/2000/svg"
   xmlns:sodipodi="http://sodipodi.sourceforge.net/DTD/sodipodi-0.dtd"
   xmlns:inkscape="http://www.inkscape.org/namespaces/inkscape"
   version="1.1"
   width="32px"
   height="32px"
   id="svg2"
   inkscape:version="0.91 r13725"
   sodipodi:docname="calculator.svg">
  <metadata
     id="metadata12">
    <rdf:RDF>
      <cc:Work
         rdf:about="">
        <dc:format>image/svg+xml</dc:format>
        <dc:type
           rdf:resource="http://purl.org/dc/dcmitype/StillImage" />
      </cc:Work>
    </rdf:RDF>
  </metadata>
  <defs
     id="defs10" />
  <sodipodi:namedview
     pagecolor="#ffffff"
     bordercolor="#666666"
     borderopacity="1"
     objecttolerance="10"
     gridtolerance="10"
     guidetolerance="10"
     inkscape:pageopacity="0"
     inkscape:pageshadow="2"
     inkscape:window-width="1280"
     inkscape:window-height="972"
     id="namedview8"
     showgrid="false"
     inkscape:zoom="7.375"
     inkscape:cx="-23.322034"
     inkscape:cy="16"
     inkscape:window-x="-8"
     inkscape:window-y="-8"
     inkscape:window-maximized="1"
     inkscape:current-layer="svg2" />
  <g
     id="g4"
     transform="matrix(0.01333333,0,0,-0.01333333,-4.5,22.666667)" />
  <path
     d="M 2,28 2,4 Q 2,2.3466667 3.1733333,1.1733333 4.3466667,0 6,0 L 26,0 Q 27.653333,0 28.826667,1.1733333 30,2.3466667 30,4 l 0,24 q 0,1.653333 -1.173333,2.826667 Q 27.653333,32 26,32 L 6,32 Q 4.3466667,32 3.1733333,30.826667 2,29.653333 2,28 Z M 6,27.733333 Q 6,27.84 6.08,27.92 6.16,28 6.2666667,28 L 9.733333,28 Q 9.84,28 9.92,27.92 10,27.84 10,27.733333 L 10,25.6 q 0,-0.106667 -0.08,-0.186667 -0.08,-0.08 -0.186667,-0.08 l -3.4666663,0 Q 6.16,25.333333 6.08,25.413333 6,25.493333 6,25.6 l 0,2.133333 z m 0,-4 Q 6,23.84 6.08,23.92 6.16,24 6.2666667,24 L 9.733333,24 Q 9.84,24 9.92,23.92 10,23.84 10,23.733333 L 10,21.6 q 0,-0.106667 -0.08,-0.186667 -0.08,-0.08 -0.186667,-0.08 l -3.4666663,0 Q 6.16,21.333333 6.08,21.413333 6,21.493333 6,21.6 l 0,2.133333 z m 0,-4 Q 6,19.84 6.08,19.92 6.16,20 6.2666667,20 L 9.733333,20 Q 9.84,20 9.92,19.92 10,19.84 10,19.733333 L 10,17.6 q 0,-0.106667 -0.08,-0.186667 -0.08,-0.08 -0.186667,-0.08 l -3.4666663,0 Q 6.16,17.333333 6.08,17.413333 6,17.493333 6,17.6 l 0,2.133333 z m 0,-4 Q 6,15.84 6.08,15.92 6.16,16 6.2666667,16 L 9.733333,16 Q 9.84,16 9.92,15.92 10,15.84 10,15.733333 L 10,13.6 q 0,-0.106667 -0.08,-0.186667 -0.08,-0.08 -0.186667,-0.08 l -3.4666663,0 Q 6.16,13.333333 6.08,13.413333 6,13.493333 6,13.6 l 0,2.133333 z M 6,9.3333333 Q 6,9.88 6.3933333,10.273333 6.786667,10.666667 7.333333,10.666667 l 17.333334,0 q 0.546666,0 0.94,-0.393334 Q 26,9.88 26,9.3333333 l 0,-4 q 0,-0.5466666 -0.393333,-0.94 Q 25.213333,4 24.666667,4 L 7.333333,4 Q 6.786667,4 6.3933333,4.3933333 6,4.7866667 6,5.3333333 l 0,4 z m 5.333333,18.3999997 q 0,0.106667 0.08,0.186667 Q 11.493333,28 11.6,28 l 3.466667,0 q 0.106666,0 0.186666,-0.08 0.08,-0.08 0.08,-0.186667 l 0,-2.133333 q 0,-0.106667 -0.08,-0.186667 -0.08,-0.08 -0.186666,-0.08 l -3.466667,0 q -0.106667,0 -0.186667,0.08 -0.08,0.08 -0.08,0.186667 l 0,2.133333 z m 0,-4 q 0,0.106667 0.08,0.186667 Q 11.493333,24 11.6,24 l 3.466667,0 q 0.106666,0 0.186666,-0.08 0.08,-0.08 0.08,-0.186667 l 0,-2.133333 q 0,-0.106667 -0.08,-0.186667 -0.08,-0.08 -0.186666,-0.08 l -3.466667,0 q -0.106667,0 -0.186667,0.08 -0.08,0.08 -0.08,0.186667 l 0,2.133333 z m 0,-4 q 0,0.106667 0.08,0.186667 Q 11.493333,20 11.6,20 l 3.466667,0 q 0.106666,0 0.186666,-0.08 0.08,-0.08 0.08,-0.186667 l 0,-2.133333 q 0,-0.106667 -0.08,-0.186667 -0.08,-0.08 -0.186666,-0.08 l -3.466667,0 q -0.106667,0 -0.186667,0.08 -0.08,0.08 -0.08,0.186667 l 0,2.133333 z m 0,-4 q 0,0.106667 0.08,0.186667 Q 11.493333,16 11.6,16 l 3.466667,0 q 0.106666,0 0.186666,-0.08 0.08,-0.08 0.08,-0.186667 l 0,-2.133333 q 0,-0.106667 -0.08,-0.186667 -0.08,-0.08 -0.186666,-0.08 l -3.466667,0 q -0.106667,0 -0.186667,0.08 -0.08,0.08 -0.08,0.186667 l 0,2.133333 z m 5.333334,12 q 0,0.106667 0.08,0.186667 0.08,0.08 0.186666,0.08 L 20.4,28 q 0.106667,0 0.186667,-0.08 0.08,-0.08 0.08,-0.186667 l 0,-2.133333 q 0,-0.106667 -0.08,-0.186667 -0.08,-0.08 -0.186667,-0.08 l -3.466667,0 q -0.106666,0 -0.186666,0.08 -0.08,0.08 -0.08,0.186667 l 0,2.133333 z m 0,-4 q 0,0.106667 0.08,0.186667 0.08,0.08 0.186666,0.08 L 20.4,24 q 0.106667,0 0.186667,-0.08 0.08,-0.08 0.08,-0.186667 l 0,-2.133333 q 0,-0.106667 -0.08,-0.186667 -0.08,-0.08 -0.186667,-0.08 l -3.466667,0 q -0.106666,0 -0.186666,0.08 -0.08,0.08 -0.08,0.186667 l 0,2.133333 z m 0,-4 q 0,0.106667 0.08,0.186667 0.08,0.08 0.186666,0.08 L 20.4,20 q 0.106667,0 0.186667,-0.08 0.08,-0.08 0.08,-0.186667 l 0,-2.133333 q 0,-0.106667 -0.08,-0.186667 -0.08,-0.08 -0.186667,-0.08 l -3.466667,0 q -0.106666,0 -0.186666,0.08 -0.08,0.08 -0.08,0.186667 l 0,2.133333 z m 0,-4 q 0,0.106667 0.08,0.186667 0.08,0.08 0.186666,0.08 L 20.4,16 q 0.106667,0 0.186667,-0.08 0.08,-0.08 0.08,-0.186667 l 0,-2.133333 q 0,-0.106667 -0.08,-0.186667 -0.08,-0.08 -0.186667,-0.08 l -3.466667,0 q -0.106666,0 -0.186666,0.08 -0.08,0.08 -0.08,0.186667 l 0,2.133333 z m 5.333333,12 Q 22,27.84 22.08,27.92 22.16,28 22.266667,28 l 3.466666,0 Q 25.84,28 25.92,27.92 26,27.84 26,27.733333 L 26,17.6 q 0,-0.106667 -0.08,-0.186667 -0.08,-0.08 -0.186667,-0.08 l -3.466666,0 q -0.106667,0 -0.186667,0.08 Q 22,17.493333 22,17.6 l 0,10.133333 z m 0,-12 Q 22,15.84 22.08,15.92 22.16,16 22.266667,16 l 3.466666,0 Q 25.84,16 25.92,15.92 26,15.84 26,15.733333 L 26,13.6 q 0,-0.106667 -0.08,-0.186667 -0.08,-0.08 -0.186667,-0.08 l -3.466666,0 q -0.106667,0 -0.186667,0.08 Q 22,13.493333 22,13.6 l 0,2.133333 z"
     id="path6"
     inkscape:connector-curvature="0" />
</svg>
