<?xml version="1.0" encoding="UTF-8" standalone="no"?>
<svg
   xmlns:dc="http://purl.org/dc/elements/1.1/"
   xmlns:cc="http://creativecommons.org/ns#"
   xmlns:rdf="http://www.w3.org/1999/02/22-rdf-syntax-ns#"
   xmlns:svg="http://www.w3.org/2000/svg"
   xmlns="http://www.w3.org/2000/svg"
   xmlns:sodipodi="http://sodipodi.sourceforge.net/DTD/sodipodi-0.dtd"
   xmlns:inkscape="http://www.inkscape.org/namespaces/inkscape"
   version="1.1"
   width="32px"
   height="32px"
   id="svg2"
   inkscape:version="0.91 r13725"
   sodipodi:docname="camera_small.svg">
  <metadata
     id="metadata12">
    <rdf:RDF>
      <cc:Work
         rdf:about="">
        <dc:format>image/svg+xml</dc:format>
        <dc:type
           rdf:resource="http://purl.org/dc/dcmitype/StillImage" />
      </cc:Work>
    </rdf:RDF>
  </metadata>
  <defs
     id="defs10" />
  <sodipodi:namedview
     pagecolor="#ffffff"
     bordercolor="#666666"
     borderopacity="1"
     objecttolerance="10"
     gridtolerance="10"
     guidetolerance="10"
     inkscape:pageopacity="0"
     inkscape:pageshadow="2"
     inkscape:window-width="1280"
     inkscape:window-height="972"
     id="namedview8"
     showgrid="false"
     inkscape:zoom="7.375"
     inkscape:cx="-23.322034"
     inkscape:cy="16"
     inkscape:window-x="-8"
     inkscape:window-y="-8"
     inkscape:window-maximized="1"
     inkscape:current-layer="svg2" />
  <g
     id="g4"
     transform="matrix(0.01333333,0,0,-0.01333333,-3,22.666667)" />
  <path
     d="m 1.3333335,22.666667 0,-9.333334 q 0,-0.546666 0.3933333,-0.94 Q 2.1200002,12 2.6666668,12 l 12.0000002,0 q 0.546667,0 0.94,0.393333 0.393334,0.393334 0.393334,0.94 l 1.333333,0 0,-1.786666 Q 16.000001,9.64 16.000001,7.3333333 16.000001,5.84 16.58,4.48 17.16,3.12 18.14,2.14 19.12,1.16 20.48,0.58 21.840001,0 23.333334,0 q 1.493333,0 2.853332,0.58 1.36,0.58 2.34,1.56 0.98,0.98 1.56,2.34 0.58,1.36 0.58,2.8533333 1e-6,2.3066667 -1.333332,4.2133337 l 0,16.68 q 0,1.546666 -1.113334,2.66 Q 27.106667,32 25.56,32 l -4.453333,0 q -1.546667,0 -2.66,-1.113333 -1.113333,-1.113334 -1.113333,-2.66 l 0,-5.56 -1.333333,0 q 0,0.546666 -0.393334,0.94 Q 15.213334,24 14.666667,24 L 2.6666668,24 q -0.5466666,0 -0.94,-0.393333 -0.3933333,-0.393334 -0.3933333,-0.94 z M 18.666667,7.3333333 q 0,1.9333334 1.366666,3.2999997 Q 21.4,12 23.333334,12 q 1.933333,0 3.3,-1.366667 1.366667,-1.3666663 1.366667,-3.2999997 0,-1.9333333 -1.366667,-3.3 -1.366667,-1.3666666 -3.3,-1.3666666 -1.933334,0 -3.300001,1.3666666 -1.366666,1.3666667 -1.366666,3.3 z m 1.333334,19.3333337 1.333333,0 0,-1.333334 -1.333333,0 0,1.333334 z M 20.026666,7.64 Q 20.64,8 21.346667,8 22.453334,8 23.226666,7.2266667 24,6.4533333 24,5.3466667 q 0,-0.68 -0.36,-1.32 1.28,0.12 2.153333,1.0666666 0.873333,0.9466667 0.873333,2.24 0,1.3866667 -0.973333,2.36 -0.973333,0.9733337 -2.36,0.9733337 -1.293333,0 -2.24,-0.8733337 Q 20.146667,8.92 20.026666,7.64 Z m 1.306668,21.693333 1.333333,0 0,-1.333333 -1.333333,0 0,1.333333 z m 1.333333,-2.666666 1.333334,0 0,-1.333334 -1.333334,0 0,1.333334 z m 1.333334,2.666666 1.333333,0 0,-1.333333 -1.333333,0 0,1.333333 z m 1.333333,-2.666666 1.333333,0 0,-1.333334 -1.333333,0 0,1.333334 z"
     id="path6"
     inkscape:connector-curvature="0" />
</svg>
