<?xml version="1.0" encoding="UTF-8" standalone="no"?>
<svg
   xmlns:dc="http://purl.org/dc/elements/1.1/"
   xmlns:cc="http://creativecommons.org/ns#"
   xmlns:rdf="http://www.w3.org/1999/02/22-rdf-syntax-ns#"
   xmlns:svg="http://www.w3.org/2000/svg"
   xmlns="http://www.w3.org/2000/svg"
   xmlns:sodipodi="http://sodipodi.sourceforge.net/DTD/sodipodi-0.dtd"
   xmlns:inkscape="http://www.inkscape.org/namespaces/inkscape"
   version="1.1"
   width="32px"
   height="32px"
   id="svg2"
   inkscape:version="0.91 r13725"
   sodipodi:docname="camera.svg">
  <metadata
     id="metadata12">
    <rdf:RDF>
      <cc:Work
         rdf:about="">
        <dc:format>image/svg+xml</dc:format>
        <dc:type
           rdf:resource="http://purl.org/dc/dcmitype/StillImage" />
      </cc:Work>
    </rdf:RDF>
  </metadata>
  <defs
     id="defs10" />
  <sodipodi:namedview
     pagecolor="#ffffff"
     bordercolor="#666666"
     borderopacity="1"
     objecttolerance="10"
     gridtolerance="10"
     guidetolerance="10"
     inkscape:pageopacity="0"
     inkscape:pageshadow="2"
     inkscape:window-width="1280"
     inkscape:window-height="972"
     id="namedview8"
     showgrid="false"
     inkscape:zoom="7.375"
     inkscape:cx="-0.20338983"
     inkscape:cy="16"
     inkscape:window-x="-8"
     inkscape:window-y="-8"
     inkscape:window-maximized="1"
     inkscape:current-layer="svg2" />
  <g
     id="g4"
     transform="matrix(0.01230769,0,0,-0.01230769,0.53846154,21.076923)" />
  <path
     d="M 0,24.123077 0,11.569231 Q 0,9.8461538 1.2307692,8.6153846 2.4615385,7.3846154 4.1846154,7.3846154 l 4.1969226,0 q 0.01231,-0.036923 0.03692,-0.1353846 l 0.39385,-0.96 Q 9.243077,5.2184615 10.363077,4.4553846 11.483077,3.6923077 12.64,3.6923077 l 6.72,0 q 1.156923,0 2.276923,0.7630769 1.12,0.7630769 1.550769,1.8338462 l 0.393846,0.96 q 0.02462,0.098461 0.03692,0.1353846 l 4.196923,0 q 1.723077,0 2.953846,1.2307692 Q 32,9.8461538 32,11.569231 l 0,12.553846 q 0,1.723077 -1.230769,2.953846 -1.230769,1.230769 -2.953846,1.230769 l -23.6307696,0 q -1.7230769,0 -2.9538462,-1.230769 Q 0,25.846154 0,24.123077 Z m 9.538462,-5.661539 q 0,1.747692 0.867692,3.236923 0.867692,1.489231 2.356923,2.356923 1.489231,0.867693 3.236923,0.867693 1.316923,0 2.510769,-0.51077 1.193846,-0.510769 2.061539,-1.378461 0.867692,-0.867692 1.378461,-2.067692 0.510769,-1.2 0.510769,-2.504616 0,-1.304615 -0.510769,-2.504615 Q 21.44,14.756923 20.572308,13.88923 19.704615,13.021538 18.510769,12.510769 17.316923,12 16,12 q -1.747692,0 -3.236923,0.867692 -1.489231,0.867692 -2.356923,2.356923 -0.867692,1.489231 -0.867692,3.236923 z m 3.076923,0 q 0,-1.403077 0.990769,-2.393846 Q 14.596923,15.076923 16,15.076923 q 1.403077,0 2.393846,0.990769 0.990769,0.990769 0.990769,2.393846 0,1.403077 -0.990769,2.393846 -0.990769,0.99077 -2.393846,0.99077 -1.403077,0 -2.393846,-0.99077 -0.990769,-0.990769 -0.990769,-2.393846 z m 13.230769,-6.153846 2.461538,0 0,-1.230769 -2.461538,0 0,1.230769 z"
     id="path6"
     inkscape:connector-curvature="0" />
</svg>
