<?xml version="1.0" encoding="UTF-8" standalone="no"?>
<svg
   xmlns:dc="http://purl.org/dc/elements/1.1/"
   xmlns:cc="http://creativecommons.org/ns#"
   xmlns:rdf="http://www.w3.org/1999/02/22-rdf-syntax-ns#"
   xmlns:svg="http://www.w3.org/2000/svg"
   xmlns="http://www.w3.org/2000/svg"
   xmlns:sodipodi="http://sodipodi.sourceforge.net/DTD/sodipodi-0.dtd"
   xmlns:inkscape="http://www.inkscape.org/namespaces/inkscape"
   version="1.1"
   width="32px"
   height="32px"
   id="svg2"
   inkscape:version="0.91 r13725"
   sodipodi:docname="car.svg">
  <metadata
     id="metadata12">
    <rdf:RDF>
      <cc:Work
         rdf:about="">
        <dc:format>image/svg+xml</dc:format>
        <dc:type
           rdf:resource="http://purl.org/dc/dcmitype/StillImage" />
      </cc:Work>
    </rdf:RDF>
  </metadata>
  <defs
     id="defs10" />
  <sodipodi:namedview
     pagecolor="#ffffff"
     bordercolor="#666666"
     borderopacity="1"
     objecttolerance="10"
     gridtolerance="10"
     guidetolerance="10"
     inkscape:pageopacity="0"
     inkscape:pageshadow="2"
     inkscape:window-width="1280"
     inkscape:window-height="972"
     id="namedview8"
     showgrid="false"
     inkscape:zoom="7.375"
     inkscape:cx="-23.322034"
     inkscape:cy="16"
     inkscape:window-x="-8"
     inkscape:window-y="-8"
     inkscape:window-maximized="1"
     inkscape:current-layer="svg2" />
  <g
     id="g4"
     transform="matrix(0.01230769,0,0,-0.01230769,0.53846154,22.076923)" />
  <path
     d="m 0,12.923077 0,-1.230769 q 0,-0.258462 0.1784615,-0.436923 0.1784616,-0.178462 0.4369231,-0.178462 l 2.3384616,0 2.0184615,-6.7323077 Q 5.5138462,3.2492308 6.0861538,2.8553846 6.6584615,2.4615385 7.827692,2.4615385 l 16.344616,0 q 1.16923,0 1.741538,0.3938461 0.572308,0.3938462 1.113846,1.4892307 l 2.018462,6.7323077 2.338461,0 q 0.258462,0 0.436923,0.178462 Q 32,11.433846 32,11.692308 l 0,1.230769 q 0,0.258462 -0.178462,0.436923 -0.178461,0.178462 -0.436923,0.178462 l -1.132307,0 0.516923,1.230769 0,14.153846 q 0,0.258462 -0.178462,0.436923 -0.178461,0.178462 -0.436923,0.178462 l -2.461538,0 q -0.246154,0 -0.43077,-0.178462 -0.184615,-0.178461 -0.184615,-0.436923 l 0,-1.846153 -22.1538461,0 0,1.846153 q 0,0.258462 -0.1784615,0.436923 -0.1784616,0.178462 -0.4369231,0.178462 l -2.4615385,0 Q 1.6,29.538462 1.4153846,29.36 1.2307692,29.181539 1.2307692,28.923077 l 0,-14.153846 0.5169231,-1.230769 -1.1323077,0 Q 0.3569231,13.538462 0.1784615,13.36 0,13.181539 0,12.923077 Z m 2.4615385,5.538462 1.2307692,1.230769 3.6923073,0 0,-2.461538 -4.9230765,-1.353846 0,2.584615 z m 3.0030769,-7.384616 21.0707696,0 Q 25.28,5.8707692 25.070769,5.4153846 24.787692,4.9230769 24.332308,4.9230769 l -16.664616,0 q -0.455384,0 -0.7384612,0.4923077 Q 6.8307692,5.6123077 6.4676923,7.0276923 6.1046154,8.4430769 5.7846154,9.76 Z m 5.6123076,13.538462 9.846154,0 0,-2.461538 -9.846154,0 0,2.461538 z m 13.538462,-4.923077 3.692307,0 1.23077,-1.230769 0,-2.584615 -4.923077,1.353846 0,2.461538 z"
     id="path6"
     inkscape:connector-curvature="0" />
</svg>
