<?xml version="1.0" encoding="UTF-8" standalone="no"?>
<svg
   xmlns:dc="http://purl.org/dc/elements/1.1/"
   xmlns:cc="http://creativecommons.org/ns#"
   xmlns:rdf="http://www.w3.org/1999/02/22-rdf-syntax-ns#"
   xmlns:svg="http://www.w3.org/2000/svg"
   xmlns="http://www.w3.org/2000/svg"
   xmlns:sodipodi="http://sodipodi.sourceforge.net/DTD/sodipodi-0.dtd"
   xmlns:inkscape="http://www.inkscape.org/namespaces/inkscape"
   version="1.1"
   width="32px"
   height="32px"
   id="svg2"
   inkscape:version="0.91 r13725"
   sodipodi:docname="cargo.svg">
  <metadata
     id="metadata12">
    <rdf:RDF>
      <cc:Work
         rdf:about="">
        <dc:format>image/svg+xml</dc:format>
        <dc:type
           rdf:resource="http://purl.org/dc/dcmitype/StillImage" />
      </cc:Work>
    </rdf:RDF>
  </metadata>
  <defs
     id="defs10" />
  <sodipodi:namedview
     pagecolor="#ffffff"
     bordercolor="#666666"
     borderopacity="1"
     objecttolerance="10"
     gridtolerance="10"
     guidetolerance="10"
     inkscape:pageopacity="0"
     inkscape:pageshadow="2"
     inkscape:window-width="1280"
     inkscape:window-height="972"
     id="namedview8"
     showgrid="false"
     inkscape:zoom="7.375"
     inkscape:cx="-0.20338983"
     inkscape:cy="16"
     inkscape:window-x="-8"
     inkscape:window-y="-8"
     inkscape:window-maximized="1"
     inkscape:current-layer="svg2" />
  <g
     id="g4"
     transform="matrix(0.01230769,0,0,-0.01230769,0.42307692,25.307692)" />
  <path
     d="m 0.6153845,32 0,-4.923077 23.3846155,0 7.384615,-7.384615 0,4.923077 -1.230769,1.230769 0,-1.230769 -1.23077,1.230769 0,1.230769 -2.461538,2.461539 0,-1.23077 -1.230769,1.23077 0,1.230769 L 24,32 l -4.923077,0 0,-1.230769 -3.692307,0 0,1.230769 -4.923077,0 0,-1.230769 -3.6923083,0 0,1.230769 -6.1538462,0 z m 2.4615385,-6.153846 0,-3.692308 8.615385,0 0,3.692308 -8.615385,0 z m 0,-4.923077 0,-4.923077 8.615385,0 0,4.923077 -8.615385,0 z m 0,-6.153846 0,-4.9230772 8.615385,0 0,4.9230772 -8.615385,0 z m 0,-6.1538464 0,-1.6 q 0,-0.4676923 0.092308,-0.7569231 0.092308,-0.2892307 0.4246153,-0.6215384 l 1.9446154,-1.9446154 8.6153853,0 Q 12.824616,5.0338462 12.246154,5.6 q -0.393846,0.3815385 -0.473846,0.64 -0.08,0.2584615 -0.08,0.7630769 l 0,1.6123077 -8.615385,0 z M 6.7692307,2.4615385 8.8123075,0.4184615 q 0.09846,-0.098461 0.172308,-0.16 0.07385,-0.061538 0.129231,-0.1107692 0.05538,-0.049231 0.147692,-0.073846 0.09231,-0.024615 0.135384,-0.043077 0.04308,-0.018461 0.172308,-0.024615 Q 9.6984615,0 9.7538465,0 l 0.246153,0 0.2892315,0 7.556923,0 -2.461538,2.4615385 -8.6153853,0 z m 7.3846163,23.3846155 0,-3.692308 8.615384,0 2.461539,-2.461538 0,3.692307 -2.461539,2.461539 -8.615384,0 z m 0,-4.923077 0,-4.923077 8.615384,0 2.461539,-2.461538 0,4.923076 -2.461539,2.461539 -8.615384,0 z m 0,-6.153846 0,-4.9230772 8.615384,0 2.461539,-2.4615384 0,4.9230766 -2.461539,2.461539 -8.615384,0 z m 0,-6.1538464 0,-1.6123077 q 0,-0.3569231 0.01231,-0.4984615 0.01231,-0.1415385 0.141539,-0.3876923 0.12923,-0.2461539 0.4,-0.5169231 l 1.907688,-1.9076923 7.938463,0 q 0.676922,0 0.676922,0.6523077 l 0,1.8092308 -2.461538,2.4615384 -8.615384,0 z M 17.846153,2.4615385 20.307693,0 27.692308,0 q 0.689231,0 0.96,0.2769231 0.270769,0.2769231 0.270769,0.9538461 l 0,1.2307693 -2.461538,2.4615384 0,-1.2553846 q 0,-0.6153846 -0.276923,-0.9107692 Q 25.907693,2.4615385 25.23077,2.4615385 l -7.384616,0 z m 8.615385,19.6923075 0,-3.692308 L 28.923076,16 l 0,3.692308 z m 0,-4.923077 0,-4.923077 2.461538,-2.4615382 0,4.9230772 z m 0,-6.153846 0,-4.9230768 2.461538,-2.4615385 0,4.9230769 z"
     id="path6"
     inkscape:connector-curvature="0" />
</svg>
