<?xml version="1.0" encoding="UTF-8" standalone="no"?>
<svg
   xmlns:dc="http://purl.org/dc/elements/1.1/"
   xmlns:cc="http://creativecommons.org/ns#"
   xmlns:rdf="http://www.w3.org/1999/02/22-rdf-syntax-ns#"
   xmlns:svg="http://www.w3.org/2000/svg"
   xmlns="http://www.w3.org/2000/svg"
   xmlns:sodipodi="http://sodipodi.sourceforge.net/DTD/sodipodi-0.dtd"
   xmlns:inkscape="http://www.inkscape.org/namespaces/inkscape"
   version="1.1"
   width="32px"
   height="32px"
   id="svg2"
   inkscape:version="0.91 r13725"
   sodipodi:docname="cars.svg">
  <metadata
     id="metadata12">
    <rdf:RDF>
      <cc:Work
         rdf:about="">
        <dc:format>image/svg+xml</dc:format>
        <dc:type
           rdf:resource="http://purl.org/dc/dcmitype/StillImage" />
      </cc:Work>
    </rdf:RDF>
  </metadata>
  <defs
     id="defs10" />
  <sodipodi:namedview
     pagecolor="#ffffff"
     bordercolor="#666666"
     borderopacity="1"
     objecttolerance="10"
     gridtolerance="10"
     guidetolerance="10"
     inkscape:pageopacity="0"
     inkscape:pageshadow="2"
     inkscape:window-width="1280"
     inkscape:window-height="972"
     id="namedview8"
     showgrid="false"
     inkscape:zoom="7.375"
     inkscape:cx="-0.20338983"
     inkscape:cy="16"
     inkscape:window-x="-8"
     inkscape:window-y="-8"
     inkscape:window-maximized="1"
     inkscape:current-layer="svg2" />
  <g
     id="g4"
     transform="matrix(0.00888889,0,0,-0.00888889,4.200404,23.626263)" />
  <path
     d="m 0,15.111111 0,-0.888889 q 0,-0.186667 0.12888889,-0.315555 0.12888889,-0.128889 0.31555555,-0.128889 l 1.68888886,0 1.4577778,-3.9733336 Q 3.9822222,9.0133333 4.3955556,8.7288889 4.8088889,8.4444444 5.6533333,8.4444444 l 10.0266667,0 q 0.844444,0 1.257778,0.2844445 0.413333,0.2844444 0.804444,1.0755555 L 19.2,13.777778 l 1.688889,0 q 0.186667,0 0.315555,0.128889 0.128889,0.128888 0.128889,0.315555 l 0,0.888889 q 0,0.186667 -0.128889,0.315556 -0.128888,0.128888 -0.315555,0.128888 l -0.817778,0 0.373333,0.888889 0,10.222223 q 0,0.186666 -0.128888,0.315555 Q 20.186667,27.111111 20,27.111111 l -1.777778,0 q -0.186666,0 -0.315555,-0.128889 -0.128889,-0.128889 -0.128889,-0.315555 l 0,-1.333334 -14.2222224,0 0,1.333334 q 0,0.186666 -0.1288889,0.315555 -0.1288889,0.128889 -0.3155556,0.128889 l -1.7777778,0 q -0.1866666,0 -0.3155555,-0.128889 -0.1288889,-0.128889 -0.1288889,-0.315555 l 0,-10.222223 0.3733333,-0.888889 -0.81777776,0 q -0.18666666,0 -0.31555555,-0.128888 Q 0,15.297778 0,15.111111 Z m 1.7777778,4 L 2.6666667,20 l 2.6666666,0 0,-1.777778 -3.5555555,-0.977778 0,1.866667 z m 2.1688889,-4.444444 13.4400003,0 q -0.906667,-3.76 -1.057778,-4.088889 -0.204445,-0.355556 -0.533333,-0.355556 l -10.2577782,0 q -0.3288889,0 -0.5333334,0.355556 Q 4.9333334,10.72 4.6711111,11.742222 4.4088889,12.764444 4.1777778,13.715555 Z m 3.1644444,8.888888 7.1111109,0 0,-1.777777 -7.1111109,0 0,1.777777 z M 16,20 l 2.666667,0 0.888889,-0.888889 0,-1.866667 L 16,18.222222 16,20 Z m 0.524444,-12.96 0.4,-0.7911111 Q 17.288889,5.5022222 17.72,5.1955555 18.151111,4.8888889 18.986667,4.8888889 l 7.804444,0 q 0.497778,0 0.817778,0.071111 0.32,0.071111 0.546667,0.2666667 0.226666,0.1955555 0.36,0.4 0.133333,0.2044445 0.337777,0.6222223 l 1.013334,2.1955555 1.688889,0 q 0.186666,0 0.315555,0.1288889 Q 32,8.7022222 32,8.8888889 l 0,0.8888889 q 0,0.1866666 -0.128889,0.3155552 -0.128889,0.128889 -0.315555,0.128889 l -0.817778,0 0.373333,0.888889 0,9.333333 q 0,0.186667 -0.128889,0.315556 -0.128889,0.128889 -0.315555,0.128889 l -1.777778,0 q -0.186667,0 -0.315556,-0.128889 -0.128889,-0.128889 -0.128889,-0.315556 l 0,-1.333333 -7.111111,0 0,-0.888889 4.444445,0 0,-1.777778 -3.555556,0 0,-2.426666 q 0,-0.657778 -0.248889,-0.893334 -0.248889,-0.235555 -0.915555,-0.235555 l -0.835556,0 -1.333333,-3.5555557 9.164444,0 Q 27.591111,7.3511111 27.44,7.0222222 27.235556,6.6666667 26.906667,6.6666667 l -8.035556,0 q -0.328889,0 -0.533333,0.3555555 L 17.946667,7.7511111 Q 17.217778,7.2444444 16.524444,7.04 Z m 11.031112,7.626667 1.777777,0 0.888889,-0.888889 0,-1.866667 -2.666666,0.977778 0,1.777778 z"
     id="path6"
     inkscape:connector-curvature="0" />
</svg>
