<?xml version="1.0" encoding="UTF-8" standalone="no"?>
<svg
   xmlns:dc="http://purl.org/dc/elements/1.1/"
   xmlns:cc="http://creativecommons.org/ns#"
   xmlns:rdf="http://www.w3.org/1999/02/22-rdf-syntax-ns#"
   xmlns:svg="http://www.w3.org/2000/svg"
   xmlns="http://www.w3.org/2000/svg"
   xmlns:sodipodi="http://sodipodi.sourceforge.net/DTD/sodipodi-0.dtd"
   xmlns:inkscape="http://www.inkscape.org/namespaces/inkscape"
   version="1.1"
   width="32px"
   height="32px"
   id="svg2"
   inkscape:version="0.91 r13725"
   sodipodi:docname="cart_in.svg">
  <metadata
     id="metadata12">
    <rdf:RDF>
      <cc:Work
         rdf:about="">
        <dc:format>image/svg+xml</dc:format>
        <dc:type
           rdf:resource="http://purl.org/dc/dcmitype/StillImage" />
      </cc:Work>
    </rdf:RDF>
  </metadata>
  <defs
     id="defs10" />
  <sodipodi:namedview
     pagecolor="#ffffff"
     bordercolor="#666666"
     borderopacity="1"
     objecttolerance="10"
     gridtolerance="10"
     guidetolerance="10"
     inkscape:pageopacity="0"
     inkscape:pageshadow="2"
     inkscape:window-width="1280"
     inkscape:window-height="972"
     id="namedview8"
     showgrid="false"
     inkscape:zoom="7.375"
     inkscape:cx="-0.20338983"
     inkscape:cy="16"
     inkscape:window-x="-8"
     inkscape:window-y="-8"
     inkscape:window-maximized="1"
     inkscape:current-layer="svg2" />
  <g
     id="g4"
     transform="matrix(0.01254902,0,0,-0.01254902,-0.20098039,22.980392)" />
  <path
     d="M 0,8.4831372 Q 0,8.0313726 0.2760784,7.68 0.665098,7.2156862 1.254902,7.2156862 l 4.7184313,0 2.1835297,2.5976471 0,1.1670587 0.991372,0 1.518432,1.807059 0,0.702746 0.589804,0 0.06275,0.07529 q 0.740392,0.953725 1.92,0.953725 0.539608,0 1.022745,-0.25098 0.483137,-0.250981 0.796863,-0.665098 l 0.627451,-0.765491 0,0.65255 1.254901,0 0,-1.254903 -0.752941,0 2.007843,-2.4345097 0,1.1796077 1.254902,0 0,-1.2549018 -1.192156,0 2.070588,-2.509804 5.094902,0 0.966274,-4.0533332 q 0.100387,-0.4266667 0.445485,-0.6964706 0.345098,-0.269804 0.771765,-0.269804 l 3.137255,0 q 0.51451,0 0.884706,0.3701961 Q 32,2.9364706 32,3.4509804 32,3.9654902 31.629804,4.3356862 31.259608,4.7058823 30.745098,4.7058823 l -2.145882,0 -5.421177,22.5882357 q -0.100392,0.489412 -0.44549,0.872157 -0.345098,0.382745 -0.771765,0.382745 l -1.367843,0 q 0.112941,0.301177 0.112941,0.627451 0,0.778039 -0.552157,1.330196 -0.552156,0.552157 -1.330196,0.552157 -0.778039,0 -1.330196,-0.552157 -0.552157,-0.552157 -0.552157,-1.330196 0,-0.263529 0.112942,-0.627451 l -6.500393,0 q 0.112942,0.301177 0.112942,0.627451 0,0.778039 -0.552157,1.330196 -0.552157,0.552157 -1.330196,0.552157 -0.778039,0 -1.330196,-0.552157 -0.552157,-0.552157 -0.552157,-1.330196 0,-0.263529 0.112941,-0.627451 l -1.3678432,0 q -0.5145098,0 -0.8847059,-0.370196 -0.370196,-0.370196 -0.370196,-0.884706 0,-0.51451 0.370196,-0.884706 0.3701961,-0.370196 0.8847059,-0.370196 l 15.3223532,0 1.192157,-5.019608 -18.3968631,0 q -0.4392157,0 -0.7843137,-0.269804 Q 2.6352941,20.48 2.534902,20.040785 L 0.025098,8.7466667 Q 0,8.5709805 0,8.4831372 Z m 2.8235294,1.2423531 0.2760784,1.2549017 1.2925491,0 0,-1.2549017 -1.5686275,0 z m 0.5521569,2.5098037 0.2760784,1.254903 0.7403922,0 0,-1.254903 -1.0164706,0 z M 3.9403922,14.745099 4.2164706,16 l 0.1756863,0 0,-1.254901 -0.4517647,0 z m 1.7066666,3.764705 1.2549022,0 0,-1.254902 -1.2549022,0 0,1.254902 z m 0,-2.509804 1.2549022,0 0,-1.254901 -1.2549022,0 0,1.254901 z m 0,-2.509803 1.2549022,0 0,-1.254903 -1.2549022,0 0,1.254903 z m 0,-2.509805 1.2549022,0 0,-1.2549017 -1.2549022,0 0,1.2549017 z M 6.927059,4.9317647 q 0,-0.2258824 0.188235,-0.2258824 l 3.551373,0 0,-3.1372549 q 0,-0.2509804 0.18196,-0.4392157 0.181961,-0.18823525 0.445491,-0.18823525 l 3.764706,0 q 0.263529,0 0.44549,0.18823525 0.181961,0.1882354 0.181961,0.4392158 l 0,3.1372548 3.57647,0 q 0.188235,0 0.188235,0.2133334 0,0.1129411 -0.06274,0.1756863 l -5.973333,7.190588 q -0.07529,0.100392 -0.175686,0.100392 -0.13804,0 -0.238432,-0.138039 L 6.989809,5.107451 Q 6.927069,5.019608 6.927069,4.9317647 Z m 1.229804,13.5780393 1.254902,0 0,-1.254902 -1.254902,0 0,1.254902 z m 0,-2.509804 1.254902,0 0,-1.254901 -1.254902,0 0,1.254901 z m 0,-2.509803 1.254902,0 0,-1.254903 -1.254902,0 0,1.254903 z m 2.509804,5.019607 1.254902,0 0,-1.254902 -1.254902,0 0,1.254902 z m 0,-2.509804 1.254902,0 0,-1.254901 -1.254902,0 0,1.254901 z m 2.509804,2.509804 1.254902,0 0,-1.254902 -1.254902,0 0,1.254902 z m 0,-2.509804 1.254902,0 0,-1.254901 -1.254902,0 0,1.254901 z m 2.509804,2.509804 1.254901,0 0,-1.254902 -1.254901,0 0,1.254902 z m 0,-2.509804 1.254901,0 0,-1.254901 -1.254901,0 0,1.254901 z m 2.509803,2.509804 1.254902,0 0,-1.254902 -1.254902,0 0,1.254902 z m 0,-2.509804 1.254902,0 0,-1.254901 -1.254902,0 0,1.254901 z m 0,-2.509803 1.254902,0 0,-1.254903 -1.254902,0 0,1.254903 z m 2.509804,5.019607 1.254902,0 0,-1.254902 -1.254902,0 0,1.254902 z m 0,-2.509804 1.254902,0 0,-1.254901 -1.254902,0 0,1.254901 z m 0,-2.509803 1.254902,0 0,-1.254903 -1.254902,0 0,1.254903 z m 0,-2.509805 1.254902,0 0,-1.2549018 -1.254902,0 0,1.2549018 z M 23.215686,16 l 0.12549,0 0.301177,-1.254901 -0.426667,0 0,1.254901 z m 0,-2.509803 0.727843,0 0.188236,-0.790589 0.100392,-0.464314 -1.016471,0 0,1.254903 z m 0,-2.509805 1.292549,0 0.276079,-1.2549018 -1.568628,0 0,1.2549018 z"
     id="path6"
     inkscape:connector-curvature="0" />
</svg>
