<?xml version="1.0" encoding="UTF-8" standalone="no"?>
<svg
   xmlns:dc="http://purl.org/dc/elements/1.1/"
   xmlns:cc="http://creativecommons.org/ns#"
   xmlns:rdf="http://www.w3.org/1999/02/22-rdf-syntax-ns#"
   xmlns:svg="http://www.w3.org/2000/svg"
   xmlns="http://www.w3.org/2000/svg"
   xmlns:sodipodi="http://sodipodi.sourceforge.net/DTD/sodipodi-0.dtd"
   xmlns:inkscape="http://www.inkscape.org/namespaces/inkscape"
   version="1.1"
   width="32px"
   height="32px"
   id="svg2"
   inkscape:version="0.91 r13725"
   sodipodi:docname="cart_out.svg">
  <metadata
     id="metadata12">
    <rdf:RDF>
      <cc:Work
         rdf:about="">
        <dc:format>image/svg+xml</dc:format>
        <dc:type
           rdf:resource="http://purl.org/dc/dcmitype/StillImage" />
      </cc:Work>
    </rdf:RDF>
  </metadata>
  <defs
     id="defs10" />
  <sodipodi:namedview
     pagecolor="#ffffff"
     bordercolor="#666666"
     borderopacity="1"
     objecttolerance="10"
     gridtolerance="10"
     guidetolerance="10"
     inkscape:pageopacity="0"
     inkscape:pageshadow="2"
     inkscape:window-width="1280"
     inkscape:window-height="972"
     id="namedview8"
     showgrid="false"
     inkscape:zoom="7.375"
     inkscape:cx="-0.20338983"
     inkscape:cy="16"
     inkscape:window-x="-8"
     inkscape:window-y="-8"
     inkscape:window-maximized="1"
     inkscape:current-layer="svg2" />
  <g
     id="g4"
     transform="matrix(0.01254902,0,0,-0.01254902,-0.20098039,22.991667)" />
  <path
     d="M 0,8.4894117 Q 0,8.037647 0.2760784,7.6862745 0.665098,7.2219607 1.254902,7.2219607 l 4.3796078,0 q -0.3262745,0.4768628 -0.3262745,0.9913726 0,0.4141176 0.1756863,0.7654902 0.3764706,0.7529412 1.6313724,0.7529412 l 1.041569,0 0,1.2549023 1.254902,0 0,1.254902 -1.254902,0 0,1.254902 8.784313,0 0,-3.7647063 1.254902,0 0,1.2549023 1.254902,0 0,-1.2549023 q 0.125491,-0.012549 0.32,-0.050196 0.19451,-0.037647 0.589804,-0.2321569 0.395294,-0.1945098 0.533334,-0.4831372 0.188235,-0.3764706 0.188235,-0.7152941 0,-0.4768628 -0.401569,-1.0290197 l 4.74353,0 0.966274,-4.0533332 q 0.08784,-0.4266667 0.432941,-0.6964706 0.345098,-0.269804 0.784314,-0.269804 l 3.137255,0 q 0.51451,0 0.884706,0.3701961 Q 32,2.9427451 32,3.4572549 32,3.9717647 31.629804,4.3419607 31.259608,4.7121568 30.745098,4.7121568 l -2.145882,0 -5.421177,22.5882352 q -0.100392,0.489412 -0.44549,0.872157 -0.345098,0.382745 -0.771765,0.382745 l -1.367843,0 q 0.112941,0.363922 0.112941,0.627451 0,0.778039 -0.552157,1.330196 -0.552156,0.552157 -1.330196,0.552157 -0.778039,0 -1.330196,-0.552157 -0.552157,-0.552157 -0.552157,-1.330196 0,-0.263529 0.112942,-0.627451 l -6.500393,0 q 0.112942,0.363922 0.112942,0.627451 0,0.778039 -0.552157,1.330196 -0.552157,0.552157 -1.330196,0.552157 -0.778039,0 -1.330196,-0.552157 -0.552157,-0.552157 -0.552157,-1.330196 0,-0.263529 0.112941,-0.627451 l -1.3678432,0 q -0.5145098,0 -0.8847059,-0.370196 -0.370196,-0.370196 -0.370196,-0.884706 0,-0.51451 0.370196,-0.884706 Q 5.132549,26.04549 5.6470588,26.04549 l 15.3223532,0 1.192157,-5.019608 -18.3968631,0 q -0.4392157,0 -0.7905883,-0.276078 Q 2.6227451,20.473725 2.534902,20.047059 L 0.025098,8.7529411 Q 0,8.5772549 0,8.4894117 Z m 2.8235294,1.242353 0.2760784,1.2549023 1.2925491,0 0,-1.2549023 -1.5686275,0 z m 0.5521569,2.5098043 0.2760784,1.254902 0.7403922,0 0,-1.254902 -1.0164706,0 z m 0.5647059,2.509804 0.2760784,1.254901 0.1756863,0 0,-1.254901 -0.4517647,0 z m 1.7066666,3.764705 1.2549022,0 0,-1.254902 -1.2549022,0 0,1.254902 z m 0,-2.509804 1.2549022,0 0,-1.254901 -1.2549022,0 0,1.254901 z m 0,-2.509803 1.2549022,0 0,-1.254902 -1.2549022,0 0,1.254902 z m 0,-2.509804 1.2549022,0 0,-1.2549023 -1.2549022,0 0,1.2549023 z M 6.927059,8.3137255 q 0,-0.062745 0.06274,-0.1505883 l 5.973333,-7.1278431 q 0.07529,-0.10039215 0.188236,-0.10039215 0.138039,0 0.225882,0.10039215 l 6.01098,7.1152941 q 0.06274,0.062745 0.06274,0.1505882 0,0.1756863 -0.188235,0.1756863 l -3.57647,0 0,3.1372553 q 0,0.263529 -0.181961,0.44549 -0.181961,0.181961 -0.44549,0.181961 l -3.764706,0 q -0.26353,0 -0.445491,-0.181961 -0.18196,-0.181961 -0.18196,-0.44549 l 0,-3.1372553 -3.551373,0 q -0.188235,0 -0.188235,-0.1631372 z m 1.229804,10.2023525 1.254902,0 0,-1.254902 -1.254902,0 0,1.254902 z m 0,-2.509804 1.254902,0 0,-1.254901 -1.254902,0 0,1.254901 z m 2.509804,2.509804 1.254902,0 0,-1.254902 -1.254902,0 0,1.254902 z m 0,-2.509804 1.254902,0 0,-1.254901 -1.254902,0 0,1.254901 z m 2.509804,2.509804 1.254902,0 0,-1.254902 -1.254902,0 0,1.254902 z m 0,-2.509804 1.254902,0 0,-1.254901 -1.254902,0 0,1.254901 z m 2.509804,2.509804 1.254901,0 0,-1.254902 -1.254901,0 0,1.254902 z m 0,-2.509804 1.254901,0 0,-1.254901 -1.254901,0 0,1.254901 z m 2.509803,2.509804 1.254902,0 0,-1.254902 -1.254902,0 0,1.254902 z m 0,-2.509804 1.254902,0 0,-1.254901 -1.254902,0 0,1.254901 z m 0,-2.509803 1.254902,0 0,-1.254902 -1.254902,0 0,1.254902 z m 2.509804,5.019607 1.254902,0 0,-1.254902 -1.254902,0 0,1.254902 z m 0,-2.509804 1.254902,0 0,-1.254901 -1.254902,0 0,1.254901 z m 0,-2.509803 1.254902,0 0,-1.254902 -1.254902,0 0,1.254902 z m 0,-2.509804 1.254902,0 0,-1.2549023 -1.254902,0 0,1.2549023 z m 2.509804,5.019607 0.12549,0 0.301177,-1.254901 -0.426667,0 0,1.254901 z m 0,-2.509803 0.727843,0 0.188236,-0.790589 0.100392,-0.464313 -1.016471,0 0,1.254902 z m 0,-2.509804 1.292549,0 0.276079,-1.2549023 -1.568628,0 0,1.2549023 z"
     id="path6"
     inkscape:connector-curvature="0" />
</svg>
