<?xml version="1.0" encoding="UTF-8" standalone="no"?>
<svg
   xmlns:dc="http://purl.org/dc/elements/1.1/"
   xmlns:cc="http://creativecommons.org/ns#"
   xmlns:rdf="http://www.w3.org/1999/02/22-rdf-syntax-ns#"
   xmlns:svg="http://www.w3.org/2000/svg"
   xmlns="http://www.w3.org/2000/svg"
   xmlns:sodipodi="http://sodipodi.sourceforge.net/DTD/sodipodi-0.dtd"
   xmlns:inkscape="http://www.inkscape.org/namespaces/inkscape"
   version="1.1"
   width="32px"
   height="32px"
   id="svg2"
   inkscape:version="0.91 r13725"
   sodipodi:docname="celebration.svg">
  <metadata
     id="metadata12">
    <rdf:RDF>
      <cc:Work
         rdf:about="">
        <dc:format>image/svg+xml</dc:format>
        <dc:type
           rdf:resource="http://purl.org/dc/dcmitype/StillImage" />
      </cc:Work>
    </rdf:RDF>
  </metadata>
  <defs
     id="defs10" />
  <sodipodi:namedview
     pagecolor="#ffffff"
     bordercolor="#666666"
     borderopacity="1"
     objecttolerance="10"
     gridtolerance="10"
     guidetolerance="10"
     inkscape:pageopacity="0"
     inkscape:pageshadow="2"
     inkscape:window-width="1280"
     inkscape:window-height="972"
     id="namedview8"
     showgrid="false"
     inkscape:zoom="7.375"
     inkscape:cx="-0.20338983"
     inkscape:cy="16"
     inkscape:window-x="-8"
     inkscape:window-y="-8"
     inkscape:window-maximized="1"
     inkscape:current-layer="svg2" />
  <g
     id="g4"
     transform="matrix(0.0128,0,0,-0.0128,-1.12,24.02)" />
  <path
     d="m 0.64,15.36 15.36,0 -6.4,7.04 0,8.32 3.84,0 0,1.28 -10.24,0 0,-1.28 3.84,0 0,-8.32 z m 16.64,15.36 q 0,0.5248 0.3776,0.9024 Q 18.0352,32 18.56,32 l 11.52,0 q 0.5248,0 0.9024,-0.3776 Q 31.36,31.2448 31.36,30.72 l 0,-15.36 q 0,-0.704 -0.3968,-1.3888 -0.3968,-0.6848 -0.96,-1.248 l -1.1264,-1.1264 q 0,0 -0.96,-1.248 Q 26.9568,9.1008 27.52,8.96 l 0,-3.84 -6.4,0 0,3.84 q 0,0.704 -0.3968,1.3888 -0.3968,0.6848 -0.96,1.248 l -1.1264,1.1264 q 0,0 -0.96,1.248 -0.96,1.248 -0.3968,1.3888 l 0,15.36 z m 3.84,-26.88 6.4,0 0,-2.56 Q 27.52,0.7552 27.1424,0.3776 26.7648,0 26.24,0 L 22.4,0 Q 21.8752,0 21.4976,0.3776 21.12,0.7552 21.12,1.28 l 0,2.56 z"
     id="path6"
     inkscape:connector-curvature="0" />
</svg>
