<?xml version="1.0" encoding="UTF-8" standalone="no"?>
<svg
   xmlns:dc="http://purl.org/dc/elements/1.1/"
   xmlns:cc="http://creativecommons.org/ns#"
   xmlns:rdf="http://www.w3.org/1999/02/22-rdf-syntax-ns#"
   xmlns:svg="http://www.w3.org/2000/svg"
   xmlns="http://www.w3.org/2000/svg"
   xmlns:sodipodi="http://sodipodi.sourceforge.net/DTD/sodipodi-0.dtd"
   xmlns:inkscape="http://www.inkscape.org/namespaces/inkscape"
   version="1.1"
   width="32px"
   height="32px"
   id="svg2"
   inkscape:version="0.91 r13725"
   sodipodi:docname="charts.svg">
  <metadata
     id="metadata12">
    <rdf:RDF>
      <cc:Work
         rdf:about="">
        <dc:format>image/svg+xml</dc:format>
        <dc:type
           rdf:resource="http://purl.org/dc/dcmitype/StillImage" />
      </cc:Work>
    </rdf:RDF>
  </metadata>
  <defs
     id="defs10" />
  <sodipodi:namedview
     pagecolor="#ffffff"
     bordercolor="#666666"
     borderopacity="1"
     objecttolerance="10"
     gridtolerance="10"
     guidetolerance="10"
     inkscape:pageopacity="0"
     inkscape:pageshadow="2"
     inkscape:window-width="1280"
     inkscape:window-height="972"
     id="namedview8"
     showgrid="false"
     inkscape:zoom="7.375"
     inkscape:cx="-0.20338983"
     inkscape:cy="16"
     inkscape:window-x="-8"
     inkscape:window-y="-8"
     inkscape:window-maximized="1"
     inkscape:current-layer="svg2" />
  <g
     id="g4"
     transform="matrix(0.01185185,0,0,-0.01185185,1.9074074,23.259259)" />
  <path
     d="m 0,30.222222 0,-2.37037 2.3703704,0 0,-5.333334 q 0,-0.248889 0.1777777,-0.42074 0.1777778,-0.171852 0.4148149,-0.171852 l 4.740741,0 q 0.248889,0 0.42074,0.171852 0.171852,0.171851 0.171852,0.42074 l 0,5.333334 1.185185,0 0,-12.444445 q 0,-0.248889 0.177778,-0.420741 0.177778,-0.171851 0.414815,-0.171851 l 4.740741,0 q 0.248889,0 0.420741,0.171851 0.171851,0.171852 0.171851,0.420741 l 0,12.444445 1.185186,0 0,-25.4814816 q 0,-0.2488889 0.177777,-0.4207408 0.177778,-0.1718518 0.414815,-0.1718518 l 4.740741,0 q 0.248889,0 0.420741,0.1718518 0.171852,0.1718519 0.171852,0.4207408 l 0,25.4814816 1.185185,0 0,-17.185185 q 0,-0.248889 0.177777,-0.420741 0.177778,-0.171852 0.414815,-0.171852 l 4.740741,0 q 0.248889,0 0.420741,0.171852 0.171852,0.171852 0.171852,0.420741 l 0,17.185185 2.37037,0 0,2.37037 -32,0 z"
     id="path6"
     inkscape:connector-curvature="0" />
</svg>
