<?xml version="1.0" encoding="UTF-8" standalone="no"?>
<svg
   xmlns:dc="http://purl.org/dc/elements/1.1/"
   xmlns:cc="http://creativecommons.org/ns#"
   xmlns:rdf="http://www.w3.org/1999/02/22-rdf-syntax-ns#"
   xmlns:svg="http://www.w3.org/2000/svg"
   xmlns="http://www.w3.org/2000/svg"
   xmlns:sodipodi="http://sodipodi.sourceforge.net/DTD/sodipodi-0.dtd"
   xmlns:inkscape="http://www.inkscape.org/namespaces/inkscape"
   version="1.1"
   width="32px"
   height="32px"
   id="svg2"
   inkscape:version="0.91 r13725"
   sodipodi:docname="check.svg">
  <metadata
     id="metadata12">
    <rdf:RDF>
      <cc:Work
         rdf:about="">
        <dc:format>image/svg+xml</dc:format>
        <dc:type
           rdf:resource="http://purl.org/dc/dcmitype/StillImage" />
      </cc:Work>
    </rdf:RDF>
  </metadata>
  <defs
     id="defs10" />
  <sodipodi:namedview
     pagecolor="#ffffff"
     bordercolor="#666666"
     borderopacity="1"
     objecttolerance="10"
     gridtolerance="10"
     guidetolerance="10"
     inkscape:pageopacity="0"
     inkscape:pageshadow="2"
     inkscape:window-width="1280"
     inkscape:window-height="972"
     id="namedview8"
     showgrid="false"
     inkscape:zoom="7.375"
     inkscape:cx="-0.20338983"
     inkscape:cy="16"
     inkscape:window-x="-8"
     inkscape:window-y="-8"
     inkscape:window-maximized="1"
     inkscape:current-layer="svg2" />
  <g
     id="g4"
     transform="matrix(0.01449932,0,0,-0.01449932,-3.6838446,14.862725)" />
  <path
     d="M 0,23.25691 0,8.7575895 Q 0,6.3507022 1.7036701,4.6542818 3.4073403,2.9578614 5.799728,2.9578614 l 14.49932,0 q 1.000454,0 2.015406,0.3769823 l -2.522882,2.5228816 -15.4417759,0 q -0.5944721,0 -1.0222021,0.4277301 -0.4277299,0.4277299 -0.4277299,1.0222021 l 0,17.3991845 q 0,0.594472 0.4277299,1.022202 0.42773,0.42773 1.0222021,0.42773 l 17.3991849,0 q 0.594472,0 1.022202,-0.42773 0.42773,-0.42773 0.42773,-1.022202 l 0,-3.900317 2.899864,-2.899864 0,5.350249 q 0,2.406887 -1.696421,4.103308 -1.69642,1.69642 -4.103308,1.69642 l -14.49932,0 q -2.3923877,0 -4.0960579,-1.69642 Q 0,25.663797 0,23.25691 Z m 6.031717,-8.815587 q 0,-0.304486 0.202991,-0.521975 l 3.392841,-3.378342 q 0.20299,-0.21749 0.514726,-0.21749 0.311735,0 0.529225,0.21749 l 4.117807,4.117807 q 0.21749,0.21749 0.521975,0.21749 0.304486,0 0.521976,-0.21749 L 27.331219,3.1608518 q 0.21749,-0.2174897 0.521975,-0.2174897 0.304486,0 0.521976,0.2174897 l 3.40734,3.349343 Q 32,6.7276847 32,7.0321703 32,7.336656 31.78251,7.5541458 L 15.833258,23.503398 q -0.21749,0.21749 -0.521976,0.21749 -0.304485,0 -0.521975,-0.21749 L 6.234708,14.963299 Q 6.031717,14.745809 6.031717,14.441323 Z"
     id="path6"
     inkscape:connector-curvature="0" />
</svg>
