<?xml version="1.0" encoding="UTF-8" standalone="no"?>
<svg
   xmlns:dc="http://purl.org/dc/elements/1.1/"
   xmlns:cc="http://creativecommons.org/ns#"
   xmlns:rdf="http://www.w3.org/1999/02/22-rdf-syntax-ns#"
   xmlns:svg="http://www.w3.org/2000/svg"
   xmlns="http://www.w3.org/2000/svg"
   xmlns:sodipodi="http://sodipodi.sourceforge.net/DTD/sodipodi-0.dtd"
   xmlns:inkscape="http://www.inkscape.org/namespaces/inkscape"
   version="1.1"
   width="32px"
   height="32px"
   id="svg2"
   inkscape:version="0.91 r13725"
   sodipodi:docname="circle_question_mark.svg">
  <metadata
     id="metadata12">
    <rdf:RDF>
      <cc:Work
         rdf:about="">
        <dc:format>image/svg+xml</dc:format>
        <dc:type
           rdf:resource="http://purl.org/dc/dcmitype/StillImage" />
      </cc:Work>
    </rdf:RDF>
  </metadata>
  <defs
     id="defs10" />
  <sodipodi:namedview
     pagecolor="#ffffff"
     bordercolor="#666666"
     borderopacity="1"
     objecttolerance="10"
     gridtolerance="10"
     guidetolerance="10"
     inkscape:pageopacity="0"
     inkscape:pageshadow="2"
     inkscape:window-width="1280"
     inkscape:window-height="972"
     id="namedview8"
     showgrid="false"
     inkscape:zoom="7.375"
     inkscape:cx="-0.20338983"
     inkscape:cy="16"
     inkscape:window-x="-8"
     inkscape:window-y="-8"
     inkscape:window-maximized="1"
     inkscape:current-layer="svg2" />
  <g
     id="g4"
     transform="matrix(0.01306122,0,0,-0.01306122,-0.82142857,23.02551)" />
  <path
     d="M 0,16 Q 0,13.831837 0.5746939,11.755102 1.1493878,9.6783673 2.1812245,7.9216327 3.2130612,6.164898 4.6889796,4.6889796 6.164898,3.2130612 7.921633,2.1812245 9.678367,1.1493878 11.755102,0.5746939 13.831837,0 16,0 q 2.181224,0 4.251429,0.5746939 2.070204,0.5746939 3.826938,1.6065306 1.756735,1.0318367 3.232653,2.5077551 1.475919,1.4759184 2.507756,3.2326531 1.031836,1.7567346 1.60653,3.8334693 Q 32,13.831837 32,16 q 0,3.252245 -1.266939,6.217143 -1.266939,2.964898 -3.408979,5.106939 -2.142041,2.14204 -5.106939,3.408979 Q 19.252245,32 16,32 13.831837,32 11.755102,31.425306 9.678367,30.850612 7.921633,29.818776 6.164898,28.786939 4.6889796,27.31102 3.2130612,25.835102 2.1812245,24.078367 1.1493878,22.321633 0.5746939,20.251429 0,18.181224 0,16 Z m 9.717551,-3.604898 q 0,0.143674 0.09143,0.235102 0.07837,0.10449 0.235102,0.10449 l 3.513469,0 q 0.300408,0 0.326531,-0.300408 0.06531,-0.966531 0.613877,-1.462857 0.548572,-0.496327 1.541225,-0.496327 0.705306,0 1.149387,0.417959 0.444082,0.417959 0.444082,1.071021 0,0.365714 -0.169796,0.711836 -0.169796,0.346123 -0.444081,0.607347 -0.274286,0.261225 -0.404898,0.365715 -0.130613,0.104489 -0.261225,0.195918 -2.311837,1.684898 -2.311837,3.761633 l 0,1.332245 q 0,0.06531 0.130613,0.195918 0.130612,0.130612 0.195918,0.130612 l 3.343673,0 q 0.130613,0 0.228572,-0.09143 0.09796,-0.09143 0.09796,-0.222041 0.02612,-1.227755 0.378776,-1.893878 0.352653,-0.666122 1.306122,-1.28 0.64,-0.404898 0.966531,-0.64 0.32653,-0.235102 0.653061,-0.561632 0.32653,-0.326531 0.457143,-0.679184 0.130612,-0.352653 0.208979,-0.842449 0.07837,-0.489796 0.07837,-1.195102 0,-1.253878 -0.52898,-2.2465308 Q 21.028571,8.6204082 20.146939,8.0195918 19.265306,7.4187755 18.213878,7.1118367 17.162449,6.804898 16.039184,6.804898 q -2.87347,0 -4.525715,1.4628571 -1.652245,1.4628571 -1.795918,4.1273469 z m 3.670204,13.400816 q 0,0.274286 0.189388,0.463674 0.189388,0.189388 0.463673,0.189388 l 3.983674,0 q 0.261224,0 0.457143,-0.189388 0.195918,-0.189388 0.195918,-0.463674 l 0,-3.918367 q 0,-0.261224 -0.195918,-0.457143 Q 18.285714,21.22449 18.02449,21.22449 l -3.983674,0 q -0.274285,0 -0.463673,0.195918 -0.189388,0.195919 -0.189388,0.457143 l 0,3.918367 z"
     id="path6"
     inkscape:connector-curvature="0" />
</svg>
