<?xml version="1.0" encoding="UTF-8" standalone="no"?>
<svg
   xmlns:dc="http://purl.org/dc/elements/1.1/"
   xmlns:cc="http://creativecommons.org/ns#"
   xmlns:rdf="http://www.w3.org/1999/02/22-rdf-syntax-ns#"
   xmlns:svg="http://www.w3.org/2000/svg"
   xmlns="http://www.w3.org/2000/svg"
   xmlns:sodipodi="http://sodipodi.sourceforge.net/DTD/sodipodi-0.dtd"
   xmlns:inkscape="http://www.inkscape.org/namespaces/inkscape"
   version="1.1"
   width="32px"
   height="32px"
   id="svg2"
   inkscape:version="0.91 r13725"
   sodipodi:docname="circle_exclamation_mark.svg">
  <metadata
     id="metadata12">
    <rdf:RDF>
      <cc:Work
         rdf:about="">
        <dc:format>image/svg+xml</dc:format>
        <dc:type
           rdf:resource="http://purl.org/dc/dcmitype/StillImage" />
      </cc:Work>
    </rdf:RDF>
  </metadata>
  <defs
     id="defs10" />
  <sodipodi:namedview
     pagecolor="#ffffff"
     bordercolor="#666666"
     borderopacity="1"
     objecttolerance="10"
     gridtolerance="10"
     guidetolerance="10"
     inkscape:pageopacity="0"
     inkscape:pageshadow="2"
     inkscape:window-width="1280"
     inkscape:window-height="972"
     id="namedview8"
     showgrid="false"
     inkscape:zoom="7.375"
     inkscape:cx="-0.20338983"
     inkscape:cy="16"
     inkscape:window-x="-8"
     inkscape:window-y="-8"
     inkscape:window-maximized="1"
     inkscape:current-layer="svg2" />
  <g
     id="g4"
     transform="matrix(0.01306122,0,0,-0.01306122,-0.82142857,23.02551)" />
  <path
     d="M 0,16 Q 0,13.831837 0.5746939,11.755102 1.1493878,9.6783673 2.1812245,7.9216327 3.2130612,6.164898 4.6889796,4.6889796 6.164898,3.2130612 7.921633,2.1812245 9.678367,1.1493878 11.755102,0.5746939 13.831837,0 16,0 q 2.181224,0 4.251429,0.5746939 2.070204,0.5746939 3.826938,1.6065306 1.756735,1.0318367 3.232653,2.5077551 1.475919,1.4759184 2.507756,3.2326531 1.031836,1.7567346 1.60653,3.8334693 Q 32,13.831837 32,16 q 0,3.252245 -1.266939,6.217143 -1.266939,2.964898 -3.408979,5.106939 -2.142041,2.14204 -5.106939,3.408979 Q 19.252245,32 16,32 13.831837,32 11.755102,31.425306 9.678367,30.850612 7.921633,29.818776 6.164898,28.786939 4.6889796,27.31102 3.2130612,25.835102 2.1812245,24.078367 1.1493878,22.321633 0.5746939,20.251429 0,18.181224 0,16 Z m 13.387755,9.795918 q 0,0.274286 0.189388,0.463674 0.189388,0.189388 0.463673,0.189388 l 3.918368,0 q 0.274285,0 0.463673,-0.189388 0.189388,-0.189388 0.189388,-0.463674 l 0,-3.918367 q 0,-0.261224 -0.189388,-0.457143 -0.189388,-0.195918 -0.463673,-0.195918 l -3.918368,0 q -0.274285,0 -0.463673,0.195918 -0.189388,0.195919 -0.189388,0.457143 l 0,3.918367 z m 0,-14.367347 q 0,0.875103 0.130612,1.462858 L 14.72,18.951837 q 0.05225,0.300408 0.293878,0.633469 0.241632,0.333061 0.489795,0.333061 l 1.018776,0 q 0.248163,0 0.489796,-0.333061 0.241633,-0.333061 0.293877,-0.633469 l 1.175511,-6.230204 q 0.130612,-0.587755 0.130612,-1.293062 l 0,-5.2244894 q 0,-0.2612245 -0.189388,-0.4571428 -0.189388,-0.1959184 -0.463673,-0.1959184 l -3.918368,0 q -0.274285,0 -0.463673,0.1959184 -0.189388,0.1959183 -0.189388,0.4571428 l 0,5.2244894 z"
     id="path6"
     inkscape:connector-curvature="0" />
</svg>
