<?xml version="1.0" encoding="UTF-8" standalone="no"?>
<svg
   xmlns:dc="http://purl.org/dc/elements/1.1/"
   xmlns:cc="http://creativecommons.org/ns#"
   xmlns:rdf="http://www.w3.org/1999/02/22-rdf-syntax-ns#"
   xmlns:svg="http://www.w3.org/2000/svg"
   xmlns="http://www.w3.org/2000/svg"
   xmlns:sodipodi="http://sodipodi.sourceforge.net/DTD/sodipodi-0.dtd"
   xmlns:inkscape="http://www.inkscape.org/namespaces/inkscape"
   version="1.1"
   width="32px"
   height="32px"
   id="svg2"
   inkscape:version="0.91 r13725"
   sodipodi:docname="circle_ok.svg">
  <metadata
     id="metadata12">
    <rdf:RDF>
      <cc:Work
         rdf:about="">
        <dc:format>image/svg+xml</dc:format>
        <dc:type
           rdf:resource="http://purl.org/dc/dcmitype/StillImage" />
      </cc:Work>
    </rdf:RDF>
  </metadata>
  <defs
     id="defs10" />
  <sodipodi:namedview
     pagecolor="#ffffff"
     bordercolor="#666666"
     borderopacity="1"
     objecttolerance="10"
     gridtolerance="10"
     guidetolerance="10"
     inkscape:pageopacity="0"
     inkscape:pageshadow="2"
     inkscape:window-width="1280"
     inkscape:window-height="972"
     id="namedview8"
     showgrid="false"
     inkscape:zoom="7.375"
     inkscape:cx="-0.20338983"
     inkscape:cy="16"
     inkscape:window-x="-8"
     inkscape:window-y="-8"
     inkscape:window-maximized="1"
     inkscape:current-layer="svg2" />
  <g
     id="g4"
     transform="matrix(0.01305057,0,0,-0.01305057,-0.80159869,23.039772)" />
  <path
     d="M 0,16 Q 0,12.972268 1.2006525,9.9836868 2.4013051,6.995106 4.6982055,4.6982056 6.995106,2.4013051 9.983687,1.2006525 12.972268,0 16,0 q 3.027732,0 6.016313,1.2006525 2.988581,1.2006526 5.285481,3.4975531 2.296901,2.2969004 3.497553,5.2854812 Q 32,12.972268 32,16 q 0,3.027732 -1.200653,6.016313 -1.200652,2.988581 -3.497553,5.285481 -2.2969,2.296901 -5.285481,3.497553 Q 19.027732,32 16,32 12.972268,32 9.983687,30.799347 6.995106,29.598695 4.6982055,27.301794 2.4013051,25.004894 1.2006525,22.016313 0,19.027732 0,16 Z m 6.62969,0.137031 q 0,0.176183 0.130506,0.293638 l 6.734094,6.747145 q 0.130506,0.130506 0.306689,0.130506 0.176183,0 0.306688,-0.130506 L 25.213703,12.071778 q 0.130506,-0.130506 0.130506,-0.306688 0,-0.176183 -0.130506,-0.306689 L 22.40783,8.7047308 q -0.130505,-0.1305057 -0.306688,-0.1305057 -0.176183,0 -0.306688,0.1305057 l -7.686787,7.6867862 q -0.130505,0.130506 -0.306688,0.130506 -0.176183,0 -0.293638,-0.130506 l -3.353997,-3.340946 q -0.130506,-0.130506 -0.306688,-0.130506 -0.176183,0 -0.293638,0.130506 L 6.760196,15.830343 Q 6.62969,15.960848 6.62969,16.137031 Z"
     id="path6"
     inkscape:connector-curvature="0" />
</svg>
