<?xml version="1.0" encoding="UTF-8" standalone="no"?>
<svg
   xmlns:dc="http://purl.org/dc/elements/1.1/"
   xmlns:cc="http://creativecommons.org/ns#"
   xmlns:rdf="http://www.w3.org/1999/02/22-rdf-syntax-ns#"
   xmlns:svg="http://www.w3.org/2000/svg"
   xmlns="http://www.w3.org/2000/svg"
   xmlns:sodipodi="http://sodipodi.sourceforge.net/DTD/sodipodi-0.dtd"
   xmlns:inkscape="http://www.inkscape.org/namespaces/inkscape"
   version="1.1"
   width="32px"
   height="32px"
   id="svg2"
   inkscape:version="0.91 r13725"
   sodipodi:docname="circle_arrow_right.svg">
  <metadata
     id="metadata12">
    <rdf:RDF>
      <cc:Work
         rdf:about="">
        <dc:format>image/svg+xml</dc:format>
        <dc:type
           rdf:resource="http://purl.org/dc/dcmitype/StillImage" />
      </cc:Work>
    </rdf:RDF>
  </metadata>
  <defs
     id="defs10" />
  <sodipodi:namedview
     pagecolor="#ffffff"
     bordercolor="#666666"
     borderopacity="1"
     objecttolerance="10"
     gridtolerance="10"
     guidetolerance="10"
     inkscape:pageopacity="0"
     inkscape:pageshadow="2"
     inkscape:window-width="1280"
     inkscape:window-height="972"
     id="namedview8"
     showgrid="false"
     inkscape:zoom="7.375"
     inkscape:cx="-0.20338983"
     inkscape:cy="16"
     inkscape:window-x="-8"
     inkscape:window-y="-8"
     inkscape:window-maximized="1"
     inkscape:current-layer="svg2" />
  <g
     id="g4"
     transform="matrix(0.01312551,0,0,0.01312551,-0.86268253,1.361452)" />
  <path
     d="m 0,16 q 0,3.255127 1.266612,6.21493 1.266612,2.959803 3.4126333,5.105825 Q 6.825267,29.466776 9.78507,30.733388 12.744873,32 16,32 q 3.255127,0 6.21493,-1.266612 2.959803,-1.266612 5.105825,-3.412633 2.146021,-2.146022 3.412633,-5.105825 Q 32,19.255127 32,16 32,12.744873 30.733388,9.7850697 29.466776,6.8252666 27.320755,4.6792453 25.174733,2.533224 22.21493,1.266612 19.255127,0 16,0 12.744873,0 9.78507,1.266612 6.825267,2.533224 4.6792453,4.6792453 2.533224,6.8252666 1.266612,9.7850697 0,12.744873 0,16 Z m 8.203445,-2.04758 q 0,-0.275636 0.19032,-0.465956 0.19032,-0.19032 0.465956,-0.19032 l 7.219032,0 0,-4.4757995 q 0,-0.2625102 0.144381,-0.3347005 0.14438,-0.07219 0.367514,0.098441 l 8.387203,6.995899 q 0.210008,0.183757 0.210008,0.426579 0,0.242822 -0.210008,0.413453 l -8.387203,6.995899 q -0.223134,0.170631 -0.367514,0.105004 -0.144381,-0.06563 -0.144381,-0.341264 l 0,-4.633306 -7.219032,0 q -0.275636,0 -0.465956,-0.190319 -0.19032,-0.19032 -0.19032,-0.465956 l 0,-3.937654 z"
     id="path6"
     inkscape:connector-curvature="0" />
</svg>
