<?xml version="1.0" encoding="UTF-8" standalone="no"?>
<!-- Created with Inkscape (http://www.inkscape.org/) -->

<svg
   xmlns:dc="http://purl.org/dc/elements/1.1/"
   xmlns:cc="http://creativecommons.org/ns#"
   xmlns:rdf="http://www.w3.org/1999/02/22-rdf-syntax-ns#"
   xmlns:svg="http://www.w3.org/2000/svg"
   xmlns="http://www.w3.org/2000/svg"
   xmlns:sodipodi="http://sodipodi.sourceforge.net/DTD/sodipodi-0.dtd"
   xmlns:inkscape="http://www.inkscape.org/namespaces/inkscape"
   width="32px"
   height="32px"
   id="svg3790"
   version="1.1"
   inkscape:version="0.91 r13725"
   sodipodi:docname="circle_zoomin.svg">
  <defs
     id="defs3792" />
  <sodipodi:namedview
     id="base"
     pagecolor="#ffffff"
     bordercolor="#666666"
     borderopacity="1.0"
     inkscape:pageopacity="0.0"
     inkscape:pageshadow="2"
     inkscape:zoom="11.197802"
     inkscape:cx="5.3282628"
     inkscape:cy="16"
     inkscape:current-layer="layer1"
     showgrid="true"
     inkscape:grid-bbox="true"
     inkscape:document-units="px"
     inkscape:window-width="1280"
     inkscape:window-height="972"
     inkscape:window-x="-8"
     inkscape:window-y="-8"
     inkscape:window-maximized="1" />
  <metadata
     id="metadata3795">
    <rdf:RDF>
      <cc:Work
         rdf:about="">
        <dc:format>image/svg+xml</dc:format>
        <dc:type
           rdf:resource="http://purl.org/dc/dcmitype/StillImage" />
        <dc:title />
      </cc:Work>
    </rdf:RDF>
  </metadata>
  <g
     id="layer1"
     inkscape:label="Layer 1"
     inkscape:groupmode="layer">
    <path
       style="fill:#000000;fill-opacity:1"
       d="M 16,0 C 7.163444,0 0,7.163444 0,16 0,24.836556 7.163444,32 16,32 24.836556,32 32,24.836556 32,16 32,7.163444 24.836556,0 16,0 Z m -1.755102,6.8571429 c 0.800359,0 1.573692,0.1172349 2.326531,0.3673469 0.752838,0.2501129 1.435544,0.6060199 2.040816,1.0612245 0.605271,0.4552046 1.136632,0.9865652 1.591837,1.5918367 0.455204,0.605272 0.811112,1.287978 1.061224,2.040816 0.250113,0.752838 0.367347,1.526172 0.367347,2.326531 0,1.430642 -0.393318,2.769446 -1.183673,4 l 4.571428,4.571429 c 0.07503,0.07504 0.122449,0.178164 0.122449,0.285714 0,0.107546 -0.04742,0.205678 -0.122449,0.285714 l -1.632653,1.632653 c -0.07503,0.07503 -0.175664,0.122449 -0.285714,0.122449 -0.11005,0 -0.21068,-0.04741 -0.285714,-0.122449 L 18.244898,20.44898 c -1.220548,0.790354 -2.559352,1.183673 -4,1.183673 -0.800359,0 -1.573693,-0.117237 -2.326531,-0.367347 C 11.165529,21.015194 10.482823,20.659286 9.877551,20.204082 9.27228,19.748877 8.740918,19.217516 8.285714,18.612245 7.830509,18.006973 7.474602,17.324266 7.22449,16.571429 6.974377,15.81859 6.857143,15.045257 6.857143,14.244898 c 0,-0.800359 0.117234,-1.573693 0.367347,-2.326531 C 7.474602,11.165529 7.830509,10.482823 8.285714,9.877551 8.740918,9.2722795 9.27228,8.7409189 9.877551,8.2857143 10.482823,7.8305097 11.165529,7.4746027 11.918367,7.2244898 12.671205,6.9743778 13.444539,6.8571429 14.244898,6.8571429 Z m 0,2.3673469 c -0.910408,0 -1.755263,0.2028591 -2.530612,0.6530612 -0.775347,0.450202 -1.386532,1.061387 -1.836735,1.836735 -0.450202,0.775348 -0.653061,1.620203 -0.653061,2.530612 0,0.680306 0.102227,1.336404 0.367347,1.959184 0.265119,0.622778 0.651838,1.141633 1.102041,1.591836 0.450202,0.450202 0.969058,0.834421 1.591836,1.102041 0.62278,0.267621 1.273876,0.408163 1.959184,0.408163 0.685308,0 1.336404,-0.140542 1.959184,-0.408163 0.62278,-0.26762 1.182451,-0.651839 1.632653,-1.102041 0.450202,-0.450203 0.796105,-0.969058 1.061224,-1.591836 0.265118,-0.62278 0.408163,-1.278878 0.408163,-1.959184 0,-0.910409 -0.243675,-1.755264 -0.693877,-2.530612 C 18.162044,10.938938 17.55086,10.327753 16.77551,9.877551 16.000162,9.4273489 15.155307,9.2244898 14.244898,9.2244898 Z m -0.44898,1.9591842 0.734694,0 c 0.105048,0 0.213182,0.0067 0.285715,0.08163 0.07253,0.07504 0.122449,0.185669 0.122449,0.285714 l 0,1.877551 1.877551,0 c 0.105046,0 0.172365,0.04741 0.244897,0.122449 0.07253,0.07504 0.122449,0.144851 0.122449,0.244897 l 0,0.734694 c 0,0.105052 -0.04992,0.213182 -0.122449,0.285715 -0.07253,0.07253 -0.139853,0.122449 -0.244897,0.122449 l -1.877551,0 0,1.877551 c 0,0.105051 -0.04992,0.172365 -0.122449,0.244897 -0.07253,0.07253 -0.180669,0.122449 -0.285715,0.122449 l -0.734694,0 c -0.105047,0 -0.172365,-0.04992 -0.244898,-0.122449 -0.07253,-0.07253 -0.122449,-0.139853 -0.122449,-0.244897 l 0,-1.877551 -1.877551,0 c -0.105047,0 -0.213181,-0.04992 -0.285714,-0.122449 -0.07253,-0.07253 -0.08163,-0.180667 -0.08163,-0.285715 l 0,-0.734694 c 0,-0.100048 0.0091,-0.169863 0.08163,-0.244897 0.07253,-0.07504 0.18067,-0.122449 0.285714,-0.122449 l 1.877551,0 0,-1.877551 c 0,-0.100049 0.04992,-0.210682 0.122449,-0.285714 0.07253,-0.07504 0.139852,-0.08163 0.244898,-0.08163 z"
       id="path3798"
       inkscape:connector-curvature="0" />
  </g>
</svg>
