<?xml version="1.0" encoding="UTF-8" standalone="no"?>
<svg
   xmlns:dc="http://purl.org/dc/elements/1.1/"
   xmlns:cc="http://creativecommons.org/ns#"
   xmlns:rdf="http://www.w3.org/1999/02/22-rdf-syntax-ns#"
   xmlns:svg="http://www.w3.org/2000/svg"
   xmlns="http://www.w3.org/2000/svg"
   xmlns:sodipodi="http://sodipodi.sourceforge.net/DTD/sodipodi-0.dtd"
   xmlns:inkscape="http://www.inkscape.org/namespaces/inkscape"
   version="1.1"
   width="32px"
   height="32px"
   id="svg2"
   inkscape:version="0.91 r13725"
   sodipodi:docname="circle_plus.svg">
  <metadata
     id="metadata12">
    <rdf:RDF>
      <cc:Work
         rdf:about="">
        <dc:format>image/svg+xml</dc:format>
        <dc:type
           rdf:resource="http://purl.org/dc/dcmitype/StillImage" />
      </cc:Work>
    </rdf:RDF>
  </metadata>
  <defs
     id="defs10" />
  <sodipodi:namedview
     pagecolor="#ffffff"
     bordercolor="#666666"
     borderopacity="1"
     objecttolerance="10"
     gridtolerance="10"
     guidetolerance="10"
     inkscape:pageopacity="0"
     inkscape:pageshadow="2"
     inkscape:window-width="1280"
     inkscape:window-height="972"
     id="namedview8"
     showgrid="false"
     inkscape:zoom="7.375"
     inkscape:cx="-0.20338983"
     inkscape:cy="16"
     inkscape:window-x="-8"
     inkscape:window-y="-8"
     inkscape:window-maximized="1"
     inkscape:current-layer="svg2" />
  <g
     id="g4"
     transform="matrix(0.01306122,0,0,0.01306122,-0.82142857,1.4744898)" />
  <path
     d="m 0,16 q 0,2.181224 0.5746939,4.251429 0.5746939,2.070204 1.6065306,3.826938 1.0318367,1.756735 2.5077551,3.232653 1.4759184,1.475919 3.2326534,2.507756 1.756734,1.031836 3.833469,1.60653 Q 13.831837,32 16,32 q 3.252245,0 6.217143,-1.266939 2.964898,-1.266939 5.106939,-3.408979 2.14204,-2.142041 3.408979,-5.106939 Q 32,19.252245 32,16 32,12.747755 30.733061,9.7828571 29.466122,6.8179592 27.324082,4.6759184 25.182041,2.5338776 22.217143,1.2669388 19.252245,0 16,0 13.831837,0 11.755102,0.5746939 9.678367,1.1493878 7.921633,2.1812245 6.164898,3.2130612 4.6889796,4.6889796 3.2130612,6.164898 2.1812245,7.9216327 1.1493878,9.6783673 0.5746939,11.748571 0,13.818776 0,16 Z m 6.739592,-1.985306 q 0,-0.274286 0.195918,-0.470204 0.195919,-0.195919 0.470204,-0.195919 l 5.955919,0 0,-6.0212241 q 0,-0.2742857 0.189387,-0.470204 0.189388,-0.1959184 0.463674,-0.1959184 l 3.970612,0 q 0.274286,0 0.470204,0.1959184 0.195919,0.1959183 0.195919,0.470204 l 0,6.0212241 5.942857,0 q 0.274285,0 0.470204,0.195919 0.195918,0.195918 0.195918,0.470204 l 0,3.970612 q 0,0.274286 -0.195918,0.463674 -0.195919,0.189387 -0.470204,0.189387 l -5.942857,0 0,5.955919 q 0,0.274285 -0.195919,0.470204 -0.195918,0.195918 -0.470204,0.195918 l -3.970612,0 q -0.274286,0 -0.463674,-0.195918 -0.189387,-0.195919 -0.189387,-0.470204 l 0,-5.955919 -5.955919,0 q -0.274285,0 -0.470204,-0.189387 -0.195918,-0.189388 -0.195918,-0.463674 l 0,-3.970612 z"
     id="path6"
     inkscape:connector-curvature="0" />
</svg>
