<?xml version="1.0" encoding="UTF-8" standalone="no"?>
<!-- Created with Inkscape (http://www.inkscape.org/) -->

<svg
   xmlns:dc="http://purl.org/dc/elements/1.1/"
   xmlns:cc="http://creativecommons.org/ns#"
   xmlns:rdf="http://www.w3.org/1999/02/22-rdf-syntax-ns#"
   xmlns:svg="http://www.w3.org/2000/svg"
   xmlns="http://www.w3.org/2000/svg"
   xmlns:sodipodi="http://sodipodi.sourceforge.net/DTD/sodipodi-0.dtd"
   xmlns:inkscape="http://www.inkscape.org/namespaces/inkscape"
   width="32px"
   height="32px"
   id="svg3904"
   version="1.1"
   inkscape:version="0.91 r13725"
   sodipodi:docname="circlesmall_plus.svg">
  <defs
     id="defs3906" />
  <sodipodi:namedview
     id="base"
     pagecolor="#ffffff"
     bordercolor="#666666"
     borderopacity="1.0"
     inkscape:pageopacity="0.0"
     inkscape:pageshadow="2"
     inkscape:zoom="11.197802"
     inkscape:cx="5.3282628"
     inkscape:cy="16"
     inkscape:current-layer="layer1"
     showgrid="true"
     inkscape:grid-bbox="true"
     inkscape:document-units="px"
     inkscape:window-width="1280"
     inkscape:window-height="972"
     inkscape:window-x="-8"
     inkscape:window-y="-8"
     inkscape:window-maximized="1" />
  <metadata
     id="metadata3909">
    <rdf:RDF>
      <cc:Work
         rdf:about="">
        <dc:format>image/svg+xml</dc:format>
        <dc:type
           rdf:resource="http://purl.org/dc/dcmitype/StillImage" />
        <dc:title />
      </cc:Work>
    </rdf:RDF>
  </metadata>
  <g
     id="layer1"
     inkscape:label="Layer 1"
     inkscape:groupmode="layer">
    <path
       d="M 7.111111,0 C 5.155556,0 3.503704,0.6688889 2.1111111,2.0555556 0.7185184,3.4422222 0,5.1437038 0,7.1111111 L 0,24.888889 c 0,1.967408 0.7185184,3.668889 2.1111111,5.055555 C 3.503704,31.331111 5.155556,32 7.111111,32 l 17.777778,0 c 1.967408,0 3.668889,-0.668889 5.055555,-2.055556 C 31.331111,28.557778 32,26.856297 32,24.888889 L 32,7.1111111 C 32,5.1437038 31.331111,3.4422222 29.944444,2.0555556 28.557778,0.6688889 26.856297,0 24.888889,0 L 7.111111,0 Z m -1.777778,3.5555556 21.333334,0 c 0.485925,0 0.928147,0.1503697 1.277777,0.5 0.349631,0.3496296 0.5,0.7918519 0.5,1.2777777 l 0,21.3333337 c 0,0.485925 -0.150369,0.928147 -0.5,1.277777 -0.34963,0.349631 -0.791852,0.5 -1.277777,0.5 l -21.333334,0 c -0.485926,0 -0.928148,-0.150364 -1.277777,-0.5 -0.34963,-0.34963 -0.5,-0.791852 -0.5,-1.277777 l 0,-21.3333337 c 0,-0.4859258 0.15037,-0.9281481 0.5,-1.2777777 0.349629,-0.3496297 0.791851,-0.5 1.277777,-0.5 z m 9.333334,3.5555555 c -0.124445,0 -0.241481,0.025191 -0.333334,0.1111111 -0.09185,0.08592 -0.111111,0.2088889 -0.111111,0.3333334 l 0,6.6666664 -6.666666,0 c -0.124443,0 -0.247408,0.02519 -0.333334,0.111111 -0.08593,0.08592 -0.111111,0.208889 -0.111111,0.333334 l 0,2.611111 c 0,0.124444 0.02519,0.235555 0.111111,0.333333 0.08593,0.09778 0.208891,0.166667 0.333334,0.166667 l 6.666666,0 0,6.611111 c 0,0.118524 0.07185,0.232592 0.166667,0.333333 0.09481,0.100742 0.15926,0.166667 0.277778,0.166667 l 2.666666,0 c 0.124447,0 0.241483,-0.06889 0.333334,-0.166667 0.09185,-0.09778 0.111111,-0.208889 0.111111,-0.333333 l 0,-6.611111 6.666666,0 c 0.11852,0 0.182962,-0.06889 0.277778,-0.166667 0.09481,-0.09778 0.166667,-0.208889 0.166667,-0.333333 l 0,-2.611111 c 0,-0.124445 -0.01926,-0.247408 -0.111111,-0.333334 -0.09185,-0.08592 -0.208887,-0.111111 -0.333334,-0.111111 l -6.666666,0 0,-6.6666664 c 0,-0.1244445 -0.01926,-0.247408 -0.111111,-0.3333334 -0.09185,-0.085925 -0.208889,-0.1111111 -0.333334,-0.1111111 l -2.666666,0 z"
       id="path2989"
       inkscape:connector-curvature="0" />
  </g>
</svg>
