<?xml version="1.0" encoding="UTF-8" standalone="no"?>
<svg
   xmlns:dc="http://purl.org/dc/elements/1.1/"
   xmlns:cc="http://creativecommons.org/ns#"
   xmlns:rdf="http://www.w3.org/1999/02/22-rdf-syntax-ns#"
   xmlns:svg="http://www.w3.org/2000/svg"
   xmlns="http://www.w3.org/2000/svg"
   xmlns:sodipodi="http://sodipodi.sourceforge.net/DTD/sodipodi-0.dtd"
   xmlns:inkscape="http://www.inkscape.org/namespaces/inkscape"
   version="1.1"
   width="32px"
   height="32px"
   id="svg2985"
   inkscape:version="0.91 r13725"
   sodipodi:docname="circle_triangle_n.svg">
  <metadata
     id="metadata2995">
    <rdf:RDF>
      <cc:Work
         rdf:about="">
        <dc:format>image/svg+xml</dc:format>
        <dc:type
           rdf:resource="http://purl.org/dc/dcmitype/StillImage" />
        <dc:title />
      </cc:Work>
    </rdf:RDF>
  </metadata>
  <defs
     id="defs2993" />
  <sodipodi:namedview
     pagecolor="#ffffff"
     bordercolor="#666666"
     borderopacity="1"
     objecttolerance="10"
     gridtolerance="10"
     guidetolerance="10"
     inkscape:pageopacity="0"
     inkscape:pageshadow="2"
     inkscape:window-width="1280"
     inkscape:window-height="972"
     id="namedview2991"
     showgrid="false"
     inkscape:zoom="7.375"
     inkscape:cx="-0.20338983"
     inkscape:cy="16"
     inkscape:window-x="-8"
     inkscape:window-y="-8"
     inkscape:window-maximized="1"
     inkscape:current-layer="svg2985" />
  <g
     id="g2987"
     transform="matrix(0.01306122,0,0,-0.01306122,-0.82142857,32.821429)" />
  <path
     d="M 16,32 Q 13.831837,32 11.755102,31.425306 9.678367,30.850612 7.928163,29.818776 6.1779592,28.786939 4.6955102,27.30449 3.2130612,25.822041 2.1812245,24.071837 1.1493878,22.321633 0.5746939,20.244898 0,18.168163 0,16 0,13.831837 0.5746939,11.755102 1.1493878,9.6783673 2.1812245,7.9216327 3.2130612,6.164898 4.6955102,4.6889796 6.1779592,3.2130612 7.928163,2.1812245 9.678367,1.1493878 11.755102,0.5746939 13.831837,0 16,0 q 2.168163,0 4.244898,0.5746939 2.076735,0.5746939 3.833469,1.6065306 1.756735,1.0318367 3.232653,2.5077551 1.475919,1.4759184 2.507756,3.2326531 1.031836,1.7567346 1.60653,3.8334693 Q 32,13.831837 32,16 q 0,2.168163 -0.574694,4.244898 -0.574694,2.076735 -1.60653,3.826939 -1.031837,1.750204 -2.507756,3.232653 -1.475918,1.482449 -3.232653,2.514286 -1.756734,1.031836 -3.833469,1.60653 Q 18.168163,32 16,32 Z m 0,-4.244898 q 2.390204,0 4.564898,-0.933878 2.174694,-0.933877 3.748571,-2.507755 1.573878,-1.573877 2.507755,-3.748571 Q 27.755102,18.390204 27.755102,16 q 0,-2.390204 -0.933878,-4.564898 Q 25.887347,9.2604082 24.313469,7.6865306 22.739592,6.1126531 20.564898,5.1787755 18.390204,4.244898 16,4.244898 q -2.390204,0 -4.564898,0.9338775 Q 9.260408,6.1126531 7.686531,7.6865306 6.1126531,9.2604082 5.1787755,11.435102 4.244898,13.609796 4.244898,16 q 0,2.390204 0.9338775,4.564898 0.9338776,2.174694 2.5077555,3.748571 1.573877,1.573878 3.748571,2.507755 Q 13.609796,27.755102 16,27.755102 Z m 6.021224,-7.836735 -12.042448,0 q -0.143674,0 -0.189388,-0.0849 -0.04572,-0.0849 0.04571,-0.189387 L 15.777955,9.5477551 q 0.09143,-0.1044898 0.222041,-0.1044898 0.130612,0 0.222041,0.1044898 l 5.942857,10.0963269 q 0.09143,0.104489 0.04571,0.189387 -0.04571,0.0849 -0.18938,0.0849 z"
     id="path2989"
     inkscape:connector-curvature="0" />
</svg>
