<?xml version="1.0" encoding="UTF-8" standalone="no"?>
<!-- Created with Inkscape (http://www.inkscape.org/) -->

<svg
   xmlns:dc="http://purl.org/dc/elements/1.1/"
   xmlns:cc="http://creativecommons.org/ns#"
   xmlns:rdf="http://www.w3.org/1999/02/22-rdf-syntax-ns#"
   xmlns:svg="http://www.w3.org/2000/svg"
   xmlns="http://www.w3.org/2000/svg"
   xmlns:sodipodi="http://sodipodi.sourceforge.net/DTD/sodipodi-0.dtd"
   xmlns:inkscape="http://www.inkscape.org/namespaces/inkscape"
   width="32px"
   height="32px"
   id="svg3904"
   version="1.1"
   inkscape:version="0.91 r13725"
   sodipodi:docname="circlesmall_close.svg">
  <defs
     id="defs3906" />
  <sodipodi:namedview
     id="base"
     pagecolor="#ffffff"
     bordercolor="#666666"
     borderopacity="1.0"
     inkscape:pageopacity="0.0"
     inkscape:pageshadow="2"
     inkscape:zoom="11.197802"
     inkscape:cx="5.3282628"
     inkscape:cy="16"
     inkscape:current-layer="layer1"
     showgrid="true"
     inkscape:grid-bbox="true"
     inkscape:document-units="px"
     inkscape:window-width="1280"
     inkscape:window-height="972"
     inkscape:window-x="-8"
     inkscape:window-y="-8"
     inkscape:window-maximized="1" />
  <metadata
     id="metadata3909">
    <rdf:RDF>
      <cc:Work
         rdf:about="">
        <dc:format>image/svg+xml</dc:format>
        <dc:type
           rdf:resource="http://purl.org/dc/dcmitype/StillImage" />
        <dc:title />
      </cc:Work>
    </rdf:RDF>
  </metadata>
  <g
     id="layer1"
     inkscape:label="Layer 1"
     inkscape:groupmode="layer">
    <path
       d="M 7.111111,0 C 5.155556,0 3.503704,0.6688889 2.1111111,2.0555556 0.7185184,3.4422222 0,5.1437038 0,7.1111111 L 0,24.888889 c 0,1.967408 0.7185184,3.668889 2.1111111,5.055555 C 3.503704,31.331111 5.155556,32 7.111111,32 l 17.777778,0 c 1.967408,0 3.668889,-0.668889 5.055555,-2.055556 C 31.331111,28.557778 32,26.856297 32,24.888889 L 32,7.1111111 C 32,5.1437038 31.331111,3.4422222 29.944444,2.0555556 28.557778,0.6688889 26.856297,0 24.888889,0 L 7.111111,0 Z m -1.777778,3.5555556 21.333334,0 c 0.485925,0 0.928147,0.1503697 1.277777,0.5 0.349631,0.3496296 0.5,0.7918519 0.5,1.2777777 l 0,21.3333337 c 0,0.485925 -0.150369,0.928147 -0.5,1.277777 -0.34963,0.349631 -0.791852,0.5 -1.277777,0.5 l -21.333334,0 c -0.485926,0 -0.928148,-0.150364 -1.277777,-0.5 -0.34963,-0.34963 -0.5,-0.791852 -0.5,-1.277777 l 0,-21.3333337 c 0,-0.4859258 0.15037,-0.9281481 0.5,-1.2777777 0.349629,-0.3496297 0.791851,-0.5 1.277777,-0.5 z M 10,7.1111111 c -0.151447,0 -0.27696,0.061316 -0.388889,0.1666667 L 7.277778,9.6111111 C 7.165849,9.7164622 7.111111,9.8419751 7.111111,10 c 0,0.158027 0.05473,0.332516 0.166667,0.444444 L 12.833333,16 7.277778,21.555556 C 7.165849,21.667484 7.111111,21.84856 7.111111,22 c 0,0.151449 0.05473,0.27696 0.166667,0.388889 l 2.333333,2.333333 c 0.111934,0.105351 0.28642,0.166667 0.444445,0.166667 0.158023,0 0.283537,-0.06132 0.388888,-0.166667 L 16,19.166667 l 5.555556,5.555555 c 0.111934,0.111929 0.286419,0.166667 0.444444,0.166667 0.158023,0 0.283538,-0.05474 0.388889,-0.166667 l 2.333333,-2.333333 c 0.105351,-0.111929 0.166667,-0.289712 0.166667,-0.444445 0,-0.15472 -0.06132,-0.276947 -0.166667,-0.388888 L 19.166667,16 24.722222,10.444444 C 24.827573,10.332516 24.888889,10.158025 24.888889,10 c 0,-0.1580267 -0.06131,-0.2835378 -0.166667,-0.3888889 L 22.388889,7.2777778 C 22.28354,7.1724267 22.158025,7.1111111 22,7.1111111 c -0.158023,0 -0.283538,0.061316 -0.388889,0.1666667 L 16,12.833333 10.444444,7.2777778 C 10.33251,7.1724267 10.15144,7.1111111 10,7.1111111 Z"
       id="path2989"
       inkscape:connector-curvature="0" />
  </g>
</svg>
