<?xml version="1.0" encoding="UTF-8" standalone="no"?>
<svg
   xmlns:dc="http://purl.org/dc/elements/1.1/"
   xmlns:cc="http://creativecommons.org/ns#"
   xmlns:rdf="http://www.w3.org/1999/02/22-rdf-syntax-ns#"
   xmlns:svg="http://www.w3.org/2000/svg"
   xmlns="http://www.w3.org/2000/svg"
   xmlns:sodipodi="http://sodipodi.sourceforge.net/DTD/sodipodi-0.dtd"
   xmlns:inkscape="http://www.inkscape.org/namespaces/inkscape"
   version="1.1"
   width="32px"
   height="32px"
   id="svg2"
   inkscape:version="0.91 r13725"
   sodipodi:docname="circle_arrow_down.svg">
  <metadata
     id="metadata12">
    <rdf:RDF>
      <cc:Work
         rdf:about="">
        <dc:format>image/svg+xml</dc:format>
        <dc:type
           rdf:resource="http://purl.org/dc/dcmitype/StillImage" />
      </cc:Work>
    </rdf:RDF>
  </metadata>
  <defs
     id="defs10" />
  <sodipodi:namedview
     pagecolor="#ffffff"
     bordercolor="#666666"
     borderopacity="1"
     objecttolerance="10"
     gridtolerance="10"
     guidetolerance="10"
     inkscape:pageopacity="0"
     inkscape:pageshadow="2"
     inkscape:window-width="1280"
     inkscape:window-height="972"
     id="namedview8"
     showgrid="false"
     inkscape:zoom="7.375"
     inkscape:cx="-0.20338983"
     inkscape:cy="16"
     inkscape:window-x="-8"
     inkscape:window-y="-8"
     inkscape:window-maximized="1"
     inkscape:current-layer="svg2" />
  <g
     id="g4"
     transform="matrix(0.01312551,0,0,-0.01312551,-0.86268253,23.018548)" />
  <path
     d="M 0,16 Q 0,12.744873 1.266612,9.7850697 2.533224,6.8252666 4.6792453,4.6792453 6.825267,2.533224 9.78507,1.266612 12.744873,0 16,0 q 3.255127,0 6.21493,1.266612 2.959803,1.266612 5.105825,3.4126333 2.146021,2.1460213 3.412633,5.1058244 Q 32,12.744873 32,16 q 0,3.255127 -1.266612,6.21493 -1.266612,2.959803 -3.412633,5.105825 -2.146022,2.146021 -5.105825,3.412633 Q 19.255127,32 16,32 12.744873,32 9.78507,30.733388 6.825267,29.466776 4.6792453,27.320755 2.533224,25.174733 1.266612,22.21493 0,19.255127 0,16 Z m 8.472518,0.223134 q -0.07219,0.14438 0.111567,0.354389 l 7.061526,8.190319 q 0.170632,0.210009 0.433142,0.210009 0.26251,0 0.433142,-0.210009 l 7.022149,-8.190319 q 0.170632,-0.210009 0.105004,-0.354389 -0.06563,-0.144381 -0.341263,-0.144381 l -4.593929,0 0,-7.2190319 q 0,-0.2625103 -0.19032,-0.459393 -0.19032,-0.1968827 -0.465956,-0.1968827 l -3.937654,0 q -0.275636,0 -0.465956,0.1968827 -0.190319,0.1968827 -0.190319,0.459393 l 0,7.2190319 -4.633306,0 q -0.275636,0 -0.347827,0.144381 z"
     id="path6"
     inkscape:connector-curvature="0" />
</svg>
