<?xml version="1.0" encoding="UTF-8" standalone="no"?>
<!-- Created with Inkscape (http://www.inkscape.org/) -->

<svg
   xmlns:dc="http://purl.org/dc/elements/1.1/"
   xmlns:cc="http://creativecommons.org/ns#"
   xmlns:rdf="http://www.w3.org/1999/02/22-rdf-syntax-ns#"
   xmlns:svg="http://www.w3.org/2000/svg"
   xmlns="http://www.w3.org/2000/svg"
   xmlns:sodipodi="http://sodipodi.sourceforge.net/DTD/sodipodi-0.dtd"
   xmlns:inkscape="http://www.inkscape.org/namespaces/inkscape"
   width="32px"
   height="32px"
   id="svg3048"
   version="1.1"
   inkscape:version="0.91 r13725"
   sodipodi:docname="clock_filled.svg">
  <defs
     id="defs3050" />
  <sodipodi:namedview
     id="base"
     pagecolor="#ffffff"
     bordercolor="#666666"
     borderopacity="1.0"
     inkscape:pageopacity="0.0"
     inkscape:pageshadow="2"
     inkscape:zoom="11.197802"
     inkscape:cx="5.3282628"
     inkscape:cy="16"
     inkscape:current-layer="layer1"
     showgrid="true"
     inkscape:grid-bbox="true"
     inkscape:document-units="px"
     inkscape:window-width="1280"
     inkscape:window-height="972"
     inkscape:window-x="-8"
     inkscape:window-y="-8"
     inkscape:window-maximized="1" />
  <metadata
     id="metadata3053">
    <rdf:RDF>
      <cc:Work
         rdf:about="">
        <dc:format>image/svg+xml</dc:format>
        <dc:type
           rdf:resource="http://purl.org/dc/dcmitype/StillImage" />
        <dc:title />
      </cc:Work>
    </rdf:RDF>
  </metadata>
  <g
     id="layer1"
     inkscape:label="Layer 1"
     inkscape:groupmode="layer">
    <path
       style="fill:#000000;fill-opacity:1"
       d="M 16,0 C 7.163444,0 0,7.1634438 0,16 0,24.836556 7.163444,32 16,32 24.836556,32 32,24.836556 32,16 32,7.1634438 24.836556,0 16,0 Z m -0.952381,1.5238095 1.904762,0 c 0.321597,0 0.571429,0.2498323 0.571429,0.5714286 l 0,11.2857139 C 17.804526,13.543694 18.023342,13.759459 18.238095,14 l 7.904762,-1.857143 c 0.250249,-0.05972 0.464085,0.08308 0.52381,0.333334 l 0.523809,2.047619 c 0.05972,0.250249 -0.130703,0.511704 -0.380952,0.571428 L 18.857143,17 c -0.415494,1.188987 -1.5264,2.047619 -2.857143,2.047619 -1.683154,0 -3.047619,-1.364466 -3.047619,-3.047619 0,-1.127016 0.614254,-2.091744 1.523809,-2.619048 l 0,-11.2857139 c 0,-0.3215963 0.249832,-0.5714286 0.571429,-0.5714286 z"
       id="path3063"
       inkscape:connector-curvature="0" />
  </g>
</svg>
