<?xml version="1.0" encoding="UTF-8" standalone="no"?>
<svg
   xmlns:dc="http://purl.org/dc/elements/1.1/"
   xmlns:cc="http://creativecommons.org/ns#"
   xmlns:rdf="http://www.w3.org/1999/02/22-rdf-syntax-ns#"
   xmlns:svg="http://www.w3.org/2000/svg"
   xmlns="http://www.w3.org/2000/svg"
   xmlns:sodipodi="http://sodipodi.sourceforge.net/DTD/sodipodi-0.dtd"
   xmlns:inkscape="http://www.inkscape.org/namespaces/inkscape"
   version="1.1"
   width="32px"
   height="32px"
   id="svg2"
   inkscape:version="0.91 r13725"
   sodipodi:docname="clock.svg">
  <metadata
     id="metadata12">
    <rdf:RDF>
      <cc:Work
         rdf:about="">
        <dc:format>image/svg+xml</dc:format>
        <dc:type
           rdf:resource="http://purl.org/dc/dcmitype/StillImage" />
      </cc:Work>
    </rdf:RDF>
  </metadata>
  <defs
     id="defs10" />
  <sodipodi:namedview
     pagecolor="#ffffff"
     bordercolor="#666666"
     borderopacity="1"
     objecttolerance="10"
     gridtolerance="10"
     guidetolerance="10"
     inkscape:pageopacity="0"
     inkscape:pageshadow="2"
     inkscape:window-width="1280"
     inkscape:window-height="972"
     id="namedview8"
     showgrid="false"
     inkscape:zoom="7.375"
     inkscape:cx="-0.20338983"
     inkscape:cy="16"
     inkscape:window-x="-8"
     inkscape:window-y="-8"
     inkscape:window-maximized="1"
     inkscape:current-layer="svg2" />
  <g
     id="g4"
     transform="matrix(0.01333333,0,0,-0.01333333,-1.3333333,22.666667)" />
  <path
     d="M 0,16 Q 0,12.746667 1.2666667,9.7866667 2.5333333,6.8266667 4.68,4.68 6.826667,2.5333333 9.786667,1.2666667 12.746667,0 16,0 19.253333,0 22.213333,1.2666667 25.173333,2.5333333 27.32,4.68 29.466667,6.8266667 30.733333,9.7866667 32,12.746667 32,16 32,19.253333 30.733333,22.213333 29.466667,25.173333 27.32,27.32 25.173333,29.466667 22.213333,30.733333 19.253333,32 16,32 12.746667,32 9.786667,30.733333 6.826667,29.466667 4.68,27.32 2.5333333,25.173333 1.2666667,22.213333 0,19.253333 0,16 Z m 4,0 q 0,2.44 0.9533333,4.66 0.9533334,2.22 2.5599997,3.826667 Q 9.12,26.093333 11.34,27.046667 13.56,28 16,28 q 2.44,0 4.66,-0.953333 2.22,-0.953334 3.826667,-2.56 Q 26.093333,22.88 27.046667,20.66 28,18.44 28,16 28,13.56 27.046667,11.34 26.093333,9.12 24.486667,7.5133333 22.88,5.9066667 20.66,4.9533333 18.44,4 16,4 13.56,4 11.34,4.9533333 9.12,5.9066667 7.513333,7.5133333 5.9066667,9.12 4.9533333,11.34 4,13.56 4,16 Z m 5.333333,0.64 0,-1.28 q 0,-0.28 0.193334,-0.486667 Q 9.72,14.666667 10,14.666667 l 3.68,0 q 0.386667,-0.56 1.006667,-0.953334 Q 15.306667,13.32 16,13.32 q 0.253333,0 0.76,0.133333 l 4.32,-4.3199997 q 0.186667,-0.1866666 0.466667,-0.1866666 0.28,0 0.466666,0.1866666 l 0.92,0.9333337 q 0.2,0.186666 0.2,0.466666 0,0.28 -0.2,0.48 l -4.346666,4.36 q 0.08,0.4 0.08,0.64 0,1.106667 -0.78,1.886667 -0.78,0.78 -1.886667,0.78 -0.693333,0 -1.313333,-0.393333 -0.62,-0.393334 -1.006667,-0.953334 l -3.68,0 q -0.28,0 -0.473333,-0.206666 Q 9.333333,16.92 9.333333,16.64 Z"
     id="path6"
     inkscape:connector-curvature="0" />
</svg>
