<?xml version="1.0" encoding="UTF-8" standalone="no"?>
<svg
   xmlns:dc="http://purl.org/dc/elements/1.1/"
   xmlns:cc="http://creativecommons.org/ns#"
   xmlns:rdf="http://www.w3.org/1999/02/22-rdf-syntax-ns#"
   xmlns:svg="http://www.w3.org/2000/svg"
   xmlns="http://www.w3.org/2000/svg"
   xmlns:sodipodi="http://sodipodi.sourceforge.net/DTD/sodipodi-0.dtd"
   xmlns:inkscape="http://www.inkscape.org/namespaces/inkscape"
   version="1.1"
   width="32px"
   height="32px"
   id="svg2"
   inkscape:version="0.91 r13725"
   sodipodi:docname="cloud.svg">
  <metadata
     id="metadata12">
    <rdf:RDF>
      <cc:Work
         rdf:about="">
        <dc:format>image/svg+xml</dc:format>
        <dc:type
           rdf:resource="http://purl.org/dc/dcmitype/StillImage" />
      </cc:Work>
    </rdf:RDF>
  </metadata>
  <defs
     id="defs10" />
  <sodipodi:namedview
     pagecolor="#ffffff"
     bordercolor="#666666"
     borderopacity="1"
     objecttolerance="10"
     gridtolerance="10"
     guidetolerance="10"
     inkscape:pageopacity="0"
     inkscape:pageshadow="2"
     inkscape:window-width="1280"
     inkscape:window-height="972"
     id="namedview8"
     showgrid="false"
     inkscape:zoom="7.375"
     inkscape:cx="-0.20338983"
     inkscape:cy="16"
     inkscape:window-x="-8"
     inkscape:window-y="-8"
     inkscape:window-maximized="1"
     inkscape:current-layer="svg2" />
  <g
     id="g4"
     transform="matrix(0.01298174,0,0,-0.01298174,-1.303499,18.64643)" />
  <path
     d="m 0,21.205679 q 0,-1.791481 1.11643,-3.193509 1.11643,-1.402028 2.8040568,-1.778499 -0.051927,-0.428397 -0.051927,-0.973631 0,-1.947261 0.7594321,-3.712778 0.759432,-1.7655175 2.0381341,-3.0442193 1.278702,-1.2787019 3.044219,-2.0381339 1.765517,-0.7594321 3.712779,-0.7594321 2.868965,0 5.21217,1.5513185 2.343205,1.5513185 3.485598,4.0697768 1.155376,-0.363489 2.336714,-0.363489 2.051116,0 3.79067,1.03854 1.739554,1.038539 2.745639,2.797565 Q 32,16.558215 32,18.622312 q 0,1.544828 -0.59716,2.959838 -0.59716,1.41501 -1.603246,2.447059 -1.006085,1.032048 -2.408113,1.648681 -1.402029,0.616633 -2.933875,0.616633 l -19.4726161,0 q -2.0511157,0 -3.5180528,-1.505882 Q 0,23.282758 0,21.205679 Z"
     id="path6"
     inkscape:connector-curvature="0" />
</svg>
