<?xml version="1.0" encoding="UTF-8" standalone="no"?>
<svg
   xmlns:dc="http://purl.org/dc/elements/1.1/"
   xmlns:cc="http://creativecommons.org/ns#"
   xmlns:rdf="http://www.w3.org/1999/02/22-rdf-syntax-ns#"
   xmlns:svg="http://www.w3.org/2000/svg"
   xmlns="http://www.w3.org/2000/svg"
   xmlns:sodipodi="http://sodipodi.sourceforge.net/DTD/sodipodi-0.dtd"
   xmlns:inkscape="http://www.inkscape.org/namespaces/inkscape"
   version="1.1"
   width="32px"
   height="32px"
   id="svg2"
   inkscape:version="0.91 r13725"
   sodipodi:docname="cloud-upload.svg">
  <metadata
     id="metadata12">
    <rdf:RDF>
      <cc:Work
         rdf:about="">
        <dc:format>image/svg+xml</dc:format>
        <dc:type
           rdf:resource="http://purl.org/dc/dcmitype/StillImage" />
      </cc:Work>
    </rdf:RDF>
  </metadata>
  <defs
     id="defs10" />
  <sodipodi:namedview
     pagecolor="#ffffff"
     bordercolor="#666666"
     borderopacity="1"
     objecttolerance="10"
     gridtolerance="10"
     guidetolerance="10"
     inkscape:pageopacity="0"
     inkscape:pageshadow="2"
     inkscape:window-width="1280"
     inkscape:window-height="972"
     id="namedview8"
     showgrid="false"
     inkscape:zoom="7.375"
     inkscape:cx="-0.20338983"
     inkscape:cy="16"
     inkscape:window-x="-8"
     inkscape:window-y="-8"
     inkscape:window-maximized="1"
     inkscape:current-layer="svg2" />
  <g
     id="g4"
     transform="matrix(0.01298174,0,0,-0.01298159,-1.303499,19.051631)" />
  <path
     d="m 0,17.317464 q 0,-1.791459 1.11643,-3.19347 1.11643,-1.402014 2.8040568,-1.77848 -0.051927,-0.428392 -0.051927,-0.973619 0,-1.947238 0.7594321,-3.7127347 Q 5.3874239,5.8936643 6.666126,4.6149764 7.944828,3.33629 9.710345,2.5768669 11.475862,1.817444 13.423124,1.817444 q 2.868965,0 5.21217,1.5512999 2.343205,1.5512998 3.485598,4.0697294 1.155376,-0.3634845 2.336714,-0.3634845 2.051116,0 3.79067,1.0385272 1.739554,1.038527 2.745639,2.797533 Q 32,12.670054 32,14.734128 q 0,2.077054 -0.941176,3.829569 -0.941177,1.752514 -2.622313,2.797532 -1.681136,1.045019 -3.71927,1.045019 l -0.545233,0 q 0.02596,0 -0.01947,-0.305068 -0.04544,-0.305067 -0.181744,-0.720479 -0.136308,-0.41541 -0.318053,-0.649079 L 17.23976,13.461931 q -0.713996,-0.921693 -1.882353,-0.921693 -0.532252,0 -1.012576,0.227178 -0.480325,0.227178 -0.765923,0.616625 L 7.062072,20.79653 q -0.168763,0.207705 -0.292089,0.610135 -0.123327,0.40243 -0.168763,0.701006 -0.04544,0.298577 -0.01947,0.298577 l -1.5967541,0 q -2.0511157,0 -3.5180528,-1.505866 Q 0,19.394518 0,17.317464 Z m 8.911968,4.96546 q -0.04544,-0.110345 0.04544,-0.214197 l 6.205273,-7.347581 q 0.07789,-0.103854 0.194727,-0.103854 0.155781,0 0.233671,0.116836 l 6.205274,7.334599 q 0.09087,0.116836 0.05193,0.227177 -0.03894,0.110345 -0.181745,0.110345 l -3.712778,0 0,7.295654 q 0,0.493301 -0.506288,0.48032 l -4.141177,0 q -0.532251,0 -0.532251,-0.4933 l 0,-7.295655 -3.686816,0 q -0.129817,0 -0.175253,-0.110344 z"
     id="path6"
     inkscape:connector-curvature="0" />
</svg>
