<?xml version="1.0" encoding="UTF-8" standalone="no"?>
<svg
   xmlns:dc="http://purl.org/dc/elements/1.1/"
   xmlns:cc="http://creativecommons.org/ns#"
   xmlns:rdf="http://www.w3.org/1999/02/22-rdf-syntax-ns#"
   xmlns:svg="http://www.w3.org/2000/svg"
   xmlns="http://www.w3.org/2000/svg"
   xmlns:sodipodi="http://sodipodi.sourceforge.net/DTD/sodipodi-0.dtd"
   xmlns:inkscape="http://www.inkscape.org/namespaces/inkscape"
   version="1.1"
   width="32px"
   height="32px"
   id="svg2"
   inkscape:version="0.91 r13725"
   sodipodi:docname="cloud_minus.svg">
  <metadata
     id="metadata12">
    <rdf:RDF>
      <cc:Work
         rdf:about="">
        <dc:format>image/svg+xml</dc:format>
        <dc:type
           rdf:resource="http://purl.org/dc/dcmitype/StillImage" />
      </cc:Work>
    </rdf:RDF>
  </metadata>
  <defs
     id="defs10" />
  <sodipodi:namedview
     pagecolor="#ffffff"
     bordercolor="#666666"
     borderopacity="1"
     objecttolerance="10"
     gridtolerance="10"
     guidetolerance="10"
     inkscape:pageopacity="0"
     inkscape:pageshadow="2"
     inkscape:window-width="1280"
     inkscape:window-height="972"
     id="namedview8"
     showgrid="false"
     inkscape:zoom="7.375"
     inkscape:cx="-0.20338983"
     inkscape:cy="16"
     inkscape:window-x="-8"
     inkscape:window-y="-8"
     inkscape:window-maximized="1"
     inkscape:current-layer="svg2" />
  <g
     id="g4"
     transform="matrix(0.0123839,0,0,-0.0123839,-0.9323839,19.412972)" />
  <path
     d="m 0,17.250774 q 0,1.981424 1.3993808,3.417957 1.3993808,1.436532 3.3560372,1.436532 l 12.482972,0 q 0.22291,-1.386996 0.98452,-2.724458 0.76161,-1.337461 1.876161,-2.383901 1.114551,-1.046439 2.619195,-1.68421 1.504644,-0.637771 3.089784,-0.637771 2.47678,0 4.606811,1.337461 0.111455,-0.594427 0.111455,-1.226006 0,-1.4613 -0.56966,-2.811146 Q 29.386997,10.625387 28.427245,9.6408669 27.467492,8.6563467 26.130031,8.0681114 24.79257,7.4798761 23.331269,7.4798761 q -1.151702,0 -2.229102,0.3591332 Q 20.012384,5.4241486 17.77709,3.9442724 15.541796,2.4643963 12.804954,2.4643963 q -1.857586,0 -3.541796,0.7244582 Q 7.578947,3.9133127 6.3591331,5.1331269 5.1393189,6.3529412 4.4148607,8.0371517 3.6904025,9.7213622 3.6904025,11.578947 q 0,0.520124 0.049536,0.928793 Q 2.130031,12.866873 1.0650155,14.204335 0,15.541796 0,17.250774 Z m 19.616099,6.09288 q 0,1.68421 0.829721,3.108359 0.829722,1.424148 2.25387,2.25387 1.424149,0.829721 3.10836,0.829721 1.68421,0 3.108359,-0.829721 1.424148,-0.829722 2.25387,-2.25387 Q 32,25.027864 32,23.343654 q 0,-1.684211 -0.829721,-3.10836 -0.829722,-1.424148 -2.25387,-2.25387 -1.424149,-0.829721 -3.108359,-0.829721 -1.684211,0 -3.10836,0.829721 -1.424148,0.829722 -2.25387,2.25387 -0.829721,1.424149 -0.829721,3.10836 z m 2.47678,0.619195 0,-1.238391 q 0,-0.260061 0.179567,-0.439628 0.179566,-0.179567 0.439628,-0.179567 l 6.191951,0 q 0.260062,0 0.439628,0.179567 0.179567,0.179567 0.179567,0.439628 l 0,1.238391 q 0,0.260062 -0.179567,0.439628 -0.179566,0.179567 -0.439628,0.179567 l -6.191951,0 q -0.260062,0 -0.439628,-0.179567 -0.179567,-0.179566 -0.179567,-0.439628 z"
     id="path6"
     inkscape:connector-curvature="0" />
</svg>
