<?xml version="1.0" encoding="UTF-8" standalone="no"?>
<svg
   xmlns:dc="http://purl.org/dc/elements/1.1/"
   xmlns:cc="http://creativecommons.org/ns#"
   xmlns:rdf="http://www.w3.org/1999/02/22-rdf-syntax-ns#"
   xmlns:svg="http://www.w3.org/2000/svg"
   xmlns="http://www.w3.org/2000/svg"
   xmlns:sodipodi="http://sodipodi.sourceforge.net/DTD/sodipodi-0.dtd"
   xmlns:inkscape="http://www.inkscape.org/namespaces/inkscape"
   version="1.1"
   width="32px"
   height="32px"
   id="svg2"
   inkscape:version="0.91 r13725"
   sodipodi:docname="coat_hanger.svg">
  <metadata
     id="metadata12">
    <rdf:RDF>
      <cc:Work
         rdf:about="">
        <dc:format>image/svg+xml</dc:format>
        <dc:type
           rdf:resource="http://purl.org/dc/dcmitype/StillImage" />
      </cc:Work>
    </rdf:RDF>
  </metadata>
  <defs
     id="defs10" />
  <sodipodi:namedview
     pagecolor="#ffffff"
     bordercolor="#666666"
     borderopacity="1"
     objecttolerance="10"
     gridtolerance="10"
     guidetolerance="10"
     inkscape:pageopacity="0"
     inkscape:pageshadow="2"
     inkscape:window-width="1280"
     inkscape:window-height="972"
     id="namedview8"
     showgrid="false"
     inkscape:zoom="7.375"
     inkscape:cx="-0.20338983"
     inkscape:cy="16"
     inkscape:window-x="-8"
     inkscape:window-y="-8"
     inkscape:window-maximized="1"
     inkscape:current-layer="svg2" />
  <g
     id="g4"
     transform="matrix(0.01333333,0,0,-0.01333332,-1.3333333,20.688862)" />
  <path
     d="m 0,27.452668 0,-3.439997 q 0,-1.039999 0.7333333,-2.186664 0.7333334,-1.146666 1.9333334,-1.813332 l 12.1066663,-6.639995 0,-0.906665 -2.72,-2.7199977 Q 11.12,8.8126853 11.053333,7.4260196 10.986667,6.0393544 11.8,4.7860209 12.746667,3.3460224 14.266667,2.8593562 15.786667,2.3726901 17.4,3.039356 q 0.333333,0.1466665 0.833333,0.4866662 0.5,0.3399996 0.833334,0.606666 L 19.4,4.3993546 q 0.68,0.5466662 0.786667,0.9933338 0.106666,0.4466661 -0.32,1.1133321 -0.36,0.5199995 -0.993334,0.6399993 Q 18.24,7.2660197 17.72,6.9060201 L 17.68,6.8793534 Q 17.62667,6.8526868 16.16,5.8526878 15,5.4793549 14.373333,6.4660206 14.16,6.7860202 14.12,7.1260198 14.08,7.4660196 14.213333,7.5726861 L 17.4,10.759349 q 0.44,0.466667 0.44,1.079999 l 0,1.866665 11.493333,6.306662 q 1.2,0.666666 1.933334,1.813332 Q 32,22.972672 32,24.012671 l 0,3.439997 q 0,0.68 -0.853333,1.286665 Q 30.293333,29.346 29.52,29.346 l -27.04,0 q -0.7733333,0 -1.6266667,-0.606667 Q 0,28.132668 0,27.452668 Z m 4,-2.773331 q 0,0.279999 0.2,0.473332 0.2,0.193334 0.4666667,0.193334 l 22.6666663,0 q 0.28,0 0.473334,-0.193334 Q 28,24.959336 28,24.679337 l 0,-1 q 0,-0.24 -0.3,-0.526665 -0.3,-0.286667 -0.606667,-0.433333 L 16,17.212677 4.9066667,22.719339 Q 4.6,22.866005 4.3,23.152672 4,23.439337 4,23.679337 l 0,1 z"
     id="path6"
     inkscape:connector-curvature="0" />
</svg>
