<?xml version="1.0" encoding="UTF-8" standalone="no"?>
<svg
   xmlns:dc="http://purl.org/dc/elements/1.1/"
   xmlns:cc="http://creativecommons.org/ns#"
   xmlns:rdf="http://www.w3.org/1999/02/22-rdf-syntax-ns#"
   xmlns:svg="http://www.w3.org/2000/svg"
   xmlns="http://www.w3.org/2000/svg"
   xmlns:sodipodi="http://sodipodi.sourceforge.net/DTD/sodipodi-0.dtd"
   xmlns:inkscape="http://www.inkscape.org/namespaces/inkscape"
   version="1.1"
   width="32px"
   height="32px"
   id="svg2"
   inkscape:version="0.91 r13725"
   sodipodi:docname="coffee_cup.svg">
  <metadata
     id="metadata12">
    <rdf:RDF>
      <cc:Work
         rdf:about="">
        <dc:format>image/svg+xml</dc:format>
        <dc:type
           rdf:resource="http://purl.org/dc/dcmitype/StillImage" />
      </cc:Work>
    </rdf:RDF>
  </metadata>
  <defs
     id="defs10" />
  <sodipodi:namedview
     pagecolor="#ffffff"
     bordercolor="#666666"
     borderopacity="1"
     objecttolerance="10"
     gridtolerance="10"
     guidetolerance="10"
     inkscape:pageopacity="0"
     inkscape:pageshadow="2"
     inkscape:window-width="1280"
     inkscape:window-height="972"
     id="namedview8"
     showgrid="false"
     inkscape:zoom="7.375"
     inkscape:cx="-0.20338983"
     inkscape:cy="16"
     inkscape:window-x="-8"
     inkscape:window-y="-8"
     inkscape:window-maximized="1"
     inkscape:current-layer="svg2" />
  <g
     id="g4"
     transform="matrix(0.0128,0,0,-0.0128,-0.98,33.82)" />
  <path
     d="m 0,24.32 29.44,0 -2.9696,2.56 -0.8576,0.576 q -0.448,0.2944 -1.1392,0.4992 -0.6912,0.2048 -1.2032,0.2048 l -17.088,0 q -0.5248,0 -1.216,-0.2048 Q 4.2752,27.7504 3.8272,27.456 L 2.9824,26.88 Z m 2.56,-5.12 0,-15.36 24.32,0 0,3.84 1.28,0 q 1.5872,0 2.7136,1.1264 Q 32,9.9328 32,11.52 l 0,2.56 q 0,1.5872 -1.1264,2.7136 Q 29.7472,17.92 28.16,17.92 l -1.28,0 0,1.28 q 0,1.5872 -1.1264,2.7136 Q 24.6272,23.04 23.04,23.04 l -16.64,0 Q 4.8128,23.04 3.6864,21.9136 2.56,20.7872 2.56,19.2 Z m 7.0016,-7.3856 q 0,0.4352 0.1536,0.8448 0.1536,0.4096 0.5568,0.9088 0.4032,0.4992 0.6784,0.7936 0.2752,0.2944 0.9408,0.9472 1.7536,1.728 2.5216,2.7648 l 0.3072,0.4224 0.3072,-0.4224 q 0.768,-1.0368 2.5216,-2.7648 0.6656,-0.6528 0.9408,-0.9472 0.2752,-0.2944 0.6784,-0.7936 0.4032,-0.4992 0.5568,-0.9088 0.1536,-0.4096 0.1536,-0.8448 0,-1.216 -0.9088,-2.1312 -0.9088,-0.9152 -2.112,-0.9152 -1.216,0 -2.1248,0.9856 -0.8832,-0.9856 -2.0992,-0.9856 -1.2288,0 -2.1504,0.9152 -0.9216,0.9152 -0.9216,2.1312 z M 26.88,15.36 l 1.28,0 q 0.5248,0 0.9024,-0.3776 Q 29.44,14.6048 29.44,14.08 l 0,-2.56 q 0,-0.5248 -0.3776,-0.9024 Q 28.6848,10.24 28.16,10.24 l -1.28,0 0,5.12 z"
     id="path6"
     inkscape:connector-curvature="0" />
</svg>
