<?xml version="1.0" encoding="UTF-8" standalone="no"?>
<svg
   xmlns:dc="http://purl.org/dc/elements/1.1/"
   xmlns:cc="http://creativecommons.org/ns#"
   xmlns:rdf="http://www.w3.org/1999/02/22-rdf-syntax-ns#"
   xmlns:svg="http://www.w3.org/2000/svg"
   xmlns="http://www.w3.org/2000/svg"
   xmlns:sodipodi="http://sodipodi.sourceforge.net/DTD/sodipodi-0.dtd"
   xmlns:inkscape="http://www.inkscape.org/namespaces/inkscape"
   version="1.1"
   width="32px"
   height="32px"
   id="svg2"
   inkscape:version="0.91 r13725"
   sodipodi:docname="cogwheels.svg">
  <metadata
     id="metadata12">
    <rdf:RDF>
      <cc:Work
         rdf:about="">
        <dc:format>image/svg+xml</dc:format>
        <dc:type
           rdf:resource="http://purl.org/dc/dcmitype/StillImage" />
      </cc:Work>
    </rdf:RDF>
  </metadata>
  <defs
     id="defs10" />
  <sodipodi:namedview
     pagecolor="#ffffff"
     bordercolor="#666666"
     borderopacity="1"
     objecttolerance="10"
     gridtolerance="10"
     guidetolerance="10"
     inkscape:pageopacity="0"
     inkscape:pageshadow="2"
     inkscape:window-width="1280"
     inkscape:window-height="972"
     id="namedview8"
     showgrid="false"
     inkscape:zoom="7.375"
     inkscape:cx="-0.20338983"
     inkscape:cy="16"
     inkscape:window-x="-8"
     inkscape:window-y="-8"
     inkscape:window-maximized="1"
     inkscape:current-layer="svg2" />
  <g
     id="g4"
     transform="matrix(0.01010548,0,0,-0.01010548,5.0307661,23.841376)" />
  <path
     d="m 5e-6,14.709293 q 0,-0.702296 0.1043891,-1.461535 l 2.9893242,-0.74975 Q 3.3879057,11.406602 3.9478109,10.438572 L 2.3629946,7.800215 Q 3.2645369,6.6328843 4.4317968,5.7312876 L 7.069994,7.3161999 Q 8.0569455,6.7467703 9.1293062,6.471546 L 9.87901,3.4725506 q 0.759194,-0.1043955 1.461447,-0.1043955 0.702254,0 1.461447,0.1043955 l 0.749705,2.9989954 q 1.072359,0.2752243 2.059311,0.8446539 l 2.638197,-1.5849123 q 1.167261,0.9015967 2.068803,2.0689274 l -1.584817,2.638357 q 0.569395,0.987011 0.844603,2.059436 l 2.998814,0.74975 q 0.10439,0.759239 0.10439,1.461535 0,0.702297 -0.10439,1.461536 l -2.998814,0.749749 q -0.284698,1.081916 -0.844603,2.049946 l 1.584817,2.647848 q -0.901542,1.16733 -2.068803,2.068926 L 15.61092,22.102387 q -0.986952,0.569429 -2.059311,0.844653 l -0.749705,2.998996 q -0.759193,0.104395 -1.461447,0.104395 -0.702253,0 -1.461447,-0.104395 L 9.1293062,22.94704 Q 8.0569455,22.671816 7.069994,22.102387 L 4.4317968,23.687298 Q 3.2645369,22.785702 2.3629946,21.618372 L 3.9478109,18.980015 Q 3.3879057,18.011984 3.0937183,16.920578 L 0.1043941,16.170829 Q 5e-6,15.41159 5e-6,14.709293 Z m 7.3736664,0 q 0,1.641855 1.162515,2.804441 1.162515,1.162585 2.8042706,1.162585 1.641756,0 2.804271,-1.162585 1.162515,-1.162586 1.162515,-2.804441 0,-1.641854 -1.162515,-2.80444 -1.162515,-1.162585 -2.804271,-1.162585 -1.6417556,0 -2.8042706,1.162585 -1.162515,1.162586 -1.162515,2.80444 z m 13.7319116,8.475009 q 0,-0.351148 0.05694,-0.692805 l 1.432978,-0.360639 0.01898,-0.05694 q 0.123369,-0.436563 0.360616,-0.882616 l 0.02847,-0.04746 -0.759194,-1.271727 q 0.436537,-0.550448 0.996442,-0.996501 l 1.262159,0.76873 0.04744,-0.02847 q 0.417556,-0.237263 0.892053,-0.370129 l 0.04744,-0.0095 0.360617,-1.442554 q 0.446027,-0.04746 0.702254,-0.04746 0.322657,0 0.702254,0.04746 l 0.360617,1.442554 0.05694,0.0095 q 0.455517,0.132866 0.882563,0.370129 l 0.04745,0.02847 1.271649,-0.76873 q 0.569395,0.446053 0.986952,0.996501 l -0.759193,1.271727 0.02847,0.04746 q 0.218268,0.398601 0.370107,0.882616 l 0.0095,0.05694 1.442468,0.360639 q 0.04744,0.427072 0.04744,0.692805 0,0.322677 -0.04744,0.702296 l -1.442468,0.36064 -0.0095,0.05694 q -0.142349,0.465034 -0.370107,0.882615 l -0.02847,0.04746 0.759193,1.271726 q -0.455516,0.57892 -0.986952,0.996501 l -1.271649,-0.768729 -0.04745,0.02847 q -0.398577,0.237262 -0.882563,0.370129 l -0.05694,0.01898 -0.360617,1.433065 q -0.446009,0.04745 -0.702236,0.04745 -0.322658,0 -0.702254,-0.04745 l -0.360617,-1.433062 -0.04745,-0.01898 q -0.465006,-0.123382 -0.892052,-0.370135 l -0.04744,-0.01898 -1.262159,0.759239 q -0.569395,-0.436562 -0.996442,-0.996501 l 0.759194,-1.271726 -0.02847,-0.04746 Q 22.747349,24.769215 22.61449,24.304181 l -0.01898,-0.05694 -1.432977,-0.36064 q -0.05695,-0.379619 -0.05695,-0.702296 z m 3.406881,0 q 0,0.844654 0.597864,1.442555 0.597865,0.597902 1.442468,0.597902 0.844603,0 1.442468,-0.597902 0.597864,-0.597901 0.597864,-1.442555 0,-0.844653 -0.597864,-1.437809 -0.597865,-0.593156 -1.442468,-0.593156 -0.844603,0 -1.442468,0.597902 -0.597864,0.5979 -0.597864,1.433063 z"
     id="path6"
     inkscape:connector-curvature="0" />
</svg>
