<?xml version="1.0" encoding="UTF-8" standalone="no"?>
<svg
   xmlns:dc="http://purl.org/dc/elements/1.1/"
   xmlns:cc="http://creativecommons.org/ns#"
   xmlns:rdf="http://www.w3.org/1999/02/22-rdf-syntax-ns#"
   xmlns:svg="http://www.w3.org/2000/svg"
   xmlns="http://www.w3.org/2000/svg"
   xmlns:sodipodi="http://sodipodi.sourceforge.net/DTD/sodipodi-0.dtd"
   xmlns:inkscape="http://www.inkscape.org/namespaces/inkscape"
   version="1.1"
   width="32px"
   height="32px"
   id="svg2"
   inkscape:version="0.91 r13725"
   sodipodi:docname="coins.svg">
  <metadata
     id="metadata12">
    <rdf:RDF>
      <cc:Work
         rdf:about="">
        <dc:format>image/svg+xml</dc:format>
        <dc:type
           rdf:resource="http://purl.org/dc/dcmitype/StillImage" />
      </cc:Work>
    </rdf:RDF>
  </metadata>
  <defs
     id="defs10" />
  <sodipodi:namedview
     pagecolor="#ffffff"
     bordercolor="#666666"
     borderopacity="1"
     objecttolerance="10"
     gridtolerance="10"
     guidetolerance="10"
     inkscape:pageopacity="0"
     inkscape:pageshadow="2"
     inkscape:window-width="1280"
     inkscape:window-height="972"
     id="namedview8"
     showgrid="false"
     inkscape:zoom="7.375"
     inkscape:cx="-0.20338983"
     inkscape:cy="16"
     inkscape:window-x="-8"
     inkscape:window-y="-8"
     inkscape:window-maximized="1"
     inkscape:current-layer="svg2" />
  <g
     id="g4"
     transform="matrix(0.0123068,0,0,-0.01230698,0.53885832,23.034791)" />
  <path
     d="m 2.1441415e-5,20.220724 0,-2.412169 q 0,-1.279927 1.649110858585,-2.36294 -0.4184311,-0.603043 -0.4184311,-1.255313 l 0,-2.412168 q 0,-1.292233 1.6614177,-2.3629387 Q 2.461381,8.8244592 2.461381,8.1598829 l 0,-2.4121685 q 0,-2.6213871 5.5380592,-3.8890062 4.1596968,-0.98455737 9.0701098,-0.3692095 5.156548,0.6399631 6.977954,2.707536 0.319977,0.3692095 0.486119,0.9291771 0.166142,0.5599677 0.184602,0.9045632 0.01846,0.3445955 -0.0062,1.1568562 -0.02461,0.8122609 -0.02461,0.9722517 0,0.4061303 -0.30767,0.9107161 2.485973,0.8122612 4.3443,2.713688 1.858325,1.901429 2.70134,4.418207 0.843016,2.516778 0.449199,5.101244 -0.393818,2.609078 -1.987548,4.768954 -1.593729,2.159876 -3.975095,3.396727 -2.381365,1.236851 -5.027327,1.236851 -1.969088,0 -3.827414,-0.68919 -2.079849,0.5292 -4.319686,0.676884 Q 8.7255412,30.95241 4.8488997,29.955545 4.1351054,29.77094 3.5997597,29.592489 3.064414,29.414037 2.4060004,29.112517 1.7475867,28.810996 1.2368546,28.392558 0.72612254,27.974121 0.41845254,27.444921 q -0.2092155,-0.344596 -0.3015165,-0.849183 -0.092301,-0.504586 -0.092301,-0.886102 0,-0.381516 0.030767,-1.003019 0.030767,-0.621503 0.030767,-0.867643 0,-0.996864 0.8860894,-1.809126 Q 2.1441415e-5,21.119133 2.1441415e-5,20.220724 Z M 1.7475867,17.783941 l 0.012307,0.06153 q 0.2953632,0.996865 3.101313,1.796819 l 0.055381,0.01846 q 0,0 0.049227,0.01231 0.049227,0.01231 0.055381,0.01846 2.1659965,0.639963 5.2796163,0.763033 -0.07384,-1.181471 0.07384,-2.350634 -4.3935271,-0.332288 -6.8179663,-1.673749 -0.3076699,0.135376 -0.3938175,0.172298 -0.086148,0.03692 -0.3999708,0.190758 -0.3138234,0.153837 -0.4553516,0.2646 -0.1415282,0.110761 -0.3076699,0.289214 -0.1661418,0.178451 -0.2276758,0.363056 z m 0.012307,6.091955 q 0.073841,0.270753 0.2707496,0.51074 0.1969087,0.239986 0.5476525,0.443051 0.3507436,0.203065 0.6091864,0.338442 0.2584427,0.135377 0.7691748,0.289215 0.5107322,0.153836 0.7014875,0.209218 0.1907554,0.05538 0.7322545,0.178451 l 0.5291923,0.12307 q 0.7876351,0.184604 1.7229519,0.289214 0.935316,0.104607 1.606037,0.129223 0.67072,0.02461 1.7660248,0.04307 1.095305,0.01846 1.673725,0.04307 Q 11.839161,25.46349 11.433036,24.68815 8.8486092,24.565087 6.1164999,24.091268 3.3843907,23.617449 2.9905732,23.014407 L 2.8551985,22.817495 q -0.4676583,0.147685 -0.7445612,0.412284 -0.276903,0.2646 -0.3138234,0.449205 z M 2.9659598,11.815055 q 0.123068,0.418437 0.5414991,0.763033 0.4184311,0.344595 1.0706914,0.584582 0.6522603,0.239986 1.1137653,0.369209 0.4615049,0.129224 1.0522312,0.2646 0.1599884,0.03692 0.2215223,0.04923 1.9690871,0.467665 4.6642759,0.578428 Q 12.232978,13.35343 13.34059,12.135038 11.322275,12.098115 8.5963192,11.513532 5.8703641,10.928951 4.7627523,10.399751 4.172026,10.633584 3.7228279,10.990486 3.2736297,11.347389 3.1259482,11.581221 Z m 1.1937594,-6.0919546 0.012307,0.061535 q 0.049227,0.1846046 0.1784482,0.3569024 0.1292214,0.1722978 0.2707495,0.313828 0.1415282,0.1415303 0.3815108,0.2830606 0.2399825,0.1415303 0.4245845,0.2399861 0.184602,0.098456 0.4984253,0.2092187 0.3138234,0.1107632 0.4861185,0.1722978 0.1722952,0.061535 0.5168856,0.1538373 0.3445906,0.092302 0.4615046,0.1169165 0.116915,0.024614 0.436892,0.1046098 0.319976,0.079995 0.34459,0.079995 2.3998248,0.5784281 5.3042298,0.5784281 2.990552,0.012307 6.091865,-0.7876468 0.06153,-0.012307 0.36305,-0.092302 0.301517,-0.079995 0.418431,-0.1169165 0.116915,-0.036922 0.412278,-0.1230698 0.295363,-0.086149 0.449198,-0.1538373 0.153835,-0.067688 0.406125,-0.1784512 Q 21.869201,6.8307291 22.016883,6.713813 22.164564,6.5968965 22.330706,6.4553665 22.496848,6.3138356 22.601455,6.1415378 22.706063,5.96924 22.75529,5.7723284 L 22.73068,5.7107934 Q 22.68145,5.5384957 22.582995,5.3785049 22.484541,5.2185141 22.312246,5.0769839 22.139951,4.9354536 21.986116,4.8185373 21.832281,4.701621 21.579991,4.5908581 21.327702,4.4800952 21.167714,4.4062534 21.007725,4.3324115 20.718515,4.2401092 20.429306,4.1478067 20.306238,4.1047324 20.18317,4.0616584 19.89396,3.9816624 19.60475,3.9016674 19.555523,3.8893604 16.946482,3.0894066 13.451351,3.0894066 q -3.5320508,0 -6.2395458,0.8245678 Q 7.1502752,3.9385884 6.688766,4.0739652 6.2272611,4.2093417 6.0426591,4.27703 5.8580571,4.3447185 5.4642396,4.5108627 5.0704221,4.677007 4.8673599,4.8308443 4.6642977,4.9846815 4.4489288,5.2185141 4.2335598,5.4523469 4.159719,5.7231004 Z M 12.245285,20.029965 q 0.06153,1.8522 0.886089,3.513643 0.935317,1.870661 2.689036,3.132127 1.753719,1.261465 3.808954,1.532218 1.821406,0.307675 3.618198,-0.246139 1.796793,-0.553814 3.150541,-1.704517 1.353747,-1.150703 2.221377,-2.824453 0.867628,-1.673749 0.929162,-3.507489 0.04923,-1.759897 -0.627646,-3.42134 -0.676874,-1.661443 -1.852173,-2.879834 -1.175299,-1.218391 -2.80595,-1.956809 -1.630651,-0.73842 -3.390523,-0.73842 -1.57527,0 -3.175154,0.603043 -1.735258,0.701497 -3.009012,2.042958 -1.273753,1.341461 -1.889093,2.972137 -0.61534,1.630674 -0.553806,3.482875 z"
     id="path6"
     inkscape:connector-curvature="0" />
</svg>
