<?xml version="1.0" encoding="UTF-8" standalone="no"?>
<svg
   xmlns:dc="http://purl.org/dc/elements/1.1/"
   xmlns:cc="http://creativecommons.org/ns#"
   xmlns:rdf="http://www.w3.org/1999/02/22-rdf-syntax-ns#"
   xmlns:svg="http://www.w3.org/2000/svg"
   xmlns="http://www.w3.org/2000/svg"
   xmlns:sodipodi="http://sodipodi.sourceforge.net/DTD/sodipodi-0.dtd"
   xmlns:inkscape="http://www.inkscape.org/namespaces/inkscape"
   version="1.1"
   width="32px"
   height="32px"
   id="svg2"
   inkscape:version="0.91 r13725"
   sodipodi:docname="collapse.svg">
  <metadata
     id="metadata12">
    <rdf:RDF>
      <cc:Work
         rdf:about="">
        <dc:format>image/svg+xml</dc:format>
        <dc:type
           rdf:resource="http://purl.org/dc/dcmitype/StillImage" />
      </cc:Work>
    </rdf:RDF>
  </metadata>
  <defs
     id="defs10" />
  <sodipodi:namedview
     pagecolor="#ffffff"
     bordercolor="#666666"
     borderopacity="1"
     objecttolerance="10"
     gridtolerance="10"
     guidetolerance="10"
     inkscape:pageopacity="0"
     inkscape:pageshadow="2"
     inkscape:window-width="1280"
     inkscape:window-height="972"
     id="namedview8"
     showgrid="false"
     inkscape:zoom="7.375"
     inkscape:cx="-0.20338983"
     inkscape:cy="16"
     inkscape:window-x="-8"
     inkscape:window-y="-8"
     inkscape:window-maximized="1"
     inkscape:current-layer="svg2" />
  <g
     id="g4"
     transform="matrix(0.01684211,0,0,0.01684211,-7.8157895,1.0789474)" />
  <path
     d="M 0,6.7368421 0,25.263158 Q 0,28.042105 1.9789474,30.021053 3.957895,32 6.736842,32 l 18.526316,0 q 2.795789,0 4.766316,-1.978947 Q 32,28.042105 32,25.263158 L 32,6.7368421 Q 32,3.9410526 30.029474,1.9705263 28.058947,0 25.263158,0 L 6.736842,0 Q 3.957895,0 1.9789474,1.9705263 0,3.9410526 0,6.7368421 Z M 3.3684211,5.0526316 q 0,-0.6905263 0.4968419,-1.1873684 0.496842,-0.4968421 1.187369,-0.4968421 l 21.894736,0 q 0.690527,0 1.187369,0.4968421 0.496842,0.4968421 0.496842,1.1873684 l 0,21.8947364 q 0,0.690527 -0.496842,1.187369 -0.496842,0.496842 -1.187369,0.496842 l -21.894736,0 q -0.690527,0 -1.187369,-0.496842 -0.4968419,-0.496842 -0.4968419,-1.187369 l 0,-21.8947364 z m 8.4210529,4.2105263 0,13.4736841 q 0,0.673684 0.581052,0.892632 0.581053,0.218947 1.136842,-0.202106 l 8.926316,-6.433684 Q 22.989474,16.589474 23.031579,16 q 0.0421,-0.589474 -0.513684,-0.993684 L 13.456842,8.5726316 Q 12.901053,8.1515789 12.345263,8.3705263 11.789474,8.5894737 11.789474,9.2631579 Z"
     id="path6"
     inkscape:connector-curvature="0" />
</svg>
