<?xml version="1.0" encoding="UTF-8" standalone="no"?>
<svg
   xmlns:dc="http://purl.org/dc/elements/1.1/"
   xmlns:cc="http://creativecommons.org/ns#"
   xmlns:rdf="http://www.w3.org/1999/02/22-rdf-syntax-ns#"
   xmlns:svg="http://www.w3.org/2000/svg"
   xmlns="http://www.w3.org/2000/svg"
   xmlns:sodipodi="http://sodipodi.sourceforge.net/DTD/sodipodi-0.dtd"
   xmlns:inkscape="http://www.inkscape.org/namespaces/inkscape"
   version="1.1"
   width="32px"
   height="32px"
   id="svg2"
   inkscape:version="0.91 r13725"
   sodipodi:docname="construction_cone.svg">
  <metadata
     id="metadata12">
    <rdf:RDF>
      <cc:Work
         rdf:about="">
        <dc:format>image/svg+xml</dc:format>
        <dc:type
           rdf:resource="http://purl.org/dc/dcmitype/StillImage" />
      </cc:Work>
    </rdf:RDF>
  </metadata>
  <defs
     id="defs10" />
  <sodipodi:namedview
     pagecolor="#ffffff"
     bordercolor="#666666"
     borderopacity="1"
     objecttolerance="10"
     gridtolerance="10"
     guidetolerance="10"
     inkscape:pageopacity="0"
     inkscape:pageshadow="2"
     inkscape:window-width="1280"
     inkscape:window-height="972"
     id="namedview8"
     showgrid="false"
     inkscape:zoom="7.375"
     inkscape:cx="-0.20338983"
     inkscape:cy="16"
     inkscape:window-x="-8"
     inkscape:window-y="-8"
     inkscape:window-maximized="1"
     inkscape:current-layer="svg2" />
  <g
     id="g4"
     transform="matrix(0.01391304,0,0,-0.01391304,-3.3478261,21.23913)" />
  <path
     d="m 0.695652,32 0,-2.782609 q 0,-0.570434 0.4104348,-0.980869 0.4104348,-0.410435 0.9808695,-0.410435 l 27.8260867,0 q 0.570435,0 0.98087,0.410435 0.410435,0.410435 0.410435,0.980869 l 0,2.782609 -30.608696,0 z m 4.173913,-5.565217 22.26087,0 -2.045218,-5.565218 -18.504348,0 z m 3.005217,-9.739131 2.142609,-6.9565216 10.977391,0 2.56,6.9565216 -15.68,0 z M 11.311304,5.5652174 12.813913,0.653913 Q 12.911303,0.3895652 13.182609,0.1947826 13.453913,0 13.746087,0 l 2.949565,0 Q 16.987826,0 17.266087,0.1878261 17.544348,0.3756522 17.655652,0.64 l 1.808696,4.9252174 -8.153044,0 z"
     id="path6"
     inkscape:connector-curvature="0" />
</svg>
