<?xml version="1.0" encoding="UTF-8" standalone="no"?>
<svg
   xmlns:dc="http://purl.org/dc/elements/1.1/"
   xmlns:cc="http://creativecommons.org/ns#"
   xmlns:rdf="http://www.w3.org/1999/02/22-rdf-syntax-ns#"
   xmlns:svg="http://www.w3.org/2000/svg"
   xmlns="http://www.w3.org/2000/svg"
   xmlns:sodipodi="http://sodipodi.sourceforge.net/DTD/sodipodi-0.dtd"
   xmlns:inkscape="http://www.inkscape.org/namespaces/inkscape"
   version="1.1"
   width="32px"
   height="32px"
   id="svg2"
   inkscape:version="0.91 r13725"
   sodipodi:docname="credit_card.svg">
  <metadata
     id="metadata12">
    <rdf:RDF>
      <cc:Work
         rdf:about="">
        <dc:format>image/svg+xml</dc:format>
        <dc:type
           rdf:resource="http://purl.org/dc/dcmitype/StillImage" />
      </cc:Work>
    </rdf:RDF>
  </metadata>
  <defs
     id="defs10" />
  <sodipodi:namedview
     pagecolor="#ffffff"
     bordercolor="#666666"
     borderopacity="1"
     objecttolerance="10"
     gridtolerance="10"
     guidetolerance="10"
     inkscape:pageopacity="0"
     inkscape:pageshadow="2"
     inkscape:window-width="1280"
     inkscape:window-height="972"
     id="namedview8"
     showgrid="false"
     inkscape:zoom="7.375"
     inkscape:cx="-0.20338983"
     inkscape:cy="16"
     inkscape:window-x="-8"
     inkscape:window-y="-8"
     inkscape:window-maximized="1"
     inkscape:current-layer="svg2" />
  <g
     id="g4"
     transform="matrix(0.01230769,0,0,-0.01230769,0.53846154,19.961538)" />
  <path
     d="m 0,26.461539 0,-13.538462 32,0 0,13.538462 q 0,0.504615 -0.363077,0.867692 -0.363077,0.363077 -0.867692,0.363077 l -29.5384618,0 q -0.5046154,0 -0.8676923,-0.363077 Q 0,26.966154 0,26.461539 Z M 0,9.2307692 0,5.5384615 Q 0,5.0338462 0.3630769,4.6707692 0.7261538,4.3076923 1.2307692,4.3076923 l 29.5384618,0 q 0.504615,0 0.867692,0.3630769 Q 32,5.0338462 32,5.5384615 l 0,3.6923077 -32,0 z m 2.4615385,16.0000008 8.6153845,0 0,-3.692308 -8.6153845,0 0,3.692308 z"
     id="path6"
     inkscape:connector-curvature="0" />
</svg>
