<?xml version="1.0" encoding="UTF-8" standalone="no"?>
<!-- Created with Inkscape (http://www.inkscape.org/) -->

<svg
   xmlns:dc="http://purl.org/dc/elements/1.1/"
   xmlns:cc="http://creativecommons.org/ns#"
   xmlns:rdf="http://www.w3.org/1999/02/22-rdf-syntax-ns#"
   xmlns:svg="http://www.w3.org/2000/svg"
   xmlns="http://www.w3.org/2000/svg"
   xmlns:sodipodi="http://sodipodi.sourceforge.net/DTD/sodipodi-0.dtd"
   xmlns:inkscape="http://www.inkscape.org/namespaces/inkscape"
   width="32px"
   height="32px"
   id="svg2985"
   version="1.1"
   inkscape:version="0.91 r13725"
   sodipodi:docname="cross_community.svg">
  <title
     id="title3100">Crosscommunity</title>
  <defs
     id="defs2987">
    <inkscape:perspective
       sodipodi:type="inkscape:persp3d"
       inkscape:vp_x="0 : 16 : 1"
       inkscape:vp_y="0 : 1000 : 0"
       inkscape:vp_z="7.3523057 : 31.806673 : 1"
       inkscape:persp3d-origin="16 : 10.666667 : 1"
       id="perspective3068" />
  </defs>
  <sodipodi:namedview
     id="base"
     pagecolor="#ffffff"
     bordercolor="#666666"
     borderopacity="1.0"
     inkscape:pageopacity="0.0"
     inkscape:pageshadow="2"
     inkscape:zoom="22.395604"
     inkscape:cx="11.762844"
     inkscape:cy="15.330751"
     inkscape:current-layer="layer1"
     showgrid="true"
     inkscape:grid-bbox="true"
     inkscape:document-units="px"
     inkscape:snap-grids="true"
     inkscape:snap-page="false"
     inkscape:window-width="1280"
     inkscape:window-height="972"
     inkscape:window-x="-8"
     inkscape:window-y="-8"
     inkscape:window-maximized="1" />
  <metadata
     id="metadata2990">
    <rdf:RDF>
      <cc:Work
         rdf:about="">
        <dc:format>image/svg+xml</dc:format>
        <dc:type
           rdf:resource="http://purl.org/dc/dcmitype/StillImage" />
        <dc:title>Crosscommunity</dc:title>
      </cc:Work>
    </rdf:RDF>
  </metadata>
  <g
     id="layer1"
     inkscape:label="Layer 1"
     inkscape:groupmode="layer">
    <path
       style="fill:#000000"
       d="m 15.668966,7.1568461 c -4.210075,0 -7.6295571,1.2750656 -7.6295571,2.8373757 0,0.6501712 0.6129232,1.2293222 1.6078817,1.7024252 l -4.066995,3.562482 C 5.1151593,15.164979 4.6286527,15.133024 4.0985222,15.133024 1.8325492,15.133024 0,16.079963 0,17.245292 c 0,1.16533 1.8325492,2.11227 4.0985222,2.11227 2.2659729,0 4.0985221,-0.94694 4.0985221,-2.11227 0,-0.291331 -0.1076525,-0.567247 -0.3152709,-0.819686 l 4.5083746,-3.909273 c 0.780595,0.137032 1.622335,0.219579 2.522167,0.252212 l -0.441379,0 0,7.976178 c -1.670164,0.267152 -2.900493,1.039332 -2.900493,1.986163 0,1.165329 1.83255,2.112268 4.098523,2.112268 2.265972,0 4.098522,-0.946939 4.098522,-2.112268 0,-0.949672 -1.222572,-1.721428 -2.900493,-1.986163 l 0,-7.976178 -0.441379,0 c 1.21288,-0.04399 2.331621,-0.182345 3.310345,-0.409844 l 4.382266,3.814695 c -0.207618,0.252437 -0.315271,0.528353 -0.315271,0.819686 0,1.165329 1.832549,2.112268 4.098522,2.112268 2.265974,0 4.098522,-0.946939 4.098522,-2.112268 0,-1.165329 -1.832548,-2.112269 -4.098522,-2.112269 -0.530131,0 -1.016636,0.03196 -1.481774,0.126106 l -4.130049,-3.625536 c 0.629321,-0.408001 1.008867,-0.880622 1.008867,-1.3871612 0,-1.5623101 -3.419482,-2.8373757 -7.629556,-2.8373757 z m 0,0.7881599 c 3.231882,0 5.864039,0.7062654 5.864039,1.5447934 0,0.8385286 -2.632157,1.5132676 -5.864039,1.5132676 -3.231883,0 -5.8325128,-0.674739 -5.8325128,-1.5132676 0,-0.838528 2.6006298,-1.5447934 5.8325128,-1.5447934 z m 12.264039,7.34565 c 1.727799,0 3.121182,0.498399 3.121182,1.103424 0,0.605026 -1.393383,1.103424 -3.121182,1.103424 -1.727798,0 -3.121182,-0.498398 -3.121182,-1.103424 0,-0.605025 1.393384,-1.103424 3.121182,-1.103424 z M 4.0669951,15.542867 c 1.7277985,0 3.1211822,0.498397 3.1211822,1.103424 0,0.605026 -1.3933837,1.103424 -3.1211822,1.103424 -1.7277986,0 -3.1211823,-0.498398 -3.1211823,-1.103424 0,-0.605027 1.3933837,-1.103424 3.1211823,-1.103424 z m 11.6019709,5.611699 c 1.727798,0 3.121182,0.466871 3.121182,1.071897 0,0.605026 -1.393384,1.103424 -3.121182,1.103424 -1.727799,0 -3.121183,-0.498398 -3.121183,-1.103424 0,-0.605026 1.393384,-1.071897 3.121183,-1.071897 z"
       id="path2995"
       inkscape:connector-curvature="0" />
  </g>
</svg>
