<?xml version="1.0" encoding="UTF-8" standalone="no"?>
<svg
   xmlns:dc="http://purl.org/dc/elements/1.1/"
   xmlns:cc="http://creativecommons.org/ns#"
   xmlns:rdf="http://www.w3.org/1999/02/22-rdf-syntax-ns#"
   xmlns:svg="http://www.w3.org/2000/svg"
   xmlns="http://www.w3.org/2000/svg"
   xmlns:sodipodi="http://sodipodi.sourceforge.net/DTD/sodipodi-0.dtd"
   xmlns:inkscape="http://www.inkscape.org/namespaces/inkscape"
   version="1.1"
   width="32px"
   height="32px"
   id="svg2"
   inkscape:version="0.91 r13725"
   sodipodi:docname="cup.svg">
  <metadata
     id="metadata12">
    <rdf:RDF>
      <cc:Work
         rdf:about="">
        <dc:format>image/svg+xml</dc:format>
        <dc:type
           rdf:resource="http://purl.org/dc/dcmitype/StillImage" />
      </cc:Work>
    </rdf:RDF>
  </metadata>
  <defs
     id="defs10" />
  <sodipodi:namedview
     pagecolor="#ffffff"
     bordercolor="#666666"
     borderopacity="1"
     objecttolerance="10"
     gridtolerance="10"
     guidetolerance="10"
     inkscape:pageopacity="0"
     inkscape:pageshadow="2"
     inkscape:window-width="1280"
     inkscape:window-height="972"
     id="namedview8"
     showgrid="false"
     inkscape:zoom="7.375"
     inkscape:cx="-0.20338983"
     inkscape:cy="16"
     inkscape:window-x="-8"
     inkscape:window-y="-8"
     inkscape:window-maximized="1"
     inkscape:current-layer="svg2" />
  <g
     id="g4"
     transform="matrix(0.01333333,0,0,-0.01333333,-3,22.666667)" />
  <path
     d="m 1.3333335,3.9999985 q 0,-0.5466667 0.3933333,-0.94 0.3933334,-0.3933333 0.94,-0.3933333 l 3.9999997,0 0,-2.6666667 18.6666675,0 0,2.6666667 4,0 q 0.546667,0 0.939999,0.3933333 0.393333,0.3933333 0.393333,0.94 0,2.6133333 -0.08,4.3466667 -0.08,1.7333338 -0.18,2.8133338 -0.1,1.08 -0.393332,1.873333 -0.293333,0.793333 -0.526667,1.186667 -0.233333,0.393333 -0.766666,1.086666 -1.106667,1.453334 -2.126667,2.313333 -1.02,0.86 -2.38,1.42 -1.493333,0.6 -3.14,0.913333 -1.646667,0.313334 -2.793333,-0.03333 -0.693334,1.293333 -0.946667,2.546667 l 0,1.533333 q 0,1.426667 1.039999,2.666667 l 1.626668,0 0,1.333333 1.333333,0 0,4 -10.666667,0 0,-4 1.333334,0 0,-1.333333 1.626666,0 q 1.04,-1.213334 1.04,-2.666667 l 0,-1.266666 q -0.293333,-1.266667 -1.226666,-2.746667 -2.12,0.106666 -4.0933345,-0.439999 -1.973333,-0.546671 -3.653333,-1.78667 -1.68,-1.240001 -2.76,-3.053333 -0.4666667,-0.786667 -0.78,-1.820001 -0.3133333,-1.033333 -0.4733333,-1.933333 -0.16,-0.9 -0.24,-2.3066668 -0.08,-1.4066667 -0.093333,-2.2333334 -0.013333,-0.8266666 -0.013333,-2.4133333 z m 2.6066667,4.0533333 q 0.046667,1.3333334 0.2133333,2.4800002 0.1666667,1.146667 0.7666667,2.32 0.6,1.173334 1.6266663,2.226667 0.733334,0.586667 1.193334,0.9 0.46,0.313332 1.44,0.679999 0.9800005,0.366667 2.2600005,0.553334 -1.013334,-1.306666 -1.5666675,-2.06 -0.553333,-0.753333 -1.28,-1.966667 -0.726667,-1.213333 -1.14,-2.32 -0.546667,-1.4399998 -0.666667,-2.3733332 -0.12,-0.9333333 -0.12,-2.68 l 0,-0.48 -2.7066663,0 q -0.066667,1.3866667 -0.02,2.72 z M 20.093334,17.266666 q 1.813333,-0.146668 3.1,-0.660001 1.286667,-0.513334 2.286667,-1.526666 1.213333,-1.2 1.886665,-2.806667 0.673335,-1.606667 0.673335,-4.2733335 0,-0.32 -0.01333,-1.3066667 -0.01334,-0.9866666 -0.01334,-1.36 l -2.68,0 q 0,0.2933334 0.0067,0.9866667 0.0067,0.6933333 0,0.9266667 -0.0067,0.2333333 -0.03337,0.76 -0.02667,0.5266666 -0.09333,0.8066666 -0.06667,0.28 -0.18,0.7333334 -0.113331,0.4533333 -0.299998,0.8799998 -0.186667,0.426667 -0.439999,0.933334 -0.346667,0.679999 -0.726668,1.306666 -0.38,0.626667 -0.873332,1.293334 -0.493333,0.666667 -0.793334,1.053333 -0.3,0.386666 -0.94,1.179999 -0.64,0.793334 -0.866667,1.073334 z"
     id="path6"
     inkscape:connector-curvature="0" />
</svg>
