<?xml version="1.0" encoding="UTF-8" standalone="no"?>
<!-- Created with Inkscape (http://www.inkscape.org/) -->

<svg
   xmlns:dc="http://purl.org/dc/elements/1.1/"
   xmlns:cc="http://creativecommons.org/ns#"
   xmlns:rdf="http://www.w3.org/1999/02/22-rdf-syntax-ns#"
   xmlns:svg="http://www.w3.org/2000/svg"
   xmlns="http://www.w3.org/2000/svg"
   xmlns:sodipodi="http://sodipodi.sourceforge.net/DTD/sodipodi-0.dtd"
   xmlns:inkscape="http://www.inkscape.org/namespaces/inkscape"
   width="32px"
   height="32px"
   id="svg3096"
   version="1.1"
   inkscape:version="0.91 r13725"
   sodipodi:docname="dashed.svg">
  <defs
     id="defs3098" />
  <sodipodi:namedview
     id="base"
     pagecolor="#ffffff"
     bordercolor="#666666"
     borderopacity="1.0"
     inkscape:pageopacity="0.0"
     inkscape:pageshadow="2"
     inkscape:zoom="11.197802"
     inkscape:cx="-5.3434744"
     inkscape:cy="16"
     inkscape:current-layer="layer1"
     showgrid="true"
     inkscape:grid-bbox="true"
     inkscape:document-units="px"
     inkscape:window-width="1280"
     inkscape:window-height="972"
     inkscape:window-x="-8"
     inkscape:window-y="-8"
     inkscape:window-maximized="1" />
  <metadata
     id="metadata3101">
    <rdf:RDF>
      <cc:Work
         rdf:about="">
        <dc:format>image/svg+xml</dc:format>
        <dc:type
           rdf:resource="http://purl.org/dc/dcmitype/StillImage" />
        <dc:title />
      </cc:Work>
    </rdf:RDF>
  </metadata>
  <g
     id="layer1"
     inkscape:label="Layer 1"
     inkscape:groupmode="layer">
    <path
       style="fill:#000000"
       d="M 1.7864584,13.333333 C 0.7969784,13.333333 0,14.130311 0,15.119791 l 0,1.760416 c 0,0.98948 0.7969784,1.786459 1.7864584,1.786459 l 4.4270836,0 C 7.203022,18.666666 8,17.869687 8,16.880207 L 8,15.119791 C 8,14.130311 7.203022,13.333333 6.213542,13.333333 l -4.4270836,0 z m 12.0000006,0 C 12.796979,13.333333 12,14.130311 12,15.119791 l 0,1.760416 c 0,0.98948 0.796979,1.786459 1.786459,1.786459 l 4.427082,0 C 19.203021,18.666666 20,17.869687 20,16.880207 l 0,-1.760416 c 0,-0.98948 -0.796979,-1.786458 -1.786459,-1.786458 l -4.427082,0 z m 12,0 C 24.796979,13.333333 24,14.130311 24,15.119791 l 0,1.760416 c 0,0.98948 0.796979,1.786459 1.786459,1.786459 l 4.427082,0 C 31.203021,18.666666 32,17.869687 32,16.880207 l 0,-1.760416 c 0,-0.98948 -0.796979,-1.786458 -1.786459,-1.786458 l -4.427082,0 z"
       id="rect2984"
       inkscape:connector-curvature="0" />
  </g>
</svg>
