<?xml version="1.0" encoding="UTF-8" standalone="no"?>
<svg
   xmlns:dc="http://purl.org/dc/elements/1.1/"
   xmlns:cc="http://creativecommons.org/ns#"
   xmlns:rdf="http://www.w3.org/1999/02/22-rdf-syntax-ns#"
   xmlns:svg="http://www.w3.org/2000/svg"
   xmlns="http://www.w3.org/2000/svg"
   xmlns:sodipodi="http://sodipodi.sourceforge.net/DTD/sodipodi-0.dtd"
   xmlns:inkscape="http://www.inkscape.org/namespaces/inkscape"
   version="1.1"
   width="32px"
   height="32px"
   id="svg2"
   inkscape:version="0.91 r13725"
   sodipodi:docname="dashboard.svg">
  <metadata
     id="metadata12">
    <rdf:RDF>
      <cc:Work
         rdf:about="">
        <dc:format>image/svg+xml</dc:format>
        <dc:type
           rdf:resource="http://purl.org/dc/dcmitype/StillImage" />
      </cc:Work>
    </rdf:RDF>
  </metadata>
  <defs
     id="defs10" />
  <sodipodi:namedview
     pagecolor="#ffffff"
     bordercolor="#666666"
     borderopacity="1"
     objecttolerance="10"
     gridtolerance="10"
     guidetolerance="10"
     inkscape:pageopacity="0"
     inkscape:pageshadow="2"
     inkscape:window-width="1280"
     inkscape:window-height="972"
     id="namedview8"
     showgrid="false"
     inkscape:zoom="7.375"
     inkscape:cx="-0.20338983"
     inkscape:cy="16"
     inkscape:window-x="-8"
     inkscape:window-y="-8"
     inkscape:window-maximized="1"
     inkscape:current-layer="svg2" />
  <g
     id="g4"
     transform="matrix(0.01355932,0,0,-0.01355932,-1.7932203,22.40339)" />
  <path
     d="M 0,16 Q 0,13.830508 0.5762712,11.755932 1.1525424,9.6813559 2.1830508,7.9254237 3.2135593,6.1694915 4.6915254,4.6915254 6.169492,3.2135593 7.925424,2.1830508 9.681356,1.1525424 11.755932,0.5762712 13.830508,0 16,0 q 2.169492,0 4.244068,0.5762712 2.074576,0.5762712 3.830508,1.6067796 1.755932,1.0305085 3.233899,2.5084746 1.477966,1.4779661 2.508474,3.2338983 1.030509,1.7559322 1.60678,3.8305083 Q 32,13.830508 32,16 q 0,2.169492 -0.576271,4.244068 -0.576271,2.074576 -1.60678,3.830508 -1.030508,1.755932 -2.508474,3.233899 -1.477967,1.477966 -3.233899,2.508474 -1.755932,1.030509 -3.830508,1.60678 Q 18.169492,32 16,32 13.830508,32 11.755932,31.423729 9.681356,30.847458 7.925424,29.816949 6.169492,28.786441 4.6915254,27.308475 3.2135593,25.830508 2.1830508,24.074576 1.1525424,22.318644 0.5762712,20.244068 0,18.169492 0,16 Z m 3.4711864,0 q 0,2.535593 0.9966102,4.861017 0.9966102,2.325424 2.6711864,4 1.674576,1.674576 4,2.671186 2.325424,0.996611 4.861017,0.996611 2.549153,0 4.867797,-0.996611 2.318644,-0.99661 4,-2.671186 1.681356,-1.674576 2.671186,-3.99322 Q 28.528814,18.549153 28.528814,16 q 0,-2.549152 -0.989831,-4.867797 -0.98983,-2.3186437 -2.671186,-3.9999996 -1.681356,-1.6813559 -4,-2.6711865 Q 18.549153,3.4711864 16,3.4711864 q -2.549153,0 -4.867797,0.9898305 Q 8.813559,5.4508475 7.138983,7.1322034 5.4644068,8.8135593 4.4677966,11.132203 3.4711864,13.450848 3.4711864,16 Z M 5.179661,14.671186 q 0,-0.555932 0.4,-0.955932 0.4,-0.4 0.955932,-0.4 0.555932,0 0.955932,0.4 0.4,0.4 0.4,0.955932 0,0.555933 -0.4,0.955933 -0.4,0.4 -0.955932,0.4 -0.555932,0 -0.955932,-0.4 -0.4,-0.4 -0.4,-0.955933 z M 6.535593,10.60339 q 0,-0.555932 0.4,-0.9559324 0.4,-0.4 0.955932,-0.4 0.555933,0 0.955933,0.4 0.4,0.4000004 0.4,0.9559324 0,0.555932 -0.4,0.955932 -0.4,0.4 -0.955933,0.4 -0.555932,0 -0.955932,-0.4 -0.4,-0.4 -0.4,-0.955932 z m 0.379661,12.20339 5.342373,0 Q 13.844068,24.325424 16,24.325424 q 2.169492,0 3.728814,-1.518644 l 5.355932,0 Q 23.498305,24.922034 21.118644,26.149153 18.738983,27.376271 16,27.376271 q -2.738983,0 -5.118644,-1.227118 Q 8.501695,24.922034 6.915254,22.80678 Z M 10.60339,7.8915254 q 0,-0.5559322 0.4,-0.9559322 0.4,-0.4 0.955932,-0.4 0.555932,0 0.955932,0.4 0.4,0.4 0.4,0.9559322 0,0.5559322 -0.4,0.9559322 -0.4,0.4 -0.955932,0.4 -0.555932,0 -0.955932,-0.4 -0.4,-0.4 -0.4,-0.9559322 z m 2.901695,11.0644066 q 0,-0.922034 0.58983,-1.613559 0.589831,-0.691526 1.484746,-0.840678 l 3.715254,-5.437288 q 0.20339,-0.271187 0.447458,-0.149153 0.244068,0.122034 0.149152,0.447458 l -1.871186,6.142373 q 0.474576,0.677966 0.474576,1.450847 0,1.030509 -0.732203,1.762712 Q 17.030508,21.450847 16,21.450847 q -1.030508,0 -1.762712,-0.732203 -0.732203,-0.732203 -0.732203,-1.762712 z M 14.671186,6.5355932 q 0,-0.5559322 0.4,-0.9559322 0.4,-0.4 0.955933,-0.4 0.555932,0 0.955932,0.4 0.4,0.4 0.4,0.9559322 0,0.5559322 -0.4,0.9559322 -0.4,0.4 -0.955932,0.4 -0.555933,0 -0.955933,-0.4 -0.4,-0.4 -0.4,-0.9559322 z m 4.067797,1.3559322 q 0,-0.5559322 0.4,-0.9559322 0.4,-0.4 0.955932,-0.4 0.555932,0 0.955932,0.4 0.4,0.4 0.4,0.9559322 0,0.5559322 -0.4,0.9559322 -0.4,0.4 -0.955932,0.4 -0.555932,0 -0.955932,-0.4 -0.4,-0.4 -0.4,-0.9559322 z M 22.80678,10.60339 q 0,-0.555932 0.4,-0.9559324 0.4,-0.4 0.955932,-0.4 0.555932,0 0.955932,0.4 0.4,0.4000004 0.4,0.9559324 0,0.555932 -0.4,0.955932 -0.4,0.4 -0.955932,0.4 -0.555932,0 -0.955932,-0.4 -0.4,-0.4 -0.4,-0.955932 z m 1.355932,4.067796 q 0,-0.555932 0.4,-0.955932 0.4,-0.4 0.955932,-0.4 0.555932,0 0.955932,0.4 0.4,0.4 0.4,0.955932 0,0.555933 -0.4,0.955933 -0.4,0.4 -0.955932,0.4 -0.555932,0 -0.955932,-0.4 -0.4,-0.4 -0.4,-0.955933 z"
     id="path6"
     inkscape:connector-curvature="0" />
</svg>
