<?xml version="1.0" encoding="UTF-8" standalone="no"?>
<svg
   xmlns:dc="http://purl.org/dc/elements/1.1/"
   xmlns:cc="http://creativecommons.org/ns#"
   xmlns:rdf="http://www.w3.org/1999/02/22-rdf-syntax-ns#"
   xmlns:svg="http://www.w3.org/2000/svg"
   xmlns="http://www.w3.org/2000/svg"
   xmlns:sodipodi="http://sodipodi.sourceforge.net/DTD/sodipodi-0.dtd"
   xmlns:inkscape="http://www.inkscape.org/namespaces/inkscape"
   version="1.1"
   width="32px"
   height="32px"
   id="svg2"
   inkscape:version="0.91 r13725"
   sodipodi:docname="database_minus.svg">
  <metadata
     id="metadata12">
    <rdf:RDF>
      <cc:Work
         rdf:about="">
        <dc:format>image/svg+xml</dc:format>
        <dc:type
           rdf:resource="http://purl.org/dc/dcmitype/StillImage" />
      </cc:Work>
    </rdf:RDF>
  </metadata>
  <defs
     id="defs10" />
  <sodipodi:namedview
     pagecolor="#ffffff"
     bordercolor="#666666"
     borderopacity="1"
     objecttolerance="10"
     gridtolerance="10"
     guidetolerance="10"
     inkscape:pageopacity="0"
     inkscape:pageshadow="2"
     inkscape:window-width="1280"
     inkscape:window-height="972"
     id="namedview8"
     showgrid="false"
     inkscape:zoom="7.375"
     inkscape:cx="-0.20338983"
     inkscape:cy="16"
     inkscape:window-x="-8"
     inkscape:window-y="-8"
     inkscape:window-maximized="1"
     inkscape:current-layer="svg2" />
  <g
     id="g4"
     transform="matrix(0.01185185,0,0,-0.01185185,-0.46296296,26.537037)" />
  <path
     d="m 0,29.62963 0,-3.555556 q 0,-0.165926 0.1422222,-0.391111 0.8414815,0.50963 2.1570371,0.859259 1.3155555,0.34963 2.7081481,0.485926 1.3925926,0.136296 2.2637037,0.183704 0.8711109,0.04741 1.6177779,0.04741 0.746667,0 1.617778,-0.04741 0.871111,-0.04741 2.263703,-0.183704 1.392593,-0.136296 2.708149,-0.485926 1.315555,-0.349629 2.157037,-0.859259 0.142222,0.225185 0.142222,0.391111 l 0,3.555556 q 0,0.651851 -1.191111,1.197037 -1.191111,0.545185 -3.235556,0.859259 Q 11.306667,32 8.888889,32 6.4711111,32 4.4266667,31.685926 2.3822222,31.371852 1.1911111,30.826667 0,30.281481 0,29.62963 Z m 0,-5.925926 0,-3.555556 q 0,-0.165926 0.1422222,-0.391111 0.8414815,0.50963 2.1570371,0.859259 1.3155555,0.34963 2.7081481,0.485926 1.3925926,0.136297 2.2637037,0.183704 0.8711109,0.04741 1.6177779,0.04741 0.746667,0 1.617778,-0.04741 0.871111,-0.04741 2.263703,-0.183704 1.392593,-0.136296 2.708149,-0.485926 1.315555,-0.349629 2.157037,-0.859259 0.142222,0.225185 0.142222,0.391111 l 0,3.555556 q 0,0.651852 -1.191111,1.197037 -1.191111,0.545185 -3.235556,0.859259 -2.044444,0.314074 -4.462222,0.314074 -2.4177779,0 -4.4622223,-0.314074 Q 2.3822222,25.445926 1.1911111,24.900741 0,24.355556 0,23.703704 Z M 0,17.777778 0,14.222222 Q 0,14.056296 0.1422222,13.831111 0.9837037,14.340741 2.2992593,14.69037 3.6148148,15.04 5.0074074,15.176296 6.4,15.312593 7.2711111,15.36 q 0.8711109,0.04741 1.6177779,0.04741 0.746667,0 1.617778,-0.04741 0.871111,-0.04741 2.263703,-0.183704 1.392593,-0.136296 2.708149,-0.485926 1.315555,-0.349629 2.157037,-0.859259 0.142222,0.225185 0.142222,0.391111 l 0,3.555556 q 0,0.64 -1.191111,1.185185 -1.191111,0.545185 -3.235556,0.865185 -2.044444,0.32 -4.462222,0.32 -2.4177779,0 -4.4622223,-0.32 -2.0444445,-0.32 -3.2355556,-0.865185 Q 0,18.417778 0,17.777778 Z M 0,11.851852 0,8.2962963 q 0,-0.64 1.1911111,-1.1851852 1.1911111,-0.5451852 3.2355556,-0.8651852 2.0444444,-0.32 4.4622223,-0.32 2.417778,0 4.462222,0.32 2.044445,0.32 3.235556,0.8651852 1.191111,0.5451852 1.191111,1.1851852 l 0,3.5555557 q 0,0.64 -1.191111,1.185185 -1.191111,0.545185 -3.235556,0.865185 -2.044444,0.32 -4.462222,0.32 -2.4177779,0 -4.4622223,-0.32 -2.0444445,-0.32 -3.2355556,-0.865185 Q 0,12.491852 0,11.851852 Z M 5.0607407,7.7037037 q 0,0.32 1.12,0.5451852 1.12,0.2251852 2.7081483,0.2251852 1.588148,0 2.708148,-0.2251852 1.12,-0.2251852 1.12,-0.5451852 0,-0.32 -1.12,-0.5451852 -1.12,-0.2251852 -2.708148,-0.2251852 -1.5881483,0 -2.7081483,0.2251852 -1.12,0.2251852 -1.12,0.5451852 z M 20.148148,5.9259259 Q 20.148148,4.5037037 20.61037,3.36 21.072593,2.2162963 21.884444,1.4933333 22.696296,0.7703704 23.762963,0.3851852 24.82963,0 26.074074,0 q 1.197037,0 2.299259,0.5037037 1.102223,0.5037037 1.896297,1.3451852 0.794074,0.8414815 1.262222,1.9733333 Q 32,4.9540741 32,6.162963 q 0,1.6 -0.794074,2.9096296 -0.794074,1.3096294 -2.151111,2.0444444 -1.357037,0.734815 -2.980741,0.734815 -1.244444,0 -2.311111,-0.385185 Q 22.696296,11.081482 21.884444,10.358518 21.072593,9.6355556 20.61037,8.4918519 20.148148,7.3481481 20.148148,5.9259259 Z m 2.370371,0.5925926 q 0,0.2488889 0.177777,0.4207408 0.177778,0.1718518 0.414815,0.1718518 l 5.925926,0 q 0.248889,0 0.420741,-0.1718518 0.171852,-0.1718519 0.171852,-0.4207408 l 0,-1.1851852 q 0,-0.237037 -0.171852,-0.4148148 -0.171852,-0.1777778 -0.420741,-0.1777778 l -5.925926,0 q -0.237037,0 -0.414815,0.1777778 -0.177777,0.1777778 -0.177777,0.4148148 l 0,1.1851852 z"
     id="path6"
     inkscape:connector-curvature="0" />
</svg>
