<?xml version="1.0" encoding="UTF-8" standalone="no"?>
<svg
   xmlns:dc="http://purl.org/dc/elements/1.1/"
   xmlns:cc="http://creativecommons.org/ns#"
   xmlns:rdf="http://www.w3.org/1999/02/22-rdf-syntax-ns#"
   xmlns:svg="http://www.w3.org/2000/svg"
   xmlns="http://www.w3.org/2000/svg"
   xmlns:sodipodi="http://sodipodi.sourceforge.net/DTD/sodipodi-0.dtd"
   xmlns:inkscape="http://www.inkscape.org/namespaces/inkscape"
   version="1.1"
   width="32px"
   height="32px"
   id="svg2"
   inkscape:version="0.91 r13725"
   sodipodi:docname="database_lock.svg">
  <metadata
     id="metadata12">
    <rdf:RDF>
      <cc:Work
         rdf:about="">
        <dc:format>image/svg+xml</dc:format>
        <dc:type
           rdf:resource="http://purl.org/dc/dcmitype/StillImage" />
      </cc:Work>
    </rdf:RDF>
  </metadata>
  <defs
     id="defs10" />
  <sodipodi:namedview
     pagecolor="#ffffff"
     bordercolor="#666666"
     borderopacity="1"
     objecttolerance="10"
     gridtolerance="10"
     guidetolerance="10"
     inkscape:pageopacity="0"
     inkscape:pageshadow="2"
     inkscape:window-width="1280"
     inkscape:window-height="972"
     id="namedview8"
     showgrid="false"
     inkscape:zoom="7.375"
     inkscape:cx="-0.20338983"
     inkscape:cy="16"
     inkscape:window-x="-8"
     inkscape:window-y="-8"
     inkscape:window-maximized="1"
     inkscape:current-layer="svg2" />
  <g
     id="g4"
     transform="matrix(0.01142857,0,0,-0.01142857,-0.42857143,27.714286)" />
  <path
     d="m 1.142858,29.714286 0,-3.428572 q 0,-0.16 0.1371429,-0.377143 0.8114285,0.491429 2.08,0.828572 1.2685714,0.337143 2.6114285,0.468571 1.3428572,0.131429 2.1828576,0.177143 0.84,0.04571 1.56,0.04571 0.72,0 1.56,-0.04571 0.84,-0.04571 2.182857,-0.177143 1.342857,-0.131428 2.611428,-0.468571 1.268572,-0.337143 2.08,-0.828572 0.137143,0.217143 0.137143,0.377143 l 0,3.428572 q 0,0.628571 -1.148571,1.154285 -1.148572,0.525715 -3.12,0.828572 Q 12.045715,32 9.714287,32 7.382858,32 5.4114294,31.697143 3.4400009,31.394286 2.2914294,30.868571 1.142858,30.342857 1.142858,29.714286 Z m 0,-5.714286 0,-3.428571 q 0,-0.16 0.1371429,-0.377143 0.8114285,0.491428 2.08,0.828571 1.2685714,0.337143 2.6114285,0.468572 1.3428572,0.131428 2.1828576,0.177142 0.84,0.04572 1.56,0.04572 0.72,0 1.56,-0.04572 0.84,-0.04571 2.182857,-0.177142 1.342857,-0.131429 2.611428,-0.468572 1.268572,-0.337143 2.08,-0.828571 0.137143,0.217143 0.137143,0.377143 l 0,3.428571 q 0,0.628571 -1.148571,1.154286 -1.148572,0.525714 -3.12,0.828571 -1.971429,0.302857 -4.302857,0.302857 -2.331429,0 -4.3028576,-0.302857 Q 3.4400009,25.68 2.2914294,25.154286 1.142858,24.628571 1.142858,24 Z m 0,-5.714286 0,-3.428571 q 0,-0.16 0.1371429,-0.377143 0.8114285,0.491429 2.08,0.828571 1.2685714,0.337143 2.6114285,0.468572 1.3428572,0.131428 2.1828576,0.177143 0.84,0.04571 1.56,0.04571 0.72,0 1.56,-0.04571 0.84,-0.04571 2.182857,-0.177143 1.342857,-0.131433 2.611428,-0.468576 1.268572,-0.337142 2.08,-0.828571 0.137143,0.217143 0.137143,0.377143 l 0,3.428571 q 0,0.628572 -1.148571,1.154286 -1.148572,0.525714 -3.12,0.828571 -1.971429,0.302858 -4.302857,0.302858 -2.331429,0 -4.3028576,-0.302858 Q 3.4400009,19.965714 2.2914294,19.44 1.142858,18.914286 1.142858,18.285714 Z m 0,-5.714285 0,-3.4285719 Q 1.142858,8.5257143 2.2914294,8 3.4400009,7.4742857 5.4114294,7.1657143 7.382858,6.8571429 9.714287,6.8571429 q 2.331428,0 4.302857,0.3085714 1.971428,0.3085714 3.12,0.8342857 1.148571,0.5257143 1.148571,1.1428571 l 0,3.4285719 q 0,0.628571 -1.148571,1.154285 -1.148572,0.525715 -3.12,0.828572 -1.971429,0.302857 -4.302857,0.302857 -2.331429,0 -4.3028576,-0.302857 -1.9714285,-0.302857 -3.12,-0.828572 Q 1.142858,13.2 1.142858,12.571429 Z m 4.88,-4.0000004 q 0,0.3085714 1.08,0.5257143 1.08,0.2171428 2.611429,0.2171428 1.531428,0 2.611428,-0.2171428 1.08,-0.2171429 1.08,-0.5257143 0,-0.3085715 -1.08,-0.5257143 -1.08,-0.2171429 -2.611428,-0.2171429 -1.531429,0 -2.611429,0.2171429 -1.08,0.2171428 -1.08,0.5257143 z m 15.691429,2.6742854 0,-6.4685711 q 0,-0.068572 0.05714,-0.1371429 0.05714,-0.068571 0.137143,-0.068571 l 0.948572,0 0,-2.9142857 q 0,-0.64 0.497143,-1.1485715 Q 23.851429,0 24.480001,0 l 3.577143,0 q 0.628571,0 1.142857,0.5142857 0.514286,0.5142857 0.514286,1.1428572 l 0,2.9142857 0.925714,0 q 0.08,0 0.148571,0.068571 0.06857,0.068572 0.06857,0.1371433 l 0,6.4685711 q 0,0.06857 -0.06857,0.125715 -0.06857,0.05714 -0.148571,0.05714 l -8.731429,0 q -0.08,0 -0.137143,-0.05714 -0.05714,-0.05714 -0.05714,-0.125715 z m 2.285714,-6.6742854 4.571428,0 0,-2.9142857 q 0,-0.2857143 -0.125714,-0.4 -0.125714,-0.1142858 -0.411428,-0.1142858 l -3.542858,0 q -0.285714,0 -0.388571,0.1085715 Q 24.000001,1.36 24.000001,1.6571429 l 0,2.9142857 z"
     id="path6"
     inkscape:connector-curvature="0" />
</svg>
