<?xml version="1.0" encoding="UTF-8" standalone="no"?>
<svg
   xmlns:dc="http://purl.org/dc/elements/1.1/"
   xmlns:cc="http://creativecommons.org/ns#"
   xmlns:rdf="http://www.w3.org/1999/02/22-rdf-syntax-ns#"
   xmlns:svg="http://www.w3.org/2000/svg"
   xmlns="http://www.w3.org/2000/svg"
   xmlns:sodipodi="http://sodipodi.sourceforge.net/DTD/sodipodi-0.dtd"
   xmlns:inkscape="http://www.inkscape.org/namespaces/inkscape"
   version="1.1"
   width="32px"
   height="32px"
   id="svg2"
   inkscape:version="0.91 r13725"
   sodipodi:docname="database_ban.svg">
  <metadata
     id="metadata12">
    <rdf:RDF>
      <cc:Work
         rdf:about="">
        <dc:format>image/svg+xml</dc:format>
        <dc:type
           rdf:resource="http://purl.org/dc/dcmitype/StillImage" />
      </cc:Work>
    </rdf:RDF>
  </metadata>
  <defs
     id="defs10" />
  <sodipodi:namedview
     pagecolor="#ffffff"
     bordercolor="#666666"
     borderopacity="1"
     objecttolerance="10"
     gridtolerance="10"
     guidetolerance="10"
     inkscape:pageopacity="0"
     inkscape:pageshadow="2"
     inkscape:window-width="1280"
     inkscape:window-height="972"
     id="namedview8"
     showgrid="false"
     inkscape:zoom="7.375"
     inkscape:cx="-0.20338983"
     inkscape:cy="16"
     inkscape:window-x="-8"
     inkscape:window-y="-8"
     inkscape:window-maximized="1"
     inkscape:current-layer="svg2" />
  <g
     id="g4"
     transform="matrix(0.01185185,0,0,-0.01185185,-0.55555556,26.537037)" />
  <path
     d="m 0.5925925,29.62963 0,-3.555556 q 0,-0.165926 0.1422222,-0.391111 0.8414815,0.50963 2.1570371,0.859259 1.3155555,0.34963 2.7081481,0.485926 1.3925926,0.136296 2.2637036,0.183704 0.871111,0.04741 1.617778,0.04741 0.7466665,0 1.6177775,-0.04741 0.871111,-0.04741 2.263703,-0.183704 1.392593,-0.136296 2.708149,-0.485926 1.315555,-0.349629 2.157037,-0.859259 0.142222,0.225185 0.142222,0.391111 l 0,3.555556 q 0,0.651851 -1.191111,1.197037 -1.191111,0.545185 -3.235556,0.859259 Q 11.899259,32 9.4814815,32 7.0637036,32 5.0192592,31.685926 2.9748147,31.371852 1.7837036,30.826667 0.5925925,30.281481 0.5925925,29.62963 Z m 0,-5.925926 0,-3.555556 q 0,-0.165926 0.1422222,-0.391111 0.8414815,0.50963 2.1570371,0.859259 1.3155555,0.34963 2.7081481,0.485926 1.3925926,0.136297 2.2637036,0.183704 0.871111,0.04741 1.617778,0.04741 0.7466665,0 1.6177775,-0.04741 0.871111,-0.04741 2.263703,-0.183704 1.392593,-0.136296 2.708149,-0.485926 1.315555,-0.349629 2.157037,-0.859259 0.142222,0.225185 0.142222,0.391111 l 0,3.555556 q 0,0.651852 -1.191111,1.197037 -1.191111,0.545185 -3.235556,0.859259 -2.044444,0.314074 -4.4622215,0.314074 -2.4177779,0 -4.4622223,-0.314074 Q 2.9748147,25.445926 1.7837036,24.900741 0.5925925,24.355556 0.5925925,23.703704 Z m 0,-5.925926 0,-3.555556 q 0,-0.165926 0.1422222,-0.391111 0.8414815,0.50963 2.1570371,0.859259 1.3155555,0.34963 2.7081481,0.485926 1.3925926,0.136297 2.2637036,0.183704 0.871111,0.04741 1.617778,0.04741 0.7466665,0 1.6177775,-0.04741 0.871111,-0.04741 2.263703,-0.183704 1.392593,-0.136296 2.708149,-0.485926 1.315555,-0.349629 2.157037,-0.859259 0.142222,0.225185 0.142222,0.391111 l 0,3.555556 q 0,0.651852 -1.191111,1.197037 -1.191111,0.545185 -3.235556,0.859259 -2.044444,0.314074 -4.4622215,0.314074 -2.4177779,0 -4.4622223,-0.314074 Q 2.9748147,19.52 1.7837036,18.974815 0.5925925,18.42963 0.5925925,17.777778 Z m 0,-5.925926 0,-3.5555557 q 0,-0.64 1.1911111,-1.1851852 1.1911111,-0.5451852 3.2355556,-0.8651852 2.0444444,-0.32 4.4622223,-0.32 2.4177775,0 4.4622215,0.32 2.044445,0.32 3.235556,0.8651852 1.191111,0.5451852 1.191111,1.1851852 l 0,3.5555557 q 0,0.651852 -1.191111,1.197037 -1.191111,0.545185 -3.235556,0.859259 -2.044444,0.314074 -4.4622215,0.314074 -2.4177779,0 -4.4622223,-0.314074 Q 2.9748147,13.594074 1.7837036,13.048889 0.5925925,12.503704 0.5925925,11.851852 Z M 5.6533332,7.7037037 q 0,0.32 1.12,0.5451852 1.1200003,0.2251852 2.7081483,0.2251852 1.5881485,0 2.7081475,-0.2251852 1.120001,-0.2251852 1.120001,-0.5451852 0,-0.32 -1.120001,-0.5392593 -1.12,-0.2192592 -2.7081475,-0.2192592 -1.588148,0 -2.7081483,0.2192592 -1.12,0.2192593 -1.12,0.5392593 z M 19.662222,5.8666667 q 0,-1.5881482 0.788148,-2.9392593 Q 21.238518,1.5762963 22.595555,0.7881481 23.952592,0 25.54074,0 q 1.588148,0 2.939259,0.7881481 1.351112,0.7881482 2.139261,2.1392593 0.788148,1.3511111 0.788148,2.9392593 0,1.6 -0.788148,2.9511111 -0.788148,1.3511112 -2.13926,2.1392592 -1.351111,0.788148 -2.939259,0.788148 -1.588148,0 -2.945185,-0.788148 Q 21.238518,10.168889 20.45037,8.8177778 19.662222,7.4666667 19.662222,5.8666667 Z m 1.469629,0 q 0,1.2562963 0.687408,2.3466666 L 27.887408,2.157037 q -1.078519,-0.6874074 -2.346667,-0.6874074 -1.825186,0 -3.117037,1.2918519 -1.291852,1.2918518 -1.291852,3.1051852 z m 2.062222,3.7214814 q 1.090371,0.6874079 2.346667,0.6874079 1.825185,0 3.111111,-1.2918523 1.285926,-1.2918518 1.285926,-3.117037 0,-1.2562963 -0.675555,-2.3466667 z"
     id="path6"
     inkscape:connector-curvature="0" />
</svg>
