<?xml version="1.0" encoding="UTF-8" standalone="no"?>
<svg
   xmlns:dc="http://purl.org/dc/elements/1.1/"
   xmlns:cc="http://creativecommons.org/ns#"
   xmlns:rdf="http://www.w3.org/1999/02/22-rdf-syntax-ns#"
   xmlns:svg="http://www.w3.org/2000/svg"
   xmlns="http://www.w3.org/2000/svg"
   xmlns:sodipodi="http://sodipodi.sourceforge.net/DTD/sodipodi-0.dtd"
   xmlns:inkscape="http://www.inkscape.org/namespaces/inkscape"
   version="1.1"
   width="32px"
   height="32px"
   id="svg2"
   inkscape:version="0.91 r13725"
   sodipodi:docname="delete.svg">
  <metadata
     id="metadata12">
    <rdf:RDF>
      <cc:Work
         rdf:about="">
        <dc:format>image/svg+xml</dc:format>
        <dc:type
           rdf:resource="http://purl.org/dc/dcmitype/StillImage" />
      </cc:Work>
    </rdf:RDF>
  </metadata>
  <defs
     id="defs10" />
  <sodipodi:namedview
     pagecolor="#ffffff"
     bordercolor="#666666"
     borderopacity="1"
     objecttolerance="10"
     gridtolerance="10"
     guidetolerance="10"
     inkscape:pageopacity="0"
     inkscape:pageshadow="2"
     inkscape:window-width="1280"
     inkscape:window-height="972"
     id="namedview8"
     showgrid="false"
     inkscape:zoom="7.375"
     inkscape:cx="-0.20338983"
     inkscape:cy="16"
     inkscape:window-x="-8"
     inkscape:window-y="-8"
     inkscape:window-maximized="1"
     inkscape:current-layer="svg2" />
  <g
     id="g4"
     transform="matrix(0.01251434,0,0,-0.01251418,1.1573102,18.868621)" />
  <path
     d="M 8.3429222e-4,15.380548 Q 0.01334829,15.111494 0.20106369,14.936295 L 9.762019,5.3629502 l 20.986547,0 q 0.513088,0 0.882261,0.3691682 Q 32,6.1012866 32,6.6143679 l 0,18.7712641 q 0,0.513082 -0.369173,0.88225 -0.369173,0.369168 -0.882261,0.369168 l -20.986547,0 L 0.16352069,15.837316 Q -0.01168001,15.649603 8.3429222e-4,15.380548 Z M 14.129523,19.428885 q 0,0.225255 0.162687,0.387939 l 2.27761,2.27758 q 0.162687,0.162684 0.387945,0.162684 0.225258,0 0.387944,-0.162684 l 3.091042,-3.091001 3.091041,3.091001 q 0.162687,0.162684 0.387945,0.162684 0.225258,0 0.387944,-0.162684 l 2.27761,-2.27758 q 0.162687,-0.162684 0.162687,-0.387939 0,-0.225256 -0.162687,-0.38794 l -3.091042,-3.091001 3.091042,-3.091002 q 0.162687,-0.162684 0.162687,-0.387939 0,-0.225256 -0.162687,-0.38794 l -2.27761,-2.2775802 q -0.162686,-0.1626843 -0.387944,-0.1626843 -0.225258,0 -0.387945,0.1626843 L 20.436751,12.896485 17.333195,9.8054828 q -0.162686,-0.1626843 -0.381687,-0.1626843 -0.219001,0 -0.381688,0.1626843 l -2.290125,2.2775802 q -0.150172,0.162684 -0.150172,0.381682 0,0.218999 0.150172,0.381683 l 3.103557,3.103516 -3.091042,3.103515 q -0.162687,0.15017 -0.162687,0.375426 z"
     id="path6"
     inkscape:connector-curvature="0" />
</svg>
