<?xml version="1.0" encoding="UTF-8" standalone="no"?>
<!-- Created with Inkscape (http://www.inkscape.org/) -->

<svg
   xmlns:dc="http://purl.org/dc/elements/1.1/"
   xmlns:cc="http://creativecommons.org/ns#"
   xmlns:rdf="http://www.w3.org/1999/02/22-rdf-syntax-ns#"
   xmlns:svg="http://www.w3.org/2000/svg"
   xmlns="http://www.w3.org/2000/svg"
   xmlns:sodipodi="http://sodipodi.sourceforge.net/DTD/sodipodi-0.dtd"
   xmlns:inkscape="http://www.inkscape.org/namespaces/inkscape"
   width="32px"
   height="32px"
   id="svg2985"
   version="1.1"
   inkscape:version="0.91 r13725"
   sodipodi:docname="diamond_cancelled.svg">
  <defs
     id="defs2987" />
  <sodipodi:namedview
     id="base"
     pagecolor="#ffffff"
     bordercolor="#666666"
     borderopacity="1.0"
     inkscape:pageopacity="0.0"
     inkscape:pageshadow="2"
     inkscape:zoom="15.836083"
     inkscape:cx="9.532688"
     inkscape:cy="16.41419"
     inkscape:current-layer="layer1"
     showgrid="true"
     inkscape:grid-bbox="true"
     inkscape:document-units="px"
     inkscape:window-width="1280"
     inkscape:window-height="972"
     inkscape:window-x="-8"
     inkscape:window-y="-8"
     inkscape:window-maximized="1">
    <inkscape:grid
       type="xygrid"
       id="grid2997" />
  </sodipodi:namedview>
  <metadata
     id="metadata2990">
    <rdf:RDF>
      <cc:Work
         rdf:about="">
        <dc:format>image/svg+xml</dc:format>
        <dc:type
           rdf:resource="http://purl.org/dc/dcmitype/StillImage" />
        <dc:title />
      </cc:Work>
    </rdf:RDF>
  </metadata>
  <g
     id="layer1"
     inkscape:label="Layer 1"
     inkscape:groupmode="layer">
    <path
       style="fill:#000000;fill-opacity:1"
       d="M 1.8461538,0 C 1.4115991,0 1.014328,0.167376 0.7307692,0.3846154 0.3145238,0.6044114 0,1.0655444 0,1.6153846 L 0,30.230769 c 0,0.295432 0.1280993,0.584148 0.2692308,0.807693 C 0.3980217,31.603626 1.0320121,32 1.8076923,32 l 28.4615387,0 c 0.188813,0 0.332616,-0.0305 0.5,-0.07692 0.05268,0 0.102954,-0.03136 0.153846,-0.03846 C 31.531012,31.79984 32,31.24064 32,30.538462 L 32,1.3846154 C 32,0.6236551 31.451077,0 30.769231,0 30.685671,0 30.617263,0.020916 30.538462,0.038461 30.448837,0.0263631 30.363521,0 30.269231,0 L 1.8461538,0 Z m 2.423077,2.3846154 25.2692312,0 0,25.5384616 -6,-6.038462 5.038461,-5 c 0.465509,-0.463347 0.463347,-1.226797 0,-1.692307 L 16.884615,3.4230769 C 16.652943,3.1903216 16.341513,3.0776288 16.038462,3.0769231 c -0.303052,-7.058e-4 -0.6134,0.11448 -0.846154,0.3461538 l -5,4.9615385 -5.9230772,-6 z M 2.4615385,4.2307692 8.384615,10.192308 3.4230769,15.115385 c -0.465509,0.463347 -0.4633459,1.226797 0,1.692307 L 15.115385,28.576923 c 0.463346,0.46551 1.226798,0.463348 1.692307,0 l 4.923077,-4.884615 5.846154,5.923077 -25.1153845,0 0,-25.3846158 z"
       id="rect2995"
       inkscape:connector-curvature="0" />
  </g>
</svg>
