<?xml version="1.0" encoding="UTF-8" standalone="no"?>
<svg
   xmlns:dc="http://purl.org/dc/elements/1.1/"
   xmlns:cc="http://creativecommons.org/ns#"
   xmlns:rdf="http://www.w3.org/1999/02/22-rdf-syntax-ns#"
   xmlns:svg="http://www.w3.org/2000/svg"
   xmlns="http://www.w3.org/2000/svg"
   xmlns:sodipodi="http://sodipodi.sourceforge.net/DTD/sodipodi-0.dtd"
   xmlns:inkscape="http://www.inkscape.org/namespaces/inkscape"
   version="1.1"
   width="32px"
   height="32px"
   id="svg2"
   inkscape:version="0.91 r13725"
   sodipodi:docname="direction.svg">
  <metadata
     id="metadata12">
    <rdf:RDF>
      <cc:Work
         rdf:about="">
        <dc:format>image/svg+xml</dc:format>
        <dc:type
           rdf:resource="http://purl.org/dc/dcmitype/StillImage" />
      </cc:Work>
    </rdf:RDF>
  </metadata>
  <defs
     id="defs10" />
  <sodipodi:namedview
     pagecolor="#ffffff"
     bordercolor="#666666"
     borderopacity="1"
     objecttolerance="10"
     gridtolerance="10"
     guidetolerance="10"
     inkscape:pageopacity="0"
     inkscape:pageshadow="2"
     inkscape:window-width="1280"
     inkscape:window-height="972"
     id="namedview8"
     showgrid="false"
     inkscape:zoom="7.375"
     inkscape:cx="-0.20338983"
     inkscape:cy="16"
     inkscape:window-x="-8"
     inkscape:window-y="-8"
     inkscape:window-maximized="1"
     inkscape:current-layer="svg2" />
  <g
     id="g4"
     transform="matrix(0.01281155,0,0,-0.01281183,0.48207391,23.209939)" />
  <path
     d="m 0.02157557,15.931281 q 0.051246,-0.06406 0.2049848,-0.14093 L 31.640474,0.36491 q 0.230608,-0.1281183 0.320289,-0.038435 0.08968,0.089682 -0.02562,0.3202957 L 15.882273,31.48484 q -0.256231,0.48685 -0.320289,-0.07687 l 0,-15.335757 -15.27136293,0 q -0.1793616,0 -0.2498251,-0.03844 -0.070464,-0.03843 -0.019217,-0.102494 z M 10.834521,13.266421 q 0.02562,0.243424 0.281854,0.243424 l 6.354528,0 q 0.3331,0 1.101793,-0.730274 l 8.763099,-7.7767802 q 0.179361,-0.1921775 0.134521,-0.2370189 -0.04484,-0.044841 -0.275448,0.070465 L 11.052317,12.90769 q -0.243419,0.115306 -0.217796,0.358731 z"
     id="path6"
     inkscape:connector-curvature="0" />
</svg>
