<?xml version="1.0" encoding="UTF-8" standalone="no"?>
<svg
   xmlns:dc="http://purl.org/dc/elements/1.1/"
   xmlns:cc="http://creativecommons.org/ns#"
   xmlns:rdf="http://www.w3.org/1999/02/22-rdf-syntax-ns#"
   xmlns:svg="http://www.w3.org/2000/svg"
   xmlns="http://www.w3.org/2000/svg"
   xmlns:sodipodi="http://sodipodi.sourceforge.net/DTD/sodipodi-0.dtd"
   xmlns:inkscape="http://www.inkscape.org/namespaces/inkscape"
   version="1.1"
   width="32px"
   height="32px"
   id="svg2"
   inkscape:version="0.91 r13725"
   sodipodi:docname="disk_import.svg">
  <metadata
     id="metadata12">
    <rdf:RDF>
      <cc:Work
         rdf:about="">
        <dc:format>image/svg+xml</dc:format>
        <dc:type
           rdf:resource="http://purl.org/dc/dcmitype/StillImage" />
      </cc:Work>
    </rdf:RDF>
  </metadata>
  <defs
     id="defs10" />
  <sodipodi:namedview
     pagecolor="#ffffff"
     bordercolor="#666666"
     borderopacity="1"
     objecttolerance="10"
     gridtolerance="10"
     guidetolerance="10"
     inkscape:pageopacity="0"
     inkscape:pageshadow="2"
     inkscape:window-width="1280"
     inkscape:window-height="972"
     id="namedview8"
     showgrid="false"
     inkscape:zoom="7.375"
     inkscape:cx="-0.20338983"
     inkscape:cy="16"
     inkscape:window-x="-8"
     inkscape:window-y="-8"
     inkscape:window-maximized="1"
     inkscape:current-layer="svg2" />
  <g
     id="g4"
     transform="matrix(0.01333333,0,0,-0.01333333,-1.3333333,21.5)" />
  <path
     d="m 0,31.333333 0,-6 q 0,-0.28 0.1933333,-0.473333 0.1933334,-0.193334 0.4733334,-0.193334 l 30.6133333,0 q 0.28,0 0.5,0.193334 0.22,0.193333 0.22,0.473333 l 0,6 -32,0 z M 2.6666667,6.0466667 q 0,0.2733333 0.2,0.4733333 L 3.8533333,7.5066666 9.506667,1.8400001 8.52,0.86666665 q -0.2,-0.2 -0.473333,-0.2 -0.273334,0 -0.473334,0.2 L 2.8666667,5.5733334 q -0.2,0.1999999 -0.2,0.4733333 z m 2.5066666,2.78 L 6.52,10.173333 12.173333,4.5066667 10.826667,3.16 Z M 7.84,11.493333 l 5.6,5.6 -4.253333,4.24 q -0.2,0.186667 -0.16,0.426667 0.04,0.24 0.306666,0.24 l 14,0 q 0.28,0 0.473334,-0.193334 Q 24,21.613333 24,21.333333 L 24,7.3333333 q 0,-0.2666667 -0.233333,-0.3066667 -0.233334,-0.04 -0.433334,0.16 l -4.24,4.2533334 -5.6,-5.6133334 z m 18.826667,17.173333 2.666666,0 0,-1.333333 -2.666666,0 0,1.333333 z"
     id="path6"
     inkscape:connector-curvature="0" />
</svg>
