<?xml version="1.0" encoding="UTF-8" standalone="no"?>
<svg
   xmlns:dc="http://purl.org/dc/elements/1.1/"
   xmlns:cc="http://creativecommons.org/ns#"
   xmlns:rdf="http://www.w3.org/1999/02/22-rdf-syntax-ns#"
   xmlns:svg="http://www.w3.org/2000/svg"
   xmlns="http://www.w3.org/2000/svg"
   xmlns:sodipodi="http://sodipodi.sourceforge.net/DTD/sodipodi-0.dtd"
   xmlns:inkscape="http://www.inkscape.org/namespaces/inkscape"
   version="1.1"
   width="32px"
   height="32px"
   id="svg2"
   inkscape:version="0.91 r13725"
   sodipodi:docname="disk_save.svg">
  <metadata
     id="metadata12">
    <rdf:RDF>
      <cc:Work
         rdf:about="">
        <dc:format>image/svg+xml</dc:format>
        <dc:type
           rdf:resource="http://purl.org/dc/dcmitype/StillImage" />
      </cc:Work>
    </rdf:RDF>
  </metadata>
  <defs
     id="defs10" />
  <sodipodi:namedview
     pagecolor="#ffffff"
     bordercolor="#666666"
     borderopacity="1"
     objecttolerance="10"
     gridtolerance="10"
     guidetolerance="10"
     inkscape:pageopacity="0"
     inkscape:pageshadow="2"
     inkscape:window-width="1280"
     inkscape:window-height="972"
     id="namedview8"
     showgrid="false"
     inkscape:zoom="7.375"
     inkscape:cx="-0.20338983"
     inkscape:cy="16"
     inkscape:window-x="-8"
     inkscape:window-y="-8"
     inkscape:window-maximized="1"
     inkscape:current-layer="svg2" />
  <g
     id="g4"
     transform="matrix(0.01333333,0,0,-0.01333333,-1.3333333,21.5)" />
  <path
     d="m 0,31.333333 32,0 0,-6 q 0,-0.28 -0.22,-0.473333 -0.22,-0.193334 -0.5,-0.193334 l -30.6133333,0 q -0.28,0 -0.4733334,0.193334 Q 0,25.053333 0,25.333333 l 0,6 z m 5.6666667,-19.78 Q 5.6,11.773333 5.8,11.973333 L 15.533333,21.8 Q 15.72,22 16,22 q 0.28,0 0.466667,-0.186667 l 9.733333,-9.84 q 0.2,-0.2 0.14,-0.42 -0.06,-0.22 -0.34,-0.22 l -6,0 0,-9.9999996 Q 20,1.0533333 19.806667,0.86000005 19.613333,0.66666665 19.333333,0.66666665 l -6.666666,0 Q 12.4,0.66666665 12.2,0.86000005 12,1.0533334 12,1.3333334 l 0,9.9999996 -6,0 q -0.2666667,0 -0.3333333,0.22 z m 21.0000003,17.113333 0,-1.333333 2.666666,0 0,1.333333 -2.666666,0 z"
     id="path6"
     inkscape:connector-curvature="0" />
</svg>
