<?xml version="1.0" encoding="UTF-8" standalone="no"?>
<svg
   xmlns:dc="http://purl.org/dc/elements/1.1/"
   xmlns:cc="http://creativecommons.org/ns#"
   xmlns:rdf="http://www.w3.org/1999/02/22-rdf-syntax-ns#"
   xmlns:svg="http://www.w3.org/2000/svg"
   xmlns="http://www.w3.org/2000/svg"
   xmlns:sodipodi="http://sodipodi.sourceforge.net/DTD/sodipodi-0.dtd"
   xmlns:inkscape="http://www.inkscape.org/namespaces/inkscape"
   version="1.1"
   width="32px"
   height="32px"
   id="svg2"
   inkscape:version="0.91 r13725"
   sodipodi:docname="disk_remove.svg">
  <metadata
     id="metadata12">
    <rdf:RDF>
      <cc:Work
         rdf:about="">
        <dc:format>image/svg+xml</dc:format>
        <dc:type
           rdf:resource="http://purl.org/dc/dcmitype/StillImage" />
      </cc:Work>
    </rdf:RDF>
  </metadata>
  <defs
     id="defs10" />
  <sodipodi:namedview
     pagecolor="#ffffff"
     bordercolor="#666666"
     borderopacity="1"
     objecttolerance="10"
     gridtolerance="10"
     guidetolerance="10"
     inkscape:pageopacity="0"
     inkscape:pageshadow="2"
     inkscape:window-width="1280"
     inkscape:window-height="972"
     id="namedview8"
     showgrid="false"
     inkscape:zoom="7.375"
     inkscape:cx="-0.20338983"
     inkscape:cy="16"
     inkscape:window-x="-8"
     inkscape:window-y="-8"
     inkscape:window-maximized="1"
     inkscape:current-layer="svg2" />
  <g
     id="g4"
     transform="matrix(0.01333333,0,0,-0.01333333,-1.3333333,18.921667)" />
  <path
     d="m 0,29.86 0,-6 q 0,-0.28 0.1933333,-0.473333 0.1933334,-0.193334 0.4733334,-0.193334 l 30.6133333,0 q 0.28,0 0.5,0.193334 Q 32,23.58 32,23.86 l 0,6 -32,0 z M 6.946667,5.5933333 q 0,0.28 0.2,0.48 l 5.12,5.1199997 -5.12,5.133334 Q 6.96,16.513333 6.96,16.793333 q 0,0.28 0.186667,0.466667 l 2.786666,2.8 q 0.2,0.186667 0.48,0.186667 0.28,0 0.466667,-0.186667 l 5.12,-5.133333 5.12,5.12 q 0.2,0.2 0.48,0.2 0.28,0 0.466667,-0.2 L 24.853333,17.26 q 0.2,-0.186667 0.2,-0.466667 0,-0.28 -0.2,-0.48 l -5.106666,-5.12 5.12,-5.1199997 q 0.186666,-0.1866666 0.186666,-0.4666666 0,-0.28 -0.186666,-0.48 L 22.066667,2.34 Q 21.88,2.1533333 21.6,2.1533333 q -0.28,0 -0.466667,0.1866667 L 16,7.46 10.88,2.34 q -0.2,-0.2 -0.48,-0.2 -0.28,0 -0.466667,0.2 L 7.146667,5.1266667 q -0.2,0.1866666 -0.2,0.4666666 z m 19.72,21.5999997 2.666666,0 0,-1.333333 -2.666666,0 0,1.333333 z"
     id="path6"
     inkscape:connector-curvature="0" />
</svg>
