<?xml version="1.0" encoding="UTF-8" standalone="no"?>
<svg
   xmlns:dc="http://purl.org/dc/elements/1.1/"
   xmlns:cc="http://creativecommons.org/ns#"
   xmlns:rdf="http://www.w3.org/1999/02/22-rdf-syntax-ns#"
   xmlns:svg="http://www.w3.org/2000/svg"
   xmlns="http://www.w3.org/2000/svg"
   xmlns:sodipodi="http://sodipodi.sourceforge.net/DTD/sodipodi-0.dtd"
   xmlns:inkscape="http://www.inkscape.org/namespaces/inkscape"
   version="1.1"
   width="32px"
   height="32px"
   id="svg2"
   inkscape:version="0.91 r13725"
   sodipodi:docname="disk_saved.svg">
  <metadata
     id="metadata12">
    <rdf:RDF>
      <cc:Work
         rdf:about="">
        <dc:format>image/svg+xml</dc:format>
        <dc:type
           rdf:resource="http://purl.org/dc/dcmitype/StillImage" />
      </cc:Work>
    </rdf:RDF>
  </metadata>
  <defs
     id="defs10" />
  <sodipodi:namedview
     pagecolor="#ffffff"
     bordercolor="#666666"
     borderopacity="1"
     objecttolerance="10"
     gridtolerance="10"
     guidetolerance="10"
     inkscape:pageopacity="0"
     inkscape:pageshadow="2"
     inkscape:window-width="1280"
     inkscape:window-height="972"
     id="namedview8"
     showgrid="false"
     inkscape:zoom="7.375"
     inkscape:cx="-0.20338983"
     inkscape:cy="16"
     inkscape:window-x="-8"
     inkscape:window-y="-8"
     inkscape:window-maximized="1"
     inkscape:current-layer="svg2" />
  <g
     id="g4"
     transform="matrix(0.01333333,0,0,-0.01333333,-1.3333333,20.345)" />
  <path
     d="m 0,30.673333 32,0 0,-6 q 0,-0.28 -0.22,-0.473333 -0.22,-0.193334 -0.5,-0.193334 l -30.6133333,0 q -0.28,0 -0.4733334,0.193334 Q 0,24.393333 0,24.673333 l 0,6 z M 4.2133333,11.9 q 0,0.28 0.1866667,0.48 l 7.866667,7.866666 q 0.2,0.186667 0.48,0.186667 0.28,0 0.48,-0.186667 L 27.893333,5.5666666 q 0.2,-0.2 0.2,-0.48 0,-0.28 -0.2,-0.4799999 L 24.76,1.5266666 q -0.2,-0.2 -0.48,-0.2 -0.28,0 -0.48,0.2 L 13.226667,12.1 q -0.2,0.2 -0.48,0.2 -0.28,0 -0.48,-0.2 L 8.48,8.3133333 q -0.2,-0.2 -0.486667,-0.2 -0.286666,0 -0.473333,0.2 L 4.4,11.42 q -0.1866667,0.2 -0.1866667,0.48 z m 22.4533337,16.106666 0,-1.333333 2.666666,0 0,1.333333 -2.666666,0 z"
     id="path6"
     inkscape:connector-curvature="0" />
</svg>
