<?xml version="1.0" encoding="UTF-8" standalone="no"?>
<svg
   xmlns:dc="http://purl.org/dc/elements/1.1/"
   xmlns:cc="http://creativecommons.org/ns#"
   xmlns:rdf="http://www.w3.org/1999/02/22-rdf-syntax-ns#"
   xmlns:svg="http://www.w3.org/2000/svg"
   xmlns="http://www.w3.org/2000/svg"
   xmlns:sodipodi="http://sodipodi.sourceforge.net/DTD/sodipodi-0.dtd"
   xmlns:inkscape="http://www.inkscape.org/namespaces/inkscape"
   version="1.1"
   width="32px"
   height="32px"
   id="svg2"
   inkscape:version="0.91 r13725"
   sodipodi:docname="dislikes.svg">
  <metadata
     id="metadata12">
    <rdf:RDF>
      <cc:Work
         rdf:about="">
        <dc:format>image/svg+xml</dc:format>
        <dc:type
           rdf:resource="http://purl.org/dc/dcmitype/StillImage" />
      </cc:Work>
    </rdf:RDF>
  </metadata>
  <defs
     id="defs10" />
  <sodipodi:namedview
     pagecolor="#ffffff"
     bordercolor="#666666"
     borderopacity="1"
     objecttolerance="10"
     gridtolerance="10"
     guidetolerance="10"
     inkscape:pageopacity="0"
     inkscape:pageshadow="2"
     inkscape:window-width="1280"
     inkscape:window-height="972"
     id="namedview8"
     showgrid="false"
     inkscape:zoom="7.375"
     inkscape:cx="-0.20338983"
     inkscape:cy="16"
     inkscape:window-x="-8"
     inkscape:window-y="-8"
     inkscape:window-maximized="1"
     inkscape:current-layer="svg2" />
  <g
     id="g4"
     transform="matrix(0.01284625,0,0,-0.01284625,-1.0089944,22.958274)" />
  <path
     d="m -1e-6,12.582898 12.306704,0 3.776797,-11.5616214 0.03854,0 3.751104,11.5616214 12.126857,0 -9.827379,6.949819 3.738258,11.368929 -9.865917,-7.078282 -9.8145325,7.11682 3.7382575,-11.343235 z m 6.1790446,18.395825 0.051385,-0.03854 -0.012846,0.03854 -0.038539,0 z m 1.8370134,-15.826576 4.971497,3.442794 -1.862706,5.61381 4.920113,-3.55841 4.99719,3.648334 -1.888398,-5.755119 4.868727,-3.391409 -6.012043,0 -1.914091,-5.8964264 -1.926937,5.8964264 -6.153352,0 z"
     id="path6"
     inkscape:connector-curvature="0" />
</svg>
