<?xml version="1.0" encoding="UTF-8" standalone="no"?>
<svg
   xmlns:dc="http://purl.org/dc/elements/1.1/"
   xmlns:cc="http://creativecommons.org/ns#"
   xmlns:rdf="http://www.w3.org/1999/02/22-rdf-syntax-ns#"
   xmlns:svg="http://www.w3.org/2000/svg"
   xmlns="http://www.w3.org/2000/svg"
   xmlns:sodipodi="http://sodipodi.sourceforge.net/DTD/sodipodi-0.dtd"
   xmlns:inkscape="http://www.inkscape.org/namespaces/inkscape"
   version="1.1"
   width="32px"
   height="32px"
   id="svg2"
   inkscape:version="0.91 r13725"
   sodipodi:docname="display.svg">
  <metadata
     id="metadata12">
    <rdf:RDF>
      <cc:Work
         rdf:about="">
        <dc:format>image/svg+xml</dc:format>
        <dc:type
           rdf:resource="http://purl.org/dc/dcmitype/StillImage" />
      </cc:Work>
    </rdf:RDF>
  </metadata>
  <defs
     id="defs10" />
  <sodipodi:namedview
     pagecolor="#ffffff"
     bordercolor="#666666"
     borderopacity="1"
     objecttolerance="10"
     gridtolerance="10"
     guidetolerance="10"
     inkscape:pageopacity="0"
     inkscape:pageshadow="2"
     inkscape:window-width="1280"
     inkscape:window-height="972"
     id="namedview8"
     showgrid="false"
     inkscape:zoom="7.375"
     inkscape:cx="-0.20338983"
     inkscape:cy="16"
     inkscape:window-x="-8"
     inkscape:window-y="-8"
     inkscape:window-maximized="1"
     inkscape:current-layer="svg2" />
  <g
     id="g4"
     transform="matrix(0.01142857,0,0,-0.01142857,2,23.428571)" />
  <path
     d="M 0,22.857142 0,3.4285709 Q 0,2.9599995 0.3371429,2.6228566 0.6742857,2.2857138 1.1428571,2.2857138 l 29.7142859,0 q 0.468571,0 0.805714,0.3371428 Q 32,2.9599995 32,3.4285709 l 0,19.4285711 q 0,0.468572 -0.337143,0.805714 -0.337143,0.337143 -0.805714,0.337143 l -12.571429,0 0,1.142857 q 0,0.64 0.234286,1.108572 0.234286,0.468571 0.571429,0.685714 0.337142,0.217143 0.674285,0.342857 0.337143,0.125715 0.577143,0.137143 l 0.228572,0.01143 4.171428,0 q 0.16,0 0.28,0.12 0.12,0.12 0.12,0.291428 l 0,1.874286 -18.2857141,0 0,-1.874286 q 0,-0.171428 0.12,-0.291428 0.12,-0.12 0.2914285,-0.12 l 4.2171426,0 q 0.09143,0 0.24,-0.01143 0.148572,-0.01143 0.531429,-0.137143 0.382857,-0.125714 0.68,-0.342857 0.297143,-0.217143 0.537143,-0.685714 0.24,-0.468572 0.24,-1.108572 l 0,-1.142857 -12.5714289,0 q -0.4685714,0 -0.8057142,-0.337143 Q 0,23.325714 0,22.857142 Z m 2.2857143,-2.285714 27.4285717,0 0,-15.9999999 -27.4285717,0 0,15.9999999 z m 26.2857147,2.285714 1.142857,0 0,-1.142857 -1.142857,0 0,1.142857 z"
     id="path6"
     inkscape:connector-curvature="0" />
</svg>
