<?xml version="1.0" encoding="UTF-8" standalone="no"?>
<svg
   xmlns:dc="http://purl.org/dc/elements/1.1/"
   xmlns:cc="http://creativecommons.org/ns#"
   xmlns:rdf="http://www.w3.org/1999/02/22-rdf-syntax-ns#"
   xmlns:svg="http://www.w3.org/2000/svg"
   xmlns="http://www.w3.org/2000/svg"
   xmlns:sodipodi="http://sodipodi.sourceforge.net/DTD/sodipodi-0.dtd"
   xmlns:inkscape="http://www.inkscape.org/namespaces/inkscape"
   version="1.1"
   width="32px"
   height="32px"
   id="svg2"
   inkscape:version="0.91 r13725"
   sodipodi:docname="dog.svg">
  <metadata
     id="metadata12">
    <rdf:RDF>
      <cc:Work
         rdf:about="">
        <dc:format>image/svg+xml</dc:format>
        <dc:type
           rdf:resource="http://purl.org/dc/dcmitype/StillImage" />
      </cc:Work>
    </rdf:RDF>
  </metadata>
  <defs
     id="defs10" />
  <sodipodi:namedview
     pagecolor="#ffffff"
     bordercolor="#666666"
     borderopacity="1"
     objecttolerance="10"
     gridtolerance="10"
     guidetolerance="10"
     inkscape:pageopacity="0"
     inkscape:pageshadow="2"
     inkscape:window-width="1280"
     inkscape:window-height="972"
     id="namedview8"
     showgrid="false"
     inkscape:zoom="7.375"
     inkscape:cx="-0.20338983"
     inkscape:cy="16"
     inkscape:window-x="-8"
     inkscape:window-y="-8"
     inkscape:window-maximized="1"
     inkscape:current-layer="svg2" />
  <g
     id="g4"
     transform="matrix(0.01231717,0,0,-0.01231717,-0.69746728,24.099723)" />
  <path
     d="M 0,30.115473 0,17.256351 Q 0,16.99769 0.1108545,16.671285 0.221709,16.344881 0.369515,16.135489 L 2.7220939,12.87144 q 0.1231717,-0.172441 0.1231717,-0.406467 0,-0.307929 -0.221709,-0.517321 L 0.2340262,8.8929946 Q 0,8.6836027 0,8.4003079 0,8.1662818 0.1724403,7.9938414 q 0.147806,-0.147806 0.3325635,-0.147806 0.1601232,0 0.5050039,0.1601231 2.0076982,1.4780601 2.7590454,1.9461124 0.3325635,0.2093921 0.7513472,0.3264051 0.4187837,0.117013 0.665127,0.12933 l 0.2463434,0 9.1147033,0 q 0.320247,0 0.591224,-0.06159 0.270978,-0.06159 0.43726,-0.147806 0.166281,-0.08622 0.283295,-0.178599 0.117013,-0.092379 0.166281,-0.1539644 l 0.04927,-0.061586 q 0.17244,-0.1724404 0.431101,-0.1724404 0.270978,0 0.431101,0.1724404 l 4.729792,5.0623553 q 0.197075,0.184758 0.351039,0.498846 0.153965,0.314088 0.153965,0.548114 l 0,14.201693 q 0,0.505004 -0.363357,0.868361 -0.363356,0.363356 -0.86836,0.363356 l -1.231717,0 q -0.505004,0 -0.86836,-0.363356 -0.363356,-0.363357 -0.363356,-0.868361 l 0,-8.178599 q 0,-0.25866 -0.141648,-0.461893 -0.141648,-0.203234 -0.375674,-0.227868 L 7.3903,19.030023 q -0.25866,-0.02463 -0.5912238,0.0739 -0.3325635,0.09854 -0.517321,0.270978 l -2.5866051,4.545034 0,6.195535 q 0,0.505004 -0.3633564,0.868361 -0.3633564,0.363359 -0.8683603,0.363359 l -1.2317167,0 q -0.5050038,0 -0.8683603,-0.363356 Q 0,30.620477 0,30.115473 Z M 18.093918,8.0307929 q 0,-0.2463434 0.184758,-0.4311009 l 6.454195,-6.4541955 q 0.455736,-0.49268665 0.800616,-0.49268665 0.332564,0 0.332564,0.50500385 l 0,1.8598922 q 0.02463,0.6774442 0.25866,0.8991532 l 5.727483,5.6412625 Q 32,9.7059277 32,9.8660508 32,10.112394 31.741339,10.309469 l -3.892224,2.586605 q -0.197075,0.135489 -0.455735,0.135489 -0.283295,0 -0.517321,-0.172441 l -0.837568,-0.689761 q -0.160123,-0.160123 -0.418784,-0.160123 -0.283294,0 -0.480369,0.197075 l -1.317937,1.317936 q -0.184757,0.184758 -0.443418,0.184758 -0.246343,0 -0.431101,-0.184758 L 18.278676,8.474211 Q 18.093918,8.2894535 18.093918,8.0307929 Z"
     id="path6"
     inkscape:connector-curvature="0" />
</svg>
