<?xml version="1.0" encoding="UTF-8" standalone="no"?>
<svg
   xmlns:dc="http://purl.org/dc/elements/1.1/"
   xmlns:cc="http://creativecommons.org/ns#"
   xmlns:rdf="http://www.w3.org/1999/02/22-rdf-syntax-ns#"
   xmlns:svg="http://www.w3.org/2000/svg"
   xmlns="http://www.w3.org/2000/svg"
   xmlns:sodipodi="http://sodipodi.sourceforge.net/DTD/sodipodi-0.dtd"
   xmlns:inkscape="http://www.inkscape.org/namespaces/inkscape"
   version="1.1"
   width="32px"
   height="32px"
   id="svg2"
   inkscape:version="0.91 r13725"
   sodipodi:docname="download_alt.svg">
  <metadata
     id="metadata12">
    <rdf:RDF>
      <cc:Work
         rdf:about="">
        <dc:format>image/svg+xml</dc:format>
        <dc:type
           rdf:resource="http://purl.org/dc/dcmitype/StillImage" />
      </cc:Work>
    </rdf:RDF>
  </metadata>
  <defs
     id="defs10" />
  <sodipodi:namedview
     pagecolor="#ffffff"
     bordercolor="#666666"
     borderopacity="1"
     objecttolerance="10"
     gridtolerance="10"
     guidetolerance="10"
     inkscape:pageopacity="0"
     inkscape:pageshadow="2"
     inkscape:window-width="1280"
     inkscape:window-height="972"
     id="namedview8"
     showgrid="false"
     inkscape:zoom="7.375"
     inkscape:cx="-0.20338983"
     inkscape:cy="16"
     inkscape:window-x="-8"
     inkscape:window-y="-8"
     inkscape:window-maximized="1"
     inkscape:current-layer="svg2" />
  <g
     id="g4"
     transform="matrix(0.01333333,0,0,-0.01333333,-1.3333333,22.666667)" />
  <path
     d="m 0,30.666667 0,-8 4,0 0,2.666666 11.346667,0 L 5.52,13.88 Q 5.36,13.68 5.4333333,13.506667 5.5066667,13.333333 5.76,13.333333 l 6.24,0 0,-12.6799997 Q 12,0.4 12.213333,0.2 12.426667,0 12.693333,0 L 19.4,0 Q 19.653333,0 19.826667,0.1933333 20,0.3866667 20,0.6533333 l 0,12.6799997 6.346667,0 q 0.253333,0 0.326666,0.173334 Q 26.746663,13.68 26.586663,13.88 L 16.76,25.333333 l 11.24,0 0,-2.666666 4,0 0,8 q 0,0.546666 -0.393333,0.94 Q 31.213333,32 30.666667,32 L 1.3333333,32 q -0.5466666,0 -0.94,-0.393333 Q 0,31.213333 0,30.666667 Z"
     id="path6"
     inkscape:connector-curvature="0" />
</svg>
