<?xml version="1.0" encoding="UTF-8" standalone="no"?>
<svg
   xmlns:dc="http://purl.org/dc/elements/1.1/"
   xmlns:cc="http://creativecommons.org/ns#"
   xmlns:rdf="http://www.w3.org/1999/02/22-rdf-syntax-ns#"
   xmlns:svg="http://www.w3.org/2000/svg"
   xmlns="http://www.w3.org/2000/svg"
   xmlns:sodipodi="http://sodipodi.sourceforge.net/DTD/sodipodi-0.dtd"
   xmlns:inkscape="http://www.inkscape.org/namespaces/inkscape"
   version="1.1"
   width="32px"
   height="32px"
   id="svg2"
   inkscape:version="0.91 r13725"
   sodipodi:docname="down_arrow.svg">
  <metadata
     id="metadata12">
    <rdf:RDF>
      <cc:Work
         rdf:about="">
        <dc:format>image/svg+xml</dc:format>
        <dc:type
           rdf:resource="http://purl.org/dc/dcmitype/StillImage" />
      </cc:Work>
    </rdf:RDF>
  </metadata>
  <defs
     id="defs10" />
  <sodipodi:namedview
     pagecolor="#ffffff"
     bordercolor="#666666"
     borderopacity="1"
     objecttolerance="10"
     gridtolerance="10"
     guidetolerance="10"
     inkscape:pageopacity="0"
     inkscape:pageshadow="2"
     inkscape:window-width="1280"
     inkscape:window-height="972"
     id="namedview8"
     showgrid="false"
     inkscape:zoom="7.375"
     inkscape:cx="-0.20338983"
     inkscape:cy="16"
     inkscape:window-x="-8"
     inkscape:window-y="-8"
     inkscape:window-maximized="1"
     inkscape:current-layer="svg2" />
  <g
     id="g4"
     transform="matrix(0.01599971,0,0,-0.016,-10.189279,19.6)" />
  <path
     d="M 2.4943151,14.592 Q 2.5903134,14.4 2.9103076,14.4 l 8.2878534,0 0,-13.584 q 0,-0.32 0.247996,-0.568 Q 11.694153,0 12.014147,0 l 7.967859,0 Q 20.302,0 20.549995,0.248 20.79799,0.496 20.79799,0.816 l 0,13.584 8.287854,0 q 0.335995,0 0.423994,0.192 0.088,0.192 -0.12,0.464 L 16.494067,31.728 Q 16.286072,32 15.998076,32 15.710081,32 15.518085,31.728 L 2.6063131,15.056 Q 2.3983167,14.784 2.4943151,14.592 Z"
     id="path6"
     inkscape:connector-curvature="0" />
</svg>
