<?xml version="1.0" encoding="UTF-8" standalone="no"?>
<svg
   xmlns:dc="http://purl.org/dc/elements/1.1/"
   xmlns:cc="http://creativecommons.org/ns#"
   xmlns:rdf="http://www.w3.org/1999/02/22-rdf-syntax-ns#"
   xmlns:svg="http://www.w3.org/2000/svg"
   xmlns="http://www.w3.org/2000/svg"
   xmlns:sodipodi="http://sodipodi.sourceforge.net/DTD/sodipodi-0.dtd"
   xmlns:inkscape="http://www.inkscape.org/namespaces/inkscape"
   version="1.1"
   width="32px"
   height="32px"
   id="svg2"
   inkscape:version="0.91 r13725"
   sodipodi:docname="dress.svg">
  <metadata
     id="metadata12">
    <rdf:RDF>
      <cc:Work
         rdf:about="">
        <dc:format>image/svg+xml</dc:format>
        <dc:type
           rdf:resource="http://purl.org/dc/dcmitype/StillImage" />
      </cc:Work>
    </rdf:RDF>
  </metadata>
  <defs
     id="defs10" />
  <sodipodi:namedview
     pagecolor="#ffffff"
     bordercolor="#666666"
     borderopacity="1"
     objecttolerance="10"
     gridtolerance="10"
     guidetolerance="10"
     inkscape:pageopacity="0"
     inkscape:pageshadow="2"
     inkscape:window-width="1280"
     inkscape:window-height="972"
     id="namedview8"
     showgrid="false"
     inkscape:zoom="7.375"
     inkscape:cx="-0.20338983"
     inkscape:cy="16"
     inkscape:window-x="-8"
     inkscape:window-y="-8"
     inkscape:window-maximized="1"
     inkscape:current-layer="svg2" />
  <g
     id="g4"
     transform="matrix(0.01333333,0,0,-0.01333333,-6.3483333,33.333333)" />
  <path
     d="M 4.8066665,28.666667 9.6733335,31.48 13.046667,18.666667 l 0,13.133333 q 2.4,0.2 3.319999,0.2 2.240001,0 4.18,-0.273333 Q 22.486667,31.453333 23.653334,31.06 24.82,30.666667 25.666667,30.273333 26.513334,29.88 26.859999,29.6 l 0.333335,-0.266667 -6.2,-18.666666 0,-1.3333337 L 21.58,6.6666667 22.326667,0 20.993334,0 q 0,0.093333 -0.02,0.2666667 -0.02,0.1733333 -0.14,0.6533333 -0.120001,0.48 -0.300001,0.92 -0.179999,0.44 -0.539999,0.98 -0.36,0.54 -0.826667,0.9266667 Q 18.699999,4.1333333 17.96,4.4 q -0.74,0.2666667 -1.633333,0.2666667 -0.893333,0 -1.633333,-0.26 -0.74,-0.26 -1.206667,-0.6666667 Q 13.02,3.3333333 12.66,2.8333333 q -0.36,-0.5 -0.54,-1 -0.18,-0.5 -0.293333,-0.9066666 -0.113333,-0.4066667 -0.14,-0.66 L 11.66,0 10.326667,0 11.073334,6.6666667 11.66,9.3333333 l 0,1.3333337 z"
     id="path6"
     inkscape:connector-curvature="0" />
</svg>
