<?xml version="1.0" encoding="UTF-8" standalone="no"?>
<svg
   xmlns:dc="http://purl.org/dc/elements/1.1/"
   xmlns:cc="http://creativecommons.org/ns#"
   xmlns:rdf="http://www.w3.org/1999/02/22-rdf-syntax-ns#"
   xmlns:svg="http://www.w3.org/2000/svg"
   xmlns="http://www.w3.org/2000/svg"
   xmlns:sodipodi="http://sodipodi.sourceforge.net/DTD/sodipodi-0.dtd"
   xmlns:inkscape="http://www.inkscape.org/namespaces/inkscape"
   version="1.1"
   width="32px"
   height="32px"
   id="svg2"
   inkscape:version="0.91 r13725"
   sodipodi:docname="drink.svg">
  <metadata
     id="metadata12">
    <rdf:RDF>
      <cc:Work
         rdf:about="">
        <dc:format>image/svg+xml</dc:format>
        <dc:type
           rdf:resource="http://purl.org/dc/dcmitype/StillImage" />
      </cc:Work>
    </rdf:RDF>
  </metadata>
  <defs
     id="defs10" />
  <sodipodi:namedview
     pagecolor="#ffffff"
     bordercolor="#666666"
     borderopacity="1"
     objecttolerance="10"
     gridtolerance="10"
     guidetolerance="10"
     inkscape:pageopacity="0"
     inkscape:pageshadow="2"
     inkscape:window-width="1280"
     inkscape:window-height="972"
     id="namedview8"
     showgrid="false"
     inkscape:zoom="7.375"
     inkscape:cx="-0.20338983"
     inkscape:cy="16"
     inkscape:window-x="-8"
     inkscape:window-y="-8"
     inkscape:window-maximized="1"
     inkscape:current-layer="svg2" />
  <g
     id="g4"
     transform="matrix(0.01333333,0,0,-0.01333333,-3.5533333,22.666667)" />
  <path
     d="m 0.9866665,8.6666667 q 0,-1.6266667 0.6333333,-3.1133334 0.6333334,-1.4866666 1.7133334,-2.5666666 1.08,-1.08 2.5666666,-1.7133334 Q 7.3866665,0.64 9.0133335,0.64 10.64,0.64 12.126666,1.2733333 q 1.486668,0.6333334 2.566667,1.7133334 1.08,1.08 1.713333,2.5666666 0.633333,1.4866667 0.633333,3.1133334 0,1.0133333 -0.266666,2.0000003 l 5.586666,0 3.56,-10.666667 2.586667,0 -3.493332,10.666667 5.999999,0 -4,21.333333 -9.333334,0 -3.28,-17.4 q -2.306665,2.093333 -5.3866655,2.093333 -1.626667,0 -3.1133337,-0.633333 -1.4866666,-0.633333 -2.5666666,-1.713333 -1.08,-1.08 -1.7133334,-2.566667 Q 0.9866665,10.293333 0.9866665,8.6666667 Z m 1.6933333,0.4 0.066667,0.3866666 q 0.1733333,1.7333337 1.3333333,3.1733337 l 0.1733334,0.226666 3.8000003,-3.7866663 -5.3733337,0 z m 0.04,-0.88 0.28,0.08 5.0533337,0 -3.8133337,-3.8 -0.1866666,0.2266666 q -1.1333334,1.4533334 -1.3066667,3.2 z M 4.8133332,13.44 5.0399998,13.626667 q 1.4799997,1.16 3.1999997,1.306666 l 0.293334,0.02667 0.08,-0.28 0,-5.04 z m 0,-9.5333333 3.8000003,3.8 0,-5.36 -0.4,0.053333 q -1.733334,0.1733333 -3.1733337,1.32 z m 4.6000003,11.0800003 0.306666,-0.04 q 1.7866675,-0.16 3.2666665,-1.32 L 13.213334,13.44 9.4133335,9.64 l 0,5.346667 z m 0,-7.2800003 L 13.213334,3.8933333 12.986666,3.7066667 Q 11.546667,2.5733333 9.7866665,2.4 l -0.293333,-0.026667 -0.08,0.28 0,5.0533334 z M 9.7999995,8.88 13.746667,12.826667 13.933334,12.6 q 1.16,-1.453333 1.346665,-3.28 l 0.04,-0.44 -5.5199995,0 z m 0.173334,-0.6133333 5.3600005,0 -0.04,-0.3066667 q -0.16,-1.7866667 -1.32,-3.2666667 L 13.786666,4.4666667 Z"
     id="path6"
     inkscape:connector-curvature="0" />
</svg>
