<?xml version="1.0" encoding="UTF-8" standalone="no"?>
<svg
   xmlns:dc="http://purl.org/dc/elements/1.1/"
   xmlns:cc="http://creativecommons.org/ns#"
   xmlns:rdf="http://www.w3.org/1999/02/22-rdf-syntax-ns#"
   xmlns:svg="http://www.w3.org/2000/svg"
   xmlns="http://www.w3.org/2000/svg"
   xmlns:sodipodi="http://sodipodi.sourceforge.net/DTD/sodipodi-0.dtd"
   xmlns:inkscape="http://www.inkscape.org/namespaces/inkscape"
   version="1.1"
   width="32px"
   height="32px"
   id="svg2"
   inkscape:version="0.91 r13725"
   sodipodi:docname="dumbbell.svg">
  <metadata
     id="metadata12">
    <rdf:RDF>
      <cc:Work
         rdf:about="">
        <dc:format>image/svg+xml</dc:format>
        <dc:type
           rdf:resource="http://purl.org/dc/dcmitype/StillImage" />
      </cc:Work>
    </rdf:RDF>
  </metadata>
  <defs
     id="defs10" />
  <sodipodi:namedview
     pagecolor="#ffffff"
     bordercolor="#666666"
     borderopacity="1"
     objecttolerance="10"
     gridtolerance="10"
     guidetolerance="10"
     inkscape:pageopacity="0"
     inkscape:pageshadow="2"
     inkscape:window-width="1280"
     inkscape:window-height="972"
     id="namedview8"
     showgrid="false"
     inkscape:zoom="7.375"
     inkscape:cx="-0.20338983"
     inkscape:cy="16"
     inkscape:window-x="-8"
     inkscape:window-y="-8"
     inkscape:window-maximized="1"
     inkscape:current-layer="svg2" />
  <g
     id="g4"
     transform="matrix(0.01230769,0,0,0.01230769,0.53846154,10.461538)" />
  <path
     d="m 0,13.538462 0,4.923077 2.4615385,0 0,3.692307 q 0,0.504616 0.3630769,0.867693 0.3630769,0.363077 0.8676923,0.363077 l 1.2307692,0 q 0.5046154,0 0.8676923,-0.363077 0.363077,-0.363077 0.363077,-0.867693 l 0,2.461539 q 0,0.504615 0.3630769,0.867692 Q 6.88,25.846154 7.384615,25.846154 l 1.23077,0 q 0.504615,0 0.867692,-0.363077 Q 9.846154,25.12 9.846154,24.615385 l 0,-6.153846 12.307692,0 0,6.153846 q 0,0.504615 0.363077,0.867692 0.363077,0.363077 0.867692,0.363077 l 1.23077,0 q 0.504615,0 0.867692,-0.363077 0.363077,-0.363077 0.363077,-0.867692 l 0,-2.461539 q 0,0.504616 0.363077,0.867693 0.363077,0.363077 0.867692,0.363077 l 1.230769,0 q 0.504616,0 0.867693,-0.363077 0.363077,-0.363077 0.363077,-0.867693 l 0,-3.692307 2.461538,0 0,-4.923077 -2.461538,0 0,-3.6923082 q 0,-0.5046154 -0.363077,-0.8676923 -0.363077,-0.3630769 -0.867693,-0.3630769 l -1.230769,0 q -0.504615,0 -0.867692,0.3630769 -0.363077,0.363077 -0.363077,0.8676924 l 0,-2.4615385 q 0,-0.5046153 -0.363077,-0.8676923 Q 25.12,6.1538462 24.615385,6.1538462 l -1.23077,0 q -0.504615,0 -0.867692,0.3630769 -0.363077,0.363077 -0.363077,0.8676923 l 0,6.1538466 -12.307692,0 0,-6.1538466 q 0,-0.5046153 -0.363077,-0.8676923 Q 9.12,6.1538462 8.615385,6.1538462 l -1.23077,0 q -0.504615,0 -0.8676919,0.3630769 -0.3630769,0.363077 -0.3630769,0.8676923 l 0,2.4615385 q 0,-0.5046154 -0.363077,-0.8676923 -0.3630769,-0.363077 -0.8676923,-0.363077 l -1.2307692,0 q -0.5046154,0 -0.8676923,0.363077 -0.3630769,0.3630769 -0.3630769,0.8676923 l 0,3.6923081 -2.4615385,0 z"
     id="path6"
     inkscape:connector-curvature="0" />
</svg>
