<?xml version="1.0" encoding="UTF-8" standalone="no"?>
<svg
   xmlns:dc="http://purl.org/dc/elements/1.1/"
   xmlns:cc="http://creativecommons.org/ns#"
   xmlns:rdf="http://www.w3.org/1999/02/22-rdf-syntax-ns#"
   xmlns:svg="http://www.w3.org/2000/svg"
   xmlns="http://www.w3.org/2000/svg"
   xmlns:sodipodi="http://sodipodi.sourceforge.net/DTD/sodipodi-0.dtd"
   xmlns:inkscape="http://www.inkscape.org/namespaces/inkscape"
   version="1.1"
   width="32px"
   height="32px"
   id="svg2"
   inkscape:version="0.91 r13725"
   sodipodi:docname="ear_plugs.svg">
  <metadata
     id="metadata12">
    <rdf:RDF>
      <cc:Work
         rdf:about="">
        <dc:format>image/svg+xml</dc:format>
        <dc:type
           rdf:resource="http://purl.org/dc/dcmitype/StillImage" />
      </cc:Work>
    </rdf:RDF>
  </metadata>
  <defs
     id="defs10" />
  <sodipodi:namedview
     pagecolor="#ffffff"
     bordercolor="#666666"
     borderopacity="1"
     objecttolerance="10"
     gridtolerance="10"
     guidetolerance="10"
     inkscape:pageopacity="0"
     inkscape:pageshadow="2"
     inkscape:window-width="1280"
     inkscape:window-height="972"
     id="namedview8"
     showgrid="false"
     inkscape:zoom="7.375"
     inkscape:cx="-0.20338983"
     inkscape:cy="16"
     inkscape:window-x="-8"
     inkscape:window-y="-8"
     inkscape:window-maximized="1"
     inkscape:current-layer="svg2" />
  <g
     id="g4"
     transform="matrix(0.01333333,0,0,-0.01333333,-4.6666667,22.666667)" />
  <path
     d="m 2.6666665,6 q 0,-2.48 1.76,-4.24 1.76,-1.76 4.24,-1.76 2.4799995,0 4.2399995,1.76 1.76,1.76 1.76,4.24 0,1.9333333 -1.113333,3.4666667 Q 12.439999,11 10.666666,11.64 l 0,4.36 -2.6666665,0 0,-4 q 0,-1.12 -0.413333,-2.3533333 -0.413333,-1.2333334 -1,-2.2 Q 5.9999998,6.48 5.4133332,5.6733333 q -0.5866667,-0.8066666 -1,-1.2466666 L 3.9999998,4 l 0,4 q 0.093333,0.053333 0.2533334,0.1466667 0.16,0.093333 0.5866666,0.4333333 0.4266667,0.34 0.76,0.7266667 0.3333334,0.3866666 0.6466667,1.0133333 0.3133333,0.626667 0.38,1.293333 -1.76,-0.64 -2.86,-2.173333 -1.1,-1.5333333 -1.1,-3.44 z m 4,18 0,-6.666667 3.9999995,0 0,6.666667 -1.3333325,0 0,8 -1.333334,0 0,-8 -1.333333,0 z M 17.333333,10 q 0,-2.48 1.76,-4.24 Q 20.853334,4 23.333334,4 q 2.48,0 4.24,1.76 1.76,1.76 1.76,4.24 0,1.933333 -1.113335,3.466667 Q 27.106666,15 25.333333,15.64 l 0,4.36 -2.666667,0 0,-4 q 0,-1.12 -0.413333,-2.353333 -0.413334,-1.233334 -1,-2.2 Q 20.666666,10.48 20.079999,9.6733333 q -0.586666,-0.8066666 -1,-1.2466666 L 18.666666,8 l 0,4 q 0.09333,0.05333 0.253333,0.146667 0.16,0.09333 0.586667,0.433333 0.426667,0.34 0.76,0.726667 0.333333,0.386666 0.64,1.013333 0.306667,0.626667 0.373333,1.293333 -1.746666,-0.64 -2.846666,-2.173333 -1.1,-1.533333 -1.1,-3.44 z m 4,18 0,-6.666667 4,0 0,6.666667 -1.333334,0 0,4 -1.333333,0 0,-4 -1.333333,0 z"
     id="path6"
     inkscape:connector-curvature="0" />
</svg>
