<?xml version="1.0" encoding="UTF-8" standalone="no"?>
<svg
   xmlns:dc="http://purl.org/dc/elements/1.1/"
   xmlns:cc="http://creativecommons.org/ns#"
   xmlns:rdf="http://www.w3.org/1999/02/22-rdf-syntax-ns#"
   xmlns:svg="http://www.w3.org/2000/svg"
   xmlns="http://www.w3.org/2000/svg"
   xmlns:sodipodi="http://sodipodi.sourceforge.net/DTD/sodipodi-0.dtd"
   xmlns:inkscape="http://www.inkscape.org/namespaces/inkscape"
   version="1.1"
   width="32px"
   height="32px"
   id="svg2"
   inkscape:version="0.91 r13725"
   sodipodi:docname="eject.svg">
  <metadata
     id="metadata12">
    <rdf:RDF>
      <cc:Work
         rdf:about="">
        <dc:format>image/svg+xml</dc:format>
        <dc:type
           rdf:resource="http://purl.org/dc/dcmitype/StillImage" />
      </cc:Work>
    </rdf:RDF>
  </metadata>
  <defs
     id="defs10" />
  <sodipodi:namedview
     pagecolor="#ffffff"
     bordercolor="#666666"
     borderopacity="1"
     objecttolerance="10"
     gridtolerance="10"
     guidetolerance="10"
     inkscape:pageopacity="0"
     inkscape:pageshadow="2"
     inkscape:window-width="1280"
     inkscape:window-height="972"
     id="namedview8"
     showgrid="false"
     inkscape:zoom="7.375"
     inkscape:cx="-0.20338983"
     inkscape:cy="16"
     inkscape:window-x="-8"
     inkscape:window-y="-8"
     inkscape:window-maximized="1"
     inkscape:current-layer="svg2" />
  <g
     id="g4"
     transform="matrix(0.01777778,0,0,-0.0177782,-10.777778,18.195114)" />
  <path
     d="m 0,30.169757 0,-3.555641 q 0,-0.373342 0.2577778,-0.631125 0.2577778,-0.257785 0.6311111,-0.257785 l 30.2222221,0 q 0.373333,0 0.631111,0.257785 Q 32,26.240774 32,26.614116 l 0,3.555641 q 0,0.373342 -0.257778,0.631125 -0.257778,0.257785 -0.631111,0.257785 l -30.2222221,0 q -0.3733333,0 -0.6311111,-0.257785 Q 0,30.543099 0,30.169757 Z M 0.062222,21.70733 Q -0.0533333,21.245097 0.1777778,20.942868 L 15.484444,1.2090524 q 0.231112,-0.28445142 0.542223,-0.26667332 0.311111,0.017778 0.542222,0.30222972 L 31.84,20.978423 q 0.231111,0.30223 0.124444,0.746687 -0.106666,0.444455 -0.462222,0.444455 l -30.9688887,0 q -0.3555555,0 -0.4711111,-0.462235 z"
     id="path6"
     inkscape:connector-curvature="0" />
</svg>
