<?xml version="1.0" encoding="UTF-8" standalone="no"?>
<svg
   xmlns:dc="http://purl.org/dc/elements/1.1/"
   xmlns:cc="http://creativecommons.org/ns#"
   xmlns:rdf="http://www.w3.org/1999/02/22-rdf-syntax-ns#"
   xmlns:svg="http://www.w3.org/2000/svg"
   xmlns="http://www.w3.org/2000/svg"
   xmlns:sodipodi="http://sodipodi.sourceforge.net/DTD/sodipodi-0.dtd"
   xmlns:inkscape="http://www.inkscape.org/namespaces/inkscape"
   version="1.1"
   width="32px"
   height="32px"
   id="svg2"
   inkscape:version="0.91 r13725"
   sodipodi:docname="electrical_socket_eu.svg">
  <metadata
     id="metadata12">
    <rdf:RDF>
      <cc:Work
         rdf:about="">
        <dc:format>image/svg+xml</dc:format>
        <dc:type
           rdf:resource="http://purl.org/dc/dcmitype/StillImage" />
      </cc:Work>
    </rdf:RDF>
  </metadata>
  <defs
     id="defs10" />
  <sodipodi:namedview
     pagecolor="#ffffff"
     bordercolor="#666666"
     borderopacity="1"
     objecttolerance="10"
     gridtolerance="10"
     guidetolerance="10"
     inkscape:pageopacity="0"
     inkscape:pageshadow="2"
     inkscape:window-width="1280"
     inkscape:window-height="972"
     id="namedview8"
     showgrid="false"
     inkscape:zoom="7.375"
     inkscape:cx="-0.20338983"
     inkscape:cy="16"
     inkscape:window-x="-8"
     inkscape:window-y="-8"
     inkscape:window-maximized="1"
     inkscape:current-layer="svg2" />
  <g
     id="g4"
     transform="matrix(0.01391304,0,0,-0.01391304,-1.7608696,22.630435)" />
  <path
     d="M 0,27.826087 0,4.173913 Q 0,2.4486957 1.2243478,1.2243478 2.4486957,0 4.173913,0 L 27.826087,0 Q 29.551304,0 30.775652,1.2243478 32,2.4486957 32,4.173913 l 0,23.652174 q 0,1.725217 -1.224348,2.949565 Q 29.551304,32 27.826087,32 L 4.173913,32 Q 2.4486957,32 1.2243478,30.775652 0,29.551304 0,27.826087 Z M 4.0208696,16 q 0,2.434783 0.9530434,4.653913 0.953044,2.21913 2.553044,3.81913 1.6,1.6 3.81913,2.553044 2.21913,0.953043 4.653913,0.953043 2.434783,0 4.653913,-0.953043 2.21913,-0.953044 3.81913,-2.553044 1.6,-1.6 2.553044,-3.81913 Q 27.97913,18.434783 27.97913,16 q 0,-2.434783 -0.953043,-4.653913 -0.953044,-2.2191305 -2.553044,-3.8191305 -1.6,-1.6 -3.81913,-2.5530435 Q 18.434783,4.0208696 16,4.0208696 q -2.434783,0 -4.653913,0.9530434 -2.21913,0.9530435 -3.81913,2.5530435 -1.6,1.6 -2.553044,3.8191305 Q 4.0208696,13.565217 4.0208696,16 Z m 2.3095654,0 q 0,-1.961739 0.765217,-3.749565 Q 7.86087,10.462609 9.161739,9.1617391 10.462609,7.8608696 12.250435,7.0956522 14.038261,6.3304348 16,6.3304348 q 1.961739,0 3.749565,0.7652174 1.787826,0.7652174 3.088696,2.0660869 1.300869,1.3008699 2.066087,3.0886959 0.765217,1.787826 0.765217,3.749565 0,1.961739 -0.765217,3.749565 -0.765218,1.787826 -2.066087,3.088696 -1.30087,1.300869 -3.088696,2.066087 Q 17.961739,25.669565 16,25.669565 q -1.961739,0 -3.749565,-0.765217 Q 10.462609,24.13913 9.161739,22.838261 7.86087,21.537391 7.095652,19.749565 6.330435,17.961739 6.330435,16 Z m 1.530435,0 q 0,1.057391 0.75826,1.815652 0.758261,0.758261 1.815653,0.758261 1.057391,0 1.815652,-0.758261 Q 13.008696,17.057391 13.008696,16 q 0,-1.057391 -0.758261,-1.815652 -0.758261,-0.758261 -1.815652,-0.758261 -1.057392,0 -1.815653,0.758261 Q 7.86087,14.942609 7.86087,16 Z m 5.523478,-5.565217 q 0,1.085217 0.772174,1.850434 0.772174,0.765218 1.843478,0.765218 1.085217,0 1.850435,-0.765218 0.765217,-0.765217 0.765217,-1.850434 0,-1.0852178 -0.765217,-1.8504352 Q 17.085217,7.8191304 16,7.8191304 q -1.071304,0 -1.843478,0.7652174 -0.772174,0.7652174 -0.772174,1.8504352 z m 1.683478,0 q 0,-0.389566 0.271304,-0.66087 Q 15.610435,9.5026087 16,9.5026087 q 0.389565,0 0.667826,0.2713043 0.278261,0.271304 0.278261,0.66087 0,0.389565 -0.278261,0.667826 Q 16.389565,11.38087 16,11.38087 q -0.389565,0 -0.66087,-0.278261 -0.271304,-0.278261 -0.271304,-0.667826 z M 18.991304,16 q 0,1.057391 0.758261,1.815652 0.758261,0.758261 1.815652,0.758261 1.057392,0 1.815653,-0.758261 Q 24.13913,17.057391 24.13913,16 q 0,-1.057391 -0.75826,-1.815652 -0.758261,-0.758261 -1.815653,-0.758261 -1.057391,0 -1.815652,0.758261 Q 18.991304,14.942609 18.991304,16 Z"
     id="path6"
     inkscape:connector-curvature="0" />
</svg>
