<?xml version="1.0" encoding="UTF-8" standalone="no"?>
<svg
   xmlns:dc="http://purl.org/dc/elements/1.1/"
   xmlns:cc="http://creativecommons.org/ns#"
   xmlns:rdf="http://www.w3.org/1999/02/22-rdf-syntax-ns#"
   xmlns:svg="http://www.w3.org/2000/svg"
   xmlns="http://www.w3.org/2000/svg"
   xmlns:sodipodi="http://sodipodi.sourceforge.net/DTD/sodipodi-0.dtd"
   xmlns:inkscape="http://www.inkscape.org/namespaces/inkscape"
   version="1.1"
   width="32px"
   height="32px"
   id="svg2"
   inkscape:version="0.91 r13725"
   sodipodi:docname="euro.svg">
  <metadata
     id="metadata12">
    <rdf:RDF>
      <cc:Work
         rdf:about="">
        <dc:format>image/svg+xml</dc:format>
        <dc:type
           rdf:resource="http://purl.org/dc/dcmitype/StillImage" />
      </cc:Work>
    </rdf:RDF>
  </metadata>
  <defs
     id="defs10" />
  <sodipodi:namedview
     pagecolor="#ffffff"
     bordercolor="#666666"
     borderopacity="1"
     objecttolerance="10"
     gridtolerance="10"
     guidetolerance="10"
     inkscape:pageopacity="0"
     inkscape:pageshadow="2"
     inkscape:window-width="1280"
     inkscape:window-height="972"
     id="namedview8"
     showgrid="false"
     inkscape:zoom="7.375"
     inkscape:cx="-0.20338983"
     inkscape:cy="16"
     inkscape:window-x="-8"
     inkscape:window-y="-8"
     inkscape:window-maximized="1"
     inkscape:current-layer="svg2" />
  <g
     id="g4"
     transform="matrix(0.01410935,0,0,-0.01410935,-4.5279101,21.06134)" />
  <path
     d="m 1.2204385,21.008818 1.1287478,-4.232804 3.7107582,0 q -0.01411,-0.338624 -0.02116,-0.86067 -0.0071,-0.522046 0.0071,-0.550265 l -4.825397,0 1.1287478,-4.232804 4.2328042,0 Q 7.7107385,5.8130511 10.948833,2.9065256 14.186928,0 19.1252,0 q 2.201058,0 4.183421,0.7548501 1.982364,0.7548501 3.541447,2.1516755 1.559083,1.3968254 2.58201,3.5202822 1.022928,2.1234568 1.276896,4.7054672 l -5.671958,0 Q 24.75483,8.973545 23.01938,7.3439153 21.28393,5.7142857 19.1252,5.7142857 q -2.765432,0 -4.289241,1.1781305 -1.523809,1.1781305 -2.243387,4.2398588 l 9.509701,0 -1.128749,4.232804 -9.0582,0 q -0.01411,0 -0.01411,0.261023 0,0.261023 0.0071,0.613757 0.0071,0.352734 0.02116,0.536155 l 8.761903,0 -1.128747,4.232804 -6.786596,0 q 0.409171,1.100529 0.973545,2.017637 0.564373,0.917108 1.333333,1.671958 0.768959,0.75485 1.805996,1.17813 1.037037,0.423281 2.236332,0.423281 2.638448,0 4.141093,-1.73545 1.502646,-1.73545 1.84127,-4.96649 l 5.671959,0 q -0.22575,2.638448 -1.164021,4.917107 -0.938272,2.27866 -2.433863,3.936508 -1.495591,1.657848 -3.576719,2.603175 Q 21.523789,32 19.1252,32 16.75483,32 14.68781,31.160494 12.620791,30.320988 11.068763,28.825397 9.5167345,27.329806 8.4091515,25.347443 7.3015675,23.365079 6.6948655,21.008818 l -5.474427,0 z"
     id="path6"
     inkscape:connector-curvature="0" />
</svg>
