<?xml version="1.0" encoding="UTF-8" standalone="no"?>
<svg
   xmlns:dc="http://purl.org/dc/elements/1.1/"
   xmlns:cc="http://creativecommons.org/ns#"
   xmlns:rdf="http://www.w3.org/1999/02/22-rdf-syntax-ns#"
   xmlns:svg="http://www.w3.org/2000/svg"
   xmlns="http://www.w3.org/2000/svg"
   xmlns:sodipodi="http://sodipodi.sourceforge.net/DTD/sodipodi-0.dtd"
   xmlns:inkscape="http://www.inkscape.org/namespaces/inkscape"
   version="1.1"
   width="32px"
   height="32px"
   id="svg2"
   inkscape:version="0.91 r13725"
   sodipodi:docname="eye_close.svg">
  <metadata
     id="metadata12">
    <rdf:RDF>
      <cc:Work
         rdf:about="">
        <dc:format>image/svg+xml</dc:format>
        <dc:type
           rdf:resource="http://purl.org/dc/dcmitype/StillImage" />
      </cc:Work>
    </rdf:RDF>
  </metadata>
  <defs
     id="defs10" />
  <sodipodi:namedview
     pagecolor="#ffffff"
     bordercolor="#666666"
     borderopacity="1"
     objecttolerance="10"
     gridtolerance="10"
     guidetolerance="10"
     inkscape:pageopacity="0"
     inkscape:pageshadow="2"
     inkscape:window-width="1280"
     inkscape:window-height="972"
     id="namedview8"
     showgrid="false"
     inkscape:zoom="7.375"
     inkscape:cx="-0.20338983"
     inkscape:cy="16"
     inkscape:window-x="-8"
     inkscape:window-y="-8"
     inkscape:window-maximized="1"
     inkscape:current-layer="svg2" />
  <g
     id="g4"
     transform="matrix(0.01075992,0,0,-0.01075992,2.7224681,23.696032)" />
  <path
     d="M 0,16.333557 Q 0.06456,16.215198 0.1990585,16 0.3335575,15.784801 0.801614,15.133826 1.2696705,14.482851 1.7969065,13.848016 2.3241426,13.213181 3.1849361,12.352387 4.0457297,11.491594 4.9710827,10.754539 5.8964358,10.017485 7.1445864,9.2642906 8.3927371,8.5110962 9.710827,7.9784801 11.028917,7.4458641 12.664425,7.1123067 14.299933,6.7787492 16,6.7787492 q 2.087424,0 4.486886,0.656355 l 1.743107,-4.3470073 2.67922,0 -10.103564,25.8238061 -2.70074,0 1.786147,-4.648285 Q 12.363147,24.0269 10.765299,23.467384 9.167451,22.907868 7.8439812,22.192333 6.5205111,21.476799 5.2777404,20.664425 4.0349697,19.852051 3.0988568,19.093477 2.1627438,18.334902 1.4472091,17.710827 0.7316745,17.086752 0.3658373,16.710155 Z m 3.0127774,-0.02152 Q 4.2286483,17.431069 5.9771352,18.6577 7.7256221,19.884331 9.813046,20.798924 8.6509751,19.604573 8.00538,18.049764 7.3597848,16.494956 7.3597848,14.773369 q 0,-0.720915 0.139879,-1.506389 -2.66846,1.38803 -4.4868864,3.045057 z M 9.565568,14.773369 q 0,2.410222 1.581708,4.212508 1.581709,1.802287 3.927371,2.146604 l 0.817754,-2.065904 q -1.753867,-0.04304 -2.980498,-1.29119 -1.226631,-1.248151 -1.226631,-3.002018 0,-1.086752 0.505717,-2.022865 0.505716,-0.936113 1.366509,-1.527908 -1.624747,0.247478 -3.421654,0.893073 -0.570276,1.258911 -0.570276,2.6577 z m 3.443174,1.151311 q 0.387358,1.022193 1.269671,1.570949 l 0.785474,-0.785474 Q 14.579691,16.473436 14.267653,16.03766 13.955615,15.601883 13.880296,15.053127 Z m 5.197041,8.231339 1.667788,-4.250168 q 1.183591,-0.903834 1.872226,-2.248824 0.688635,-1.34499 0.688635,-2.883658 0,-0.527236 -0.107599,-1.140551 l 1.861466,-4.7666446 q 1.054472,0.5702758 2.055144,1.2965706 1.000673,0.726294 1.759247,1.420309 0.758574,0.694015 1.425689,1.398789 0.667115,0.704775 1.124412,1.291191 0.457296,0.586415 0.796234,1.049092 0.338937,0.462676 0.489576,0.720915 L 32,16.312037 q -0.129119,0.139879 -0.376597,0.381978 -0.247478,0.242098 -1.049092,0.957632 -0.801614,0.715535 -1.651648,1.38265 -0.850034,0.667115 -2.141224,1.522529 -1.29119,0.855413 -2.571621,1.527908 -1.28043,0.672495 -2.878278,1.248151 -1.597848,0.575656 -3.125757,0.823134 z m 3.873571,-3.249496 q 2.281103,-0.914593 4.234029,-2.205783 1.952925,-1.291191 3.136516,-2.388703 -0.774714,-0.699394 -2.082044,-1.560188 -1.30733,-0.860793 -2.889039,-1.613988 0.161399,0.785474 0.161399,1.635508 0,1.764627 -0.677875,3.351715 -0.677875,1.587088 -1.882986,2.781439 z"
     id="path6"
     inkscape:connector-curvature="0" />
</svg>
