<?xml version="1.0" encoding="UTF-8" standalone="no"?>
<svg
   xmlns:dc="http://purl.org/dc/elements/1.1/"
   xmlns:cc="http://creativecommons.org/ns#"
   xmlns:rdf="http://www.w3.org/1999/02/22-rdf-syntax-ns#"
   xmlns:svg="http://www.w3.org/2000/svg"
   xmlns="http://www.w3.org/2000/svg"
   xmlns:sodipodi="http://sodipodi.sourceforge.net/DTD/sodipodi-0.dtd"
   xmlns:inkscape="http://www.inkscape.org/namespaces/inkscape"
   version="1.1"
   width="32px"
   height="32px"
   id="svg2"
   inkscape:version="0.91 r13725"
   sodipodi:docname="eye_open.svg">
  <metadata
     id="metadata12">
    <rdf:RDF>
      <cc:Work
         rdf:about="">
        <dc:format>image/svg+xml</dc:format>
        <dc:type
           rdf:resource="http://purl.org/dc/dcmitype/StillImage" />
      </cc:Work>
    </rdf:RDF>
  </metadata>
  <defs
     id="defs10" />
  <sodipodi:namedview
     pagecolor="#ffffff"
     bordercolor="#666666"
     borderopacity="1"
     objecttolerance="10"
     gridtolerance="10"
     guidetolerance="10"
     inkscape:pageopacity="0"
     inkscape:pageshadow="2"
     inkscape:window-width="1280"
     inkscape:window-height="972"
     id="namedview8"
     showgrid="false"
     inkscape:zoom="7.375"
     inkscape:cx="-0.20338983"
     inkscape:cy="16"
     inkscape:window-x="-8"
     inkscape:window-y="-8"
     inkscape:window-maximized="1"
     inkscape:current-layer="svg2" />
  <g
     id="g4"
     transform="matrix(0.01075992,0,0,-0.01075992,2.6256288,20.13351)" />
  <path
     d="M 0,16.774714 Q 0.06456,16.656355 0.1990585,16.441157 0.3335575,16.225958 0.801614,15.569603 1.2696705,14.913248 1.7969065,14.278413 2.3241426,13.643578 3.1849361,12.782784 4.0457297,11.921991 4.9657028,11.179556 5.8856759,10.437122 7.1392065,9.6785474 8.3927371,8.9199731 9.705447,8.3873571 11.018157,7.8547411 12.659045,7.5211836 14.299933,7.1876261 16,7.1876261 q 2.162744,0 4.212508,0.527236 2.049765,0.5272361 3.599193,1.3718897 1.549429,0.8446537 2.921319,1.8722262 1.371889,1.027572 2.313382,2.049765 0.941493,1.022192 1.624748,1.866846 0.683255,0.844653 1.006052,1.371889 L 32,16.774714 q -0.161399,0.172159 -0.451917,0.457297 -0.290517,0.285138 -1.24815,1.124411 -0.957633,0.839274 -1.963686,1.597848 -1.006052,0.758575 -2.512441,1.683928 -1.506388,0.925353 -2.985877,1.592468 -1.479489,0.667115 -3.303296,1.124411 Q 17.710827,24.812374 16,24.812374 q -1.34499,0 -2.754539,-0.274378 -1.40955,-0.274378 -2.6577,-0.742434 Q 9.33961,23.327505 8.1183591,22.72495 6.8971083,22.122394 5.864156,21.455279 4.8312038,20.788164 3.9058507,20.126429 2.9804976,19.464694 2.2757229,18.862139 1.5709482,18.259583 1.0544721,17.791527 0.537996,17.32347 0.268998,17.043712 Z m 3.0127774,0 q 3.206456,2.915938 6.8002686,4.476127 -1.1620709,-1.183591 -1.807666,-2.7384 -0.6455952,-1.554808 -0.6455952,-3.287155 0,-0.667115 0.129119,-1.495629 -2.6577,1.38803 -4.4761264,3.045057 z M 9.554808,15.225286 q 0,1.753867 0.860794,3.233356 0.860793,1.479489 2.345662,2.340282 1.484869,0.860794 3.238736,0.860794 1.743107,0 3.227976,-0.860794 1.484869,-0.860793 2.345662,-2.340282 0.860794,-1.479489 0.860794,-3.233356 0,-1.38803 -0.602556,-2.7115 -1.710827,-0.581035 -3.400134,-0.839273 0.860793,0.591795 1.36651,1.527908 0.505716,0.936113 0.505716,2.022865 0,1.786147 -1.258911,3.050437 -1.25891,1.264291 -3.045057,1.264291 -1.786147,0 -3.050437,-1.264291 -1.264291,-1.26429 -1.264291,-3.050437 0,-1.086752 0.505717,-2.017485 0.505716,-0.930733 1.366509,-1.533288 -1.646267,0.268998 -3.421654,0.903833 -0.581036,1.28043 -0.581036,2.64694 z m 3.453934,1.162071 q 0.398117,1.022193 1.258911,1.570948 l 0.796234,-0.785474 Q 14.579691,16.936113 14.267653,16.494956 13.955615,16.0538 13.880296,15.515804 Z m 9.070612,4.981843 q 2.270343,-0.914593 4.217889,-2.205784 1.947545,-1.29119 3.152656,-2.388702 -0.774714,-0.699394 -2.082044,-1.560188 -1.30733,-0.860794 -2.889039,-1.613988 0.161399,0.882313 0.161399,1.624748 0,1.764627 -0.677875,3.351715 -0.677875,1.587088 -1.882986,2.792199 z"
     id="path6"
     inkscape:connector-curvature="0" />
</svg>
