<?xml version="1.0" encoding="UTF-8" standalone="no"?>
<svg
   xmlns:dc="http://purl.org/dc/elements/1.1/"
   xmlns:cc="http://creativecommons.org/ns#"
   xmlns:rdf="http://www.w3.org/1999/02/22-rdf-syntax-ns#"
   xmlns:svg="http://www.w3.org/2000/svg"
   xmlns="http://www.w3.org/2000/svg"
   xmlns:sodipodi="http://sodipodi.sourceforge.net/DTD/sodipodi-0.dtd"
   xmlns:inkscape="http://www.inkscape.org/namespaces/inkscape"
   version="1.1"
   width="32px"
   height="32px"
   id="svg2"
   inkscape:version="0.91 r13725"
   sodipodi:docname="fabric.svg">
  <metadata
     id="metadata12">
    <rdf:RDF>
      <cc:Work
         rdf:about="">
        <dc:format>image/svg+xml</dc:format>
        <dc:type
           rdf:resource="http://purl.org/dc/dcmitype/StillImage" />
      </cc:Work>
    </rdf:RDF>
  </metadata>
  <defs
     id="defs10" />
  <sodipodi:namedview
     pagecolor="#ffffff"
     bordercolor="#666666"
     borderopacity="1"
     objecttolerance="10"
     gridtolerance="10"
     guidetolerance="10"
     inkscape:pageopacity="0"
     inkscape:pageshadow="2"
     inkscape:window-width="1280"
     inkscape:window-height="972"
     id="namedview8"
     showgrid="false"
     inkscape:zoom="7.375"
     inkscape:cx="-0.20338983"
     inkscape:cy="16"
     inkscape:window-x="-8"
     inkscape:window-y="-8"
     inkscape:window-maximized="1"
     inkscape:current-layer="svg2" />
  <g
     id="g4"
     transform="matrix(0.01230769,0,0,-0.01230769,-0.07692308,21.576923)" />
  <path
     d="M 0,25.230769 3.0769231,22.153846 0,19.076923 3.0769231,16 0,12.923077 3.0769231,9.8461538 0,6.7692307 3.6923077,3.0769231 6.7692308,6.1538461 9.846154,3.0769231 12.923077,6.1538461 16,3.0769231 l 3.076923,3.076923 3.076923,-3.076923 3.076923,3.076923 3.076923,-3.076923 L 32,6.7692307 28.923077,9.8461538 32,12.923077 28.923077,16 32,19.076923 28.923077,22.153846 32,25.230769 28.307692,28.923077 25.230769,25.846154 22.153846,28.923077 19.076923,25.846154 16,28.923077 12.923077,25.846154 9.846154,28.923077 6.7692308,25.846154 3.6923077,28.923077 Z"
     id="path6"
     inkscape:connector-curvature="0" />
</svg>
