<?xml version="1.0" encoding="UTF-8" standalone="no"?>
<svg
   xmlns:dc="http://purl.org/dc/elements/1.1/"
   xmlns:cc="http://creativecommons.org/ns#"
   xmlns:rdf="http://www.w3.org/1999/02/22-rdf-syntax-ns#"
   xmlns:svg="http://www.w3.org/2000/svg"
   xmlns="http://www.w3.org/2000/svg"
   xmlns:sodipodi="http://sodipodi.sourceforge.net/DTD/sodipodi-0.dtd"
   xmlns:inkscape="http://www.inkscape.org/namespaces/inkscape"
   version="1.1"
   width="32px"
   height="32px"
   id="svg2"
   inkscape:version="0.91 r13725"
   sodipodi:docname="facetime_video.svg">
  <metadata
     id="metadata12">
    <rdf:RDF>
      <cc:Work
         rdf:about="">
        <dc:format>image/svg+xml</dc:format>
        <dc:type
           rdf:resource="http://purl.org/dc/dcmitype/StillImage" />
      </cc:Work>
    </rdf:RDF>
  </metadata>
  <defs
     id="defs10" />
  <sodipodi:namedview
     pagecolor="#ffffff"
     bordercolor="#666666"
     borderopacity="1"
     objecttolerance="10"
     gridtolerance="10"
     guidetolerance="10"
     inkscape:pageopacity="0"
     inkscape:pageshadow="2"
     inkscape:window-width="1280"
     inkscape:window-height="972"
     id="namedview8"
     showgrid="false"
     inkscape:zoom="7.375"
     inkscape:cx="-0.20338983"
     inkscape:cy="16"
     inkscape:window-x="-8"
     inkscape:window-y="-8"
     inkscape:window-maximized="1"
     inkscape:current-layer="svg2" />
  <g
     id="g4"
     transform="matrix(0.01333333,0,0,-0.01333333,-1.3333333,18.666667)" />
  <path
     d="M 0,24.666667 0,7.3333333 Q 0,6.5066666 0.5866667,5.9199999 1.1733333,5.3333333 2,5.3333333 l 18.666667,0 q 0.826666,0 1.413333,0.5866666 0.586667,0.5866667 0.586667,1.4133334 l 0,7.5066667 8.826666,-7.0666667 q 0.213334,-0.1733334 0.36,-0.1066667 Q 32,7.7333333 32,7.9999999 L 32,24 q 0,0.28 -0.146667,0.346667 -0.146666,0.06667 -0.36,-0.12 L 22.666667,17.16 l 0,7.506667 q 0,0.826667 -0.586667,1.413333 -0.586667,0.586667 -1.413333,0.586667 L 2,26.666667 Q 1.1733333,26.666667 0.5866667,26.08 0,25.493334 0,24.666667 Z"
     id="path6"
     inkscape:connector-curvature="0" />
</svg>
