<?xml version="1.0" encoding="UTF-8" standalone="no"?>
<svg
   xmlns:dc="http://purl.org/dc/elements/1.1/"
   xmlns:cc="http://creativecommons.org/ns#"
   xmlns:rdf="http://www.w3.org/1999/02/22-rdf-syntax-ns#"
   xmlns:svg="http://www.w3.org/2000/svg"
   xmlns="http://www.w3.org/2000/svg"
   xmlns:sodipodi="http://sodipodi.sourceforge.net/DTD/sodipodi-0.dtd"
   xmlns:inkscape="http://www.inkscape.org/namespaces/inkscape"
   version="1.1"
   width="32px"
   height="32px"
   id="svg2"
   inkscape:version="0.91 r13725"
   sodipodi:docname="factory.svg">
  <metadata
     id="metadata12">
    <rdf:RDF>
      <cc:Work
         rdf:about="">
        <dc:format>image/svg+xml</dc:format>
        <dc:type
           rdf:resource="http://purl.org/dc/dcmitype/StillImage" />
      </cc:Work>
    </rdf:RDF>
  </metadata>
  <defs
     id="defs10" />
  <sodipodi:namedview
     pagecolor="#ffffff"
     bordercolor="#666666"
     borderopacity="1"
     objecttolerance="10"
     gridtolerance="10"
     guidetolerance="10"
     inkscape:pageopacity="0"
     inkscape:pageshadow="2"
     inkscape:window-width="1280"
     inkscape:window-height="972"
     id="namedview8"
     showgrid="false"
     inkscape:zoom="7.375"
     inkscape:cx="-0.20338983"
     inkscape:cy="16"
     inkscape:window-x="-8"
     inkscape:window-y="-8"
     inkscape:window-maximized="1"
     inkscape:current-layer="svg2" />
  <g
     id="g4"
     transform="matrix(0.01333333,0,0,-0.01333333,-1.3333333,21.5)" />
  <path
     d="m 0,31.333333 32,0 L 32,30 q 0,-0.546667 -0.393333,-0.94 -0.393334,-0.393334 -0.94,-0.393334 l 0,-9.333333 -9.333334,0 0,-4 -19.9999997,0 0,13.333333 q -0.5466666,0 -0.94,0.393334 Q 0,29.453333 0,30 l 0,1.333333 z M 4,20.666666 4,18 l 2.666667,0 0,2.666666 -2.666667,0 z M 4,14 4,7.3333333 l 4,0 L 8,14 4,14 Z M 8,20.666666 8,18 l 2.666667,0 0,2.666666 -2.666667,0 z M 9.333333,14 l 5.333334,0 0,-13.33333335 -5.333334,0 L 9.333333,14 Z M 12,20.666666 12,18 l 2.666667,0 0,2.666666 -2.666667,0 z m 4,0 L 16,18 l 2.666667,0 0,2.666666 -2.666667,0 z M 22.666667,22 l 0,-1.333334 1.333333,0 L 24,22 22.666667,22 Z m 2.666666,0 0,-1.333334 1.333334,0 0,1.333334 -1.333334,0 z M 28,22 l 0,-1.333334 1.333333,0 0,1.333334 L 28,22 Z"
     id="path6"
     inkscape:connector-curvature="0" />
</svg>
