<?xml version="1.0" encoding="UTF-8" standalone="no"?>
<svg
   xmlns:dc="http://purl.org/dc/elements/1.1/"
   xmlns:cc="http://creativecommons.org/ns#"
   xmlns:rdf="http://www.w3.org/1999/02/22-rdf-syntax-ns#"
   xmlns:svg="http://www.w3.org/2000/svg"
   xmlns="http://www.w3.org/2000/svg"
   xmlns:sodipodi="http://sodipodi.sourceforge.net/DTD/sodipodi-0.dtd"
   xmlns:inkscape="http://www.inkscape.org/namespaces/inkscape"
   version="1.1"
   width="32px"
   height="32px"
   id="svg2"
   inkscape:version="0.91 r13725"
   sodipodi:docname="fast_backward.svg">
  <metadata
     id="metadata12">
    <rdf:RDF>
      <cc:Work
         rdf:about="">
        <dc:format>image/svg+xml</dc:format>
        <dc:type
           rdf:resource="http://purl.org/dc/dcmitype/StillImage" />
      </cc:Work>
    </rdf:RDF>
  </metadata>
  <defs
     id="defs10" />
  <sodipodi:namedview
     pagecolor="#ffffff"
     bordercolor="#666666"
     borderopacity="1"
     objecttolerance="10"
     gridtolerance="10"
     guidetolerance="10"
     inkscape:pageopacity="0"
     inkscape:pageshadow="2"
     inkscape:window-width="1280"
     inkscape:window-height="972"
     id="namedview8"
     showgrid="false"
     inkscape:zoom="7.375"
     inkscape:cx="-0.20338983"
     inkscape:cy="16"
     inkscape:window-x="-8"
     inkscape:window-y="-8"
     inkscape:window-maximized="1"
     inkscape:current-layer="svg2" />
  <g
     id="g4"
     transform="matrix(0.0128,0,0,0.0128,-0.98,7.08)" />
  <path
     d="m 0,5.12 0,21.76 q 0,0.256 0.1856,0.448 0.1856,0.192 0.4544,0.192 l 2.56,0 q 0.2688,0 0.4544,-0.192 Q 3.84,27.136 3.84,26.88 l 0,-9.9072 13.376,10.432 q 0.2176,0.1664 0.4608,0.0896 0.2432,-0.0768 0.2432,-0.3328 l 0,-10.1888 13.376,10.432 q 0.2176,0.1664 0.4608,0.0896 Q 32,27.4176 32,27.1616 L 32,4.864 Q 32,4.5952 31.7568,4.5184 31.5136,4.4416 31.296,4.608 L 17.92,15.0912 17.92,4.864 Q 17.92,4.5952 17.6768,4.5184 17.4336,4.4416 17.216,4.608 L 3.84,15.0912 3.84,5.12 Q 3.84,4.8512 3.6544,4.6656 3.4688,4.48 3.2,4.48 l -2.56,0 Q 0.3712,4.48 0.1856,4.6656 0,4.8512 0,5.12 Z"
     id="path6"
     inkscape:connector-curvature="0" />
</svg>
