<?xml version="1.0" encoding="UTF-8" standalone="no"?>
<svg
   xmlns:dc="http://purl.org/dc/elements/1.1/"
   xmlns:cc="http://creativecommons.org/ns#"
   xmlns:rdf="http://www.w3.org/1999/02/22-rdf-syntax-ns#"
   xmlns:svg="http://www.w3.org/2000/svg"
   xmlns="http://www.w3.org/2000/svg"
   xmlns:sodipodi="http://sodipodi.sourceforge.net/DTD/sodipodi-0.dtd"
   xmlns:inkscape="http://www.inkscape.org/namespaces/inkscape"
   version="1.1"
   width="32px"
   height="32px"
   id="svg2"
   inkscape:version="0.91 r13725"
   sodipodi:docname="fast_forward.svg">
  <metadata
     id="metadata12">
    <rdf:RDF>
      <cc:Work
         rdf:about="">
        <dc:format>image/svg+xml</dc:format>
        <dc:type
           rdf:resource="http://purl.org/dc/dcmitype/StillImage" />
      </cc:Work>
    </rdf:RDF>
  </metadata>
  <defs
     id="defs10" />
  <sodipodi:namedview
     pagecolor="#ffffff"
     bordercolor="#666666"
     borderopacity="1"
     objecttolerance="10"
     gridtolerance="10"
     guidetolerance="10"
     inkscape:pageopacity="0"
     inkscape:pageshadow="2"
     inkscape:window-width="1280"
     inkscape:window-height="972"
     id="namedview8"
     showgrid="false"
     inkscape:zoom="7.375"
     inkscape:cx="-0.20338983"
     inkscape:cy="16"
     inkscape:window-x="-8"
     inkscape:window-y="-8"
     inkscape:window-maximized="1"
     inkscape:current-layer="svg2" />
  <g
     id="g4"
     transform="matrix(0.0128,0,0,0.0128,0.3,7.08)" />
  <path
     d="m 0,4.864 0,22.2976 q 0,0.256 0.2432,0.3328 0.2432,0.0768 0.4608,-0.0896 l 13.376,-10.432 0,10.1888 q 0,0.256 0.2432,0.3328 0.2432,0.0768 0.4608,-0.0896 l 13.376,-10.432 0,9.9072 q 0,0.256 0.1856,0.448 0.1856,0.192 0.4544,0.192 l 2.56,0 q 0.2688,0 0.4544,-0.1856 Q 32,27.1488 32,26.88 L 32,5.12 Q 32,4.8512 31.8144,4.6656 31.6288,4.48 31.36,4.48 l -2.56,0 q -0.2688,0 -0.4544,0.1856 Q 28.16,4.8512 28.16,5.12 l 0,9.9712 L 14.784,4.608 Q 14.5664,4.4416 14.3232,4.5184 14.08,4.5952 14.08,4.864 l 0,10.2272 L 0.704,4.608 Q 0.4864,4.4416 0.2432,4.5184 0,4.5952 0,4.864 Z"
     id="path6"
     inkscape:connector-curvature="0" />
</svg>
