<?xml version="1.0" encoding="UTF-8" standalone="no"?>
<svg
   xmlns:dc="http://purl.org/dc/elements/1.1/"
   xmlns:cc="http://creativecommons.org/ns#"
   xmlns:rdf="http://www.w3.org/1999/02/22-rdf-syntax-ns#"
   xmlns:svg="http://www.w3.org/2000/svg"
   xmlns="http://www.w3.org/2000/svg"
   xmlns:sodipodi="http://sodipodi.sourceforge.net/DTD/sodipodi-0.dtd"
   xmlns:inkscape="http://www.inkscape.org/namespaces/inkscape"
   version="1.1"
   width="32px"
   height="32px"
   id="svg2"
   inkscape:version="0.91 r13725"
   sodipodi:docname="fast_food.svg">
  <metadata
     id="metadata12">
    <rdf:RDF>
      <cc:Work
         rdf:about="">
        <dc:format>image/svg+xml</dc:format>
        <dc:type
           rdf:resource="http://purl.org/dc/dcmitype/StillImage" />
      </cc:Work>
    </rdf:RDF>
  </metadata>
  <defs
     id="defs10" />
  <sodipodi:namedview
     pagecolor="#ffffff"
     bordercolor="#666666"
     borderopacity="1"
     objecttolerance="10"
     gridtolerance="10"
     guidetolerance="10"
     inkscape:pageopacity="0"
     inkscape:pageshadow="2"
     inkscape:window-width="1280"
     inkscape:window-height="972"
     id="namedview8"
     showgrid="false"
     inkscape:zoom="7.375"
     inkscape:cx="-0.20338983"
     inkscape:cy="16"
     inkscape:window-x="-8"
     inkscape:window-y="-8"
     inkscape:window-maximized="1"
     inkscape:current-layer="svg2" />
  <g
     id="g4"
     transform="matrix(0.01142857,0,0,-0.01142857,0.85714286,23.428571)" />
  <path
     d="m 0,24.571429 0,-1.12 q 0,-0.228572 0.1657143,-0.4 Q 0.3314286,22.88 0.5714286,22.88 l 14.8571424,0 q 0.24,0 0.405715,0.171429 Q 16,23.222857 16,23.451429 l 0,1.12 q 0,0.24 -0.165714,0.405714 -0.165715,0.165714 -0.405715,0.165714 l -14.8571424,0 q -0.24,0 -0.4057143,-0.165714 Q 0,24.811429 0,24.571429 Z m 0.5714286,1.714286 14.8571424,0 q 0,1.417142 -1.005714,2.422857 Q 13.417143,29.714286 12,29.714286 l -8,0 q -1.4171429,0 -2.4228571,-1.005714 -1.0057143,-1.005715 -1.0057143,-2.422857 z m 0,-4.594286 q 0,-0.96 0.4457143,-1.771429 Q 1.4628571,19.108572 2.3485714,18.48 3.2342857,17.851429 4.68,17.497143 6.1257143,17.142857 8,17.142857 q 1.874286,0 3.32,0.354286 1.445714,0.354286 2.331429,0.982857 0.885714,0.628572 1.331428,1.44 0.445714,0.811429 0.445714,1.771429 l -14.8571424,0 z M 14.88,10.285714 14.88,8 l 8.205714,0 1.382857,-5.7142857 7.531429,0 0,2.2514285 -5.565714,0 L 25.714286,8 32,8 l 0,2.285714 -1.325714,0 -2.057143,19.428572 -10.331429,0 -2.08,-19.428572 -1.325714,0 z"
     id="path6"
     inkscape:connector-curvature="0" />
</svg>
