<?xml version="1.0" encoding="UTF-8" standalone="no"?>
<svg
   xmlns:dc="http://purl.org/dc/elements/1.1/"
   xmlns:cc="http://creativecommons.org/ns#"
   xmlns:rdf="http://www.w3.org/1999/02/22-rdf-syntax-ns#"
   xmlns:svg="http://www.w3.org/2000/svg"
   xmlns="http://www.w3.org/2000/svg"
   xmlns:sodipodi="http://sodipodi.sourceforge.net/DTD/sodipodi-0.dtd"
   xmlns:inkscape="http://www.inkscape.org/namespaces/inkscape"
   version="1.1"
   width="32px"
   height="32px"
   id="svg2"
   inkscape:version="0.91 r13725"
   sodipodi:docname="fax.svg">
  <metadata
     id="metadata12">
    <rdf:RDF>
      <cc:Work
         rdf:about="">
        <dc:format>image/svg+xml</dc:format>
        <dc:type
           rdf:resource="http://purl.org/dc/dcmitype/StillImage" />
      </cc:Work>
    </rdf:RDF>
  </metadata>
  <defs
     id="defs10" />
  <sodipodi:namedview
     pagecolor="#ffffff"
     bordercolor="#666666"
     borderopacity="1"
     objecttolerance="10"
     gridtolerance="10"
     guidetolerance="10"
     inkscape:pageopacity="0"
     inkscape:pageshadow="2"
     inkscape:window-width="1280"
     inkscape:window-height="972"
     id="namedview8"
     showgrid="false"
     inkscape:zoom="7.375"
     inkscape:cx="-0.20338983"
     inkscape:cy="16"
     inkscape:window-x="-8"
     inkscape:window-y="-8"
     inkscape:window-maximized="1"
     inkscape:current-layer="svg2" />
  <g
     id="g4"
     transform="matrix(0.01333333,0,0,-0.01333333,-1.3333333,22.833333)" />
  <path
     d="M 0,19.96 0,5.3333333 Q 0,5.0666666 0.2,4.8666666 0.4,4.6666667 0.6666667,4.6666667 l 3.96,0 q 0.28,0 0.4933333,0.1999999 0.2133333,0.2 0.2133333,0.4666667 l 0,4.0000001 q 0,0.28 0.1733334,0.4733333 Q 5.68,10 5.96,10 L 26,10 q 0.28,0 0.473333,-0.1933333 0.193334,-0.1933333 0.193334,-0.4733333 l 0,-4.0000001 q 0,-0.2666667 0.2,-0.4666667 0.2,-0.1999999 0.466666,-0.1999999 l 4,0 q 0.266667,0 0.466667,0.1999999 0.2,0.2 0.2,0.4666667 L 32,19.96 q 0,0.28 -0.2,0.493333 -0.2,0.213333 -0.466667,0.213333 l -3.84,0 q -0.266666,0 -0.513333,-0.2 -0.246667,-0.2 -0.313333,-0.466666 l 0,-4.013334 Q 26.6,15.72 26.353333,15.526666 26.106667,15.333333 25.84,15.333333 l -19.68,0 q -0.2666667,0 -0.5133333,0.193333 Q 5.4,15.72 5.3333333,15.986666 l 0,4.013334 Q 5.2666667,20.266666 5.02,20.466666 q -0.2466667,0.2 -0.5133333,0.2 l -3.84,0 Q 0.4,20.666666 0.2,20.453333 0,20.24 0,19.96 Z m 6.666667,11.373333 0,-14.666667 18.666666,0 0,14.666667 -18.666666,0 z m 0,-23.3333329 0,-6.6666667 q 0,-0.2666667 0.2,-0.46666675 0.2,-0.2 0.466666,-0.2 l 17.333334,0 q 0.28,0 0.473333,0.2 0.193333,0.20000005 0.193333,0.46666675 l 0,6.6666667 q 0,0.28 -0.193333,0.4733333 -0.193333,0.1933333 -0.473333,0.1933333 l -17.333334,0 q -0.266666,0 -0.466666,-0.1933333 -0.2,-0.1933333 -0.2,-0.4733333 z m 2.666666,20.6666659 9.333334,0 0,-1.333333 -9.333334,0 0,1.333333 z M 9.333333,26 24,26 l 0,-1.333334 -14.666667,0 0,1.333334 z m 0,-2.666667 12,0 0,-1.333333 -12,0 0,1.333333 z m 0,-2.666667 4,0 0,-1.333333 -4,0 0,1.333333 z"
     id="path6"
     inkscape:connector-curvature="0" />
</svg>
