<?xml version="1.0" encoding="UTF-8" standalone="no"?>
<svg
   xmlns:dc="http://purl.org/dc/elements/1.1/"
   xmlns:cc="http://creativecommons.org/ns#"
   xmlns:rdf="http://www.w3.org/1999/02/22-rdf-syntax-ns#"
   xmlns:svg="http://www.w3.org/2000/svg"
   xmlns="http://www.w3.org/2000/svg"
   xmlns:sodipodi="http://sodipodi.sourceforge.net/DTD/sodipodi-0.dtd"
   xmlns:inkscape="http://www.inkscape.org/namespaces/inkscape"
   version="1.1"
   width="32px"
   height="32px"
   id="svg2"
   inkscape:version="0.91 r13725"
   sodipodi:docname="female.svg">
  <metadata
     id="metadata12">
    <rdf:RDF>
      <cc:Work
         rdf:about="">
        <dc:format>image/svg+xml</dc:format>
        <dc:type
           rdf:resource="http://purl.org/dc/dcmitype/StillImage" />
      </cc:Work>
    </rdf:RDF>
  </metadata>
  <defs
     id="defs10" />
  <sodipodi:namedview
     pagecolor="#ffffff"
     bordercolor="#666666"
     borderopacity="1"
     objecttolerance="10"
     gridtolerance="10"
     guidetolerance="10"
     inkscape:pageopacity="0"
     inkscape:pageshadow="2"
     inkscape:window-width="1280"
     inkscape:window-height="972"
     id="namedview8"
     showgrid="false"
     inkscape:zoom="7.375"
     inkscape:cx="-0.20338983"
     inkscape:cy="16"
     inkscape:window-x="-8"
     inkscape:window-y="-8"
     inkscape:window-maximized="1"
     inkscape:current-layer="svg2" />
  <g
     id="g4"
     transform="matrix(0.01225812,0,0,-0.01224178,-7.6177923,23.059288)" />
  <path
     d="m 6.8186685,9.03443 q 0,-1.8362663 0.7477452,-3.5072686 Q 8.314159,3.8561591 9.5706155,2.6442234 10.827074,1.4322877 12.530953,0.7161438 14.234831,0 16.073548,0 q 2.451624,0 4.547762,1.2119357 2.096138,1.2119358 3.328079,3.2930375 1.231942,2.0811018 1.231942,4.5294568 0,1.566947 -0.563874,3.054323 -0.563873,1.487376 -1.513877,2.625861 -0.950004,1.138485 -2.206462,1.958684 -1.256457,0.820199 -2.629366,1.162968 l 0,4.443765 3.677436,0 q 0.478067,0 0.851939,0.495791 0.373873,0.495792 0.373873,1.03443 l 0,1.65264 q 0,0.55088 -0.373873,1.095639 -0.373872,0.544759 -0.851939,0.544759 l -3.677436,0 0,3.256312 q 0,0.55088 -0.373872,1.095639 Q 17.520005,32 17.041941,32 l -2.451624,0 q -0.478067,0 -0.851939,-0.544759 -0.373873,-0.544759 -0.373873,-1.095639 l 0,-3.256312 -3.6774365,0 q -0.478066,0 -0.85194,-0.544759 -0.373872,-0.544759 -0.373872,-1.095639 l 0,-1.65264 q 0,-0.538638 0.373872,-1.03443 0.373874,-0.495791 0.85194,-0.495791 l 3.6774365,0 0,-4.517215 Q 10.557395,16.979342 8.6880315,14.54935 6.8186685,12.119357 6.8186685,9.03443 Z m 5.0503465,0 q 0,1.713849 1.213552,2.925784 Q 14.296121,13.17215 16,13.17215 q 1.703879,0 2.92356,-1.211936 1.219685,-1.211935 1.219685,-2.925784 0,-1.7138485 -1.219685,-2.9257842 Q 17.703879,4.89671 16,4.89671 q -1.703879,0 -2.917433,1.2119358 -1.213552,1.2119357 -1.213552,2.9257842 z"
     id="path6"
     inkscape:connector-curvature="0" />
</svg>
