<?xml version="1.0" encoding="UTF-8" standalone="no"?>
<svg
   xmlns:dc="http://purl.org/dc/elements/1.1/"
   xmlns:cc="http://creativecommons.org/ns#"
   xmlns:rdf="http://www.w3.org/1999/02/22-rdf-syntax-ns#"
   xmlns:svg="http://www.w3.org/2000/svg"
   xmlns="http://www.w3.org/2000/svg"
   xmlns:sodipodi="http://sodipodi.sourceforge.net/DTD/sodipodi-0.dtd"
   xmlns:inkscape="http://www.inkscape.org/namespaces/inkscape"
   version="1.1"
   width="32px"
   height="32px"
   id="svg2"
   inkscape:version="0.91 r13725"
   sodipodi:docname="file_export.svg">
  <metadata
     id="metadata12">
    <rdf:RDF>
      <cc:Work
         rdf:about="">
        <dc:format>image/svg+xml</dc:format>
        <dc:type
           rdf:resource="http://purl.org/dc/dcmitype/StillImage" />
      </cc:Work>
    </rdf:RDF>
  </metadata>
  <defs
     id="defs10" />
  <sodipodi:namedview
     pagecolor="#ffffff"
     bordercolor="#666666"
     borderopacity="1"
     objecttolerance="10"
     gridtolerance="10"
     guidetolerance="10"
     inkscape:pageopacity="0"
     inkscape:pageshadow="2"
     inkscape:window-width="1280"
     inkscape:window-height="972"
     id="namedview8"
     showgrid="false"
     inkscape:zoom="7.375"
     inkscape:cx="-0.20338983"
     inkscape:cy="16"
     inkscape:window-x="-8"
     inkscape:window-y="-8"
     inkscape:window-maximized="1"
     inkscape:current-layer="svg2" />
  <g
     id="g4"
     transform="matrix(0.01333333,0,0,-0.01333333,-4.32,22.666667)" />
  <path
     d="m 1.28,31.333333 q 0,0.28 0.1933333,0.473334 Q 1.6666667,32 1.9466667,32 l 24.0000003,0 q 0.28,0 0.473333,-0.193333 0.193333,-0.193334 0.193333,-0.473334 l 0,-5.266666 -2.4,2.026666 q -0.266666,0.213334 -0.393333,0.293334 -0.126667,0.08 -0.313333,0.146666 Q 23.32,28.6 23.093333,28.6 q -0.84,0 -1.326666,-0.593333 Q 21.28,27.413333 21.28,26.533333 L 21.28,24 12.413333,24 q -1.04,0 -1.42,-0.386667 -0.38,-0.386666 -0.38,-1.453333 l 0,-4.44 q 0,-0.973333 0.48,-1.346667 Q 11.573333,16 12.413333,16 l 8.866667,0 0,-2.373333 q 0,-0.88 0.486667,-1.473334 Q 22.253333,11.56 23.08,11.56 q 0.613333,0 1.186667,0.453333 l 2.346666,2.066667 0,-4.7466667 -8.666666,0 q -0.28,0 -0.473334,-0.1933333 Q 17.28,8.9466667 17.28,8.6666667 L 17.28,0 1.9466667,0 q -0.28,0 -0.4733334,0.2 Q 1.28,0.4 1.28,0.6666667 l 0,30.6666663 z M 11.946667,22.16 l 0,-4.146667 q 0,-0.68 0.466666,-0.68 l 10.2,0 0,-3.706666 q 0,-0.146667 0.133334,-0.193334 0.133333,-0.04667 0.24,0.06 L 30.613333,19.84 Q 30.72,19.92 30.72,20.026667 q 0,0.16 -0.133333,0.253333 l -7.573334,6.386667 q -0.12,0.09333 -0.26,0.05333 -0.14,-0.04 -0.14,-0.186667 l 0,-3.866666 -10.2,0 q -0.28,0 -0.373333,-0.106667 -0.09333,-0.106667 -0.09333,-0.4 z m 6.666666,-14.8266667 0,-7.3333333 8,8 L 19.28,8 Q 19,8 18.806667,7.8066667 18.613333,7.6133333 18.613333,7.3333333 Z"
     id="path6"
     inkscape:connector-curvature="0" />
</svg>
