<?xml version="1.0" encoding="UTF-8" standalone="no"?>
<svg
   xmlns:dc="http://purl.org/dc/elements/1.1/"
   xmlns:cc="http://creativecommons.org/ns#"
   xmlns:rdf="http://www.w3.org/1999/02/22-rdf-syntax-ns#"
   xmlns:svg="http://www.w3.org/2000/svg"
   xmlns="http://www.w3.org/2000/svg"
   xmlns:sodipodi="http://sodipodi.sourceforge.net/DTD/sodipodi-0.dtd"
   xmlns:inkscape="http://www.inkscape.org/namespaces/inkscape"
   version="1.1"
   width="32px"
   height="32px"
   id="svg2"
   inkscape:version="0.91 r13725"
   sodipodi:docname="file.svg">
  <metadata
     id="metadata12">
    <rdf:RDF>
      <cc:Work
         rdf:about="">
        <dc:format>image/svg+xml</dc:format>
        <dc:type
           rdf:resource="http://purl.org/dc/dcmitype/StillImage" />
      </cc:Work>
    </rdf:RDF>
  </metadata>
  <defs
     id="defs10" />
  <sodipodi:namedview
     pagecolor="#ffffff"
     bordercolor="#666666"
     borderopacity="1"
     objecttolerance="10"
     gridtolerance="10"
     guidetolerance="10"
     inkscape:pageopacity="0"
     inkscape:pageshadow="2"
     inkscape:window-width="1280"
     inkscape:window-height="972"
     id="namedview8"
     showgrid="false"
     inkscape:zoom="7.375"
     inkscape:cx="-0.20338983"
     inkscape:cy="16"
     inkscape:window-x="-8"
     inkscape:window-y="-8"
     inkscape:window-maximized="1"
     inkscape:current-layer="svg2" />
  <g
     id="g4"
     transform="matrix(0.01333333,0,0,-0.01333333,-6.1666667,22.666667)" />
  <path
     d="m 3.3333335,31.333333 0,-30.6666663 q 0,-0.28 0.1933333,-0.4733334 Q 3.7200002,0 4.0000002,0 l 15.3333338,0 0,8.6666667 q 0,0.28 0.193332,0.4733333 0.193334,0.1933333 0.473335,0.1933333 l 8.666666,0 0,21.9999997 q 0,0.28 -0.193333,0.473334 Q 28.280001,32 28.000001,32 L 4.0000002,32 q -0.28,0 -0.4733334,-0.193333 Q 3.3333335,31.613333 3.3333335,31.333333 Z M 20.666667,7.3333333 20.666667,0 l 8,8 -7.333333,0 Q 21.053333,8 20.860001,7.8066667 20.666667,7.6133333 20.666667,7.3333333 Z"
     id="path6"
     inkscape:connector-curvature="0" />
</svg>
