<?xml version="1.0" encoding="UTF-8" standalone="no"?>
<svg
   xmlns:dc="http://purl.org/dc/elements/1.1/"
   xmlns:cc="http://creativecommons.org/ns#"
   xmlns:rdf="http://www.w3.org/1999/02/22-rdf-syntax-ns#"
   xmlns:svg="http://www.w3.org/2000/svg"
   xmlns="http://www.w3.org/2000/svg"
   xmlns:sodipodi="http://sodipodi.sourceforge.net/DTD/sodipodi-0.dtd"
   xmlns:inkscape="http://www.inkscape.org/namespaces/inkscape"
   version="1.1"
   width="32px"
   height="32px"
   id="svg2"
   inkscape:version="0.91 r13725"
   sodipodi:docname="file_import.svg">
  <metadata
     id="metadata12">
    <rdf:RDF>
      <cc:Work
         rdf:about="">
        <dc:format>image/svg+xml</dc:format>
        <dc:type
           rdf:resource="http://purl.org/dc/dcmitype/StillImage" />
      </cc:Work>
    </rdf:RDF>
  </metadata>
  <defs
     id="defs10" />
  <sodipodi:namedview
     pagecolor="#ffffff"
     bordercolor="#666666"
     borderopacity="1"
     objecttolerance="10"
     gridtolerance="10"
     guidetolerance="10"
     inkscape:pageopacity="0"
     inkscape:pageshadow="2"
     inkscape:window-width="1280"
     inkscape:window-height="972"
     id="namedview8"
     showgrid="false"
     inkscape:zoom="7.375"
     inkscape:cx="-0.20338983"
     inkscape:cy="16"
     inkscape:window-x="-8"
     inkscape:window-y="-8"
     inkscape:window-maximized="1"
     inkscape:current-layer="svg2" />
  <g
     id="g4"
     transform="matrix(0.01333333,0,0,-0.01333333,-3,22.666667)" />
  <path
     d="m 1.3333335,22.16 0,-4.146667 q 0,-0.24 0.013333,-0.353333 0.013333,-0.113333 0.1266667,-0.22 0.1133333,-0.106667 0.3266667,-0.106667 l 10.2000011,0 0,-3.706666 q 0,-0.146667 0.133333,-0.193334 0.133333,-0.04667 0.24,0.06 L 20.000001,19.84 q 0.106666,0.08 0.106666,0.186667 0,0.16 -0.133333,0.253333 l -7.573333,6.386667 q -0.12,0.09333 -0.26,0.05333 -0.14,-0.04 -0.14,-0.186667 l 0,-3.866666 -10.2000008,0 q -0.28,0 -0.3733334,-0.106667 Q 1.3333335,22.453333 1.3333335,22.16 Z m 4,9.173333 0,-7.333333 5.3333335,0 0,2.533333 q 0,0.986667 0.5,1.593334 0.5,0.606666 1.366667,0.606666 0.626667,0 1.306667,-0.533333 l 7.36,-6.346667 q 0.933333,-0.72 0.933333,-1.826666 0,-1.16 -0.773333,-1.72 l -7.613334,-6.4 q -0.613333,-0.48 -1.213333,-0.48 -0.866667,0 -1.366667,0.606666 -0.5,0.606667 -0.5,1.593334 l 0,2.373333 -5.3333335,0 0,-15.3333333 Q 5.3333335,0.4 5.5266668,0.2 5.7200002,0 6.0000002,0 l 15.3333338,0 0,8.6666667 q 0,0.28 0.193332,0.4733333 0.193334,0.1933333 0.473335,0.1933333 l 8.666665,0 0,21.9999997 q 0,0.28 -0.193333,0.473334 Q 30.28,32 30,32 L 6.0000002,32 q -0.28,0 -0.4733334,-0.193333 Q 5.3333335,31.613333 5.3333335,31.333333 Z M 22.666667,7.3333333 22.666667,0 30.666666,8 23.333334,8 Q 23.053333,8 22.860001,7.8066667 22.666667,7.6133333 22.666667,7.3333333 Z"
     id="path6"
     inkscape:connector-curvature="0" />
</svg>
