<?xml version="1.0" encoding="UTF-8" standalone="no"?>
<svg
   xmlns:dc="http://purl.org/dc/elements/1.1/"
   xmlns:cc="http://creativecommons.org/ns#"
   xmlns:rdf="http://www.w3.org/1999/02/22-rdf-syntax-ns#"
   xmlns:svg="http://www.w3.org/2000/svg"
   xmlns="http://www.w3.org/2000/svg"
   xmlns:sodipodi="http://sodipodi.sourceforge.net/DTD/sodipodi-0.dtd"
   xmlns:inkscape="http://www.inkscape.org/namespaces/inkscape"
   version="1.1"
   width="32px"
   height="32px"
   id="svg2"
   inkscape:version="0.91 r13725"
   sodipodi:docname="fins.svg">
  <metadata
     id="metadata12">
    <rdf:RDF>
      <cc:Work
         rdf:about="">
        <dc:format>image/svg+xml</dc:format>
        <dc:type
           rdf:resource="http://purl.org/dc/dcmitype/StillImage" />
      </cc:Work>
    </rdf:RDF>
  </metadata>
  <defs
     id="defs10" />
  <sodipodi:namedview
     pagecolor="#ffffff"
     bordercolor="#666666"
     borderopacity="1"
     objecttolerance="10"
     gridtolerance="10"
     guidetolerance="10"
     inkscape:pageopacity="0"
     inkscape:pageshadow="2"
     inkscape:window-width="1280"
     inkscape:window-height="972"
     id="namedview8"
     showgrid="false"
     inkscape:zoom="7.375"
     inkscape:cx="-0.20338983"
     inkscape:cy="16"
     inkscape:window-x="-8"
     inkscape:window-y="-8"
     inkscape:window-maximized="1"
     inkscape:current-layer="svg2" />
  <g
     id="g4"
     transform="matrix(0.01043365,0,0,-0.01043682,1.0145272,25.473307)" />
  <path
     d="m -1.5e-6,27.476379 0,-5.176662 4.1734594,-16.7406586 0.020867,0 q 0.083469,-0.8036351 0.860776,-1.4454996 0.7773068,-0.6418644 1.7267688,-0.6418644 0.9494621,0 1.7267689,0.6418644 0.7773068,0.6418645 0.8607759,1.4454996 l 0.02087,0 4.1734595,16.7406586 0,5.176662 q -0.07303,0.08349 -0.22954,0.224392 -0.156505,0.140897 -0.746006,0.500967 -0.589501,0.36007 -1.298989,0.636646 -0.70949,0.276575 -1.9250105,0.500968 -1.2155205,0.224391 -2.5823285,0.224391 -1.3668079,0 -2.5718943,-0.213954 Q 3.0048893,29.135833 2.2693171,28.827948 1.5337448,28.520061 0.9911951,28.212174 0.4486454,27.904289 0.22953877,27.685116 Z M 4.6847067,10.767032 q 0,0.855819 0.6051516,1.382878 0.6051516,0.527059 1.4920117,0.527059 0.8868602,0 1.4920118,-0.527059 0.6051516,-0.527059 0.6051516,-1.382878 L 8.8581664,10.558295 Q 8.8477324,10.51655 8.8268654,10.302593 8.8059984,10.088638 8.7851304,10.026017 L 7.940005,6.4461877 q 0,-0.4800928 -0.3390936,-0.8140718 -0.3390935,-0.333978 -0.8190414,-0.333978 -0.4799478,0 -0.8190414,0.3444147 Q 5.6237351,5.9869684 5.6237351,6.4670613 L 4.7786095,10.109512 q -0.031301,0.135679 -0.062602,0.448783 -0.031301,0.146115 -0.031301,0.208737 z M 11.424844,4.4736293 q 0.250408,-0.9914982 1.022498,-1.5446495 0.792957,-0.5531513 1.78937,-0.4853118 0.996414,0.06784 1.52853,0.6627381 l 0.02087,-0.010434 13.188131,11.1256499 3.025758,4.185164 q -0.01043,0.114802 -0.05738,0.31832 -0.04695,0.203518 -0.31301,0.845382 -0.266058,0.641865 -0.678187,1.27851 -0.412129,0.636647 -1.262471,1.528995 -0.850343,0.892347 -1.956309,1.695983 -1.105967,0.803635 -2.206717,1.335912 -1.10075,0.532278 -1.878057,0.714923 -0.777306,0.182645 -1.398109,0.250484 -0.620802,0.06784 -0.923377,0.0261 L 21.013374,26.359645 17.977183,22.164043 11.56049,6.1435253 11.58136,6.1330917 Q 11.174437,5.4651358 11.424844,4.4736376 Z m 1.638083,0.6992673 q -0.07304,0.4800928 0.198239,0.8662557 l 1.460711,3.4545873 0.198239,0.3965986 q 0.07304,0.1356788 0.104336,0.1774258 0.500815,0.68883 1.309423,0.767106 0.808608,0.07827 1.507662,-0.443564 0.719922,-0.5114045 0.892077,-1.2837293 0.172155,-0.7723247 -0.318226,-1.4924645 l -0.01043,-0.010434 0.01043,0.031311 -0.125204,-0.1669895 Q 17.987608,7.1350224 17.914573,7.0724018 l -2.775351,-2.4004685 0,-0.010434 Q 14.857514,4.2753364 14.387999,4.202279 13.918485,4.129223 13.522007,4.4110156 q -0.386045,0.2817941 -0.45908,0.761888 z"
     id="path6"
     inkscape:connector-curvature="0" />
</svg>
