<?xml version="1.0" encoding="UTF-8" standalone="no"?>
<svg
   xmlns:dc="http://purl.org/dc/elements/1.1/"
   xmlns:cc="http://creativecommons.org/ns#"
   xmlns:rdf="http://www.w3.org/1999/02/22-rdf-syntax-ns#"
   xmlns:svg="http://www.w3.org/2000/svg"
   xmlns="http://www.w3.org/2000/svg"
   xmlns:sodipodi="http://sodipodi.sourceforge.net/DTD/sodipodi-0.dtd"
   xmlns:inkscape="http://www.inkscape.org/namespaces/inkscape"
   version="1.1"
   width="32px"
   height="32px"
   id="svg2"
   inkscape:version="0.91 r13725"
   sodipodi:docname="fire.svg">
  <metadata
     id="metadata12">
    <rdf:RDF>
      <cc:Work
         rdf:about="">
        <dc:format>image/svg+xml</dc:format>
        <dc:type
           rdf:resource="http://purl.org/dc/dcmitype/StillImage" />
      </cc:Work>
    </rdf:RDF>
  </metadata>
  <defs
     id="defs10" />
  <sodipodi:namedview
     pagecolor="#ffffff"
     bordercolor="#666666"
     borderopacity="1"
     objecttolerance="10"
     gridtolerance="10"
     guidetolerance="10"
     inkscape:pageopacity="0"
     inkscape:pageshadow="2"
     inkscape:window-width="1280"
     inkscape:window-height="972"
     id="namedview8"
     showgrid="false"
     inkscape:zoom="7.375"
     inkscape:cx="-0.20338983"
     inkscape:cy="16"
     inkscape:window-x="-8"
     inkscape:window-y="-8"
     inkscape:window-maximized="1"
     inkscape:current-layer="svg2" />
  <g
     id="g4"
     transform="matrix(0.0128843,0,0,-0.01288446,-4.9413673,23.691964)" />
  <path
     d="m 3.2936364,21.336659 q 0.025769,-0.541147 0.1352851,-1.365752 0.1095172,-0.824606 0.3285497,-1.488155 0.2190331,-0.663549 0.605562,-1.481712 0.386529,-0.818164 0.9212275,-1.494598 0.5346985,-0.676434 1.327083,-1.385079 0.7923839,-0.708645 1.7715919,-1.288446 -0.07731,0.206151 -0.257687,0.682876 -0.219033,0.579801 -0.334992,0.908354 -0.115958,0.328554 -0.315665,0.95345 -0.199707,0.624896 -0.257686,1.017872 -0.05798,0.392977 -0.109517,0.927682 -0.051537,0.534705 0.070864,0.869701 0.1224,0.334996 0.334991,0.663549 0.212591,0.328554 0.644215,0.496052 0.431624,0.167498 1.024302,0.193267 1.8166874,0.06442 2.2289854,-1.404406 0.334991,-1.18537 -0.154612,-4.174565 -0.103076,-0.618454 -0.360761,-1.958437 -0.27057,-1.520366 -0.412297,-2.3320864 -0.193265,-1.2369076 -0.07087,-2.351413 0.122403,-1.1145054 0.496045,-2.0872817 0.373645,-0.9727764 0.856807,-1.784497 0.48316,-0.8117207 1.011417,-1.4559434 0.528256,-0.6442228 0.966322,-1.08873652 0.438067,-0.4445137 0.721522,-0.6764339 L 14.760659,-1.1654534e-7 Q 14.580279,1.7522858 15.153631,4.0714877 q 0.573351,2.3192019 1.546115,4.303408 0.972765,1.9842063 2.196774,3.4465913 1.224008,1.462386 2.228984,1.655653 1.120934,0.219036 1.108049,-1.108063 -0.01288,-1.700748 -1.893992,-5.6820449 2.254752,1.0694097 3.92327,2.6155443 1.668517,1.5461346 2.615512,3.2597676 0.946996,1.713632 1.404389,3.665627 0.457393,1.951996 0.431625,3.826685 -0.02577,1.874688 -0.438067,3.742934 -0.450951,2.035744 -1.288429,3.536783 -0.83748,1.501039 -2.016395,2.454488 -1.178913,0.95345 -2.570417,1.47527 -1.391505,0.521821 -3.130884,0.715088 -1.236894,0.128844 -1.275546,-0.541147 -0.03865,-0.669992 0.63133,-1.919784 0.231917,-0.541147 0.367202,-0.869701 0.135285,-0.328554 0.334993,-0.869701 0.199706,-0.541147 0.328549,-1.050083 0.128845,-0.508936 0.193265,-1.024314 0.167496,-1.404406 -0.573351,-3.317747 -0.740848,-1.913342 -2.029277,-3.446592 0.03865,0.682876 -0.05154,1.610557 -0.09019,0.927681 -0.309223,2.035744 -0.219033,1.108063 -0.59912,2.248337 -0.380087,1.140275 -0.882574,2.235453 -0.502488,1.095179 -1.19824,2.009975 -0.695753,0.914797 -1.501021,1.559019 -0.805269,0.644223 -1.848897,0.889028 -1.0436284,0.244804 -2.1903314,0 Q 4.3243743,29.879052 3.5126635,24.441812 3.4353575,23.939319 3.3967041,23.62365 3.3580521,23.30798 3.3129561,22.592893 3.2678611,21.877806 3.2936291,21.336659 Z"
     id="path6"
     inkscape:connector-curvature="0" />
</svg>
