<?xml version="1.0" encoding="UTF-8" standalone="no"?>
<svg
   xmlns:dc="http://purl.org/dc/elements/1.1/"
   xmlns:cc="http://creativecommons.org/ns#"
   xmlns:rdf="http://www.w3.org/1999/02/22-rdf-syntax-ns#"
   xmlns:svg="http://www.w3.org/2000/svg"
   xmlns="http://www.w3.org/2000/svg"
   xmlns:sodipodi="http://sodipodi.sourceforge.net/DTD/sodipodi-0.dtd"
   xmlns:inkscape="http://www.inkscape.org/namespaces/inkscape"
   version="1.1"
   width="32px"
   height="32px"
   id="svg2"
   inkscape:version="0.91 r13725"
   sodipodi:docname="fishes.svg">
  <metadata
     id="metadata12">
    <rdf:RDF>
      <cc:Work
         rdf:about="">
        <dc:format>image/svg+xml</dc:format>
        <dc:type
           rdf:resource="http://purl.org/dc/dcmitype/StillImage" />
      </cc:Work>
    </rdf:RDF>
  </metadata>
  <defs
     id="defs10" />
  <sodipodi:namedview
     pagecolor="#ffffff"
     bordercolor="#666666"
     borderopacity="1"
     objecttolerance="10"
     gridtolerance="10"
     guidetolerance="10"
     inkscape:pageopacity="0"
     inkscape:pageshadow="2"
     inkscape:window-width="1280"
     inkscape:window-height="972"
     id="namedview8"
     showgrid="false"
     inkscape:zoom="7.375"
     inkscape:cx="-0.20338983"
     inkscape:cy="16"
     inkscape:window-x="-8"
     inkscape:window-y="-8"
     inkscape:window-maximized="1"
     inkscape:current-layer="svg2" />
  <g
     id="g4"
     transform="matrix(0.01066667,0,0,-0.01067022,1.9543333,28.8656)" />
  <path
     d="m 1.1146665,16.528174 q 0,-0.149383 0.3413333,-0.485495 0.3413334,-0.336112 1.0026667,-0.789596 0.6613333,-0.453485 1.504,-0.901634 0.8426667,-0.44815 1.9893333,-0.837613 1.1466667,-0.389464 2.3093334,-0.570857 l 4.5440008,-2.283427 0,2.475491 q 1.472,0.394798 2.965333,1.141713 1.493332,0.746917 2.453333,1.451151 l 3.733333,-2.624874 q 0.170667,-0.128043 0.304,-0.06402 0.133333,0.06402 0.133333,0.288096 -0.128,0.224075 -0.32,0.586862 -0.192,0.362787 -0.506667,1.232411 -0.314666,0.869623 -0.314666,1.435145 0,0.554852 0.282666,1.344448 0.282667,0.789597 0.570667,1.291097 l 0.277333,0.512171 q 0,0.224074 -0.128,0.288096 -0.128,0.06402 -0.309333,-0.06402 l -3.722667,-2.624874 q -0.330666,0.245416 -0.874666,0.554852 -0.544,0.309437 -1.322667,0.725575 -0.778667,0.416139 -1.088,0.586863 l 0,2.123374 -2.378667,-1.333778 q -1.248,0.277426 -2.378666,0.277426 -1.4079998,0 -2.8479998,-0.336112 -1.44,-0.336116 -2.5173334,-0.826946 -1.0773333,-0.490831 -1.9413333,-1.024341 -0.864,-0.533512 -1.312,-0.954986 -0.448,-0.421474 -0.448,-0.592197 z m 3.712,-1.099033 q 0,0.437479 0.3093333,0.752251 0.3093334,0.314771 0.7573334,0.314771 0.4373333,0 0.752,-0.314771 0.3146666,-0.314772 0.3146666,-0.752251 0,-0.437479 -0.3146666,-0.75225 -0.3146667,-0.314772 -0.752,-0.314772 -0.448,0 -0.7573334,0.314772 -0.3093333,0.314771 -0.3093333,0.75225 z M 8.5919998,5.8472806 q 0,-0.1493824 0.3413334,-0.4908298 Q 9.2746665,5.0150033 9.9359995,4.566854 10.597334,4.1187046 11.44,3.6758908 12.282667,3.2330758 13.429334,2.8489478 14.576,2.4648198 15.738667,2.2834268 l 4.544,-2.2834283 0,2.4754923 q 1.461332,0.4054677 2.954667,1.152384 1.493333,0.7469152 2.463999,1.4511498 l 3.744,-2.6142048 q 0.170666,-0.1280426 0.304,-0.058688 0.133333,0.069355 0.133333,0.2827606 -0.128,0.2240746 -0.32,0.5868629 -0.192,0.3627872 -0.512,1.2324107 -0.32,0.8696234 -0.32,1.4351445 0,0.5655221 0.282667,1.3497835 0.282666,0.7842613 0.56,1.296432 l 0.277333,0.5015008 q 0,0.2240746 -0.128,0.288096 -0.128,0.064021 -0.309333,-0.064021 l -3.712,-2.6355456 q -0.341334,0.2454176 -0.890667,0.5548544 -0.549333,0.3094358 -1.317333,0.72024 -0.768,0.4108032 -1.098667,0.5921974 l 0,2.123374 -2.378667,-1.3444482 Q 18.789334,9.6032 17.658666,9.6032 q -1.418667,0 -2.858667,-0.3414475 -1.44,-0.3414468 -2.517333,-0.8322777 -1.077333,-0.4908299 -1.936,-1.0296768 -0.8586665,-0.5388459 -1.3066662,-0.96032 -0.448,-0.4214731 -0.448,-0.5921974 z M 9.6159995,27.209068 q 0,-0.149384 0.341334,-0.485496 0.3413335,-0.336112 1.0080005,-0.789596 0.666665,-0.453484 1.509333,-0.901633 0.842667,-0.44815 1.989333,-0.837613 1.146667,-0.389464 2.309333,-0.570858 l 4.565333,-2.283427 0,2.475491 q 1.472,0.394799 2.96,1.141714 1.488,0.746917 2.437333,1.451151 l 3.712,-2.624876 q 0.181334,-0.128042 0.309334,-0.06402 0.128,0.06402 0.128,0.288096 -0.128,0.224075 -0.314667,0.586863 -0.186667,0.362787 -0.501333,1.232411 -0.314667,0.869623 -0.314667,1.435144 0,0.554853 0.282667,1.344449 0.282666,0.789596 0.56,1.301767 l 0.288,0.501501 q 0,0.224074 -0.133334,0.288096 -0.133333,0.06402 -0.304,-0.06402 l -3.712,-2.624874 q -0.330666,0.245415 -0.864,0.549516 -0.533333,0.304102 -1.322666,0.73091 -0.789334,0.426809 -1.077334,0.586862 l 0,2.123375 -2.4,-1.333778 q -1.248,0.277426 -2.389333,0.277426 -1.408,0 -2.847999,-0.336112 -1.44,-0.336112 -2.517333,-0.826943 Q 12.24,29.289764 11.376,28.756253 10.512,28.222742 10.064,27.801268 9.6159995,27.379794 9.6159995,27.209071 Z M 12.304,4.7695878 q 0,0.4374795 0.314667,0.7522518 0.314667,0.3147712 0.752,0.3147712 0.437333,0 0.752,-0.3147712 0.314667,-0.3147723 0.314667,-0.7522518 0,-0.4374784 -0.314667,-0.7522506 -0.314667,-0.3147712 -0.752,-0.3147712 -0.437333,0 -0.752,0.3147712 Q 12.304,4.3321094 12.304,4.7695878 Z m 1.013334,21.3404462 q 0,0.43748 0.314666,0.752251 0.314667,0.314772 0.752,0.314772 0.437334,0 0.752,-0.314772 0.314667,-0.314771 0.314667,-0.752251 0,-0.437478 -0.314667,-0.75225 -0.314666,-0.314772 -0.752,-0.314772 -0.437333,0 -0.752,0.314772 -0.314666,0.314772 -0.314666,0.75225 z"
     id="path6"
     inkscape:connector-curvature="0" />
</svg>
