<?xml version="1.0" encoding="UTF-8" standalone="no"?>
<svg
   xmlns:dc="http://purl.org/dc/elements/1.1/"
   xmlns:cc="http://creativecommons.org/ns#"
   xmlns:rdf="http://www.w3.org/1999/02/22-rdf-syntax-ns#"
   xmlns:svg="http://www.w3.org/2000/svg"
   xmlns="http://www.w3.org/2000/svg"
   xmlns:sodipodi="http://sodipodi.sourceforge.net/DTD/sodipodi-0.dtd"
   xmlns:inkscape="http://www.inkscape.org/namespaces/inkscape"
   version="1.1"
   width="32px"
   height="32px"
   id="svg2"
   inkscape:version="0.91 r13725"
   sodipodi:docname="flag.svg">
  <metadata
     id="metadata12">
    <rdf:RDF>
      <cc:Work
         rdf:about="">
        <dc:format>image/svg+xml</dc:format>
        <dc:type
           rdf:resource="http://purl.org/dc/dcmitype/StillImage" />
      </cc:Work>
    </rdf:RDF>
  </metadata>
  <defs
     id="defs10" />
  <sodipodi:namedview
     pagecolor="#ffffff"
     bordercolor="#666666"
     borderopacity="1"
     objecttolerance="10"
     gridtolerance="10"
     guidetolerance="10"
     inkscape:pageopacity="0"
     inkscape:pageshadow="2"
     inkscape:window-width="1280"
     inkscape:window-height="972"
     id="namedview8"
     showgrid="false"
     inkscape:zoom="7.375"
     inkscape:cx="-0.20338983"
     inkscape:cy="16"
     inkscape:window-x="-8"
     inkscape:window-y="-8"
     inkscape:window-maximized="1"
     inkscape:current-layer="svg2" />
  <g
     id="g4"
     transform="matrix(0.01299229,0,0,-0.01299229,-4.2442144,23.358443)" />
  <path
     d="m 2.3581,30.609825 0,-0.07795 0,-28.9078363 q 0,-0.6756018 0.5716606,-1.1498203 Q 3.5014212,0 4.3069429,0 5.1124646,0 5.6841252,0.4742184 6.2557857,0.9484369 6.2557857,1.6240357 l 0,28.9078363 q 0,0.662606 -0.5586682,1.065367 Q 5.1384492,32 4.3069429,32 3.4624443,32 2.9102721,31.62972 2.3581,31.25944 2.3581,30.609825 Z M 7.555014,18.1892 l 0,-16.8899714 q 0.103939,0.077954 0.311815,0.2078766 0.207877,0.1299228 0.935445,0.4677222 0.727568,0.3377995 1.559074,0.5976452 0.831506,0.2598457 2.182704,0.4677223 1.351198,0.2078766 2.806334,0.2078766 1.02639,0 2.039789,-0.2468535 1.013398,-0.2468534 1.825416,-0.5976451 0.812018,-0.3507917 1.676005,-0.7405603 0.863987,-0.3897686 1.773447,-0.682095 0.90946,-0.2923265 1.916362,-0.4287455 1.006902,-0.136419 2.299635,0.038977 1.292732,0.1753959 2.76086,0.7080796 l 0,16.8899713 q -1.468128,-0.532684 -2.76086,-0.708079 -1.292733,-0.175396 -2.299635,-0.03898 -1.006902,0.136419 -1.916362,0.428745 -0.90946,0.292327 -1.773447,0.682095 -0.863987,0.389769 -1.676005,0.74056 -0.812018,0.350792 -1.825416,0.597646 -1.013399,0.246853 -2.039789,0.246853 -1.455136,0 -2.793342,-0.20138 -1.338205,-0.201381 -2.208688,-0.487211 -0.870483,-0.28583 -1.53309,-0.571661 -0.662607,-0.28583 -0.961429,-0.480714 z"
     id="path6"
     inkscape:connector-curvature="0" />
</svg>
