<?xml version="1.0" encoding="UTF-8" standalone="no"?>
<svg
   xmlns:dc="http://purl.org/dc/elements/1.1/"
   xmlns:cc="http://creativecommons.org/ns#"
   xmlns:rdf="http://www.w3.org/1999/02/22-rdf-syntax-ns#"
   xmlns:svg="http://www.w3.org/2000/svg"
   xmlns="http://www.w3.org/2000/svg"
   xmlns:sodipodi="http://sodipodi.sourceforge.net/DTD/sodipodi-0.dtd"
   xmlns:inkscape="http://www.inkscape.org/namespaces/inkscape"
   version="1.1"
   width="32px"
   height="32px"
   id="svg2"
   inkscape:version="0.91 r13725"
   sodipodi:docname="flash.svg">
  <metadata
     id="metadata12">
    <rdf:RDF>
      <cc:Work
         rdf:about="">
        <dc:format>image/svg+xml</dc:format>
        <dc:type
           rdf:resource="http://purl.org/dc/dcmitype/StillImage" />
      </cc:Work>
    </rdf:RDF>
  </metadata>
  <defs
     id="defs10" />
  <sodipodi:namedview
     pagecolor="#ffffff"
     bordercolor="#666666"
     borderopacity="1"
     objecttolerance="10"
     gridtolerance="10"
     guidetolerance="10"
     inkscape:pageopacity="0"
     inkscape:pageshadow="2"
     inkscape:window-width="1280"
     inkscape:window-height="972"
     id="namedview8"
     showgrid="false"
     inkscape:zoom="7.375"
     inkscape:cx="-0.20338983"
     inkscape:cy="16"
     inkscape:window-x="-8"
     inkscape:window-y="-8"
     inkscape:window-maximized="1"
     inkscape:current-layer="svg2" />
  <g
     id="g4"
     transform="matrix(0.01358837,0,0,-0.01358875,-10.140259,22.276107)" />
  <path
     d="M 6.9585636,18.417103 Q 6.8838276,18.1793 7.0604765,17.961881 L 20.445032,0.20139221 q 0.135886,-0.2310086 0.258179,-0.1970368 0.122298,0.033972 0.06794,0.3057468 L 17.876828,12.607915 q -0.09512,0.258186 0.02718,0.43484 0.122298,0.176654 0.407651,0.176654 l 6.372952,0 q 0.271767,0 0.353298,0.163065 0.08153,0.163065 -0.09512,0.380485 -13.139967,17.733309 -13.37097,18.032261 -0.190237,0.244598 -0.305738,0.197037 -0.115504,-0.04756 -0.03397,-0.414456 l 2.93509,-12.4337 q 0.122298,-0.489194 -0.489182,-0.489194 l -6.372951,0 q -0.2717676,0 -0.3465037,-0.237804 z"
     id="path6"
     inkscape:connector-curvature="0" />
</svg>
