<?xml version="1.0" encoding="UTF-8" standalone="no"?>
<svg
   xmlns:dc="http://purl.org/dc/elements/1.1/"
   xmlns:cc="http://creativecommons.org/ns#"
   xmlns:rdf="http://www.w3.org/1999/02/22-rdf-syntax-ns#"
   xmlns:svg="http://www.w3.org/2000/svg"
   xmlns="http://www.w3.org/2000/svg"
   xmlns:sodipodi="http://sodipodi.sourceforge.net/DTD/sodipodi-0.dtd"
   xmlns:inkscape="http://www.inkscape.org/namespaces/inkscape"
   version="1.1"
   width="32px"
   height="32px"
   id="svg2"
   inkscape:version="0.91 r13725"
   sodipodi:docname="floppy_open.svg">
  <metadata
     id="metadata12">
    <rdf:RDF>
      <cc:Work
         rdf:about="">
        <dc:format>image/svg+xml</dc:format>
        <dc:type
           rdf:resource="http://purl.org/dc/dcmitype/StillImage" />
      </cc:Work>
    </rdf:RDF>
  </metadata>
  <defs
     id="defs10" />
  <sodipodi:namedview
     pagecolor="#ffffff"
     bordercolor="#666666"
     borderopacity="1"
     objecttolerance="10"
     gridtolerance="10"
     guidetolerance="10"
     inkscape:pageopacity="0"
     inkscape:pageshadow="2"
     inkscape:window-width="1280"
     inkscape:window-height="972"
     id="namedview8"
     showgrid="false"
     inkscape:zoom="20.85965"
     inkscape:cx="15.941175"
     inkscape:cy="19.962005"
     inkscape:window-x="-8"
     inkscape:window-y="-8"
     inkscape:window-maximized="1"
     inkscape:current-layer="svg2" />
  <g
     id="g4"
     transform="matrix(0.01454545,0,0,-0.01454545,-3.7272727,21.181818)" />
  <path
     id="rect2989"
     style="fill:#000000;fill-opacity:1"
     d="m 2.1941501,31.256167 28.4000989,0 0,0.727273 -28.4000989,0 z M 0,30.545455 0,1.4545455 Q 0,0.8581818 0.4290909,0.4290909 0.8581818,0 1.4545455,0 l 5.8181815,0 0,7.2727273 17.454546,0 L 24.727273,0 26.181818,0 32,5.8181818 32,30.545455 q 0,0.596363 -0.429091,1.025454 Q 31.141818,32 30.545455,32 l -2.909091,0 0,-14.545455 -7.578182,0 -4.072727,-4.872727 -4.014546,4.872727 -7.6072726,0 0,14.545455 -2.9090909,0 Q 0.8581818,32 0.4290909,31.570909 0,31.141818 0,30.545455 Z m 8.8,-5.818182 4.290909,0 0,5.818182 5.818182,0 0,-5.818182 4.363636,0 L 16,16 Z M 20.363636,5.8181818 20.363636,0 l 2.909091,0 0,5.8181818 -2.909091,0 z"
     inkscape:connector-curvature="0" />
</svg>
