<?xml version="1.0" encoding="UTF-8" standalone="no"?>
<svg
   xmlns:dc="http://purl.org/dc/elements/1.1/"
   xmlns:cc="http://creativecommons.org/ns#"
   xmlns:rdf="http://www.w3.org/1999/02/22-rdf-syntax-ns#"
   xmlns:svg="http://www.w3.org/2000/svg"
   xmlns="http://www.w3.org/2000/svg"
   xmlns:sodipodi="http://sodipodi.sourceforge.net/DTD/sodipodi-0.dtd"
   xmlns:inkscape="http://www.inkscape.org/namespaces/inkscape"
   version="1.1"
   width="32px"
   height="32px"
   id="svg2"
   inkscape:version="0.91 r13725"
   sodipodi:docname="floppy_remove.svg">
  <metadata
     id="metadata12">
    <rdf:RDF>
      <cc:Work
         rdf:about="">
        <dc:format>image/svg+xml</dc:format>
        <dc:type
           rdf:resource="http://purl.org/dc/dcmitype/StillImage" />
      </cc:Work>
    </rdf:RDF>
  </metadata>
  <defs
     id="defs10" />
  <sodipodi:namedview
     pagecolor="#ffffff"
     bordercolor="#666666"
     borderopacity="1"
     objecttolerance="10"
     gridtolerance="10"
     guidetolerance="10"
     inkscape:pageopacity="0"
     inkscape:pageshadow="2"
     inkscape:window-width="1280"
     inkscape:window-height="972"
     id="namedview8"
     showgrid="false"
     inkscape:zoom="20.85965"
     inkscape:cx="8.9157055"
     inkscape:cy="-5.636058"
     inkscape:window-x="-8"
     inkscape:window-y="-8"
     inkscape:window-maximized="1"
     inkscape:current-layer="svg2" />
  <g
     id="g4"
     transform="matrix(0.01452763,0,0,-0.01452743,-3.7165751,21.176671)" />
  <path
     id="rect2989"
     style="fill:#000000;fill-opacity:1"
     d="m 1.6285624,31.636814 29.0552506,0 0,0.363186 -29.0552506,0 z m -1.6089499,-1.129206 0,-29.0548647 q 0,-0.5956248 0.4285649,-1.024184 Q 0.8767424,0 1.472375,0 l 5.8110505,0 0,7.2637163 17.4331495,0 0,-7.2637163 1.452762,0 5.81105,5.810973 0,24.696635 q 0,0.595625 -0.428565,1.024184 -0.428564,0.42856 -1.024197,0.42856 l -2.905524,0 0,-14.527433 -4.532619,0 -3.079858,-3.079816 -3.079855,3.079816 -2.033868,0 -3.079856,-3.079816 -3.0798575,3.079816 -4.3582874,0 0,14.527433 -2.9055251,0 q -0.5956326,0 -1.0241976,-0.42856 -0.4285649,-0.428559 -0.4285649,-1.024184 z m 8.716575,-1.801401 4.0967905,-4.096736 -4.0967905,-4.096736 3.0798575,-3.079816 4.09679,4.096736 4.096789,-4.096736 3.079858,3.079816 -4.096791,4.096736 4.096791,4.096736 -3.079858,3.079816 -4.096789,-4.096736 -4.09679,4.096736 z M 20.358288,5.810973 l 2.905525,0 0,-5.810973 -2.905525,0 0,5.810973 z"
     inkscape:connector-curvature="0" />
</svg>
