<?xml version="1.0" encoding="UTF-8" standalone="no"?>
<svg
   xmlns:dc="http://purl.org/dc/elements/1.1/"
   xmlns:cc="http://creativecommons.org/ns#"
   xmlns:rdf="http://www.w3.org/1999/02/22-rdf-syntax-ns#"
   xmlns:svg="http://www.w3.org/2000/svg"
   xmlns="http://www.w3.org/2000/svg"
   xmlns:sodipodi="http://sodipodi.sourceforge.net/DTD/sodipodi-0.dtd"
   xmlns:inkscape="http://www.inkscape.org/namespaces/inkscape"
   version="1.1"
   width="32px"
   height="32px"
   id="svg2"
   inkscape:version="0.91 r13725"
   sodipodi:docname="flower.svg">
  <metadata
     id="metadata12">
    <rdf:RDF>
      <cc:Work
         rdf:about="">
        <dc:format>image/svg+xml</dc:format>
        <dc:type
           rdf:resource="http://purl.org/dc/dcmitype/StillImage" />
      </cc:Work>
    </rdf:RDF>
  </metadata>
  <defs
     id="defs10" />
  <sodipodi:namedview
     pagecolor="#ffffff"
     bordercolor="#666666"
     borderopacity="1"
     objecttolerance="10"
     gridtolerance="10"
     guidetolerance="10"
     inkscape:pageopacity="0"
     inkscape:pageshadow="2"
     inkscape:window-width="1280"
     inkscape:window-height="972"
     id="namedview8"
     showgrid="false"
     inkscape:zoom="7.375"
     inkscape:cx="-0.20338983"
     inkscape:cy="16"
     inkscape:window-x="-8"
     inkscape:window-y="-8"
     inkscape:window-maximized="1"
     inkscape:current-layer="svg2" />
  <g
     id="g4"
     transform="matrix(0.01296596,0,0,-0.01296596,-5.8176661,23.594457)" />
  <path
     d="m 3.6823385,17.867101 q 0.9335494,0.272285 1.9059968,0.518638 0.9724473,0.246354 1.4716369,0.363047 0.4991893,0.116694 1.0372773,0.278769 0.538087,0.162074 0.855754,0.343598 0.317666,0.181523 0.648298,0.473257 0.330632,0.291735 0.6677475,0.732577 0.67423,0.855754 0.842788,1.795786 0.168557,0.940033 -0.05186,2.029174 l 2.995137,2.995138 0,-9.931929 Q 11.617509,17.166939 9.5688865,15.682336 7.5202635,14.197733 6.755272,11.980553 5.8476545,9.3614283 6.3273952,6.1588351 q 1.3095623,-0.090762 2.8136143,-0.090762 -0.0778,-0.7001621 -0.05835,-1.452188 0.01945,-0.7520259 0.07131,-1.3354943 l 0.06483,-0.5834684 Q 10.061593,2.541331 11.254462,2.541331 10.722858,3.2155612 10.366293,4.4602937 10.00973,5.7050263 9.9060015,6.6126438 l -0.09076,0.9076175 1.2965975,0.3371151 q 2.554295,0.6742301 3.448946,2.8525116 l 1.439222,3.526743 1.439222,-3.526743 Q 18.333878,8.5316065 20.888173,7.8573764 L 22.18477,7.5202613 Q 22.171803,7.3776357 22.152355,7.1377654 22.132905,6.897895 22.022695,6.2171819 21.912485,5.5364688 21.769859,4.9335514 21.627233,4.3306341 21.354948,3.643438 21.082663,2.9562419 20.745547,2.541331 q 0.531605,0 1.037277,0.038898 0.505674,0.038898 0.752026,0.077796 l 0.246353,0.038898 q 0.02593,0.2333874 0.05835,0.5834684 0.03242,0.350081 0.0778,1.3354943 0.04538,0.9854133 -0.05835,1.452188 1.504053,0 2.813615,0.090762 0.47974,3.2025932 -0.427877,5.8217184 -0.764992,2.21718 -2.813614,3.701783 -2.048622,1.484603 -4.486223,1.78282 l 0,9.931929 2.995138,-2.995138 q -0.0778,-0.466776 -0.110211,-0.784442 -0.03242,-0.317666 -0.0065,-0.862237 0.02593,-0.54457 0.252836,-1.095624 0.226905,-0.551053 0.641815,-1.082658 l 0.01297,-0.01297 q 0.401945,-0.505672 0.849271,-0.84927 0.447326,-0.343598 1.082658,-0.576986 0.635332,-0.233387 1.179903,-0.376013 0.54457,-0.142625 1.594813,-0.395462 1.050243,-0.252836 1.880064,-0.499189 0,1.698541 -0.265802,3.034036 -0.265802,1.335494 -0.693679,2.158833 -0.427877,0.823338 -1.017828,1.380875 -0.589952,0.557536 -1.17342,0.797407 -0.583468,0.23987 -1.244733,0.3047 -0.661264,0.06483 -1.147488,0 -0.486223,-0.06483 -0.952998,-0.19449 l -3.876823,3.876824 0,2.774716 -3.88979,0 0,-2.774716 -3.876823,-3.876824 q -0.4667745,0.12966 -0.9529975,0.19449 -0.486224,0.06483 -1.147488,0 Q 7.4165365,25.478122 6.8330678,25.238252 6.2495994,24.998381 5.6596481,24.440845 5.0696967,23.883308 4.6418199,23.05997 4.213943,22.236631 3.9481408,20.901137 3.6823385,19.565642 3.6823385,17.867101 Z M 11.824965,6.2366308 Q 11.915725,5.2641835 12.382501,4.2593213 12.849276,3.254459 13.44571,2.5218821 14.042144,1.7893051 14.625612,1.1993537 15.20908,0.6094023 15.611026,0.3111851 L 16.000004,2e-6 q 0.155592,0.1166937 0.414911,0.3176661 0.259319,0.2009725 0.940032,0.8687196 0.680714,0.6677472 1.218801,1.3549433 0.538088,0.6871961 1.024311,1.7050243 0.486225,1.0178282 0.576986,1.9902755 Q 18.307946,6.7293375 17.231771,7.8184785 16.466779,8.5834704 16.000004,9.7374412 15.53323,8.5834704 14.768238,7.8184785 13.692062,6.7293375 11.824965,6.2366308 Z"
     id="path6"
     inkscape:connector-curvature="0" />
</svg>
