<?xml version="1.0" encoding="UTF-8" standalone="no"?>
<svg
   xmlns:dc="http://purl.org/dc/elements/1.1/"
   xmlns:cc="http://creativecommons.org/ns#"
   xmlns:rdf="http://www.w3.org/1999/02/22-rdf-syntax-ns#"
   xmlns:svg="http://www.w3.org/2000/svg"
   xmlns="http://www.w3.org/2000/svg"
   xmlns:sodipodi="http://sodipodi.sourceforge.net/DTD/sodipodi-0.dtd"
   xmlns:inkscape="http://www.inkscape.org/namespaces/inkscape"
   version="1.1"
   width="32px"
   height="32px"
   id="svg2"
   inkscape:version="0.91 r13725"
   sodipodi:docname="folder_plus.svg">
  <metadata
     id="metadata12">
    <rdf:RDF>
      <cc:Work
         rdf:about="">
        <dc:format>image/svg+xml</dc:format>
        <dc:type
           rdf:resource="http://purl.org/dc/dcmitype/StillImage" />
      </cc:Work>
    </rdf:RDF>
  </metadata>
  <defs
     id="defs10" />
  <sodipodi:namedview
     pagecolor="#ffffff"
     bordercolor="#666666"
     borderopacity="1"
     objecttolerance="10"
     gridtolerance="10"
     guidetolerance="10"
     inkscape:pageopacity="0"
     inkscape:pageshadow="2"
     inkscape:window-width="1280"
     inkscape:window-height="972"
     id="namedview8"
     showgrid="false"
     inkscape:zoom="7.375"
     inkscape:cx="-0.20338983"
     inkscape:cy="16"
     inkscape:window-x="-8"
     inkscape:window-y="-8"
     inkscape:window-maximized="1"
     inkscape:current-layer="svg2" />
  <g
     id="g4"
     transform="matrix(0.01103448,0,0,-0.01103448,-0.15517241,24.637931)" />
  <path
     d="M 0,28.689655 0,13.241379 q 0,-0.452414 0.3255172,-0.777931 0.3255173,-0.325517 0.7779311,-0.325517 l 18.8468967,0 q 1.015172,1.6 2.731034,2.455172 1.715862,0.855172 3.80138,0.855172 l 0,13.24138 q 0,0.452414 -0.325518,0.777931 -0.325517,0.325517 -0.777931,0.325517 l -24.2758617,0 q -0.4524138,0 -0.7779311,-0.325517 Q 0,29.142069 0,28.689655 Z m 1.1034483,-17.655172 0,-2.2068967 q 0,-0.4524139 0.3255172,-0.7779311 0.3255173,-0.3255173 0.7779311,-0.3255173 l 1.4675862,0 0.3862069,-1.1586207 Q 4.2151724,6.1351725 4.64,5.8262068 5.0648276,5.5172413 5.5172414,5.5172413 l 5.5172416,0 q 0.452414,0 0.877241,0.3089655 0.424828,0.3089656 0.57931,0.7393104 l 0.386207,1.1586207 5.88138,0 q 0,1.8206897 0.617931,3.3103451 l -18.2731037,0 z M 20.965517,7.7241379 q 0,-1.6110344 0.744828,-2.8799999 0.744827,-1.2689655 1.997241,-1.9531035 1.252414,-0.6841379 2.775173,-0.6841379 1.500689,0 2.769655,0.7393103 1.268965,0.7393104 2.008276,2.0082759 Q 32,6.2234483 32,7.7241379 q 0,1.5006897 -0.73931,2.7696551 -0.739311,1.268965 -2.008276,2.008276 -1.268966,0.73931 -2.769655,0.73931 -1.544828,0 -2.78069,-0.628966 -1.235862,-0.628965 -1.986207,-1.89793 -0.750345,-1.2689657 -0.750345,-2.9903451 z m 2.206897,0.5517242 q 0,0.2317242 0.165517,0.3917241 0.165517,0.1600001 0.386207,0.1600001 l 1.655172,0 0,1.6551727 q 0,0.231724 0.165518,0.391724 0.165517,0.16 0.386206,0.16 l 1.103449,0 q 0.231724,0 0.391724,-0.16 0.16,-0.16 0.16,-0.391724 l 0,-1.6551727 1.655172,0 q 0.231724,0 0.391724,-0.16 0.16,-0.16 0.16,-0.3917242 l 0,-1.1034483 q 0,-0.2206896 -0.16,-0.3862069 -0.16,-0.1655172 -0.391724,-0.1655172 l -1.655172,0 0,-1.6551724 q 0,-0.2206897 -0.16,-0.3862069 -0.16,-0.1655172 -0.391724,-0.1655172 l -1.103449,0 q -0.220689,0 -0.386206,0.1655172 -0.165518,0.1655172 -0.165518,0.3862069 l 0,1.6551724 -1.655172,0 q -0.22069,0 -0.386207,0.1655172 -0.165517,0.1655173 -0.165517,0.3862069 l 0,1.1034483 z"
     id="path6"
     inkscape:connector-curvature="0" />
</svg>
