<?xml version="1.0" encoding="UTF-8" standalone="no"?>
<svg
   xmlns:dc="http://purl.org/dc/elements/1.1/"
   xmlns:cc="http://creativecommons.org/ns#"
   xmlns:rdf="http://www.w3.org/1999/02/22-rdf-syntax-ns#"
   xmlns:svg="http://www.w3.org/2000/svg"
   xmlns="http://www.w3.org/2000/svg"
   xmlns:sodipodi="http://sodipodi.sourceforge.net/DTD/sodipodi-0.dtd"
   xmlns:inkscape="http://www.inkscape.org/namespaces/inkscape"
   version="1.1"
   width="32px"
   height="32px"
   id="svg2"
   inkscape:version="0.91 r13725"
   sodipodi:docname="folder_flag.svg">
  <metadata
     id="metadata12">
    <rdf:RDF>
      <cc:Work
         rdf:about="">
        <dc:format>image/svg+xml</dc:format>
        <dc:type
           rdf:resource="http://purl.org/dc/dcmitype/StillImage" />
      </cc:Work>
    </rdf:RDF>
  </metadata>
  <defs
     id="defs10" />
  <sodipodi:namedview
     pagecolor="#ffffff"
     bordercolor="#666666"
     borderopacity="1"
     objecttolerance="10"
     gridtolerance="10"
     guidetolerance="10"
     inkscape:pageopacity="0"
     inkscape:pageshadow="2"
     inkscape:window-width="1280"
     inkscape:window-height="972"
     id="namedview8"
     showgrid="false"
     inkscape:zoom="7.375"
     inkscape:cx="-0.20338983"
     inkscape:cy="16"
     inkscape:window-x="-8"
     inkscape:window-y="-8"
     inkscape:window-maximized="1"
     inkscape:current-layer="svg2" />
  <g
     id="g4"
     transform="matrix(0.01185185,0,0,-0.01185185,-0.46296296,24.351852)" />
  <path
     d="M 0,29.62963 0,13.037037 q 0,-0.485926 0.3496296,-0.835555 0.3496297,-0.34963 0.8355556,-0.34963 l 21.3925928,0 q 0.201481,1.019259 1.019259,1.694815 0.817778,0.675555 1.884444,0.675555 1.066667,0 1.884445,-0.675555 0.817778,-0.675556 1.019259,-1.694815 l 0.05926,0 0,17.777778 q 0,0.485926 -0.349629,0.835555 -0.34963,0.34963 -0.835556,0.34963 l -26.0740738,0 q -0.4859269,0 -0.8355566,-0.34963 Q 0,30.115556 0,29.62963 Z m 1.1851852,-18.962963 0,-2.3703707 q 0,-0.4859259 0.3496296,-0.8355556 0.3496296,-0.3496296 0.8355556,-0.3496296 l 1.5762963,0 0.4148148,-1.2444444 Q 4.5274074,5.4044444 4.9837037,5.0725926 5.44,4.7407407 5.9259259,4.7407407 l 5.9259261,0 q 0.485926,0 0.942222,0.3318519 0.456296,0.3318518 0.622222,0.7940741 l 0.414815,1.2444444 8.687408,0 0,3.5555559 -21.3333338,0 z m 23.7037038,0.592592 0,-10.0740738 6.518518,0 q 0.248889,0 0.420741,0.1777778 Q 32,1.5407407 32,1.7777778 l 0,3.5555555 q 0,0.2488889 -0.16,0.4859259 -0.16,0.2370371 -0.385185,0.3318519 l -5.380741,2.1451852 0,2.9629627 q 0,0.248889 -0.171852,0.420741 -0.171852,0.171852 -0.420741,0.171852 -0.248888,0 -0.42074,-0.171852 -0.171852,-0.171852 -0.171852,-0.420741 z"
     id="path6"
     inkscape:connector-curvature="0" />
</svg>
