<?xml version="1.0" encoding="UTF-8" standalone="no"?>
<svg
   xmlns:dc="http://purl.org/dc/elements/1.1/"
   xmlns:cc="http://creativecommons.org/ns#"
   xmlns:rdf="http://www.w3.org/1999/02/22-rdf-syntax-ns#"
   xmlns:svg="http://www.w3.org/2000/svg"
   xmlns="http://www.w3.org/2000/svg"
   xmlns:sodipodi="http://sodipodi.sourceforge.net/DTD/sodipodi-0.dtd"
   xmlns:inkscape="http://www.inkscape.org/namespaces/inkscape"
   version="1.1"
   width="32px"
   height="32px"
   id="svg2"
   inkscape:version="0.91 r13725"
   sodipodi:docname="folder_new.svg">
  <metadata
     id="metadata12">
    <rdf:RDF>
      <cc:Work
         rdf:about="">
        <dc:format>image/svg+xml</dc:format>
        <dc:type
           rdf:resource="http://purl.org/dc/dcmitype/StillImage" />
      </cc:Work>
    </rdf:RDF>
  </metadata>
  <defs
     id="defs10" />
  <sodipodi:namedview
     pagecolor="#ffffff"
     bordercolor="#666666"
     borderopacity="1"
     objecttolerance="10"
     gridtolerance="10"
     guidetolerance="10"
     inkscape:pageopacity="0"
     inkscape:pageshadow="2"
     inkscape:window-width="1280"
     inkscape:window-height="972"
     id="namedview8"
     showgrid="false"
     inkscape:zoom="7.375"
     inkscape:cx="-0.20338983"
     inkscape:cy="16"
     inkscape:window-x="-8"
     inkscape:window-y="-8"
     inkscape:window-maximized="1"
     inkscape:current-layer="svg2" />
  <g
     id="g4"
     transform="matrix(0.01142857,0,0,-0.01142857,-0.28571429,23.428571)" />
  <path
     d="m 0,28.571429 0,-16 q 0,-0.468572 0.3371429,-0.805714 0.3371428,-0.337144 0.8057142,-0.337144 l 21.1885719,0 q 0.96,1.074286 2.285714,1.680001 1.325714,0.605714 2.811428,0.605714 l 0,14.857143 q 0,0.468571 -0.337142,0.805714 -0.337143,0.337143 -0.805715,0.337143 l -25.1428569,0 q -0.4685714,0 -0.8057142,-0.337143 Q 0,29.04 0,28.571429 Z M 1.1428571,10.285714 1.1428571,8 Q 1.1428571,7.5314286 1.48,7.1942857 1.8171429,6.8571428 2.2857143,6.8571428 l 1.52,0 0.4,-1.2 q 0.16,-0.4457142 0.6,-0.7657142 0.44,-0.32 0.9085714,-0.32 l 5.7142853,0 q 0.468572,0 0.908572,0.32 0.44,0.32 0.6,0.7657142 l 0.4,1.2 7.234286,0 q 0,1.8285715 0.925714,3.4285712 l -20.3542859,0 z m 21.7142859,-2.7199997 0,-1.3714286 q 0,-0.1142857 0.07429,-0.2971429 0.07428,-0.1828571 0.154281,-0.1828571 l 2.137143,0 -1.394286,-1.2571429 q -0.08,-0.068571 -0.08,-0.1028571 0,-0.034286 0.05714,-0.1028571 l 0.948572,-0.96 q 0.125714,-0.1371429 0.262857,0 l 1.268571,1.3714285 0,-2.1257142 q 0,-0.091429 0.171429,-0.1714286 0.171431,-0.08 0.285717,-0.08 l 1.371429,0 q 0.114285,0 0.285714,0.08 0.171429,0.08 0.171429,0.1714286 l 0,2.1371428 L 29.84,3.28 q 0.125714,-0.1257143 0.217143,-0.022857 l 0.971428,0.9371429 q 0.114286,0.1257143 0,0.2628571 l -1.382857,1.2571429 2.125715,0 q 0.08,0 0.154285,0.1828571 Q 32,6.08 32,6.1942857 l 0,1.3714286 Q 32,7.68 31.92571,7.84 31.85143,8 31.771429,8 L 29.645714,8 31.04,9.28 q 0.114286,0.1257143 0.01143,0.2285714 l -0.937143,0.9599996 q -0.137143,0.137143 -0.274286,0 l -1.268571,-1.3828567 0,2.1371427 q 0,0.08 -0.165715,0.142857 -0.165715,0.06286 -0.291429,0.06286 l -1.371429,0 q -0.125714,0 -0.291428,-0.06286 -0.165715,-0.06286 -0.165715,-0.142857 l 0,-2.1257142 -1.268571,1.3942862 q -0.102857,0.114285 -0.205714,0.01143 L 23.84,9.5542857 Q 23.702857,9.4171428 23.84,9.28 L 25.222857,8 23.085714,8 q -0.08,0 -0.154285,-0.16 -0.07429,-0.16 -0.07429,-0.2742857 z"
     id="path6"
     inkscape:connector-curvature="0" />
</svg>
