<?xml version="1.0" encoding="UTF-8" standalone="no"?>
<svg
   xmlns:dc="http://purl.org/dc/elements/1.1/"
   xmlns:cc="http://creativecommons.org/ns#"
   xmlns:rdf="http://www.w3.org/1999/02/22-rdf-syntax-ns#"
   xmlns:svg="http://www.w3.org/2000/svg"
   xmlns="http://www.w3.org/2000/svg"
   xmlns:sodipodi="http://sodipodi.sourceforge.net/DTD/sodipodi-0.dtd"
   xmlns:inkscape="http://www.inkscape.org/namespaces/inkscape"
   version="1.1"
   width="32px"
   height="32px"
   id="svg2"
   inkscape:version="0.91 r13725"
   sodipodi:docname="folder_closed.svg">
  <metadata
     id="metadata12">
    <rdf:RDF>
      <cc:Work
         rdf:about="">
        <dc:format>image/svg+xml</dc:format>
        <dc:type
           rdf:resource="http://purl.org/dc/dcmitype/StillImage" />
      </cc:Work>
    </rdf:RDF>
  </metadata>
  <defs
     id="defs10" />
  <sodipodi:namedview
     pagecolor="#ffffff"
     bordercolor="#666666"
     borderopacity="1"
     objecttolerance="10"
     gridtolerance="10"
     guidetolerance="10"
     inkscape:pageopacity="0"
     inkscape:pageshadow="2"
     inkscape:window-width="1280"
     inkscape:window-height="972"
     id="namedview8"
     showgrid="false"
     inkscape:zoom="7.375"
     inkscape:cx="-0.20338983"
     inkscape:cy="16"
     inkscape:window-x="-8"
     inkscape:window-y="-8"
     inkscape:window-maximized="1"
     inkscape:current-layer="svg2" />
  <g
     id="g4"
     transform="matrix(0.01333333,0,0,-0.01333333,-1.3333333,21.666667)" />
  <path
     d="m 0,29.333334 q 0,0.546666 0.3933333,0.94 0.3933334,0.393333 0.94,0.393333 l 29.3333337,0 q 0.546666,0 0.94,-0.393333 Q 32,29.88 32,29.333334 L 32,10.666667 Q 32,10.12 31.606667,9.7266667 q -0.393334,-0.3933333 -0.94,-0.3933333 l -29.3333337,0 q -0.5466666,0 -0.94,0.3933333 Q 0,10.12 0,10.666667 l 0,18.666667 z m 1.3333333,-21.3333341 0,-2.6666666 q 0,-0.5466667 0.3933334,-0.94 Q 2.12,4 2.6666667,4 L 4.44,4 4.9066667,2.6 q 0.1866666,-0.52 0.7,-0.8933334 Q 6.12,1.3333333 6.666667,1.3333333 l 6.666666,0 q 0.546667,0 1.06,0.3733333 Q 14.906667,2.08 15.093333,2.6 L 15.56,4 29.333333,4 q 0.546667,0 0.94,0.3933333 0.393334,0.3933333 0.393334,0.94 l 0,2.6666666 -29.3333337,0 z"
     id="path6"
     inkscape:connector-curvature="0" />
</svg>
