<?xml version="1.0" encoding="UTF-8" standalone="no"?>
<svg
   xmlns:dc="http://purl.org/dc/elements/1.1/"
   xmlns:cc="http://creativecommons.org/ns#"
   xmlns:rdf="http://www.w3.org/1999/02/22-rdf-syntax-ns#"
   xmlns:svg="http://www.w3.org/2000/svg"
   xmlns="http://www.w3.org/2000/svg"
   xmlns:sodipodi="http://sodipodi.sourceforge.net/DTD/sodipodi-0.dtd"
   xmlns:inkscape="http://www.inkscape.org/namespaces/inkscape"
   version="1.1"
   width="32px"
   height="32px"
   id="svg2"
   inkscape:version="0.91 r13725"
   sodipodi:docname="font.svg">
  <metadata
     id="metadata12">
    <rdf:RDF>
      <cc:Work
         rdf:about="">
        <dc:format>image/svg+xml</dc:format>
        <dc:type
           rdf:resource="http://purl.org/dc/dcmitype/StillImage" />
      </cc:Work>
    </rdf:RDF>
  </metadata>
  <defs
     id="defs10" />
  <sodipodi:namedview
     pagecolor="#ffffff"
     bordercolor="#666666"
     borderopacity="1"
     objecttolerance="10"
     gridtolerance="10"
     guidetolerance="10"
     inkscape:pageopacity="0"
     inkscape:pageshadow="2"
     inkscape:window-width="1280"
     inkscape:window-height="972"
     id="namedview8"
     showgrid="false"
     inkscape:zoom="7.375"
     inkscape:cx="-0.20338983"
     inkscape:cy="16"
     inkscape:window-x="-8"
     inkscape:window-y="-8"
     inkscape:window-maximized="1"
     inkscape:current-layer="svg2" />
  <g
     id="g4"
     transform="matrix(0.01185185,0,0,-0.01185185,-0.46296296,23.351852)" />
  <path
     d="M 0,29.629628 0,28.124443 Q 1.28,27.579258 1.9081481,26.951109 2.1925926,26.666665 2.482963,26.239998 2.7733333,25.813332 2.9274074,25.528887 L 3.0814815,25.244443 12.16,2.3703684 l 2.121481,0 8.746667,22.6844446 q 0.462222,1.14963 1.362963,2.097778 0.402963,0.426667 0.823704,0.66963 0.420741,0.242963 0.645926,0.266666 l 0.213333,0.03556 0,1.505185 -9.481481,0 0,-1.505185 q 0.616296,0 1.072592,-0.296296 0.456296,-0.296297 0.651852,-0.740741 0.195556,-0.444445 0.242963,-0.971852 0.04741,-0.527407 -0.154074,-0.98963 l -1.872593,-5.048889 -8.888889,0 q -1.3037033,3.306667 -2.0859255,5.333334 -0.2488889,0.758518 -0.1362963,1.28 0.1125926,0.521481 0.5807408,0.841481 0.4681481,0.32 1.0429629,0.456297 0.5748151,0.136296 1.2503701,0.136296 l 0,1.505185 L 0,29.629628 Z m 8.248889,-11.851852 7.727407,0 -2.631111,-7.194074 -1.042963,-3.1881485 z m 11.899259,-3.555555 0,-0.711112 1.102222,-0.545185 4.456297,-10.5955556 0.96,0 L 30.980741,12.989628 32,13.534813 l 0,0.687408 -4.740741,0 0,-0.687408 1.303704,-0.592592 -0.900741,-2.370371 -4.183703,0 -1.078519,2.382222 1.303704,0.557037 0,0.711112 -3.555556,0 z m 3.768889,-4.7407415 3.52,0 L 26.24,6.1629609 25.765926,4.7288869 Z"
     id="path6"
     inkscape:connector-curvature="0" />
</svg>
