<?xml version="1.0" encoding="UTF-8" standalone="no"?>
<svg
   xmlns:dc="http://purl.org/dc/elements/1.1/"
   xmlns:cc="http://creativecommons.org/ns#"
   xmlns:rdf="http://www.w3.org/1999/02/22-rdf-syntax-ns#"
   xmlns:svg="http://www.w3.org/2000/svg"
   xmlns="http://www.w3.org/2000/svg"
   xmlns:sodipodi="http://sodipodi.sourceforge.net/DTD/sodipodi-0.dtd"
   xmlns:inkscape="http://www.inkscape.org/namespaces/inkscape"
   version="1.1"
   width="32px"
   height="32px"
   id="svg2"
   inkscape:version="0.91 r13725"
   sodipodi:docname="french_press.svg">
  <metadata
     id="metadata12">
    <rdf:RDF>
      <cc:Work
         rdf:about="">
        <dc:format>image/svg+xml</dc:format>
        <dc:type
           rdf:resource="http://purl.org/dc/dcmitype/StillImage" />
      </cc:Work>
    </rdf:RDF>
  </metadata>
  <defs
     id="defs10" />
  <sodipodi:namedview
     pagecolor="#ffffff"
     bordercolor="#666666"
     borderopacity="1"
     objecttolerance="10"
     gridtolerance="10"
     guidetolerance="10"
     inkscape:pageopacity="0"
     inkscape:pageshadow="2"
     inkscape:window-width="1280"
     inkscape:window-height="972"
     id="namedview8"
     showgrid="false"
     inkscape:zoom="7.375"
     inkscape:cx="-0.20338983"
     inkscape:cy="16"
     inkscape:window-x="-8"
     inkscape:window-y="-8"
     inkscape:window-maximized="1"
     inkscape:current-layer="svg2" />
  <g
     id="g4"
     transform="matrix(0.01279991,0,0,-0.0128,-2.5896259,24.02)" />
  <path
     d="m 1.5072002,7.68 23.0398358,0 0,1.28 2.278383,0 q 1.113592,0 2.105585,0.4224 0.991993,0.4224 1.375991,1.344 0.179198,0.448 0.185598,1.3376 0.0064,0.8896 -0.185598,2.0032 -0.191999,1.1136 -0.518396,2.2528 -0.326399,1.1392 -0.870395,2.1952 -0.543996,1.056 -1.196791,1.696 -1.932786,1.9328 -3.174377,5.2864 l 0,2.6624 q 0,1.5872 -1.126393,2.7136 Q 22.294251,32 20.707063,32 L 9.1871463,32 Q 7.5999563,32 6.4735647,30.8736 5.3471727,29.7472 5.3471727,28.16 l 0,-16.64 z m 3.8399725,-1.28 0,-1.28 q 0,-0.5248 0.7551947,-0.9024 Q 6.8575623,3.84 7.9071543,3.84 l 6.3999537,0 0,-1.28 Q 13.257515,2.56 12.50232,2.1824 11.747126,1.8048 11.747126,1.28 q 0,-0.5248 0.755194,-0.9024 Q 13.257515,0 14.307108,0 l 1.279991,0 q 1.049592,0 1.804787,0.3776 0.755195,0.3776 0.755195,0.9024 0,0.5248 -0.755195,0.9024 Q 16.636691,2.56 15.587099,2.56 l 0,1.28 6.399955,0 q 1.049592,0 1.804787,0.3776 0.755195,0.3776 0.755195,0.9024 l 0,1.28 -19.1998633,0 z M 24.547036,20.0064 q 0.601595,-0.8192 1.36959,-1.6128 0.575996,-0.5632 0.972793,-1.472 0.396796,-0.9088 0.531196,-1.8176 0.134399,-0.9088 0.128,-1.728 -0.0064,-0.8192 -0.204798,-1.3376 -0.1984,-0.5184 -0.518398,-0.5184 l -2.278383,0 0,8.4864 z"
     id="path6"
     inkscape:connector-curvature="0" />
</svg>
