<?xml version="1.0" encoding="UTF-8" standalone="no"?>
<svg
   xmlns:dc="http://purl.org/dc/elements/1.1/"
   xmlns:cc="http://creativecommons.org/ns#"
   xmlns:rdf="http://www.w3.org/1999/02/22-rdf-syntax-ns#"
   xmlns:svg="http://www.w3.org/2000/svg"
   xmlns="http://www.w3.org/2000/svg"
   xmlns:sodipodi="http://sodipodi.sourceforge.net/DTD/sodipodi-0.dtd"
   xmlns:inkscape="http://www.inkscape.org/namespaces/inkscape"
   version="1.1"
   width="32px"
   height="32px"
   id="svg2"
   inkscape:version="0.91 r13725"
   sodipodi:docname="fullscreen.svg">
  <metadata
     id="metadata12">
    <rdf:RDF>
      <cc:Work
         rdf:about="">
        <dc:format>image/svg+xml</dc:format>
        <dc:type
           rdf:resource="http://purl.org/dc/dcmitype/StillImage" />
      </cc:Work>
    </rdf:RDF>
  </metadata>
  <defs
     id="defs10" />
  <sodipodi:namedview
     pagecolor="#ffffff"
     bordercolor="#666666"
     borderopacity="1"
     objecttolerance="10"
     gridtolerance="10"
     guidetolerance="10"
     inkscape:pageopacity="0"
     inkscape:pageshadow="2"
     inkscape:window-width="1920"
     inkscape:window-height="1028"
     id="namedview8"
     showgrid="false"
     inkscape:zoom="7.375"
     inkscape:cx="-23.322034"
     inkscape:cy="16"
     inkscape:window-x="-8"
     inkscape:window-y="-8"
     inkscape:window-maximized="1"
     inkscape:current-layer="svg2" />
  <g
     id="g4"
     transform="matrix(0.01333333,0,0,0.01333333,-1.3333333,1.3333333)" />
  <path
     d="m 0,0 0,9.3333333 2.6666667,0 0,-6.6666666 6.6666663,0 L 9.333333,0 0,0 Z M 0,22.666667 0,32 l 9.333333,0 0,-2.666667 -6.6666663,0 0,-6.666666 -2.6666667,0 z M 5.3333333,6 l 0,8 q 0,0.28 0.14,0.333333 Q 5.6133333,14.386667 5.8,14.2 L 8.586667,11.413333 13.173333,16 8.586667,20.586667 5.8,17.8 Q 5.6133333,17.613333 5.4733333,17.666667 5.3333333,17.72 5.3333333,18 l 0,8 q 0,0.28 0.1933334,0.473333 Q 5.72,26.666667 6,26.666667 l 8,0 q 0.28,0 0.333333,-0.14 Q 14.386667,26.386667 14.2,26.2 L 11.413333,23.413333 16,18.826667 20.586667,23.413333 17.8,26.2 q -0.186667,0.186667 -0.133333,0.326667 0.05333,0.14 0.333333,0.14 l 8,0 q 0.28,0 0.473333,-0.193334 Q 26.666667,26.28 26.666667,26 l 0,-8 q 0,-0.28 -0.14,-0.333333 Q 26.386667,17.613333 26.2,17.8 L 23.413333,20.586667 18.826667,16 23.413333,11.413333 26.2,14.2 q 0.186667,0.186667 0.326667,0.133333 0.14,-0.05333 0.14,-0.333333 l 0,-8 q 0,-0.28 -0.193334,-0.4733333 Q 26.28,5.3333333 26,5.3333333 l -8,0 q -0.28,0 -0.333333,0.14 Q 17.613333,5.6133333 17.8,5.8 L 20.586667,8.5866667 16,13.173333 11.413333,8.5866667 14.2,5.8 Q 14.386667,5.6133333 14.333333,5.4733333 14.28,5.3333333 14,5.3333333 l -8,0 q -0.28,0 -0.4733333,0.1933334 Q 5.3333333,5.72 5.3333333,6 Z m 17.3333337,-6 0,2.6666667 6.666666,0 0,6.6666666 2.666667,0 L 32,0 22.666667,0 Z m 0,29.333333 0,2.666667 L 32,32 l 0,-9.333333 -2.666667,0 0,6.666666 -6.666666,0 z"
     id="path6"
     inkscape:connector-curvature="0" />
</svg>
