<?xml version="1.0" encoding="UTF-8" standalone="no"?>
<svg
   xmlns:dc="http://purl.org/dc/elements/1.1/"
   xmlns:cc="http://creativecommons.org/ns#"
   xmlns:rdf="http://www.w3.org/1999/02/22-rdf-syntax-ns#"
   xmlns:svg="http://www.w3.org/2000/svg"
   xmlns="http://www.w3.org/2000/svg"
   xmlns:sodipodi="http://sodipodi.sourceforge.net/DTD/sodipodi-0.dtd"
   xmlns:inkscape="http://www.inkscape.org/namespaces/inkscape"
   version="1.1"
   width="32px"
   height="32px"
   id="svg2"
   inkscape:version="0.91 r13725"
   sodipodi:docname="gamepad.svg">
  <metadata
     id="metadata12">
    <rdf:RDF>
      <cc:Work
         rdf:about="">
        <dc:format>image/svg+xml</dc:format>
        <dc:type
           rdf:resource="http://purl.org/dc/dcmitype/StillImage" />
      </cc:Work>
    </rdf:RDF>
  </metadata>
  <defs
     id="defs10" />
  <sodipodi:namedview
     pagecolor="#ffffff"
     bordercolor="#666666"
     borderopacity="1"
     objecttolerance="10"
     gridtolerance="10"
     guidetolerance="10"
     inkscape:pageopacity="0"
     inkscape:pageshadow="2"
     inkscape:window-width="1920"
     inkscape:window-height="1028"
     id="namedview8"
     showgrid="false"
     inkscape:zoom="7.375"
     inkscape:cx="-23.322034"
     inkscape:cy="16"
     inkscape:window-x="-8"
     inkscape:window-y="-8"
     inkscape:window-maximized="1"
     inkscape:current-layer="svg2" />
  <g
     id="g4"
     transform="matrix(0.01268089,0,0,-0.01268065,-0.71027888,19.415232)" />
  <path
     d="M 0.15851049,23.510773 4.1149469,7.3556297 Q 4.4953734,5.8339534 5.8395474,5.0477533 7.1837212,4.2615532 8.6927462,4.6800145 l 5.4527818,1.8894151 3.804265,0 5.376696,-1.8894151 q 1.509026,-0.4184613 2.8532,0.3677388 1.344174,0.7862001 1.711919,2.3078764 l 3.969116,16.1551433 q 0.228256,1.052493 0.08243,1.902097 -0.14583,0.849602 -0.659405,1.413891 -0.513576,0.564288 -1.249067,0.627691 -1.128599,0.101446 -2.567879,-0.741817 -1.439281,-0.843263 -2.339624,-2.124008 l -3.220945,-4.603075 q -0.989109,0.532587 -2.054304,0.532587 -1.192003,0 -2.200133,-0.589649 -1.008131,-0.58965 -1.604133,-1.591421 -0.596001,1.001771 -1.604132,1.591421 -1.00813,0.589649 -2.200133,0.589649 -1.090557,0 -2.117708,-0.557947 L 6.8920652,24.588627 Q 5.991718,25.869372 4.546097,26.712635 3.1004761,27.555897 1.9718772,27.454452 0.84327829,27.353007 0.31068109,26.192729 -0.22191611,25.03245 0.15851049,23.510773 Z m 6.37848561,-13.13715 1.2680891,0 0,1.268065 1.268088,0 0,-1.268065 1.2680888,0 0,-1.2680634 -1.2680888,0 0,-1.2680653 -1.268088,0 0,1.2680653 -1.2680891,0 0,1.2680634 z m 3.3223921,5.706291 q 0,0.989089 0.6974488,1.686527 0.697448,0.697435 1.686558,0.697435 0.989109,0 1.686557,-0.697435 0.697449,-0.697438 0.697449,-1.686527 0,-0.989091 -0.697449,-1.686525 -0.697448,-0.697436 -1.686557,-0.697436 -0.98911,0 -1.686558,0.697436 -0.6974488,0.697434 -0.6974488,1.686525 z m 7.6085318,0 q 0,0.989089 0.697448,1.686527 0.697449,0.697435 1.686558,0.697435 0.989109,0 1.686558,-0.697435 0.697449,-0.697438 0.697449,-1.686527 0,-0.989091 -0.697449,-1.686525 -0.697449,-0.697436 -1.686558,-0.697436 -0.989109,0 -1.686558,0.697436 -0.697448,0.697434 -0.697448,1.686525 z m 2.510815,-6.3403232 q 0,0.4691842 0.336044,0.8052222 0.336043,0.336037 0.805236,0.336037 0.469193,0 0.805236,-0.336037 0.336044,-0.336038 0.336044,-0.8052222 0,-0.4691833 -0.336044,-0.8052207 -0.336043,-0.3360374 -0.805236,-0.3360374 -0.469193,0 -0.805236,0.3360374 -0.336044,0.3360374 -0.336044,0.8052207 z m 2.536177,2.5361292 q 0,0.469185 0.336044,0.805222 0.336043,0.336036 0.805236,0.336036 0.469193,0 0.805237,-0.336036 0.336043,-0.336037 0.336043,-0.805222 0,-0.469183 -0.336043,-0.80522 -0.336044,-0.336038 -0.805237,-0.336038 -0.469193,0 -0.805236,0.336038 -0.336044,0.336037 -0.336044,0.80522 z m 0,-5.072258 q 0,0.4691839 0.336044,0.8052211 0.336043,0.3360371 0.805236,0.3360371 0.469193,0 0.805237,-0.3360371 0.336043,-0.3360372 0.336043,-0.8052211 0,-0.4691839 -0.336043,-0.8052211 -0.336044,-0.3360371 -0.805237,-0.3360371 -0.469193,0 -0.805236,0.3360371 -0.336044,0.3360372 -0.336044,0.8052211 z m 2.536178,2.5361288 q 0,0.4691842 0.336043,0.8052222 0.336044,0.336037 0.805236,0.336037 0.469193,0 0.805237,-0.336037 0.336043,-0.336038 0.336043,-0.8052222 0,-0.4691833 -0.336043,-0.8052207 -0.336044,-0.3360374 -0.805237,-0.3360374 -0.469192,0 -0.805236,0.3360374 -0.336043,0.3360374 -0.336043,0.8052207 z"
     id="path6"
     inkscape:connector-curvature="0" />
</svg>
