<?xml version="1.0" encoding="UTF-8" standalone="no"?>
<!-- Created with Inkscape (http://www.inkscape.org/) -->

<svg
   xmlns:dc="http://purl.org/dc/elements/1.1/"
   xmlns:cc="http://creativecommons.org/ns#"
   xmlns:rdf="http://www.w3.org/1999/02/22-rdf-syntax-ns#"
   xmlns:svg="http://www.w3.org/2000/svg"
   xmlns="http://www.w3.org/2000/svg"
   xmlns:sodipodi="http://sodipodi.sourceforge.net/DTD/sodipodi-0.dtd"
   xmlns:inkscape="http://www.inkscape.org/namespaces/inkscape"
   width="32px"
   height="32px"
   id="svg3096"
   version="1.1"
   inkscape:version="0.91 r13725"
   sodipodi:docname="gender_male.svg">
  <defs
     id="defs3098">
    <inkscape:perspective
       sodipodi:type="inkscape:persp3d"
       inkscape:vp_x="0 : 16 : 1"
       inkscape:vp_y="0 : 1000 : 0"
       inkscape:vp_z="32 : 16 : 1"
       inkscape:persp3d-origin="16 : 10.666667 : 1"
       id="perspective2995" />
  </defs>
  <sodipodi:namedview
     id="base"
     pagecolor="#ffffff"
     bordercolor="#666666"
     borderopacity="1.0"
     inkscape:pageopacity="0.0"
     inkscape:pageshadow="2"
     inkscape:zoom="12.212953"
     inkscape:cx="11.887832"
     inkscape:cy="9.3148288"
     inkscape:current-layer="layer1"
     showgrid="true"
     inkscape:grid-bbox="true"
     inkscape:document-units="px"
     inkscape:window-width="1920"
     inkscape:window-height="1028"
     inkscape:window-x="-8"
     inkscape:window-y="-8"
     inkscape:window-maximized="1" />
  <metadata
     id="metadata3101">
    <rdf:RDF>
      <cc:Work
         rdf:about="">
        <dc:format>image/svg+xml</dc:format>
        <dc:type
           rdf:resource="http://purl.org/dc/dcmitype/StillImage" />
        <dc:title />
      </cc:Work>
    </rdf:RDF>
  </metadata>
  <g
     id="layer1"
     inkscape:label="Layer 1"
     inkscape:groupmode="layer">
    <path
       style="fill:#000000"
       d="m 15.666896,-2.2351796e-8 0,3.708854122351796 8.345044,0 -8.113237,8.6539929 C 11.774581,10.01868 6.4600354,10.681676 3.0720593,14.294541 c -3.9699466,4.233465 -3.7699136,10.904162 0.4636135,14.874051 4.2335269,3.969888 10.9043232,3.731224 14.8742702,-0.502241 3.387976,-3.612864 3.724512,-8.93865 1.120399,-12.903721 l 8.538218,-9.1175998 0,8.1903858 3.708909,0 0,-14.835416022351797 -1.274937,0 -14.835636,0 z M 10.489877,14.062738 c 1.897406,-0.06096 3.837371,0.607826 5.331557,2.008963 2.988373,2.802274 3.111389,7.520092 0.309075,10.50842 C 13.328193,29.568449 8.6489417,29.691466 5.6605685,26.889192 2.6721955,24.086918 2.510543,19.407733 5.3128583,16.419406 6.7140158,14.925242 8.5924707,14.123702 10.489877,14.062738 Z"
       id="path2983"
       inkscape:connector-curvature="0" />
  </g>
</svg>
