<?xml version="1.0" encoding="UTF-8" standalone="no"?>
<!-- Created with Inkscape (http://www.inkscape.org/) -->

<svg
   xmlns:dc="http://purl.org/dc/elements/1.1/"
   xmlns:cc="http://creativecommons.org/ns#"
   xmlns:rdf="http://www.w3.org/1999/02/22-rdf-syntax-ns#"
   xmlns:svg="http://www.w3.org/2000/svg"
   xmlns="http://www.w3.org/2000/svg"
   xmlns:sodipodi="http://sodipodi.sourceforge.net/DTD/sodipodi-0.dtd"
   xmlns:inkscape="http://www.inkscape.org/namespaces/inkscape"
   width="32px"
   height="32px"
   id="svg3096"
   version="1.1"
   inkscape:version="0.91 r13725"
   sodipodi:docname="gender_female.svg">
  <defs
     id="defs3098">
    <inkscape:perspective
       sodipodi:type="inkscape:persp3d"
       inkscape:vp_x="0 : 16 : 1"
       inkscape:vp_y="0 : 1000 : 0"
       inkscape:vp_z="32 : 16 : 1"
       inkscape:persp3d-origin="16 : 10.666667 : 1"
       id="perspective2995" />
  </defs>
  <sodipodi:namedview
     id="base"
     pagecolor="#ffffff"
     bordercolor="#666666"
     borderopacity="1.0"
     inkscape:pageopacity="0.0"
     inkscape:pageshadow="2"
     inkscape:zoom="12.212953"
     inkscape:cx="11.887832"
     inkscape:cy="9.3148288"
     inkscape:current-layer="layer1"
     showgrid="true"
     inkscape:grid-bbox="true"
     inkscape:document-units="px"
     inkscape:window-width="1920"
     inkscape:window-height="1028"
     inkscape:window-x="-8"
     inkscape:window-y="-8"
     inkscape:window-maximized="1" />
  <metadata
     id="metadata3101">
    <rdf:RDF>
      <cc:Work
         rdf:about="">
        <dc:format>image/svg+xml</dc:format>
        <dc:type
           rdf:resource="http://purl.org/dc/dcmitype/StillImage" />
        <dc:title />
      </cc:Work>
    </rdf:RDF>
  </metadata>
  <g
     id="layer1"
     inkscape:label="Layer 1"
     inkscape:groupmode="layer">
    <path
       style="fill:#000000"
       d="m 16,0 c -5.007382,0 -9.0666665,4.059285 -9.0666665,9.0666667 0,4.2733293 2.954284,7.8413903 6.9333325,8.8000003 l 0,4.8 -5.8666658,0 0,4.266666 5.8666658,0 0,5.066667 4.266667,0 0,-5.066667 5.866667,0 0,-4.266666 -5.866667,0 0,-4.8 c 3.97905,-0.95861 6.933333,-4.526671 6.933333,-8.8000003 C 25.066666,4.059285 21.007381,0 16,0 Z m 0,2.6666667 c 3.534623,0 6.4,2.8653776 6.4,6.4 0,3.5346223 -2.865377,6.4000003 -6.4,6.4000003 -3.534623,0 -6.3999995,-2.865378 -6.3999995,-6.4000003 0,-3.5346224 2.8653765,-6.4 6.3999995,-6.4 z"
       id="path2983"
       inkscape:connector-curvature="0" />
  </g>
</svg>
