<?xml version="1.0" encoding="UTF-8" standalone="no"?>
<svg
   xmlns:dc="http://purl.org/dc/elements/1.1/"
   xmlns:cc="http://creativecommons.org/ns#"
   xmlns:rdf="http://www.w3.org/1999/02/22-rdf-syntax-ns#"
   xmlns:svg="http://www.w3.org/2000/svg"
   xmlns="http://www.w3.org/2000/svg"
   xmlns:sodipodi="http://sodipodi.sourceforge.net/DTD/sodipodi-0.dtd"
   xmlns:inkscape="http://www.inkscape.org/namespaces/inkscape"
   version="1.1"
   width="32px"
   height="32px"
   id="svg2"
   inkscape:version="0.91 r13725"
   sodipodi:docname="girl.svg">
  <metadata
     id="metadata12">
    <rdf:RDF>
      <cc:Work
         rdf:about="">
        <dc:format>image/svg+xml</dc:format>
        <dc:type
           rdf:resource="http://purl.org/dc/dcmitype/StillImage" />
      </cc:Work>
    </rdf:RDF>
  </metadata>
  <defs
     id="defs10" />
  <sodipodi:namedview
     pagecolor="#ffffff"
     bordercolor="#666666"
     borderopacity="1"
     objecttolerance="10"
     gridtolerance="10"
     guidetolerance="10"
     inkscape:pageopacity="0"
     inkscape:pageshadow="2"
     inkscape:window-width="1920"
     inkscape:window-height="1028"
     id="namedview8"
     showgrid="false"
     inkscape:zoom="7.375"
     inkscape:cx="-23.322034"
     inkscape:cy="16"
     inkscape:window-x="-8"
     inkscape:window-y="-8"
     inkscape:window-maximized="1"
     inkscape:current-layer="svg2" />
  <g
     id="g4"
     transform="matrix(0.01454557,0,0,-0.01454545,-5.6247437,21.181818)" />
  <path
     d="m 1.4427872,30.290909 q -0.00727,-0.167273 0.072727,-0.647273 0.08,-0.48 0.2763657,-0.930909 0.1963652,-0.450909 0.6909144,-1.018182 0.4945493,-0.567272 1.2072821,-1.003636 0.3054571,-0.174545 1.7672862,-1.2 1.46183,-1.025454 3.178207,-2.123636 1.7163764,-1.098182 2.9963884,-1.752728 l 0,-2.938181 -3.6218474,-1.338182 -2.9963874,4.552727 -3.3454806,-3.36 5.047312,-1.687273 2.007289,-3.752727 0,-5.8181817 q 0,-1.9054546 0.894551,-3.5563637 Q 10.511948,2.0654545 12.199236,1.0327273 13.88652,0 15.995627,0 q 1.890925,0 3.49821,1.0327273 1.607286,1.0327272 2.581838,2.6836363 0.974553,1.6509091 1.192736,3.5563637 l 0,5.8181817 1.992744,3.752727 5.061856,1.687273 -3.345479,3.36 -2.996387,-4.552727 -3.621846,1.338182 0,2.938181 q 1.28001,0.654546 2.996385,1.752728 1.716378,1.098182 3.178208,2.123636 1.461829,1.025455 1.767286,1.2 0.712733,0.436364 1.207282,0.989091 0.494549,0.552727 0.690915,1.04 0.196365,0.487273 0.283637,0.909091 0.08727,0.421818 0.07273,0.669091 l -0.01455,0.247273 0,0.727272 q 0,0.305455 -0.218185,0.516364 Q 30.104828,32 29.813917,32 L 2.1773383,32 Q 1.8718815,32 1.6609706,31.789091 1.4500599,31.578182 1.4500599,31.272727 l 0,-0.727272 0.014545,0 q -0.014545,-0.08727 -0.021818,-0.254546 z"
     id="path6"
     inkscape:connector-curvature="0" />
</svg>
