<?xml version="1.0" encoding="UTF-8" standalone="no"?>
<svg
   xmlns:dc="http://purl.org/dc/elements/1.1/"
   xmlns:cc="http://creativecommons.org/ns#"
   xmlns:rdf="http://www.w3.org/1999/02/22-rdf-syntax-ns#"
   xmlns:svg="http://www.w3.org/2000/svg"
   xmlns="http://www.w3.org/2000/svg"
   xmlns:sodipodi="http://sodipodi.sourceforge.net/DTD/sodipodi-0.dtd"
   xmlns:inkscape="http://www.inkscape.org/namespaces/inkscape"
   version="1.1"
   width="32px"
   height="32px"
   id="svg2"
   inkscape:version="0.91 r13725"
   sodipodi:docname="git_delete.svg">
  <metadata
     id="metadata12">
    <rdf:RDF>
      <cc:Work
         rdf:about="">
        <dc:format>image/svg+xml</dc:format>
        <dc:type
           rdf:resource="http://purl.org/dc/dcmitype/StillImage" />
      </cc:Work>
    </rdf:RDF>
  </metadata>
  <defs
     id="defs10" />
  <sodipodi:namedview
     pagecolor="#ffffff"
     bordercolor="#666666"
     borderopacity="1"
     objecttolerance="10"
     gridtolerance="10"
     guidetolerance="10"
     inkscape:pageopacity="0"
     inkscape:pageshadow="2"
     inkscape:window-width="1920"
     inkscape:window-height="1028"
     id="namedview8"
     showgrid="false"
     inkscape:zoom="7.375"
     inkscape:cx="-23.322034"
     inkscape:cy="16"
     inkscape:window-x="-8"
     inkscape:window-y="-8"
     inkscape:window-maximized="1"
     inkscape:current-layer="svg2" />
  <g
     id="g4"
     transform="matrix(0.01333333,0,0,-0.01333333,-4.5066667,22.666667)" />
  <path
     d="m 2.0266665,29.013333 0,-3.36 q 0,-1.146666 0.7666667,-1.986666 0.7666666,-0.84 1.9,-0.96 l 0,-13.4000003 q -1.1333334,-0.1333334 -1.9,-0.9733334 -0.7666667,-0.84 -0.7666667,-1.9866666 l 0,-3.36 Q 2.0266665,1.76 2.9066665,0.88 3.7866665,0 5.0133332,0 l 3.3600003,0 q 1.24,0 2.1133335,0.88 Q 11.36,1.76 11.36,2.9866667 l 0,3.36 q 0,1.1466666 -0.766666,1.9866666 -0.7666675,0.84 -1.9000005,0.9733334 L 8.6933335,16 14.32,16 17.653334,12.653333 20.48,15.48 16.573333,19.413333 Q 15.986667,20 15.16,20 l -6.4666665,0 0,2.706667 q 1.133333,0.12 1.9000005,0.96 0.766666,0.84 0.766666,1.986666 l 0,3.36 q 0,1.24 -0.873333,2.113334 Q 9.6133335,32 8.3733335,32 l -3.3600003,0 q -1.2266667,0 -2.1066667,-0.873333 -0.88,-0.873334 -0.88,-2.113334 z m 2.6666667,0 q 0,0.133334 0.093333,0.226667 0.093333,0.09333 0.2266667,0.09333 l 3.3600003,0 q 0.133333,0 0.226666,-0.09333 0.09333,-0.09333 0.09333,-0.226667 l 0,-3.36 q 0,-0.133333 -0.09333,-0.226666 -0.093333,-0.09333 -0.2266657,-0.09333 l -3.3600003,0 q -0.1333334,0 -0.2266667,0.09333 -0.093333,0.09333 -0.093333,0.226666 l 0,3.36 z m 0,-22.6666663 q 0,0.1333333 0.093333,0.2266666 0.093333,0.093333 0.2266667,0.093333 l 3.3600003,0 q 0.133333,0 0.226666,-0.093333 0.09333,-0.093333 0.09333,-0.2266666 l 0,-3.36 Q 8.6933292,2.8533333 8.5999992,2.76 8.5066662,2.666667 8.3733335,2.666667 l -3.3600003,0 q -0.1333334,0 -0.2266667,0.093333 -0.093333,0.093333 -0.093333,0.2266667 l 0,3.36 z M 19.413333,10.826667 21.866666,13.28 24.693334,10.453333 27.519999,13.28 29.973334,10.826667 27.146667,8 29.973334,5.1733333 27.519999,2.72 24.693334,5.5466667 21.866666,2.72 19.413333,5.1733333 22.239999,8 Z"
     id="path6"
     inkscape:connector-curvature="0" />
</svg>
