<?xml version="1.0" encoding="UTF-8" standalone="no"?>
<svg
   xmlns:dc="http://purl.org/dc/elements/1.1/"
   xmlns:cc="http://creativecommons.org/ns#"
   xmlns:rdf="http://www.w3.org/1999/02/22-rdf-syntax-ns#"
   xmlns:svg="http://www.w3.org/2000/svg"
   xmlns="http://www.w3.org/2000/svg"
   xmlns:sodipodi="http://sodipodi.sourceforge.net/DTD/sodipodi-0.dtd"
   xmlns:inkscape="http://www.inkscape.org/namespaces/inkscape"
   version="1.1"
   width="32px"
   height="32px"
   id="svg2"
   inkscape:version="0.91 r13725"
   sodipodi:docname="git_branch.svg">
  <metadata
     id="metadata12">
    <rdf:RDF>
      <cc:Work
         rdf:about="">
        <dc:format>image/svg+xml</dc:format>
        <dc:type
           rdf:resource="http://purl.org/dc/dcmitype/StillImage" />
      </cc:Work>
    </rdf:RDF>
  </metadata>
  <defs
     id="defs10" />
  <sodipodi:namedview
     pagecolor="#ffffff"
     bordercolor="#666666"
     borderopacity="1"
     objecttolerance="10"
     gridtolerance="10"
     guidetolerance="10"
     inkscape:pageopacity="0"
     inkscape:pageshadow="2"
     inkscape:window-width="1920"
     inkscape:window-height="1028"
     id="namedview8"
     showgrid="false"
     inkscape:zoom="7.375"
     inkscape:cx="-23.322034"
     inkscape:cy="16"
     inkscape:window-x="-8"
     inkscape:window-y="-8"
     inkscape:window-maximized="1"
     inkscape:current-layer="svg2" />
  <g
     id="g4"
     transform="matrix(0.01333333,0,0,-0.01333333,-4.8333333,22.666667)" />
  <path
     d="m 3.3333335,29.013333 0,-3.36 q 0,-1.146666 0.7666667,-1.986666 0.7666666,-0.84 1.9,-0.973334 l 0,-13.3866663 q -1.1333334,-0.1333334 -1.9,-0.9733334 -0.7666667,-0.84 -0.7666667,-1.9866666 l 0,-3.36 Q 3.3333335,1.76 4.2133335,0.88 5.0933335,0 6.3200002,0 l 3.3600003,0 q 1.2400005,0 2.1133335,0.88 0.873333,0.88 0.873333,2.1066667 l 0,3.36 q 0,1.1466666 -0.766666,1.9866666 -0.766667,0.84 -1.9,0.9733334 l 0,6.6933333 5.626666,0 3.76,-3.8 q -0.05333,-0.346667 -0.05333,-0.52 l 0,-3.36 q 0,-1.2266667 0.879999,-2.1066667 0.88,-0.88 2.106667,-0.88 l 3.36,0 q 1.24,0 2.113333,0.88 0.873333,0.88 0.873333,2.1066667 l 0,3.36 q 0,1.24 -0.873333,2.113333 Q 26.92,14.666667 25.68,14.666667 l -3.106667,0 L 17.880001,19.4 Q 17.306667,20 16.466667,20 l -6.466666,0 0,2.693333 q 1.133333,0.133334 1.9,0.973334 0.766666,0.84 0.766666,1.986666 l 0,3.36 q 0,1.24 -0.873333,2.113334 Q 10.920001,32 9.6800005,32 l -3.3600003,0 q -1.2266667,0 -2.1066667,-0.873333 -0.88,-0.873334 -0.88,-2.113334 z m 2.6666667,0 q 0,0.133334 0.093333,0.226667 0.093333,0.09333 0.2266667,0.09333 l 3.3600003,0 q 0.133333,0 0.226666,-0.09333 0.09333,-0.09333 0.09333,-0.226667 l 0,-3.36 q 0,-0.133333 -0.09333,-0.226666 -0.09333,-0.09333 -0.226666,-0.09333 l -3.3600003,0 q -0.1333334,0 -0.2266667,0.09333 -0.093333,0.09333 -0.093333,0.226666 l 0,3.36 z m 0,-22.6666663 q 0,0.1333333 0.093333,0.2266666 0.093333,0.093333 0.2266667,0.093333 l 3.3600003,0 q 0.133333,0 0.226666,-0.093333 0.09333,-0.093333 0.09333,-0.2266666 l 0,-3.36 Q 9.9999962,2.8533333 9.9066662,2.76 9.8133332,2.666667 9.6800005,2.666667 l -3.3600003,0 q -0.1333334,0 -0.2266667,0.093333 -0.093333,0.093333 -0.093333,0.2266667 l 0,3.36 z M 22.000001,11.68 q 0,0.133333 0.09333,0.226667 Q 22.186666,12 22.320001,12 l 3.36,0 q 0.133333,0 0.226666,-0.09333 0.09333,-0.09333 0.09333,-0.226667 l 0,-3.36 q 0,-0.1333333 -0.09333,-0.2266667 Q 25.813334,8 25.680001,8 l -3.36,0 Q 22.186666,8 22.093334,8.0933333 22.000001,8.1866667 22.000001,8.32 l 0,3.36 z"
     id="path6"
     inkscape:connector-curvature="0" />
</svg>
