<?xml version="1.0" encoding="UTF-8" standalone="no"?>
<svg
   xmlns:dc="http://purl.org/dc/elements/1.1/"
   xmlns:cc="http://creativecommons.org/ns#"
   xmlns:rdf="http://www.w3.org/1999/02/22-rdf-syntax-ns#"
   xmlns:svg="http://www.w3.org/2000/svg"
   xmlns="http://www.w3.org/2000/svg"
   xmlns:sodipodi="http://sodipodi.sourceforge.net/DTD/sodipodi-0.dtd"
   xmlns:inkscape="http://www.inkscape.org/namespaces/inkscape"
   version="1.1"
   width="32px"
   height="32px"
   id="svg2"
   inkscape:version="0.91 r13725"
   sodipodi:docname="git_pull_request.svg">
  <metadata
     id="metadata12">
    <rdf:RDF>
      <cc:Work
         rdf:about="">
        <dc:format>image/svg+xml</dc:format>
        <dc:type
           rdf:resource="http://purl.org/dc/dcmitype/StillImage" />
      </cc:Work>
    </rdf:RDF>
  </metadata>
  <defs
     id="defs10" />
  <sodipodi:namedview
     pagecolor="#ffffff"
     bordercolor="#666666"
     borderopacity="1"
     objecttolerance="10"
     gridtolerance="10"
     guidetolerance="10"
     inkscape:pageopacity="0"
     inkscape:pageshadow="2"
     inkscape:window-width="1920"
     inkscape:window-height="1028"
     id="namedview8"
     showgrid="false"
     inkscape:zoom="7.375"
     inkscape:cx="-0.20338983"
     inkscape:cy="16"
     inkscape:window-x="-8"
     inkscape:window-y="-8"
     inkscape:window-maximized="1"
     inkscape:current-layer="svg2" />
  <g
     id="g4"
     transform="matrix(0.01333333,0,0,-0.01333333,-4.6666667,33.333333)" />
  <path
     d="m 2.6666665,29.013333 0,-3.36 q 0,-1.146666 0.7666667,-1.986666 0.7666666,-0.84 1.9,-0.973334 l 0,-13.3866663 q -1.1333334,-0.1333334 -1.9,-0.9733334 -0.7666667,-0.84 -0.7666667,-1.9866666 l 0,-3.36 Q 2.6666665,1.76 3.5466665,0.88 4.4266665,0 5.6533332,0 L 9.0133335,0 Q 10.253334,0 11.126667,0.88 12,1.76 12,2.9866667 l 0,3.36 q 0,1.1466666 -0.766666,1.9866666 -0.766667,0.84 -1.9000005,0.9733334 l 0,13.3866663 Q 10.466667,22.826667 11.233334,23.666667 12,24.506667 12,25.653333 l 0,3.36 q 0,1.24 -0.873333,2.113334 Q 10.253334,32 9.0133335,32 l -3.3600003,0 q -1.2266667,0 -2.1066667,-0.873333 -0.88,-0.873334 -0.88,-2.113334 z m 2.6666667,0 q 0,0.133334 0.093333,0.226667 0.093333,0.09333 0.2266667,0.09333 l 3.3600003,0 q 0.133333,0 0.226666,-0.09333 0.09333,-0.09333 0.09333,-0.226667 l 0,-3.36 q 0,-0.133333 -0.09333,-0.226666 -0.09333,-0.09333 -0.226666,-0.09333 l -3.3600003,0 q -0.1333334,0 -0.2266667,0.09333 -0.093333,0.09333 -0.093333,0.226666 l 0,3.36 z m 0,-22.6666663 q 0,0.1333333 0.093333,0.2266666 0.093333,0.093333 0.2266667,0.093333 l 3.3600003,0 q 0.133333,0 0.226666,-0.093333 0.09333,-0.093333 0.09333,-0.2266666 l 0,-3.36 Q 9.3333292,2.8533333 9.2399992,2.76 9.1466662,2.666667 9.0133335,2.666667 l -3.3600003,0 q -0.1333334,0 -0.2266667,0.093333 -0.093333,0.093333 -0.093333,0.2266667 l 0,3.36 z m 8.1466668,-0.36 5.186667,-4.6533334 0,2.6666667 8,0 0,18.706667 q 1.133333,0.12 1.899999,0.96 0.766667,0.84 0.766667,1.986666 l 0,3.36 q 0,1.24 -0.873334,2.113334 Q 27.586667,32 26.346667,32 l -3.36,0 Q 21.76,32 20.879999,31.126667 20,30.253333 20,29.013333 l 0,-3.36 q 0,-1.146666 0.766667,-1.986666 0.766666,-0.84 1.9,-0.96 l 0,-14.706667 -4,0 0,2.64 z m 9.186667,23.0266663 q 0,0.133334 0.09333,0.226667 0.09333,0.09333 0.226667,0.09333 l 3.36,0 q 0.133333,0 0.226666,-0.09333 0.09334,-0.09333 0.09334,-0.226667 l 0,-3.36 q 0,-0.133333 -0.09333,-0.226666 -0.09333,-0.09333 -0.226666,-0.09333 l -3.36,0 q -0.133333,0 -0.226667,0.09333 -0.09333,0.09333 -0.09333,0.226666 l 0,3.36 z"
     id="path6"
     inkscape:connector-curvature="0" />
</svg>
