<?xml version="1.0" encoding="UTF-8" standalone="no"?>
<svg
   xmlns:dc="http://purl.org/dc/elements/1.1/"
   xmlns:cc="http://creativecommons.org/ns#"
   xmlns:rdf="http://www.w3.org/1999/02/22-rdf-syntax-ns#"
   xmlns:svg="http://www.w3.org/2000/svg"
   xmlns="http://www.w3.org/2000/svg"
   xmlns:sodipodi="http://sodipodi.sourceforge.net/DTD/sodipodi-0.dtd"
   xmlns:inkscape="http://www.inkscape.org/namespaces/inkscape"
   version="1.1"
   width="32px"
   height="32px"
   id="svg2"
   inkscape:version="0.91 r13725"
   sodipodi:docname="git_private.svg">
  <metadata
     id="metadata12">
    <rdf:RDF>
      <cc:Work
         rdf:about="">
        <dc:format>image/svg+xml</dc:format>
        <dc:type
           rdf:resource="http://purl.org/dc/dcmitype/StillImage" />
      </cc:Work>
    </rdf:RDF>
  </metadata>
  <defs
     id="defs10" />
  <sodipodi:namedview
     pagecolor="#ffffff"
     bordercolor="#666666"
     borderopacity="1"
     objecttolerance="10"
     gridtolerance="10"
     guidetolerance="10"
     inkscape:pageopacity="0"
     inkscape:pageshadow="2"
     inkscape:window-width="1920"
     inkscape:window-height="1028"
     id="namedview8"
     showgrid="false"
     inkscape:zoom="7.375"
     inkscape:cx="-23.322034"
     inkscape:cy="16"
     inkscape:window-x="-8"
     inkscape:window-y="-8"
     inkscape:window-maximized="1"
     inkscape:current-layer="svg2" />
  <g
     id="g4"
     transform="matrix(0.01333333,0,0,-0.01333333,-4.5,33.333333)" />
  <path
     d="m 2,29.013333 0,-3.36 q 0,-1.146666 0.7666667,-1.986666 0.7666666,-0.84 1.9,-0.96 l 0,-13.4000003 Q 3.5333333,9.1733333 2.7666667,8.3333333 2,7.4933333 2,6.3466667 l 0,-3.36 Q 2,1.76 2.88,0.88 3.76,0 4.9866667,0 L 8.346667,0 q 1.24,0 2.113333,0.88 0.873333,0.88 0.873333,2.1066667 l 0,3.36 q 0,1.1466666 -0.766666,1.9866666 -0.766667,0.84 -1.9,0.9733334 l 0,6.6933333 5.626666,0 2.68,-2.693333 q 0.413334,0.933333 1.26,1.666666 0.846667,0.733334 1.78,0.946667 l -3.466666,3.493333 Q 15.96,20 15.133333,20 l -6.466666,0 0,2.706667 q 1.133333,0.12 1.9,0.96 0.766666,0.84 0.766666,1.986666 l 0,3.36 q 0,1.24 -0.873333,2.113334 Q 9.586667,32 8.346667,32 L 4.9866667,32 Q 3.76,32 2.88,31.126667 2,30.253333 2,29.013333 Z m 2.6666667,0 q 0,0.133334 0.093333,0.226667 0.093333,0.09333 0.2266667,0.09333 l 3.3600003,0 q 0.133333,0 0.226666,-0.09333 0.09333,-0.09333 0.09333,-0.226667 l 0,-3.36 q 0,-0.133333 -0.09333,-0.226666 -0.09333,-0.09333 -0.226666,-0.09333 l -3.3600003,0 q -0.1333334,0 -0.2266667,0.09333 -0.093333,0.09333 -0.093333,0.226666 l 0,3.36 z m 0,-22.6666663 q 0,0.1333333 0.093333,0.2266666 0.093333,0.093333 0.2266667,0.093333 l 3.3600003,0 q 0.133333,0 0.226666,-0.093333 0.09333,-0.093333 0.09333,-0.2266666 l 0,-3.36 Q 8.6666627,2.8533333 8.5733327,2.76 8.48,2.666667 8.346667,2.666667 l -3.3600003,0 Q 4.8533333,2.666667 4.76,2.76 4.666667,2.853333 4.666667,2.9866667 l 0,3.36 z M 19.333333,12 l 0,-5.3333333 q 0,-0.5466667 0.393334,-0.94 0.393333,-0.3933334 0.94,-0.3933334 L 20.666667,4 q 0,-1.0933333 0.786666,-1.88 0.786667,-0.7866667 1.88,-0.7866667 l 2.666667,0 q 1.093333,0 1.88,0.7866667 0.786667,0.7866667 0.786667,1.88 l 0,1.3333333 q 0.546666,0 0.94,0.3933334 Q 30,6.12 30,6.6666667 L 30,12 q 0,0.546667 -0.393333,0.94 -0.393334,0.393333 -0.94,0.393333 l -8,0 q -0.546667,0 -0.94,-0.393333 Q 19.333333,12.546667 19.333333,12 Z m 4,-6.6666667 2.666667,0 0,-0.6666666 Q 26,4.4 25.806667,4.2 25.613333,4 25.333333,4 L 24,4 q -0.266667,0 -0.466667,0.2 -0.2,0.2 -0.2,0.4666667 l 0,0.6666666 z"
     id="path6"
     inkscape:connector-curvature="0" />
</svg>
