<?xml version="1.0" encoding="UTF-8" standalone="no"?>
<svg
   xmlns:dc="http://purl.org/dc/elements/1.1/"
   xmlns:cc="http://creativecommons.org/ns#"
   xmlns:rdf="http://www.w3.org/1999/02/22-rdf-syntax-ns#"
   xmlns:svg="http://www.w3.org/2000/svg"
   xmlns="http://www.w3.org/2000/svg"
   xmlns:sodipodi="http://sodipodi.sourceforge.net/DTD/sodipodi-0.dtd"
   xmlns:inkscape="http://www.inkscape.org/namespaces/inkscape"
   version="1.1"
   width="32px"
   height="32px"
   id="svg2"
   inkscape:version="0.91 r13725"
   sodipodi:docname="git_merge.svg">
  <metadata
     id="metadata12">
    <rdf:RDF>
      <cc:Work
         rdf:about="">
        <dc:format>image/svg+xml</dc:format>
        <dc:type
           rdf:resource="http://purl.org/dc/dcmitype/StillImage" />
      </cc:Work>
    </rdf:RDF>
  </metadata>
  <defs
     id="defs10" />
  <sodipodi:namedview
     pagecolor="#ffffff"
     bordercolor="#666666"
     borderopacity="1"
     objecttolerance="10"
     gridtolerance="10"
     guidetolerance="10"
     inkscape:pageopacity="0"
     inkscape:pageshadow="2"
     inkscape:window-width="1920"
     inkscape:window-height="1028"
     id="namedview8"
     showgrid="false"
     inkscape:zoom="7.375"
     inkscape:cx="-23.322034"
     inkscape:cy="16"
     inkscape:window-x="-8"
     inkscape:window-y="-8"
     inkscape:window-maximized="1"
     inkscape:current-layer="svg2" />
  <g
     id="g4"
     transform="matrix(0.01333333,0,0,-0.01333333,-4.5,22.666667)" />
  <path
     d="m 2,29.013333 0,-3.36 q 0,-1.146666 0.7666667,-1.986666 0.7666666,-0.84 1.9,-0.96 l 0,-13.4000003 Q 3.5333333,9.1733333 2.7666667,8.3333333 2,7.4933333 2,6.3466667 l 0,-3.36 Q 2,1.76 2.88,0.88 3.76,0 4.9866667,0 L 8.346667,0 q 1.24,0 2.113333,0.88 0.873333,0.88 0.873333,2.1066667 l 0,3.36 q 0,1.1466666 -0.766666,1.9866666 -0.766667,0.84 -1.9,0.9733334 l 0,1.2666663 5.68,5.426667 6.36,0 q 0.12,-1.04 0.973333,-1.853333 0.853333,-0.813334 1.973333,-0.813334 l 3.36,0 q 1.24,0 2.113334,0.88 Q 30,15.093333 30,16.32 l 0,3.36 q 0,1.24 -0.873333,2.113333 -0.873334,0.873334 -2.113334,0.873334 l -3.36,0 q -1.12,0 -1.973333,-0.813334 Q 20.826667,21.04 20.706667,20 l -7.173334,0 Q 12.746667,20 12.16,19.44 l -3.493333,-3.333333 0,6.6 q 1.133333,0.12 1.9,0.96 0.766666,0.84 0.766666,1.986666 l 0,3.36 q 0,1.24 -0.873333,2.113334 Q 9.586667,32 8.346667,32 L 4.9866667,32 Q 3.76,32 2.88,31.126667 2,30.253333 2,29.013333 Z m 2.6666667,0 q 0,0.133334 0.093333,0.226667 0.093333,0.09333 0.2266667,0.09333 l 3.3600003,0 q 0.133333,0 0.226666,-0.09333 0.09333,-0.09333 0.09333,-0.226667 l 0,-3.36 q 0,-0.133333 -0.09333,-0.226666 -0.09333,-0.09333 -0.226666,-0.09333 l -3.3600003,0 q -0.1333334,0 -0.2266667,0.09333 -0.093333,0.09333 -0.093333,0.226666 l 0,3.36 z m 0,-22.6666663 q 0,0.1333333 0.093333,0.2266666 0.093333,0.093333 0.2266667,0.093333 l 3.3600003,0 q 0.133333,0 0.226666,-0.093333 0.09333,-0.093333 0.09333,-0.2266666 l 0,-3.36 Q 8.6666627,2.8533333 8.5733327,2.76 8.48,2.666667 8.346667,2.666667 l -3.3600003,0 Q 4.8533333,2.666667 4.76,2.76 4.666667,2.853333 4.666667,2.9866667 l 0,3.36 z M 23.333333,19.68 q 0,0.133333 0.09333,0.226667 Q 23.52,20 23.653333,20 l 3.36,0 Q 27.146667,20 27.24,19.90667 27.33333,19.81333 27.33333,19.68 l 0,-3.36 q 0,-0.133333 -0.09333,-0.226667 Q 27.146667,16 27.013333,16 l -3.36,0 Q 23.52,16 23.426667,16.09333 23.333337,16.18667 23.333337,16.32 l 0,3.36 z"
     id="path6"
     inkscape:connector-curvature="0" />
</svg>
