<?xml version="1.0" encoding="UTF-8" standalone="no"?>
<svg
   xmlns:dc="http://purl.org/dc/elements/1.1/"
   xmlns:cc="http://creativecommons.org/ns#"
   xmlns:rdf="http://www.w3.org/1999/02/22-rdf-syntax-ns#"
   xmlns:svg="http://www.w3.org/2000/svg"
   xmlns="http://www.w3.org/2000/svg"
   xmlns:sodipodi="http://sodipodi.sourceforge.net/DTD/sodipodi-0.dtd"
   xmlns:inkscape="http://www.inkscape.org/namespaces/inkscape"
   version="1.1"
   width="32px"
   height="32px"
   id="svg2"
   inkscape:version="0.91 r13725"
   sodipodi:docname="globe_af.svg">
  <metadata
     id="metadata12">
    <rdf:RDF>
      <cc:Work
         rdf:about="">
        <dc:format>image/svg+xml</dc:format>
        <dc:type
           rdf:resource="http://purl.org/dc/dcmitype/StillImage" />
      </cc:Work>
    </rdf:RDF>
  </metadata>
  <defs
     id="defs10" />
  <sodipodi:namedview
     pagecolor="#ffffff"
     bordercolor="#666666"
     borderopacity="1"
     objecttolerance="10"
     gridtolerance="10"
     guidetolerance="10"
     inkscape:pageopacity="0"
     inkscape:pageshadow="2"
     inkscape:window-width="1920"
     inkscape:window-height="1028"
     id="namedview8"
     showgrid="false"
     inkscape:zoom="7.375"
     inkscape:cx="-23.322034"
     inkscape:cy="16"
     inkscape:window-x="-8"
     inkscape:window-y="-8"
     inkscape:window-maximized="1"
     inkscape:current-layer="svg2" />
  <g
     id="g4"
     transform="matrix(0.01381818,0,0,0.01381463,-2.2739814,1.1104334)" />
  <path
     d="m 0.21850296,13.474581 q -0.75999935,4.766047 1.17454454,9.090026 1.2712717,2.818186 3.5167246,4.959453 2.2454534,2.141268 5.1265419,3.308604 Q 12.917403,32 15.998856,32 q 2.293816,0 4.477086,-0.656195 2.18327,-0.656195 4.00036,-1.823531 1.817089,-1.167336 3.316363,-2.818184 1.499271,-1.650849 2.480361,-3.571083 0.981089,-1.920234 1.430182,-4.158204 0.44909,-2.23797 0.227999,-4.517384 Q 31.489025,9.8275186 28.545755,6.1044747 25.602484,2.3814321 21.194487,0.86182311 16.717401,-0.67160089 12.046858,0.52336461 7.3763157,1.7183299 4.1843181,5.2134311 0.97850242,8.7085337 0.21850296,13.474581 Z M 8.3435873,13.86139 q 0.1520013,-0.53877 0.656364,-1.270945 0.5043636,-0.732176 0.9327266,-0.801249 0.3454541,-0.05526 1.0432721,0.06907 0.697818,0.124332 0.97418,0.303922 0.152001,0.124332 0.276364,0.0967 0.124363,-0.02763 0.179637,-0.08289 0.05527,-0.05526 0.152,-0.165776 0.09673,-0.110517 0.193455,-0.165775 0.09673,-0.05526 0.317817,-0.06217 0.22109,-0.0069 0.338545,-0.06907 0.117453,-0.06217 0.117453,-0.297015 -0.04145,-0.372995 -0.01381,-0.711453 0.02764,-0.338458 0.221089,-0.683824 0.04145,-0.069073 0.172728,-0.2832002 0.131273,-0.2141267 0.193454,-0.3246437 0.06219,-0.1105171 0.117454,-0.3039219 0.05527,-0.1934048 0.05527,-0.3591803 0,-0.2072195 -0.200365,-0.7252681 -0.200362,-0.5180486 -0.04836,-0.8910436 0.165818,-0.4006242 0.241818,-1.222596 0.076,-0.8219705 0.193454,-1.5679604 0.117454,-0.74599 0.421455,-1.118985 0.262544,-0.3177365 1.43709,0.069073 0.732363,0.2348487 1.616726,1.9340481 0.06909,0.1519609 0.304,0.4006243 0.234909,0.2486633 0.303999,0.4006242 0.02764,0.3039219 -0.08291,0.6216583 0,0.2348501 0.179636,0.4144403 0.179636,0.1795902 0.44218,0.352273 0.262545,0.1726829 0.37309,0.2970146 0.207273,0.2348487 0.221091,0.5180486 0.01382,0.2831999 -0.131272,0.7736192 -0.145092,0.4904193 -0.15891,0.5456779 -0.138181,0.7874337 0.608,1.7406437 0.152,0.17959 0.552726,0.621658 0.400728,0.442068 0.587274,0.676917 0.186545,0.234848 0.386908,0.663102 0.200364,0.428253 0.241818,0.856507 -0.193455,-0.151961 -0.386909,-0.227941 -0.193455,-0.07598 -0.338544,-0.110517 -0.145092,-0.03454 -0.345455,0.01382 -0.200364,0.04835 -0.304,0.07598 -0.103636,0.02763 -0.317818,0.172682 -0.214182,0.145054 -0.283273,0.193405 -0.06909,0.04835 -0.310909,0.248663 -0.241816,0.200313 -0.297088,0.241756 -0.248727,0.20722 -0.456001,0.725268 -0.207272,0.518049 -0.359272,0.697639 -0.248726,0.303922 0.03455,0.5664 0.283272,0.262478 0.614909,0.110517 0.345453,-0.165776 0.59418,-0.787434 0.248727,-0.621658 0.469818,-1.153521 0.221091,-0.531863 0.497454,-0.531863 0.456001,0 0.994908,0.331551 0.53891,0.331551 0.773818,0.566399 0.234909,0.234849 0.732362,0.77362 -0.06909,0.483512 0.145092,0.801248 0.214182,0.317737 0.697818,0.276293 0.400727,-0.04144 0.670181,-0.442069 0.269454,-0.400624 0.490545,-0.442068 0.138181,-0.02763 0.345455,0.02072 0.207273,0.04835 0.324727,0 0.117453,-0.04835 0.241819,-0.297014 0.151999,-0.331551 0.44218,-1.574868 0,-0.01381 0.03455,-0.193405 0.03455,-0.17959 0.06909,-0.331551 0.03455,-0.151961 0.08981,-0.331551 0.05527,-0.17959 0.124364,-0.2832 0.06909,-0.103609 0.151999,-0.103609 0.317817,0 0.421453,0.331551 0.103637,0.331551 0.09672,0.780526 -0.0069,0.448976 0.04836,0.559493 0.207271,0.442068 0.822181,1.015375 0.614909,0.573307 1.043272,0.670009 0.09672,-0.0967 0.151999,-0.566399 0.05528,-0.469698 0.248728,-0.524956 0.317818,-0.08289 0.359272,0.759804 0.05527,1.188058 -0.373091,2.845814 -1.326545,5.291004 -5.51345,8.081559 -0.373091,0.248664 -0.690908,0.241756 -0.317818,-0.0069 -0.670182,-0.0967 -0.352364,-0.08979 -0.656364,-0.04835 -0.04145,0.221034 -0.283272,0.290107 -0.241818,0.06907 -0.379999,-0.138146 -0.09672,-0.151961 -0.01382,-0.524956 0.08291,-0.372995 -0.02764,-0.428254 -0.193455,-0.0967 -0.580363,-0.06217 -0.38691,0.03454 -0.994908,-0.02072 -0.608001,-0.05526 -0.925817,-0.262477 -0.01382,-0.01381 -0.324727,-0.234849 -0.31091,-0.221034 -0.462909,-0.297015 -0.152,-0.07598 -0.400727,-0.158868 -0.248727,-0.08289 -0.379999,0.04144 -0.131272,0.124332 -0.172728,0.442068 0.317818,0.04144 0.442182,0.2832 0.124363,0.241756 0.076,0.504234 -0.04836,0.262478 -0.200365,0.38681 -0.400726,0.331551 -2.210906,0.193404 -1.381818,-0.0967 -1.913817,-0.297014 -0.532,-0.200312 -0.988,-0.863414 -0.290181,-0.372995 -0.124362,-0.67001 0.165818,-0.297015 0.476727,-0.455883 0.310909,-0.158868 0.621817,-0.400624 0.310909,-0.241756 0.310909,-0.504234 0.23491,0.06907 0.46291,0.255571 0.227999,0.186497 0.345454,0.303922 0.117454,0.117424 0.393818,0.145053 0.276362,0.02763 0.59418,-0.207219 0.608001,-0.151961 0.09672,-0.621659 -0.331636,-0.303923 -0.552727,-0.317737 l -0.02764,0 q -0.345455,0.179591 -0.711636,0.172684 -0.366182,-0.0069 -0.61491,-0.10361 -0.248726,-0.0967 -0.607998,-0.255572 -0.359272,-0.158868 -0.594182,-0.214127 -1.644363,-0.442068 -1.865453,-0.801248 0.04145,-0.06907 0.151999,-0.17959 0.110546,-0.110517 0.193455,-0.200313 0.08291,-0.08979 0.131272,-0.193404 0.04836,-0.10361 -0.02764,-0.200312 -0.076,-0.0967 -0.283272,-0.193405 -0.08291,-0.04144 -0.331637,-0.03454 -0.248726,0.0069 -0.421453,-0.04835 -0.1727269,-0.05526 -0.1727269,-0.262478 0,-0.05526 -0.013824,-0.234849 Q 9.86357,20.616733 9.86357,20.526938 l 0,-0.255571 q 0,0 0.027637,-0.241756 0.027637,-0.241756 0.062186,-0.193404 0.034549,0.04835 0.1105458,-0.158869 0.076,-0.207219 0.172727,-0.06907 0.09673,0.138146 0.241817,0.0069 0.145092,-0.131239 0.324727,0.117425 0.53891,0.248663 1.561455,1.146614 0.262544,0.221034 0.421454,0.317737 0.158908,0.0967 0.352363,0.06217 0.193454,-0.03454 0.373091,-0.25557 0.09672,-0.124332 0.324727,-0.262478 0.227999,-0.138147 0.366182,-0.2832 0.13818,-0.145054 0.13818,-0.379902 0.497454,-0.138147 0.483637,0.138146 0,0.262478 -0.635636,1.229502 -0.193455,0.290107 -0.165819,0.317736 0.193455,0.179591 0.684,-0.352273 0.490544,-0.531863 0.670182,-0.835785 0.02764,-0.05526 0.06909,-0.131239 0.04145,-0.07598 0.124362,-0.200312 0.08291,-0.124332 0.15891,-0.221034 0.076,-0.0967 0.172727,-0.165776 0.09672,-0.06907 0.179636,-0.05526 0.08291,0.01381 0.152,0.124332 0.05527,0.08289 0.0069,0.221034 -0.04836,0.138146 -0.124363,0.248663 -0.076,0.110517 -0.06219,0.214127 0.01382,0.10361 0.165818,0.145053 0.331636,0.01381 0.456,-0.407531 0.124364,-0.421346 0.303999,-0.504234 0.05527,-0.02763 0.38691,-0.124332 0.331635,-0.0967 0.52509,-0.200312 0.193455,-0.10361 0.304,-0.255571 0.442182,-0.676916 -0.138183,-1.056819 -0.580362,-0.379902 -1.20218,-0.241756 -0.469818,0.0967 -1.146908,-0.06907 -0.110545,-0.02763 -0.234909,-0.214127 -0.124363,-0.186497 -0.262546,-0.290107 -0.138181,-0.10361 -0.303999,-0.0069 -0.663273,0.442068 -1.050181,0.649287 -0.152,0.08289 -0.076,0.435161 0.076,0.352273 -0.200362,0.379903 -0.53891,0.124331 -1.644363,-0.179591 -0.207272,-0.05526 -0.794545,-0.02763 -0.587272,0.02763 -0.725454,-0.124332 Q 10.139925,18.351142 9.8497454,18.033405 9.5595632,17.715669 9.2210175,17.252879 8.8824729,16.790089 8.7442901,16.638128 8.2330186,16.044099 8.4541099,15.367182 8.5231978,15.146148 8.3919238,14.641914 8.2606518,14.13768 8.3435613,13.861388 Z m 1.7963617,9.504465 q -0.179635,-0.207219 0.276365,-0.290107 0.649454,-0.138146 1.174544,0.04144 0.110545,0.02763 0.165819,0.08289 0.649454,0.566401 0.193453,1.409093 -0.331636,0.594029 -0.911998,0.815063 -0.621818,0.193405 -0.82909,-0.35918 0.05527,-0.0967 0.165817,-0.241756 0.110545,-0.145054 0.186547,-0.269385 0.076,-0.124332 0.13818,-0.262478 0.06219,-0.138146 0.04836,-0.290107 -0.01381,-0.151961 -0.110545,-0.290108 -0.06909,-0.110517 -0.255637,-0.193406 -0.186545,-0.08289 -0.241819,-0.151961 z M 19.930124,6.0561235 q -0.0069,-0.2348487 0.117455,-0.4282535 0.124363,-0.1934049 0.359272,-0.1934049 0.455999,0 0.75309,0.6216584 0.297091,0.6216583 0.338545,1.1604302 0.01382,0.096702 0.05528,0.4075316 0.04145,0.3108291 0.05527,0.483512 0.01382,0.1726829 -0.04836,0.4075316 -0.06219,0.2348487 -0.228004,0.3729949 Q 21.166851,8.6532751 20.766124,8.1904851 20.365397,7.727695 20.199578,7.3892366 20.03376,7.0507782 19.950852,6.484377 19.937033,6.2909722 19.930124,6.0561235 Z"
     id="path6"
     inkscape:connector-curvature="0" />
</svg>
