<?xml version="1.0" encoding="UTF-8" standalone="no"?>
<svg
   xmlns:dc="http://purl.org/dc/elements/1.1/"
   xmlns:cc="http://creativecommons.org/ns#"
   xmlns:rdf="http://www.w3.org/1999/02/22-rdf-syntax-ns#"
   xmlns:svg="http://www.w3.org/2000/svg"
   xmlns="http://www.w3.org/2000/svg"
   xmlns:sodipodi="http://sodipodi.sourceforge.net/DTD/sodipodi-0.dtd"
   xmlns:inkscape="http://www.inkscape.org/namespaces/inkscape"
   version="1.1"
   width="32px"
   height="32px"
   id="svg2"
   inkscape:version="0.91 r13725"
   sodipodi:docname="globe.svg">
  <metadata
     id="metadata12">
    <rdf:RDF>
      <cc:Work
         rdf:about="">
        <dc:format>image/svg+xml</dc:format>
        <dc:type
           rdf:resource="http://purl.org/dc/dcmitype/StillImage" />
      </cc:Work>
    </rdf:RDF>
  </metadata>
  <defs
     id="defs10" />
  <sodipodi:namedview
     pagecolor="#ffffff"
     bordercolor="#666666"
     borderopacity="1"
     objecttolerance="10"
     gridtolerance="10"
     guidetolerance="10"
     inkscape:pageopacity="0"
     inkscape:pageshadow="2"
     inkscape:window-width="1920"
     inkscape:window-height="1028"
     id="namedview8"
     showgrid="false"
     inkscape:zoom="7.375"
     inkscape:cx="-23.322034"
     inkscape:cy="16"
     inkscape:window-x="-8"
     inkscape:window-y="-8"
     inkscape:window-maximized="1"
     inkscape:current-layer="svg2" />
  <g
     id="g4"
     transform="matrix(0.01381693,0,0,-0.01381693,-2.2673921,34.267392)" />
  <path
     d="M 0,16 Q 0,13.816926 0.5734024,11.744387 1.1468048,9.671848 2.1761658,7.9170984 3.2055268,6.1623489 4.6839378,4.6839378 6.162349,3.2055268 7.917098,2.1761658 9.671848,1.1468048 11.744387,0.5734024 13.816926,0 16,0 q 2.183074,0 4.255613,0.5734024 2.072539,0.5734024 3.827289,1.6027634 1.754749,1.029361 3.23316,2.507772 1.478411,1.4784111 2.507772,3.2331606 1.029361,1.7547496 1.602764,3.8272886 Q 32,13.816926 32,16 q 0,2.183074 -0.573402,4.255613 -0.573403,2.072539 -1.602764,3.827289 -1.029361,1.754749 -2.507772,3.23316 -1.478411,1.478411 -3.23316,2.507772 -1.75475,1.029361 -3.827289,1.602764 Q 18.183074,32 16,32 13.816926,32 11.744387,31.426598 9.671848,30.853195 7.917098,29.823834 6.162349,28.794473 4.6839378,27.316062 3.2055268,25.837651 2.1761658,24.082902 1.1468048,22.328152 0.5734024,20.255613 0,18.183074 0,16 Z m 6.217617,-3.827288 q -0.02763,0.331606 0.04145,0.62867 0.06908,0.297064 0.255613,0.732297 0.186529,0.435233 0.241797,0.587219 0.124352,0.35924 0.165803,0.835924 0.04145,0.476684 0.145078,0.822107 0.103626,0.345423 0.435233,0.67703 0.483592,0.483592 0.697754,0.732297 0.214163,0.248704 0.414508,0.71848 0.200346,0.469775 0.158895,0.981001 0.234888,0.248705 0.490501,0.469776 0.255613,0.221071 0.587219,0.421416 0.331606,0.200346 0.559586,0.331606 0.227979,0.131261 0.656304,0.31779 0.428324,0.186528 0.607944,0.262521 0.17962,0.07599 0.67703,0.262522 0.497409,0.186528 0.621761,0.241796 0.939551,0.386874 1.39551,0.607945 0.303972,0.53886 0.746114,0.884283 0.911917,0.746114 2.113989,0.566494 0.151987,0.317789 0,0.739206 -0.151986,0.421416 -0.40069,0.753022 -0.248705,0.331606 -0.442142,0.787565 -0.193437,0.455958 -0.138169,0.842832 0.303972,0.469776 0.483592,0.71848 0.17962,0.248705 0.497409,0.614854 0.31779,0.366148 0.670121,0.58031 0.352332,0.214163 0.76684,0.297064 -0.01382,0.151987 -0.07599,0.31779 -0.06218,0.165803 -0.117444,0.276338 -0.05527,0.110536 -0.02763,0.276339 0.02763,0.165803 0.165803,0.35924 1.519862,0.04145 3.260794,-0.870467 1.740933,-0.911917 2.873921,-2.15544 0.635579,-0.607945 0.981002,-0.974093 0.345423,-0.366149 0.815198,-0.960277 0.469776,-0.594127 0.71848,-1.202072 0.248705,-0.607945 0.31779,-1.271157 -0.17962,-0.165803 -0.379966,-0.214163 -0.200345,-0.04836 -0.345423,-0.02763 -0.145078,0.02073 -0.400691,0.08981 -0.255613,0.06908 -0.393782,0.09672 -0.35924,-0.414508 -0.974093,-0.594128 -0.614854,-0.17962 -1.278066,-0.310881 -0.663212,-0.13126 -1.050086,-0.435233 -0.290156,0.01382 -0.932643,0.01382 -0.642487,0 -1.029361,0.01382 -0.386874,0.01382 -0.925734,0.0829 -0.53886,0.06908 -0.967185,0.22107 -0.09672,0.04145 -0.373057,0.207254 -0.276338,0.165803 -0.566494,0.331607 -0.290155,0.165803 -0.607944,0.297063 -0.31779,0.131261 -0.58722,0.103627 -0.26943,-0.02763 -0.407599,-0.262521 -0.09672,-0.138169 -0.103627,-0.400691 -0.0069,-0.262522 0.01382,-0.566494 0.02072,-0.303972 0.0069,-0.442142 -0.124353,-0.262521 -0.366149,-0.366148 -0.241796,-0.103627 -0.566494,-0.158895 -0.324698,-0.05527 -0.490501,-0.151986 0.01382,-0.124352 0.0829,-0.44905 0.06908,-0.324698 0.09672,-0.518135 0.02763,-0.193437 -0.06908,-0.428325 -0.09672,-0.234887 -0.345424,-0.35924 -0.386873,-0.0829 -0.621761,0 -0.234888,0.0829 -0.483593,0.283247 -0.248704,0.200346 -0.497409,0.283247 -0.773748,0.262522 -1.091537,-0.497409 -0.276339,-0.677029 0,-1.43696 0.17962,-0.511226 0.566494,-0.663213 0.331606,0.06908 1.208981,0.06218 0.877375,-0.0069 1.181347,0.131261 0.331606,0.110536 0.62867,0.414508 0.297064,0.303972 0.614853,0.531952 0.31779,0.227979 0.801382,0.227979 0.317789,-0.276339 0.393782,-0.580311 0.07599,-0.303972 0.01382,-0.766839 -0.06218,-0.462867 -0.04836,-0.683938 0.124352,-0.290156 0.552677,-0.746114 0.428325,-0.455959 0.53886,-0.732297 0.0829,-0.221071 0.110536,-0.739206 0.02763,-0.518134 0.0829,-0.711571 0.151986,-0.580311 0.566494,-0.932643 0.414508,-0.352331 1.105354,-0.697755 -0.138169,-0.552677 0.290156,-1.0086352 0.22107,0 0.663212,0.041451 0.442142,0.041451 0.683938,0.048359 0.241796,0.00691 0.559585,-0.1243523 0.31779,-0.1312608 0.566494,-0.4352331 Q 22.728849,8.7875648 22.148538,8.2348877 21.568227,7.6822107 21.10536,7.4058722 20.642493,7.1295337 19.744393,6.6666667 q -0.8981,-0.462867 -1.21589,-0.6424871 0.05527,-0.096718 0.04145,-0.6079447 -0.01382,-0.5112263 0,-0.6217617 1.464594,0.5112263 2.970639,0.4145078 l 0.04145,-0.193437 Q 21.692573,4.3661485 21.464594,3.9378238 21.236615,3.5094991 20.759931,3.2884283 20.283247,3.0673575 19.765112,2.9222798 19.246978,2.7772021 18.673575,2.5768566 18.100173,2.3765112 17.782383,2.1139896 l -0.0829,0.069085 -0.870466,0 -0.06909,-0.082902 q -0.607945,0.4697755 -1.319516,0.6977548 -0.711572,0.2279792 -1.761659,0.3937823 -1.07772,0.1658032 -1.602763,0.2901555 -0.303972,0.082902 -0.753022,-0.034542 -0.44905,-0.1174439 -0.656304,-0.1174439 -0.746114,0 -1.409327,0.4075993 Q 8.594124,4.1450776 7.861827,4.8497408 7.613122,5.0708117 7.592397,5.2642486 7.571667,5.4576856 7.689117,5.5820379 7.806561,5.7063902 7.910188,5.8929187 8.013815,6.0794472 7.986178,6.2590673 7.930908,6.8808289 7.730565,7.4956821 7.53022,8.1105353 7.164071,8.9326424 6.797922,9.7547495 6.67357,10.086356 6.272879,11.164076 6.217612,12.172712 Z m 7.516407,-4.9464598 q 0.06909,-0.2625216 0.483593,-0.7392056 0.414507,-0.4766839 0.40069,-0.7806563 0.303973,0.3592401 0.787565,0.2763385 0.04145,-0.041451 0.373057,-0.4283247 0.331606,-0.3868739 0.566494,-0.5112262 0.01382,0.5664939 0.476684,1.5751295 0.462867,1.0086356 0.490501,1.5060449 -0.317789,-0.069085 -1.12608,-0.17962 -0.80829,-0.1105354 -1.416234,-0.2694301 -0.607945,-0.1588946 -1.03627,-0.44905 z"
     id="path6"
     inkscape:connector-curvature="0" />
</svg>
