<?xml version="1.0" encoding="UTF-8" standalone="no"?>
<svg
   xmlns:dc="http://purl.org/dc/elements/1.1/"
   xmlns:cc="http://creativecommons.org/ns#"
   xmlns:rdf="http://www.w3.org/1999/02/22-rdf-syntax-ns#"
   xmlns:svg="http://www.w3.org/2000/svg"
   xmlns="http://www.w3.org/2000/svg"
   xmlns:sodipodi="http://sodipodi.sourceforge.net/DTD/sodipodi-0.dtd"
   xmlns:inkscape="http://www.inkscape.org/namespaces/inkscape"
   version="1.1"
   width="32px"
   height="32px"
   id="svg2"
   inkscape:version="0.91 r13725"
   sodipodi:docname="global.svg">
  <metadata
     id="metadata12">
    <rdf:RDF>
      <cc:Work
         rdf:about="">
        <dc:format>image/svg+xml</dc:format>
        <dc:type
           rdf:resource="http://purl.org/dc/dcmitype/StillImage" />
      </cc:Work>
    </rdf:RDF>
  </metadata>
  <defs
     id="defs10" />
  <sodipodi:namedview
     pagecolor="#ffffff"
     bordercolor="#666666"
     borderopacity="1"
     objecttolerance="10"
     gridtolerance="10"
     guidetolerance="10"
     inkscape:pageopacity="0"
     inkscape:pageshadow="2"
     inkscape:window-width="1920"
     inkscape:window-height="1028"
     id="namedview8"
     showgrid="false"
     inkscape:zoom="7.375"
     inkscape:cx="-0.20338983"
     inkscape:cy="16"
     inkscape:window-x="-8"
     inkscape:window-y="-8"
     inkscape:window-maximized="1"
     inkscape:current-layer="svg2" />
  <g
     id="g4"
     transform="matrix(0.01333333,0,0,0.01333333,-1.3333333,1.3333333)" />
  <path
     d="M 0,16 Q 0,18.173333 0.5733333,20.246667 1.1466667,22.32 2.18,24.08 3.2133333,25.84 4.6866667,27.313333 6.16,28.786667 7.92,29.82 9.68,30.853333 11.753333,31.426667 13.826667,32 16,32 18.173333,32 20.246667,31.426667 22.32,30.853333 24.08,29.82 25.84,28.786667 27.313333,27.313333 28.786667,25.84 29.82,24.08 30.853333,22.32 31.426667,20.246667 32,18.173333 32,16 32,13.826667 31.426667,11.753333 30.853333,9.68 29.82,7.92 28.786667,6.16 27.313333,4.6866667 25.84,3.2133333 24.08,2.18 22.32,1.1466667 20.246667,0.5733333 18.173333,0 16,0 13.826667,0 11.753333,0.5733333 9.68,1.1466667 7.92,2.18 6.16,3.2133333 4.6866667,4.6866667 3.2133333,6.16 2.18,7.92 1.1466667,9.68 0.5733333,11.753333 0,13.826667 0,16 Z m 3.16,1.253333 3.56,0 q 0.12,2.2 0.64,4.133334 l -3.0666667,0 Q 3.3733333,19.373333 3.16,17.253333 Z M 3.173333,14.72 Q 3.3866667,12.573333 4.32,10.586667 l 3.04,0 Q 6.84,12.52 6.72,14.72 l -3.5466667,0 z m 2.6533334,9.2 2.4400006,0 Q 9.293333,26.16 10.84,27.84 7.88,26.546667 5.8266667,23.92 Z m 0.04,-15.8666667 Q 7.853333,5.5333333 10.76,4.2266667 9.24,5.9333333 8.266667,8.0533333 l -2.4000003,0 z M 9.12,14.72 q 0.133333,-2.173333 0.76,-4.133333 l 4.853333,0 0,4.133333 -5.613333,0 z m 0,2.533333 5.613333,0 0,4.133334 -4.853333,0 Q 9.253333,19.453333 9.12,17.253333 Z M 10.96,8.0533333 Q 11.44,7.2 12.006667,6.4666667 12.573333,5.7333333 13.106667,5.24 13.64,4.7466667 14.013333,4.4466667 q 0.373334,-0.3 0.72,-0.5133334 l 0,4.12 -3.773333,0 z m 0,15.8666667 3.773333,0 0,4.133333 Q 14.386667,27.84 14.013333,27.54 13.64,27.24 13.106667,26.74 q -0.533334,-0.5 -1.1,-1.233333 Q 11.44,24.773333 10.96,23.92 Z m 6.306667,-20 q 0.48,0.3066667 1.006666,0.7333333 0.526667,0.4266667 1.333334,1.36 0.806666,0.9333334 1.433333,2.04 l -3.773333,0 0,-4.1333333 z m 0,6.666667 4.866666,0 Q 22.746667,12.573333 22.88,14.72 l -5.613333,0 0,-4.133333 z m 0,6.666666 5.613333,0 q -0.133333,2.173334 -0.746667,4.133334 l -4.866666,0 0,-4.133334 z m 0,6.666667 3.773333,0 Q 20.573333,24.773333 20.006667,25.506667 19.44,26.24 18.9,26.74 q -0.54,0.5 -0.913333,0.8 -0.373334,0.3 -0.72,0.513333 l 0,-4.133333 z M 21.12,27.893333 Q 22.693333,26.186667 23.733333,23.92 l 2.493334,0 Q 24.173333,26.573333 21.12,27.893333 Z M 21.2,4.1866667 q 2.986667,1.3066666 4.986667,3.8666666 l -2.453334,0 Q 22.746667,5.8933333 21.2,4.1866667 Z m 3.44,6.4000003 3.093333,0 Q 28.666667,12.573333 28.88,14.72 l -3.6,0 q -0.12,-2.2 -0.64,-4.133333 z m 0,10.8 q 0.52,-1.933334 0.64,-4.133334 l 3.613333,0 Q 28.68,19.44 27.76,21.386667 l -3.12,0 z"
     id="path6"
     inkscape:connector-curvature="0" />
</svg>
