<?xml version="1.0" encoding="UTF-8" standalone="no"?>
<svg
   xmlns:dc="http://purl.org/dc/elements/1.1/"
   xmlns:cc="http://creativecommons.org/ns#"
   xmlns:rdf="http://www.w3.org/1999/02/22-rdf-syntax-ns#"
   xmlns:svg="http://www.w3.org/2000/svg"
   xmlns="http://www.w3.org/2000/svg"
   xmlns:sodipodi="http://sodipodi.sourceforge.net/DTD/sodipodi-0.dtd"
   xmlns:inkscape="http://www.inkscape.org/namespaces/inkscape"
   version="1.1"
   width="32px"
   height="32px"
   id="svg2"
   inkscape:version="0.91 r13725"
   sodipodi:docname="golf_course.svg">
  <metadata
     id="metadata12">
    <rdf:RDF>
      <cc:Work
         rdf:about="">
        <dc:format>image/svg+xml</dc:format>
        <dc:type
           rdf:resource="http://purl.org/dc/dcmitype/StillImage" />
      </cc:Work>
    </rdf:RDF>
  </metadata>
  <defs
     id="defs10" />
  <sodipodi:namedview
     pagecolor="#ffffff"
     bordercolor="#666666"
     borderopacity="1"
     objecttolerance="10"
     gridtolerance="10"
     guidetolerance="10"
     inkscape:pageopacity="0"
     inkscape:pageshadow="2"
     inkscape:window-width="1920"
     inkscape:window-height="1028"
     id="namedview8"
     showgrid="false"
     inkscape:zoom="7.375"
     inkscape:cx="-23.322034"
     inkscape:cy="16"
     inkscape:window-x="-8"
     inkscape:window-y="-8"
     inkscape:window-maximized="1"
     inkscape:current-layer="svg2" />
  <g
     id="g4"
     transform="matrix(0.01336308,0,0,-0.01333321,-1.3794966,21.474187)" />
  <path
     d="m 0.00728904,26.076445 q -0.0400893,-0.913325 0.1403123,-1.846651 0.1804016,-0.933325 0.5812939,-1.773318 Q 1.1297874,21.616484 1.670992,20.923156 2.2121966,20.229829 2.8402611,19.7765 3.8424919,19.056505 4.664321,18.649843 5.4861502,18.243179 6.6353752,17.936515 l 0,-16.039861 q 0,-0.546662 0.39421,-0.93999177 0.394211,-0.39333 0.942097,-0.39333 0.320714,0 0.654791,0.1933316 0.334076,0.1933317 0.507796,0.39332987 l 0.17372,0.1866651 9.3541548,3.9999653 -9.3541548,3.999965 0,8.0132639 q 0.7884218,-0.146665 2.1915458,-0.373329 1.055682,-0.173332 2.077958,-0.753327 1.022276,-0.579996 1.884195,-1.373322 0.861917,-0.793326 1.757244,-1.719985 0.895325,-0.926658 1.884193,-1.853317 0.988868,-0.926659 2.071277,-1.7199852 1.08241,-0.7933267 2.51894,-1.3666546 1.436531,-0.5733289 3.026736,-0.7466608 1.844106,-0.1999983 3.12696,0.2666644 1.282856,0.466663 1.730519,1.3133217 0.447663,0.8466599 0.420937,1.7999855 -0.02672,0.953324 -0.701561,1.813317 -0.674836,0.859992 -1.743881,1.25999 -1.523392,0.573328 -2.672616,1.51332 -1.149224,0.939992 -1.783971,1.959982 -0.634747,1.019992 -1.155907,2.233315 -0.52116,1.213322 -0.82851,2.25998 -0.307351,1.046657 -0.78174,2.113314 -0.474388,1.066658 -1.022275,1.719986 -0.454345,0.533329 -0.888645,0.999992 -0.434299,0.466662 -1.028956,0.99999 -0.594658,0.533329 -1.202678,0.966659 -0.60802,0.433329 -1.38976,0.879992 -0.78174,0.446662 -1.61025,0.773326 -0.828511,0.326664 -1.850787,0.593328 -1.022276,0.266666 -2.111366,0.393331 -1.089091,0.126667 -2.3853078,0.133333 -1.296219,0.0067 -2.699342,-0.153332 Q 4.5908242,31.109734 3.4015103,30.609738 2.2121966,30.109743 1.5239981,29.416415 0.83579984,28.723089 0.44158904,27.856429 q -0.3942108,-0.866659 -0.4343,-1.779984 z m 3.87529206,0.486663 q 0,0.839992 1.1959953,1.439986 1.1959958,0.599995 2.8931058,0.599995 1.697111,0 2.8931058,-0.599995 1.195996,-0.599994 1.195996,-1.439986 0,-0.666662 -0.768377,-1.193324 -0.768378,-0.526662 -1.9844178,-0.739994 l 0,1.266656 q 0,0.546662 -0.39421,0.939992 -0.394211,0.39333 -0.942097,0.39333 -0.547886,0 -0.942097,-0.39333 -0.39421,-0.39333 -0.39421,-0.939992 l 0,-1.266656 q -1.2160404,0.213332 -1.9844173,0.739994 -0.7683768,0.526662 -0.7683768,1.193324 z"
     id="path6"
     inkscape:connector-curvature="0" />
</svg>
