<?xml version="1.0" encoding="UTF-8" standalone="no"?>
<svg
   xmlns:dc="http://purl.org/dc/elements/1.1/"
   xmlns:cc="http://creativecommons.org/ns#"
   xmlns:rdf="http://www.w3.org/1999/02/22-rdf-syntax-ns#"
   xmlns:svg="http://www.w3.org/2000/svg"
   xmlns="http://www.w3.org/2000/svg"
   xmlns:sodipodi="http://sodipodi.sourceforge.net/DTD/sodipodi-0.dtd"
   xmlns:inkscape="http://www.inkscape.org/namespaces/inkscape"
   version="1.1"
   width="32px"
   height="32px"
   id="svg2"
   inkscape:version="0.91 r13725"
   sodipodi:docname="golf.svg">
  <metadata
     id="metadata12">
    <rdf:RDF>
      <cc:Work
         rdf:about="">
        <dc:format>image/svg+xml</dc:format>
        <dc:type
           rdf:resource="http://purl.org/dc/dcmitype/StillImage" />
      </cc:Work>
    </rdf:RDF>
  </metadata>
  <defs
     id="defs10" />
  <sodipodi:namedview
     pagecolor="#ffffff"
     bordercolor="#666666"
     borderopacity="1"
     objecttolerance="10"
     gridtolerance="10"
     guidetolerance="10"
     inkscape:pageopacity="0"
     inkscape:pageshadow="2"
     inkscape:window-width="1920"
     inkscape:window-height="1028"
     id="namedview8"
     showgrid="false"
     inkscape:zoom="7.375"
     inkscape:cx="-0.20338983"
     inkscape:cy="16"
     inkscape:window-x="-8"
     inkscape:window-y="-8"
     inkscape:window-maximized="1"
     inkscape:current-layer="svg2" />
  <g
     id="g4"
     transform="matrix(0.01263323,0,0,-0.01263336,-1.268628,24.451503)" />
  <path
     d="M 2.0740936,25.544353 Q 1.6319308,24.21785 2.2699086,23.560916 2.9078863,22.903981 4.247008,23.308248 l 6.165012,1.869738 9.474918,-13.277664 q -0.240031,-0.821168 0.214764,-1.452836 l 6.960907,-9.7403239 q 0.404263,-0.5685013 1.086458,-0.6822015 0.682193,-0.1137003 1.250688,0.2905673 0.568496,0.4042675 0.682195,1.092787 0.113699,0.6885181 -0.290565,1.244386 l -6.948273,9.7403221 q -0.480062,0.682202 -1.326488,0.707469 l -9.95498,13.947233 q -0.593762,0.682201 -1.7054855,1.465469 -1.111723,0.783269 -1.920249,1.212803 l -0.808527,0.442168 Q 5.8893271,30.812466 4.6891708,30.319765 3.4890147,29.827064 3.0468519,28.500561 Z M 19.874305,22.52498 q 0,1.187536 0.840109,2.027655 0.84011,0.840118 2.027633,0.840118 1.187522,0 2.027631,-0.840118 0.84011,-0.840119 0.84011,-2.027655 0,-1.187536 -0.84011,-2.021338 -0.840109,-0.833801 -2.027631,-0.833801 -1.187523,0 -2.027633,0.833801 -0.840109,0.833802 -0.840109,2.021338 z m 0.972758,5.053346 0,-0.631668 3.789968,0 0,0.631668 -1.263323,1.263336 0,2.842506 q 0,0.138967 -0.08843,0.2274 -0.08843,0.08843 -0.227398,0.08843 l -0.631661,0 q -0.138966,0 -0.227398,-0.08843 -0.08843,-0.08843 -0.08843,-0.2274 l 0,-2.842506 z"
     id="path6"
     inkscape:connector-curvature="0" />
</svg>
