<?xml version="1.0" encoding="UTF-8" standalone="no"?>
<svg
   xmlns:dc="http://purl.org/dc/elements/1.1/"
   xmlns:cc="http://creativecommons.org/ns#"
   xmlns:rdf="http://www.w3.org/1999/02/22-rdf-syntax-ns#"
   xmlns:svg="http://www.w3.org/2000/svg"
   xmlns="http://www.w3.org/2000/svg"
   xmlns:sodipodi="http://sodipodi.sourceforge.net/DTD/sodipodi-0.dtd"
   xmlns:inkscape="http://www.inkscape.org/namespaces/inkscape"
   version="1.1"
   width="32px"
   height="32px"
   id="svg2"
   inkscape:version="0.91 r13725"
   sodipodi:docname="grater.svg">
  <metadata
     id="metadata12">
    <rdf:RDF>
      <cc:Work
         rdf:about="">
        <dc:format>image/svg+xml</dc:format>
        <dc:type
           rdf:resource="http://purl.org/dc/dcmitype/StillImage" />
      </cc:Work>
    </rdf:RDF>
  </metadata>
  <defs
     id="defs10" />
  <sodipodi:namedview
     pagecolor="#ffffff"
     bordercolor="#666666"
     borderopacity="1"
     objecttolerance="10"
     gridtolerance="10"
     guidetolerance="10"
     inkscape:pageopacity="0"
     inkscape:pageshadow="2"
     inkscape:window-width="1920"
     inkscape:window-height="1028"
     id="namedview8"
     showgrid="false"
     inkscape:zoom="7.375"
     inkscape:cx="-23.322034"
     inkscape:cy="16"
     inkscape:window-x="-8"
     inkscape:window-y="-8"
     inkscape:window-maximized="1"
     inkscape:current-layer="svg2" />
  <g
     id="g4"
     transform="matrix(0.01333333,0,0,-0.01333333,-6.3333333,33.333333)" />
  <path
     d="M 4,32 4,5.3333333 q 0,-2.2 1.5666667,-3.7666666 Q 7.133333,0 9.333333,0 l 13.333334,0 q 2.2,0 3.766666,1.5666667 Q 28,3.1333333 28,5.3333333 L 28,32 l -2.666667,0 0,-2.666667 -18.6666663,0 0,2.666667 L 4,32 Z M 6.4666667,21.706667 q 0.013333,0.04 0.026667,0.06667 L 7.306667,23.4 l 0.84,-1.64 q 0.28,-0.72 -0.32,-1.026667 Q 7.333333,20.48 6.8266667,20.72 q -0.6,0.28 -0.36,0.986667 z M 6.4933333,13.773333 7.306667,15.4 l 0.84,-1.64 q 0.173333,-0.426667 -0.1,-0.82 -0.273334,-0.393333 -0.74,-0.393333 -0.466667,0 -0.726667,0.4 -0.26,0.4 -0.086667,0.826666 z m 0.1733334,-7.1066663 18.6666663,0 0,-2.6666667 Q 25.333333,3.4533333 24.94,3.06 24.546667,2.6666667 24,2.6666667 l -16,0 Q 7.453333,2.6666667 7.06,3.06 6.6666667,3.4533333 6.6666667,4 l 0,2.6666667 z M 7.8,25.706667 7.826667,25.773333 8.64,27.4 9.48,25.76 Q 9.76,25.04 9.16,24.733333 8.666667,24.48 8.16,24.72 7.56,25 7.8,25.706667 Z m 0,-16.0000003 q 0.01333,0.04 0.02667,0.066667 L 8.64,11.4 9.48,9.76 Q 9.76,9.04 9.16,8.7333333 8.666667,8.48 8.16,8.72 7.56,9 7.8,9.7066667 Z M 7.826667,17.773333 8.64,19.4 9.48,17.76 q 0.173333,-0.426667 -0.1,-0.82 -0.273333,-0.393333 -0.74,-0.393333 -0.466667,0 -0.726667,0.4 -0.26,0.4 -0.08667,0.826666 z m 1.306666,3.933334 q 0.01333,0.04 0.02667,0.06667 L 9.973333,23.4 l 0.84,-1.64 q 0.28,-0.72 -0.32,-1.026667 Q 10,20.48 9.493333,20.72 q -0.6,0.28 -0.36,0.986667 z m 0,-8 q 0.01333,0.04 0.02667,0.06667 L 9.973333,15.4 l 0.84,-1.64 q 0.28,-0.72 -0.32,-1.026667 Q 10,12.48 9.493333,12.72 q -0.6,0.28 -0.36,0.986667 z M 10.426667,9.44 q 0,0.1866667 0.06667,0.3333333 L 11.306667,11.4 l 0.84,-1.64 Q 12.4,9.1066667 11.84,8.7466667 11.373333,8.4533333 10.893333,8.6666667 10.44,8.88 10.426667,9.44 Z m 0.04,16.266667 0.02667,0.06667 0.813334,1.626663 0.84,-1.64 q 0.28,-0.72 -0.32,-1.026667 -0.493334,-0.253333 -1,-0.01333 -0.6,0.28 -0.36,0.986667 z m 0.02667,-7.933334 0.813334,1.626667 0.84,-1.64 q 0.173333,-0.426667 -0.1,-0.82 -0.273334,-0.393333 -0.74,-0.393333 -0.466667,0 -0.726667,0.4 -0.26,0.4 -0.08667,0.826666 z M 11.8,21.706667 q 0.01333,0.04 0.02667,0.06667 L 12.64,23.4 13.48,21.76 Q 13.76,21.04 13.16,20.733333 12.666667,20.48 12.16,20.72 11.56,21 11.8,21.706667 Z m 0,-8 q 0.01333,0.04 0.02667,0.06667 L 12.64,15.4 13.48,13.76 Q 13.76,13.04 13.16,12.733333 12.666667,12.48 12.16,12.72 11.56,13 11.8,13.706667 Z M 13.093333,9.44 q 0,0.1866667 0.06667,0.3333333 L 13.973333,11.4 l 0.84,-1.64 Q 15.066667,9.1066667 14.506667,8.7466667 14.04,8.4533333 13.56,8.6666667 13.106667,8.88 13.093333,9.44 Z m 0.04,16.266667 0.02667,0.06667 0.813333,1.626663 0.84,-1.64 q 0.28,-0.72 -0.32,-1.026667 Q 14,24.48 13.493333,24.72 q -0.6,0.28 -0.36,0.986667 z M 13.16,17.773333 13.973333,19.4 l 0.84,-1.64 q 0.173334,-0.426667 -0.1,-0.82 -0.273333,-0.393333 -0.74,-0.393333 -0.466666,0 -0.726666,0.4 -0.26,0.4 -0.08667,0.826666 z m 1.306667,3.933334 q 0.01333,0.04 0.02667,0.06667 l 0.81333,1.626663 0.84,-1.64 q 0.28,-0.72 -0.32,-1.026667 -0.493334,-0.253333 -1,-0.01333 -0.6,0.28 -0.36,0.986667 z m 0,-8 q 0.01333,0.04 0.02667,0.06667 l 0.81333,1.626666 0.84,-1.64 q 0.28,-0.72 -0.32,-1.026667 -0.493334,-0.253333 -1,-0.01333 -0.6,0.28 -0.36,0.986667 z M 15.76,9.44 q 0,0.1866667 0.06667,0.3333333 L 16.64,11.4 17.48,9.76 Q 17.733333,9.1066667 17.173333,8.7466667 16.706667,8.4533333 16.226667,8.6666667 15.76,8.8666667 15.76,9.44 Z m 0.04,16.266667 0.02667,0.06667 L 16.64,27.4 17.48,25.76 Q 17.76,25.04 17.16,24.733333 16.666667,24.48 16.16,24.72 15.56,25 15.8,25.706667 Z M 15.826667,17.773333 16.64,19.4 17.48,17.76 q 0.173333,-0.426667 -0.1,-0.82 -0.273333,-0.393333 -0.74,-0.393333 -0.466667,0 -0.726667,0.4 -0.26,0.4 -0.08667,0.826666 z m 1.306666,3.933334 q 0.01333,0.04 0.02667,0.06667 l 0.81333,1.626663 0.84,-1.64 q 0.28,-0.72 -0.32,-1.026667 Q 18,20.48 17.493333,20.72 q -0.6,0.28 -0.36,0.986667 z m 0,-8 q 0.01333,0.04 0.02667,0.06667 l 0.81333,1.626666 0.84,-1.64 q 0.28,-0.72 -0.32,-1.026667 Q 18,12.48 17.493333,12.72 q -0.6,0.28 -0.36,0.986667 z M 18.426667,9.44 q 0,0.1866667 0.06667,0.3333333 L 19.306667,11.4 l 0.84,-1.64 Q 20.4,9.1066667 19.84,8.7466667 q -0.466667,-0.2933334 -0.946667,-0.08 -0.466666,0.2 -0.466666,0.7733333 z m 0.04,16.266667 0.02667,0.06667 0.813334,1.626663 0.84,-1.64 q 0.28,-0.72 -0.32,-1.026667 -0.493334,-0.253333 -1,-0.01333 -0.6,0.28 -0.36,0.986667 z m 0.02667,-7.933334 0.813334,1.626667 0.84,-1.64 q 0.173333,-0.426667 -0.1,-0.82 -0.273334,-0.393333 -0.74,-0.393333 -0.466667,0 -0.726667,0.4 -0.26,0.4 -0.08667,0.826666 z M 19.8,21.706667 q 0.01333,0.04 0.02667,0.06667 L 20.64,23.4 21.48,21.76 Q 21.76,21.04 21.16,20.733333 20.666667,20.48 20.16,20.72 19.56,21 19.8,21.706667 Z m 0,-8 q 0.01333,0.04 0.02667,0.06667 L 20.64,15.4 21.48,13.76 Q 21.76,13.04 21.16,12.733333 20.666667,12.48 20.16,12.72 19.56,13 19.8,13.706667 Z M 21.093333,9.44 q 0,0.1866667 0.06667,0.3333333 L 21.973333,11.4 l 0.84,-1.64 Q 23.066667,9.1066667 22.506667,8.7466667 22.04,8.4533333 21.56,8.6666667 21.093333,8.8666667 21.093333,9.44 Z m 0.04,16.266667 0.02667,0.06667 0.813333,1.626663 0.84,-1.64 q 0.28,-0.72 -0.32,-1.026667 Q 22,24.48 21.493333,24.72 q -0.6,0.28 -0.36,0.986667 z M 21.16,17.773333 21.973333,19.4 l 0.84,-1.64 q 0.173334,-0.426667 -0.1,-0.82 -0.273333,-0.393333 -0.74,-0.393333 -0.466666,0 -0.726666,0.4 -0.26,0.4 -0.08667,0.826666 z m 1.306667,3.933334 q 0.01333,0.04 0.02667,0.06667 l 0.81333,1.626663 0.84,-1.64 q 0.28,-0.72 -0.32,-1.026667 -0.493334,-0.253333 -1,-0.01333 -0.6,0.28 -0.36,0.986667 z m 0,-8 q 0.01333,0.04 0.02667,0.06667 l 0.81333,1.626666 0.84,-1.64 q 0.28,-0.72 -0.32,-1.026667 -0.493334,-0.253333 -1,-0.01333 -0.6,0.28 -0.36,0.986667 z m 1.333333,12 0.02667,0.06667 L 24.64,27.4 25.48,25.76 Q 25.76,25.04 25.16,24.733333 24.666667,24.48 24.16,24.72 23.56,25 23.8,25.706667 Z m 0,-8 q 0.01333,0.04 0.02667,0.06667 L 24.64,19.4 25.48,17.76 Q 25.76,17.04 25.16,16.733333 24.666667,16.48 24.16,16.72 23.56,17 23.8,17.706667 Z m 0,-8.0000003 q 0.01333,0.04 0.02667,0.066667 L 24.64,11.4 25.48,9.76 Q 25.76,9.04 25.16,8.7333333 24.666667,8.48 24.16,8.72 23.56,9 23.8,9.7066667 Z"
     id="path6"
     inkscape:connector-curvature="0" />
</svg>
