<?xml version="1.0" encoding="UTF-8" standalone="no"?>
<!-- Created with Inkscape (http://www.inkscape.org/) -->

<svg
   xmlns:dc="http://purl.org/dc/elements/1.1/"
   xmlns:cc="http://creativecommons.org/ns#"
   xmlns:rdf="http://www.w3.org/1999/02/22-rdf-syntax-ns#"
   xmlns:svg="http://www.w3.org/2000/svg"
   xmlns="http://www.w3.org/2000/svg"
   xmlns:sodipodi="http://sodipodi.sourceforge.net/DTD/sodipodi-0.dtd"
   xmlns:inkscape="http://www.inkscape.org/namespaces/inkscape"
   width="32px"
   height="32px"
   id="svg3129"
   version="1.1"
   inkscape:version="0.91 r13725"
   sodipodi:docname="grip_dotted_horizontal.svg">
  <defs
     id="defs3131" />
  <sodipodi:namedview
     id="base"
     pagecolor="#ffffff"
     bordercolor="#666666"
     borderopacity="1.0"
     inkscape:pageopacity="0.0"
     inkscape:pageshadow="2"
     inkscape:zoom="15.836083"
     inkscape:cx="9.6365597"
     inkscape:cy="24.989476"
     inkscape:current-layer="layer1"
     showgrid="true"
     inkscape:grid-bbox="true"
     inkscape:document-units="px"
     inkscape:window-width="1920"
     inkscape:window-height="1028"
     inkscape:window-x="-8"
     inkscape:window-y="-8"
     inkscape:window-maximized="1">
    <inkscape:grid
       type="xygrid"
       id="grid3157" />
  </sodipodi:namedview>
  <metadata
     id="metadata3134">
    <rdf:RDF>
      <cc:Work
         rdf:about="">
        <dc:format>image/svg+xml</dc:format>
        <dc:type
           rdf:resource="http://purl.org/dc/dcmitype/StillImage" />
        <dc:title />
      </cc:Work>
    </rdf:RDF>
  </metadata>
  <g
     id="layer1"
     inkscape:label="Layer 1"
     inkscape:groupmode="layer">
    <path
       style="fill:#000000;fill-opacity:1"
       d="m 32,19.850433 c 0,-0.845332 -0.685292,-1.530607 -1.530643,-1.530607 -0.845351,0 -1.530643,0.685275 -1.530643,1.530607 0,0.845331 0.685292,1.530606 1.530643,1.530606 C 31.314708,21.381039 32,20.695764 32,19.850433 Z m -0.04783,-7.700866 c 0,-0.84533 -0.685291,-1.530606 -1.530642,-1.530606 -0.845351,0 -1.530643,0.685276 -1.530643,1.530606 0,0.845332 0.685292,1.530608 1.530643,1.530608 0.845351,0 1.530642,-0.685276 1.530642,-1.530608 z m -7.174887,0 c 0,-0.84533 -0.685292,-1.530606 -1.530643,-1.530606 -0.845351,0 -1.530643,0.685276 -1.530643,1.530606 0,0.845332 0.685292,1.530608 1.530643,1.530608 0.845351,0 1.530643,-0.685276 1.530643,-1.530608 z m 0,7.700866 c 0,-0.845332 -0.685292,-1.530607 -1.530643,-1.530607 -0.845351,0 -1.530643,0.685275 -1.530643,1.530607 0,0.845331 0.685292,1.530606 1.530643,1.530606 0.845351,0 1.530643,-0.685275 1.530643,-1.530606 z m -7.270554,-7.700866 c 0,-0.84533 -0.685291,-1.530606 -1.530642,-1.530606 -0.845351,0 -1.530643,0.685276 -1.530643,1.530606 0,0.845332 0.685292,1.530608 1.530643,1.530608 0.845351,0 1.530642,-0.685276 1.530642,-1.530608 z m 0,7.700866 c 0,-0.845332 -0.685291,-1.530607 -1.530642,-1.530607 -0.845351,0 -1.530643,0.685275 -1.530643,1.530607 0,0.845331 0.685292,1.530606 1.530643,1.530606 0.845351,0 1.530642,-0.685275 1.530642,-1.530606 z m -7.174887,-7.700866 c 0,-0.84533 -0.685292,-1.530606 -1.530643,-1.530606 -0.845351,0 -1.530643,0.685276 -1.530643,1.530606 0,0.845332 0.685292,1.530608 1.530643,1.530608 0.845351,0 1.530643,-0.685276 1.530643,-1.530608 z m 0,7.700866 c 0,-0.845332 -0.685292,-1.530607 -1.530643,-1.530607 -0.845351,0 -1.530643,0.685275 -1.530643,1.530607 0,0.845331 0.685292,1.530606 1.530643,1.530606 0.845351,0 1.530643,-0.685275 1.530643,-1.530606 z M 3.0612855,12.149567 c 0,-0.84533 -0.6852917,-1.530606 -1.5306427,-1.530606 C 0.6852917,10.618961 0,11.304237 0,12.149567 c 0,0.845332 0.6852917,1.530608 1.5306428,1.530608 0.845351,0 1.5306427,-0.685276 1.5306427,-1.530608 z m 0,7.700866 c 0,-0.845332 -0.6852917,-1.530607 -1.5306427,-1.530607 C 0.6852917,18.319826 0,19.005101 0,19.850433 c 0,0.845331 0.6852917,1.530606 1.5306428,1.530606 0.845351,0 1.5306427,-0.685275 1.5306427,-1.530606 z"
       id="path3160"
       inkscape:connector-curvature="0" />
  </g>
</svg>
