<?xml version="1.0" encoding="UTF-8" standalone="no"?>
<!-- Created with Inkscape (http://www.inkscape.org/) -->

<svg
   xmlns:dc="http://purl.org/dc/elements/1.1/"
   xmlns:cc="http://creativecommons.org/ns#"
   xmlns:rdf="http://www.w3.org/1999/02/22-rdf-syntax-ns#"
   xmlns:svg="http://www.w3.org/2000/svg"
   xmlns="http://www.w3.org/2000/svg"
   xmlns:sodipodi="http://sodipodi.sourceforge.net/DTD/sodipodi-0.dtd"
   xmlns:inkscape="http://www.inkscape.org/namespaces/inkscape"
   width="32px"
   height="32px"
   id="svg3129"
   version="1.1"
   inkscape:version="0.91 r13725"
   sodipodi:docname="grip_dotted_vertical.svg">
  <defs
     id="defs3131" />
  <sodipodi:namedview
     id="base"
     pagecolor="#ffffff"
     bordercolor="#666666"
     borderopacity="1.0"
     inkscape:pageopacity="0.0"
     inkscape:pageshadow="2"
     inkscape:zoom="31.672167"
     inkscape:cx="17.348851"
     inkscape:cy="16.933611"
     inkscape:current-layer="layer1"
     showgrid="true"
     inkscape:grid-bbox="true"
     inkscape:document-units="px"
     inkscape:window-width="1920"
     inkscape:window-height="1028"
     inkscape:window-x="-8"
     inkscape:window-y="-8"
     inkscape:window-maximized="1">
    <inkscape:grid
       type="xygrid"
       id="grid3157" />
  </sodipodi:namedview>
  <metadata
     id="metadata3134">
    <rdf:RDF>
      <cc:Work
         rdf:about="">
        <dc:format>image/svg+xml</dc:format>
        <dc:type
           rdf:resource="http://purl.org/dc/dcmitype/StillImage" />
        <dc:title />
      </cc:Work>
    </rdf:RDF>
  </metadata>
  <g
     id="layer1"
     inkscape:label="Layer 1"
     inkscape:groupmode="layer">
    <path
       style="fill:#000000;fill-opacity:1"
       d="m 19.850433,0 c -0.845332,0 -1.530608,0.6852922 -1.530608,1.5306428 0,0.8453505 0.685276,1.5306427 1.530608,1.5306427 0.84533,0 1.530606,-0.6852922 1.530606,-1.5306427 C 21.381039,0.6852922 20.695763,0 19.850433,0 Z m -7.700866,0.047833 c -0.845331,0 -1.530606,0.6852922 -1.530606,1.5306427 0,0.8453506 0.685275,1.5306428 1.530606,1.5306428 0.845332,0 1.530607,-0.6852922 1.530607,-1.5306428 0,-0.8453505 -0.685275,-1.5306427 -1.530607,-1.5306427 z m 0,7.1748879 c -0.845331,0 -1.530606,0.6852917 -1.530606,1.5306427 0,0.8453511 0.685275,1.5306424 1.530606,1.5306424 0.845332,0 1.530607,-0.6852913 1.530607,-1.5306424 0,-0.845351 -0.685275,-1.5306427 -1.530607,-1.5306427 z m 7.700866,0 c -0.845332,0 -1.530608,0.6852917 -1.530608,1.5306427 0,0.8453511 0.685276,1.5306424 1.530608,1.5306424 0.84533,0 1.530606,-0.6852913 1.530606,-1.5306424 0,-0.845351 -0.685276,-1.5306427 -1.530606,-1.5306427 z m -7.700866,7.2705531 c -0.845331,0 -1.530606,0.685292 -1.530606,1.530642 0,0.845351 0.685275,1.530643 1.530606,1.530643 0.845332,0 1.530607,-0.685292 1.530607,-1.530643 0,-0.84535 -0.685275,-1.530642 -1.530607,-1.530642 z m 7.700866,0 c -0.845332,0 -1.530608,0.685292 -1.530608,1.530642 0,0.845351 0.685276,1.530643 1.530608,1.530643 0.84533,0 1.530606,-0.685292 1.530606,-1.530643 0,-0.84535 -0.685276,-1.530642 -1.530606,-1.530642 z m -7.700866,7.174887 c -0.845331,0 -1.530606,0.685292 -1.530606,1.530643 0,0.845351 0.685275,1.530643 1.530606,1.530643 0.845332,0 1.530607,-0.685292 1.530607,-1.530643 0,-0.845351 -0.685275,-1.530643 -1.530607,-1.530643 z m 7.700866,0 c -0.845332,0 -1.530608,0.685292 -1.530608,1.530643 0,0.845351 0.685276,1.530643 1.530608,1.530643 0.84533,0 1.530606,-0.685292 1.530606,-1.530643 0,-0.845351 -0.685276,-1.530643 -1.530606,-1.530643 z m -7.700866,7.270553 c -0.845331,0 -1.530606,0.685292 -1.530606,1.530643 0,0.845351 0.685275,1.530643 1.530606,1.530643 0.845332,0 1.530607,-0.685292 1.530607,-1.530643 0,-0.845351 -0.685275,-1.530643 -1.530607,-1.530643 z m 7.700866,0 c -0.845332,0 -1.530608,0.685292 -1.530608,1.530643 0,0.845351 0.685276,1.530643 1.530608,1.530643 0.84533,0 1.530606,-0.685292 1.530606,-1.530643 0,-0.845351 -0.685276,-1.530643 -1.530606,-1.530643 z"
       id="path3160"
       inkscape:connector-curvature="0" />
  </g>
</svg>
