<?xml version="1.0" encoding="UTF-8" standalone="no"?>
<svg
   xmlns:dc="http://purl.org/dc/elements/1.1/"
   xmlns:cc="http://creativecommons.org/ns#"
   xmlns:rdf="http://www.w3.org/1999/02/22-rdf-syntax-ns#"
   xmlns:svg="http://www.w3.org/2000/svg"
   xmlns="http://www.w3.org/2000/svg"
   xml:space="preserve"
   enable-background="new 0 0 32 32"
   viewBox="0 0 32 32"
   height="32px"
   width="32px"
   y="0px"
   x="0px"
   id="svg2"
   version="1.1"><metadata
     id="metadata8"><rdf:RDF><cc:Work
         rdf:about=""><dc:format>image/svg+xml</dc:format><dc:type
           rdf:resource="http://purl.org/dc/dcmitype/StillImage" /><dc:title></dc:title></cc:Work></rdf:RDF></metadata><defs
     id="defs6" /><g
     transform="matrix(0.01005657,0,0,-0.01006572,6.0334318,21.997504)"
     id="g4" /><path
     id="path6"
     d="M 16 2.8808594 C 15.116 2.8808594 14.356609 3.0702188 13.724609 3.4492188 C 13.089609 3.8272187 12.626078 4.3216406 12.330078 4.9316406 C 12.035078 5.5416406 11.886719 6.2290469 11.886719 6.9980469 L 11.886719 9.7265625 C 11.886719 10.641562 12.191781 11.323391 12.800781 11.775391 L 12.800781 15.216797 C 11.465781 15.795797 9.3323906 16.933906 6.4003906 18.628906 C 6.0403906 18.829906 5.7988281 19.055734 5.6738281 19.302734 C 5.5488281 19.550734 5.4863281 19.916297 5.4863281 20.404297 L 5.4863281 29.119141 L 26.513672 29.119141 L 26.513672 20.404297 C 26.513672 19.915297 26.451172 19.549734 26.326172 19.302734 C 26.202172 19.055734 25.958609 18.829906 25.599609 18.628906 C 22.467609 16.817906 20.333219 15.680797 19.199219 15.216797 L 19.199219 11.765625 C 19.808219 11.313625 20.113281 10.633609 20.113281 9.7246094 L 20.113281 6.9980469 C 20.113281 6.2290469 19.967875 5.5386875 19.671875 4.9296875 C 19.375875 4.3206875 18.908391 3.8252656 18.275391 3.4472656 C 17.642391 3.0692656 16.884 2.8808594 16 2.8808594 z M 7.3164062 5.6269531 C 6.4084062 5.6269531 5.7236719 5.8947344 5.2636719 6.4277344 C 4.8036719 6.9607344 4.5722656 7.6482344 4.5722656 8.4902344 L 4.5722656 10.119141 C 4.5722656 10.296141 4.5760312 10.428672 4.5820312 10.513672 C 4.5880313 10.598672 4.6058125 10.703125 4.6328125 10.828125 C 4.6598125 10.953125 4.7055312 11.051094 4.7695312 11.121094 C 4.8335313 11.191094 4.9239688 11.266703 5.0429688 11.345703 C 5.1609687 11.424703 5.3093281 11.491875 5.4863281 11.546875 L 5.4863281 13.943359 C 5.1453281 14.048359 4.7694219 14.192 4.3574219 14.375 C 3.9464219 14.558 3.5452031 14.752937 3.1582031 14.960938 C 2.7712031 15.168937 2.432625 15.356344 2.140625 15.527344 C 1.847625 15.697344 1.5602969 15.869063 1.2792969 16.039062 C 0.99929687 16.210062 0.85003125 16.302406 0.83203125 16.316406 C 0.54503125 16.474406 0.33517188 16.642359 0.20117188 16.818359 C 0.067171875 16.994359 0 17.239781 0 17.550781 L 0 23.449219 L 4.2167969 23.451172 L 4.2167969 19.353516 C 4.2167969 18.501516 4.8956094 17.901641 5.7246094 17.431641 L 5.8535156 17.359375 C 7.9135156 16.181375 9.5739375 15.274625 10.835938 14.640625 C 10.195937 14.329625 9.6325312 14.098313 9.1445312 13.945312 L 9.1445312 11.539062 C 9.3215312 11.483063 9.4688906 11.417891 9.5878906 11.337891 C 9.7068906 11.258891 9.7973281 11.183281 9.8613281 11.113281 C 9.9253281 11.044281 9.9710469 10.945312 9.9980469 10.820312 C 10.025047 10.694312 10.042828 10.592766 10.048828 10.509766 C 10.054828 10.427766 10.058594 10.296141 10.058594 10.119141 L 10.058594 8.4902344 C 10.058594 7.6492344 9.8271875 6.9617344 9.3671875 6.4277344 C 8.9071875 5.8937344 8.2244063 5.6269531 7.3164062 5.6269531 z M 24.685547 5.6269531 C 23.777547 5.6269531 23.093812 5.8937344 22.632812 6.4277344 C 22.172812 6.9607344 21.943359 7.6482344 21.943359 8.4902344 L 21.943359 10.119141 C 21.943359 10.296141 21.944172 10.428672 21.951172 10.513672 C 21.957172 10.598672 21.973953 10.703125 22.001953 10.828125 C 22.029953 10.953125 22.076625 11.051094 22.140625 11.121094 C 22.203625 11.191094 22.295063 11.266703 22.414062 11.345703 C 22.533062 11.424703 22.679422 11.491875 22.857422 11.546875 L 22.857422 13.943359 C 22.423422 14.072359 21.867594 14.300859 21.183594 14.630859 C 22.433594 15.251859 24.021266 16.125047 25.947266 17.248047 L 26.275391 17.431641 C 27.093391 17.895641 27.777156 18.535563 27.785156 19.351562 C 27.793156 20.204562 27.835938 23.449219 27.835938 23.449219 L 32 23.449219 L 32 17.548828 C 32 17.238828 31.933828 16.995359 31.798828 16.818359 C 31.663828 16.641359 31.454969 16.474406 31.167969 16.316406 C 31.149969 16.304406 30.99875 16.213016 30.71875 16.041016 C 30.43875 15.871016 30.151375 15.699297 29.859375 15.529297 C 29.567375 15.358297 29.227844 15.170891 28.839844 14.962891 C 28.453844 14.754891 28.053578 14.559953 27.642578 14.376953 C 27.231578 14.193953 26.855672 14.049312 26.513672 13.945312 L 26.513672 11.539062 C 26.690672 11.483063 26.837078 11.417891 26.955078 11.337891 C 27.074078 11.258891 27.166469 11.183281 27.230469 11.113281 C 27.294469 11.044281 27.340187 10.945312 27.367188 10.820312 C 27.395188 10.694312 27.412922 10.592766 27.419922 10.509766 C 27.425922 10.427766 27.427734 10.296141 27.427734 10.119141 L 27.427734 8.4902344 C 27.427734 7.6492344 27.198281 6.9617344 26.738281 6.4277344 C 26.277281 5.8937344 25.593547 5.6269531 24.685547 5.6269531 z " /></svg>