<?xml version="1.0" encoding="UTF-8" standalone="no"?>
<svg
   xmlns:dc="http://purl.org/dc/elements/1.1/"
   xmlns:cc="http://creativecommons.org/ns#"
   xmlns:rdf="http://www.w3.org/1999/02/22-rdf-syntax-ns#"
   xmlns:svg="http://www.w3.org/2000/svg"
   xmlns="http://www.w3.org/2000/svg"
   xmlns:sodipodi="http://sodipodi.sourceforge.net/DTD/sodipodi-0.dtd"
   xmlns:inkscape="http://www.inkscape.org/namespaces/inkscape"
   version="1.1"
   width="32px"
   height="32px"
   id="svg2"
   inkscape:version="0.91 r13725"
   sodipodi:docname="hand_right.svg">
  <metadata
     id="metadata12">
    <rdf:RDF>
      <cc:Work
         rdf:about="">
        <dc:format>image/svg+xml</dc:format>
        <dc:type
           rdf:resource="http://purl.org/dc/dcmitype/StillImage" />
        <dc:title />
      </cc:Work>
    </rdf:RDF>
  </metadata>
  <defs
     id="defs10" />
  <sodipodi:namedview
     pagecolor="#ffffff"
     bordercolor="#666666"
     borderopacity="1"
     objecttolerance="10"
     gridtolerance="10"
     guidetolerance="10"
     inkscape:pageopacity="0"
     inkscape:pageshadow="2"
     inkscape:window-width="1920"
     inkscape:window-height="1028"
     id="namedview8"
     showgrid="false"
     inkscape:zoom="7.375"
     inkscape:cx="-23.322034"
     inkscape:cy="16"
     inkscape:window-x="-8"
     inkscape:window-y="-8"
     inkscape:window-maximized="1"
     inkscape:current-layer="svg2" />
  <g
     id="g4"
     transform="matrix(0,0.01229812,-0.01229823,0,28.828586,30.52482)" />
  <path
     d="m 18.847041,4.6138757 q 0.387394,0.061491 0.670253,0.3443475 l 2.041507,2.0414891 q 0.319754,0.3197514 0.3505,0.7870802 0.03074,0.4673288 -0.239816,0.8239745 l -2.164489,2.82857 q 4.943889,-0.0246 8.498079,-0.0246 1.254419,0 2.189085,0.547267 0.934666,0.547265 1.371253,1.371241 Q 32,14.157223 32,15.104178 q 0,0.946957 -0.436587,1.770931 -0.436587,0.823974 -1.371253,1.371241 -0.934666,0.547266 -2.189085,0.547266 l -4.132206,0 -2.201384,7.723225 q -0.122982,0.393539 -0.448885,0.639503 -0.325904,0.245962 -0.731745,0.245962 l -8.264412,0 q -0.295158,0 -0.528824,-0.135279 L 6.7886241,24.807401 Q 6.1491161,24.48765 6.1491161,23.712868 l 0,-12.298127 q 0,-0.787081 0.6518063,-1.106833 L 18.102998,4.7245588 Q 18.459646,4.552385 18.847041,4.6138759 Z m -0.411991,2.705588 -9.826288,4.8577613 0,10.773159 3.89854,1.992296 7.046887,0 2.201384,-7.710926 q 0.122982,-0.39354 0.448885,-0.645651 0.325903,-0.252111 0.731745,-0.252111 l 6.296695,0 q 0.270561,0 0.461183,-0.05534 0.190623,-0.05534 0.28286,-0.122983 0.09224,-0.06764 0.141429,-0.221367 0.04919,-0.153725 0.05534,-0.239813 0.0061,-0.08609 -0.0061,-0.301304 -0.0123,-0.215217 -0.0123,-0.289006 0,-0.07379 0.0123,-0.289006 0.0123,-0.215217 0.0061,-0.301304 -0.0061,-0.08609 -0.05534,-0.239813 -0.04919,-0.153727 -0.141429,-0.221366 -0.09224,-0.06764 -0.28286,-0.122982 -0.190622,-0.05534 -0.461183,-0.05534 l -12.015373,0 q -0.381245,0 -0.76864,-0.178323 -0.387394,-0.178324 -0.534973,-0.473479 -0.13528,-0.270558 -0.13528,-0.553415 0,-0.405838 0.270561,-0.750185 L 19.074558,7.9835641 Z M 3.6894696,10.184927 0,10.184927 l 0,15.987567 3.6894696,0 0,-0.0123 q 0.4919293,-0.0369 0.8608763,-0.387392 0.368947,-0.350496 0.368947,-0.830124 l 0,-13.527939 q 0,-0.479628 -0.368947,-0.830125 -0.368947,-0.350495 -0.8608763,-0.387389 l 0,-0.0123 z"
     id="path6"
     inkscape:connector-curvature="0" />
</svg>
