<?xml version="1.0" encoding="UTF-8" standalone="no"?>
<svg
   xmlns:dc="http://purl.org/dc/elements/1.1/"
   xmlns:cc="http://creativecommons.org/ns#"
   xmlns:rdf="http://www.w3.org/1999/02/22-rdf-syntax-ns#"
   xmlns:svg="http://www.w3.org/2000/svg"
   xmlns="http://www.w3.org/2000/svg"
   xmlns:sodipodi="http://sodipodi.sourceforge.net/DTD/sodipodi-0.dtd"
   xmlns:inkscape="http://www.inkscape.org/namespaces/inkscape"
   version="1.1"
   width="32px"
   height="32px"
   id="svg2"
   inkscape:version="0.91 r13725"
   sodipodi:docname="hand_down.svg">
  <metadata
     id="metadata12">
    <rdf:RDF>
      <cc:Work
         rdf:about="">
        <dc:format>image/svg+xml</dc:format>
        <dc:type
           rdf:resource="http://purl.org/dc/dcmitype/StillImage" />
      </cc:Work>
    </rdf:RDF>
  </metadata>
  <defs
     id="defs10" />
  <sodipodi:namedview
     pagecolor="#ffffff"
     bordercolor="#666666"
     borderopacity="1"
     objecttolerance="10"
     gridtolerance="10"
     guidetolerance="10"
     inkscape:pageopacity="0"
     inkscape:pageshadow="2"
     inkscape:window-width="1920"
     inkscape:window-height="1028"
     id="namedview8"
     showgrid="false"
     inkscape:zoom="7.375"
     inkscape:cx="-23.322034"
     inkscape:cy="16"
     inkscape:window-x="-8"
     inkscape:window-y="-8"
     inkscape:window-maximized="1"
     inkscape:current-layer="svg2" />
  <g
     id="g4"
     transform="matrix(0.01229812,0,0,-0.01229823,-4.5677315,22.848586)" />
  <path
     d="m 4.6138776,18.847041 q 0.061491,0.387394 0.3443476,0.670253 l 2.0414891,2.041507 q 0.3197513,0.319754 0.7870802,0.3505 0.4673284,0.03074 0.8239744,-0.239816 l 2.8285701,-2.164489 q -0.0246,4.943889 -0.0246,8.498079 0,1.254419 0.547266,2.189085 0.547266,0.934666 1.371242,1.371253 Q 14.157221,32 15.104176,32 q 0.946957,0 1.770931,-0.436587 0.823974,-0.436587 1.371241,-1.371253 0.547266,-0.934666 0.547266,-2.189085 l 0,-4.132206 7.723225,-2.201384 q 0.393539,-0.122982 0.639503,-0.448885 0.245962,-0.325904 0.245962,-0.731745 l 0,-8.264412 q 0,-0.295158 -0.135279,-0.528824 L 24.807403,6.7886241 Q 24.487652,6.1491161 23.71287,6.1491161 l -12.298127,0 q -0.787081,0 -1.106833,0.6518063 L 4.7245607,18.102998 Q 4.552387,18.459646 4.6138779,18.847041 Z m 2.705588,-0.411991 4.8577614,-9.8262875 10.773159,0 1.992296,3.8985395 0,7.046887 -7.710926,2.201384 q -0.39354,0.122982 -0.645651,0.448885 -0.252111,0.325903 -0.252111,0.731745 l 0,6.296695 q 0,0.270561 -0.05534,0.461183 -0.05534,0.190623 -0.122983,0.28286 -0.06764,0.09224 -0.221367,0.141429 -0.153725,0.04919 -0.239813,0.05534 -0.08609,0.0061 -0.301304,-0.0062 -0.215217,-0.0123 -0.289006,-0.0123 -0.07379,0 -0.289006,0.0123 -0.215217,0.0123 -0.301304,0.0062 -0.08609,-0.0062 -0.239813,-0.05534 -0.153727,-0.04919 -0.221366,-0.141429 -0.06764,-0.09224 -0.122982,-0.28286 -0.05534,-0.190622 -0.05534,-0.461183 l 0,-12.015373 q 0,-0.381245 -0.178323,-0.76864 -0.178324,-0.387394 -0.473479,-0.534973 -0.270558,-0.13528 -0.553415,-0.13528 -0.405838,0 -0.750185,0.270561 L 7.9835659,19.074558 Z M 10.184929,3.6894696 10.184929,0 l 15.987567,0 0,3.6894696 -0.0123,0 q -0.03689,0.4919293 -0.387392,0.8608763 -0.350496,0.368947 -0.830124,0.368947 l -13.527939,0 q -0.479628,0 -0.830125,-0.368947 -0.350497,-0.368947 -0.387391,-0.8608763 l -0.0123,0 z"
     id="path6"
     inkscape:connector-curvature="0" />
</svg>
