<?xml version="1.0" encoding="UTF-8" standalone="no"?>
<svg
   xmlns:dc="http://purl.org/dc/elements/1.1/"
   xmlns:cc="http://creativecommons.org/ns#"
   xmlns:rdf="http://www.w3.org/1999/02/22-rdf-syntax-ns#"
   xmlns:svg="http://www.w3.org/2000/svg"
   xmlns="http://www.w3.org/2000/svg"
   xmlns:sodipodi="http://sodipodi.sourceforge.net/DTD/sodipodi-0.dtd"
   xmlns:inkscape="http://www.inkscape.org/namespaces/inkscape"
   version="1.1"
   width="32px"
   height="32px"
   id="svg2"
   inkscape:version="0.91 r13725"
   sodipodi:docname="hand_up.svg">
  <metadata
     id="metadata12">
    <rdf:RDF>
      <cc:Work
         rdf:about="">
        <dc:format>image/svg+xml</dc:format>
        <dc:type
           rdf:resource="http://purl.org/dc/dcmitype/StillImage" />
        <dc:title />
      </cc:Work>
    </rdf:RDF>
  </metadata>
  <defs
     id="defs10" />
  <sodipodi:namedview
     pagecolor="#ffffff"
     bordercolor="#666666"
     borderopacity="1"
     objecttolerance="10"
     gridtolerance="10"
     guidetolerance="10"
     inkscape:pageopacity="0"
     inkscape:pageshadow="2"
     inkscape:window-width="1920"
     inkscape:window-height="1028"
     id="namedview8"
     showgrid="false"
     inkscape:zoom="7.375"
     inkscape:cx="-23.322034"
     inkscape:cy="16"
     inkscape:window-x="-8"
     inkscape:window-y="-8"
     inkscape:window-maximized="1"
     inkscape:current-layer="svg2" />
  <g
     id="g4"
     transform="matrix(0.01229812,0,0,0.01229823,-4.5677314,3.1714143)" />
  <path
     d="m 4.6138758,13.152959 q 0.061491,-0.387394 0.3443475,-0.670253 L 6.9997124,10.441199 Q 7.3194637,10.121445 7.7867926,10.0907 8.254121,10.059954 8.610767,10.330515 l 2.82857,2.164489 q -0.0246,-4.9438895 -0.0246,-8.4980786 0,-1.2544196 0.547266,-2.1890853 Q 12.509269,0.8731745 13.333245,0.4365872 14.157223,0 15.104178,0 q 0.946957,0 1.770931,0.4365872 0.823974,0.4365873 1.37124,1.3712529 0.547267,0.9346657 0.547267,2.1890853 l 0,4.132206 7.723225,2.2013836 q 0.393539,0.122982 0.639503,0.448886 0.245962,0.325903 0.245962,0.731744 l 0,8.264412 q 0,0.295158 -0.135279,0.528824 l -2.459626,4.906995 q -0.319752,0.639508 -1.094533,0.639508 l -12.298127,0 q -0.787081,0 -1.106833,-0.651806 L 4.7245589,13.897002 Q 4.5523851,13.540354 4.6138758,13.152959 Z m 2.7055879,0.411991 4.8577613,9.826288 10.773159,0 1.992296,-3.89854 0,-7.046887 -7.710926,-2.201384 Q 16.838214,10.121445 16.586103,9.7955419 16.333992,9.4696387 16.333992,9.0637971 l 0,-6.2966949 q 0,-0.2705611 -0.05534,-0.4611837 -0.05534,-0.1906226 -0.122983,-0.2828593 -0.06764,-0.092237 -0.221367,-0.1414297 -0.153725,-0.049193 -0.239813,-0.055342 -0.08609,-0.00615 -0.301304,0.00615 -0.215217,0.012298 -0.289006,0.012298 -0.07379,0 -0.289006,-0.012298 -0.215217,-0.012298 -0.301304,-0.00615 -0.08609,0.00615 -0.239813,0.055342 -0.153727,0.049193 -0.221366,0.1414297 -0.06764,0.092237 -0.122982,0.2828593 -0.05534,0.1906226 -0.05534,0.4611837 l 0,12.0153728 q 0,0.381245 -0.178323,0.76864 -0.178324,0.387394 -0.473479,0.534973 -0.270558,0.13528 -0.553415,0.13528 -0.405838,0 -0.750185,-0.270561 L 7.983563,12.925442 Z m 2.8654633,14.74558 0,3.68947 15.987567,0 0,-3.68947 -0.0123,0 q -0.03689,-0.491929 -0.387391,-0.860876 -0.350496,-0.368947 -0.830124,-0.368947 l -13.527939,0 q -0.479628,0 -0.830125,0.368947 -0.350497,0.368947 -0.387391,0.860876 l -0.0123,0 z"
     id="path6"
     inkscape:connector-curvature="0" />
</svg>
