<?xml version="1.0" encoding="UTF-8" standalone="no"?>
<svg
   xmlns:dc="http://purl.org/dc/elements/1.1/"
   xmlns:cc="http://creativecommons.org/ns#"
   xmlns:rdf="http://www.w3.org/1999/02/22-rdf-syntax-ns#"
   xmlns:svg="http://www.w3.org/2000/svg"
   xmlns="http://www.w3.org/2000/svg"
   xmlns:sodipodi="http://sodipodi.sourceforge.net/DTD/sodipodi-0.dtd"
   xmlns:inkscape="http://www.inkscape.org/namespaces/inkscape"
   version="1.1"
   width="32px"
   height="32px"
   id="svg2"
   inkscape:version="0.91 r13725"
   sodipodi:docname="hdd.svg">
  <metadata
     id="metadata12">
    <rdf:RDF>
      <cc:Work
         rdf:about="">
        <dc:format>image/svg+xml</dc:format>
        <dc:type
           rdf:resource="http://purl.org/dc/dcmitype/StillImage" />
      </cc:Work>
    </rdf:RDF>
  </metadata>
  <defs
     id="defs10" />
  <sodipodi:namedview
     pagecolor="#ffffff"
     bordercolor="#666666"
     borderopacity="1"
     objecttolerance="10"
     gridtolerance="10"
     guidetolerance="10"
     inkscape:pageopacity="0"
     inkscape:pageshadow="2"
     inkscape:window-width="1920"
     inkscape:window-height="1028"
     id="namedview8"
     showgrid="false"
     inkscape:zoom="7.375"
     inkscape:cx="-0.20338983"
     inkscape:cy="16"
     inkscape:window-x="-8"
     inkscape:window-y="-8"
     inkscape:window-maximized="1"
     inkscape:current-layer="svg2" />
  <g
     id="g4"
     transform="matrix(0.01333333,0,0,-0.01333333,-1.3333333,20.5)" />
  <path
     d="M 0,27.333333 0,26 q 0,-1.093333 0.7866667,-1.88 0.7866666,-0.786667 1.88,-0.786667 l 26.6666663,0 q 1.093334,0 1.88,0.786667 Q 32,24.906667 32,26 l 0,1.333333 q 0,1.093334 -0.786667,1.88 Q 30.426667,30 29.333333,30 L 2.6666667,30 q -1.0933334,0 -1.88,-0.786667 Q 0,28.426667 0,27.333333 Z m 0.7866667,-4.84 L 5.4,3.3066667 Q 5.52,2.7733333 6,2.3866667 6.48,2 7.026667,2 L 24.973333,2 Q 25.52,2 26,2.3866667 q 0.48,0.3866666 0.6,0.92 L 31.213333,22.493333 Q 30.306667,22 29.333333,22 L 2.6666667,22 q -0.9733334,0 -1.88,0.493333 z m 24.5466663,4.84 1.333334,0 0,-1.333333 -1.333334,0 0,1.333333 z m 2.666667,0 1.333333,0 0,-1.333333 L 28,26 l 0,1.333333 z"
     id="path6"
     inkscape:connector-curvature="0" />
</svg>
