<?xml version="1.0" encoding="UTF-8" standalone="no"?>
<svg
   xmlns:dc="http://purl.org/dc/elements/1.1/"
   xmlns:cc="http://creativecommons.org/ns#"
   xmlns:rdf="http://www.w3.org/1999/02/22-rdf-syntax-ns#"
   xmlns:svg="http://www.w3.org/2000/svg"
   xmlns="http://www.w3.org/2000/svg"
   xmlns:sodipodi="http://sodipodi.sourceforge.net/DTD/sodipodi-0.dtd"
   xmlns:inkscape="http://www.inkscape.org/namespaces/inkscape"
   version="1.1"
   width="32px"
   height="32px"
   id="svg2"
   inkscape:version="0.91 r13725"
   sodipodi:docname="header.svg">
  <metadata
     id="metadata12">
    <rdf:RDF>
      <cc:Work
         rdf:about="">
        <dc:format>image/svg+xml</dc:format>
        <dc:type
           rdf:resource="http://purl.org/dc/dcmitype/StillImage" />
      </cc:Work>
    </rdf:RDF>
  </metadata>
  <defs
     id="defs10" />
  <sodipodi:namedview
     pagecolor="#ffffff"
     bordercolor="#666666"
     borderopacity="1"
     objecttolerance="10"
     gridtolerance="10"
     guidetolerance="10"
     inkscape:pageopacity="0"
     inkscape:pageshadow="2"
     inkscape:window-width="1920"
     inkscape:window-height="1028"
     id="namedview8"
     showgrid="false"
     inkscape:zoom="7.375"
     inkscape:cx="-23.322034"
     inkscape:cy="16"
     inkscape:window-x="-8"
     inkscape:window-y="-8"
     inkscape:window-maximized="1"
     inkscape:current-layer="svg2" />
  <g
     id="g4"
     transform="matrix(0.01391304,0,0,-0.01391304,-1.7608696,37.130435)" />
  <path
     d="m 0,29.913044 13.913043,0 0,-1.558261 q -0.500869,0 -0.806956,-0.007 -0.306087,-0.007 -0.876522,-0.04174 -0.570435,-0.03478 -0.93913,-0.125217 -0.368696,-0.09043 -0.765218,-0.236522 Q 10.128696,27.798217 9.933913,27.547783 9.73913,27.297348 9.73913,26.963435 l 0,-9.572174 12.52174,0 0,9.572174 q 0,0.333913 -0.194783,0.584348 -0.194783,0.250434 -0.591304,0.396521 -0.396522,0.146087 -0.765218,0.236522 -0.368695,0.09043 -0.93913,0.125217 -0.570435,0.03478 -0.876522,0.04174 -0.306087,0.007 -0.806956,0.007 l 0,1.558261 13.913043,0 0,-1.558261 q -0.50087,0 -0.806957,-0.007 -0.306086,-0.007 -0.876521,-0.04174 -0.570435,-0.03478 -0.939131,-0.125217 -0.368695,-0.09043 -0.765217,-0.236522 -0.396522,-0.146087 -0.591304,-0.396521 -0.194783,-0.250435 -0.194783,-0.584348 l 0,-21.913044 q 0,-0.333913 0.194783,-0.5843478 0.194782,-0.2503907 0.591304,-0.3964777 0.396522,-0.146087 0.765217,-0.2365217 0.368696,-0.090435 0.939131,-0.1252174 0.570435,-0.034783 0.876521,-0.041739 Q 31.49913,3.6591307 32,3.6591307 l 0,-1.572174 -13.913043,0 0,1.572174 q 0.500869,0 0.806956,0.00696 0.306087,0.00696 0.876522,0.041739 0.570435,0.034783 0.93913,0.1252174 0.368696,0.090435 0.765218,0.2365217 0.396521,0.146087 0.591304,0.3965217 0.194783,0.2504348 0.194783,0.5843478 l 0,9.558261 -12.52174,0 0,-9.558261 q 0,-0.333913 0.194783,-0.5843478 0.194783,-0.2504347 0.591304,-0.3965217 0.396522,-0.146087 0.765218,-0.2365217 0.368695,-0.090435 0.93913,-0.1252174 0.570435,-0.034783 0.876522,-0.041739 0.306087,-0.00696 0.806956,-0.00696 l 0,-1.5721739 -13.913043,0 0,1.5721739 q 0.5008696,0 0.8069565,0.00696 0.306087,0.00696 0.8765218,0.041739 0.5704347,0.034783 0.9391304,0.1252174 0.3686956,0.090435 0.7652174,0.2365217 0.3965217,0.146087 0.5913043,0.3965217 Q 4.173913,4.716522 4.173913,5.050435 l 0,21.913044 q 0,0.333913 -0.1947826,0.584348 Q 3.7843478,27.798261 3.3878261,27.944348 2.9913043,28.090435 2.6226087,28.18087 2.253913,28.2713 1.6834783,28.306087 1.1130435,28.340867 0.8069565,28.347827 0.5008696,28.354827 0,28.354827 l 0,1.558217 z"
     id="path6"
     inkscape:connector-curvature="0" />
</svg>
