<?xml version="1.0" encoding="UTF-8" standalone="no"?>
<svg
   xmlns:dc="http://purl.org/dc/elements/1.1/"
   xmlns:cc="http://creativecommons.org/ns#"
   xmlns:rdf="http://www.w3.org/1999/02/22-rdf-syntax-ns#"
   xmlns:svg="http://www.w3.org/2000/svg"
   xmlns="http://www.w3.org/2000/svg"
   xmlns:sodipodi="http://sodipodi.sourceforge.net/DTD/sodipodi-0.dtd"
   xmlns:inkscape="http://www.inkscape.org/namespaces/inkscape"
   version="1.1"
   width="32px"
   height="32px"
   id="svg2"
   inkscape:version="0.91 r13725"
   sodipodi:docname="headphones.svg">
  <metadata
     id="metadata12">
    <rdf:RDF>
      <cc:Work
         rdf:about="">
        <dc:format>image/svg+xml</dc:format>
        <dc:type
           rdf:resource="http://purl.org/dc/dcmitype/StillImage" />
      </cc:Work>
    </rdf:RDF>
  </metadata>
  <defs
     id="defs10" />
  <sodipodi:namedview
     pagecolor="#ffffff"
     bordercolor="#666666"
     borderopacity="1"
     objecttolerance="10"
     gridtolerance="10"
     guidetolerance="10"
     inkscape:pageopacity="0"
     inkscape:pageshadow="2"
     inkscape:window-width="1920"
     inkscape:window-height="1028"
     id="namedview8"
     showgrid="false"
     inkscape:zoom="7.375"
     inkscape:cx="-23.322034"
     inkscape:cy="16"
     inkscape:window-x="-8"
     inkscape:window-y="-8"
     inkscape:window-maximized="1"
     inkscape:current-layer="svg2" />
  <g
     id="g4"
     transform="matrix(0.01333333,0,0,-0.01333333,-1.3333333,33.416667)" />
  <path
     d="m 0,24.333334 0,-8 Q 0,13.226667 1.32,10.28 2.64,7.3333333 4.82,5.1533333 q 2.18,-2.18 5.126667,-3.5 Q 12.893333,0.33333335 16,0.33333335 q 3.106667,0 6.053333,1.31999995 2.946667,1.32 5.126667,3.5 2.18,2.18 3.5,5.1266667 1.32,2.946667 1.32,6.053334 l 0,8 q 0,0.28 -0.193333,0.473333 Q 31.613333,25 31.333333,25 L 30,25 q -0.28,0 -0.473333,-0.193333 -0.193334,-0.193333 -0.193334,-0.473333 l 0,-8 q 0,-2.546667 -1.106666,-4.806667 -1.106667,-2.2600003 -2.94,-3.8200004 -1.833334,-1.56 -4.26,-2.4666667 Q 18.6,4.3333333 16,4.3333333 q -2.6,0 -5.026667,0.9066666 -2.426666,0.9066667 -4.26,2.4666667 Q 4.88,9.2666667 3.7733333,11.526667 q -1.1066666,2.26 -1.1066666,4.806667 l 0,8 q 0,0.28 -0.1933334,0.473333 Q 2.28,25 2,25 l -1.3333333,0 q -0.28,0 -0.4733334,-0.193333 Q 0,24.613334 0,24.333334 Z M 4,31 4,20.36 q 0,-0.693333 0.4533333,-0.693333 l 3.3733337,0 q 0.28,0 0.473333,0.2 0.193333,0.2 0.193333,0.48 0.08,0.226667 0.186667,0.646667 0.106667,0.42 0.293333,1.806666 Q 9.16,24.186667 9.16,25.666667 q 0,1.48 -0.166667,2.813333 -0.166666,1.333334 -0.326666,1.933334 L 8.493333,31 q 0,0.28 -0.193333,0.473334 -0.193333,0.193333 -0.473333,0.193333 l -3.3733337,0 Q 4,31.666667 4,31 Z m 18.84,-5.333333 q 0,-1.48 0.166667,-2.813333 0.166666,-1.333334 0.326666,-1.92 l 0.173334,-0.586667 q 0,-0.28 0.193333,-0.48 0.193333,-0.2 0.473333,-0.2 l 3.373334,0 Q 28,19.666667 28,20.36 L 28,31 q 0,0.666667 -0.453333,0.666667 l -3.373334,0 q -0.28,0 -0.473333,-0.2 Q 23.506667,31.266667 23.506667,31 23.426667,30.773334 23.32,30.353334 23.213333,29.933334 23.026667,28.54 22.84,27.146667 22.84,25.666667 Z"
     id="path6"
     inkscape:connector-curvature="0" />
</svg>
