<?xml version="1.0" encoding="UTF-8" standalone="no"?>
<svg
   xmlns:dc="http://purl.org/dc/elements/1.1/"
   xmlns:cc="http://creativecommons.org/ns#"
   xmlns:rdf="http://www.w3.org/1999/02/22-rdf-syntax-ns#"
   xmlns:svg="http://www.w3.org/2000/svg"
   xmlns="http://www.w3.org/2000/svg"
   xmlns:sodipodi="http://sodipodi.sourceforge.net/DTD/sodipodi-0.dtd"
   xmlns:inkscape="http://www.inkscape.org/namespaces/inkscape"
   version="1.1"
   width="32px"
   height="32px"
   id="svg2"
   inkscape:version="0.91 r13725"
   sodipodi:docname="headset.svg">
  <metadata
     id="metadata12">
    <rdf:RDF>
      <cc:Work
         rdf:about="">
        <dc:format>image/svg+xml</dc:format>
        <dc:type
           rdf:resource="http://purl.org/dc/dcmitype/StillImage" />
      </cc:Work>
    </rdf:RDF>
  </metadata>
  <defs
     id="defs10" />
  <sodipodi:namedview
     pagecolor="#ffffff"
     bordercolor="#666666"
     borderopacity="1"
     objecttolerance="10"
     gridtolerance="10"
     guidetolerance="10"
     inkscape:pageopacity="0"
     inkscape:pageshadow="2"
     inkscape:window-width="1920"
     inkscape:window-height="1028"
     id="namedview8"
     showgrid="false"
     inkscape:zoom="7.375"
     inkscape:cx="-23.322034"
     inkscape:cy="16"
     inkscape:window-x="-8"
     inkscape:window-y="-8"
     inkscape:window-maximized="1"
     inkscape:current-layer="svg2" />
  <g
     id="g4"
     transform="matrix(0.01164602,0,0,-0.01163636,-0.65454542,22.477273)" />
  <path
     d="m 2.0363638,20.945455 0,-6.981819 q 0,-2.711272 1.1529559,-5.2829087 Q 4.3422758,6.1090909 6.2464,4.2065455 8.1505248,2.304 10.724295,1.152 13.298066,0 16.011588,0 q 2.713523,0 5.287293,1.152 2.573771,1.152 4.472071,3.0545455 1.898302,1.9025454 3.051259,4.4741818 1.152955,2.5716367 1.141309,5.2829087 l 0,10.123637 q -0.0233,0.151272 -0.104808,0.395636 -0.08153,0.244364 -0.390142,0.832 -0.30862,0.587636 -0.756991,1.146182 -0.448372,0.558545 -1.292708,1.250909 -0.844337,0.692364 -1.904125,1.245091 -1.059787,0.552727 -2.684407,1.018182 -1.624621,0.465454 -3.546214,0.674909 -0.279504,0.605091 -0.850159,0.977454 Q 17.863311,32 17.176196,32 l -1.164602,0 q -0.96662,0 -1.647912,-0.680727 -0.681292,-0.680728 -0.681292,-1.646546 0,-0.954182 0.687115,-1.640727 0.687116,-0.686545 1.642089,-0.686545 l 1.164602,0 q 1.211186,0 1.909947,1.000727 1.432461,-0.162909 2.661115,-0.477091 1.228656,-0.314182 2.061346,-0.680727 0.83269,-0.366546 1.519806,-0.826182 0.687116,-0.459637 1.077257,-0.843637 0.390142,-0.384 0.687115,-0.79709 0.296974,-0.413091 0.401788,-0.628364 0.104809,-0.215273 0.163044,-0.389818 l 0,-9.739637 q 0,-2.222545 -0.96662,-4.1949087 -0.96662,-1.9723637 -2.567947,-3.3338182 -1.601328,-1.3614546 -3.720903,-2.1527273 -2.119577,-0.7912727 -4.39055,-0.7912727 -2.270974,0 -4.390549,0.7912727 Q 9.5014618,5.0734545 7.9001349,6.4349091 6.2988072,7.7963636 5.3321875,9.7687273 4.3655678,11.741091 4.3655678,13.963636 l 0,6.981819 q 0,0.244363 -0.1688673,0.41309 -0.1688672,0.168728 -0.4134337,0.168728 l -1.164602,0 q -0.2445665,0 -0.4134337,-0.168728 -0.1688673,-0.168727 -0.1688673,-0.41309 z m 3.4938061,5.818181 0,-9.285818 q 0,-0.605091 0.3959646,-0.605091 l 2.9464433,0 q 0.244566,0 0.413434,0.174546 0.168867,0.174545 0.168867,0.418909 0.06988,0.197818 0.163044,0.564363 0.09317,0.366546 0.256213,1.576728 0.1630442,1.210182 0.1630442,2.501818 0,1.291636 -0.1455762,2.455273 -0.145574,1.163636 -0.285327,1.687272 l -0.151398,0.512 q 0,0.244364 -0.168867,0.413091 -0.168868,0.168728 -0.413434,0.168728 l -2.9464433,0 q -0.3959646,0 -0.3959646,-0.581819 z M 21.985996,22.109091 q 0,-1.291636 0.145575,-2.455273 0.145576,-1.163636 0.285328,-1.675636 l 0.151398,-0.512 q 0,-0.244364 0.168868,-0.418909 0.168867,-0.174546 0.413433,-0.174546 l 2.946444,0 q 0.395964,0 0.395964,0.605091 l 0,5.317818 q -1.665381,2.013091 -4.192568,2.711273 -0.314442,-2.432 -0.314442,-3.397818 z"
     id="path6"
     inkscape:connector-curvature="0" />
</svg>
