<?xml version="1.0" encoding="UTF-8" standalone="no"?>
<svg
   xmlns:dc="http://purl.org/dc/elements/1.1/"
   xmlns:cc="http://creativecommons.org/ns#"
   xmlns:rdf="http://www.w3.org/1999/02/22-rdf-syntax-ns#"
   xmlns:svg="http://www.w3.org/2000/svg"
   xmlns="http://www.w3.org/2000/svg"
   xmlns:sodipodi="http://sodipodi.sourceforge.net/DTD/sodipodi-0.dtd"
   xmlns:inkscape="http://www.inkscape.org/namespaces/inkscape"
   version="1.1"
   width="32px"
   height="32px"
   id="svg2"
   inkscape:version="0.91 r13725"
   sodipodi:docname="heart_empty.svg">
  <metadata
     id="metadata12">
    <rdf:RDF>
      <cc:Work
         rdf:about="">
        <dc:format>image/svg+xml</dc:format>
        <dc:type
           rdf:resource="http://purl.org/dc/dcmitype/StillImage" />
      </cc:Work>
    </rdf:RDF>
  </metadata>
  <defs
     id="defs10" />
  <sodipodi:namedview
     pagecolor="#ffffff"
     bordercolor="#666666"
     borderopacity="1"
     objecttolerance="10"
     gridtolerance="10"
     guidetolerance="10"
     inkscape:pageopacity="0"
     inkscape:pageshadow="2"
     inkscape:window-width="1920"
     inkscape:window-height="1028"
     id="namedview8"
     showgrid="false"
     inkscape:zoom="7.375"
     inkscape:cx="-0.20338983"
     inkscape:cy="16"
     inkscape:window-x="-8"
     inkscape:window-y="-8"
     inkscape:window-maximized="1"
     inkscape:current-layer="svg2" />
  <g
     id="g4"
     transform="matrix(0.01358234,0,0,-0.01358214,-1.8105603,21.306924)" />
  <path
     d="M 0,10.343942 Q 0,8.944982 0.4685908,7.6071416 0.9371817,6.2693013 1.7385399,5.1963127 2.5398981,4.1233242 3.6400679,3.2880229 4.7402377,2.4527216 5.96944,1.9637648 7.198642,1.4748079 8.563667,1.4136883 9.928693,1.3525693 11.219015,1.7260774 12.509338,2.0995862 13.765705,3.0707088 15.022071,4.0418313 16,5.5494483 q 1.04584,-1.507617 2.336163,-2.4787395 1.290323,-0.9711226 2.594227,-1.3446314 1.303905,-0.3735087 2.655349,-0.3123891 1.351443,0.061119 2.567062,0.5500765 1.21562,0.4889568 2.295416,1.3242581 1.079797,0.8353013 1.860781,1.9082898 0.780985,1.0729886 1.235994,2.4108289 Q 32,8.944982 32,10.343942 q 0,1.208809 -0.516129,2.465157 -0.516129,1.256348 -1.473684,2.512697 -0.957555,1.256348 -2.159593,2.526276 -1.202037,1.26993 -2.716468,2.743592 -1.514432,1.473661 -2.981325,2.933741 -1.466893,1.460079 -3.137521,3.347996 Q 17.344652,28.761318 16,30.594907 14.655348,28.761318 12.98472,26.873401 11.314092,24.985484 9.847199,23.525405 8.380306,22.065325 6.865874,20.591664 5.3514431,19.118002 4.1494058,17.848072 2.9473684,16.578144 1.9898132,15.321796 1.0322581,14.065447 0.516129,12.809099 0,11.552751 0,10.343942 Z m 3.3955857,0 q 0,0.611196 0.3735145,1.392168 0.3735144,0.780973 0.8488964,1.453289 0.475382,0.672315 1.4804754,1.765679 1.005093,1.093362 1.684211,1.772469 0.679117,0.679106 2.037351,2.010155 3.898132,3.789416 6.179966,6.410768 2.023769,-2.336127 6.207131,-6.451513 0.950764,-0.923586 1.45331,-1.426125 0.502547,-0.50254 1.297114,-1.317467 0.794567,-0.814928 1.222411,-1.310677 0.427844,-0.495748 0.971138,-1.174855 0.543293,-0.679108 0.808149,-1.161273 0.264856,-0.482166 0.455008,-1.005078 0.190153,-0.522912 0.190153,-0.95754 0,-1.1544819 -0.488964,-2.200306 Q 27.626486,7.0978115 26.845501,6.3779584 26.064516,5.6581053 25.093379,5.2302681 24.122241,4.8024309 23.157895,4.8024309 q -2.512734,0 -4.359932,2.6892626 L 15.918506,11.634244 13.16129,7.4102006 Q 11.449915,4.8024309 8.991511,4.8024309 8,4.8024309 7.001698,5.2302681 6.003396,5.6581053 5.2020374,6.3779584 4.4006791,7.0978115 3.8981324,8.143636 3.3955857,9.1894601 3.3955857,10.343942 Z"
     id="path6"
     inkscape:connector-curvature="0" />
</svg>
