<?xml version="1.0" encoding="UTF-8" standalone="no"?>
<svg
   xmlns:dc="http://purl.org/dc/elements/1.1/"
   xmlns:cc="http://creativecommons.org/ns#"
   xmlns:rdf="http://www.w3.org/1999/02/22-rdf-syntax-ns#"
   xmlns:svg="http://www.w3.org/2000/svg"
   xmlns="http://www.w3.org/2000/svg"
   xmlns:sodipodi="http://sodipodi.sourceforge.net/DTD/sodipodi-0.dtd"
   xmlns:inkscape="http://www.inkscape.org/namespaces/inkscape"
   version="1.1"
   width="32px"
   height="32px"
   id="svg2"
   inkscape:version="0.91 r13725"
   sodipodi:docname="heat.svg">
  <metadata
     id="metadata12">
    <rdf:RDF>
      <cc:Work
         rdf:about="">
        <dc:format>image/svg+xml</dc:format>
        <dc:type
           rdf:resource="http://purl.org/dc/dcmitype/StillImage" />
      </cc:Work>
    </rdf:RDF>
  </metadata>
  <defs
     id="defs10" />
  <sodipodi:namedview
     pagecolor="#ffffff"
     bordercolor="#666666"
     borderopacity="1"
     objecttolerance="10"
     gridtolerance="10"
     guidetolerance="10"
     inkscape:pageopacity="0"
     inkscape:pageshadow="2"
     inkscape:window-width="1920"
     inkscape:window-height="1028"
     id="namedview8"
     showgrid="false"
     inkscape:zoom="7.375"
     inkscape:cx="-23.322034"
     inkscape:cy="16"
     inkscape:window-x="-8"
     inkscape:window-y="-8"
     inkscape:window-maximized="1"
     inkscape:current-layer="svg2" />
  <g
     id="g4"
     transform="matrix(0.01120489,0,0,-0.01120487,0.46498876,24.302631)" />
  <path
     d="M 0.02241033,8.43671 Q -0.04481907,8.3022515 0.08963963,8.1229735 L 4.3474996,2.3300536 Q 4.4819584,2.1395707 4.678044,2.1395707 q 0.1960856,0 0.3417492,0.179278 l 4.4707535,5.8041248 q 0.134459,0.179278 0.07283,0.3137365 -0.06163,0.1344585 -0.29693,0.1344585 l -2.9356828,0 q 0,1.0756679 -0.1064465,1.9720575 -0.1064465,0.89639 -0.3361468,1.675129 -0.2297003,0.778738 -0.3977737,1.210126 -0.1680735,0.431388 -0.4818106,1.1485 -0.2801223,0.627473 -0.4089786,0.963619 -0.1288562,0.336146 -0.3025321,0.930004 -0.173676,0.593859 -0.2465078,1.254946 -0.072832,0.661088 -0.072832,1.490249 0,0.82916 0.072832,1.490248 0.072832,0.661087 0.2465078,1.254946 0.1736759,0.593858 0.3025321,0.930004 0.1288563,0.336147 0.4089786,0.963619 0.3137371,0.717112 0.4818106,1.1485 0.1680734,0.431388 0.3977737,1.210126 0.2297003,0.778739 0.3361468,1.675129 0.1064465,0.89639 0.1064465,1.972058 l -3.3614684,0 q 0,-0.829161 -0.072832,-1.490248 Q 2.8236339,27.709093 2.649958,27.115235 2.4762822,26.521377 2.3474259,26.18523 2.2185696,25.849084 1.9384473,25.221611 1.6247102,24.504499 1.4566368,24.073112 1.2885634,23.641724 1.058863,22.862985 0.82916273,22.084246 0.72271623,21.187856 q -0.1064464,-0.896389 -0.1064464,-1.972057 0,-1.075668 0.1064464,-1.972058 0.1064465,-0.89639 0.33614677,-1.675129 0.2297004,-0.778739 0.3977738,-1.210126 0.1680734,-0.431388 0.4818105,-1.1485 0.2801223,-0.627473 0.4089786,-0.963619 0.1288563,-0.336146 0.3025321,-0.930004 0.1736759,-0.593859 0.2465077,-1.254946 0.072832,-0.6610878 0.072832,-1.4902485 l -2.64435507,0 q -0.2353028,0 -0.3025321,-0.1344585 z m 11.20489467,0 q -0.06723,-0.1344585 0.06723,-0.3137365 l 4.257859,-5.7929199 q 0.134459,-0.1904829 0.330545,-0.1904829 0.196085,0 0.341749,0.179278 l 4.470754,5.8041248 q 0.145663,0.179278 0.07843,0.3137365 -0.06723,0.1344585 -0.302532,0.1344585 l -2.935684,0 q 0,1.0756679 -0.106446,1.9720575 -0.106446,0.89639 -0.336147,1.675129 -0.2297,0.778738 -0.397774,1.210126 -0.168073,0.431388 -0.48181,1.1485 -0.280122,0.627473 -0.408979,0.963619 -0.128856,0.336146 -0.302532,0.930004 -0.173676,0.593859 -0.246507,1.254946 -0.07283,0.661088 -0.07283,1.490249 0,0.82916 0.07283,1.490248 0.07283,0.661087 0.246507,1.254946 0.173676,0.593858 0.302532,0.930004 0.128857,0.336147 0.408979,0.963619 0.313737,0.717112 0.48181,1.1485 0.168074,0.431388 0.397774,1.210126 0.229701,0.778739 0.336147,1.675129 0.106446,0.89639 0.106446,1.972058 l -3.361468,0 q 0,-0.829161 -0.07283,-1.490248 -0.07283,-0.661088 -0.246508,-1.254946 -0.173676,-0.593858 -0.302532,-0.930005 -0.128856,-0.336146 -0.408979,-0.963619 -0.313737,-0.717112 -0.48181,-1.148499 -0.168074,-0.431388 -0.397774,-1.210127 -0.2297,-0.778739 -0.336147,-1.675129 -0.106446,-0.896389 -0.106446,-1.972057 0,-1.075668 0.106446,-1.972058 0.106447,-0.89639 0.336147,-1.675129 0.2297,-0.778739 0.397774,-1.210126 0.168073,-0.431388 0.48181,-1.1485 0.280123,-0.627473 0.408979,-0.963619 0.128856,-0.336146 0.302532,-0.930004 0.173676,-0.593859 0.246508,-1.254946 0.07283,-0.6610878 0.07283,-1.4902485 l -2.644354,0 q -0.235303,0 -0.302533,-0.1344585 z m 11.204895,0 Q 22.36497,8.3022515 22.49943,8.1229735 l 4.25786,-5.7929199 q 0.134459,-0.1904829 0.330544,-0.1904829 0.196086,0 0.34175,0.179278 l 4.470753,5.8041248 q 0.145664,0.179278 0.07843,0.3137365 -0.06723,0.1344585 -0.302532,0.1344585 l -2.935683,0 q 0,1.0756679 -0.106446,1.9720575 -0.106447,0.89639 -0.336147,1.675129 -0.2297,0.778738 -0.397774,1.210126 -0.168073,0.431388 -0.48181,1.1485 -0.280123,0.627473 -0.408979,0.963619 -0.128856,0.336146 -0.302532,0.930004 -0.173676,0.593859 -0.246508,1.254946 -0.07283,0.661088 -0.07283,1.490249 0,0.82916 0.07283,1.490248 0.07283,0.661087 0.246508,1.254946 0.173676,0.593858 0.302532,0.930004 0.128856,0.336147 0.408979,0.963619 0.313737,0.717112 0.48181,1.1485 0.168074,0.431388 0.397774,1.210126 0.2297,0.778739 0.336147,1.675129 0.106446,0.89639 0.106446,1.972058 l -3.361468,0 q 0,-0.829161 -0.07283,-1.490248 -0.07283,-0.661088 -0.246507,-1.254946 -0.173676,-0.593858 -0.302533,-0.930005 -0.128856,-0.336146 -0.408978,-0.963619 -0.313737,-0.717112 -0.481811,-1.148499 -0.168073,-0.431388 -0.397773,-1.210127 -0.229701,-0.778739 -0.336147,-1.675129 -0.106447,-0.896389 -0.106447,-1.972057 0,-1.075668 0.106447,-1.972058 0.106446,-0.89639 0.336147,-1.675129 0.2297,-0.778739 0.397773,-1.210126 0.168074,-0.431388 0.481811,-1.1485 0.280122,-0.627473 0.408978,-0.963619 0.128857,-0.336146 0.302533,-0.930004 0.173675,-0.593859 0.246507,-1.254946 0.07283,-0.6610878 0.07283,-1.4902485 l -2.644355,0 q -0.235303,0 -0.302532,-0.1344585 z"
     id="path6"
     inkscape:connector-curvature="0" />
</svg>
