<?xml version="1.0" encoding="UTF-8" standalone="no"?>
<svg
   xmlns:dc="http://purl.org/dc/elements/1.1/"
   xmlns:cc="http://creativecommons.org/ns#"
   xmlns:rdf="http://www.w3.org/1999/02/22-rdf-syntax-ns#"
   xmlns:svg="http://www.w3.org/2000/svg"
   xmlns="http://www.w3.org/2000/svg"
   xmlns:sodipodi="http://sodipodi.sourceforge.net/DTD/sodipodi-0.dtd"
   xmlns:inkscape="http://www.inkscape.org/namespaces/inkscape"
   version="1.1"
   width="32px"
   height="32px"
   id="svg2"
   inkscape:version="0.91 r13725"
   sodipodi:docname="history.svg">
  <metadata
     id="metadata12">
    <rdf:RDF>
      <cc:Work
         rdf:about="">
        <dc:format>image/svg+xml</dc:format>
        <dc:type
           rdf:resource="http://purl.org/dc/dcmitype/StillImage" />
      </cc:Work>
    </rdf:RDF>
  </metadata>
  <defs
     id="defs10" />
  <sodipodi:namedview
     pagecolor="#ffffff"
     bordercolor="#666666"
     borderopacity="1"
     objecttolerance="10"
     gridtolerance="10"
     guidetolerance="10"
     inkscape:pageopacity="0"
     inkscape:pageshadow="2"
     inkscape:window-width="1920"
     inkscape:window-height="1028"
     id="namedview8"
     showgrid="false"
     inkscape:zoom="7.375"
     inkscape:cx="-0.20338983"
     inkscape:cy="16"
     inkscape:window-x="-8"
     inkscape:window-y="-8"
     inkscape:window-maximized="1"
     inkscape:current-layer="svg2" />
  <g
     id="g4"
     transform="matrix(0.0132297,0,0,-0.01322959,-1.2786506,22.717469)" />
  <path
     d="m 0.124359,15.875506 q 0,-3.228019 1.2568216,-6.1649883 Q 2.6380021,6.7735497 4.7679839,4.6435863 6.897966,2.5136217 9.834959,1.2568111 12.771953,3.6720866e-7 16,3.6720866e-7 q 3.228047,0 6.16504,1.26342553279134 2.936994,1.2634254 5.066976,3.39339 2.129981,2.1299633 3.386803,5.0669314 1.256822,2.9369697 1.256822,6.1649877 0,0.33074 -0.01985,0.641636 -0.01984,0.310896 -0.0463,0.522569 -0.02646,0.211673 -0.09261,0.681324 -0.06615,0.46965 -0.105837,0.826849 l -4.021829,0 0.132297,-0.826849 q 0,0 0.105837,-0.694553 0.105838,-0.694555 0.05292,-0.50934 -0.05292,0.185215 0.02646,-0.641636 0,-2.421014 -0.945923,-4.630355 Q 26.014882,9.0490384 24.420703,7.4482585 22.826524,5.8474787 20.623779,4.9015632 18.421034,3.9556479 15.999999,3.9556479 q -2.421035,0 -4.623781,0.9459153 -2.202744,0.9459155 -3.796923,2.5400805 -1.5941786,1.5941651 -2.5401022,3.7968923 -0.9459236,2.202726 -0.9459236,4.62374 0,2.421016 0.9393088,4.623742 0.9393087,2.202726 2.533488,3.796892 1.594179,1.594165 3.803539,2.540081 2.20936,0.945915 4.643625,0.945915 1.931536,-0.01323 3.393418,-0.463036 1.461882,-0.449806 2.996527,-1.428795 L 20.39226,23.072403 q -0.158756,-0.224904 -0.07938,-0.383659 0.07938,-0.158755 0.357202,-0.145526 l 9.049115,0 q 0.264594,0 0.403506,0.185214 0.138912,0.185215 0.05953,0.449808 l -2.923764,8.519854 q -0.07938,0.264592 -0.251364,0.297666 -0.171986,0.03307 -0.330743,-0.191829 l -1.957995,-2.712067 -0.06615,0.05292 q -1.931536,1.256812 -4.246734,1.924906 -2.315197,0.668094 -4.39226,0.668094 -3.400034,0 -6.376716,-1.256811 Q 6.659831,29.22416 4.5827681,27.087582 2.5057051,24.951004 1.3150321,22.033879 0.124359,19.116756 0.124359,15.875506 Z m 9.27402,0.67471 0,-1.270042 q 0,-0.277821 0.191831,-0.48288 0.19183,-0.205058 0.469654,-0.205058 l 3.651398,0 q 0.383661,-0.555643 0.998842,-0.945915 0.615181,-0.390273 1.303126,-0.390273 0.251364,0 0.754092,0.132296 l 4.273194,-4.2863873 q 0.198445,-0.1852142 0.476269,-0.1852142 0.277824,0 0.46304,0.1852142 l 0.912849,0.9260723 q 0.198445,0.185214 0.198445,0.463036 0,0.277821 -0.198445,0.476265 l -4.312883,4.326074 q 0.07938,0.396887 0.07938,0.63502 0,1.098057 -0.773938,1.871988 -0.773937,0.77393 -1.872002,0.77393 -0.687945,0 -1.303126,-0.390272 -0.615181,-0.390273 -0.998842,-0.945916 l -3.651398,0 q -0.277824,0 -0.469654,-0.205058 Q 9.39838,16.828037 9.39838,16.550216 Z"
     id="path6"
     inkscape:connector-curvature="0" />
</svg>
