<?xml version="1.0" encoding="UTF-8" standalone="no"?>
<svg
   xmlns:dc="http://purl.org/dc/elements/1.1/"
   xmlns:cc="http://creativecommons.org/ns#"
   xmlns:rdf="http://www.w3.org/1999/02/22-rdf-syntax-ns#"
   xmlns:svg="http://www.w3.org/2000/svg"
   xmlns="http://www.w3.org/2000/svg"
   xmlns:sodipodi="http://sodipodi.sourceforge.net/DTD/sodipodi-0.dtd"
   xmlns:inkscape="http://www.inkscape.org/namespaces/inkscape"
   version="1.1"
   width="32px"
   height="32px"
   id="svg2"
   inkscape:version="0.91 r13725"
   sodipodi:docname="hockey.svg">
  <metadata
     id="metadata12">
    <rdf:RDF>
      <cc:Work
         rdf:about="">
        <dc:format>image/svg+xml</dc:format>
        <dc:type
           rdf:resource="http://purl.org/dc/dcmitype/StillImage" />
      </cc:Work>
    </rdf:RDF>
  </metadata>
  <defs
     id="defs10" />
  <sodipodi:namedview
     pagecolor="#ffffff"
     bordercolor="#666666"
     borderopacity="1"
     objecttolerance="10"
     gridtolerance="10"
     guidetolerance="10"
     inkscape:pageopacity="0"
     inkscape:pageshadow="2"
     inkscape:window-width="1920"
     inkscape:window-height="1028"
     id="namedview8"
     showgrid="false"
     inkscape:zoom="7.375"
     inkscape:cx="-0.20338983"
     inkscape:cy="16"
     inkscape:window-x="-8"
     inkscape:window-y="-8"
     inkscape:window-maximized="1"
     inkscape:current-layer="svg2" />
  <g
     id="g4"
     transform="matrix(0.01336591,0,0,-0.01336582,-0.20751331,22.712327)" />
  <path
     d="m 0.05613669,27.68935 q 0,-0.494536 0.1737569,-0.788584 0.1737568,-0.294048 0.5012218,-0.374243 0.32746481,-0.08019 0.70171051,-0.06015 0.3742456,0.02005 0.8687844,0.167073 0.4945389,0.147024 0.9021993,0.287365 0.4076602,0.140341 0.9088821,0.32078 0.5012218,0.180438 0.7952719,0.260633 2.2588391,0.588096 3.6622611,0.674974 1.403421,0.08688 2.3791323,-0.233902 0.641564,-0.173756 1.550446,-1.029168 0.908882,-0.855412 1.496983,-1.63063 l 0.5881,-0.761851 15.223777,-23.77779054 q 0.01337,-0.026732 0.04678,-0.060146 l 0.133659,-0.1336581 q 0,0 0.200488,-0.1804386 0.20049,-0.1804385 0.24727,-0.1670727 0.04678,0.013366 0.29405,-0.1269752 0.24727,-0.1403411 0.314099,-0.020049 0.06683,0.1202924 0.314099,0.1136095 0.374246,0.2405847 0.49454,0.3942916 0.12029,0.1537069 0.08019,0.45443784 -0.0401,0.3007309 -0.347514,0.8219978 L 17.057581,26.392865 q -0.106926,0.173756 -0.294051,0.461121 -0.187123,0.287365 -0.775223,1.062582 -0.5881,0.775218 -1.169518,1.416777 -0.581417,0.641559 -1.376689,1.296484 -0.795272,0.654925 -1.503666,0.922242 -1.149468,0.441072 -2.5729383,0.447755 -1.42347,0.0067 -2.726646,-0.240585 Q 5.3356729,31.511973 3.0901993,30.950609 1.5263873,30.563 0.79126199,29.854612 0.05613669,29.146224 0.05613669,27.68935 Z M 3.892154,20.431709 q 0.026733,0.08019 0.093562,0.213853 0.06683,0.133659 0.3608798,0.467804 0.2940501,0.334146 0.7083934,0.588096 0.4143434,0.253951 1.2096154,0.467804 0.795272,0.213853 1.770984,0.213853 0.975711,0 1.737569,-0.200488 0.7618574,-0.200487 1.1494684,-0.487852 0.387612,-0.287365 0.628198,-0.57473 0.240587,-0.287365 0.307417,-0.487852 l 0.05346,-0.200488 0,-0.588096 q 0,-0.868778 -1.176201,-1.476922 -1.1762004,-0.608145 -2.8335744,-0.608145 -1.657373,0 -2.8335738,0.608145 -1.1762005,0.608144 -1.1762005,1.476922 l 0,0.588096 z"
     id="path6"
     inkscape:connector-curvature="0" />
</svg>
