<?xml version="1.0" encoding="UTF-8" standalone="no"?>
<!-- Created with Inkscape (http://www.inkscape.org/) -->

<svg
   xmlns:dc="http://purl.org/dc/elements/1.1/"
   xmlns:cc="http://creativecommons.org/ns#"
   xmlns:rdf="http://www.w3.org/1999/02/22-rdf-syntax-ns#"
   xmlns:svg="http://www.w3.org/2000/svg"
   xmlns="http://www.w3.org/2000/svg"
   xmlns:sodipodi="http://sodipodi.sourceforge.net/DTD/sodipodi-0.dtd"
   xmlns:inkscape="http://www.inkscape.org/namespaces/inkscape"
   width="32px"
   height="32px"
   id="svg3144"
   version="1.1"
   inkscape:version="0.91 r13725"
   sodipodi:docname="hourglass.svg">
  <defs
     id="defs3146" />
  <sodipodi:namedview
     id="base"
     pagecolor="#ffffff"
     bordercolor="#666666"
     borderopacity="1.0"
     inkscape:pageopacity="0.0"
     inkscape:pageshadow="2"
     inkscape:zoom="11.197802"
     inkscape:cx="-9.8979396"
     inkscape:cy="16"
     inkscape:current-layer="layer1"
     showgrid="true"
     inkscape:grid-bbox="true"
     inkscape:document-units="px"
     inkscape:window-width="1920"
     inkscape:window-height="1028"
     inkscape:window-x="-8"
     inkscape:window-y="-8"
     inkscape:window-maximized="1" />
  <metadata
     id="metadata3149">
    <rdf:RDF>
      <cc:Work
         rdf:about="">
        <dc:format>image/svg+xml</dc:format>
        <dc:type
           rdf:resource="http://purl.org/dc/dcmitype/StillImage" />
        <dc:title />
      </cc:Work>
    </rdf:RDF>
  </metadata>
  <g
     id="layer1"
     inkscape:label="Layer 1"
     inkscape:groupmode="layer">
    <path
       id="rect3058-0-8"
       style="fill:#00ff00;fill-opacity:1"
       d="m 26.202385,30.823121 1.763307,0 0,-1.335989 -1.763307,0 z m -22.2023849,-0.03187 1.7925264,0 0,-1.335989 -1.7925265,0 z M 4.0024001,32 l 23.9627759,0 0,-1.208749 -23.962776,0 z M 26.401145,1.1768819 l 1.598855,0 0,1.1110685 -1.598855,0 z m -22.3860247,0.031867 1.5696458,0 0,1.1335619 -1.5696458,0 z m 0.0024,-1.20874875 23.9819397,0 0,1.20874875 -23.9819397,0 z m -0.0024,29.50870285 1.7962107,0 0,-1.76411 0.1032027,-1.843577 0.1651596,-1.684656 0.3096905,-1.287322 0.2890503,-0.715174 0.3509839,-0.667508 0.392276,-0.572148 0.433569,-0.588027 0.45421,-0.540361 0.474863,-0.476788 0.495501,-0.492681 0.474863,-0.445 0.412929,-0.397321 0.392276,-0.365534 0.309691,-0.381441 0.309691,-0.365534 0.227105,-0.317853 0.206464,-0.365534 0.144519,-0.349654 0.04128,-0.365534 -0.04128,-0.445001 -0.185812,-0.460891 -0.28905,-0.476788 L 10.890236,13.663479 10.456667,13.170798 9.9818049,12.694011 9.465661,12.217223 8.8875609,11.708649 8.495285,11.327222 8.061728,10.961688 7.6694509,10.58026 7.2771749,10.214726 6.9261909,9.8332858 6.5958479,9.4200718 6.3068096,9.0545379 6.1003452,8.6413239 5.6667759,7.3222151 5.4809639,5.7170258 l 0,-1.732323 0.1032026,-1.652856 -1.5691058,0 0,27.1768592 z m 8.0078917,-17.291483 0.412917,0.397321 0.350984,0.397334 0.330343,0.429107 0.309691,0.413214 0.206452,0.429108 0.185812,0.413214 0.1032,0.429107 0.02064,0.429108 -0.1032,0.508574 -0.12388,0.460894 -0.247758,0.476787 -0.30969,0.445001 -0.350984,0.445001 -0.371624,0.413214 -0.43357,0.445001 -0.454209,0.413214 -0.185812,0.19072 -0.206465,0.174827 -0.185812,0.15892 -0.206464,0.206614 2.25042,1.891256 0.30969,-0.429107 0.371636,-0.445001 0.330332,-0.349654 0.309691,-0.34964 0.330343,-0.301961 0.30969,-0.254294 0.309691,-0.222493 0.247757,-0.190721 0.16516,-0.07947 0.144531,-0.03173 0.16516,0 0.12388,0 0.227104,0.0636 0.330344,0.158934 0.371624,0.238387 0.433569,0.365547 0.516155,0.508561 0.598741,0.683401 0.619382,0.890002 0.701966,1.112508 0.08256,0.143027 0.43357,1.001255 0.247745,1.048935 0.06192,0.969469 -0.02064,0.794641 -9.270092,0 -0.02064,-0.301961 0,-0.34964 0,-0.333761 0.02064,-0.381427 0.08256,-0.556254 0.1032,-0.556241 0.165172,-0.508574 0.185812,-0.524468 0.206464,-0.476788 0.247745,-0.460894 0.268411,-0.445 0.289037,-0.429108 -2.25042,-1.891256 -0.30969,0.34964 -0.350984,0.365534 -0.3509831,0.397321 -0.289051,0.397334 -0.30969,0.429107 -0.247746,0.445001 -0.268409,0.476788 -0.185812,0.476787 -0.289039,1.191962 -0.12388,1.605189 -0.06192,1.780003 0,1.700537 16.3104151,0 -0.04128,-1.700537 -0.06192,-1.780003 -0.144526,-1.605189 -0.247745,-1.191962 -0.289049,-0.619828 -0.289039,-0.572147 -0.392276,-0.540361 -0.392277,-0.524468 -0.43357,-0.508574 -0.454221,-0.429107 -0.433557,-0.445001 -0.41293,-0.429107 -0.454209,-0.413214 -0.433569,-0.445001 -0.392276,-0.413214 -0.371624,-0.445001 -0.289051,-0.445001 -0.247757,-0.476787 -0.123867,-0.460894 -0.08256,-0.508574 0.04128,-0.619828 0.185812,-0.572134 0.330332,-0.603935 0.433569,-0.556254 0.495503,-0.572148 0.557448,-0.572134 0.59874,-0.540361 0.598729,-0.556254 0.392276,-0.349641 0.392278,-0.349654 0.392276,-0.34964 0.330342,-0.365534 0.350984,-0.3337472 0.268398,-0.3496539 0.247757,-0.3337472 0.185812,-0.3019606 0.350984,-1.1442952 0.144519,-1.4780291 0,-1.6528694 -0.1032,-1.6210693 -16.7439851,0 -0.123879,1.6210693 0,1.6528694 0.144531,1.4780292 0.350985,1.1442951 0.206452,0.3019606 0.268397,0.3337472 0.268409,0.3496539 0.330332,0.3337472 0.350983,0.365534 0.371636,0.34964 0.3922771,0.349654 0.350983,0.349641 0.185812,0.14304 0.185812,0.143027 0.165172,0.19072 0.165172,0.127201 0.165159,0.174813 0.165172,0.158934 0.165172,0.158933 0.16517,0.158921 2.08525,-1.605176 -0.185812,-0.174827 -0.185812,-0.14304 -0.165172,-0.143027 -0.144519,-0.127201 -0.165172,-0.095332 -0.12388,-0.095333 -0.12388,-0.095334 -0.1032,-0.095333 0.289037,-0.015867 0.330344,-0.031733 0.392276,-0.031733 0.392276,-0.015867 0.412918,-0.015867 0.433569,0 0.454209,-0.015867 0.454223,0 0.454209,0 0.454222,0 0.433557,0 0.412929,0 0.412918,0.015867 0.392276,0.015867 0.350984,0.015867 0.30969,0.031733 -0.433569,0.3814273 -0.433569,0.3814272 -0.371624,0.349641 -0.412918,0.38144 -0.392276,0.365534 -0.350984,0.381428 -0.350984,0.333747 -0.30969,0.38144 -0.04128,0.09533 -0.06192,0.0636 -0.02064,0.04773 -0.06192,0.03174 -0.12388,-0.09533 -0.1032,-0.143026 -0.1032,-0.143041 -0.1032,-0.1112 -0.08256,-0.14304 -0.206464,-0.238387 -0.185812,-0.2384 -0.185824,-0.2066 -0.206454,-0.190721 -0.14453,-0.190707 -0.16516,-0.174827 -0.185824,-0.158933 -0.144519,-0.143027 -2.085249,1.605176 z m 15.966044,17.291483 -1.796211,0 0,-1.76411 -0.1032,-1.843577 -0.165158,-1.684656 -0.309703,-1.287322 -0.289039,-0.715174 -0.350984,-0.667508 -0.392276,-0.572148 -0.433569,-0.588027 -0.454209,-0.540361 -0.474863,-0.476788 -0.495503,-0.492681 -0.474862,-0.445 -0.412928,-0.397321 -0.392278,-0.365534 -0.30969,-0.381441 -0.309691,-0.365534 -0.227104,-0.317853 -0.206465,-0.365534 -0.144519,-0.349654 -0.04128,-0.365534 0.04128,-0.445001 0.185812,-0.460894 0.289051,-0.476788 0.392276,-0.476787 0.433569,-0.492681 0.474863,-0.476787 0.516142,-0.476788 0.578088,-0.508574 0.392278,-0.381427 0.433569,-0.365534 0.392276,-0.381427 0.392276,-0.365534 0.350984,-0.3814408 0.330343,-0.4132141 0.289038,-0.3655339 0.206464,-0.413214 0.43357,-1.3191088 0.185812,-1.6051893 0,-1.732323 -0.1032,-1.652856 1.569105,0 0,27.1768589 z"
       inkscape:connector-curvature="0" />
  </g>
</svg>
