<?xml version="1.0" encoding="UTF-8" standalone="no"?>
<svg
   xmlns:dc="http://purl.org/dc/elements/1.1/"
   xmlns:cc="http://creativecommons.org/ns#"
   xmlns:rdf="http://www.w3.org/1999/02/22-rdf-syntax-ns#"
   xmlns:svg="http://www.w3.org/2000/svg"
   xmlns="http://www.w3.org/2000/svg"
   xmlns:sodipodi="http://sodipodi.sourceforge.net/DTD/sodipodi-0.dtd"
   xmlns:inkscape="http://www.inkscape.org/namespaces/inkscape"
   version="1.1"
   width="32px"
   height="32px"
   id="svg2"
   inkscape:version="0.91 r13725"
   sodipodi:docname="inbox_in.svg">
  <metadata
     id="metadata12">
    <rdf:RDF>
      <cc:Work
         rdf:about="">
        <dc:format>image/svg+xml</dc:format>
        <dc:type
           rdf:resource="http://purl.org/dc/dcmitype/StillImage" />
      </cc:Work>
    </rdf:RDF>
  </metadata>
  <defs
     id="defs10" />
  <sodipodi:namedview
     pagecolor="#ffffff"
     bordercolor="#666666"
     borderopacity="1"
     objecttolerance="10"
     gridtolerance="10"
     guidetolerance="10"
     inkscape:pageopacity="0"
     inkscape:pageshadow="2"
     inkscape:window-width="1920"
     inkscape:window-height="1028"
     id="namedview8"
     showgrid="false"
     inkscape:zoom="7.375"
     inkscape:cx="-0.20338983"
     inkscape:cy="16"
     inkscape:window-x="-8"
     inkscape:window-y="-8"
     inkscape:window-maximized="1"
     inkscape:current-layer="svg2" />
  <g
     id="g4"
     transform="matrix(0.01230769,0,0,-0.01230769,-0.92307692,25.307692)" />
  <path
     d="M 1.230771,31.384615 Q 1.2553864,18.276923 1.2676941,18.227692 L 5.8584633,4.2953846 q 0.073846,-0.2461538 0.3138462,-0.4246154 0.24,-0.1784615 0.4984615,-0.1784615 l 5.636923,0 0,3.6923077 -3.766154,0 -3.7292305,11.0769226 5.0338465,0 2.461538,6.153847 7.384615,0 2.461539,-6.153847 5.046154,0 -3.741539,-11.0769226 -3.766154,0 0,-3.6923077 5.636924,0 q 0.270769,0 0.504615,0.1476923 0.233846,0.1476923 0.307692,0.3938462 l 4.590769,13.9938458 0.03692,13.156923 q 0,0.258462 -0.178462,0.436923 Q 30.412309,32 30.153848,32 L 1.8461556,32 Q 1.5876941,32 1.4092325,31.821538 1.230771,31.643077 1.230771,31.384615 Z M 9.889233,8.7569231 q 0.04308,-0.1415385 0.166153,-0.1415385 l 3.483077,0 0,-8 q 0,-0.2461538 0.184616,-0.4307692 Q 13.907694,0 14.153848,0 l 3.692308,0 q 0.258461,0 0.436923,0.1846154 0.178461,0.1846154 0.178461,0.4307692 l 0,8 3.507693,0 q 0.135384,0 0.178461,0.1353846 0.04308,0.1353846 -0.04308,0.2461539 l -5.870769,7.0523079 q -0.07385,0.09846 -0.172308,0.09846 -0.135384,0 -0.233846,-0.135384 L 9.932309,9.0092308 Q 9.846159,8.8984615 9.889229,8.7569231 Z"
     id="path6"
     inkscape:connector-curvature="0" />
</svg>
