<?xml version="1.0" encoding="UTF-8" standalone="no"?>
<svg
   xmlns:dc="http://purl.org/dc/elements/1.1/"
   xmlns:cc="http://creativecommons.org/ns#"
   xmlns:rdf="http://www.w3.org/1999/02/22-rdf-syntax-ns#"
   xmlns:svg="http://www.w3.org/2000/svg"
   xmlns="http://www.w3.org/2000/svg"
   xmlns:sodipodi="http://sodipodi.sourceforge.net/DTD/sodipodi-0.dtd"
   xmlns:inkscape="http://www.inkscape.org/namespaces/inkscape"
   version="1.1"
   width="32px"
   height="32px"
   id="svg2"
   inkscape:version="0.91 r13725"
   sodipodi:docname="inbox_plus.svg">
  <metadata
     id="metadata12">
    <rdf:RDF>
      <cc:Work
         rdf:about="">
        <dc:format>image/svg+xml</dc:format>
        <dc:type
           rdf:resource="http://purl.org/dc/dcmitype/StillImage" />
      </cc:Work>
    </rdf:RDF>
  </metadata>
  <defs
     id="defs10" />
  <sodipodi:namedview
     pagecolor="#ffffff"
     bordercolor="#666666"
     borderopacity="1"
     objecttolerance="10"
     gridtolerance="10"
     guidetolerance="10"
     inkscape:pageopacity="0"
     inkscape:pageshadow="2"
     inkscape:window-width="1920"
     inkscape:window-height="1028"
     id="namedview8"
     showgrid="false"
     inkscape:zoom="7.375"
     inkscape:cx="-23.322034"
     inkscape:cy="16"
     inkscape:window-x="-8"
     inkscape:window-y="-8"
     inkscape:window-maximized="1"
     inkscape:current-layer="svg2" />
  <g
     id="g4"
     transform="matrix(0.01185185,0,0,-0.01185185,-0.46296296,26.537037)" />
  <path
     d="M 0,31.407407 Q 0,31.656296 0.1718519,31.828148 0.3437037,32 0.5925926,32 l 27.2592594,0 q 0.248889,0 0.420741,-0.171852 0.171851,-0.171852 0.171851,-0.420741 -0.0237,-12.622222 -0.03556,-12.669629 l -1.481482,-4.515556 -3.52,0 1.6,4.740741 -4.859259,0 -2.37037,5.925926 -7.111111,0 -2.370371,-5.925926 -4.8474071,0 3.5911111,-10.6666667 10.737778,0 0,-3.5555556 -12.5392595,0 q -0.2488889,0 -0.48,0.1718519 Q 4.5274074,5.0844444 4.4562963,5.3214815 L 0.0355556,18.737778 Z M 20.148148,5.9259259 q 0,-1.7303703 0.8,-3.0933333 0.8,-1.362963 2.145185,-2.0977778 Q 24.438519,0 26.074074,0 q 1.611852,0 2.974815,0.7940741 1.362963,0.794074 2.157037,2.157037 Q 32,4.3140741 32,5.9259259 q 0,1.6118519 -0.794074,2.9748148 -0.794074,1.3629633 -2.157037,2.1570373 -1.362963,0.794074 -2.974815,0.794074 -1.659259,0 -2.986667,-0.675556 Q 21.76,10.500741 20.954074,9.1377778 20.148148,7.7748148 20.148148,5.9259259 Z m 2.370371,0.5925926 q 0,0.2488889 0.177777,0.4207408 0.177778,0.1718518 0.414815,0.1718518 l 1.777778,0 0,1.7777778 q 0,0.2488889 0.177778,0.4207407 0.177777,0.1718519 0.414814,0.1718519 l 1.185186,0 q 0.248889,0 0.42074,-0.1718519 0.171852,-0.1718518 0.171852,-0.4207407 l 0,-1.7777778 1.777778,0 q 0.248889,0 0.420741,-0.1718518 0.171852,-0.1718519 0.171852,-0.4207408 l 0,-1.1851852 q 0,-0.2488889 -0.171852,-0.4207407 -0.171852,-0.1718519 -0.420741,-0.1718519 l -1.777778,0 0,-1.7777777 q 0,-0.2488889 -0.171852,-0.4207408 -0.171851,-0.1718518 -0.42074,-0.1718518 l -1.185186,0 q -0.237037,0 -0.414814,0.1718518 -0.177778,0.1718519 -0.177778,0.4207408 l 0,1.7777777 -1.777778,0 q -0.237037,0 -0.414815,0.1718519 -0.177777,0.1718518 -0.177777,0.4207407 l 0,1.1851852 z"
     id="path6"
     inkscape:connector-curvature="0" />
</svg>
