<?xml version="1.0" encoding="UTF-8" standalone="no"?>
<svg
   xmlns:dc="http://purl.org/dc/elements/1.1/"
   xmlns:cc="http://creativecommons.org/ns#"
   xmlns:rdf="http://www.w3.org/1999/02/22-rdf-syntax-ns#"
   xmlns:svg="http://www.w3.org/2000/svg"
   xmlns="http://www.w3.org/2000/svg"
   xmlns:sodipodi="http://sodipodi.sourceforge.net/DTD/sodipodi-0.dtd"
   xmlns:inkscape="http://www.inkscape.org/namespaces/inkscape"
   version="1.1"
   width="32px"
   height="32px"
   id="svg2"
   inkscape:version="0.91 r13725"
   sodipodi:docname="inbox.svg">
  <metadata
     id="metadata12">
    <rdf:RDF>
      <cc:Work
         rdf:about="">
        <dc:format>image/svg+xml</dc:format>
        <dc:type
           rdf:resource="http://purl.org/dc/dcmitype/StillImage" />
      </cc:Work>
    </rdf:RDF>
  </metadata>
  <defs
     id="defs10" />
  <sodipodi:namedview
     pagecolor="#ffffff"
     bordercolor="#666666"
     borderopacity="1"
     objecttolerance="10"
     gridtolerance="10"
     guidetolerance="10"
     inkscape:pageopacity="0"
     inkscape:pageshadow="2"
     inkscape:window-width="1920"
     inkscape:window-height="1028"
     id="namedview8"
     showgrid="false"
     inkscape:zoom="7.375"
     inkscape:cx="-23.322034"
     inkscape:cy="16"
     inkscape:window-x="-8"
     inkscape:window-y="-8"
     inkscape:window-maximized="1"
     inkscape:current-layer="svg2" />
  <g
     id="g4"
     transform="matrix(0.01333333,0,0,-0.01333333,-1.3333333,21.5)" />
  <path
     d="m 0,30.666666 q 0.0266667,-14.2 0.04,-14.253333 L 5.0133333,1.32 q 0.08,-0.2666667 0.34,-0.45999995 0.26,-0.1933334 0.54,-0.1933334 l 20.2133337,0 q 0.293333,0 0.546666,0.16 0.253334,0.16 0.333334,0.42666675 L 31.96,16.413333 32,30.666666 q 0,0.28 -0.193333,0.473334 -0.193334,0.193333 -0.473334,0.193333 l -30.6666663,0 q -0.28,0 -0.4733334,-0.193333 Q 0,30.946666 0,30.666666 Z m 3.88,-14 5.453333,0 L 12,23.333333 l 8,0 2.666667,-6.666667 5.466666,0 L 24.08,4.6666667 l -16.16,0 z"
     id="path6"
     inkscape:connector-curvature="0" />
</svg>
