<?xml version="1.0" encoding="UTF-8" standalone="no"?>
<svg
   xmlns:dc="http://purl.org/dc/elements/1.1/"
   xmlns:cc="http://creativecommons.org/ns#"
   xmlns:rdf="http://www.w3.org/1999/02/22-rdf-syntax-ns#"
   xmlns:svg="http://www.w3.org/2000/svg"
   xmlns="http://www.w3.org/2000/svg"
   xmlns:sodipodi="http://sodipodi.sourceforge.net/DTD/sodipodi-0.dtd"
   xmlns:inkscape="http://www.inkscape.org/namespaces/inkscape"
   version="1.1"
   width="32px"
   height="32px"
   id="svg2"
   inkscape:version="0.91 r13725"
   sodipodi:docname="inbox_lock.svg">
  <metadata
     id="metadata12">
    <rdf:RDF>
      <cc:Work
         rdf:about="">
        <dc:format>image/svg+xml</dc:format>
        <dc:type
           rdf:resource="http://purl.org/dc/dcmitype/StillImage" />
      </cc:Work>
    </rdf:RDF>
  </metadata>
  <defs
     id="defs10" />
  <sodipodi:namedview
     pagecolor="#ffffff"
     bordercolor="#666666"
     borderopacity="1"
     objecttolerance="10"
     gridtolerance="10"
     guidetolerance="10"
     inkscape:pageopacity="0"
     inkscape:pageshadow="2"
     inkscape:window-width="1920"
     inkscape:window-height="1028"
     id="namedview8"
     showgrid="false"
     inkscape:zoom="7.375"
     inkscape:cx="-0.20338983"
     inkscape:cy="16"
     inkscape:window-x="-8"
     inkscape:window-y="-8"
     inkscape:window-maximized="1"
     inkscape:current-layer="svg2" />
  <g
     id="g4"
     transform="matrix(0.01142857,0,0,-0.01142857,-0.42857143,27.714286)" />
  <path
     d="M 1.142858,31.428571 Q 1.1657151,19.257143 1.1771437,19.211429 L 5.4400009,6.2742857 Q 5.5085723,6.0457143 5.7314294,5.88 5.9542866,5.7142857 6.1942866,5.7142857 l 12.0914284,0 0,3.4285714 -10.3542856,0 -3.4628571,10.2857139 4.6742857,0 2.285714,5.714286 6.857143,0 2.285714,-5.714286 4.685715,0 -1.542857,-4.571428 3.394285,0 1.428572,4.354286 0.03429,12.217142 q 0,0.24 -0.165714,0.405715 Q 28.240001,32 28.000001,32 L 1.7142866,32 q -0.24,0 -0.4057143,-0.165714 Q 1.142858,31.668571 1.142858,31.428571 Z m 20.571429,-20.182857 0,-6.4685711 q 0,-0.068572 0.05714,-0.1371429 0.05714,-0.068571 0.137143,-0.068571 l 0.948572,0 0,-2.9142857 q 0,-0.64 0.497143,-1.1485715 Q 23.851429,0 24.480001,0 l 3.577143,0 q 0.628571,0 1.142857,0.5142857 0.514286,0.5142857 0.514286,1.1428572 l 0,2.9142857 0.925714,0 q 0.08,0 0.148571,0.068571 0.06857,0.068572 0.06857,0.1371433 l 0,6.4685711 q 0,0.06857 -0.06857,0.125715 -0.06857,0.05714 -0.148571,0.05714 l -8.731429,0 q -0.08,0 -0.137143,-0.05714 -0.05714,-0.05714 -0.05714,-0.125715 z m 2.285714,-6.6742854 4.571428,0 0,-2.9142857 q 0,-0.2857143 -0.125714,-0.4 -0.125714,-0.1142858 -0.411428,-0.1142858 l -3.542858,0 q -0.285714,0 -0.388571,0.1085715 Q 24.000001,1.36 24.000001,1.6571429 l 0,2.9142857 z"
     id="path6"
     inkscape:connector-curvature="0" />
</svg>
