<?xml version="1.0" encoding="UTF-8" standalone="no"?>
<svg
   xmlns:dc="http://purl.org/dc/elements/1.1/"
   xmlns:cc="http://creativecommons.org/ns#"
   xmlns:rdf="http://www.w3.org/1999/02/22-rdf-syntax-ns#"
   xmlns:svg="http://www.w3.org/2000/svg"
   xmlns="http://www.w3.org/2000/svg"
   xmlns:sodipodi="http://sodipodi.sourceforge.net/DTD/sodipodi-0.dtd"
   xmlns:inkscape="http://www.inkscape.org/namespaces/inkscape"
   version="1.1"
   width="32px"
   height="32px"
   id="svg2"
   inkscape:version="0.91 r13725"
   sodipodi:docname="ipad.svg">
  <metadata
     id="metadata12">
    <rdf:RDF>
      <cc:Work
         rdf:about="">
        <dc:format>image/svg+xml</dc:format>
        <dc:type
           rdf:resource="http://purl.org/dc/dcmitype/StillImage" />
      </cc:Work>
    </rdf:RDF>
  </metadata>
  <defs
     id="defs10" />
  <sodipodi:namedview
     pagecolor="#ffffff"
     bordercolor="#666666"
     borderopacity="1"
     objecttolerance="10"
     gridtolerance="10"
     guidetolerance="10"
     inkscape:pageopacity="0"
     inkscape:pageshadow="2"
     inkscape:window-width="1920"
     inkscape:window-height="1028"
     id="namedview8"
     showgrid="false"
     inkscape:zoom="7.375"
     inkscape:cx="-23.322034"
     inkscape:cy="16"
     inkscape:window-x="-8"
     inkscape:window-y="-8"
     inkscape:window-maximized="1"
     inkscape:current-layer="svg2" />
  <g
     id="g4"
     transform="matrix(0.01185185,0,0,-0.01185185,-2.1111111,25.351852)" />
  <path
     d="m 2.962963,29.62963 0,-27.2592596 q 0,-0.9718519 0.6992593,-1.6711111 Q 4.3614815,0 5.3333334,0 L 26.666667,0 q 0.971852,0 1.671111,0.6992593 0.699259,0.6992592 0.699259,1.6711111 l 0,27.2592596 q 0,0.971851 -0.699259,1.671111 Q 27.638519,32 26.666667,32 L 5.3333334,32 Q 4.3614815,32 3.6622223,31.300741 2.962963,30.601481 2.962963,29.62963 Z m 3.5555556,-1.185186 18.9629634,0 0,-24.8888884 -18.9629634,0 0,24.8888884 z m 8.0948144,1.777778 q 0,0.580741 0.402963,0.98963 0.402963,0.408889 0.983704,0.408889 0.580741,0 0.98963,-0.408889 0.408889,-0.408889 0.408889,-0.98963 0,-0.580741 -0.408889,-0.983703 Q 16.580741,28.835556 16,28.835556 q -0.580741,0 -0.983704,0.402963 -0.402963,0.402962 -0.402963,0.983703 z"
     id="path6"
     inkscape:connector-curvature="0" />
</svg>
