<?xml version="1.0" encoding="UTF-8" standalone="no"?>
<svg
   xmlns:dc="http://purl.org/dc/elements/1.1/"
   xmlns:cc="http://creativecommons.org/ns#"
   xmlns:rdf="http://www.w3.org/1999/02/22-rdf-syntax-ns#"
   xmlns:svg="http://www.w3.org/2000/svg"
   xmlns="http://www.w3.org/2000/svg"
   xmlns:sodipodi="http://sodipodi.sourceforge.net/DTD/sodipodi-0.dtd"
   xmlns:inkscape="http://www.inkscape.org/namespaces/inkscape"
   version="1.1"
   width="32px"
   height="32px"
   id="svg2"
   inkscape:version="0.91 r13725"
   sodipodi:docname="iphone_transfer.svg">
  <metadata
     id="metadata12">
    <rdf:RDF>
      <cc:Work
         rdf:about="">
        <dc:format>image/svg+xml</dc:format>
        <dc:type
           rdf:resource="http://purl.org/dc/dcmitype/StillImage" />
      </cc:Work>
    </rdf:RDF>
  </metadata>
  <defs
     id="defs10" />
  <sodipodi:namedview
     pagecolor="#ffffff"
     bordercolor="#666666"
     borderopacity="1"
     objecttolerance="10"
     gridtolerance="10"
     guidetolerance="10"
     inkscape:pageopacity="0"
     inkscape:pageshadow="2"
     inkscape:window-width="1920"
     inkscape:window-height="1028"
     id="namedview8"
     showgrid="false"
     inkscape:zoom="7.375"
     inkscape:cx="-23.322034"
     inkscape:cy="16"
     inkscape:window-x="-8"
     inkscape:window-y="-8"
     inkscape:window-maximized="1"
     inkscape:current-layer="svg2" />
  <g
     id="g4"
     transform="matrix(0.01103448,0,0,-0.01103448,2.0517241,23.586207)" />
  <path
     d="M 0,26.482758 0,5.5172414 Q 0,4.3806896 0.8110345,3.5696552 1.622069,2.7586207 2.7586207,2.7586207 l 9.9310343,0 q 1.136552,0 1.947586,0.8110345 0.811035,0.8110344 0.811035,1.9475862 l 0,2.9351724 q -0.926897,0.077241 -1.566897,0.7503448 -0.64,0.6731035 -0.64,1.6000004 l 0,-3.6303452 -11.0344824,0 0,16.5517242 11.0344824,0 0,-2.482759 q 0,0.915862 0.64,1.588966 0.64,0.673103 1.566897,0.761379 l 0,2.891034 q 0,1.147587 -0.805517,1.953104 -0.805518,0.805517 -1.953104,0.805517 l -9.9310343,0 q -1.1475862,0 -1.9531035,-0.805517 Q 0,27.630345 0,26.482758 Z m 5.7710345,0 q 0,0.816552 0.5682758,1.384828 0.5682759,0.568276 1.3848276,0.568276 0.8165521,0 1.3848281,-0.568276 0.568275,-0.568276 0.568275,-1.384828 0,-0.816551 -0.568275,-1.384827 -0.568276,-0.568276 -1.3848281,-0.568276 -0.8165517,0 -1.3848276,0.568276 -0.5682758,0.568276 -0.5682758,1.384827 z m 4.1599995,-8.849655 0,-3.288276 q 0,-0.220689 0.165518,-0.386207 0.165517,-0.165517 0.397241,-0.165517 l 4.954483,0 0,-2.990344 q 0,-0.110345 0.121379,-0.148966 0.121379,-0.03862 0.209655,0.03862 l 6.190345,5.131034 q 0.09931,0.07724 0.08828,0.182069 -0.01103,0.104828 -0.110345,0.182069 l -6.146207,5.164138 q -0.09931,0.07724 -0.226207,0.04414 -0.126896,-0.03311 -0.126896,-0.154485 l 0,-3.034483 -4.954483,0 q -0.231728,0 -0.397245,-0.171034 -0.165518,-0.171035 -0.165518,-0.402759 z m 6.62069,8.849655 0,-3.056551 q 0,-0.0331 0.115862,-0.09379 0.115862,-0.06069 0.292414,-0.137931 0.176552,-0.07724 0.264828,-0.154482 l 1.533793,-1.291035 0,1.975173 11.034482,0 0,-16.5517242 -11.034482,0 0,3.1227582 Q 16.551724,8.7062069 16.551724,8.617931 l 0,-3.1006896 q 0,-1.1365518 0.811035,-1.9475862 0.811034,-0.8110345 1.947586,-0.8110345 l 9.931034,0 q 1.136552,0 1.947587,0.8110345 Q 32,4.3806896 32,5.5172414 l 0,20.9655166 q 0,1.147587 -0.805517,1.953104 -0.805517,0.805517 -1.953104,0.805517 l -9.931034,0 q -1.136552,0 -1.947586,-0.811034 -0.811035,-0.811035 -0.811035,-1.947587 z m 5.771035,0 q 0,0.816552 0.568275,1.384828 0.568276,0.568276 1.384828,0.568276 0.816552,0 1.384828,-0.568276 0.568276,-0.568276 0.568276,-1.384828 0,-0.816551 -0.568276,-1.384827 -0.568276,-0.568276 -1.384828,-0.568276 -0.816552,0 -1.384828,0.568276 -0.568275,0.568276 -0.568275,1.384827 z"
     id="path6"
     inkscape:connector-curvature="0" />
</svg>
