<?xml version="1.0" encoding="UTF-8" standalone="no"?>
<svg
   xmlns:dc="http://purl.org/dc/elements/1.1/"
   xmlns:cc="http://creativecommons.org/ns#"
   xmlns:rdf="http://www.w3.org/1999/02/22-rdf-syntax-ns#"
   xmlns:svg="http://www.w3.org/2000/svg"
   xmlns="http://www.w3.org/2000/svg"
   xmlns:sodipodi="http://sodipodi.sourceforge.net/DTD/sodipodi-0.dtd"
   xmlns:inkscape="http://www.inkscape.org/namespaces/inkscape"
   version="1.1"
   width="32px"
   height="32px"
   id="svg2"
   inkscape:version="0.91 r13725"
   sodipodi:docname="iphone.svg">
  <metadata
     id="metadata12">
    <rdf:RDF>
      <cc:Work
         rdf:about="">
        <dc:format>image/svg+xml</dc:format>
        <dc:type
           rdf:resource="http://purl.org/dc/dcmitype/StillImage" />
      </cc:Work>
    </rdf:RDF>
  </metadata>
  <defs
     id="defs10" />
  <sodipodi:namedview
     pagecolor="#ffffff"
     bordercolor="#666666"
     borderopacity="1"
     objecttolerance="10"
     gridtolerance="10"
     guidetolerance="10"
     inkscape:pageopacity="0"
     inkscape:pageshadow="2"
     inkscape:window-width="1920"
     inkscape:window-height="1028"
     id="namedview8"
     showgrid="false"
     inkscape:zoom="7.375"
     inkscape:cx="-23.322034"
     inkscape:cy="16"
     inkscape:window-x="-8"
     inkscape:window-y="-8"
     inkscape:window-maximized="1"
     inkscape:current-layer="svg2" />
  <g
     id="g4"
     transform="matrix(0.01333333,0,0,-0.01333333,-9.6666667,22.666667)" />
  <path
     d="m 6.6666665,28.666667 0,-25.3333337 Q 6.6666665,1.96 7.6466665,0.98 8.6266665,0 9.9999995,0 L 21.999999,0 q 1.373334,0 2.353334,0.98 0.98,0.98 0.98,2.3533333 l 0,25.3333337 q 0,1.386666 -0.973334,2.36 Q 23.386666,32 21.999999,32 L 9.9999995,32 q -1.373333,0 -2.353333,-0.98 -0.98,-0.98 -0.98,-2.353333 z m 2.666667,-3.333334 13.3333325,0 0,-19.9999997 -13.3333325,0 0,19.9999997 z m 4.3066655,3.333334 q 0,0.986666 0.686667,1.673333 0.686667,0.686667 1.673333,0.686667 0.986667,0 1.673334,-0.686667 0.686666,-0.686667 0.686666,-1.673333 0,-0.986667 -0.686666,-1.673334 -0.686667,-0.686666 -1.673334,-0.686666 -0.986666,0 -1.673333,0.686666 -0.686667,0.686667 -0.686667,1.673334 z"
     id="path6"
     inkscape:connector-curvature="0" />
</svg>
