<?xml version="1.0" encoding="UTF-8" standalone="no"?>
<svg
   xmlns:dc="http://purl.org/dc/elements/1.1/"
   xmlns:cc="http://creativecommons.org/ns#"
   xmlns:rdf="http://www.w3.org/1999/02/22-rdf-syntax-ns#"
   xmlns:svg="http://www.w3.org/2000/svg"
   xmlns="http://www.w3.org/2000/svg"
   xmlns:sodipodi="http://sodipodi.sourceforge.net/DTD/sodipodi-0.dtd"
   xmlns:inkscape="http://www.inkscape.org/namespaces/inkscape"
   version="1.1"
   width="32px"
   height="32px"
   id="svg2"
   inkscape:version="0.91 r13725"
   sodipodi:docname="ipod_shuffle.svg">
  <metadata
     id="metadata12">
    <rdf:RDF>
      <cc:Work
         rdf:about="">
        <dc:format>image/svg+xml</dc:format>
        <dc:type
           rdf:resource="http://purl.org/dc/dcmitype/StillImage" />
      </cc:Work>
    </rdf:RDF>
  </metadata>
  <defs
     id="defs10" />
  <sodipodi:namedview
     pagecolor="#ffffff"
     bordercolor="#666666"
     borderopacity="1"
     objecttolerance="10"
     gridtolerance="10"
     guidetolerance="10"
     inkscape:pageopacity="0"
     inkscape:pageshadow="2"
     inkscape:window-width="1920"
     inkscape:window-height="1028"
     id="namedview8"
     showgrid="false"
     inkscape:zoom="7.375"
     inkscape:cx="-0.20338983"
     inkscape:cy="16"
     inkscape:window-x="-8"
     inkscape:window-y="-8"
     inkscape:window-maximized="1"
     inkscape:current-layer="svg2" />
  <g
     id="g4"
     transform="matrix(0.02133333,0,0,-0.02133333,-20.3,12.9)" />
  <path
     d="m 0,29.866667 0,-27.7333337 32,0 0,27.7333337 -32,0 z M 5.546667,16 q 0,4.330667 3.061333,7.392 3.061333,3.061334 7.392,3.061334 4.330667,0 7.392,-3.061334 3.061333,-3.061333 3.061333,-7.392 0,-4.330667 -3.061333,-7.392 Q 20.330667,5.5466666 16,5.5466666 q -4.330667,0 -7.392,3.0613333 Q 5.546667,11.669333 5.546667,16 Z M 9.92,16 q 0,-2.517333 1.781333,-4.298667 Q 13.482667,9.9199999 16,9.9199999 q 2.517333,0 4.298667,1.7813331 Q 22.08,13.482667 22.08,16 q 0,2.517334 -1.781333,4.298667 Q 18.517333,22.08 16,22.08 13.482667,22.08 11.701333,20.298667 9.92,18.517334 9.92,16 Z"
     id="path6"
     inkscape:connector-curvature="0" />
</svg>
