<?xml version="1.0" encoding="UTF-8" standalone="no"?>
<svg
   xmlns:dc="http://purl.org/dc/elements/1.1/"
   xmlns:cc="http://creativecommons.org/ns#"
   xmlns:rdf="http://www.w3.org/1999/02/22-rdf-syntax-ns#"
   xmlns:svg="http://www.w3.org/2000/svg"
   xmlns="http://www.w3.org/2000/svg"
   xmlns:sodipodi="http://sodipodi.sourceforge.net/DTD/sodipodi-0.dtd"
   xmlns:inkscape="http://www.inkscape.org/namespaces/inkscape"
   version="1.1"
   width="32px"
   height="32px"
   id="svg2"
   inkscape:version="0.91 r13725"
   sodipodi:docname="kettle.svg">
  <metadata
     id="metadata12">
    <rdf:RDF>
      <cc:Work
         rdf:about="">
        <dc:format>image/svg+xml</dc:format>
        <dc:type
           rdf:resource="http://purl.org/dc/dcmitype/StillImage" />
      </cc:Work>
    </rdf:RDF>
  </metadata>
  <defs
     id="defs10" />
  <sodipodi:namedview
     pagecolor="#ffffff"
     bordercolor="#666666"
     borderopacity="1"
     objecttolerance="10"
     gridtolerance="10"
     guidetolerance="10"
     inkscape:pageopacity="0"
     inkscape:pageshadow="2"
     inkscape:window-width="1920"
     inkscape:window-height="1028"
     id="namedview8"
     showgrid="false"
     inkscape:zoom="7.375"
     inkscape:cx="-23.322034"
     inkscape:cy="16"
     inkscape:window-x="-8"
     inkscape:window-y="-8"
     inkscape:window-maximized="1"
     inkscape:current-layer="svg2" />
  <g
     id="g4"
     transform="matrix(0.01349642,0,0,-0.01349642,-2.9527478,22.260736)" />
  <path
     d="m 0.5938425,3.6575285 5.398566,0 Q 6.0598905,3.57655 6.1813585,3.448334 6.3028265,3.3201181 6.7347115,2.9422185 7.1665965,2.5643189 7.6727125,2.2134121 8.1788275,1.8625053 9.0088575,1.4441164 9.8388865,1.0257275 10.743147,0.7220582 11.647407,0.4183889 12.882329,0.2091944 14.117251,0 15.439899,0 q 1.471109,0 2.928722,0.1214677 1.457612,0.1214678 3.056938,0.4386335 1.599325,0.3171658 3.016448,0.7895403 1.417124,0.4723745 2.71278,1.234922 1.295656,0.7625474 2.22016,1.7207929 0.924504,0.9582455 1.477857,2.3011387 0.553353,1.3428933 0.553353,2.9219739 0,1.552088 -0.357655,3.043442 -0.357655,1.491353 -0.931252,2.652045 -0.573598,1.160692 -1.268663,2.233657 -0.695066,1.072965 -1.396879,1.929987 -0.701814,0.857023 -1.275411,1.579081 -0.573598,0.722058 -0.931253,1.342893 -0.357655,0.620835 -0.357655,1.066217 0.0135,0.06748 0.04049,0.182201 0.02699,0.11472 0.04049,0.45213 0.0135,0.337411 -0.02699,0.64108 -0.04049,0.303669 -0.209195,0.674821 -0.168705,0.371151 -0.458878,0.641079 -0.290173,0.269929 -0.830029,0.45213 -0.539857,0.182202 -1.255167,0.182202 l -14.8460555,0 q -1.106707,0 -1.902995,-0.796288 Q 4.642771,25.008857 4.642771,23.902151 l 0,-7.908899 z M 1.943484,32 l 2.699283,-2.699283 0,-1.349642 20.244622,0 0,1.349642 L 27.586672,32 1.943484,32 Z m 14.846056,-12.146774 1.349642,0 0,1.349642 -1.066216,0 q 0.269928,0.607339 0.735554,0.97849 0.465627,0.371151 1.005482,0.371151 0.836778,0 1.430621,-0.78954 0.593843,-0.78954 0.593843,-1.909743 l 0,-9.44749 q 0,-1.1202025 -0.593843,-1.9097427 -0.593842,-0.7895403 -1.430621,-0.7895403 -0.539856,0 -1.005482,0.3711514 -0.465626,0.3711514 -0.735554,0.9784901 l 1.066217,0 0,1.3496415 -1.349642,0 0,1.349641 1.349642,0 0,1.349642 -1.349642,0 0,1.349641 1.349642,0 0,1.349642 -1.349642,0 0,1.349641 1.349642,0 0,1.349642 -1.349642,0 0,1.349641 z m 8.097849,-3.711514 q 0.202446,-0.188949 0.668073,-0.587094 0.465626,-0.398144 0.688318,-0.614087 0.222691,-0.215942 0.593841,-0.627583 0.371152,-0.411641 0.560101,-0.796288 0.18895,-0.384648 0.404894,-0.931253 0.215941,-0.546605 0.303668,-1.234922 0.08773,-0.688317 0.08773,-1.5115985 0,-0.8637705 -0.215943,-1.5318431 Q 27.762125,7.6389709 27.431463,7.2543231 27.100801,6.8696752 26.641923,6.6132434 26.183045,6.3568115 25.764656,6.2623366 25.346267,6.1678617 24.887389,6.1408688 l 0,10.0008432 z"
     id="path6"
     inkscape:connector-curvature="0" />
</svg>
