<?xml version="1.0" encoding="UTF-8" standalone="no"?>
<svg
   xmlns:dc="http://purl.org/dc/elements/1.1/"
   xmlns:cc="http://creativecommons.org/ns#"
   xmlns:rdf="http://www.w3.org/1999/02/22-rdf-syntax-ns#"
   xmlns:svg="http://www.w3.org/2000/svg"
   xmlns="http://www.w3.org/2000/svg"
   xmlns:sodipodi="http://sodipodi.sourceforge.net/DTD/sodipodi-0.dtd"
   xmlns:inkscape="http://www.inkscape.org/namespaces/inkscape"
   version="1.1"
   width="32px"
   height="32px"
   id="svg2"
   inkscape:version="0.91 r13725"
   sodipodi:docname="keyboard_wired.svg">
  <metadata
     id="metadata12">
    <rdf:RDF>
      <cc:Work
         rdf:about="">
        <dc:format>image/svg+xml</dc:format>
        <dc:type
           rdf:resource="http://purl.org/dc/dcmitype/StillImage" />
      </cc:Work>
    </rdf:RDF>
  </metadata>
  <defs
     id="defs10" />
  <sodipodi:namedview
     pagecolor="#ffffff"
     bordercolor="#666666"
     borderopacity="1"
     objecttolerance="10"
     gridtolerance="10"
     guidetolerance="10"
     inkscape:pageopacity="0"
     inkscape:pageshadow="2"
     inkscape:window-width="1920"
     inkscape:window-height="1028"
     id="namedview8"
     showgrid="false"
     inkscape:zoom="7.375"
     inkscape:cx="-0.20338983"
     inkscape:cy="16"
     inkscape:window-x="-8"
     inkscape:window-y="-8"
     inkscape:window-maximized="1"
     inkscape:current-layer="svg2" />
  <g
     id="g4"
     transform="matrix(0.01185185,0,0,-0.01185185,1.9074074,27.814815)" />
  <path
     d="M 0,30.222222 0,8.8888889 Q 0,8.402963 0.3496296,8.0533333 0.6992593,7.7037037 1.1851852,7.7037037 l 13.0370368,0 0,-2.3703704 1.185185,0 0,-4.7407407 1.185186,0 0,4.7407407 1.185185,0 0,2.3703704 13.037037,0 q 0.485926,0 0.835555,0.3496296 Q 32,8.402963 32,8.8888889 l 0,21.3333331 q 0,0.485926 -0.34963,0.835555 -0.349629,0.34963 -0.835555,0.34963 l -29.6296298,0 q -0.4859259,0 -0.8355556,-0.34963 Q 0,30.708148 0,30.222222 Z m 2.3703704,-1.185185 27.2592596,0 0,-18.962963 -27.2592596,0 0,18.962963 z m 2.3703703,-12.444445 0,-2.37037 q 0,-0.248889 0.1718519,-0.420741 0.1718518,-0.171852 0.4207407,-0.171852 l 2.3703707,0 q 0.248889,0 0.42074,0.171852 0.171852,0.171852 0.171852,0.420741 l 0,2.37037 q 0,0.248889 -0.171852,0.420741 -0.171851,0.171852 -0.42074,0.171852 l -2.3703707,0 q -0.2488889,0 -0.4207407,-0.171852 -0.1718519,-0.171852 -0.1718519,-0.420741 z m 2.3703704,9.481482 0,-2.370371 q 0,-0.248889 0.1718519,-0.42074 0.1718518,-0.171852 0.420741,-0.171852 l 16.592592,0 q 0.248889,0 0.420741,0.171852 0.171852,0.171851 0.171852,0.42074 l 0,2.370371 q 0,0.248889 -0.171852,0.42074 -0.171852,0.171852 -0.420741,0.171852 l -16.592592,0 q -0.2488892,0 -0.420741,-0.171852 -0.1718519,-0.171851 -0.1718519,-0.42074 z m 0,-4.740741 0,-2.37037 q 0,-0.248889 0.1718519,-0.420741 0.1718518,-0.171852 0.420741,-0.171852 l 2.37037,0 q 0.248889,0 0.420741,0.171852 0.171852,0.171852 0.171852,0.420741 l 0,2.37037 q 0,0.248889 -0.171852,0.420741 -0.171852,0.171852 -0.420741,0.171852 l -2.37037,0 q -0.2488892,0 -0.420741,-0.171852 -0.1718519,-0.171852 -0.1718519,-0.420741 z m 0,-9.481481 q 0,0.248889 0.1718519,0.420741 0.1718518,0.171851 0.420741,0.171851 l 2.37037,0 q 0.248889,0 0.420741,-0.177777 0.171852,-0.177778 0.171852,-0.414815 0,-0.237037 -0.171852,-0.414815 -0.171852,-0.177778 -0.420741,-0.177778 l -2.37037,0 q -0.2488892,0 -0.420741,0.171852 -0.1718519,0.171852 -0.1718519,0.420741 z m 2.3703699,4.74074 0,-2.37037 q 0,-0.248889 0.171852,-0.420741 0.171852,-0.171852 0.420741,-0.171852 l 2.37037,0 q 0.248889,0 0.420741,0.171852 0.171852,0.171852 0.171852,0.420741 l 0,2.37037 q 0,0.248889 -0.171852,0.420741 -0.171852,0.171852 -0.420741,0.171852 l -2.37037,0 q -0.248889,0 -0.420741,-0.171852 -0.171852,-0.171852 -0.171852,-0.420741 z m 2.370371,4.740741 0,-2.37037 q 0,-0.248889 0.171852,-0.420741 0.171852,-0.171852 0.42074,-0.171852 l 2.370371,0 q 0.248889,0 0.420741,0.171852 0.171851,0.171852 0.171851,0.420741 l 0,2.37037 q 0,0.248889 -0.171851,0.420741 -0.171852,0.171852 -0.420741,0.171852 l -2.370371,0 q -0.248888,0 -0.42074,-0.171852 -0.171852,-0.171852 -0.171852,-0.420741 z m 0,-9.481481 q 0,0.248889 0.171852,0.420741 0.171852,0.171851 0.42074,0.171851 l 2.370371,0 q 0.248889,0 0.420741,-0.177777 0.171851,-0.177778 0.171851,-0.414815 0,-0.237037 -0.171851,-0.414815 -0.171852,-0.177778 -0.420741,-0.177778 l -2.370371,0 q -0.248888,0 -0.42074,0.171852 -0.171852,0.171852 -0.171852,0.420741 z m 2.37037,4.74074 0,-2.37037 q 0,-0.248889 0.171852,-0.420741 0.171852,-0.171852 0.420741,-0.171852 l 2.37037,0 q 0.248889,0 0.420741,0.171852 0.171852,0.171852 0.171852,0.420741 l 0,2.37037 q 0,0.248889 -0.171852,0.420741 -0.171852,0.171852 -0.420741,0.171852 l -2.37037,0 q -0.248889,0 -0.420741,-0.171852 -0.171852,-0.171852 -0.171852,-0.420741 z m 2.370371,4.740741 0,-2.37037 q 0,-0.248889 0.171851,-0.420741 0.171852,-0.171852 0.420741,-0.171852 l 2.370371,0 q 0.248888,0 0.42074,0.171852 0.171852,0.171852 0.171852,0.420741 l 0,2.37037 q 0,0.248889 -0.171852,0.420741 -0.171852,0.171852 -0.42074,0.171852 l -2.370371,0 q -0.248889,0 -0.420741,-0.171852 -0.171851,-0.171852 -0.171851,-0.420741 z m 0,-9.481481 q 0,0.248889 0.171851,0.420741 0.171852,0.171851 0.420741,0.171851 l 2.370371,0 q 0.248888,0 0.42074,-0.177777 0.171852,-0.177778 0.171852,-0.414815 0,-0.237037 -0.171852,-0.414815 -0.171852,-0.177778 -0.42074,-0.177778 l -2.370371,0 q -0.248889,0 -0.420741,0.171852 -0.171851,0.171852 -0.171851,0.420741 z m 2.37037,4.74074 0,-2.37037 q 0,-0.248889 0.171852,-0.420741 0.171852,-0.171852 0.420741,-0.171852 l 2.37037,0 q 0.248889,0 0.420741,0.171852 0.171852,0.171852 0.171852,0.420741 l 0,2.37037 q 0,0.248889 -0.171852,0.420741 -0.171852,0.171852 -0.420741,0.171852 l -2.37037,0 q -0.248889,0 -0.420741,-0.171852 -0.171852,-0.171852 -0.171852,-0.420741 z m 2.37037,4.740741 0,-2.37037 q 0,-0.248889 0.171852,-0.420741 0.171852,-0.171852 0.420741,-0.171852 l 2.37037,0 q 0.248889,0 0.420741,0.171852 0.171852,0.171852 0.171852,0.420741 l 0,2.37037 q 0,0.248889 -0.171852,0.420741 -0.171852,0.171852 -0.420741,0.171852 l -2.37037,0 q -0.248889,0 -0.420741,-0.171852 -0.171852,-0.171852 -0.171852,-0.420741 z m 0,-9.481481 q 0,0.248889 0.171852,0.420741 0.171852,0.171851 0.420741,0.171851 l 2.37037,0 q 0.248889,0 0.420741,-0.177777 0.171852,-0.177778 0.171852,-0.414815 0,-0.237037 -0.171852,-0.414815 -0.171852,-0.177778 -0.420741,-0.177778 l -2.37037,0 q -0.248889,0 -0.420741,0.171852 -0.171852,0.171852 -0.171852,0.420741 z m 2.370371,4.74074 0,-2.37037 q 0,-0.248889 0.171852,-0.420741 0.171851,-0.171852 0.42074,-0.171852 l 2.370371,0 q 0.248889,0 0.42074,0.171852 0.171852,0.171852 0.171852,0.420741 l 0,2.37037 q 0,0.248889 -0.171852,0.420741 -0.171851,0.171852 -0.42074,0.171852 l -2.370371,0 q -0.248889,0 -0.42074,-0.171852 -0.171852,-0.171852 -0.171852,-0.420741 z"
     id="path6"
     inkscape:connector-curvature="0" />
</svg>
