<?xml version="1.0" encoding="UTF-8" standalone="no"?>
<svg
   xmlns:dc="http://purl.org/dc/elements/1.1/"
   xmlns:cc="http://creativecommons.org/ns#"
   xmlns:rdf="http://www.w3.org/1999/02/22-rdf-syntax-ns#"
   xmlns:svg="http://www.w3.org/2000/svg"
   xmlns="http://www.w3.org/2000/svg"
   xmlns:sodipodi="http://sodipodi.sourceforge.net/DTD/sodipodi-0.dtd"
   xmlns:inkscape="http://www.inkscape.org/namespaces/inkscape"
   version="1.1"
   width="32px"
   height="32px"
   id="svg2"
   inkscape:version="0.91 r13725"
   sodipodi:docname="keynote.svg">
  <metadata
     id="metadata12">
    <rdf:RDF>
      <cc:Work
         rdf:about="">
        <dc:format>image/svg+xml</dc:format>
        <dc:type
           rdf:resource="http://purl.org/dc/dcmitype/StillImage" />
      </cc:Work>
    </rdf:RDF>
  </metadata>
  <defs
     id="defs10" />
  <sodipodi:namedview
     pagecolor="#ffffff"
     bordercolor="#666666"
     borderopacity="1"
     objecttolerance="10"
     gridtolerance="10"
     guidetolerance="10"
     inkscape:pageopacity="0"
     inkscape:pageshadow="2"
     inkscape:window-width="1920"
     inkscape:window-height="1028"
     id="namedview8"
     showgrid="false"
     inkscape:zoom="7.375"
     inkscape:cx="-0.20338983"
     inkscape:cy="16"
     inkscape:window-x="-8"
     inkscape:window-y="-8"
     inkscape:window-maximized="1"
     inkscape:current-layer="svg2" />
  <g
     id="g4"
     transform="matrix(0.01101359,0,0,-0.01101363,-2.8108759,26.702911)" />
  <path
     d="m 4.986405,18.783642 0,-2.202727 22.02719,0 0,2.202727 -9.912236,0 0,4.570656 q 1.92738,0.396491 3.166409,1.569443 1.239029,1.172952 1.239029,2.670806 0,1.200486 -0.809499,2.21374 -0.809499,1.013254 -2.202719,1.602484 Q 17.101359,32 15.44932,32 q -1.652039,0 -3.045259,-0.589229 -1.39322,-0.58923 -2.202719,-1.602484 -0.809499,-1.013254 -0.809499,-2.21374 0,-1.497854 1.239029,-2.670806 1.23903,-1.172952 3.166409,-1.569443 l 0,-4.570656 -8.810876,0 z m 0.5506797,-3.30409 1.6520393,-9.9122686 0.5506797,0 q 0,-4.5376167 2.0375153,-5.38566642 1.530889,-0.6387907 3.579418,0.96919962 L 13.797281,0.71027132 15.900878,2.8138752 14.347961,4.3667975 12.244364,2.2631936 12.574772,1.9327846 Q 11.109964,0.82040765 10.195835,1.1948712 9.546033,1.470212 9.193598,2.5991094 8.8411632,3.7280067 8.8411632,5.5672834 l 15.9697128,0 1.652039,9.9122686 -20.9258303,0 z m 8.2601963,12.114995 q 0,0.451559 0.484598,0.776461 0.484598,0.324902 1.167441,0.324902 0.682843,0 1.167441,-0.324902 0.484598,-0.324902 0.484598,-0.776461 0,0.451559 -0.484598,0.776461 -0.484598,0.324902 -1.167441,0.324902 -0.682843,0 -1.167441,-0.324902 -0.484598,-0.324902 -0.484598,-0.776461 z"
     id="path6"
     inkscape:connector-curvature="0" />
</svg>
