<?xml version="1.0" encoding="UTF-8" standalone="no"?>
<svg
   xmlns:dc="http://purl.org/dc/elements/1.1/"
   xmlns:cc="http://creativecommons.org/ns#"
   xmlns:rdf="http://www.w3.org/1999/02/22-rdf-syntax-ns#"
   xmlns:svg="http://www.w3.org/2000/svg"
   xmlns="http://www.w3.org/2000/svg"
   xmlns:sodipodi="http://sodipodi.sourceforge.net/DTD/sodipodi-0.dtd"
   xmlns:inkscape="http://www.inkscape.org/namespaces/inkscape"
   version="1.1"
   width="32px"
   height="32px"
   id="svg2"
   inkscape:version="0.91 r13725"
   sodipodi:docname="keys.svg">
  <metadata
     id="metadata12">
    <rdf:RDF>
      <cc:Work
         rdf:about="">
        <dc:format>image/svg+xml</dc:format>
        <dc:type
           rdf:resource="http://purl.org/dc/dcmitype/StillImage" />
      </cc:Work>
    </rdf:RDF>
  </metadata>
  <defs
     id="defs10" />
  <sodipodi:namedview
     pagecolor="#ffffff"
     bordercolor="#666666"
     borderopacity="1"
     objecttolerance="10"
     gridtolerance="10"
     guidetolerance="10"
     inkscape:pageopacity="0"
     inkscape:pageshadow="2"
     inkscape:window-width="1920"
     inkscape:window-height="1028"
     id="namedview8"
     showgrid="false"
     inkscape:zoom="7.375"
     inkscape:cx="-0.20338983"
     inkscape:cy="16"
     inkscape:window-x="-8"
     inkscape:window-y="-8"
     inkscape:window-maximized="1"
     inkscape:current-layer="svg2" />
  <g
     id="g4"
     transform="matrix(0.01230789,0,0,-0.01230769,-1.1021238,24.076923)" />
  <path
     d="m 1.3878467,1.8338477 q -0.06154,-0.2461539 0.073847,-0.4492308 0.1353867,-0.2030769 0.3815445,-0.24 L 9.2279697,0.0861553 Q 9.8064407,1.5e-6 10.446452,1.5e-6 q 0.64001,0 1.21848,0.086154 l 7.384733,1.0584616 q 0.246157,0.036923 0.381543,0.24 0.135387,0.2030769 0.07385,0.4492308 l -3.38467,13.5753851 q -0.06154,0.246154 -0.289237,0.418461 -0.227696,0.172308 -0.473853,0.172308 l -1.833875,0 0,13.538462 -1.230789,1.218461 0,-12.295385 -0.40616,-2.461538 -0.418467,0 -0.40616,2.461538 0,1.23077 -1.2307903,0 0,1.230769 1.2307903,0 0,1.230768 -1.2307903,0 0,1.230769 1.2307903,0 0,1.23077 -1.2307903,0 0,1.230769 1.2307903,0 0,1.230769 -1.2307903,0 0,1.230769 1.2307903,0 0,1.23077 -1.2307903,0 0,1.230769 1.2307903,0 0,1.193846 -0.03692,0.03692 -1.3415613,0 -2.313882,-2.461538 0,-13.538462 -1.833875,0 q -0.2461619,4e-6 -0.4738579,-0.172304 Q 4.834055,15.655387 4.7725155,15.409233 Z m 6.670874,3.0892307 q 0,0.9846154 0.701549,1.6861539 0.70155,0.7015384 1.6861823,0.7015384 0.98463,0 1.68618,-0.7015384 0.70155,-0.7015385 0.70155,-1.6861539 0,-0.9846154 -0.70155,-1.6861538 -0.70155,-0.7015385 -1.68618,-0.7015385 -0.9846323,0 -1.6861823,0.7015385 -0.701549,0.7015384 -0.701549,1.6861538 z M 15.985,19.446156 l 0,-1.476923 q 0.886169,-0.04923 1.476946,-0.615385 0.590779,-0.566154 0.812322,-1.476923 l 3.052354,-13.218462 3.741599,10.412308 q 0.08615,0.246154 0,0.516923 -0.08615,0.27077 -0.29539,0.406154 l -1.649256,1.095385 7.50781,11.421538 -0.57847,3.347693 -1.10771,0.750769 -3.396977,-0.676923 -7.483195,-11.409231 -1.329252,0.923077 q -0.369235,0.258461 -0.750781,0 z"
     id="path6"
     inkscape:connector-curvature="0" />
</svg>
