<?xml version="1.0" encoding="UTF-8" standalone="no"?>
<svg
   xmlns:dc="http://purl.org/dc/elements/1.1/"
   xmlns:cc="http://creativecommons.org/ns#"
   xmlns:rdf="http://www.w3.org/1999/02/22-rdf-syntax-ns#"
   xmlns:svg="http://www.w3.org/2000/svg"
   xmlns="http://www.w3.org/2000/svg"
   xmlns:sodipodi="http://sodipodi.sourceforge.net/DTD/sodipodi-0.dtd"
   xmlns:inkscape="http://www.inkscape.org/namespaces/inkscape"
   version="1.1"
   width="32px"
   height="32px"
   id="svg2"
   inkscape:version="0.91 r13725"
   sodipodi:docname="kiosk_wheels.svg">
  <metadata
     id="metadata12">
    <rdf:RDF>
      <cc:Work
         rdf:about="">
        <dc:format>image/svg+xml</dc:format>
        <dc:type
           rdf:resource="http://purl.org/dc/dcmitype/StillImage" />
      </cc:Work>
    </rdf:RDF>
  </metadata>
  <defs
     id="defs10" />
  <sodipodi:namedview
     pagecolor="#ffffff"
     bordercolor="#666666"
     borderopacity="1"
     objecttolerance="10"
     gridtolerance="10"
     guidetolerance="10"
     inkscape:pageopacity="0"
     inkscape:pageshadow="2"
     inkscape:window-width="1920"
     inkscape:window-height="1028"
     id="namedview8"
     showgrid="false"
     inkscape:zoom="7.375"
     inkscape:cx="-23.322034"
     inkscape:cy="16"
     inkscape:window-x="-8"
     inkscape:window-y="-8"
     inkscape:window-maximized="1"
     inkscape:current-layer="svg2" />
  <g
     id="g4"
     transform="matrix(0.0128,0,0,-0.0128,0.3,33.26)" />
  <path
     d="m 0,11.52 32,0 0,-1.28 -3.84,-5.12 -24.32,0 -3.84,5.12 0,1.28 z m 1.28,12.416 3.84,0.5504 0,1.792 Q 4.6592,26.5856 4.3904,27.0848 4.1216,27.584 4.1216,28.16 q 0,0.9472 0.6656,1.6128 0.6656,0.6656 1.6128,0.6656 0.9472,0 1.6128,-0.6656 0.6656,-0.6656 0.6656,-1.6128 0,-0.576 -0.2688,-1.0752 Q 8.1408,26.5856 7.68,26.2784 l 0,-1.4208 14.08,2.0224 q 0,1.5872 1.1264,2.7136 1.1264,1.1264 2.7136,1.1264 1.6768,0 2.7584,-0.9984 Q 29.44,28.7232 29.44,26.88 l 1.28,0 0,-7.68 -3.84,0 0,-6.4 -2.56,0 0,6.4 -16.64,0 0,-6.4 -2.56,0 0,6.4 -3.84,0 0,4.736 z M 3.84,3.84 3.84,2.56 Q 3.84,2.0352 4.2176,1.6576 4.5952,1.28 5.12,1.28 l 21.76,0 q 0.5248,0 0.9024,0.3776 Q 28.16,2.0352 28.16,2.56 l 0,1.28 -24.32,0 z m 19.7376,23.04 q 0,-0.832 0.5952,-1.4272 0.5952,-0.5952 1.4272,-0.5952 0.832,0 1.4272,0.5952 0.5952,0.5952 0.5952,1.4272 0,0.832 -0.5952,1.4272 -0.5952,0.5952 -1.4272,0.5952 -0.832,0 -1.4272,-0.5952 Q 23.5776,27.712 23.5776,26.88 Z"
     id="path6"
     inkscape:connector-curvature="0" />
</svg>
