<?xml version="1.0" encoding="UTF-8" standalone="no"?>
<svg
   xmlns:dc="http://purl.org/dc/elements/1.1/"
   xmlns:cc="http://creativecommons.org/ns#"
   xmlns:rdf="http://www.w3.org/1999/02/22-rdf-syntax-ns#"
   xmlns:svg="http://www.w3.org/2000/svg"
   xmlns="http://www.w3.org/2000/svg"
   xmlns:sodipodi="http://sodipodi.sourceforge.net/DTD/sodipodi-0.dtd"
   xmlns:inkscape="http://www.inkscape.org/namespaces/inkscape"
   version="1.1"
   width="32px"
   height="32px"
   id="svg2"
   inkscape:version="0.91 r13725"
   sodipodi:docname="kiosk_light.svg">
  <metadata
     id="metadata12">
    <rdf:RDF>
      <cc:Work
         rdf:about="">
        <dc:format>image/svg+xml</dc:format>
        <dc:type
           rdf:resource="http://purl.org/dc/dcmitype/StillImage" />
      </cc:Work>
    </rdf:RDF>
  </metadata>
  <defs
     id="defs10" />
  <sodipodi:namedview
     pagecolor="#ffffff"
     bordercolor="#666666"
     borderopacity="1"
     objecttolerance="10"
     gridtolerance="10"
     guidetolerance="10"
     inkscape:pageopacity="0"
     inkscape:pageshadow="2"
     inkscape:window-width="1920"
     inkscape:window-height="1028"
     id="namedview8"
     showgrid="false"
     inkscape:zoom="7.375"
     inkscape:cx="-0.20338983"
     inkscape:cy="16"
     inkscape:window-x="-8"
     inkscape:window-y="-8"
     inkscape:window-maximized="1"
     inkscape:current-layer="svg2" />
  <g
     id="g4"
     transform="matrix(0.0128,0,0,-0.0128,0.3,33.26)" />
  <path
     d="m 0,7.68 32,0 L 32,6.4 28.16,1.28 3.84,1.28 0,6.4 0,7.68 Z m 2.56,15.36 4.736,0 6.9504,2.944 -5.12,2.176 -4.0064,0 0,2.56 5.12,0 0,-1.5488 5.76,-2.4448 5.76,2.4448 0,1.5488 5.12,0 0,-2.56 -4.0064,0 -5.12,-2.176 6.9504,-2.944 4.736,0 0,-2.56 -1.28,-0.8576 0,-10.6624 -2.56,0 0,8.96 -19.2,0 0,-8.96 -2.56,0 0,10.6624 -1.28,0.8576 0,2.56 z m 8.2432,0 10.3936,0 L 16,25.2416 Z"
     id="path6"
     inkscape:connector-curvature="0" />
</svg>
