<?xml version="1.0" encoding="UTF-8" standalone="no"?>
<svg
   xmlns:dc="http://purl.org/dc/elements/1.1/"
   xmlns:cc="http://creativecommons.org/ns#"
   xmlns:rdf="http://www.w3.org/1999/02/22-rdf-syntax-ns#"
   xmlns:svg="http://www.w3.org/2000/svg"
   xmlns="http://www.w3.org/2000/svg"
   xmlns:sodipodi="http://sodipodi.sourceforge.net/DTD/sodipodi-0.dtd"
   xmlns:inkscape="http://www.inkscape.org/namespaces/inkscape"
   version="1.1"
   width="32px"
   height="32px"
   id="svg2"
   inkscape:version="0.91 r13725"
   sodipodi:docname="kiosk_food.svg">
  <metadata
     id="metadata12">
    <rdf:RDF>
      <cc:Work
         rdf:about="">
        <dc:format>image/svg+xml</dc:format>
        <dc:type
           rdf:resource="http://purl.org/dc/dcmitype/StillImage" />
      </cc:Work>
    </rdf:RDF>
  </metadata>
  <defs
     id="defs10" />
  <sodipodi:namedview
     pagecolor="#ffffff"
     bordercolor="#666666"
     borderopacity="1"
     objecttolerance="10"
     gridtolerance="10"
     guidetolerance="10"
     inkscape:pageopacity="0"
     inkscape:pageshadow="2"
     inkscape:window-width="1920"
     inkscape:window-height="1028"
     id="namedview8"
     showgrid="false"
     inkscape:zoom="7.375"
     inkscape:cx="-23.322034"
     inkscape:cy="16"
     inkscape:window-x="-8"
     inkscape:window-y="-8"
     inkscape:window-maximized="1"
     inkscape:current-layer="svg2" />
  <g
     id="g4"
     transform="matrix(0.01333333,0,0,-0.01333333,-1.3333333,33.416667)" />
  <path
     d="M 0,9 0,6.9999999 15.666667,0.33333335 32,6.9999999 32,9 17.333333,9 l 0,8 5.333334,0 0,10.666667 -2.28,0 q 0.28,0 0.466666,0.546667 0.186667,0.546666 0.186667,1.08 0,0.986666 -0.693333,1.68 -0.693334,0.693333 -1.68,0.693333 -0.986667,0 -1.68,-0.693333 -0.693334,-0.693334 -0.693334,-1.68 0,-0.533334 0.186667,-1.08 0.186667,-0.546667 0.466667,-0.546667 l -8.56,0 q 0.28,0 0.466666,0.546667 Q 9.04,28.76 9.04,29.293334 q 0,0.986666 -0.693333,1.68 -0.693334,0.693333 -1.68,0.693333 -0.986667,0 -1.6800003,-0.693333 -0.6933334,-0.693334 -0.6933334,-1.68 0,-0.533334 0.1866667,-1.08 0.1866667,-0.546667 0.4666667,-0.546667 l -2.28,0 L 2.6666667,17 4,17 l 0,-4 9.333333,0 0,4 1.333334,0 0,-8 L 0,9 Z M 5.3333333,25 12,25 l 0,-1.333333 -6.6666667,0 0,1.333333 z m 0,-2.666666 6.6666667,0 L 12,21 l -6.6666667,0 0,1.333334 z m 0,-2.666667 6.6666667,0 0,-1.333333 -6.6666667,0 0,1.333333 z"
     id="path6"
     inkscape:connector-curvature="0" />
</svg>
