<?xml version="1.0" encoding="UTF-8" standalone="no"?>
<svg
   xmlns:dc="http://purl.org/dc/elements/1.1/"
   xmlns:cc="http://creativecommons.org/ns#"
   xmlns:rdf="http://www.w3.org/1999/02/22-rdf-syntax-ns#"
   xmlns:svg="http://www.w3.org/2000/svg"
   xmlns="http://www.w3.org/2000/svg"
   xmlns:sodipodi="http://sodipodi.sourceforge.net/DTD/sodipodi-0.dtd"
   xmlns:inkscape="http://www.inkscape.org/namespaces/inkscape"
   version="1.1"
   width="32px"
   height="32px"
   id="svg2"
   inkscape:version="0.91 r13725"
   sodipodi:docname="kiosk.svg">
  <metadata
     id="metadata12">
    <rdf:RDF>
      <cc:Work
         rdf:about="">
        <dc:format>image/svg+xml</dc:format>
        <dc:type
           rdf:resource="http://purl.org/dc/dcmitype/StillImage" />
      </cc:Work>
    </rdf:RDF>
  </metadata>
  <defs
     id="defs10" />
  <sodipodi:namedview
     pagecolor="#ffffff"
     bordercolor="#666666"
     borderopacity="1"
     objecttolerance="10"
     gridtolerance="10"
     guidetolerance="10"
     inkscape:pageopacity="0"
     inkscape:pageshadow="2"
     inkscape:window-width="1920"
     inkscape:window-height="1028"
     id="namedview8"
     showgrid="false"
     inkscape:zoom="7.375"
     inkscape:cx="-23.322034"
     inkscape:cy="16"
     inkscape:window-x="-8"
     inkscape:window-y="-8"
     inkscape:window-maximized="1"
     inkscape:current-layer="svg2" />
  <g
     id="g4"
     transform="matrix(0.0128,0,0,-0.0128,0.3,21.74)" />
  <path
     d="m 0,11.52 0,-1.28 3.84,-5.12 24.32,0 3.84,5.12 0,1.28 -32,0 z m 2.56,16.64 1.28,0 0,1.92 q 0,0.2688 0.1856,0.4544 Q 4.2112,30.72 4.48,30.72 l 1.28,0 q 0.2688,0 0.4544,-0.1856 Q 6.4,30.3488 6.4,30.08 l 0,-1.92 19.2,0 0,1.92 q 0,0.2688 0.1856,0.4544 0.1856,0.1856 0.4544,0.1856 l 1.28,0 q 0.2688,0 0.4544,-0.1856 Q 28.16,30.3488 28.16,30.08 l 0,-1.92 1.28,0 0,-3.84 -1.28,-1.28 0,-10.24 -2.56,0 0,7.68 -19.2,0 0,-7.68 -2.56,0 0,10.24 -1.28,1.28 0,3.84 z M 3.84,3.84 3.84,2.56 Q 3.84,2.0352 4.2176,1.6576 4.5952,1.28 5.12,1.28 l 21.76,0 q 0.5248,0 0.9024,0.3776 Q 28.16,2.0352 28.16,2.56 l 0,1.28 -24.32,0 z"
     id="path6"
     inkscape:connector-curvature="0" />
</svg>
