<?xml version="1.0" encoding="UTF-8" standalone="no"?>
<svg
   xmlns:dc="http://purl.org/dc/elements/1.1/"
   xmlns:cc="http://creativecommons.org/ns#"
   xmlns:rdf="http://www.w3.org/1999/02/22-rdf-syntax-ns#"
   xmlns:svg="http://www.w3.org/2000/svg"
   xmlns="http://www.w3.org/2000/svg"
   xmlns:sodipodi="http://sodipodi.sourceforge.net/DTD/sodipodi-0.dtd"
   xmlns:inkscape="http://www.inkscape.org/namespaces/inkscape"
   version="1.1"
   width="32px"
   height="32px"
   id="svg2"
   inkscape:version="0.91 r13725"
   sodipodi:docname="leaf.svg">
  <metadata
     id="metadata12">
    <rdf:RDF>
      <cc:Work
         rdf:about="">
        <dc:format>image/svg+xml</dc:format>
        <dc:type
           rdf:resource="http://purl.org/dc/dcmitype/StillImage" />
      </cc:Work>
    </rdf:RDF>
  </metadata>
  <defs
     id="defs10" />
  <sodipodi:namedview
     pagecolor="#ffffff"
     bordercolor="#666666"
     borderopacity="1"
     objecttolerance="10"
     gridtolerance="10"
     guidetolerance="10"
     inkscape:pageopacity="0"
     inkscape:pageshadow="2"
     inkscape:window-width="1920"
     inkscape:window-height="1028"
     id="namedview8"
     showgrid="false"
     inkscape:zoom="7.375"
     inkscape:cx="-0.20338983"
     inkscape:cy="16"
     inkscape:window-x="-8"
     inkscape:window-y="-8"
     inkscape:window-maximized="1"
     inkscape:current-layer="svg2" />
  <g
     id="g4"
     transform="matrix(0.01310421,0,0,-0.01309329,-1.2504201,32.881211)" />
  <path
     d="m 0.2880525,32 5.7265397,-5.761047 q 0.3931263,0 1.5659533,0.189852 1.172827,0.189853 2.8305085,0.379706 1.657683,0.189852 3.203979,0.189852 1.375943,0 2.647051,-0.150572 1.271108,-0.150573 2.725676,-0.569559 1.454566,-0.418985 2.73878,-1.086743 1.284212,-0.667757 2.594633,-1.77414 1.310422,-1.106383 2.378414,-2.546645 1.067994,-1.440262 2.018048,-3.495909 0.950056,-2.055646 1.598714,-4.543371 0.64866,-2.487725 1.022129,-5.7610476 Q 31.711947,3.797054 31.711947,0 29.575963,0.6153846 27.230308,1.2176759 24.884654,1.8199673 23.266284,2.1996727 21.647915,2.5793781 19.878846,3.0376432 18.109778,3.4959083 16.851773,3.888707 15.593769,4.2815057 14.263692,4.8445172 12.933614,5.4075286 11.898383,6.0752864 10.86315,6.7430442 9.8344695,7.6726678 8.8057885,8.6022913 7.8753895,9.7937807 4.5731292,14.036007 4.5731292,19.194763 q 0,1.112929 0.1375941,2.258592 0.1375942,1.145663 0.3341574,2.206219 0.1965631,1.060557 0.2358757,1.466449 l -4.9927039,5.01473 0,1.859247 z m 7.010752,-8.759411 q 0,-0.327332 0.366918,-1.165303 0.563481,-1.335515 1.592162,-2.651391 1.0286815,-1.315875 2.1621935,-2.337152 1.133515,-1.021277 2.633946,-2.06874 1.500432,-1.047463 2.70602,-1.7545 1.205587,-0.707038 2.673258,-1.492636 2.987761,-1.584288 4.167139,-2.369885 2.660154,-1.7675941 4.23266,-4.0720131 0.917295,-1.3486088 1.113858,-1.3486088 0.05241,0 0.05241,0.1047463 0,0.1702127 -0.131043,0.5695581 -0.131039,0.3993453 -0.262081,0.7135843 L 28.475203,5.695581 q -0.825565,1.7021277 -1.906664,3.1489362 -1.081097,1.4468088 -1.945974,2.3436988 -0.864879,0.89689 -2.384967,1.937807 -1.520087,1.040916 -2.260476,1.459902 -0.740388,0.418985 -2.561873,1.400982 L 17.402143,16 q -2.751877,1.479542 -5.431688,3.306056 -2.6798105,1.826514 -3.7019385,3.201309 -0.183459,0.248772 -0.471752,0.556465 -0.288292,0.307692 -0.419334,0.307692 -0.07863,0 -0.07863,-0.130933 z"
     id="path6"
     inkscape:connector-curvature="0" />
</svg>
