<?xml version="1.0" encoding="UTF-8" standalone="no"?>
<svg
   xmlns:dc="http://purl.org/dc/elements/1.1/"
   xmlns:cc="http://creativecommons.org/ns#"
   xmlns:rdf="http://www.w3.org/1999/02/22-rdf-syntax-ns#"
   xmlns:svg="http://www.w3.org/2000/svg"
   xmlns="http://www.w3.org/2000/svg"
   xmlns:sodipodi="http://sodipodi.sourceforge.net/DTD/sodipodi-0.dtd"
   xmlns:inkscape="http://www.inkscape.org/namespaces/inkscape"
   version="1.1"
   width="32px"
   height="32px"
   id="svg2"
   inkscape:version="0.91 r13725"
   sodipodi:docname="leather.svg">
  <metadata
     id="metadata12">
    <rdf:RDF>
      <cc:Work
         rdf:about="">
        <dc:format>image/svg+xml</dc:format>
        <dc:type
           rdf:resource="http://purl.org/dc/dcmitype/StillImage" />
      </cc:Work>
    </rdf:RDF>
  </metadata>
  <defs
     id="defs10" />
  <sodipodi:namedview
     pagecolor="#ffffff"
     bordercolor="#666666"
     borderopacity="1"
     objecttolerance="10"
     gridtolerance="10"
     guidetolerance="10"
     inkscape:pageopacity="0"
     inkscape:pageshadow="2"
     inkscape:window-width="1920"
     inkscape:window-height="1028"
     id="namedview8"
     showgrid="false"
     inkscape:zoom="7.375"
     inkscape:cx="-0.20338983"
     inkscape:cy="16"
     inkscape:window-x="-8"
     inkscape:window-y="-8"
     inkscape:window-maximized="1"
     inkscape:current-layer="svg2" />
  <g
     id="g4"
     transform="matrix(0.01371651,0,0,-0.01371625,-3.0366061,22.637996)" />
  <path
     d="M 0.5140711,26.294042 Q 1.6388243,25.580797 2.4275233,24.243463 3.216222,22.906129 3.4836939,21.315045 3.7511657,19.723961 3.5934259,18.112302 3.4356861,16.500643 2.6332707,15.060437 1.8308555,13.620232 0.5140711,12.756108 -0.1031714,10.163738 0.5757953,8.2571796 1.2547623,6.3506215 3.10649,4.7732533 5.3697129,5.815688 7.0088352,5.7128161 8.6479572,5.6099443 9.7247022,4.7046721 10.801447,3.7993999 11.432407,2.7569653 12.063365,1.7145306 12.323979,0.8504072 L 12.570876,0 19.429128,0 q 0.04115,0.1783112 0.123446,0.4732105 0.0823,0.2948992 0.425209,1.1110158 0.342913,0.8161166 0.774983,1.4882126 0.43207,0.672096 1.22077,1.3784827 0.788697,0.7063866 1.714562,1.0287183 0.925864,0.3223318 2.290656,0.1920275 1.364792,-0.1303043 2.914757,-0.8984141 1.851727,1.563652 2.530694,3.4702101 0.678968,1.9065576 0.06172,4.4989286 -1.111036,0.713245 -1.851728,1.858551 -0.740691,1.145306 -1.042453,2.420917 -0.301763,1.275611 -0.253757,2.674668 0.04801,1.399057 0.425212,2.633519 0.377204,1.234462 1.083604,2.283755 0.706399,1.049293 1.639122,1.652808 -0.10973,2.126018 -1.385367,3.806258 -1.275634,1.68024 -3.113645,1.927132 -1.700847,-1.289327 -2.455255,-1.700814 -2.537552,-1.453922 -4.924223,-0.589799 -1.426516,0.507501 -2.921616,1.837977 l -1.371649,0 Q 14.38145,30.724389 13.469304,30.230604 12.557155,29.73682 11.830181,29.51736 11.103206,29.2979 10.2665,29.393913 q -0.8367058,0.09601 -1.3716508,0.240035 -0.534943,0.14402 -1.323642,0.603514 -0.788699,0.459495 -1.159044,0.720103 -0.370346,0.260609 -1.1247534,0.836691 -0.054866,0.04115 -0.089157,0.06858 -0.034292,0.02743 -0.089157,0.06858 -0.054866,0.04115 -0.096015,0.06858 Q 3.1750726,31.753108 1.8994379,30.086584 0.6238032,28.42006 0.5140711,26.294042 Z M 13.585897,4.8006858 q 0,1.0012859 0.706401,1.7076725 0.706399,0.7063867 1.707704,0.7063867 1.001305,0 1.707704,-0.7063867 0.7064,-0.7063866 0.7064,-1.7076725 0,-1.0012859 -0.7064,-1.7076725 -0.706399,-0.7063866 -1.707704,-0.7063866 -1.001305,0 -1.707704,0.7063866 -0.706401,0.7063866 -0.706401,1.7076725 z"
     id="path6"
     inkscape:connector-curvature="0" />
</svg>
