<?xml version="1.0" encoding="UTF-8" standalone="no"?>
<svg
   xmlns:dc="http://purl.org/dc/elements/1.1/"
   xmlns:cc="http://creativecommons.org/ns#"
   xmlns:rdf="http://www.w3.org/1999/02/22-rdf-syntax-ns#"
   xmlns:svg="http://www.w3.org/2000/svg"
   xmlns="http://www.w3.org/2000/svg"
   xmlns:sodipodi="http://sodipodi.sourceforge.net/DTD/sodipodi-0.dtd"
   xmlns:inkscape="http://www.inkscape.org/namespaces/inkscape"
   version="1.1"
   width="32px"
   height="32px"
   id="svg2"
   inkscape:version="0.91 r13725"
   sodipodi:docname="left_arrow.svg">
  <metadata
     id="metadata12">
    <rdf:RDF>
      <cc:Work
         rdf:about="">
        <dc:format>image/svg+xml</dc:format>
        <dc:type
           rdf:resource="http://purl.org/dc/dcmitype/StillImage" />
      </cc:Work>
    </rdf:RDF>
  </metadata>
  <defs
     id="defs10" />
  <sodipodi:namedview
     pagecolor="#ffffff"
     bordercolor="#666666"
     borderopacity="1"
     objecttolerance="10"
     gridtolerance="10"
     guidetolerance="10"
     inkscape:pageopacity="0"
     inkscape:pageshadow="2"
     inkscape:window-width="1920"
     inkscape:window-height="1028"
     id="namedview8"
     showgrid="false"
     inkscape:zoom="7.375"
     inkscape:cx="-0.20338983"
     inkscape:cy="16"
     inkscape:window-x="-8"
     inkscape:window-y="-8"
     inkscape:window-maximized="1"
     inkscape:current-layer="svg2" />
  <g
     id="g4"
     transform="matrix(0.016008,0,0,0.01607219,-6.8176088,3.6141194)" />
  <path
     d="m 0,16.00075 q 0,0.2893 0.256128,0.498239 l 16.696349,12.954189 q 0.256128,0.208937 0.448224,0.120544 0.192096,-0.0884 0.192096,-0.425914 l 0,-8.325395 13.590795,0 q 0.336168,0 0.576288,-0.24912 Q 32,20.324171 32,20.002728 l 0,-8.003954 q 0,-0.321443 -0.24012,-0.570563 -0.24012,-0.249118 -0.576288,-0.249118 l -13.590795,0 0,-8.3253958 q 0,-0.3375168 -0.192096,-0.4259136 -0.192096,-0.0884 -0.448224,0.104464 L 0.256128,15.502512 Q 0,15.711451 0,16.00075 Z"
     id="path6"
     inkscape:connector-curvature="0" />
</svg>
