<?xml version="1.0" encoding="UTF-8" standalone="no"?>
<svg
   xmlns:dc="http://purl.org/dc/elements/1.1/"
   xmlns:cc="http://creativecommons.org/ns#"
   xmlns:rdf="http://www.w3.org/1999/02/22-rdf-syntax-ns#"
   xmlns:svg="http://www.w3.org/2000/svg"
   xmlns="http://www.w3.org/2000/svg"
   xmlns:sodipodi="http://sodipodi.sourceforge.net/DTD/sodipodi-0.dtd"
   xmlns:inkscape="http://www.inkscape.org/namespaces/inkscape"
   version="1.1"
   width="32px"
   height="32px"
   id="svg2"
   inkscape:version="0.91 r13725"
   sodipodi:docname="left_indent.svg">
  <metadata
     id="metadata12">
    <rdf:RDF>
      <cc:Work
         rdf:about="">
        <dc:format>image/svg+xml</dc:format>
        <dc:type
           rdf:resource="http://purl.org/dc/dcmitype/StillImage" />
      </cc:Work>
    </rdf:RDF>
  </metadata>
  <defs
     id="defs10" />
  <sodipodi:namedview
     pagecolor="#ffffff"
     bordercolor="#666666"
     borderopacity="1"
     objecttolerance="10"
     gridtolerance="10"
     guidetolerance="10"
     inkscape:pageopacity="0"
     inkscape:pageshadow="2"
     inkscape:window-width="1920"
     inkscape:window-height="1028"
     id="namedview8"
     showgrid="false"
     inkscape:zoom="7.375"
     inkscape:cx="-23.322034"
     inkscape:cy="16"
     inkscape:window-x="-8"
     inkscape:window-y="-8"
     inkscape:window-maximized="1"
     inkscape:current-layer="svg2" />
  <g
     id="g4"
     transform="matrix(0.01333333,0,0,-0.01333333,-1.3333333,35)" />
  <path
     d="M 0,17.333334 0,16 4,16 4,13.333333 8.44,16.666667 4,20 l 0,-2.666666 -4,0 z m 9.333333,13.333333 0,-29.3333336 2.666667,0 0,29.3333336 -2.666667,0 z m 4,-3.333333 0,-2.666667 Q 13.333333,24.4 13.526667,24.2 13.72,24 14,24 l 17.333333,0 q 0.28,0 0.473334,0.2 Q 32,24.4 32,24.666667 l 0,2.666667 q 0,0.28 -0.193333,0.473333 Q 31.613333,28 31.333333,28 L 14,28 q -0.28,0 -0.473333,-0.193333 -0.193334,-0.193333 -0.193334,-0.473333 z m 0,-6.666667 0,-2.666667 q 0,-0.266666 0.193334,-0.466666 0.193333,-0.2 0.473333,-0.2 l 10.666667,0 q 0.28,0 0.473333,0.2 0.193333,0.2 0.193333,0.466666 l 0,2.666667 q 0,0.28 -0.193333,0.473333 -0.193333,0.193334 -0.473333,0.193334 l -10.666667,0 q -0.28,0 -0.473333,-0.193334 -0.193334,-0.193333 -0.193334,-0.473333 z m 0,-6.666667 0,-2.666667 q 0,-0.28 0.193334,-0.473333 Q 13.72,10.666667 14,10.666667 l 14.666667,0 q 0.28,0 0.473333,0.193333 0.193333,0.193333 0.193333,0.473333 l 0,2.666667 q 0,0.28 -0.193333,0.473334 -0.193333,0.193333 -0.473333,0.193333 l -14.666667,0 q -0.28,0 -0.473333,-0.193333 Q 13.333333,14.28 13.333333,14 Z m 0,-6.6666667 0,-2.6666667 Q 13.333333,4.4 13.526667,4.2 13.72,4 14,4 l 8,0 q 0.28,0 0.473333,0.2 0.193334,0.2 0.193334,0.4666666 l 0,2.6666667 q 0,0.28 -0.193334,0.4733333 Q 22.28,7.9999999 22,7.9999999 l -8,0 q -0.28,0 -0.473333,-0.1933333 -0.193334,-0.1933333 -0.193334,-0.4733333 z"
     id="path6"
     inkscape:connector-curvature="0" />
</svg>
