<?xml version="1.0" encoding="UTF-8" standalone="no"?>
<svg
   xmlns:dc="http://purl.org/dc/elements/1.1/"
   xmlns:cc="http://creativecommons.org/ns#"
   xmlns:rdf="http://www.w3.org/1999/02/22-rdf-syntax-ns#"
   xmlns:svg="http://www.w3.org/2000/svg"
   xmlns="http://www.w3.org/2000/svg"
   xmlns:sodipodi="http://sodipodi.sourceforge.net/DTD/sodipodi-0.dtd"
   xmlns:inkscape="http://www.inkscape.org/namespaces/inkscape"
   version="1.1"
   width="32px"
   height="32px"
   id="svg2"
   inkscape:version="0.91 r13725"
   sodipodi:docname="life_preserver.svg">
  <metadata
     id="metadata12">
    <rdf:RDF>
      <cc:Work
         rdf:about="">
        <dc:format>image/svg+xml</dc:format>
        <dc:type
           rdf:resource="http://purl.org/dc/dcmitype/StillImage" />
      </cc:Work>
    </rdf:RDF>
  </metadata>
  <defs
     id="defs10" />
  <sodipodi:namedview
     pagecolor="#ffffff"
     bordercolor="#666666"
     borderopacity="1"
     objecttolerance="10"
     gridtolerance="10"
     guidetolerance="10"
     inkscape:pageopacity="0"
     inkscape:pageshadow="2"
     inkscape:window-width="1920"
     inkscape:window-height="1028"
     id="namedview8"
     showgrid="false"
     inkscape:zoom="7.375"
     inkscape:cx="-0.20338983"
     inkscape:cy="16"
     inkscape:window-x="-8"
     inkscape:window-y="-8"
     inkscape:window-maximized="1"
     inkscape:current-layer="svg2" />
  <g
     id="g4"
     transform="matrix(0.01355358,0,0,-0.01355932,-1.761798,33.764325)" />
  <path
     d="M 0,16 Q 0,12.976271 1.1994917,9.979661 2.3989835,6.9830509 4.6895383,4.6915254 6.952986,2.4271186 9.873782,1.2135593 12.794579,0 15.993223,0 q 3.198645,0 6.126218,1.2135593 2.927573,1.2135593 5.177467,3.4779661 2.304109,2.2915255 3.5036,5.2881356 Q 32,12.976271 32,16 q 0,3.023729 -1.199492,6.020339 -1.199491,2.99661 -3.5036,5.288136 -2.249894,2.264406 -5.177467,3.477966 Q 19.191868,32 15.993223,32 12.794579,32 9.873782,30.786441 6.952986,29.572881 4.6895383,27.308475 2.3989835,25.016949 1.1994917,22.020339 0,19.023729 0,16 Z m 2.1821262,0 q 0,3.376271 1.5315544,6.359322 L 7.359593,19.688135 Q 6.614147,17.925424 6.614147,16 q 0,-1.925423 0.745446,-3.688136 L 3.7136806,9.640678 Q 2.1821262,12.623729 2.1821262,16 Z m 6.8377808,1.857627 q 0.494705,1.857627 1.877171,3.240678 1.016518,1.030508 2.331215,1.572882 1.314697,0.542372 2.76493,0.542372 1.450233,0 2.76493,-0.542372 1.314697,-0.542374 2.331216,-1.572882 1.030072,-1.016949 1.572215,-2.332203 Q 23.203727,17.450848 23.203727,16 q 0,-1.450847 -0.542143,-2.766101 -0.542143,-1.315255 -1.572215,-2.332204 -1.016519,-1.0305085 -2.331216,-1.5728814 -1.314697,-0.5423728 -2.76493,-0.5423728 -1.450233,0 -2.76493,0.5423728 -1.314697,0.5423729 -2.331215,1.5728814 -1.382466,1.38305 -1.877171,3.240678 -0.494706,1.857627 0,3.715254 z m 0.616688,10.427118 q 2.981787,1.545763 6.356628,1.545763 3.374841,0 6.356629,-1.545763 l -2.670055,-3.647457 q -1.761966,0.745762 -3.686574,0.745762 -1.924608,0 -3.686573,-0.745762 z m 0,-24.5694908 2.670055,3.6474577 q 1.761965,-0.7457627 3.686573,-0.7457627 1.924608,0 3.686574,0.7457627 l 2.670055,-3.6474577 q -2.981788,-1.5457627 -6.356629,-1.5457627 -3.374841,0 -6.356628,1.5457627 z m 14.990258,15.9728808 3.645913,2.671187 Q 29.80432,19.376271 29.80432,16 q 0,-3.376271 -1.531554,-6.359322 l -3.645913,2.671186 Q 25.3723,14.074577 25.3723,16 q 0,1.925424 -0.745447,3.688135 z"
     id="path6"
     inkscape:connector-curvature="0" />
</svg>
