<?xml version="1.0" encoding="UTF-8" standalone="no"?>
<svg
   xmlns:dc="http://purl.org/dc/elements/1.1/"
   xmlns:cc="http://creativecommons.org/ns#"
   xmlns:rdf="http://www.w3.org/1999/02/22-rdf-syntax-ns#"
   xmlns:svg="http://www.w3.org/2000/svg"
   xmlns="http://www.w3.org/2000/svg"
   xmlns:sodipodi="http://sodipodi.sourceforge.net/DTD/sodipodi-0.dtd"
   xmlns:inkscape="http://www.inkscape.org/namespaces/inkscape"
   version="1.1"
   width="32px"
   height="32px"
   id="svg2"
   inkscape:version="0.91 r13725"
   sodipodi:docname="lightbulb.svg">
  <metadata
     id="metadata12">
    <rdf:RDF>
      <cc:Work
         rdf:about="">
        <dc:format>image/svg+xml</dc:format>
        <dc:type
           rdf:resource="http://purl.org/dc/dcmitype/StillImage" />
      </cc:Work>
    </rdf:RDF>
  </metadata>
  <defs
     id="defs10" />
  <sodipodi:namedview
     pagecolor="#ffffff"
     bordercolor="#666666"
     borderopacity="1"
     objecttolerance="10"
     gridtolerance="10"
     guidetolerance="10"
     inkscape:pageopacity="0"
     inkscape:pageshadow="2"
     inkscape:window-width="1920"
     inkscape:window-height="1028"
     id="namedview8"
     showgrid="false"
     inkscape:zoom="7.375"
     inkscape:cx="-23.322034"
     inkscape:cy="16"
     inkscape:window-x="-8"
     inkscape:window-y="-8"
     inkscape:window-maximized="1"
     inkscape:current-layer="svg2" />
  <g
     id="g4"
     transform="matrix(0.01271355,0,0,-0.01271355,-5.4689253,24.243323)" />
  <path
     d="m 4.4243145,11.658323 q 0,-2.5045685 0.8581645,-4.6722284 Q 6.1406435,4.8184346 7.6535555,3.2864521 9.1664675,1.7544696 11.321414,0.8772348 13.47636,0 15.968215,0 l 0.114422,0 q 2.504569,0 4.646803,0.8772348 2.142233,0.8772348 3.642431,2.4092173 1.500199,1.5319825 2.352006,3.6996425 0.851808,2.1676599 0.851808,4.6722284 0,1.029798 -0.203417,2.008741 -0.203417,0.978943 -0.457688,1.665475 -0.254271,0.686531 -0.756456,1.525625 -0.502185,0.839095 -0.813667,1.258642 -0.311482,0.419547 -0.909019,1.207787 -0.584823,0.762813 -0.845451,1.125149 -0.260627,0.362336 -0.692888,1.061581 -0.432261,0.699245 -0.622964,1.233214 -0.190703,0.533969 -0.349622,1.303139 -0.15892,0.769169 -0.15892,1.59555 0,1.271355 -0.597536,2.123163 l 0,1.690901 q 0,0.152563 -0.317839,0.470402 -0.317839,0.317838 -0.635678,0.559396 l -0.317838,0.241557 0,0.635678 q 0,0.266984 -0.190703,0.451331 Q 19.515295,32 19.248311,32 l -6.356773,0 q -0.266985,0 -0.444974,-0.184346 -0.17799,-0.184347 -0.17799,-0.451331 l 0,-0.635678 q -0.139849,-0.101708 -0.349623,-0.266984 -0.209773,-0.165276 -0.565752,-0.508542 -0.35598,-0.343266 -0.35598,-0.495829 l 0,-1.474771 q -0.800953,-0.864521 -0.800953,-2.339293 0,-0.826381 -0.15892,-1.589193 Q 9.8784265,23.29122 9.6877235,22.750894 9.4970205,22.210568 9.0711165,21.51768 8.6452125,20.824791 8.3782275,20.449742 8.1112435,20.074692 7.5391335,19.324593 6.9543105,18.56178 6.6364718,18.123162 6.3186331,17.684545 5.8291615,16.858164 5.3396899,16.031784 5.085419,15.338896 4.831148,14.646007 4.6277313,13.667064 4.4243145,12.688121 4.4243145,11.658323 Z m 2.5427096,0 q 0,0.978944 0.1843464,1.811681 0.1843465,0.832737 0.616607,1.633691 0.432261,0.800953 0.76917,1.290425 0.336909,0.489472 1.02344,1.392133 0.5085425,0.661105 0.7691705,1.017084 0.260628,0.35598 0.705602,1.036154 0.444974,0.680175 0.686531,1.233215 0.241558,0.553039 0.508542,1.296781 0.266985,0.743743 0.387764,1.55741 0.120778,0.813667 0.120778,1.716329 l 6.52205,0 q 0,-1.067938 0.203417,-2.072308 0.203417,-1.004371 0.464045,-1.716329 0.260627,-0.711959 0.756456,-1.551053 0.495828,-0.839094 0.813667,-1.290425 0.317838,-0.451331 0.915375,-1.226858 1.245928,-1.652761 1.640048,-2.313865 1.055224,-1.79261 1.055224,-3.814065 0,-2.631704 -1.195073,-4.7230826 Q 22.71911,4.8438617 20.665872,3.6932857 18.612634,2.5427096 16.082638,2.5427096 q -4.017481,0 -6.5665475,2.5490663 -2.5490664,2.5490664 -2.5490664,6.5665471 z"
     id="path6"
     inkscape:connector-curvature="0" />
</svg>
