<?xml version="1.0" encoding="UTF-8" standalone="no"?>
<svg
   xmlns:dc="http://purl.org/dc/elements/1.1/"
   xmlns:cc="http://creativecommons.org/ns#"
   xmlns:rdf="http://www.w3.org/1999/02/22-rdf-syntax-ns#"
   xmlns:svg="http://www.w3.org/2000/svg"
   xmlns="http://www.w3.org/2000/svg"
   xmlns:sodipodi="http://sodipodi.sourceforge.net/DTD/sodipodi-0.dtd"
   xmlns:inkscape="http://www.inkscape.org/namespaces/inkscape"
   version="1.1"
   width="32px"
   height="32px"
   id="svg2"
   inkscape:version="0.91 r13725"
   sodipodi:docname="list.svg">
  <metadata
     id="metadata12">
    <rdf:RDF>
      <cc:Work
         rdf:about="">
        <dc:format>image/svg+xml</dc:format>
        <dc:type
           rdf:resource="http://purl.org/dc/dcmitype/StillImage" />
      </cc:Work>
    </rdf:RDF>
  </metadata>
  <defs
     id="defs10" />
  <sodipodi:namedview
     pagecolor="#ffffff"
     bordercolor="#666666"
     borderopacity="1"
     objecttolerance="10"
     gridtolerance="10"
     guidetolerance="10"
     inkscape:pageopacity="0"
     inkscape:pageshadow="2"
     inkscape:window-width="1920"
     inkscape:window-height="1028"
     id="namedview8"
     showgrid="false"
     inkscape:zoom="7.375"
     inkscape:cx="-23.322034"
     inkscape:cy="16"
     inkscape:window-x="-8"
     inkscape:window-y="-8"
     inkscape:window-maximized="1"
     inkscape:current-layer="svg2" />
  <g
     id="g4"
     transform="matrix(0.01333333,0,0,-0.01333333,-1.3333333,35.166667)" />
  <path
     d="M 0,29.333333 0,26.666667 Q 0,26.4 0.1933333,26.2 0.3866667,26 0.6666667,26 l 2.6666666,0 q 0.28,0 0.4733334,0.2 Q 4,26.4 4,26.666667 l 0,2.666666 q 0,0.28 -0.1933333,0.473334 Q 3.6133333,30 3.3333333,30 l -2.6666666,0 q -0.28,0 -0.4733334,-0.193333 Q 0,29.613333 0,29.333333 Z m 0,-8 0,-2.666666 Q 0,18.4 0.1933333,18.2 0.3866667,18 0.6666667,18 l 2.6666666,0 q 0.28,0 0.4733334,0.2 Q 4,18.4 4,18.666667 l 0,2.666666 q 0,0.28 -0.1933333,0.473334 Q 3.6133333,22 3.3333333,22 l -2.6666666,0 q -0.28,0 -0.4733334,-0.193333 Q 0,21.613333 0,21.333333 Z m 0,-8 0,-2.666666 Q 0,10.4 0.1933333,10.2 0.3866667,10 0.6666667,10 l 2.6666666,0 q 0.28,0 0.4733334,0.2 Q 4,10.4 4,10.666667 l 0,2.666666 q 0,0.28 -0.1933333,0.473334 Q 3.6133333,14 3.3333333,14 l -2.6666666,0 q -0.28,0 -0.4733334,-0.193333 Q 0,13.613333 0,13.333333 Z M 0,5.3333333 0,2.6666667 Q 0,2.4 0.1933333,2.2 0.3866667,2 0.6666667,2 l 2.6666666,0 q 0.28,0 0.4733334,0.2 Q 4,2.4 4,2.6666667 l 0,2.6666666 q 0,0.28 -0.1933333,0.4733334 Q 3.6133333,6 3.3333333,6 L 0.6666667,6 Q 0.3866667,6 0.1933333,5.8066667 0,5.6133333 0,5.3333333 Z m 6.666667,23.9999997 0,-2.666666 Q 6.666667,26.4 6.86,26.2 7.053333,26 7.333333,26 l 24,0 q 0.28,0 0.473334,0.2 Q 32,26.4 32,26.666667 l 0,2.666666 q 0,0.28 -0.193333,0.473334 Q 31.613333,30 31.333333,30 l -24,0 Q 7.053333,30 6.86,29.806667 6.666667,29.613333 6.666667,29.333333 Z m 0,-8 0,-2.666666 Q 6.666667,18.4 6.86,18.2 7.053333,18 7.333333,18 l 24,0 q 0.28,0 0.473334,0.2 Q 32,18.4 32,18.666667 l 0,2.666666 q 0,0.28 -0.193333,0.473334 Q 31.613333,22 31.333333,22 l -24,0 Q 7.053333,22 6.86,21.806667 6.666667,21.613333 6.666667,21.333333 Z m 0,-8 0,-2.666666 Q 6.666667,10.4 6.86,10.2 7.053333,10 7.333333,10 l 24,0 q 0.28,0 0.473334,0.2 Q 32,10.4 32,10.666667 l 0,2.666666 q 0,0.28 -0.193333,0.473334 Q 31.613333,14 31.333333,14 l -24,0 Q 7.053333,14 6.86,13.806667 6.666667,13.613333 6.666667,13.333333 Z m 0,-7.9999997 0,-2.6666666 Q 6.666667,2.4 6.86,2.2 7.053333,2 7.333333,2 l 24,0 q 0.28,0 0.473334,0.2 Q 32,2.4 32,2.6666667 l 0,2.6666666 q 0,0.28 -0.193333,0.4733334 Q 31.613333,6 31.333333,6 l -24,0 Q 7.053333,6 6.86,5.8066667 6.666667,5.6133333 6.666667,5.3333333 Z"
     id="path6"
     inkscape:connector-curvature="0" />
</svg>
