<?xml version="1.0" encoding="UTF-8" standalone="no"?>
<svg
   xmlns:dc="http://purl.org/dc/elements/1.1/"
   xmlns:cc="http://creativecommons.org/ns#"
   xmlns:rdf="http://www.w3.org/1999/02/22-rdf-syntax-ns#"
   xmlns:svg="http://www.w3.org/2000/svg"
   xmlns="http://www.w3.org/2000/svg"
   xmlns:sodipodi="http://sodipodi.sourceforge.net/DTD/sodipodi-0.dtd"
   xmlns:inkscape="http://www.inkscape.org/namespaces/inkscape"
   version="1.1"
   width="32px"
   height="32px"
   id="svg2"
   inkscape:version="0.91 r13725"
   sodipodi:docname="log_in.svg">
  <metadata
     id="metadata12">
    <rdf:RDF>
      <cc:Work
         rdf:about="">
        <dc:format>image/svg+xml</dc:format>
        <dc:type
           rdf:resource="http://purl.org/dc/dcmitype/StillImage" />
      </cc:Work>
    </rdf:RDF>
  </metadata>
  <defs
     id="defs10" />
  <sodipodi:namedview
     pagecolor="#ffffff"
     bordercolor="#666666"
     borderopacity="1"
     objecttolerance="10"
     gridtolerance="10"
     guidetolerance="10"
     inkscape:pageopacity="0"
     inkscape:pageshadow="2"
     inkscape:window-width="1920"
     inkscape:window-height="1028"
     id="namedview8"
     showgrid="false"
     inkscape:zoom="7.375"
     inkscape:cx="-0.20338983"
     inkscape:cy="16"
     inkscape:window-x="-8"
     inkscape:window-y="-8"
     inkscape:window-maximized="1"
     inkscape:current-layer="svg2" />
  <g
     id="g4"
     transform="matrix(0.01454545,0,0,-0.01454545,-5.1818182,39.545455)" />
  <path
     d="m 0,18.181818 0,-4.363636 q 0,-0.305455 0.2109091,-0.516364 0.2109091,-0.210909 0.5163636,-0.210909 l 10.9090913,0 0,-3.5927272 q 0,-0.3054545 0.16,-0.3781818 0.16,-0.072727 0.407272,0.1163636 l 7.607273,6.2545454 q 0.232727,0.189091 0.232727,0.465455 0,0.276363 -0.232727,0.465454 l -7.607273,6.341818 q -0.247272,0.189091 -0.407272,0.116364 -0.16,-0.07273 -0.16,-0.378182 l 0,-3.592727 -10.9090913,0 q -0.3054545,0 -0.5163636,-0.210909 Q 0,18.487273 0,18.181818 Z m 5.818182,5.090909 q 0,2.414546 1.709091,4.116364 1.709091,1.701818 4.109091,1.701818 l 14.545454,0 q 2.414546,0 4.116364,-1.701818 Q 32,25.687273 32,23.272727 L 32,8.7272727 Q 32,6.3127273 30.298182,4.6109091 28.596364,2.9090909 26.181818,2.9090909 l -14.545454,0 q -2.4,0 -4.109091,1.7018182 -1.709091,1.7018182 -1.709091,4.1163636 l 0,1.4545453 2.909091,0 0,-2.9090907 q 0,-0.5963637 0.429091,-1.0254546 0.429091,-0.4290909 1.025454,-0.4290909 l 17.454546,0 q 0.596363,0 1.025454,0.4290909 0.429091,0.4290909 0.429091,1.0254546 l 0,17.4545457 q 0,0.596363 -0.429091,1.025454 -0.429091,0.429091 -1.025454,0.429091 l -17.454546,0 q -0.596363,0 -1.025454,-0.429091 -0.429091,-0.429091 -0.429091,-1.025454 l 0,-2.909091 -2.909091,0 0,1.454545 z"
     id="path6"
     inkscape:connector-curvature="0" />
</svg>
