<?xml version="1.0" encoding="UTF-8" standalone="no"?>
<svg
   xmlns:dc="http://purl.org/dc/elements/1.1/"
   xmlns:cc="http://creativecommons.org/ns#"
   xmlns:rdf="http://www.w3.org/1999/02/22-rdf-syntax-ns#"
   xmlns:svg="http://www.w3.org/2000/svg"
   xmlns="http://www.w3.org/2000/svg"
   xmlns:sodipodi="http://sodipodi.sourceforge.net/DTD/sodipodi-0.dtd"
   xmlns:inkscape="http://www.inkscape.org/namespaces/inkscape"
   version="1.1"
   width="32px"
   height="32px"
   id="svg2"
   inkscape:version="0.91 r13725"
   sodipodi:docname="luggage.svg">
  <metadata
     id="metadata12">
    <rdf:RDF>
      <cc:Work
         rdf:about="">
        <dc:format>image/svg+xml</dc:format>
        <dc:type
           rdf:resource="http://purl.org/dc/dcmitype/StillImage" />
      </cc:Work>
    </rdf:RDF>
  </metadata>
  <defs
     id="defs10" />
  <sodipodi:namedview
     pagecolor="#ffffff"
     bordercolor="#666666"
     borderopacity="1"
     objecttolerance="10"
     gridtolerance="10"
     guidetolerance="10"
     inkscape:pageopacity="0"
     inkscape:pageshadow="2"
     inkscape:window-width="1920"
     inkscape:window-height="1028"
     id="namedview8"
     showgrid="false"
     inkscape:zoom="7.375"
     inkscape:cx="-0.20338983"
     inkscape:cy="16"
     inkscape:window-x="-8"
     inkscape:window-y="-8"
     inkscape:window-maximized="1"
     inkscape:current-layer="svg2" />
  <g
     id="g4"
     transform="matrix(0.01185185,0,0,-0.01185185,-3.4814815,25.351852)" />
  <path
     d="m 4.148148,27.259259 0,-16.592592 q 0,-1.46963 1.042963,-2.5125929 1.0429629,-1.042963 2.5125926,-1.042963 l 4.7407404,0 0,-4.7407407 -0.592592,0 q -0.248889,0 -0.420741,-0.1718519 -0.171852,-0.1718518 -0.171852,-0.4207407 l 0,-1.1851852 q 0,-0.2488889 0.171852,-0.4207407 Q 11.602963,0 11.851852,0 l 8.296296,0 q 0.248889,0 0.420741,0.1718519 0.171852,0.1718518 0.171852,0.4207407 l 0,1.1851852 q 0,0.2488889 -0.171852,0.4207407 -0.171852,0.1718519 -0.420741,0.1718519 l -0.592593,0 0,4.7407407 4.740741,0 q 1.46963,0 2.512593,1.042963 1.042963,1.0429629 1.042963,2.5125929 l 0,16.592592 q 0,1.46963 -1.042963,2.512593 -1.042963,1.042963 -2.512593,1.042963 l -1.185185,0 q 0,0.485926 -0.34963,0.835555 Q 22.411852,32 21.925926,32 21.44,32 21.09037,31.65037 20.740741,31.300741 20.740741,30.814815 l -9.481482,0 q 0,0.485926 -0.34963,0.835555 Q 10.56,32 10.074074,32 9.588148,32 9.238518,31.65037 8.888889,31.300741 8.888889,30.814815 l -1.1851854,0 q -1.4696297,0 -2.5125926,-1.042963 -1.042963,-1.042963 -1.042963,-2.512593 z m 2.3703704,0 q 0,0.474074 0.3555555,0.82963 0.3555556,0.355555 0.8296297,0.355555 l 16.5925924,0 q 0.474074,0 0.82963,-0.355555 0.355555,-0.355556 0.355555,-0.82963 l 0,-9.481481 q 0,-0.474074 -0.355555,-0.82963 -0.355556,-0.355555 -0.82963,-0.355555 l -16.5925924,0 q -0.4740741,0 -0.8296297,0.355555 -0.3555555,0.355556 -0.3555555,0.82963 l 0,9.481481 z m 0,-14.222222 q 0,0.474074 0.3555555,0.82963 0.3555556,0.355555 0.8296297,0.355555 l 16.5925924,0 q 0.474074,0 0.82963,-0.355555 0.355555,-0.355556 0.355555,-0.82963 l 0,-2.37037 q 0,-0.474074 -0.355555,-0.82963 -0.355556,-0.3555555 -0.82963,-0.3555555 l -16.5925924,0 q -0.4740741,0 -0.8296297,0.3555555 -0.3555555,0.355556 -0.3555555,0.82963 l 0,2.37037 z m 8.2962966,-5.9259259 2.37037,0 0,-4.7407407 -2.37037,0 0,4.7407407 z"
     id="path6"
     inkscape:connector-curvature="0" />
</svg>
