<?xml version="1.0" encoding="UTF-8" standalone="no"?>
<svg
   xmlns:dc="http://purl.org/dc/elements/1.1/"
   xmlns:cc="http://creativecommons.org/ns#"
   xmlns:rdf="http://www.w3.org/1999/02/22-rdf-syntax-ns#"
   xmlns:svg="http://www.w3.org/2000/svg"
   xmlns="http://www.w3.org/2000/svg"
   xmlns:sodipodi="http://sodipodi.sourceforge.net/DTD/sodipodi-0.dtd"
   xmlns:inkscape="http://www.inkscape.org/namespaces/inkscape"
   version="1.1"
   width="32px"
   height="32px"
   id="svg2"
   inkscape:version="0.91 r13725"
   sodipodi:docname="macbook.svg">
  <metadata
     id="metadata12">
    <rdf:RDF>
      <cc:Work
         rdf:about="">
        <dc:format>image/svg+xml</dc:format>
        <dc:type
           rdf:resource="http://purl.org/dc/dcmitype/StillImage" />
      </cc:Work>
    </rdf:RDF>
  </metadata>
  <defs
     id="defs10" />
  <sodipodi:namedview
     pagecolor="#ffffff"
     bordercolor="#666666"
     borderopacity="1"
     objecttolerance="10"
     gridtolerance="10"
     guidetolerance="10"
     inkscape:pageopacity="0"
     inkscape:pageshadow="2"
     inkscape:window-width="1920"
     inkscape:window-height="1028"
     id="namedview8"
     showgrid="false"
     inkscape:zoom="7.375"
     inkscape:cx="-23.322034"
     inkscape:cy="16"
     inkscape:window-x="-8"
     inkscape:window-y="-8"
     inkscape:window-maximized="1"
     inkscape:current-layer="svg2" />
  <g
     id="g4"
     transform="matrix(0.01142857,0,0,-0.01142857,2,18.357143)" />
  <path
     d="m 0,23.428572 0,-0.571429 q 0,-0.228571 0.1657143,-0.4 0.1657143,-0.171428 0.4057143,-0.171428 l 2.8571428,0 0,-13.7142864 q 0,-0.4685714 0.3371429,-0.8057143 0.3371428,-0.3371428 0.8057143,-0.3371428 l 22.8571424,0 q 0.468572,0 0.805715,0.3371428 0.337143,0.3371428 0.337143,0.8057142 l 0,13.7142865 2.857142,0 q 0.24,0 0.405715,0.171428 Q 32,22.628572 32,22.857143 l 0,0.571429 q 0,0.24 -0.165714,0.405714 Q 31.668571,24 31.428571,24 l -0.571428,0.571429 -29.7142859,0 L 0.5714286,24 q -0.24,0 -0.4057143,-0.165714 Q 0,23.668572 0,23.428572 Z m 5.7142857,-1.142857 20.5714283,0 0,-12.5714294 -20.5714283,0 0,12.5714294 z"
     id="path6"
     inkscape:connector-curvature="0" />
</svg>
