<?xml version="1.0" encoding="UTF-8" standalone="no"?>
<svg
   xmlns:dc="http://purl.org/dc/elements/1.1/"
   xmlns:cc="http://creativecommons.org/ns#"
   xmlns:rdf="http://www.w3.org/1999/02/22-rdf-syntax-ns#"
   xmlns:svg="http://www.w3.org/2000/svg"
   xmlns="http://www.w3.org/2000/svg"
   xmlns:sodipodi="http://sodipodi.sourceforge.net/DTD/sodipodi-0.dtd"
   xmlns:inkscape="http://www.inkscape.org/namespaces/inkscape"
   version="1.1"
   width="32px"
   height="32px"
   id="svg2"
   inkscape:version="0.91 r13725"
   sodipodi:docname="magnet.svg">
  <metadata
     id="metadata12">
    <rdf:RDF>
      <cc:Work
         rdf:about="">
        <dc:format>image/svg+xml</dc:format>
        <dc:type
           rdf:resource="http://purl.org/dc/dcmitype/StillImage" />
      </cc:Work>
    </rdf:RDF>
  </metadata>
  <defs
     id="defs10" />
  <sodipodi:namedview
     pagecolor="#ffffff"
     bordercolor="#666666"
     borderopacity="1"
     objecttolerance="10"
     gridtolerance="10"
     guidetolerance="10"
     inkscape:pageopacity="0"
     inkscape:pageshadow="2"
     inkscape:window-width="1920"
     inkscape:window-height="1028"
     id="namedview8"
     showgrid="false"
     inkscape:zoom="7.375"
     inkscape:cx="-0.20338983"
     inkscape:cy="16"
     inkscape:window-x="-8"
     inkscape:window-y="-8"
     inkscape:window-maximized="1"
     inkscape:current-layer="svg2" />
  <g
     id="g4"
     transform="matrix(0.01391304,0,0,-0.01391304,-3.5434783,33.76087)" />
  <path
     d="m 1.391303,16.695652 0,-6.9565216 8.347826,0 0,6.9286956 q 0,1.293913 0.382609,2.518261 0.382608,1.224348 1.12,2.233043 0.737391,1.008696 1.947826,1.62087 1.210435,0.612174 2.726956,0.612174 l 0.08348,0 0.08348,0 q 1.224348,0 2.253913,-0.403478 1.029565,-0.403479 1.746087,-1.085218 0.716522,-0.681739 1.217391,-1.586087 0.50087,-0.904348 0.730435,-1.892174 0.229565,-0.987826 0.229565,-2.017391 l 0,-6.9286956 8.347826,0 0,6.9565216 q 0,3.227826 -1.12,6.073044 -1.12,2.845217 -3.053913,4.869565 -1.933913,2.024348 -4.626087,3.193043 Q 19.11652,32 16.083477,32 l -0.08348,0 -0.08348,0 Q 13.481735,32 11.255648,31.255652 9.029564,30.511304 7.248694,29.12 5.4678247,27.728696 4.1460856,25.864348 2.8243465,24 2.1078247,21.634783 1.391303,19.269565 1.391303,16.695652 Z m 0,-9.7391303 0,-5.5652174 q 0,-0.5704347 0.4104348,-0.9808695 Q 2.2121726,0 2.7826073,0 L 8.347825,0 Q 8.91826,0 9.328694,0.4104348 9.739129,0.8208696 9.739129,1.3913043 l 0,5.5652174 -8.347826,0 z m 20.869565,0 0,-5.5652174 q 0,-0.5704347 0.410435,-0.9808695 Q 23.081738,0 23.652173,0 l 5.565217,0 q 0.570435,0 0.98087,0.4104348 0.410434,0.4104348 0.410434,0.9808695 l 0,5.5652174 -8.347826,0 z"
     id="path6"
     inkscape:connector-curvature="0" />
</svg>
