<?xml version="1.0" encoding="UTF-8" standalone="no"?>
<svg
   xmlns:dc="http://purl.org/dc/elements/1.1/"
   xmlns:cc="http://creativecommons.org/ns#"
   xmlns:rdf="http://www.w3.org/1999/02/22-rdf-syntax-ns#"
   xmlns:svg="http://www.w3.org/2000/svg"
   xmlns="http://www.w3.org/2000/svg"
   xmlns:sodipodi="http://sodipodi.sourceforge.net/DTD/sodipodi-0.dtd"
   xmlns:inkscape="http://www.inkscape.org/namespaces/inkscape"
   version="1.1"
   width="32px"
   height="32px"
   id="svg2"
   inkscape:version="0.91 r13725"
   sodipodi:docname="male.svg">
  <metadata
     id="metadata12">
    <rdf:RDF>
      <cc:Work
         rdf:about="">
        <dc:format>image/svg+xml</dc:format>
        <dc:type
           rdf:resource="http://purl.org/dc/dcmitype/StillImage" />
      </cc:Work>
    </rdf:RDF>
  </metadata>
  <defs
     id="defs10" />
  <sodipodi:namedview
     pagecolor="#ffffff"
     bordercolor="#666666"
     borderopacity="1"
     objecttolerance="10"
     gridtolerance="10"
     guidetolerance="10"
     inkscape:pageopacity="0"
     inkscape:pageshadow="2"
     inkscape:window-width="1920"
     inkscape:window-height="1028"
     id="namedview8"
     showgrid="false"
     inkscape:zoom="7.375"
     inkscape:cx="-0.20338983"
     inkscape:cy="16"
     inkscape:window-x="-8"
     inkscape:window-y="-8"
     inkscape:window-maximized="1"
     inkscape:current-layer="svg2" />
  <g
     id="g4"
     transform="matrix(0.01464288,0,0,-0.01464287,-4.6330949,35.922198)" />
  <path
     d="m 0.25624614,21.193559 q 0,-2.928573 1.44964466,-5.417861 1.4496447,-2.489288 3.9389335,-3.938932 2.48929,-1.449646 5.4178637,-1.449646 2.547859,0 4.846793,1.17143 L 21.678773,5.7892596 17.988768,2.099255 Q 17.84234,1.9528263 17.88627,1.8283619 17.9302,1.7038975 18.135199,1.6746118 L 31.299144,0.00532473 q 0.205002,-0.029286 0.336787,0.1025001 0.131783,0.1317858 0.102498,0.336786 L 29.96664,13.608553 q -0.02929,0.205 -0.15375,0.248929 -0.124462,0.04393 -0.270893,-0.1025 l -3.587504,-3.690005 -5.622865,5.622864 q 1.52286,2.533216 1.52286,5.505718 0,2.928576 -1.449645,5.417864 -1.449645,2.489287 -3.931612,3.938931 Q 13.991263,32 11.062688,32 8.1341143,32 5.6448243,30.550354 3.1555355,29.10071 1.7058908,26.611423 0.25624614,24.122135 0.25624614,21.193559 Z m 5.85715016,0 q 0,2.050004 1.449645,3.499648 1.449645,1.449644 3.4996467,1.449644 2.03536,0 3.485005,-1.449644 1.449645,-1.449644 1.449645,-3.499648 0,-2.050001 -1.449645,-3.499645 -1.449645,-1.449644 -3.485005,-1.449644 -2.0500017,0 -3.4996467,1.449644 -1.449645,1.449644 -1.449645,3.499645 z"
     id="path6"
     inkscape:connector-curvature="0" />
</svg>
