<?xml version="1.0" encoding="UTF-8" standalone="no"?>
<svg
   xmlns:dc="http://purl.org/dc/elements/1.1/"
   xmlns:cc="http://creativecommons.org/ns#"
   xmlns:rdf="http://www.w3.org/1999/02/22-rdf-syntax-ns#"
   xmlns:svg="http://www.w3.org/2000/svg"
   xmlns="http://www.w3.org/2000/svg"
   xmlns:sodipodi="http://sodipodi.sourceforge.net/DTD/sodipodi-0.dtd"
   xmlns:inkscape="http://www.inkscape.org/namespaces/inkscape"
   version="1.1"
   width="32px"
   height="32px"
   id="svg2"
   inkscape:version="0.91 r13725"
   sodipodi:docname="message_new.svg">
  <metadata
     id="metadata12">
    <rdf:RDF>
      <cc:Work
         rdf:about="">
        <dc:format>image/svg+xml</dc:format>
        <dc:type
           rdf:resource="http://purl.org/dc/dcmitype/StillImage" />
      </cc:Work>
    </rdf:RDF>
  </metadata>
  <defs
     id="defs10" />
  <sodipodi:namedview
     pagecolor="#ffffff"
     bordercolor="#666666"
     borderopacity="1"
     objecttolerance="10"
     gridtolerance="10"
     guidetolerance="10"
     inkscape:pageopacity="0"
     inkscape:pageshadow="2"
     inkscape:window-width="1920"
     inkscape:window-height="1028"
     id="namedview8"
     showgrid="false"
     inkscape:zoom="7.375"
     inkscape:cx="-0.20338983"
     inkscape:cy="16"
     inkscape:window-x="-8"
     inkscape:window-y="-8"
     inkscape:window-maximized="1"
     inkscape:current-layer="svg2" />
  <g
     id="g4"
     transform="matrix(0.01142857,0,0,0.01142857,-0.28571429,7.5714286)" />
  <path
     d="m 0,28.571429 8,-8 5.714286,5.714286 5.714285,-5.714286 8,8 -27.428571,0 z m 0,-2.285714 0,-13.714286 6.8571429,6.857143 z m 0,-16.000001 20.971429,0 q 0.8,2.262858 2.891428,3.565715 L 13.714286,24 Z M 20.571429,19.428572 25.44,14.56 q 0.96,0.297143 1.988571,0.297143 l 0,11.428572 z m 2.285714,-10.7200005 0,-1.3714286 q 0,-0.1142857 0.07429,-0.2971429 0.07428,-0.1828571 0.154281,-0.1828571 l 2.137143,0 L 23.828571,5.6 q -0.08,-0.068571 -0.08,-0.1028571 0,-0.034286 0.05714,-0.1028572 l 0.948572,-0.96 q 0.125714,-0.1371428 0.262857,0 l 1.268571,1.3714286 0,-2.1257143 q 0,-0.091429 0.171429,-0.1714285 0.171431,-0.08 0.285717,-0.08 l 1.371429,0 q 0.114285,0 0.285714,0.08 0.171429,0.08 0.171429,0.1714285 l 0,2.1371429 L 29.84,4.4228572 q 0.125714,-0.1257144 0.217143,-0.022857 l 0.971428,0.9371428 q 0.114286,0.1257143 0,0.2628572 l -1.382857,1.2571429 2.125715,0 q 0.08,0 0.154285,0.182857 Q 32,7.2228571 32,7.3371428 l 0,1.3714287 q 0,0.1142857 -0.07429,0.2742857 -0.07428,0.16 -0.154281,0.16 l -2.125715,0 L 31.04,10.422857 q 0.114286,0.125714 0.01143,0.228572 l -0.937143,0.96 q -0.137143,0.137143 -0.274286,0 l -1.268571,-1.382858 0,2.137144 q 0,0.08 -0.165715,0.142857 -0.165715,0.06286 -0.291429,0.06286 l -1.371429,0 q -0.125714,0 -0.291428,-0.06286 -0.165715,-0.06286 -0.165715,-0.142857 l 0,-2.125715 -1.268571,1.394286 q -0.102857,0.114286 -0.205714,0.01143 L 23.84,10.697143 q -0.137143,-0.137143 0,-0.274286 l 1.382857,-1.2799998 -2.137143,0 q -0.08,0 -0.154285,-0.16 -0.07429,-0.16 -0.07429,-0.2742857 z"
     id="path6"
     inkscape:connector-curvature="0" />
</svg>
