<?xml version="1.0" encoding="UTF-8" standalone="no"?>
<svg
   xmlns:dc="http://purl.org/dc/elements/1.1/"
   xmlns:cc="http://creativecommons.org/ns#"
   xmlns:rdf="http://www.w3.org/1999/02/22-rdf-syntax-ns#"
   xmlns:svg="http://www.w3.org/2000/svg"
   xmlns="http://www.w3.org/2000/svg"
   xmlns:sodipodi="http://sodipodi.sourceforge.net/DTD/sodipodi-0.dtd"
   xmlns:inkscape="http://www.inkscape.org/namespaces/inkscape"
   version="1.1"
   width="32px"
   height="32px"
   id="svg2"
   inkscape:version="0.91 r13725"
   sodipodi:docname="message_ban.svg">
  <metadata
     id="metadata12">
    <rdf:RDF>
      <cc:Work
         rdf:about="">
        <dc:format>image/svg+xml</dc:format>
        <dc:type
           rdf:resource="http://purl.org/dc/dcmitype/StillImage" />
      </cc:Work>
    </rdf:RDF>
  </metadata>
  <defs
     id="defs10" />
  <sodipodi:namedview
     pagecolor="#ffffff"
     bordercolor="#666666"
     borderopacity="1"
     objecttolerance="10"
     gridtolerance="10"
     guidetolerance="10"
     inkscape:pageopacity="0"
     inkscape:pageshadow="2"
     inkscape:window-width="1920"
     inkscape:window-height="1028"
     id="namedview8"
     showgrid="false"
     inkscape:zoom="7.375"
     inkscape:cx="-23.322034"
     inkscape:cy="16"
     inkscape:window-x="-8"
     inkscape:window-y="-8"
     inkscape:window-maximized="1"
     inkscape:current-layer="svg2" />
  <g
     id="g4"
     transform="matrix(0.01103448,0,0,-0.01103448,-0.15517241,22.460862)" />
  <path
     d="m 0,28.651034 7.7241379,-7.724138 5.5172411,5.517241 5.517242,-5.517241 7.724138,7.724138 -26.482759,0 z m 0,-2.206897 0,-13.241379 6.6206897,6.62069 z m 0,-15.448275 19.023448,0 q 0.717242,2.891034 3.10069,4.35862 l -8.882759,8.882759 z m 19.862069,8.827586 3.773793,-3.773793 q 1.324138,0.463448 2.846897,0.463448 l 0,9.931034 z M 21.064828,8.8110345 q 0,-1.4786207 0.733793,-2.7365517 0.733793,-1.2579311 1.997241,-1.9917242 1.263448,-0.7337931 2.742069,-0.7337931 1.478621,0 2.736552,0.7337931 1.257931,0.7337931 1.991724,1.9917242 Q 32,7.3324138 32,8.8110345 q 0,1.4786205 -0.733793,2.7365515 -0.733793,1.257931 -1.991724,1.991724 -1.257931,0.733793 -2.736552,0.733793 -1.478621,0 -2.742069,-0.733793 -1.263448,-0.733793 -1.997241,-1.991724 -0.733793,-1.257931 -0.733793,-2.7365515 z m 1.368275,0 q 0,1.1696552 0.64,2.1848275 l 5.649656,-5.6496551 q -1.026207,-0.64 -2.184828,-0.64 -1.69931,0 -2.902069,1.2027586 -1.202759,1.2027587 -1.202759,2.902069 z m 1.92,3.4648275 q 0.993104,0.628966 2.184828,0.628966 1.69931,0 2.896552,-1.197241 1.197241,-1.197242 1.197241,-2.8965525 0,-1.1917241 -0.628965,-2.1848276 z"
     id="path6"
     inkscape:connector-curvature="0" />
</svg>
