<?xml version="1.0" encoding="UTF-8" standalone="no"?>
<svg
   xmlns:dc="http://purl.org/dc/elements/1.1/"
   xmlns:cc="http://creativecommons.org/ns#"
   xmlns:rdf="http://www.w3.org/1999/02/22-rdf-syntax-ns#"
   xmlns:svg="http://www.w3.org/2000/svg"
   xmlns="http://www.w3.org/2000/svg"
   xmlns:sodipodi="http://sodipodi.sourceforge.net/DTD/sodipodi-0.dtd"
   xmlns:inkscape="http://www.inkscape.org/namespaces/inkscape"
   version="1.1"
   width="32px"
   height="32px"
   id="svg2"
   inkscape:version="0.91 r13725"
   sodipodi:docname="message_out.svg">
  <metadata
     id="metadata12">
    <rdf:RDF>
      <cc:Work
         rdf:about="">
        <dc:format>image/svg+xml</dc:format>
        <dc:type
           rdf:resource="http://purl.org/dc/dcmitype/StillImage" />
      </cc:Work>
    </rdf:RDF>
  </metadata>
  <defs
     id="defs10" />
  <sodipodi:namedview
     pagecolor="#ffffff"
     bordercolor="#666666"
     borderopacity="1"
     objecttolerance="10"
     gridtolerance="10"
     guidetolerance="10"
     inkscape:pageopacity="0"
     inkscape:pageshadow="2"
     inkscape:window-width="1920"
     inkscape:window-height="1028"
     id="namedview8"
     showgrid="false"
     inkscape:zoom="7.375"
     inkscape:cx="-0.20338983"
     inkscape:cy="16"
     inkscape:window-x="-8"
     inkscape:window-y="-8"
     inkscape:window-maximized="1"
     inkscape:current-layer="svg2" />
  <g
     id="g4"
     transform="matrix(0.01142857,0,0,-0.01142857,-0.57142857,32.285714)" />
  <path
     d="m 2.2857145,32 9.1428565,-9.142857 9.142857,0 L 29.714285,32 2.2857145,32 Z m 0,-2.285714 0,-16 7.9999995,8 z m 0,-16 L 16,0 l 13.714285,13.714286 -2.285714,0 -8,8 -6.857142,0 -8.0000002,-8 -2.2857143,0 z m 8.0285705,-1.268572 q 0.04,0.125715 0.154286,0.125715 l 3.245714,0 0,5.257142 q 0,0.457143 0.514286,0.457143 l 3.554286,0 q 0.502857,0 0.502857,-0.457143 l 0,-5.257142 3.245714,0 q 0.125715,0 0.16,-0.131429 0.03429,-0.131429 -0.04571,-0.234286 l -5.47429,-6.5028569 q -0.08,-0.1028571 -0.188571,-0.12 -0.108572,-0.017143 -0.188572,0.085714 l -5.44,6.5485719 q -0.08,0.102857 -0.04,0.228571 z m 11.4,9.268572 8,-8 0,16 z"
     id="path6"
     inkscape:connector-curvature="0" />
</svg>
