<?xml version="1.0" encoding="UTF-8" standalone="no"?>
<svg
   xmlns:dc="http://purl.org/dc/elements/1.1/"
   xmlns:cc="http://creativecommons.org/ns#"
   xmlns:rdf="http://www.w3.org/1999/02/22-rdf-syntax-ns#"
   xmlns:svg="http://www.w3.org/2000/svg"
   xmlns="http://www.w3.org/2000/svg"
   xmlns:sodipodi="http://sodipodi.sourceforge.net/DTD/sodipodi-0.dtd"
   xmlns:inkscape="http://www.inkscape.org/namespaces/inkscape"
   version="1.1"
   width="32px"
   height="32px"
   id="svg2"
   inkscape:version="0.91 r13725"
   sodipodi:docname="message_forward.svg">
  <metadata
     id="metadata12">
    <rdf:RDF>
      <cc:Work
         rdf:about="">
        <dc:format>image/svg+xml</dc:format>
        <dc:type
           rdf:resource="http://purl.org/dc/dcmitype/StillImage" />
      </cc:Work>
    </rdf:RDF>
  </metadata>
  <defs
     id="defs10" />
  <sodipodi:namedview
     pagecolor="#ffffff"
     bordercolor="#666666"
     borderopacity="1"
     objecttolerance="10"
     gridtolerance="10"
     guidetolerance="10"
     inkscape:pageopacity="0"
     inkscape:pageshadow="2"
     inkscape:window-width="1920"
     inkscape:window-height="1028"
     id="namedview8"
     showgrid="false"
     inkscape:zoom="7.375"
     inkscape:cx="-23.322034"
     inkscape:cy="16"
     inkscape:window-x="-8"
     inkscape:window-y="-8"
     inkscape:window-maximized="1"
     inkscape:current-layer="svg2" />
  <g
     id="g4"
     transform="matrix(0.01093643,0,0,-0.01093643,-0.12829118,36.957967)" />
  <path
     d="M 0,15.989045 Q 0,15.797658 0.1749829,15.66642 L 11.680109,7.190686 q 0.174983,-0.1312372 0.300752,-0.065619 0.125769,0.065619 0.125769,0.2843472 l 0,2.6356798 -7.6226929,5.621326 q -0.1749829,0.131238 -0.1749829,0.322625 0,0.191388 0.1749829,0.322625 l 7.6117569,5.643199 0,2.63568 q 0,0.218729 -0.131237,0.284347 -0.131238,0.06562 -0.30622,-0.06562 L 0.1749829,16.31167 Q 0,16.180433 0,15.989045 Z m 7.5242652,0 q 0,-0.191387 0.1749829,-0.322625 L 19.204375,7.190686 q 0.174982,-0.1312372 0.300751,-0.065619 0.125769,0.065619 0.125769,0.2843472 l 0,4.8557758 q 0.503076,0.04375 1.055366,0.114833 0.55229,0.07109 1.449077,0.27341 0.896788,0.202324 1.738893,0.481203 0.842105,0.278879 1.848257,0.765551 1.006152,0.486671 1.859193,1.093643 0.853042,0.606972 1.673275,1.509227 0.820232,0.902256 1.405331,1.96309 0.585099,1.060834 0.95147,2.498975 0.36637,1.438141 0.388243,3.089542 -0.382775,-0.896788 -1.000684,-1.629529 -0.617908,-0.732741 -1.356117,-1.219412 -0.738209,-0.486671 -1.618592,-0.863978 -0.880383,-0.377307 -1.77717,-0.574163 -0.896788,-0.196855 -1.831853,-0.339029 -0.935065,-0.142174 -1.782638,-0.164046 -0.847573,-0.02187 -1.629528,-0.04921 -0.781955,-0.02734 -1.383459,0.0055 l 0,5.369788 q 0,0.218729 -0.131237,0.284347 -0.131237,0.06562 -0.30622,-0.06562 L 7.6992481,16.31167 Q 7.5242652,16.180433 7.5242652,15.989045 Z"
     id="path6"
     inkscape:connector-curvature="0" />
</svg>
