<?xml version="1.0" encoding="UTF-8" standalone="no"?>
<svg
   xmlns:dc="http://purl.org/dc/elements/1.1/"
   xmlns:cc="http://creativecommons.org/ns#"
   xmlns:rdf="http://www.w3.org/1999/02/22-rdf-syntax-ns#"
   xmlns:svg="http://www.w3.org/2000/svg"
   xmlns="http://www.w3.org/2000/svg"
   xmlns:sodipodi="http://sodipodi.sourceforge.net/DTD/sodipodi-0.dtd"
   xmlns:inkscape="http://www.inkscape.org/namespaces/inkscape"
   version="1.1"
   width="32px"
   height="32px"
   id="svg2"
   inkscape:version="0.91 r13725"
   sodipodi:docname="message_flag.svg">
  <metadata
     id="metadata12">
    <rdf:RDF>
      <cc:Work
         rdf:about="">
        <dc:format>image/svg+xml</dc:format>
        <dc:type
           rdf:resource="http://purl.org/dc/dcmitype/StillImage" />
      </cc:Work>
    </rdf:RDF>
  </metadata>
  <defs
     id="defs10" />
  <sodipodi:namedview
     pagecolor="#ffffff"
     bordercolor="#666666"
     borderopacity="1"
     objecttolerance="10"
     gridtolerance="10"
     guidetolerance="10"
     inkscape:pageopacity="0"
     inkscape:pageshadow="2"
     inkscape:window-width="1920"
     inkscape:window-height="1028"
     id="namedview8"
     showgrid="false"
     inkscape:zoom="7.375"
     inkscape:cx="-0.20338983"
     inkscape:cy="16"
     inkscape:window-x="-8"
     inkscape:window-y="-8"
     inkscape:window-maximized="1"
     inkscape:current-layer="svg2" />
  <g
     id="g4"
     transform="matrix(0.01185185,0,0,-0.01185185,-0.46296296,22.166667)" />
  <path
     d="m 0,27.25926 0,-14.222223 7.1111111,7.111112 z m 0.035556,2.37037 8.296296,-8.296296 5.925926,5.925926 5.925926,-5.925926 8.296296,8.296296 -28.444444,0 z m 0,-18.962963 22.482963,0 0,1.777778 q 0,0.829629 0.432592,1.528889 0.432593,0.699259 1.143704,1.078518 l -9.837037,9.837037 z m 21.297777,9.481482 4.823704,-4.823704 q 0.817778,-0.201482 1.41037,-0.794074 Q 28.16,13.937778 28.361481,13.12 l 0.08296,-0.08296 0,14.222223 z m 3.555556,-7.703704 0,-10.0740746 6.518518,0 q 0.248889,0 0.420741,0.1777778 Q 32,2.7259259 32,2.962963 l 0,3.5555555 q 0,0.2488889 -0.16,0.4859259 -0.16,0.2370371 -0.385185,0.3318519 l -5.380741,2.1451852 0,2.9629635 q 0,0.248889 -0.171852,0.420741 -0.171852,0.171851 -0.420741,0.171851 -0.248888,0 -0.42074,-0.171851 -0.171852,-0.171852 -0.171852,-0.420741 z"
     id="path6"
     inkscape:connector-curvature="0" />
</svg>
