<?xml version="1.0" encoding="UTF-8" standalone="no"?>
<!-- Created with Inkscape (http://www.inkscape.org/) -->

<svg
   xmlns:dc="http://purl.org/dc/elements/1.1/"
   xmlns:cc="http://creativecommons.org/ns#"
   xmlns:rdf="http://www.w3.org/1999/02/22-rdf-syntax-ns#"
   xmlns:svg="http://www.w3.org/2000/svg"
   xmlns="http://www.w3.org/2000/svg"
   xmlns:sodipodi="http://sodipodi.sourceforge.net/DTD/sodipodi-0.dtd"
   xmlns:inkscape="http://www.inkscape.org/namespaces/inkscape"
   width="32px"
   height="32px"
   id="svg3096"
   version="1.1"
   inkscape:version="0.91 r13725"
   sodipodi:docname="metrix_scorecard.svg">
  <defs
     id="defs3098" />
  <sodipodi:namedview
     id="base"
     pagecolor="#ffffff"
     bordercolor="#666666"
     borderopacity="1.0"
     inkscape:pageopacity="0.0"
     inkscape:pageshadow="2"
     inkscape:zoom="11.197802"
     inkscape:cx="5.3282628"
     inkscape:cy="16"
     inkscape:current-layer="layer1"
     showgrid="true"
     inkscape:grid-bbox="true"
     inkscape:document-units="px"
     inkscape:window-width="1920"
     inkscape:window-height="1028"
     inkscape:window-x="-8"
     inkscape:window-y="-8"
     inkscape:window-maximized="1" />
  <metadata
     id="metadata3101">
    <rdf:RDF>
      <cc:Work
         rdf:about="">
        <dc:format>image/svg+xml</dc:format>
        <dc:type
           rdf:resource="http://purl.org/dc/dcmitype/StillImage" />
        <dc:title />
      </cc:Work>
    </rdf:RDF>
  </metadata>
  <g
     id="layer1"
     inkscape:label="Layer 1"
     inkscape:groupmode="layer">
    <path
       style="fill:#000000"
       d="M 0.5626374,0.24643285 C 0.2509363,0.24643285 0,0.49736465 0,0.80906028 L 0,30.065689 0,31.190944 c 0,0.311695 0.2509363,0.562627 0.5626374,0.562627 l 1.1252747,0 29.2571429,0 c 0.311701,0 0.562637,-0.250932 0.562637,-0.562627 l 0,-1.125255 c 0,-0.311696 -0.250936,-0.562628 -0.562637,-0.562628 l -1.687912,0 c 0.0071,-0.03577 0,-0.06758 0,-0.105493 l 0,-2.250509 c 0,-0.311696 -0.250936,-0.562628 -0.562638,-0.562628 -0.311701,0 -0.562637,0.250932 -0.562637,0.562628 l 0,2.250509 c 0,0.03791 -0.0071,0.06972 0,0.105493 l -5.626373,0 0,-1.230747 c 0,-0.311696 -0.250937,-0.562628 -0.562638,-0.562628 -0.311701,0 -0.562637,0.250932 -0.562637,0.562628 l 0,1.230747 -5.063736,0 c 0.0071,-0.03577 0,-0.06758 0,-0.105493 l 0,-2.250509 c 0,-0.311696 -0.250937,-0.562628 -0.562638,-0.562628 -0.311701,0 -0.562637,0.250932 -0.562637,0.562628 l 0,2.250509 c 0,0.03791 -0.0071,0.06972 0,0.105493 l -6.224176,0 0,-1.230747 c 0,-0.311696 -0.250936,-0.562628 -0.562637,-0.562628 -0.311701,0 -0.5626378,0.250932 -0.5626378,0.562628 l 0,1.230747 -4.465934,0 10.1978018,-12.166819 2.742858,5.907589 c 0.03835,0.082 0.119504,0.07087 0.175824,0 l 2.848351,-3.586751 c 0.03479,-0.04377 0.07006,-0.114198 0.07033,-0.175821 L 29.784615,7.0331266 30.804396,7.9825605 31.507692,4.9232736 c 0.04669,-0.081701 0.08496,-0.1572903 0.07033,-0.2461495 L 32,2.8485848 30.101099,3.4112123 C 29.99544,3.4003311 29.904533,3.4456113 29.81978,3.5167049 l -2.883516,0.8439412 1.195604,1.125255 -9.775824,11.7096839 -2.707692,-5.83726 c -0.03835,-0.082 -0.119505,-0.07087 -0.175825,0 l -2.883516,3.621915 c -0.0084,0.01058 0.0065,0.02249 0,0.03516 l -10.3384615,12.34264 0,-3.938392 1.1604395,0 c 0.3117011,0 0.5626374,-0.250932 0.5626374,-0.562628 0,-0.311695 -0.2509363,-0.562627 -0.5626374,-0.562627 l -1.1604395,0 0,-5.731768 2.0395604,0 c 0.3117011,0 0.5626374,-0.250932 0.5626374,-0.562627 0,-0.311696 -0.2509363,-0.562628 -0.5626374,-0.562628 l -2.0395604,0 0,-5.5559457 1.2307692,0 c 0.3117011,0 0.5626373,-0.2509319 0.5626373,-0.5626275 0,-0.3116956 -0.2509362,-0.5626274 -0.5626373,-0.5626274 l -1.2307692,0 0,-5.6262748 2.0395604,0 c 0.3117011,0 0.5626374,-0.2509318 0.5626374,-0.5626275 0,-0.3116956 -0.2509363,-0.5626274 -0.5626374,-0.5626274 l -2.0395604,0 0,-1.19558342 c 0,-0.31169563 -0.2509363,-0.56262743 -0.5626374,-0.56262743 l -1.1252747,0 z"
       id="rect2984"
       inkscape:connector-curvature="0" />
  </g>
</svg>
