<?xml version="1.0" encoding="UTF-8" standalone="no"?>
<svg
   xmlns:dc="http://purl.org/dc/elements/1.1/"
   xmlns:cc="http://creativecommons.org/ns#"
   xmlns:rdf="http://www.w3.org/1999/02/22-rdf-syntax-ns#"
   xmlns:svg="http://www.w3.org/2000/svg"
   xmlns="http://www.w3.org/2000/svg"
   xmlns:sodipodi="http://sodipodi.sourceforge.net/DTD/sodipodi-0.dtd"
   xmlns:inkscape="http://www.inkscape.org/namespaces/inkscape"
   version="1.1"
   width="32px"
   height="32px"
   id="svg2"
   inkscape:version="0.91 r13725"
   sodipodi:docname="microphone.svg">
  <metadata
     id="metadata12">
    <rdf:RDF>
      <cc:Work
         rdf:about="">
        <dc:format>image/svg+xml</dc:format>
        <dc:type
           rdf:resource="http://purl.org/dc/dcmitype/StillImage" />
      </cc:Work>
    </rdf:RDF>
  </metadata>
  <defs
     id="defs10" />
  <sodipodi:namedview
     pagecolor="#ffffff"
     bordercolor="#666666"
     borderopacity="1"
     objecttolerance="10"
     gridtolerance="10"
     guidetolerance="10"
     inkscape:pageopacity="0"
     inkscape:pageshadow="2"
     inkscape:window-width="1920"
     inkscape:window-height="1028"
     id="namedview8"
     showgrid="false"
     inkscape:zoom="7.375"
     inkscape:cx="-0.20338983"
     inkscape:cy="16"
     inkscape:window-x="-8"
     inkscape:window-y="-8"
     inkscape:window-maximized="1"
     inkscape:current-layer="svg2" />
  <g
     id="g4"
     transform="matrix(0.01333333,0,0,-0.01333333,-7.8333333,33.333333)" />
  <path
     d="m 4.6666665,11.333333 q 0,-0.28 0.1933333,-0.473333 0.1933334,-0.193333 0.4733334,-0.193333 l 3.3333333,0 0,6.68 q 0,1.4 0.44,2.56 0.44,1.16 1.1733335,1.933333 0.733334,0.773333 1.706667,1.313333 Q 12.96,23.693333 14,23.94 q 1.04,0.246667 2.106666,0.246667 1.293333,0 2.586667,-0.526667 1.293333,-0.526667 2.32,-1.413333 1.026666,-0.886667 1.673333,-2.18 0.646667,-1.293334 0.646667,-2.72 l 0,-6.68 3.333333,0 q 0.28,0 0.473333,0.193333 0.193334,0.193333 0.193334,0.473333 0,0.28 -0.193334,0.506667 -0.193333,0.226667 -0.46,0.266667 l -0.68,0.12 0,5.12 q 0,1.493333 -0.44,2.833333 -0.44,1.34 -1.133333,2.306667 -0.693333,0.966666 -1.6,1.753333 -0.906667,0.786667 -1.773333,1.26 -0.866667,0.473333 -1.72,0.753333 l 0,1.573334 4,1.813333 0,2.36 -14.6666665,0 0,-2.36 4.0000005,-1.813333 0,-1.573334 q -0.853333,-0.28 -1.72,-0.753333 Q 10.08,25.026667 9.1733335,24.24 q -0.906667,-0.786667 -1.6,-1.753333 Q 6.8799998,21.52 6.4399998,20.18 q -0.44,-1.34 -0.44,-2.833333 l 0,-5.12 -0.68,-0.12 q -0.2666666,-0.04 -0.46,-0.266667 -0.1933333,-0.226667 -0.1933333,-0.506667 z m 5.333333,5.186667 0,-4.52 L 22,12 l 0,4.52 q 0,0.426667 -0.173333,1.053333 -0.173333,0.626667 -0.620001,1.42 -0.446667,0.793334 -1.093333,1.46 Q 19.466667,21.12 18.386666,21.58 17.306667,22.04 16,22.04 q -1.306666,0 -2.386666,-0.46 -1.080001,-0.46 -1.726667,-1.126667 -0.646667,-0.666666 -1.093333,-1.46 -0.446667,-0.793333 -0.62,-1.42 Q 9.9999995,16.946667 9.9999995,16.52 Z m 0,-5.853333 0,-4.666667 q 0,-1.6266667 0.8066675,-3.0133333 Q 11.613334,1.6 12.993334,0.8 14.373334,0 16,0 17.626667,0 19.013334,0.8 20.4,1.6 21.199999,2.9866667 22,4.3733333 22,6 l 0,4.666667 -12.0000005,0 z M 11.333334,16.52 q 0,0.386667 0.333333,1.246667 0.333333,0.86 1,1.566666 l 0,-0.933333 q -0.32,-0.56 -0.493333,-1.1 Q 12,16.76 12,16.52 l 0,-3.186667 -0.666666,0 0,3.186667 z m 0,-7.1866667 0.666666,0 L 12,6 q 0,-1.2533333 0.666667,-2.3733333 l 0,-0.88 Q 11.333334,4.1066667 11.333334,6 l 0,3.3333333 z"
     id="path6"
     inkscape:connector-curvature="0" />
</svg>
