<?xml version="1.0" encoding="UTF-8" standalone="no"?>
<svg
   xmlns:dc="http://purl.org/dc/elements/1.1/"
   xmlns:cc="http://creativecommons.org/ns#"
   xmlns:rdf="http://www.w3.org/1999/02/22-rdf-syntax-ns#"
   xmlns:svg="http://www.w3.org/2000/svg"
   xmlns="http://www.w3.org/2000/svg"
   xmlns:sodipodi="http://sodipodi.sourceforge.net/DTD/sodipodi-0.dtd"
   xmlns:inkscape="http://www.inkscape.org/namespaces/inkscape"
   version="1.1"
   width="32px"
   height="32px"
   id="svg2985"
   inkscape:version="0.91 r13725"
   sodipodi:docname="more_items.svg">
  <metadata
     id="metadata2995">
    <rdf:RDF>
      <cc:Work
         rdf:about="">
        <dc:format>image/svg+xml</dc:format>
        <dc:type
           rdf:resource="http://purl.org/dc/dcmitype/StillImage" />
      </cc:Work>
    </rdf:RDF>
  </metadata>
  <defs
     id="defs2993" />
  <sodipodi:namedview
     pagecolor="#ffffff"
     bordercolor="#666666"
     borderopacity="1"
     objecttolerance="10"
     gridtolerance="10"
     guidetolerance="10"
     inkscape:pageopacity="0"
     inkscape:pageshadow="2"
     inkscape:window-width="1920"
     inkscape:window-height="1028"
     id="namedview2991"
     showgrid="false"
     inkscape:zoom="7.375"
     inkscape:cx="-23.322034"
     inkscape:cy="16"
     inkscape:window-x="-8"
     inkscape:window-y="-8"
     inkscape:window-maximized="1"
     inkscape:current-layer="svg2985" />
  <g
     id="g2987"
     transform="matrix(0.01333333,0,0,-0.01333333,-3.1666667,33.333333)" />
  <path
     d="M 2,31.333333 2,6 q 0,-0.2666667 0.1933333,-0.4666667 0.1933334,-0.2 0.4733334,-0.2 l 22.0000003,0 0,25.9999997 q 0,0.28 -0.193334,0.473334 Q 24.28,32 24,32 L 2.6666667,32 q -0.28,0 -0.4733334,-0.193333 Q 2,31.613333 2,31.333333 Z M 7.333333,4 l 0,-3.3333333 Q 7.333333,0.4 7.553333,0.2 q 0.22,-0.2 0.5,-0.2 l 21.28,0 q 0.28,0 0.473334,0.2 Q 30,0.4 30,0.6666667 L 30,26 q 0,0.28 -0.193333,0.473333 -0.193334,0.193334 -0.473334,0.193334 L 26,26.666667 26,4 7.333333,4 Z"
     id="path2989"
     inkscape:connector-curvature="0" />
</svg>
