<?xml version="1.0" encoding="UTF-8" standalone="no"?>
<svg
   xmlns:dc="http://purl.org/dc/elements/1.1/"
   xmlns:cc="http://creativecommons.org/ns#"
   xmlns:rdf="http://www.w3.org/1999/02/22-rdf-syntax-ns#"
   xmlns:svg="http://www.w3.org/2000/svg"
   xmlns="http://www.w3.org/2000/svg"
   xmlns:sodipodi="http://sodipodi.sourceforge.net/DTD/sodipodi-0.dtd"
   xmlns:inkscape="http://www.inkscape.org/namespaces/inkscape"
   version="1.1"
   width="32px"
   height="32px"
   id="svg2997"
   inkscape:version="0.91 r13725"
   sodipodi:docname="more_windows.svg">
  <metadata
     id="metadata3007">
    <rdf:RDF>
      <cc:Work
         rdf:about="">
        <dc:format>image/svg+xml</dc:format>
        <dc:type
           rdf:resource="http://purl.org/dc/dcmitype/StillImage" />
      </cc:Work>
    </rdf:RDF>
  </metadata>
  <defs
     id="defs3005" />
  <sodipodi:namedview
     pagecolor="#ffffff"
     bordercolor="#666666"
     borderopacity="1"
     objecttolerance="10"
     gridtolerance="10"
     guidetolerance="10"
     inkscape:pageopacity="0"
     inkscape:pageshadow="2"
     inkscape:window-width="1920"
     inkscape:window-height="1028"
     id="namedview3003"
     showgrid="false"
     inkscape:zoom="7.375"
     inkscape:cx="-23.322034"
     inkscape:cy="16"
     inkscape:window-x="-8"
     inkscape:window-y="-8"
     inkscape:window-maximized="1"
     inkscape:current-layer="svg2997" />
  <g
     id="g2999"
     transform="matrix(0.01391304,0,0,-0.01391304,-1.7608696,33.76087)" />
  <path
     d="M 0,19.478261 0,5.5652174 Q 0,3.2556522 1.6347826,1.6278261 3.2695652,0 5.565217,0 l 13.913044,0 q 2.309565,0 3.937391,1.6278261 1.627826,1.6278261 1.627826,3.9373913 l -2.782608,0 0,-1.3913044 q 0,-0.5704347 -0.410435,-0.9808695 Q 21.44,2.7826087 20.869565,2.7826087 l -16.695652,0 q -0.5704347,0 -0.9808695,0.4104348 Q 2.7826087,3.6034783 2.7826087,4.173913 l 0,16.695652 q 0,0.570435 0.4104348,0.98087 0.4104348,0.410435 0.9808695,0.410435 l 1.391304,0 0,2.782608 q -2.2956518,0 -3.9304344,-1.627826 Q 0,21.787826 0,19.478261 Z m 6.956522,6.956522 0,-13.913044 q 0,-2.309565 1.634782,-3.9373912 1.634783,-1.6278261 3.930435,-1.6278261 l 13.913044,0 q 2.309565,0 3.937391,1.6278261 Q 32,10.212174 32,12.521739 l 0,13.913044 q 0,2.309565 -1.627826,3.937391 Q 28.744348,32 26.434783,32 L 12.521739,32 Q 10.226087,32 8.591304,30.372174 6.956522,28.744348 6.956522,26.434783 Z m 2.782608,1.391304 q 0,0.570435 0.410435,0.98087 0.410435,0.410434 0.98087,0.410434 l 16.695652,0 q 0.570435,0 0.98087,-0.410434 0.410434,-0.410435 0.410434,-0.98087 l 0,-16.695652 q 0,-0.570435 -0.410434,-0.98087 -0.410435,-0.4104346 -0.98087,-0.4104346 l -16.695652,0 q -0.570435,0 -0.98087,0.4104346 Q 9.73913,10.56 9.73913,11.130435 l 0,16.695652 z"
     id="path3001"
     inkscape:connector-curvature="0" />
</svg>
