<?xml version="1.0" encoding="UTF-8" standalone="no"?>
<svg
   xmlns:dc="http://purl.org/dc/elements/1.1/"
   xmlns:cc="http://creativecommons.org/ns#"
   xmlns:rdf="http://www.w3.org/1999/02/22-rdf-syntax-ns#"
   xmlns:svg="http://www.w3.org/2000/svg"
   xmlns="http://www.w3.org/2000/svg"
   xmlns:sodipodi="http://sodipodi.sourceforge.net/DTD/sodipodi-0.dtd"
   xmlns:inkscape="http://www.inkscape.org/namespaces/inkscape"
   version="1.1"
   width="32px"
   height="32px"
   id="svg2985"
   inkscape:version="0.91 r13725"
   sodipodi:docname="move.svg">
  <metadata
     id="metadata2995">
    <rdf:RDF>
      <cc:Work
         rdf:about="">
        <dc:format>image/svg+xml</dc:format>
        <dc:type
           rdf:resource="http://purl.org/dc/dcmitype/StillImage" />
      </cc:Work>
    </rdf:RDF>
  </metadata>
  <defs
     id="defs2993" />
  <sodipodi:namedview
     pagecolor="#ffffff"
     bordercolor="#666666"
     borderopacity="1"
     objecttolerance="10"
     gridtolerance="10"
     guidetolerance="10"
     inkscape:pageopacity="0"
     inkscape:pageshadow="2"
     inkscape:window-width="1920"
     inkscape:window-height="1028"
     id="namedview2991"
     showgrid="false"
     inkscape:zoom="7.375"
     inkscape:cx="-0.20338983"
     inkscape:cy="16"
     inkscape:window-x="-8"
     inkscape:window-y="-8"
     inkscape:window-maximized="1"
     inkscape:current-layer="svg2985" />
  <g
     id="g2987"
     transform="matrix(0.01357082,0,0,-0.01357082,-1.7883036,33.788304)" />
  <path
     d="M 0,16 Q 0,15.715013 0.1899915,15.525021 L 6.025445,9.6895674 Q 6.215437,9.4995759 6.35793,9.5538592 6.500424,9.6081422 6.500424,9.8931298 l 0,3.3927062 6.785411,0 0,-6.7854119 -3.392705,0 q -0.271417,0 -0.332485,-0.1424937 Q 9.499575,6.2154368 9.689567,6.0254453 L 15.525021,0.1899915 Q 15.715013,0 16,0 q 0.284987,0 0.474979,0.1899915 l 5.808312,5.8083121 q 0.203562,0.2035624 0.142494,0.346056 -0.06107,0.1424937 -0.346056,0.1560645 l -3.365564,0 0,6.7854119 6.785411,0 0,-3.3927062 q 0,-0.2849873 0.142494,-0.3392706 0.142493,-0.054283 0.332485,0.1357082 l 5.835453,5.8354536 Q 32,15.715013 32,16 q 0,0.284987 -0.189992,0.474979 l -5.835453,5.835454 q -0.189992,0.189991 -0.332485,0.135708 -0.142494,-0.05428 -0.142494,-0.339271 l 0,-3.392705 -6.785411,0 0,6.785411 3.392705,0 q 0.284988,0 0.339271,0.142494 0.05428,0.142493 -0.135708,0.332485 l -5.835454,5.835453 Q 16.284987,32 16,32 15.715013,32 15.525021,31.810008 L 9.689567,25.974555 Q 9.499576,25.784563 9.560645,25.64207 9.621715,25.499576 9.89313,25.499576 l 3.392705,0 0,-6.785411 -6.785411,0 0,3.392705 q 0,0.284988 -0.142494,0.339271 -0.142493,0.05428 -0.332485,-0.135708 L 0.1899915,16.474979 Q 0,16.284987 0,16 Z"
     id="path2989"
     inkscape:connector-curvature="0" />
</svg>
