<?xml version="1.0" encoding="UTF-8" standalone="no"?>
<svg
   xmlns:dc="http://purl.org/dc/elements/1.1/"
   xmlns:cc="http://creativecommons.org/ns#"
   xmlns:rdf="http://www.w3.org/1999/02/22-rdf-syntax-ns#"
   xmlns:svg="http://www.w3.org/2000/svg"
   xmlns="http://www.w3.org/2000/svg"
   xmlns:sodipodi="http://sodipodi.sourceforge.net/DTD/sodipodi-0.dtd"
   xmlns:inkscape="http://www.inkscape.org/namespaces/inkscape"
   version="1.1"
   width="32px"
   height="32px"
   id="svg3009"
   inkscape:version="0.91 r13725"
   sodipodi:docname="mute.svg">
  <metadata
     id="metadata3019">
    <rdf:RDF>
      <cc:Work
         rdf:about="">
        <dc:format>image/svg+xml</dc:format>
        <dc:type
           rdf:resource="http://purl.org/dc/dcmitype/StillImage" />
      </cc:Work>
    </rdf:RDF>
  </metadata>
  <defs
     id="defs3017" />
  <sodipodi:namedview
     pagecolor="#ffffff"
     bordercolor="#666666"
     borderopacity="1"
     objecttolerance="10"
     gridtolerance="10"
     guidetolerance="10"
     inkscape:pageopacity="0"
     inkscape:pageshadow="2"
     inkscape:window-width="1920"
     inkscape:window-height="1028"
     id="namedview3015"
     showgrid="false"
     inkscape:zoom="7.375"
     inkscape:cx="-23.322034"
     inkscape:cy="16"
     inkscape:window-x="-8"
     inkscape:window-y="-8"
     inkscape:window-maximized="1"
     inkscape:current-layer="svg3009" />
  <g
     id="g3011"
     transform="matrix(0.01454545,0,0,0.01454515,-2.2727273,6.8152289)" />
  <path
     d="m 0,13.120056 0,5.788968 q 0,0.290902 0.2109091,0.50908 0.2109091,0.218177 0.5163636,0.218177 l 4.9454543,0 q 0.290909,0 0.669091,0.145455 Q 6.72,19.92719 6.938182,20.116274 l 7.069091,6.632589 q 0.218182,0.203632 0.378182,0.130909 0.16,-0.07273 0.16,-0.363628 l 0,-21.0322838 q 0,-0.2909028 -0.152728,-0.3636285 Q 14.24,5.0475002 14.021818,5.2511322 L 7.025455,11.898264 q -0.218182,0.203632 -0.589091,0.349084 -0.370909,0.145454 -0.661819,0.145454 l -5.0472723,0 q -0.3054545,0 -0.5163636,0.210905 Q 0,12.814609 0,13.120056 Z m 17.483636,-2.836304 q 0,0.305447 0.218182,0.523625 l 4.436364,4.43627 -4.436364,4.436269 q -0.218182,0.203632 -0.218182,0.516353 0,0.31272 0.218182,0.516352 l 1.570909,1.570877 q 0.203637,0.218178 0.516364,0.218178 0.312727,0 0.516364,-0.218178 l 4.436363,-4.436268 4.436364,4.43627 q 0.218182,0.218177 0.523636,0.218177 0.305455,0 0.523637,-0.218177 l 1.556363,-1.570877 Q 32,20.494445 32,20.188998 32,19.883549 31.781818,19.665373 L 27.36,15.243649 31.781818,10.807378 Q 32,10.603746 32,10.291026 32,9.978305 31.781818,9.774673 L 30.225455,8.2037989 q -0.218182,-0.2181775 -0.53091,-0.2181775 -0.312727,0 -0.516363,0.2181775 L 24.741818,12.625522 20.305455,8.2037989 q -0.203637,-0.2181775 -0.516364,-0.2181775 -0.312727,0 -0.516364,0.2181775 L 17.701818,9.760129 q -0.218182,0.218176 -0.218182,0.523625 z"
     id="path3013"
     inkscape:connector-curvature="0" />
</svg>
