<?xml version="1.0" encoding="UTF-8" standalone="no"?>
<svg
   xmlns:dc="http://purl.org/dc/elements/1.1/"
   xmlns:cc="http://creativecommons.org/ns#"
   xmlns:rdf="http://www.w3.org/1999/02/22-rdf-syntax-ns#"
   xmlns:svg="http://www.w3.org/2000/svg"
   xmlns="http://www.w3.org/2000/svg"
   xmlns:sodipodi="http://sodipodi.sourceforge.net/DTD/sodipodi-0.dtd"
   xmlns:inkscape="http://www.inkscape.org/namespaces/inkscape"
   version="1.1"
   width="32px"
   height="32px"
   id="svg2997"
   inkscape:version="0.91 r13725"
   sodipodi:docname="nameplate.svg">
  <metadata
     id="metadata3007">
    <rdf:RDF>
      <cc:Work
         rdf:about="">
        <dc:format>image/svg+xml</dc:format>
        <dc:type
           rdf:resource="http://purl.org/dc/dcmitype/StillImage" />
      </cc:Work>
    </rdf:RDF>
  </metadata>
  <defs
     id="defs3005" />
  <sodipodi:namedview
     pagecolor="#ffffff"
     bordercolor="#666666"
     borderopacity="1"
     objecttolerance="10"
     gridtolerance="10"
     guidetolerance="10"
     inkscape:pageopacity="0"
     inkscape:pageshadow="2"
     inkscape:window-width="1920"
     inkscape:window-height="1028"
     id="namedview3003"
     showgrid="false"
     inkscape:zoom="7.375"
     inkscape:cx="-23.322034"
     inkscape:cy="16"
     inkscape:window-x="-8"
     inkscape:window-y="-8"
     inkscape:window-maximized="1"
     inkscape:current-layer="svg2997" />
  <g
     id="g2999"
     transform="matrix(0.01333333,0,0,-0.01333333,-1.3333333,36.5)" />
  <path
     d="M 0,27.333333 0,8.6666667 q 0,-1.0933334 0.7866667,-1.88 Q 1.5733333,6 2.6666667,6 L 8,6 8,6.026667 8,7.3333336 Q 8,8.6 8.706667,9.3 9.413333,10 10.693333,10 l 10.613334,0 q 1.28,0 1.986666,-0.7 Q 24,8.6 24,7.3333333 L 24,6.0266667 24,6 29.333333,6 Q 30.44,6 31.22,6.78 32,7.56 32,8.6666667 L 32,27.333333 Q 32,28.44 31.22,29.22 30.44,30 29.333333,30 L 2.6666667,30 Q 1.56,30 0.78,29.22 0,28.44 0,27.333333 Z M 4,24.8 Q 4,25.293333 4.3933333,25.646667 4.7866667,26 5.3333333,26 l 9.3333337,0 q 0.546666,0 0.94,-0.353333 Q 16,25.293333 16,24.8 l 0,-9.6 Q 16,14.706667 15.606667,14.353333 15.213333,14 14.666667,14 l -9.3333337,0 q -0.5466666,0 -0.94,0.353333 Q 4,14.706667 4,15.2 l 0,9.6 z M 5.88,23.026667 Q 5.88,23.2 6.066667,23.2 l 7.853333,0 q 0.173333,0 0.173333,-0.173333 l 0,-0.84 q 0,-0.28 -0.07333,-0.426667 -0.07333,-0.146667 -0.273333,-0.266667 -0.120003,-0.06667 -1.34667,-0.5 -1.226667,-0.433333 -1.586667,-0.58 l 0,-0.746666 q 0.28,-0.08 0.546667,-0.44 0.266667,-0.36 0.266667,-0.653334 l 0,-1.626666 q 0,-0.693334 -0.433334,-1.153334 -0.433333,-0.46 -1.206666,-0.46 -0.773334,0 -1.206667,0.46 -0.433333,0.46 -0.433333,1.153334 l 0,1.626666 q 0,0.293334 0.266666,0.653334 0.266667,0.36 0.56,0.44 l 0,0.746666 q -0.306666,0.12 -1.006666,0.373334 Q 7.466667,21.04 6.9,21.24 q -0.566667,0.2 -0.66,0.253333 -0.36,0.2 -0.36,0.693334 l 0,0.84 z m 3.453333,-15.6933337 0,-1.3066666 Q 9.333333,5.48 9.74,5.0733333 10.146667,4.6666667 10.693333,4.6666667 l 2.64,0 0,-1.2266667 q 0,-0.56 0.393334,-1 Q 14.12,2 14.666667,2 l 2.666666,0 q 0.546667,0 0.94,0.44 0.393334,0.44 0.393334,1 l 0,1.2266667 2.64,0 q 0.546666,0 0.953333,0.4066666 Q 22.666667,5.48 22.666667,6.0266667 l 0,1.3066666 q 0,0.5466667 -0.406667,0.94 -0.406667,0.3933334 -0.953333,0.3933334 l -10.613334,0 Q 10.146667,8.6666667 9.74,8.2733333 9.333333,7.88 9.333333,7.3333333 Z m 9.333334,13.3333337 8,0 0,-1.333334 -8,0 0,1.333334 z M 18.666667,18 28,18 l 0,-1.333333 -9.333333,0 0,1.333333 z m 0,-2.666667 4,0 0,-1.333333 -4,0 0,1.333333 z m 5.333333,0 4,0 L 28,14 l -4,0 0,1.333333 z"
     id="path3001"
     inkscape:connector-curvature="0" />
</svg>
