<?xml version="1.0" encoding="UTF-8" standalone="no"?>
<svg
   xmlns:dc="http://purl.org/dc/elements/1.1/"
   xmlns:cc="http://creativecommons.org/ns#"
   xmlns:rdf="http://www.w3.org/1999/02/22-rdf-syntax-ns#"
   xmlns:svg="http://www.w3.org/2000/svg"
   xmlns="http://www.w3.org/2000/svg"
   xmlns:sodipodi="http://sodipodi.sourceforge.net/DTD/sodipodi-0.dtd"
   xmlns:inkscape="http://www.inkscape.org/namespaces/inkscape"
   version="1.1"
   width="32px"
   height="32px"
   id="svg3009"
   inkscape:version="0.91 r13725"
   sodipodi:docname="nameplate_alt.svg">
  <metadata
     id="metadata3019">
    <rdf:RDF>
      <cc:Work
         rdf:about="">
        <dc:format>image/svg+xml</dc:format>
        <dc:type
           rdf:resource="http://purl.org/dc/dcmitype/StillImage" />
      </cc:Work>
    </rdf:RDF>
  </metadata>
  <defs
     id="defs3017" />
  <sodipodi:namedview
     pagecolor="#ffffff"
     bordercolor="#666666"
     borderopacity="1"
     objecttolerance="10"
     gridtolerance="10"
     guidetolerance="10"
     inkscape:pageopacity="0"
     inkscape:pageshadow="2"
     inkscape:window-width="1920"
     inkscape:window-height="1028"
     id="namedview3015"
     showgrid="false"
     inkscape:zoom="7.375"
     inkscape:cx="-23.322034"
     inkscape:cy="16"
     inkscape:window-x="-8"
     inkscape:window-y="-8"
     inkscape:window-maximized="1"
     inkscape:current-layer="svg3009" />
  <g
     id="g3011"
     transform="matrix(0.01333333,0,0,-0.01333333,-1.3333333,35)" />
  <path
     d="m 0,28 0,-5.333333 32,0 L 32,28 q 0,1.093334 -0.786667,1.88 -0.786666,0.786667 -1.88,0.786667 L 24,30.666667 24,28 l 2,0 q 0.28,0 0.473333,-0.193333 0.193334,-0.193333 0.193334,-0.473333 l 0,-1.333334 q 0,-0.28 -0.193334,-0.473333 Q 26.28,25.333334 26,25.333334 l -5.333333,0 q -0.28,0 -0.473334,0.193333 Q 20,25.72 20,26 l 0,1.333334 q 0,0.28 0.193333,0.473333 Q 20.386667,28 20.666667,28 l 2,0 0,2.666667 -13.333334,0 0,-2.666667 2,0 q 0.28,0 0.473334,-0.193333 Q 12,27.613334 12,27.333334 L 12,26 q 0,-0.28 -0.193333,-0.473333 -0.193334,-0.193333 -0.473334,-0.193333 l -5.333333,0 q -0.28,0 -0.4733333,0.193333 Q 5.3333333,25.72 5.3333333,26 l 0,1.333334 q 0,0.28 0.1933334,0.473333 Q 5.72,28 6,28 l 2,0 0,2.666667 -5.3333333,0 q -1.0933334,0 -1.88,-0.786667 Q 0,29.093334 0,28 Z M 0,21.333334 0,4 q 0,-1.0933333 0.7866667,-1.8800001 0.7866666,-0.7866666 1.88,-0.7866666 l 26.6666663,0 q 1.093334,0 1.88,0.7866666 Q 32,2.9066667 32,4 l 0,17.333334 -32,0 z m 4,-3.866667 q 0,0.493333 0.3933333,0.846667 0.3933334,0.353333 0.94,0.353333 l 9.3333337,0 q 0.546666,0 0.94,-0.353333 Q 16,17.96 16,17.466667 l 0,-9.6000004 q 0,-0.4933333 -0.393333,-0.8466667 -0.393334,-0.3533333 -0.94,-0.3533333 l -9.3333337,0 q -0.5466666,0 -0.94,0.3533333 Q 4,7.3733333 4,7.8666666 l 0,9.6000004 z m 1.9466667,-1.76 q 0,0.06667 0.06,0.12 0.06,0.05333 0.126666,0.05333 l 7.8533343,0 Q 14.16,15.88 14.16,15.706667 l 0,-0.853333 q 0,-0.28 -0.06667,-0.42 -0.06667,-0.14 -0.28,-0.273334 -0.106666,-0.06667 -1.326666,-0.486666 -1.22,-0.420001 -1.606667,-0.593334 l 0,-0.746667 q 0.28,-0.06667 0.553333,-0.433333 0.273334,-0.366667 0.273334,-0.646667 l 0,-1.6399996 Q 11.706664,8.92 11.27333,8.46 10.84,8 10.066667,8 9.293333,8 8.853333,8.46 q -0.44,0.46 -0.44,1.1533334 l 0,1.6399996 q 0,0.28 0.273334,0.646667 Q 8.96,12.266667 9.24,12.333333 l 0,0.746667 q -0.386667,0.173333 -1.606667,0.593334 -1.22,0.42 -1.326666,0.486666 -0.213334,0.133334 -0.286667,0.273334 -0.073333,0.14 -0.073333,0.42 l 0,0.853333 z m 12.7200003,-2.373334 8,0 0,-1.333333 -8,0 0,1.333333 z m 0,-2.666666 9.333333,0 0,-1.3333336 -9.333333,0 0,1.3333336 z m 0,-2.6666671 4,0 0,-1.3333333 -4,0 0,1.3333333 z m 5.333333,0 4,0 0,-1.3333333 -4,0 0,1.3333333 z"
     id="path3013"
     inkscape:connector-curvature="0" />
</svg>
