<?xml version="1.0" encoding="UTF-8" standalone="no"?>
<svg
   xmlns:dc="http://purl.org/dc/elements/1.1/"
   xmlns:cc="http://creativecommons.org/ns#"
   xmlns:rdf="http://www.w3.org/1999/02/22-rdf-syntax-ns#"
   xmlns:svg="http://www.w3.org/2000/svg"
   xmlns="http://www.w3.org/2000/svg"
   xmlns:sodipodi="http://sodipodi.sourceforge.net/DTD/sodipodi-0.dtd"
   xmlns:inkscape="http://www.inkscape.org/namespaces/inkscape"
   version="1.1"
   width="32px"
   height="32px"
   id="svg2985"
   inkscape:version="0.91 r13725"
   sodipodi:docname="notes.svg">
  <metadata
     id="metadata2995">
    <rdf:RDF>
      <cc:Work
         rdf:about="">
        <dc:format>image/svg+xml</dc:format>
        <dc:type
           rdf:resource="http://purl.org/dc/dcmitype/StillImage" />
      </cc:Work>
    </rdf:RDF>
  </metadata>
  <defs
     id="defs2993" />
  <sodipodi:namedview
     pagecolor="#ffffff"
     bordercolor="#666666"
     borderopacity="1"
     objecttolerance="10"
     gridtolerance="10"
     guidetolerance="10"
     inkscape:pageopacity="0"
     inkscape:pageshadow="2"
     inkscape:window-width="1920"
     inkscape:window-height="1028"
     id="namedview2991"
     showgrid="false"
     inkscape:zoom="7.375"
     inkscape:cx="-23.322034"
     inkscape:cy="16"
     inkscape:window-x="-8"
     inkscape:window-y="-8"
     inkscape:window-maximized="1"
     inkscape:current-layer="svg2985" />
  <g
     id="g2987"
     transform="matrix(0.0128,0,0,-0.0128,-4.24,32.98)" />
  <path
     d="m 3.2,31.36 0,-23.68 25.6,0 0,23.68 q 0,0.2688 -0.1856,0.4544 Q 28.4288,32 28.16,32 L 3.84,32 Q 3.5712,32 3.3856,31.8144 3.2,31.6288 3.2,31.36 Z M 3.2,6.4 3.2,1.28 Q 3.2,0.7552 3.5776,0.3776 3.9552,0 4.48,0 5.0048,0 5.3824,0.3776 5.76,0.7552 5.76,1.28 l 1.28,0 Q 7.04,0.7552 7.4176,0.3776 7.7952,0 8.32,0 8.8448,0 9.2224,0.3776 9.6,0.7552 9.6,1.28 l 1.28,0 q 0,-0.5248 0.3776,-0.9024 Q 11.6352,0 12.16,0 12.6848,0 13.0624,0.3776 13.44,0.7552 13.44,1.28 l 1.28,0 q 0,-0.5248 0.3776,-0.9024 Q 15.4752,0 16,0 16.5248,0 16.9024,0.3776 17.28,0.7552 17.28,1.28 l 1.28,0 q 0,-0.5248 0.3776,-0.9024 Q 19.3152,0 19.84,0 20.3648,0 20.7424,0.3776 21.12,0.7552 21.12,1.28 l 1.28,0 Q 22.4,0.7552 22.7776,0.3776 23.1552,0 23.68,0 24.2048,0 24.5824,0.3776 24.96,0.7552 24.96,1.28 l 1.28,0 q 0,-0.5248 0.3776,-0.9024 Q 26.9952,0 27.52,0 28.0448,0 28.4224,0.3776 28.8,0.7552 28.8,1.28 l 0,5.12 -25.6,0 z m 3.84,21.76 6.4,0 0,-1.28 -6.4,0 0,1.28 z m 0,-2.56 17.92,0 0,-1.28 -17.92,0 0,1.28 z m 0,-2.56 17.92,0 0,-1.28 -17.92,0 0,1.28 z m 0,-2.56 17.92,0 0,-1.28 -17.92,0 0,1.28 z m 0,-5.12 12.8,0 0,-1.28 -12.8,0 0,1.28 z m 1.28,2.56 16.64,0 0,-1.28 -16.64,0 0,1.28 z m 0,-5.12 16.64,0 0,-1.28 -16.64,0 0,1.28 z"
     id="path2989"
     inkscape:connector-curvature="0" />
</svg>
