<?xml version="1.0" encoding="UTF-8" standalone="no"?>
<svg
   xmlns:dc="http://purl.org/dc/elements/1.1/"
   xmlns:cc="http://creativecommons.org/ns#"
   xmlns:rdf="http://www.w3.org/1999/02/22-rdf-syntax-ns#"
   xmlns:svg="http://www.w3.org/2000/svg"
   xmlns="http://www.w3.org/2000/svg"
   xmlns:sodipodi="http://sodipodi.sourceforge.net/DTD/sodipodi-0.dtd"
   xmlns:inkscape="http://www.inkscape.org/namespaces/inkscape"
   version="1.1"
   width="32px"
   height="32px"
   id="svg2985"
   inkscape:version="0.91 r13725"
   sodipodi:docname="notes_2.svg">
  <metadata
     id="metadata2995">
    <rdf:RDF>
      <cc:Work
         rdf:about="">
        <dc:format>image/svg+xml</dc:format>
        <dc:type
           rdf:resource="http://purl.org/dc/dcmitype/StillImage" />
      </cc:Work>
    </rdf:RDF>
  </metadata>
  <defs
     id="defs2993" />
  <sodipodi:namedview
     pagecolor="#ffffff"
     bordercolor="#666666"
     borderopacity="1"
     objecttolerance="10"
     gridtolerance="10"
     guidetolerance="10"
     inkscape:pageopacity="0"
     inkscape:pageshadow="2"
     inkscape:window-width="1920"
     inkscape:window-height="1028"
     id="namedview2991"
     showgrid="false"
     inkscape:zoom="7.375"
     inkscape:cx="-23.322034"
     inkscape:cy="16"
     inkscape:window-x="-8"
     inkscape:window-y="-8"
     inkscape:window-maximized="1"
     inkscape:current-layer="svg2985" />
  <g
     id="g2987"
     transform="matrix(0.01185185,0,0,-0.01185185,-3.4814815,32.462963)" />
  <path
     d="m 4.148148,31.407407 0,-27.2592589 q 0,-0.2488888 0.1718519,-0.4207407 0.1718518,-0.1718518 0.4207407,-0.1718518 l 2.962963,0 0,3.5555555 q 0,0.4859259 0.3496296,0.8355556 0.3496298,0.3496296 0.8355558,0.3496296 l 14.222222,0 q 0.485926,0 0.835556,-0.3496296 0.349629,-0.3496297 0.349629,-0.8355556 l 0,-3.5555555 2.962963,0 q 0.248889,0 0.420741,0.1718518 0.171852,0.1718519 0.171852,0.4207407 l 0,27.2592589 q 0,0.248889 -0.171852,0.420741 Q 27.508148,32 27.259259,32 L 4.7407406,32 Q 4.4918517,32 4.3199999,31.828148 4.148148,31.656296 4.148148,31.407407 Z m 3.5555556,-2.962963 5.9259254,0 0,-1.185185 -5.9259254,0 0,1.185185 z m 0,-2.37037 16.5925924,0 0,-1.185185 -16.5925924,0 0,1.185185 z m 0,-2.37037 16.5925924,0 0,-1.185185 -16.5925924,0 0,1.185185 z m 0,-2.370371 16.5925924,0 0,-1.185185 -16.5925924,0 0,1.185185 z m 0,-4.74074 11.8518514,0 0,-1.185186 -11.8518514,0 0,1.185186 z m 0,-2.370371 16.5925924,0 0,-1.185185 -16.5925924,0 0,1.185185 z m 1.1851854,4.740741 15.407407,0 0,-1.185185 -15.407407,0 0,1.185185 z m 0,-7.111111 15.407407,0 0,-1.185185 -15.407407,0 0,1.185185 z m 0,-5.9259261 0,-2.3466666 q 0,-0.485926 0.361481,-0.8474074 0.361482,-0.3614815 0.847408,-0.3614815 l 2.346666,0 0,-1.0903704 q 0,-0.4977778 0.34963,-0.8888889 Q 13.143704,0 13.629629,0 L 18.37037,0 Q 18.856296,0 19.205926,0.3911111 19.555555,0.7822222 19.555555,1.28 l 0,1.0903704 2.346667,0 q 0.485926,0 0.847407,0.3614815 0.361482,0.3614814 0.361482,0.8474074 l 0,2.3466666 q 0,0.485926 -0.361482,0.8355556 -0.361481,0.3496296 -0.847407,0.3496296 l -11.804444,0 q -0.485926,0 -0.847408,-0.3496296 Q 8.888889,6.4118519 8.888889,5.9259259 Z"
     id="path2989"
     inkscape:connector-curvature="0" />
</svg>
