<?xml version="1.0" encoding="UTF-8" standalone="no"?>
<svg
   xmlns:dc="http://purl.org/dc/elements/1.1/"
   xmlns:cc="http://creativecommons.org/ns#"
   xmlns:rdf="http://www.w3.org/1999/02/22-rdf-syntax-ns#"
   xmlns:svg="http://www.w3.org/2000/svg"
   xmlns="http://www.w3.org/2000/svg"
   xmlns:sodipodi="http://sodipodi.sourceforge.net/DTD/sodipodi-0.dtd"
   xmlns:inkscape="http://www.inkscape.org/namespaces/inkscape"
   version="1.1"
   width="32px"
   height="32px"
   id="svg2985"
   inkscape:version="0.91 r13725"
   sodipodi:docname="note.svg">
  <metadata
     id="metadata2995">
    <rdf:RDF>
      <cc:Work
         rdf:about="">
        <dc:format>image/svg+xml</dc:format>
        <dc:type
           rdf:resource="http://purl.org/dc/dcmitype/StillImage" />
      </cc:Work>
    </rdf:RDF>
  </metadata>
  <defs
     id="defs2993" />
  <sodipodi:namedview
     pagecolor="#ffffff"
     bordercolor="#666666"
     borderopacity="1"
     objecttolerance="10"
     gridtolerance="10"
     guidetolerance="10"
     inkscape:pageopacity="0"
     inkscape:pageshadow="2"
     inkscape:window-width="1920"
     inkscape:window-height="1028"
     id="namedview2991"
     showgrid="false"
     inkscape:zoom="7.375"
     inkscape:cx="-0.20338983"
     inkscape:cy="16"
     inkscape:window-x="-8"
     inkscape:window-y="-8"
     inkscape:window-maximized="1"
     inkscape:current-layer="svg2985" />
  <g
     id="g2987"
     transform="matrix(0.01331057,0,0,-0.01331079,-7.1945657,33.263475)" />
  <path
     d="M 5.1575729,29.28373 Q 4.7848773,28.125692 5.2906789,26.867822 5.79648,25.609953 7.0343619,24.578367 8.2722438,23.546781 9.9493748,23.001038 11.732989,22.428674 13.716262,22.734823 l 0.01331,-21.92286541 q 0,-0.3327697 0.239589,-0.5723638 Q 14.208752,-4.0638007e-7 14.541515,-4.0638007e-7 l 2.316037,0 q 0.332765,0 0.572354,0.23959419638007 0.239591,0.2395941 0.239591,0.5723638 l 0,0.73209341 q 0.532423,0.2662157 1.524059,0.6655394 0.991637,0.3993236 1.836857,0.7320933 0.845221,0.3327697 1.850168,0.8452351 1.004946,0.5124653 1.750338,1.0382414 0.745391,0.5257762 1.344366,1.2844911 0.598976,0.7587149 0.811945,1.610604 0.332764,1.2778358 0.146417,2.3959417 -0.186349,1.118106 -0.605631,2.009929 -0.419284,0.891823 -1.038224,1.577329 -0.618941,0.685505 -1.138053,1.084828 -0.519112,0.399324 -0.905119,0.559054 -0.5058,0.186351 -0.559042,0.08652 -0.05324,-0.09983 0.133106,-0.312804 l 0.186348,-0.226283 q 0.07986,-0.119797 0.199656,-0.319459 0.119796,-0.199662 0.372697,-0.798647 0.2529,-0.598986 0.372695,-1.178005 Q 24.071876,12.01964 23.99867,11.25427 23.92546,10.488899 23.552765,9.8632923 23.193378,9.2643068 22.368126,8.8849494 21.542871,8.5055919 20.724271,8.3857948 19.905672,8.2659977 18.993898,8.0729913 18.082125,7.8799848 17.669498,7.6403906 l 0,18.8347634 q 0,0.02662 -0.01331,0.07321 -0.01331,0.04659 -0.01331,0.07321 -0.159727,1.51743 -1.510749,2.895096 -1.351021,1.377667 -3.414158,2.043206 -1.756993,0.519121 -3.3010182,0.425945 Q 7.8729278,31.892641 6.708254,31.173862 5.5435802,30.45508 5.1575739,29.28373 Z"
     id="path2989"
     inkscape:connector-curvature="0" />
</svg>
