<?xml version="1.0" encoding="UTF-8" standalone="no"?>
<svg
   xmlns:dc="http://purl.org/dc/elements/1.1/"
   xmlns:cc="http://creativecommons.org/ns#"
   xmlns:rdf="http://www.w3.org/1999/02/22-rdf-syntax-ns#"
   xmlns:svg="http://www.w3.org/2000/svg"
   xmlns="http://www.w3.org/2000/svg"
   xmlns:sodipodi="http://sodipodi.sourceforge.net/DTD/sodipodi-0.dtd"
   xmlns:inkscape="http://www.inkscape.org/namespaces/inkscape"
   version="1.1"
   width="32px"
   height="32px"
   id="svg2985"
   inkscape:version="0.91 r13725"
   sodipodi:docname="ok_2.svg">
  <metadata
     id="metadata2995">
    <rdf:RDF>
      <cc:Work
         rdf:about="">
        <dc:format>image/svg+xml</dc:format>
        <dc:type
           rdf:resource="http://purl.org/dc/dcmitype/StillImage" />
      </cc:Work>
    </rdf:RDF>
  </metadata>
  <defs
     id="defs2993" />
  <sodipodi:namedview
     pagecolor="#ffffff"
     bordercolor="#666666"
     borderopacity="1"
     objecttolerance="10"
     gridtolerance="10"
     guidetolerance="10"
     inkscape:pageopacity="0"
     inkscape:pageshadow="2"
     inkscape:window-width="1920"
     inkscape:window-height="1028"
     id="namedview2991"
     showgrid="false"
     inkscape:zoom="7.375"
     inkscape:cx="-0.20338983"
     inkscape:cy="16"
     inkscape:window-x="-8"
     inkscape:window-y="-8"
     inkscape:window-maximized="1"
     inkscape:current-layer="svg2985" />
  <g
     id="g2987"
     transform="matrix(0.01371625,0,0,-0.01371625,-1.3778161,37.778776)" />
  <path
     d="m 0,17.357908 q 0,-0.281183 0.1920274,-0.486927 l 4.4577797,-4.457779 q 0.1920274,-0.192028 0.4800686,-0.192028 0.2880411,0 0.4800686,0.192028 l 5.3630517,5.363052 q 0.205744,0.205743 0.486927,0.205743 0.281183,0 0.486927,-0.205743 L 26.335191,3.3879126 q 0.192027,-0.2057437 0.486926,-0.2057437 0.2949,0 0.486927,0.2057437 l 4.485212,4.4166309 Q 32,7.9965709 32,8.2846121 32,8.5726532 31.794256,8.7783969 L 11.94685,28.625804 q -0.205744,0.192027 -0.493785,0.192027 -0.288041,0 -0.480069,-0.192027 L 6.515216,24.168024 5.5550793,23.207887 0.1920274,17.844835 Q 0,17.639091 0,17.357908 Z"
     id="path2989"
     inkscape:connector-curvature="0" />
</svg>
