<?xml version="1.0" encoding="UTF-8" standalone="no"?>
<svg
   xmlns:dc="http://purl.org/dc/elements/1.1/"
   xmlns:cc="http://creativecommons.org/ns#"
   xmlns:rdf="http://www.w3.org/1999/02/22-rdf-syntax-ns#"
   xmlns:svg="http://www.w3.org/2000/svg"
   xmlns="http://www.w3.org/2000/svg"
   xmlns:sodipodi="http://sodipodi.sourceforge.net/DTD/sodipodi-0.dtd"
   xmlns:inkscape="http://www.inkscape.org/namespaces/inkscape"
   version="1.1"
   width="32px"
   height="32px"
   id="svg2985"
   inkscape:version="0.91 r13725"
   sodipodi:docname="old_man.svg">
  <metadata
     id="metadata2995">
    <rdf:RDF>
      <cc:Work
         rdf:about="">
        <dc:format>image/svg+xml</dc:format>
        <dc:type
           rdf:resource="http://purl.org/dc/dcmitype/StillImage" />
      </cc:Work>
    </rdf:RDF>
  </metadata>
  <defs
     id="defs2993" />
  <sodipodi:namedview
     pagecolor="#ffffff"
     bordercolor="#666666"
     borderopacity="1"
     objecttolerance="10"
     gridtolerance="10"
     guidetolerance="10"
     inkscape:pageopacity="0"
     inkscape:pageshadow="2"
     inkscape:window-width="1920"
     inkscape:window-height="1028"
     id="namedview2991"
     showgrid="false"
     inkscape:zoom="7.375"
     inkscape:cx="-0.20338983"
     inkscape:cy="16"
     inkscape:window-x="-8"
     inkscape:window-y="-8"
     inkscape:window-maximized="1"
     inkscape:current-layer="svg2985" />
  <g
     id="g2987"
     transform="matrix(0.01332168,0,0,-0.01332152,-2.8269223,34.657222)" />
  <path
     d="m 0.6800715,31.333924 0,-3.183841 q 0,-1.065721 0.2730944,-1.598582 0.2730944,-0.53286 1.0590733,-0.985792 6.4077263,-3.703381 9.3251738,-4.955604 l 0,-3.330379 q -1.332167,-0.972471 -1.332167,-2.970698 l 0,-2.19805 q -1.1323435,-0.426289 -1.8850175,-0.899203 -0.752675,-0.472913 -0.752675,-0.686058 0,-0.426288 0.213147,-0.7992907 0.213146,-0.3730025 0.506223,-0.3730025 l 1.50535,0 1.9449655,-8.7655583 Q 11.497269,0.2814706 11.670455,0.161577 11.843637,0.0416834 12.136714,0.148256 l 3.183881,0.9058631 Q 15.60035,1.1606912 16,1.167352 q 0.39965,0.00666 0.679406,-0.099911 l 3.183881,-1.0124361 q 0.293077,-0.1065722 0.466258,-0.00666 0.173182,0.099911 0.133217,0.4063063 l 1.944965,8.8987734 1.505349,0 q 0.293077,0 0.506223,0.3730025 0.213147,0.3730029 0.213147,0.7992909 0,0.213144 -0.752675,0.686058 -0.752673,0.472913 -1.885017,0.899202 l 0,2.19805 q 0,2.011549 -1.332168,2.957376 l 0,3.343701 q 2.477832,0.999114 9.325174,4.955604 0.785979,0.452932 1.059073,0.985792 0.273095,0.532861 0.273095,1.598582 l 0,3.183841 q 0,0.279752 -0.193165,0.472914 Q 30.933599,32 30.653844,32 L 1.3461553,32 Q 1.0797218,32 0.8798967,31.806838 0.6800715,31.613676 0.6800715,31.333924 Z"
     id="path2989"
     inkscape:connector-curvature="0" />
</svg>
