<?xml version="1.0" encoding="UTF-8" standalone="no"?>
<svg
   xmlns:dc="http://purl.org/dc/elements/1.1/"
   xmlns:cc="http://creativecommons.org/ns#"
   xmlns:rdf="http://www.w3.org/1999/02/22-rdf-syntax-ns#"
   xmlns:svg="http://www.w3.org/2000/svg"
   xmlns="http://www.w3.org/2000/svg"
   xmlns:sodipodi="http://sodipodi.sourceforge.net/DTD/sodipodi-0.dtd"
   xmlns:inkscape="http://www.inkscape.org/namespaces/inkscape"
   version="1.1"
   width="32px"
   height="32px"
   id="svg2985"
   inkscape:version="0.91 r13725"
   sodipodi:docname="package.svg">
  <metadata
     id="metadata2995">
    <rdf:RDF>
      <cc:Work
         rdf:about="">
        <dc:format>image/svg+xml</dc:format>
        <dc:type
           rdf:resource="http://purl.org/dc/dcmitype/StillImage" />
      </cc:Work>
    </rdf:RDF>
  </metadata>
  <defs
     id="defs2993" />
  <sodipodi:namedview
     pagecolor="#ffffff"
     bordercolor="#666666"
     borderopacity="1"
     objecttolerance="10"
     gridtolerance="10"
     guidetolerance="10"
     inkscape:pageopacity="0"
     inkscape:pageshadow="2"
     inkscape:window-width="1920"
     inkscape:window-height="1028"
     id="namedview2991"
     showgrid="false"
     inkscape:zoom="7.375"
     inkscape:cx="-23.322034"
     inkscape:cy="16"
     inkscape:window-x="-8"
     inkscape:window-y="-8"
     inkscape:window-maximized="1"
     inkscape:current-layer="svg2985" />
  <g
     id="g2987"
     transform="matrix(0.01333333,0,0,-0.01333333,-1.3333333,36.5)" />
  <path
     d="M 0,30 0,10 24,10 24,30 0,30 Z M 1.3333333,8.6666667 4,6 l 23.333333,0 -2.666666,2.6666667 -23.3333337,0 z m 2.1733334,12.0000003 1.8266666,0 0,2.666666 1.3333337,0 0,-2.666666 2.666666,0 0,2.666666 1.333334,0 0,-2.666666 1.84,0 L 10,17.333333 8,20 6,17.333333 Z M 4,26 l 8,0 0,-1.333333 -8,0 L 4,26 Z M 5.3333333,4.6666667 8,2 l 23.333333,0 -2.666666,2.6666667 -23.3333337,0 z M 25.333333,30 l 0,-20 L 28,7.3333333 28,27.333333 Z m 4,-4 0,-20 L 32,3.3333333 32,23.333333 Z"
     id="path2989"
     inkscape:connector-curvature="0" />
</svg>
