<?xml version="1.0" encoding="UTF-8" standalone="no"?>
<svg
   xmlns:dc="http://purl.org/dc/elements/1.1/"
   xmlns:cc="http://creativecommons.org/ns#"
   xmlns:rdf="http://www.w3.org/1999/02/22-rdf-syntax-ns#"
   xmlns:svg="http://www.w3.org/2000/svg"
   xmlns="http://www.w3.org/2000/svg"
   xmlns:sodipodi="http://sodipodi.sourceforge.net/DTD/sodipodi-0.dtd"
   xmlns:inkscape="http://www.inkscape.org/namespaces/inkscape"
   version="1.1"
   width="32px"
   height="32px"
   id="svg2985"
   inkscape:version="0.91 r13725"
   sodipodi:docname="paperclip.svg">
  <metadata
     id="metadata2995">
    <rdf:RDF>
      <cc:Work
         rdf:about="">
        <dc:format>image/svg+xml</dc:format>
        <dc:type
           rdf:resource="http://purl.org/dc/dcmitype/StillImage" />
      </cc:Work>
    </rdf:RDF>
  </metadata>
  <defs
     id="defs2993" />
  <sodipodi:namedview
     pagecolor="#ffffff"
     bordercolor="#666666"
     borderopacity="1"
     objecttolerance="10"
     gridtolerance="10"
     guidetolerance="10"
     inkscape:pageopacity="0"
     inkscape:pageshadow="2"
     inkscape:window-width="1920"
     inkscape:window-height="1028"
     id="namedview2991"
     showgrid="false"
     inkscape:zoom="7.375"
     inkscape:cx="-23.322034"
     inkscape:cy="16"
     inkscape:window-x="-8"
     inkscape:window-y="-8"
     inkscape:window-maximized="1"
     inkscape:current-layer="svg2985" />
  <g
     id="g2987"
     transform="matrix(0.01259474,0,0,-0.01259514,-0.27187956,34.331035)" />
  <path
     d="M 0.07963183,22.54485 Q 0.43228453,20.195854 2.0947905,18.533295 L 15.382243,5.2454182 15.634138,4.9935153 15.904925,4.7227196 16.15682,4.4708167 q 0,0 0.277084,-0.2644981 0.277084,-0.2644981 0.258192,-0.2393078 -0.01889,0.02519 0.283382,-0.2519029 0.302274,-0.2770933 0.277084,-0.2204151 -0.02519,0.056679 0.302274,-0.2330102 0.327463,-0.2896884 0.289679,-0.2015223 -0.03778,0.088166 0.321166,-0.2078199 1.977374,-1.1965377 4.313699,-1.3539771 2.336324,-0.1574393 4.439646,0.7997919 1.4358,0.6549463 2.512651,1.7381289 1.07685,1.0831827 1.6751,2.3615901 0.598251,1.2784074 0.799766,2.7394437 0.201516,1.4610371 -0.03149,2.8779911 -0.233003,1.416954 -0.913119,2.783526 -0.680116,1.366574 -1.763264,2.449757 L 16.213496,30.234185 q -0.0126,0.0126 -0.08187,0.08817 -0.06927,0.07557 -0.107055,0.100759 -0.03778,0.02519 -0.100758,0.06298 -0.06297,0.03778 -0.125947,0.03778 -0.214111,0 -0.516385,-0.264498 -0.302274,-0.264498 -0.636034,-0.680138 -0.333761,-0.415638 -0.396735,-0.478614 -0.08816,-0.10076 -0.08816,-0.226713 0,-0.125951 0.08816,-0.226713 L 27.044973,15.85053 Q 29.337216,13.533024 29.538732,10.951019 29.652085,9.3388397 29.028645,7.8715064 28.405205,6.4041718 27.158326,5.3902625 25.911447,4.3763531 24.311915,4.0866648 23.027251,3.8599521 21.900022,4.067772 q -1.12723,0.2078199 -2.229269,0.9509336 -1.10204,0.7431138 -1.738075,1.3035977 -0.636034,0.5604841 -1.782156,1.7192376 l -0.132244,0.132249 -0.11965,0.119654 -0.138543,0.1385454 -8.3503136,8.3505817 q -0.327463,0.327474 -1.0453636,0.988718 -0.7179002,0.661245 -1.1839056,1.102075 -0.4660055,0.440831 -1.070553,1.146158 -0.6045477,0.705329 -0.9383084,1.291003 -0.3337606,0.585675 -0.5289791,1.341383 -0.1952185,0.755709 -0.081866,1.486226 0.1763264,1.24692 1.0012819,2.084497 0.8249557,0.837577 1.8766165,1.076885 1.0516609,0.239308 2.2166743,-0.05668 1.165014,-0.295985 2.008861,-1.13986 l 1.7128846,-1.71294 8.186583,-8.186844 4.294807,-4.294944 Q 24.349699,11.417041 24.456754,10.85026 24.563809,10.283478 24.318212,9.8678379 24.072615,9.4521981 23.67588,9.2002952 23.279146,8.9483923 22.71868,9.0491532 22.158214,9.1499128 21.679614,9.62853 q -0.314869,0.2644978 -0.869037,0.850172 -0.554169,0.585674 -0.617143,0.64865 l -2.808627,2.808718 -3.438364,3.438474 q 0,0 -1.700292,1.687749 -0.05038,0.05038 -0.151137,0.163737 -0.100757,0.113355 -0.188921,0.214117 -0.08816,0.100759 -0.21411,0.20782 -0.125948,0.107057 -0.233003,0.170035 -0.107055,0.06297 -0.226705,0.05668 -0.11965,-0.0063 -0.207814,-0.09446 L 9.7146084,18.470328 q -0.201515,-0.226713 0,-0.453426 0.6549266,-0.654947 2.9912526,-3.022834 2.336324,-2.367887 4.370375,-4.4083 2.034051,-2.0404143 2.764546,-2.7079564 0.894226,-0.8186846 1.93959,-1.1650512 1.045363,-0.3463666 2.115916,-0.1448441 1.22169,0.2267126 2.008861,1.0642898 0.787172,0.8375766 1.001282,1.8829743 0.214111,1.0453966 -0.09446,2.1789596 -0.308571,1.133564 -1.12723,1.952248 l -1.712884,1.712939 -2.575625,2.575706 -3.035333,3.035431 -2.575624,2.575706 q -0.4786,0.478616 -1.404314,1.47993 -0.925713,1.001314 -1.561748,1.668857 -0.636035,0.667543 -1.561749,1.423251 -0.925713,0.755709 -1.7695606,1.158754 -1.108337,0.541589 -2.348919,0.654947 Q 5.8984022,30.045258 4.7522808,29.749274 3.6061594,29.453286 2.5985801,28.722768 1.5910008,27.992249 0.93607433,26.934257 -0.27302097,24.893843 0.07963183,22.54485 Z"
     id="path2989"
     inkscape:connector-curvature="0" />
</svg>
