<?xml version="1.0" encoding="UTF-8" standalone="no"?>
<svg
   xmlns:dc="http://purl.org/dc/elements/1.1/"
   xmlns:cc="http://creativecommons.org/ns#"
   xmlns:rdf="http://www.w3.org/1999/02/22-rdf-syntax-ns#"
   xmlns:svg="http://www.w3.org/2000/svg"
   xmlns="http://www.w3.org/2000/svg"
   xmlns:sodipodi="http://sodipodi.sourceforge.net/DTD/sodipodi-0.dtd"
   xmlns:inkscape="http://www.inkscape.org/namespaces/inkscape"
   version="1.1"
   width="32px"
   height="32px"
   id="svg2985"
   inkscape:version="0.48.4 r9939"
   sodipodi:docname="parents.svg">
  <metadata
     id="metadata2995">
    <rdf:RDF>
      <cc:Work
         rdf:about="">
        <dc:format>image/svg+xml</dc:format>
        <dc:type
           rdf:resource="http://purl.org/dc/dcmitype/StillImage" />
      </cc:Work>
    </rdf:RDF>
  </metadata>
  <defs
     id="defs2993" />
  <sodipodi:namedview
     pagecolor="#ffffff"
     bordercolor="#666666"
     borderopacity="1"
     objecttolerance="10"
     gridtolerance="10"
     guidetolerance="10"
     inkscape:pageopacity="0"
     inkscape:pageshadow="2"
     inkscape:window-width="1920"
     inkscape:window-height="1018"
     id="namedview2991"
     showgrid="false"
     inkscape:zoom="7.375"
     inkscape:cx="-16.40678"
     inkscape:cy="16"
     inkscape:window-x="-8"
     inkscape:window-y="-8"
     inkscape:window-maximized="1"
     inkscape:current-layer="svg2985" />
  <g
     id="g2987"
     transform="matrix(0.01,0,0,-0.01,5,33)" />
  <path
     d="M 0,26.5 V 24.15 Q 0,23.35 0.205,22.945 0.41,22.54 1,22.21 5.81,19.43 8,18.48 V 14.72 Q 7,13.98 7,12.48 V 9.5 Q 7,8.24 7.485,7.24 7.97,6.24 9.01,5.62 10.05,5 11.5,5 12.95,5 13.99,5.62 15.03,6.24 15.515,7.24 16,8.24 16,9.5 v 2.98 q 0,1.5 -1,2.23 v 3.77 q 1.86,0.76 7,3.73 0.59,0.33 0.795,0.735 Q 23,23.35 23,24.15 v 2.35 q 0,0.21 -0.145,0.355 Q 22.71,27 22.5,27 H 0.5 Q 0.3,27 0.15,26.855 0,26.71 0,26.5 z M 17.1,17.665 Q 17.09,17.5 17.175,17.35 17.26,17.2 17.44,17.005 17.62,16.81 17.81,16.645 18,16.48 18.255,16.23 q 0.255,-0.25 0.435,-0.47 0.62,-0.72 0.815,-1.5 0.195,-0.78 0.195,-2.32 0,-0.95 0.47,-1.835 Q 20.64,9.22 21.565,8.615 22.49,8.01 23.65,8 q 1.16,0.01 2.085,0.615 0.925,0.605 1.395,1.49 0.47,0.885 0.47,1.835 0,1.56 0.185,2.335 0.185,0.775 0.795,1.485 0.18,0.21 0.43,0.465 0.25,0.255 0.425,0.42 0.175,0.165 0.34,0.365 0.165,0.2 0.24,0.345 0.075,0.145 0.055,0.31 -0.02,0.165 -0.16,0.315 -0.56,0.61 -1.565,1.14 Q 27.34,19.65 26,19.73 v 1.99 q 1.43,0.62 2.95,1.34 1.52,0.72 2.03,1.01 0.49,0.28 0.755,0.615 Q 32,25.02 32,25.5 v 1 q 0,0.21 -0.13,0.355 Q 31.74,27 31.54,27 H 24 V 23.72 Q 24,22.69 23.655,22.045 23.31,21.4 22.31,20.83 L 21,20.08 V 19.73 Q 20.17,19.69 19.39,19.4 18.45,18.88 17.98,18.64 17.6,18.35 17.25,17.98 17.11,17.83 17.1,17.665 z"
     id="path2989"
     inkscape:connector-curvature="0" />
</svg>
