<?xml version="1.0" encoding="UTF-8" standalone="no"?>
<svg
   xmlns:dc="http://purl.org/dc/elements/1.1/"
   xmlns:cc="http://creativecommons.org/ns#"
   xmlns:rdf="http://www.w3.org/1999/02/22-rdf-syntax-ns#"
   xmlns:svg="http://www.w3.org/2000/svg"
   xmlns="http://www.w3.org/2000/svg"
   xmlns:sodipodi="http://sodipodi.sourceforge.net/DTD/sodipodi-0.dtd"
   xmlns:inkscape="http://www.inkscape.org/namespaces/inkscape"
   version="1.1"
   width="32px"
   height="32px"
   id="svg2985"
   inkscape:version="0.91 r13725"
   sodipodi:docname="pause.svg">
  <metadata
     id="metadata2995">
    <rdf:RDF>
      <cc:Work
         rdf:about="">
        <dc:format>image/svg+xml</dc:format>
        <dc:type
           rdf:resource="http://purl.org/dc/dcmitype/StillImage" />
      </cc:Work>
    </rdf:RDF>
  </metadata>
  <defs
     id="defs2993" />
  <sodipodi:namedview
     pagecolor="#ffffff"
     bordercolor="#666666"
     borderopacity="1"
     objecttolerance="10"
     gridtolerance="10"
     guidetolerance="10"
     inkscape:pageopacity="0"
     inkscape:pageshadow="2"
     inkscape:window-width="1920"
     inkscape:window-height="1028"
     id="namedview2991"
     showgrid="false"
     inkscape:zoom="7.375"
     inkscape:cx="-0.20338983"
     inkscape:cy="16"
     inkscape:window-x="-8"
     inkscape:window-y="-8"
     inkscape:window-maximized="1"
     inkscape:current-layer="svg2985" />
  <g
     id="g2987"
     transform="matrix(0.02,0,0,-0.02,-25,48)" />
  <path
     d="M 6,31 6,1 Q 6,0.6 6.29,0.3 6.58,0 7,0 l 6,0 Q 13.42,0 13.71,0.3 14,0.6 14,1 l 0,30 q 0,0.42 -0.29,0.71 Q 13.42,32 13,32 L 7,32 Q 6.58,32 6.29,31.71 6,31.42 6,31 Z M 18,31 18,1 Q 18,0.6 18.29,0.3 18.58,0 19,0 l 6,0 Q 25.42,0 25.71,0.3 26,0.6 26,1 l 0,30 q 0,0.42 -0.29,0.71 Q 25.42,32 25,32 l -6,0 Q 18.58,32 18.29,31.71 18,31.42 18,31 Z"
     id="path2989"
     inkscape:connector-curvature="0" />
</svg>
