<?xml version="1.0" encoding="UTF-8" standalone="no"?>
<svg
   xmlns:dc="http://purl.org/dc/elements/1.1/"
   xmlns:cc="http://creativecommons.org/ns#"
   xmlns:rdf="http://www.w3.org/1999/02/22-rdf-syntax-ns#"
   xmlns:svg="http://www.w3.org/2000/svg"
   xmlns="http://www.w3.org/2000/svg"
   xmlns:sodipodi="http://sodipodi.sourceforge.net/DTD/sodipodi-0.dtd"
   xmlns:inkscape="http://www.inkscape.org/namespaces/inkscape"
   version="1.1"
   width="32px"
   height="32px"
   id="svg2985"
   inkscape:version="0.91 r13725"
   sodipodi:docname="pen.svg">
  <metadata
     id="metadata2995">
    <rdf:RDF>
      <cc:Work
         rdf:about="">
        <dc:format>image/svg+xml</dc:format>
        <dc:type
           rdf:resource="http://purl.org/dc/dcmitype/StillImage" />
      </cc:Work>
    </rdf:RDF>
  </metadata>
  <defs
     id="defs2993" />
  <sodipodi:namedview
     pagecolor="#ffffff"
     bordercolor="#666666"
     borderopacity="1"
     objecttolerance="10"
     gridtolerance="10"
     guidetolerance="10"
     inkscape:pageopacity="0"
     inkscape:pageshadow="2"
     inkscape:window-width="1920"
     inkscape:window-height="1028"
     id="namedview2991"
     showgrid="false"
     inkscape:zoom="7.375"
     inkscape:cx="-23.322034"
     inkscape:cy="16"
     inkscape:window-x="-8"
     inkscape:window-y="-8"
     inkscape:window-maximized="1"
     inkscape:current-layer="svg2985" />
  <g
     id="g2987"
     transform="matrix(0.01376936,0,0,-0.01376936,-3.0279174,33.656635)" />
  <path
     d="M 0,31.979346 4.3511188,23.24957 8.86747,27.765921 Z M 4.9982788,21.404475 21.962134,4.4406198 l -2.395869,0 -8.509466,8.5094662 -0.04131,-0.02754 0,-1.886403 7.972461,-7.9724609 4.364888,0 0.702237,-0.7160068 q 0.385545,-0.3855422 0.936319,-0.3924269 0.550775,-0.00688 0.950086,0.3511188 l 1.886403,-1.8864028 q 0.399311,-0.3993115 0.97074,-0.3993115 0.571429,0 0.97074,0.3993115 l 1.831325,1.8313253 Q 32,2.6506026 32,3.2289158 32,3.8072291 31.600688,4.2065406 l -1.872633,1.8864027 q 0.358004,0.3993116 0.344234,0.9500861 -0.01377,0.5507745 -0.399311,0.9225473 L 10.616179,27.022375 Z"
     id="path2989"
     inkscape:connector-curvature="0" />
</svg>
