<?xml version="1.0" encoding="UTF-8" standalone="no"?>
<svg
   xmlns:dc="http://purl.org/dc/elements/1.1/"
   xmlns:cc="http://creativecommons.org/ns#"
   xmlns:rdf="http://www.w3.org/1999/02/22-rdf-syntax-ns#"
   xmlns:svg="http://www.w3.org/2000/svg"
   xmlns="http://www.w3.org/2000/svg"
   xmlns:sodipodi="http://sodipodi.sourceforge.net/DTD/sodipodi-0.dtd"
   xmlns:inkscape="http://www.inkscape.org/namespaces/inkscape"
   version="1.1"
   width="32px"
   height="32px"
   id="svg2985"
   inkscape:version="0.91 r13725"
   sodipodi:docname="phone_alt.svg">
  <metadata
     id="metadata2995">
    <rdf:RDF>
      <cc:Work
         rdf:about="">
        <dc:format>image/svg+xml</dc:format>
        <dc:type
           rdf:resource="http://purl.org/dc/dcmitype/StillImage" />
      </cc:Work>
    </rdf:RDF>
  </metadata>
  <defs
     id="defs2993" />
  <sodipodi:namedview
     pagecolor="#ffffff"
     bordercolor="#666666"
     borderopacity="1"
     objecttolerance="10"
     gridtolerance="10"
     guidetolerance="10"
     inkscape:pageopacity="0"
     inkscape:pageshadow="2"
     inkscape:window-width="1920"
     inkscape:window-height="1028"
     id="namedview2991"
     showgrid="false"
     inkscape:zoom="7.375"
     inkscape:cx="-0.20338983"
     inkscape:cy="16"
     inkscape:window-x="-8"
     inkscape:window-y="-8"
     inkscape:window-maximized="1"
     inkscape:current-layer="svg2985" />
  <g
     id="g2987"
     transform="matrix(0.01333333,0,0,-0.01333333,-1.3333333,35.04)" />
  <path
     d="M 0,11.84 Q 0,12.386667 0.3866667,12.72 0.7733333,13.053333 1.32,12.96 L 6.68,12.053333 Q 7.226667,11.96 7.613333,11.506667 8,11.053333 8,10.506667 L 8,6.6133333 q 3.853333,-0.6533334 8,-0.6533334 4.146667,0 8,0.6533334 l 0,3.8933337 q 0,0.546666 0.386667,1 Q 24.773333,11.96 25.32,12.053333 L 30.68,12.96 q 0.546667,0.09333 0.933333,-0.24 Q 32,12.386667 32,11.84 l 0,-5.3333334 q -0.08,-0.1066667 -0.253333,-0.2866667 -0.173334,-0.18 -0.82,-0.7 -0.646667,-0.52 -1.433334,-0.9933333 -0.786666,-0.4733333 -2.146666,-1.0533333 -1.36,-0.58 -2.913334,-0.9933334 Q 22.88,2.0666666 20.666667,1.7799999 18.453333,1.4933333 16,1.4933333 q -2.453333,0 -4.66,0.2733333 -2.206667,0.2733333 -3.78,0.72 -1.5733333,0.4466667 -2.9,0.98 Q 3.3333333,4 2.5,4.5333333 1.6666667,5.0666666 1.08,5.5133333 0.4933333,5.9599999 0.24,6.2399999 L 0,6.5066666 0,11.84 Z m 1.3333333,17.333334 0,-6.666667 q 0,-0.546667 0.28,-1.22 0.28,-0.673333 0.6666667,-1.06 L 8.386667,14.12 q 0.306666,-0.306666 0.946666,-0.613333 l 0,-2.76 q 0.05333,-0.05333 0.173334,-0.14 0.12,-0.08667 0.64,-0.306667 0.52,-0.22 1.2,-0.3933334 0.68,-0.1733333 1.92,-0.3133333 1.24,-0.14 2.733333,-0.14 1.493333,0 2.726667,0.1333333 Q 19.96,9.7199999 20.66,9.9133333 q 0.7,0.1933337 1.186667,0.3799997 0.486666,0.186667 0.66,0.32 l 0.16,0.133334 0,2.76 Q 23.293333,13.8 23.613333,14.12 L 29.72,20.226667 q 0.386667,0.386667 0.666667,1.06 0.28,0.673333 0.28,1.22 l 0,6.666667 q 0,0.546666 -0.393334,0.94 -0.393333,0.393333 -0.94,0.393333 l -26.6666663,0 q -0.5466667,0 -0.94,-0.393333 -0.3933334,-0.393334 -0.3933334,-0.94 z m 9.3333337,-6.666667 2.666666,0 0,-1.333333 -2.666666,0 0,1.333333 z m 0,-2.666667 2.666666,0 0,-1.333333 -2.666666,0 0,1.333333 z m 0,-2.666666 2.666666,0 0,-1.333334 -2.666666,0 0,1.333334 z m 4,5.333333 2.666666,0 0,-1.333333 -2.666666,0 0,1.333333 z m 0,-2.666667 2.666666,0 0,-1.333333 -2.666666,0 0,1.333333 z m 0,-2.666666 2.666666,0 0,-1.333334 -2.666666,0 0,1.333334 z m 4,5.333333 2.666666,0 0,-1.333333 -2.666666,0 0,1.333333 z m 0,-2.666667 2.666666,0 0,-1.333333 -2.666666,0 0,1.333333 z m 0,-2.666666 2.666666,0 0,-1.333334 -2.666666,0 0,1.333334 z"
     id="path2989"
     inkscape:connector-curvature="0" />
</svg>
