<?xml version="1.0" encoding="UTF-8" standalone="no"?>
<svg
   xmlns:dc="http://purl.org/dc/elements/1.1/"
   xmlns:cc="http://creativecommons.org/ns#"
   xmlns:rdf="http://www.w3.org/1999/02/22-rdf-syntax-ns#"
   xmlns:svg="http://www.w3.org/2000/svg"
   xmlns="http://www.w3.org/2000/svg"
   xmlns:sodipodi="http://sodipodi.sourceforge.net/DTD/sodipodi-0.dtd"
   xmlns:inkscape="http://www.inkscape.org/namespaces/inkscape"
   version="1.1"
   width="32px"
   height="32px"
   id="svg2985"
   inkscape:version="0.91 r13725"
   sodipodi:docname="piano.svg">
  <metadata
     id="metadata2995">
    <rdf:RDF>
      <cc:Work
         rdf:about="">
        <dc:format>image/svg+xml</dc:format>
        <dc:type
           rdf:resource="http://purl.org/dc/dcmitype/StillImage" />
      </cc:Work>
    </rdf:RDF>
  </metadata>
  <defs
     id="defs2993" />
  <sodipodi:namedview
     pagecolor="#ffffff"
     bordercolor="#666666"
     borderopacity="1"
     objecttolerance="10"
     gridtolerance="10"
     guidetolerance="10"
     inkscape:pageopacity="0"
     inkscape:pageshadow="2"
     inkscape:window-width="1920"
     inkscape:window-height="1028"
     id="namedview2991"
     showgrid="false"
     inkscape:zoom="7.375"
     inkscape:cx="-0.20338983"
     inkscape:cy="16"
     inkscape:window-x="-8"
     inkscape:window-y="-8"
     inkscape:window-maximized="1"
     inkscape:current-layer="svg2985" />
  <g
     id="g2987"
     transform="matrix(0.01333333,0,0,-0.01333333,-2.8333333,33.333333)" />
  <path
     d="m 0.6666665,28 0,-24 q 0,-1.6533333 1.1733333,-2.8266667 Q 3.0133332,0 4.6666665,0 L 27.333334,0 Q 28.986667,0 30.16,1.1733333 31.333333,2.3466667 31.333333,4 l 0,24 q 0,1.653333 -1.173333,2.826667 Q 28.986667,32 27.333334,32 L 4.6666665,32 Q 3.0133332,32 1.8399998,30.826667 0.6666665,29.653333 0.6666665,28 Z m 2.6666667,1.333333 5.3333333,0 0,-8 -1.333333,0 0,-11.9999997 -4.0000003,0 0,19.9999997 z m 6.6666663,0 5.3333345,0 0,-8 -1.333334,0 0,-11.9999997 -2.666666,0 0,11.9999997 -1.3333345,0 0,8 z m 6.6666675,0 5.333333,0 0,-8 -1.333333,0 0,-11.9999997 -2.666667,0 0,11.9999997 -1.333333,0 0,8 z m 6.666667,0 5.333333,0 0,-19.9999997 -4,0 0,11.9999997 -1.333333,0 0,8 z"
     id="path2989"
     inkscape:connector-curvature="0" />
</svg>
