<?xml version="1.0" encoding="UTF-8" standalone="no"?>
<svg
   xmlns:dc="http://purl.org/dc/elements/1.1/"
   xmlns:cc="http://creativecommons.org/ns#"
   xmlns:rdf="http://www.w3.org/1999/02/22-rdf-syntax-ns#"
   xmlns:svg="http://www.w3.org/2000/svg"
   xmlns="http://www.w3.org/2000/svg"
   xmlns:sodipodi="http://sodipodi.sourceforge.net/DTD/sodipodi-0.dtd"
   xmlns:inkscape="http://www.inkscape.org/namespaces/inkscape"
   version="1.1"
   width="32px"
   height="32px"
   id="svg2985"
   inkscape:version="0.91 r13725"
   sodipodi:docname="picture.svg">
  <metadata
     id="metadata2995">
    <rdf:RDF>
      <cc:Work
         rdf:about="">
        <dc:format>image/svg+xml</dc:format>
        <dc:type
           rdf:resource="http://purl.org/dc/dcmitype/StillImage" />
      </cc:Work>
    </rdf:RDF>
  </metadata>
  <defs
     id="defs2993" />
  <sodipodi:namedview
     pagecolor="#ffffff"
     bordercolor="#666666"
     borderopacity="1"
     objecttolerance="10"
     gridtolerance="10"
     guidetolerance="10"
     inkscape:pageopacity="0"
     inkscape:pageshadow="2"
     inkscape:window-width="1920"
     inkscape:window-height="1028"
     id="namedview2991"
     showgrid="false"
     inkscape:zoom="7.375"
     inkscape:cx="-23.322034"
     inkscape:cy="16"
     inkscape:window-x="-8"
     inkscape:window-y="-8"
     inkscape:window-maximized="1"
     inkscape:current-layer="svg2985" />
  <g
     id="g2987"
     transform="matrix(0.01333333,0,0,-0.01333333,-1.3333333,36.666667)" />
  <path
     d="M 0,28.173333 0,3.84 q 0,-0.4933333 0.34,-0.8333333 0.34,-0.34 0.8333333,-0.34 l 29.6666667,0 q 0.48,0 0.82,0.34 Q 32,3.3466667 32,3.84 l 0,24.333333 q 0,0.48 -0.34,0.82 -0.34,0.34 -0.82,0.34 l -29.6666667,0 q -0.4933333,0 -0.8333333,-0.34 -0.34,-0.34 -0.34,-0.82 z m 2.6666667,-2.84 L 10.746667,20 q 0.48,0.186666 1.273333,0.513333 0.793333,0.326667 2.613333,1.2 1.82,0.873333 2.926667,1.566667 0.92,0.586666 0.88,0.01333 -0.04,-0.666667 -1.106667,-2.12 -1.24,-1.693333 -2.373333,-2.346667 l -0.306667,-0.16 Q 15.24,18.08 16.446667,16.746666 q 1.206666,-1.333333 2.126666,-2.373333 l 0.92,-1.04 L 19.64,13.186667 q 0,0 0.38,-0.32 0.38,-0.32 0.573333,-0.4 0.193334,-0.08 0.686667,-0.32 0.493333,-0.24 0.76,-0.146667 0.573333,0 1.22,0.333333 Q 23.906667,12.666667 24.266667,13 l 0.36,0.333333 4.706666,4.773333 0,-12.7733327 -26.6666663,0 0,19.9999997 z M 5.08,10.666667 q 0,-1.2000004 0.8533333,-2.0600004 0.8533337,-0.86 2.0666667,-0.86 1.213333,0 2.066667,0.86 0.853333,0.86 0.853333,2.0600004 0,1.213333 -0.853333,2.066666 Q 9.213333,13.586666 8,13.586666 q -1.213333,0 -2.0666667,-0.853333 Q 5.08,11.88 5.08,10.666667 Z"
     id="path2989"
     inkscape:connector-curvature="0" />
</svg>
