<?xml version="1.0" encoding="UTF-8" standalone="no"?>
<svg
   xmlns:dc="http://purl.org/dc/elements/1.1/"
   xmlns:cc="http://creativecommons.org/ns#"
   xmlns:rdf="http://www.w3.org/1999/02/22-rdf-syntax-ns#"
   xmlns:svg="http://www.w3.org/2000/svg"
   xmlns="http://www.w3.org/2000/svg"
   xmlns:sodipodi="http://sodipodi.sourceforge.net/DTD/sodipodi-0.dtd"
   xmlns:inkscape="http://www.inkscape.org/namespaces/inkscape"
   version="1.1"
   width="32px"
   height="32px"
   id="svg2985"
   inkscape:version="0.91 r13725"
   sodipodi:docname="pie_chart.svg">
  <metadata
     id="metadata2995">
    <rdf:RDF>
      <cc:Work
         rdf:about="">
        <dc:format>image/svg+xml</dc:format>
        <dc:type
           rdf:resource="http://purl.org/dc/dcmitype/StillImage" />
      </cc:Work>
    </rdf:RDF>
  </metadata>
  <defs
     id="defs2993" />
  <sodipodi:namedview
     pagecolor="#ffffff"
     bordercolor="#666666"
     borderopacity="1"
     objecttolerance="10"
     gridtolerance="10"
     guidetolerance="10"
     inkscape:pageopacity="0"
     inkscape:pageshadow="2"
     inkscape:window-width="1920"
     inkscape:window-height="1028"
     id="namedview2991"
     showgrid="false"
     inkscape:zoom="7.375"
     inkscape:cx="-0.20338983"
     inkscape:cy="16"
     inkscape:window-x="-8"
     inkscape:window-y="-8"
     inkscape:window-maximized="1"
     inkscape:current-layer="svg2985" />
  <g
     id="g2987"
     transform="matrix(0.01314708,0,0,-0.01314708,-2.349129,33.220657)" />
  <path
     d="M 0,15.395234 Q 0,12.410846 1.1700904,9.6894001 2.3401808,6.9679539 4.3056697,5.0090386 6.271159,3.0501233 8.999178,1.8866064 q 2.72802,-1.16351685 5.712408,-1.16351685 2.984388,0 5.646672,1.13064915 2.662284,1.1306491 4.700082,3.168447 l -10.425637,10.3599013 0,14.672144 q -1.945768,0 -3.819227,-0.525883 Q 8.940016,29.002465 7.329499,28.055875 5.7189811,27.109285 4.358258,25.755135 2.9975349,24.400986 2.0377979,22.797041 1.0780608,21.193097 0.5390304,19.28677 0,17.380443 0,15.395234 Z m 15.947412,15.881676 0,-14.658998 10.373048,10.359902 Q 22.021364,31.27691 15.947412,31.27691 Z M 17.327855,15.395234 27.687757,5.0221857 q 2.11668,2.1035332 3.214462,4.8447 Q 32,12.608053 32,15.38866 q 0,2.780608 -1.097781,5.521775 -1.097782,2.741167 -3.214462,4.8447 z"
     id="path2989"
     inkscape:connector-curvature="0" />
</svg>
