<?xml version="1.0" encoding="UTF-8" standalone="no"?>
<svg
   xmlns:dc="http://purl.org/dc/elements/1.1/"
   xmlns:cc="http://creativecommons.org/ns#"
   xmlns:rdf="http://www.w3.org/1999/02/22-rdf-syntax-ns#"
   xmlns:svg="http://www.w3.org/2000/svg"
   xmlns="http://www.w3.org/2000/svg"
   xmlns:sodipodi="http://sodipodi.sourceforge.net/DTD/sodipodi-0.dtd"
   xmlns:inkscape="http://www.inkscape.org/namespaces/inkscape"
   version="1.1"
   width="32px"
   height="32px"
   id="svg2985"
   inkscape:version="0.91 r13725"
   sodipodi:docname="pin.svg">
  <metadata
     id="metadata2995">
    <rdf:RDF>
      <cc:Work
         rdf:about="">
        <dc:format>image/svg+xml</dc:format>
        <dc:type
           rdf:resource="http://purl.org/dc/dcmitype/StillImage" />
      </cc:Work>
    </rdf:RDF>
  </metadata>
  <defs
     id="defs2993" />
  <sodipodi:namedview
     pagecolor="#ffffff"
     bordercolor="#666666"
     borderopacity="1"
     objecttolerance="10"
     gridtolerance="10"
     guidetolerance="10"
     inkscape:pageopacity="0"
     inkscape:pageshadow="2"
     inkscape:window-width="1920"
     inkscape:window-height="1028"
     id="namedview2991"
     showgrid="false"
     inkscape:zoom="7.375"
     inkscape:cx="-0.20338983"
     inkscape:cy="16"
     inkscape:window-x="-8"
     inkscape:window-y="-8"
     inkscape:window-maximized="1"
     inkscape:current-layer="svg2985" />
  <g
     id="g2987"
     transform="matrix(0.01338352,0,0,-0.01338352,-53.033835,33.382018)" />
  <path
     d="m 9.4420745,6.5579256 q 0,-1.7800084 0.8766205,-3.2923463 0.876621,-1.512338 2.388958,-2.3889586 Q 14.219991,0 16,0 q 2.716854,0 4.63739,1.9205353 1.920535,1.9205354 1.920535,4.6373903 0,1.7800083 -0.876621,3.2923463 -0.87662,1.5123381 -2.388958,2.3889581 -1.512338,0.876621 -3.292345,0.876621 -2.703472,0 -4.630699,-1.927227 Q 9.4420745,9.2613969 9.4420745,6.5579256 Z M 11.51652,5.5541614 q -0.01338,0.5754915 0.140527,0.8565454 0.15391,0.281054 0.38143,0.281054 0.267671,0 0.515267,-0.307821 0.247595,-0.307821 0.287744,-0.7494772 0.05354,-0.5085739 0.608951,-0.9636136 0.555416,-0.4550397 1.284818,-0.7093266 0.729403,-0.2542869 1.358427,-0.2542869 l 0.173986,0 0.09369,0.013384 q 0.642409,0 0.883312,-0.4684233 0.22752,-0.4818067 -0.254287,-0.8833124 -0.361355,-0.2944375 -0.99038,-0.4015056 -1.820159,0 -3.15182,1.0238394 -1.33166,1.0238394 -1.33166,2.5629443 z m 0.347971,24.3847766 q 0,-0.669176 0.789628,-1.204517 0.789628,-0.535341 2.047679,-0.749477 l 0,-13.691343 Q 15.009619,14.414053 16,14.414053 q 0.99038,0 1.311585,-0.120452 l 0,13.691343 q 1.244667,0.214136 2.034295,0.749477 0.789628,0.535341 0.789628,1.204517 0,0.856545 -1.211209,1.458804 Q 17.71309,32 16,32 14.286909,32 13.0757,31.397742 11.864491,30.795483 11.864491,29.938938 Z"
     id="path2989"
     inkscape:connector-curvature="0" />
</svg>
