<?xml version="1.0" encoding="UTF-8" standalone="no"?>
<svg
   xmlns:dc="http://purl.org/dc/elements/1.1/"
   xmlns:cc="http://creativecommons.org/ns#"
   xmlns:rdf="http://www.w3.org/1999/02/22-rdf-syntax-ns#"
   xmlns:svg="http://www.w3.org/2000/svg"
   xmlns="http://www.w3.org/2000/svg"
   xmlns:sodipodi="http://sodipodi.sourceforge.net/DTD/sodipodi-0.dtd"
   xmlns:inkscape="http://www.inkscape.org/namespaces/inkscape"
   version="1.1"
   width="32px"
   height="32px"
   id="svg2985"
   inkscape:version="0.91 r13725"
   sodipodi:docname="pin_w.svg">
  <metadata
     id="metadata2995">
    <rdf:RDF>
      <cc:Work
         rdf:about="">
        <dc:format>image/svg+xml</dc:format>
        <dc:type
           rdf:resource="http://purl.org/dc/dcmitype/StillImage" />
        <dc:title />
      </cc:Work>
    </rdf:RDF>
  </metadata>
  <defs
     id="defs2993" />
  <sodipodi:namedview
     pagecolor="#ffffff"
     bordercolor="#666666"
     borderopacity="1"
     objecttolerance="10"
     gridtolerance="10"
     guidetolerance="10"
     inkscape:pageopacity="0"
     inkscape:pageshadow="2"
     inkscape:window-width="1920"
     inkscape:window-height="1028"
     id="namedview2991"
     showgrid="false"
     inkscape:zoom="7.375"
     inkscape:cx="-39.525424"
     inkscape:cy="16"
     inkscape:window-x="-8"
     inkscape:window-y="-8"
     inkscape:window-maximized="1"
     inkscape:current-layer="svg2985" />
  <g
     id="g2987"
     transform="matrix(0.01141936,0,0,-0.0114195,-0.39646449,34.53365)" />
  <path
     d="M -2.4642792e-5,15.91376 2.2912218,14.787546 15.99385,14.853336 16.03076,8.006 q 1.663366,0.00896 2.980232,0.6337954 1.316866,0.6248295 2.013786,1.6621756 0.696919,1.037347 0.690129,2.296997 l 7.993846,0.04308 0.0061,-1.130456 q 0.0025,-0.468332 0.343485,-0.805641 0.340961,-0.337309 0.809287,-0.334784 0.468326,0.0025 0.801617,0.33943 0.333289,0.336906 0.330764,0.805236 l -0.04926,9.140547 q -0.0025,0.468332 -0.339426,0.801625 -0.336902,0.333294 -0.805229,0.330769 -0.476444,0.0055 -0.80969,-0.339473 -0.333245,-0.344981 -0.330722,-0.813312 l 0.0061,-1.130457 -7.993848,-0.04309 q -0.0067,1.259651 -0.71485,2.289425 -0.70806,1.029773 -2.031585,1.640371 -1.323526,0.610598 -2.986892,0.601632 l 0.03691,-6.847334 -13.7025412,-0.08193 z"
     id="path2989"
     inkscape:connector-curvature="0" />
</svg>
