<?xml version="1.0" encoding="UTF-8" standalone="no"?>
<svg
   xmlns:dc="http://purl.org/dc/elements/1.1/"
   xmlns:cc="http://creativecommons.org/ns#"
   xmlns:rdf="http://www.w3.org/1999/02/22-rdf-syntax-ns#"
   xmlns:svg="http://www.w3.org/2000/svg"
   xmlns="http://www.w3.org/2000/svg"
   xmlns:sodipodi="http://sodipodi.sourceforge.net/DTD/sodipodi-0.dtd"
   xmlns:inkscape="http://www.inkscape.org/namespaces/inkscape"
   version="1.1"
   width="32px"
   height="32px"
   id="svg2985"
   inkscape:version="0.91 r13725"
   sodipodi:docname="pipe.svg">
  <metadata
     id="metadata2995">
    <rdf:RDF>
      <cc:Work
         rdf:about="">
        <dc:format>image/svg+xml</dc:format>
        <dc:type
           rdf:resource="http://purl.org/dc/dcmitype/StillImage" />
      </cc:Work>
    </rdf:RDF>
  </metadata>
  <defs
     id="defs2993" />
  <sodipodi:namedview
     pagecolor="#ffffff"
     bordercolor="#666666"
     borderopacity="1"
     objecttolerance="10"
     gridtolerance="10"
     guidetolerance="10"
     inkscape:pageopacity="0"
     inkscape:pageshadow="2"
     inkscape:window-width="1920"
     inkscape:window-height="1028"
     id="namedview2991"
     showgrid="false"
     inkscape:zoom="7.375"
     inkscape:cx="-0.20338983"
     inkscape:cy="16"
     inkscape:window-x="-8"
     inkscape:window-y="-8"
     inkscape:window-maximized="1"
     inkscape:current-layer="svg2985" />
  <g
     id="g2987"
     transform="matrix(0.01391304,0,0,-0.01391302,-1.7608696,37.137651)" />
  <path
     d="m 0,26.409045 0,-4.869559 q 0,-1.391302 4.8695652,-1.391302 4.8695648,0 4.8695648,1.391302 l 0,2.086955 q 0.890435,0.06957 2.031305,-0.431305 1.140869,-0.500868 2.281739,-1.363475 1.140869,-0.862609 2.406956,-2.03826 1.266087,-1.17565 2.379131,-2.39304 1.113043,-1.217389 2.212174,-2.490432 1.09913,-1.27304 1.885217,-2.260865 0.786087,-0.987825 1.426087,-1.787823 0.64,-0.8 0.806957,-0.9947817 0.584347,-0.6400014 1.356521,-1.106087 0.772174,-0.4660869 1.467826,-0.6747812 0.695653,-0.2086957 1.30087,-0.3269565 0.605217,-0.1182609 0.953044,-0.1321739 l 0.361739,0 1.391304,0 0,1.0434767 q 0,0.1530435 -0.09739,0.2504348 -0.09739,0.097391 -0.250435,0.097391 l -0.695652,0 q -0.153044,0 -0.250435,-0.097391 -0.09739,-0.097391 -0.09739,-0.2504348 -0.04174,-0.013913 -0.132174,-0.027826 -0.09043,-0.013913 -0.396522,0.00696 -0.306087,0.02087 -0.633043,0.1321739 -0.326957,0.1113044 -0.84174,0.41739 -0.514782,0.3060883 -1.043478,0.7791304 -0.278261,0.2504353 -0.827826,1.1199983 -0.549565,0.869564 -1.252174,2.073041 -0.702609,1.203477 -1.613913,2.713041 -0.911304,1.509562 -2.010435,3.088691 -1.09913,1.579128 -2.337391,3.158257 -1.238261,1.579129 -2.69913,2.97043 -1.46087,1.391303 -2.984348,2.462606 -1.523479,1.071303 -3.304348,1.69739 -1.78087,0.626086 -3.575652,0.626086 l -2.782609,0 q -1.7252173,0 -2.9495652,-1.022607 Q 0,27.842087 0,26.409045 Z M 2.9843478,15.744711 q -0.090435,0.744347 0.027826,1.182608 0.1182609,0.438261 0.2991304,0.438261 0.1808696,0 0.32,-0.347827 Q 3.7704347,16.669927 3.8886956,16.169059 4.0069564,15.66819 4.3895651,14.965582 4.7721738,14.262974 5.3426086,13.720365 5.954783,13.136019 8.765217,11.689065 11.742609,10.158632 12.577391,9.5464593 14.121739,8.4473288 12.8,8.057765 10.921739,7.4734176 11.770435,6.5968972 12.215652,6.1377675 14.038261,5.205595 15.846957,4.2595094 16.292174,3.8142928 17.085217,3.035162 15.763478,2.4925541 13.843478,1.6995119 10.532174,2.5621191 7.777391,3.2716833 5.843478,4.5934218 4.0904347,5.8038547 4.2573912,6.7499403 4.3269562,7.0699399 4.6052173,7.3203742 5.0643477,7.7238518 5.662609,8.0021127 6.26087,8.2803721 6.747826,8.3777635 7.234783,8.4751545 7.65913,8.5795026 8.083478,8.6838504 8.264348,8.7603721 8.445217,8.8368941 8.368696,9.0455895 8.292176,9.2542838 7.846957,9.5951548 7.401739,9.9360243 6.497391,10.534284 q -1.1826085,0.779129 -1.9965215,1.766954 -0.8139131,0.987824 -1.12,1.843475 -0.306087,0.855652 -0.3965218,1.599999 z"
     id="path2989"
     inkscape:connector-curvature="0" />
</svg>
