<?xml version="1.0" encoding="UTF-8" standalone="no"?>
<svg
   xmlns:dc="http://purl.org/dc/elements/1.1/"
   xmlns:cc="http://creativecommons.org/ns#"
   xmlns:rdf="http://www.w3.org/1999/02/22-rdf-syntax-ns#"
   xmlns:svg="http://www.w3.org/2000/svg"
   xmlns="http://www.w3.org/2000/svg"
   xmlns:sodipodi="http://sodipodi.sourceforge.net/DTD/sodipodi-0.dtd"
   xmlns:inkscape="http://www.inkscape.org/namespaces/inkscape"
   version="1.1"
   width="32px"
   height="32px"
   id="svg2985"
   inkscape:version="0.91 r13725"
   sodipodi:docname="pizza.svg">
  <metadata
     id="metadata2995">
    <rdf:RDF>
      <cc:Work
         rdf:about="">
        <dc:format>image/svg+xml</dc:format>
        <dc:type
           rdf:resource="http://purl.org/dc/dcmitype/StillImage" />
      </cc:Work>
    </rdf:RDF>
  </metadata>
  <defs
     id="defs2993" />
  <sodipodi:namedview
     pagecolor="#ffffff"
     bordercolor="#666666"
     borderopacity="1"
     objecttolerance="10"
     gridtolerance="10"
     guidetolerance="10"
     inkscape:pageopacity="0"
     inkscape:pageshadow="2"
     inkscape:window-width="1920"
     inkscape:window-height="1028"
     id="namedview2991"
     showgrid="false"
     inkscape:zoom="7.375"
     inkscape:cx="-0.20338983"
     inkscape:cy="16"
     inkscape:window-x="-8"
     inkscape:window-y="-8"
     inkscape:window-maximized="1"
     inkscape:current-layer="svg2985" />
  <g
     id="g2987"
     transform="matrix(0.01114827,0,0,-0.01114839,-0.36672798,28.840631)" />
  <path
     d="M 2.0479375,18.929966 Q 3.1627647,15.752675 4.9464882,12.920984 6.7302117,10.089292 9.4057975,7.3690852 12.03679,4.6934719 14.885172,2.9153039 17.733556,1.1371359 20.966555,1.755855e-7 L 21.958751,3.0546587 Q 16.128205,5.5964914 11.858417,9.8217305 7.5886287,14.046971 5.0802675,19.944469 Z m 4.8829431,1.627664 q 0.089186,-0.200671 0.2619844,-0.562993 0.1727983,-0.362323 0.7525084,-1.438142 0.5797101,-1.07582 1.2318841,-2.101472 0.652174,-1.025651 1.6778155,-2.369032 1.025641,-1.343381 2.095875,-2.435924 1.070233,-1.092543 2.458194,-2.1906591 1.387959,-1.0981161 2.603121,-1.8840775 1.215161,-0.7859614 2.279821,-1.4158454 1.06466,-0.6298839 1.677815,-0.9420388 l 0.624303,-0.3233033 7.35786,22.0626631 0,4.113755 q 0,0.523974 -0.351171,0.774813 -0.35117,0.250839 -0.852843,0.09476 L 27.811595,31.616831 Q 27.309922,31.449606 26.958752,30.964651 26.60758,30.479696 26.60758,29.955722 l 0,-2.842839 -1.114826,-0.367897 0,4.325575 q 0,1.159432 -0.925307,0.869574 l -2.19621,-0.6912 Q 21.858416,31.070561 21.44593,30.580032 21.033445,30.089503 21.033445,29.587825 l 0,-4.336723 -1.114828,-0.367897 0,1.616517 q 0,0.512825 -0.362319,0.808258 -0.362319,0.295432 -0.875139,0.183948 l -0.869565,-0.200671 q -0.512821,-0.111484 -0.87514,-0.562993 -0.362319,-0.45151 -0.362319,-0.975484 l 0,-1.984414 z m 3.6343364,-0.08919 6.57748,2.207381 q 0.958752,-1.10369 0.91416,-2.580852 -0.04459,-1.477161 -1.092532,-2.52511 -1.103678,-1.10369 -2.664436,-1.10369 -1.560758,0 -2.664437,1.10369 -0.479376,0.535123 -0.746934,1.259768 -0.267559,0.724645 -0.289855,1.181729 z m 4.470457,-7.447123 q 0,0.802684 0.568562,1.371251 0.568562,0.568568 1.371237,0.568568 0.802677,0 1.360089,-0.568568 0.568562,-0.568567 0.568562,-1.371251 0,-0.802684 -0.568562,-1.360105 -0.557413,-0.568568 -1.360089,-0.568568 -0.802675,0 -1.371237,0.568568 -0.568562,0.557421 -0.568562,1.360105 z m 4.972129,8.166194 q 0,0.585291 0.423635,0.997781 0.412486,0.423639 0.99777,0.423639 0.585284,0 1.008919,-0.423639 0.412486,-0.41249 0.412486,-1.003355 0,-0.590864 -0.412486,-1.003355 -0.423635,-0.41249 -1.008919,-0.41249 -0.585284,0 -0.99777,0.41249 -0.423635,0.423639 -0.423635,1.008929 z m 0.445931,-8.16062 q 0,1.27649 0.90301,2.17951 0.71349,0.713497 1.716834,0.864 1.003345,0.150503 1.861761,-0.306581 l -1.99554,-5.741422 q -0.936455,0.178375 -1.583055,0.813833 -0.90301,0.914169 -0.90301,2.19066 z m 3.768116,8.913137 q 0,0.6912 0.479376,1.181729 0.490524,0.490529 1.187291,0.490529 0.696767,0 1.187291,-0.490529 0.490524,-0.490529 0.490524,-1.181729 0,-0.691201 -0.490524,-1.18173 -0.490524,-0.490529 -1.187291,-0.490529 -0.696767,0 -1.187291,0.490529 -0.479376,0.490529 -0.479376,1.18173 z"
     id="path2989"
     inkscape:connector-curvature="0" />
</svg>
