<?xml version="1.0" encoding="UTF-8" standalone="no"?>
<svg
   xmlns:dc="http://purl.org/dc/elements/1.1/"
   xmlns:cc="http://creativecommons.org/ns#"
   xmlns:rdf="http://www.w3.org/1999/02/22-rdf-syntax-ns#"
   xmlns:svg="http://www.w3.org/2000/svg"
   xmlns="http://www.w3.org/2000/svg"
   xmlns:sodipodi="http://sodipodi.sourceforge.net/DTD/sodipodi-0.dtd"
   xmlns:inkscape="http://www.inkscape.org/namespaces/inkscape"
   version="1.1"
   width="32px"
   height="32px"
   id="svg2985"
   inkscape:version="0.91 r13725"
   sodipodi:docname="playlist.svg">
  <metadata
     id="metadata2995">
    <rdf:RDF>
      <cc:Work
         rdf:about="">
        <dc:format>image/svg+xml</dc:format>
        <dc:type
           rdf:resource="http://purl.org/dc/dcmitype/StillImage" />
      </cc:Work>
    </rdf:RDF>
  </metadata>
  <defs
     id="defs2993" />
  <sodipodi:namedview
     pagecolor="#ffffff"
     bordercolor="#666666"
     borderopacity="1"
     objecttolerance="10"
     gridtolerance="10"
     guidetolerance="10"
     inkscape:pageopacity="0"
     inkscape:pageshadow="2"
     inkscape:window-width="1920"
     inkscape:window-height="1028"
     id="namedview2991"
     showgrid="false"
     inkscape:zoom="7.375"
     inkscape:cx="-23.322034"
     inkscape:cy="16"
     inkscape:window-x="-8"
     inkscape:window-y="-8"
     inkscape:window-maximized="1"
     inkscape:current-layer="svg2985" />
  <g
     id="g2987"
     transform="matrix(0.01142167,0,0,-0.01142153,-0.28313276,33.110667)" />
  <path
     d="m 1.4717269e-7,24.821294 0,-2.284305 q 0,-0.228431 0.16561430282731,-0.399754 0.1656142,-0.171322 0.4054693,-0.171322 l 11.57015425,0 q -1.496239,1.564749 -1.804624,3.426459 l -9.76553025,0 q -0.2398551,0 -0.4054693,-0.165613 Q 1.4717269e-7,25.061146 1.4717269e-7,24.821294 Z m 0,-6.852917 0,-2.284307 q 0,-0.228431 0.16561430282731,-0.399754 0.1656142,-0.171323 0.4054693,-0.171323 l 17.70359225,0 0,3.426459 -17.70359225,0 q -0.2398551,0 -0.4054693,-0.165612 Q 1.4717269e-7,18.208229 1.4717269e-7,17.968377 Z m 0,-6.85292 0,-2.2843062 Q 1.4717269e-7,8.60272 0.16561445,8.4313971 0.33122865,8.260074 0.57108375,8.260074 l 17.70359225,0 0,3.42646 -17.70359225,0 q -0.2398551,0 -0.4054693,-0.165612 Q 1.4717269e-7,11.35531 1.4717269e-7,11.115457 Z M 13.260562,27.105601 q -0.331228,-0.993673 0.102795,-2.073008 0.434023,-1.079334 1.496238,-1.964503 1.062216,-0.885168 2.501347,-1.353451 0.422602,-0.125638 1.016529,-0.21701 0.593927,-0.09137 1.222119,-0.119926 0.628192,-0.02855 0.959421,0.119926 l 0,-18.2516072 q 0,-0.2855383 0.20559,-0.4911259 0.20559,-0.2055876 0.491132,-0.2055876 l 2.033056,0 q 0.285542,0 0.491132,0.2055876 0.205591,0.2055876 0.205591,0.4911259 l 0,0.6281844 q 0.445445,0.2855384 1.399155,0.6224736 0.953709,0.3369352 1.907419,0.662449 0.95371,0.3255136 1.918841,0.7652416 0.965132,0.4397291 1.673276,1.1250211 0.708142,0.6852919 0.925154,1.5533285 0.296963,1.0964669 0.131349,2.055876 -0.165614,0.959408 -0.525397,1.72465 -0.359781,0.765243 -0.890889,1.353452 -0.531108,0.588209 -0.976553,0.930856 -0.445446,0.342645 -0.776674,0.479704 -0.434024,0.159902 -0.47971,0.07424 -0.04569,-0.08566 0.114216,-0.268407 l 0.159904,-0.194165 q 0.06853,-0.102795 0.171325,-0.274117 0.102795,-0.171323 0.319807,-0.685293 0.217012,-0.513969 0.325517,-1.010805 0.108506,-0.496837 0.04569,-1.153574 Q 29.365122,10.9784 29.033894,10.441589 28.725509,9.9276196 28.028787,9.6021052 27.332065,9.2765921 26.641054,9.1737985 25.950042,9.0710037 25.161947,8.9053919 24.373851,8.7397796 23.985515,8.534192 l 0,16.161467 q 0,0.02284 -0.01142,0.06282 -0.01142,0.03997 -0.01142,0.06282 -0.13706,1.302055 -1.29636,2.484184 -1.159299,1.182129 -2.929658,1.753205 -2.192961,0.708136 -4.088959,0.137058 -1.895998,-0.571077 -2.387129,-2.090141 z"
     id="path2989"
     inkscape:connector-curvature="0" />
</svg>
