<?xml version="1.0" encoding="UTF-8" standalone="no"?>
<svg
   xmlns:dc="http://purl.org/dc/elements/1.1/"
   xmlns:cc="http://creativecommons.org/ns#"
   xmlns:rdf="http://www.w3.org/1999/02/22-rdf-syntax-ns#"
   xmlns:svg="http://www.w3.org/2000/svg"
   xmlns="http://www.w3.org/2000/svg"
   xmlns:sodipodi="http://sodipodi.sourceforge.net/DTD/sodipodi-0.dtd"
   xmlns:inkscape="http://www.inkscape.org/namespaces/inkscape"
   version="1.1"
   width="32px"
   height="32px"
   id="svg2985"
   inkscape:version="0.91 r13725"
   sodipodi:docname="playing_dices.svg">
  <metadata
     id="metadata2995">
    <rdf:RDF>
      <cc:Work
         rdf:about="">
        <dc:format>image/svg+xml</dc:format>
        <dc:type
           rdf:resource="http://purl.org/dc/dcmitype/StillImage" />
      </cc:Work>
    </rdf:RDF>
  </metadata>
  <defs
     id="defs2993" />
  <sodipodi:namedview
     pagecolor="#ffffff"
     bordercolor="#666666"
     borderopacity="1"
     objecttolerance="10"
     gridtolerance="10"
     guidetolerance="10"
     inkscape:pageopacity="0"
     inkscape:pageshadow="2"
     inkscape:window-width="1920"
     inkscape:window-height="1028"
     id="namedview2991"
     showgrid="false"
     inkscape:zoom="7.375"
     inkscape:cx="-23.322034"
     inkscape:cy="16"
     inkscape:window-x="-8"
     inkscape:window-y="-8"
     inkscape:window-maximized="1"
     inkscape:current-layer="svg2985" />
  <g
     id="g2987"
     transform="matrix(0.01191363,0,0,-0.01191363,-0.49180194,32.874527)" />
  <path
     d="M 0,26.043187 0,15.320924 q 0,-1.47729 1.0483991,-2.525689 1.0483991,-1.0484 2.5256888,-1.0484 l 10.7222631,0 q 1.47729,0 2.525689,1.0484 1.048399,1.048399 1.048399,2.525689 l 0,10.722263 q 0,1.47729 -1.048399,2.525689 -1.048399,1.048399 -2.525689,1.048399 l -10.7222631,0 q -1.4772897,0 -2.5256888,-1.048399 Q 0,27.520477 0,26.043187 Z m 2.0253165,-0.595681 q 0,0.881608 0.6314221,1.51303 0.6314222,0.631423 1.5130306,0.631423 0.8816083,0 1.5130305,-0.631423 0.6314222,-0.631422 0.6314222,-1.51303 0,-0.881609 -0.6314222,-1.513031 -0.6314222,-0.631422 -1.5130305,-0.631422 -0.8816084,0 -1.5130306,0.631422 -0.6314221,0.631422 -0.6314221,1.513031 z m 0,-9.530901 q 0,0.881608 0.6314221,1.51303 0.6314222,0.631423 1.5130306,0.631423 0.8816083,0 1.5130305,-0.631423 0.6314222,-0.631422 0.6314222,-1.51303 0,-0.881608 -0.6314222,-1.513031 -0.6314222,-0.631422 -1.5130305,-0.631422 -0.8816084,0 -1.5130306,0.631422 -0.6314221,0.631423 -0.6314221,1.513031 z m 4.7654504,4.76545 q 0,0.881609 0.6314222,1.513031 0.6314219,0.631422 1.5130309,0.631422 0.881608,0 1.51303,-0.631422 0.631422,-0.631422 0.631422,-1.513031 0,-0.881608 -0.631422,-1.51303 -0.631422,-0.631422 -1.51303,-0.631422 -0.881609,0 -1.5130309,0.631422 -0.6314222,0.631422 -0.6314222,1.51303 z M 11.186895,10.555473 18.323157,3.4192108 q 1.036486,-1.0364856 2.519732,-1.0364856 1.483247,0 2.531646,1.0364856 l 7.58898,7.5889802 Q 32,12.05659 32,13.539836 q 0,1.483247 -1.036485,2.519732 l -7.58898,7.58898 q -0.869695,0.857781 -2.084885,1.000745 -1.21519,0.142963 -2.227848,-0.452718 l 0,-3.526433 q 0.285927,0.440804 0.762472,0.702904 0.476545,0.262099 1.024572,0.262099 0.881608,0 1.51303,-0.631422 0.631423,-0.631422 0.631423,-1.51303 0,-0.881609 -0.631423,-1.513031 -0.631422,-0.631422 -1.51303,-0.631422 -0.548027,0 -1.024572,0.2621 -0.476545,0.2621 -0.762472,0.702904 l 0,-4.181683 q 0,-1.47729 -1.048399,-2.525689 -1.048399,-1.048399 -2.525689,-1.048399 l -4.300819,0 z m 0.369322,14.892033 q 0,0.881608 0.631423,1.51303 0.631422,0.631423 1.51303,0.631423 0.881608,0 1.513031,-0.631423 0.631422,-0.631422 0.631422,-1.51303 0,-0.881609 -0.631422,-1.513031 -0.631423,-0.631422 -1.513031,-0.631422 -0.881608,0 -1.51303,0.631422 -0.631423,0.631422 -0.631423,1.513031 z m 0,-9.530901 q 0,0.881608 0.631423,1.51303 0.631422,0.631423 1.51303,0.631423 0.881608,0 1.513031,-0.631423 0.631422,-0.631422 0.631422,-1.51303 0,-0.881608 -0.631422,-1.513031 -0.631423,-0.631422 -1.513031,-0.631422 -0.881608,0 -1.51303,0.631422 -0.631423,0.631423 -0.631423,1.513031 z m 7.148176,-8.3395387 q 0,0.8816084 0.631422,1.5130305 0.631423,0.6314222 1.513031,0.6314222 0.881608,0 1.51303,-0.6314222 0.631423,-0.6314221 0.631423,-1.5130305 0,-0.8816083 -0.631423,-1.5130305 -0.631422,-0.6314222 -1.51303,-0.6314222 -0.881608,0 -1.513031,0.6314222 -0.631422,0.6314222 -0.631422,1.5130305 z m 5.956813,5.9568137 q 0,0.881608 0.631422,1.51303 0.631423,0.631422 1.513031,0.631422 0.881608,0 1.513031,-0.631422 0.631422,-0.631422 0.631422,-1.51303 0,-0.881609 -0.631422,-1.513031 -0.631423,-0.631422 -1.513031,-0.631422 -0.881608,0 -1.513031,0.631422 -0.631422,0.631422 -0.631422,1.513031 z"
     id="path2989"
     inkscape:connector-curvature="0" />
</svg>
