<?xml version="1.0" encoding="UTF-8" standalone="no"?>
<svg
   xmlns:dc="http://purl.org/dc/elements/1.1/"
   xmlns:cc="http://creativecommons.org/ns#"
   xmlns:rdf="http://www.w3.org/1999/02/22-rdf-syntax-ns#"
   xmlns:svg="http://www.w3.org/2000/svg"
   xmlns="http://www.w3.org/2000/svg"
   xmlns:sodipodi="http://sodipodi.sourceforge.net/DTD/sodipodi-0.dtd"
   xmlns:inkscape="http://www.inkscape.org/namespaces/inkscape"
   version="1.1"
   width="32px"
   height="32px"
   id="svg2985"
   inkscape:version="0.91 r13725"
   sodipodi:docname="plus.svg">
  <metadata
     id="metadata2995">
    <rdf:RDF>
      <cc:Work
         rdf:about="">
        <dc:format>image/svg+xml</dc:format>
        <dc:type
           rdf:resource="http://purl.org/dc/dcmitype/StillImage" />
      </cc:Work>
    </rdf:RDF>
  </metadata>
  <defs
     id="defs2993" />
  <sodipodi:namedview
     pagecolor="#ffffff"
     bordercolor="#666666"
     borderopacity="1"
     objecttolerance="10"
     gridtolerance="10"
     guidetolerance="10"
     inkscape:pageopacity="0"
     inkscape:pageshadow="2"
     inkscape:window-width="1920"
     inkscape:window-height="1028"
     id="namedview2991"
     showgrid="false"
     inkscape:zoom="7.375"
     inkscape:cx="-0.20338983"
     inkscape:cy="16"
     inkscape:window-x="-8"
     inkscape:window-y="-8"
     inkscape:window-maximized="1"
     inkscape:current-layer="svg2985" />
  <g
     id="g2987"
     transform="matrix(0.016,0,0,-0.016,-6.8,37.2)" />
  <path
     d="m 0,18.336 q 0,0.336 0.232,0.6 Q 0.464,19.2 0.8,19.2 l 12,0 0,11.936 q 0,0.32 0.256,0.592 Q 13.312,32 13.632,32 l 4.736,0 q 0.336,0 0.584,-0.264 0.248,-0.264 0.248,-0.6 l 0,-11.936 11.968,0 q 0.32,0 0.576,-0.264 Q 32,18.672 32,18.336 L 32,13.6 Q 32,13.264 31.752,13.032 31.504,12.8 31.168,12.8 l -11.968,0 0,-12 Q 19.2,0.464 18.952,0.232 18.704,0 18.368,0 L 13.632,0 Q 13.296,0 13.048,0.232 12.8,0.464 12.8,0.8 l 0,12 -12,0 Q 0.464,12.8 0.232,13.032 0,13.264 0,13.6 l 0,4.736 z"
     id="path2989"
     inkscape:connector-curvature="0" />
</svg>
