<?xml version="1.0" encoding="UTF-8" standalone="no"?>
<svg
   xmlns:dc="http://purl.org/dc/elements/1.1/"
   xmlns:cc="http://creativecommons.org/ns#"
   xmlns:rdf="http://www.w3.org/1999/02/22-rdf-syntax-ns#"
   xmlns:svg="http://www.w3.org/2000/svg"
   xmlns="http://www.w3.org/2000/svg"
   xmlns:sodipodi="http://sodipodi.sourceforge.net/DTD/sodipodi-0.dtd"
   xmlns:inkscape="http://www.inkscape.org/namespaces/inkscape"
   version="1.1"
   width="32px"
   height="32px"
   id="svg2985"
   inkscape:version="0.91 r13725"
   sodipodi:docname="podium.svg">
  <metadata
     id="metadata2995">
    <rdf:RDF>
      <cc:Work
         rdf:about="">
        <dc:format>image/svg+xml</dc:format>
        <dc:type
           rdf:resource="http://purl.org/dc/dcmitype/StillImage" />
      </cc:Work>
    </rdf:RDF>
  </metadata>
  <defs
     id="defs2993" />
  <sodipodi:namedview
     pagecolor="#ffffff"
     bordercolor="#666666"
     borderopacity="1"
     objecttolerance="10"
     gridtolerance="10"
     guidetolerance="10"
     inkscape:pageopacity="0"
     inkscape:pageshadow="2"
     inkscape:window-width="1920"
     inkscape:window-height="1028"
     id="namedview2991"
     showgrid="false"
     inkscape:zoom="7.375"
     inkscape:cx="-0.20338983"
     inkscape:cy="16"
     inkscape:window-x="-8"
     inkscape:window-y="-8"
     inkscape:window-maximized="1"
     inkscape:current-layer="svg2985" />
  <g
     id="g2987"
     transform="matrix(0.0128,0,0,-0.0128,-0.98,36.24)" />
  <path
     d="m 0,28.8 0,-14.08 8.96,0 0,-1.28 -8.32,0 4.48,-3.84 3.84,0 0,-1.28 10.24,0 0,8.96 7.68,0 0,11.52 -26.88,0 z m 3.84,-3.84 5.12,0 0,-1.28 -3.84,0 0,-1.28 1.28,0 0,-1.28 1.28,0 0,-1.28 1.28,0 0,-1.28 -1.28,-1.28 -3.84,0 0,1.28 2.56,0 1.28,1.28 -1.28,0 0,1.28 -1.28,0 0,1.28 -1.28,0 0,2.56 z M 9.6,7.04 13.44,3.2 l 10.88,0 0,8.96 7.68,0 0,12.16 -3.84,3.84 0,-12.16 -7.68,0 0,-8.96 -10.88,0 z m 3.2,5.12 1.28,0 0,6.4 1.28,0 0,-7.68 -2.56,0 0,1.28 z m 6.4,15.36 3.84,0 1.28,-1.28 0,-2.56 -1.28,0 0,-1.28 1.28,0 0,-1.28 -1.28,-1.28 -3.84,0 0,1.28 2.56,0 1.28,1.28 -3.84,0 0,1.28 3.84,0 0,1.28 -1.28,1.28 -2.56,0 0,1.28 z"
     id="path2989"
     inkscape:connector-curvature="0" />
</svg>
