<?xml version="1.0" encoding="UTF-8" standalone="no"?>
<svg
   xmlns:dc="http://purl.org/dc/elements/1.1/"
   xmlns:cc="http://creativecommons.org/ns#"
   xmlns:rdf="http://www.w3.org/1999/02/22-rdf-syntax-ns#"
   xmlns:svg="http://www.w3.org/2000/svg"
   xmlns="http://www.w3.org/2000/svg"
   xmlns:sodipodi="http://sodipodi.sourceforge.net/DTD/sodipodi-0.dtd"
   xmlns:inkscape="http://www.inkscape.org/namespaces/inkscape"
   version="1.1"
   width="32px"
   height="32px"
   id="svg2985"
   inkscape:version="0.91 r13725"
   sodipodi:docname="pool.svg">
  <metadata
     id="metadata2995">
    <rdf:RDF>
      <cc:Work
         rdf:about="">
        <dc:format>image/svg+xml</dc:format>
        <dc:type
           rdf:resource="http://purl.org/dc/dcmitype/StillImage" />
      </cc:Work>
    </rdf:RDF>
  </metadata>
  <defs
     id="defs2993" />
  <sodipodi:namedview
     pagecolor="#ffffff"
     bordercolor="#666666"
     borderopacity="1"
     objecttolerance="10"
     gridtolerance="10"
     guidetolerance="10"
     inkscape:pageopacity="0"
     inkscape:pageshadow="2"
     inkscape:window-width="1920"
     inkscape:window-height="1028"
     id="namedview2991"
     showgrid="false"
     inkscape:zoom="7.375"
     inkscape:cx="-0.20338983"
     inkscape:cy="16"
     inkscape:window-x="-8"
     inkscape:window-y="-8"
     inkscape:window-maximized="1"
     inkscape:current-layer="svg2985" />
  <g
     id="g2987"
     transform="matrix(0.01333333,0,0,-0.01333333,-1.3333333,33.395)" />
  <path
     d="m 0,29.406667 0,-4 q 0.8133333,0 1.5066667,0.146667 Q 2.2,25.7 2.78,26.013334 q 0.58,0.313333 0.8866667,0.52 0.3066666,0.206666 0.7866666,0.593333 0.6,0.493333 0.96,0.666667 0.36,0.173333 0.9866667,0.173333 0.426667,0 0.766667,-0.106667 0.34,-0.106666 0.54,-0.246666 0.2,-0.14 0.64,-0.486667 0.48,-0.386667 0.786666,-0.593333 0.306667,-0.206667 0.886667,-0.52 0.58,-0.313334 1.266667,-0.46 0.686666,-0.146667 1.5,-0.146667 0.813333,0 1.506666,0.146667 0.693334,0.146666 1.273334,0.46 0.58,0.313333 0.886666,0.52 Q 16.76,26.74 17.24,27.126667 q 0.6,0.48 0.966667,0.66 0.366666,0.18 0.98,0.18 0.44,0 0.773333,-0.106667 0.333333,-0.106666 0.54,-0.246666 0.206667,-0.14 0.646667,-0.486667 0.466666,-0.373333 0.786666,-0.593333 0.32,-0.22 0.886667,-0.526667 0.566667,-0.306667 1.266667,-0.453333 0.7,-0.146667 1.513333,-0.146667 0.813333,0 1.506667,0.153333 0.693333,0.153334 1.26,0.453334 0.566666,0.3 0.893333,0.52 0.326667,0.22 0.78,0.593333 0.44,0.346667 0.646667,0.486667 0.206666,0.14 0.54,0.246666 Q 31.56,27.966667 32,27.966667 l 0,4 q -0.813333,0 -1.513333,-0.146667 -0.7,-0.146666 -1.266667,-0.453333 Q 28.653333,31.06 28.333333,30.84 q -0.32,-0.22 -0.786666,-0.593333 -0.44,-0.346667 -0.64,-0.486667 -0.2,-0.14 -0.54,-0.246666 -0.34,-0.106667 -0.766667,-0.106667 -0.44,0 -0.773333,0.106667 Q 24.493333,29.62 24.286667,29.76 24.08,29.9 23.64,30.246667 23.173333,30.62 22.853333,30.84 q -0.32,0.22 -0.886666,0.526667 Q 21.4,31.673334 20.7,31.82 20,31.966667 19.186667,31.966667 18.373333,31.966667 17.68,31.82 16.986667,31.673334 16.42,31.366667 15.853333,31.06 15.533333,30.84 15.213333,30.62 14.746667,30.246667 14.306667,29.9 14.1,29.76 13.893333,29.62 13.56,29.513334 13.226667,29.406667 12.786667,29.406667 12.36,29.406667 12.02,29.513334 11.68,29.62 11.48,29.76 11.28,29.9 10.84,30.246667 10.373333,30.62 10.053333,30.84 9.733333,31.06 9.166667,31.366667 8.6,31.673334 7.906667,31.82 7.213333,31.966667 6.4,31.966667 5.5866667,31.966667 4.8866667,31.82 4.1866667,31.673334 3.62,31.366667 3.0533333,31.06 2.7333333,30.84 q -0.32,-0.22 -0.7866666,-0.593333 -0.6,-0.48 -0.9666667,-0.66 -0.3666667,-0.18 -0.98,-0.18 z M 0,22.74 l 0,-4 q 0.8133333,0 1.5066667,0.146667 Q 2.2,19.033334 2.78,19.346667 q 0.58,0.313333 0.8866667,0.52 0.3066666,0.206667 0.7866666,0.593333 0.6,0.493334 0.96,0.666667 Q 5.7733333,21.3 6.4,21.3 q 0.426667,0 0.766667,-0.106666 0.34,-0.106667 0.54,-0.246667 0.2,-0.14 0.64,-0.486667 0.48,-0.386666 0.786666,-0.593333 Q 9.44,19.66 10.02,19.346667 q 0.58,-0.313333 1.266667,-0.46 0.686666,-0.146667 1.5,-0.146667 0.813333,0 1.506666,0.146667 0.693334,0.146667 1.273334,0.46 0.58,0.313333 0.886666,0.52 Q 16.76,20.073334 17.24,20.46 q 0.6,0.48 0.966667,0.66 0.366666,0.18 0.98,0.18 0.44,0 0.773333,-0.106666 0.333333,-0.106667 0.54,-0.246667 0.206667,-0.14 0.646667,-0.486667 0.466666,-0.373333 0.786666,-0.593333 0.32,-0.22 0.886667,-0.526667 0.566667,-0.306666 1.266667,-0.453333 Q 24.786667,18.74 25.6,18.74 q 0.813333,0 1.506667,0.146667 Q 27.8,19.033334 28.373333,19.34 q 0.573334,0.306667 0.9,0.526667 0.326667,0.22 0.78,0.593333 0.426667,0.346667 0.633334,0.486667 0.206666,0.14 0.54,0.246667 Q 31.56,21.3 32,21.3 l 0,4 q -0.813333,0 -1.513333,-0.146666 -0.7,-0.146667 -1.266667,-0.453334 -0.566667,-0.306666 -0.886667,-0.526666 -0.32,-0.22 -0.786666,-0.593334 -0.6,-0.48 -0.966667,-0.66 -0.366667,-0.18 -0.98,-0.18 -0.44,0 -0.773333,0.106667 -0.333334,0.106667 -0.54,0.246667 Q 24.08,23.233334 23.64,23.58 q -0.466667,0.373334 -0.786667,0.593334 -0.32,0.22 -0.886666,0.526666 Q 21.4,25.006667 20.7,25.153334 20,25.3 19.186667,25.3 18.373333,25.3 17.68,25.153334 16.986667,25.006667 16.42,24.7 q -0.566667,-0.306666 -0.886667,-0.526666 -0.32,-0.22 -0.786666,-0.593334 -0.44,-0.346666 -0.646667,-0.486666 -0.206667,-0.14 -0.54,-0.246667 Q 13.226667,22.74 12.786667,22.74 12.36,22.74 12.02,22.846667 q -0.34,0.106667 -0.54,0.246667 -0.2,0.14 -0.64,0.486666 -0.466667,0.373334 -0.786667,0.593334 -0.32,0.22 -0.886666,0.526666 Q 8.6,25.006667 7.906667,25.153334 7.213333,25.3 6.4,25.3 5.5866667,25.3 4.8866667,25.153334 4.1866667,25.006667 3.62,24.7 3.0533333,24.393334 2.7333333,24.173334 2.4133333,23.953334 1.9466667,23.58 1.3466667,23.1 0.98,22.92 0.6133333,22.74 0,22.74 Z m 5.3333333,-4.32 0,-11.7333334 q 0,-0.2533333 0.3066667,-0.7133333 0.3066667,-0.46 0.746667,-0.9133334 Q 6.733333,4.7266666 7.053333,4.4 q 0.32,-0.3266667 0.66,-0.6666667 L 8.226667,3.22 l 1.96,-1.9333334 q 1.226666,-1.25333325 3.026666,-1.25333325 0.733334,0 1.426667,0.2133333 0.973333,0.2933333 1.866667,0.98666665 L 14.8,2.9399999 q -0.4,-0.2666666 -0.853333,-0.4 -0.386667,-0.12 -0.733334,-0.12 -0.786666,0 -1.333333,0.56 L 9.92,4.9133333 q -1.173333,1.04 -1.92,1.7733333 l 5.333333,0 q 0,-0.3466667 0.266667,-0.72 Q 13.866667,5.5933333 14.386667,5.0599999 14.733333,4.7266666 15.053333,4.4 q 0.32,-0.3266667 0.66,-0.6666667 L 16.226667,3.22 q 0.573333,-0.5466667 1.96,-1.9333334 1.226666,-1.25333325 3.026666,-1.25333325 0.733334,0 1.426667,0.2133333 1.24,0.3733333 2.2,1.45333325 0.96,1.08 1.373333,2.3200001 l -2.466666,0 Q 23.56,3.5666666 23.073333,3.1466666 q -0.486666,-0.42 -1.126666,-0.6066667 -0.386667,-0.12 -0.733334,-0.12 -0.786666,0 -1.333333,0.56 Q 19.04,3.82 17.92,4.9133333 q -0.226667,0.2266666 -0.873333,0.8 Q 16.4,6.2866666 16,6.6866666 l 0,10.2266674 q -0.24,-0.06667 -0.84,-0.32 -0.6,-0.253334 -1.146667,-0.386667 -0.546666,-0.133333 -1.226666,-0.133333 -0.666667,0 -1.866667,0.32 -1.2,0.32 -2.066667,0.64 L 8,17.353334 8,18.06 Q 8,18.326667 7.506667,18.48 7.013333,18.633334 6.4,18.633334 q -0.373333,0 -0.72,-0.06 Q 5.3333333,18.513334 5.3333333,18.42 Z M 8,14.686667 l 5.333333,0 0,-1.333334 -5.333333,0 0,1.333334 z m 0,-4 5.333333,0 0,-1.3333336 -5.333333,0 0,1.3333336 z"
     id="path2989"
     inkscape:connector-curvature="0" />
</svg>
