<?xml version="1.0" encoding="UTF-8" standalone="no"?>
<svg
   xmlns:dc="http://purl.org/dc/elements/1.1/"
   xmlns:cc="http://creativecommons.org/ns#"
   xmlns:rdf="http://www.w3.org/1999/02/22-rdf-syntax-ns#"
   xmlns:svg="http://www.w3.org/2000/svg"
   xmlns="http://www.w3.org/2000/svg"
   xmlns:sodipodi="http://sodipodi.sourceforge.net/DTD/sodipodi-0.dtd"
   xmlns:inkscape="http://www.inkscape.org/namespaces/inkscape"
   version="1.1"
   width="32px"
   height="32px"
   id="svg2985"
   inkscape:version="0.91 r13725"
   sodipodi:docname="power.svg">
  <metadata
     id="metadata2995">
    <rdf:RDF>
      <cc:Work
         rdf:about="">
        <dc:format>image/svg+xml</dc:format>
        <dc:type
           rdf:resource="http://purl.org/dc/dcmitype/StillImage" />
      </cc:Work>
    </rdf:RDF>
  </metadata>
  <defs
     id="defs2993" />
  <sodipodi:namedview
     pagecolor="#ffffff"
     bordercolor="#666666"
     borderopacity="1"
     objecttolerance="10"
     gridtolerance="10"
     guidetolerance="10"
     inkscape:pageopacity="0"
     inkscape:pageshadow="2"
     inkscape:window-width="1920"
     inkscape:window-height="1028"
     id="namedview2991"
     showgrid="false"
     inkscape:zoom="7.375"
     inkscape:cx="-0.20338983"
     inkscape:cy="16"
     inkscape:window-x="-8"
     inkscape:window-y="-8"
     inkscape:window-maximized="1"
     inkscape:current-layer="svg2985" />
  <g
     id="g2987"
     transform="matrix(0.01361702,0,0,-0.01361702,-4.0319149,34.218085)" />
  <path
     d="m 1.7021275,17.702128 q 0,-3.84 1.892766,-7.101277 1.8927659,-3.2612765 5.092766,-5.1676595 0.77617,-0.5446809 1.3208505,-0.4493617 0.544681,0.095319 0.544681,0.9123404 l 0,2.3965958 q 0,0.3948936 -0.108936,0.667234 -0.108937,0.2723404 -0.217873,0.3744681 -0.108936,0.1021276 -0.3268075,0.2314893 -0.217873,0.1293617 -0.258724,0.1565958 -1.797446,1.4434038 -2.825532,3.5268088 -1.0280846,2.083404 -1.0280846,4.452766 0,2.083404 0.8102126,3.969361 0.810213,1.885958 2.178724,3.254468 1.3685095,1.368511 3.2544675,2.178724 1.885957,0.810213 3.969361,0.810213 2.083405,0 3.969362,-0.810213 1.885957,-0.810213 3.254468,-2.178724 1.368511,-1.36851 2.178724,-3.254468 0.810212,-1.885957 0.810212,-3.969361 0,-2.369362 -1.021276,-4.439149 Q 24.170212,11.193192 22.399999,9.7634043 22.359148,9.7361702 22.188936,9.6204255 22.018723,9.5046809 21.923404,9.4161702 21.828084,9.3276596 21.698723,9.1710638 21.569361,9.0144681 21.508084,8.7965957 21.446808,8.5787234 21.446808,8.306383 l 0,-2.4919149 q 0,-0.5310638 0.279149,-0.7148936 0.279149,-0.1838298 0.660425,-0.088511 0.381277,0.095319 0.817022,0.3540425 3.240851,1.8927659 5.167659,5.1744686 1.926809,3.281702 1.926809,7.162553 0,2.900425 -1.137022,5.548936 -1.137021,2.64851 -3.050212,4.561702 -1.913192,1.913191 -4.561702,3.050213 Q 18.900425,32 15.999999,32 13.099574,32 10.451063,30.862979 7.8025535,29.725957 5.8893615,27.812766 3.9761701,25.899574 2.8391488,23.251064 1.7021275,20.602553 1.7021275,17.702128 Z m 11.5744675,-5.446809 0,-10.8936169 q 0,-0.5582978 0.401702,-0.96 Q 14.079999,0 14.638297,0 l 2.723404,0 q 0.558298,0 0.96,0.4017021 0.401703,0.4017022 0.401703,0.96 l 0,10.8936169 q 0,0.558298 -0.401703,0.96 -0.401702,0.401702 -0.96,0.401702 l -2.723404,0 q -0.558298,0 -0.96,-0.401702 -0.401702,-0.401702 -0.401702,-0.96 z"
     id="path2989"
     inkscape:connector-curvature="0" />
</svg>
