<?xml version="1.0" encoding="UTF-8" standalone="no"?>
<svg
   xmlns:dc="http://purl.org/dc/elements/1.1/"
   xmlns:cc="http://creativecommons.org/ns#"
   xmlns:rdf="http://www.w3.org/1999/02/22-rdf-syntax-ns#"
   xmlns:svg="http://www.w3.org/2000/svg"
   xmlns="http://www.w3.org/2000/svg"
   xmlns:sodipodi="http://sodipodi.sourceforge.net/DTD/sodipodi-0.dtd"
   xmlns:inkscape="http://www.inkscape.org/namespaces/inkscape"
   version="1.1"
   width="32px"
   height="32px"
   id="svg2985"
   inkscape:version="0.91 r13725"
   sodipodi:docname="print.svg">
  <metadata
     id="metadata2995">
    <rdf:RDF>
      <cc:Work
         rdf:about="">
        <dc:format>image/svg+xml</dc:format>
        <dc:type
           rdf:resource="http://purl.org/dc/dcmitype/StillImage" />
      </cc:Work>
    </rdf:RDF>
  </metadata>
  <defs
     id="defs2993" />
  <sodipodi:namedview
     pagecolor="#ffffff"
     bordercolor="#666666"
     borderopacity="1"
     objecttolerance="10"
     gridtolerance="10"
     guidetolerance="10"
     inkscape:pageopacity="0"
     inkscape:pageshadow="2"
     inkscape:window-width="1920"
     inkscape:window-height="1028"
     id="namedview2991"
     showgrid="false"
     inkscape:zoom="7.375"
     inkscape:cx="-23.322034"
     inkscape:cy="16"
     inkscape:window-x="-8"
     inkscape:window-y="-8"
     inkscape:window-maximized="1"
     inkscape:current-layer="svg2985" />
  <g
     id="g2987"
     transform="matrix(0.01333333,0,0,-0.01333333,-1.3333333,33.333333)" />
  <path
     d="M 0,28.626667 0,10 Q 0,9.72 0.1933333,9.5266667 0.3866667,9.3333333 0.6666667,9.3333333 l 3.96,0 q 0.28,0 0.4933333,0.1933334 Q 5.3333333,9.72 5.3333333,10 l 0,4 q 0,0.28 0.1733334,0.473333 Q 5.68,14.666667 5.96,14.666667 l 20.04,0 q 0.28,0 0.473333,-0.193334 Q 26.666667,14.28 26.666667,14 l 0,-4 q 0,-0.28 0.193333,-0.4733333 0.193333,-0.1933334 0.473333,-0.1933334 l 4,0 q 0.28,0 0.473334,0.1933334 Q 32,9.72 32,10 l 0,18.626667 q 0,0.28 -0.193333,0.493333 -0.193334,0.213333 -0.473334,0.213333 l -4.933333,0 q -0.28,0 -0.52,-0.2 -0.24,-0.2 -0.306667,-0.466666 l -0.52,-2.693334 Q 24.986663,25.706667 24.746667,25.52 q -0.24,-0.186667 -0.52,-0.186667 l -16.453334,0 q -0.28,0 -0.52,0.193334 -0.24,0.193333 -0.306666,0.46 l -0.52,2.68 Q 6.36,28.933333 6.12,29.133333 q -0.24,0.2 -0.52,0.2 l -4.9333333,0 q -0.28,0 -0.4733334,-0.213333 Q 0,28.906667 0,28.626667 Z m 1.3333333,-16.6 q 0,0.56 0.3933334,0.946666 Q 2.12,13.36 2.6666667,13.36 q 0.5466666,0 0.94,-0.386667 Q 4,12.586667 4,12.026667 4,11.48 3.6066667,11.086667 q -0.3933334,-0.393334 -0.94,-0.393334 -0.5466667,0 -0.94,0.393334 -0.3933334,0.393333 -0.3933334,0.94 z m 5.3999997,0.56 2.533334,-11.9200003 q 0.02667,-0.28 0.24,-0.4733334 Q 9.72,0 10,0 l 12,0 q 0.28,0 0.493333,0.1933333 0.213334,0.1933334 0.24,0.4733334 l 2.533334,11.9200003 q 0.02667,0.266666 -0.146667,0.466666 -0.173333,0.2 -0.453333,0.2 l -17.333334,0 q -0.28,0 -0.453333,-0.2 -0.173333,-0.2 -0.146667,-0.466666 z M 7.493333,31.36 8.506667,27.306667 Q 8.573337,27.04 8.813333,26.853333 q 0.24,-0.186666 0.52,-0.186666 l 13.333334,0 q 0.28,0 0.52,0.186666 0.24,0.186667 0.306666,0.453334 L 24.506667,31.36 q 0.06667,0.266667 -0.08,0.453333 Q 24.28,32 24,32 L 8,32 Q 7.72,32 7.573333,31.813333 7.426667,31.626667 7.493333,31.36 Z"
     id="path2989"
     inkscape:connector-curvature="0" />
</svg>
