<?xml version="1.0" encoding="UTF-8" standalone="no"?>
<!-- Created with Inkscape (http://www.inkscape.org/) -->

<svg
   xmlns:dc="http://purl.org/dc/elements/1.1/"
   xmlns:cc="http://creativecommons.org/ns#"
   xmlns:rdf="http://www.w3.org/1999/02/22-rdf-syntax-ns#"
   xmlns:svg="http://www.w3.org/2000/svg"
   xmlns="http://www.w3.org/2000/svg"
   xmlns:sodipodi="http://sodipodi.sourceforge.net/DTD/sodipodi-0.dtd"
   xmlns:inkscape="http://www.inkscape.org/namespaces/inkscape"
   width="32px"
   height="32px"
   id="svg3096"
   version="1.1"
   inkscape:version="0.91 r13725"
   sodipodi:docname="problem.svg">
  <defs
     id="defs3098" />
  <sodipodi:namedview
     id="base"
     pagecolor="#ffffff"
     bordercolor="#666666"
     borderopacity="1.0"
     inkscape:pageopacity="0.0"
     inkscape:pageshadow="2"
     inkscape:zoom="15.836083"
     inkscape:cx="-9.8736787"
     inkscape:cy="25.339996"
     inkscape:current-layer="layer1"
     showgrid="true"
     inkscape:grid-bbox="true"
     inkscape:document-units="px"
     inkscape:window-width="1920"
     inkscape:window-height="1028"
     inkscape:window-x="-8"
     inkscape:window-y="-8"
     inkscape:window-maximized="1" />
  <metadata
     id="metadata3101">
    <rdf:RDF>
      <cc:Work
         rdf:about="">
        <dc:format>image/svg+xml</dc:format>
        <dc:type
           rdf:resource="http://purl.org/dc/dcmitype/StillImage" />
        <dc:title />
      </cc:Work>
    </rdf:RDF>
  </metadata>
  <g
     id="layer1"
     inkscape:label="Layer 1"
     inkscape:groupmode="layer">
    <path
       style="fill:#000000"
       d="M 4.9095896,3.1662633e-8 C 3.9331728,3.1662633e-8 3.156165,0.75548654 3.156165,1.6680998 c 0,0.035786 -0.00237,0.0482 0,0.083402 C 1.3404939,3.0275989 0.1229819,4.8752334 0,7.0060208 L 4.6465763,19.433365 c 0.4851219,1.353158 1.6584932,2.430829 3.1561651,2.752367 0.025919,0.793638 -0.00211,1.541381 0,2.33534 0.00843,0.824795 0.012599,1.679827 0.087664,2.502151 0.061536,0.532403 0.2993216,1.015616 0.5260286,1.501287 0.2429281,0.415358 0.5624116,1.049143 0.876713,1.417887 0.292004,0.322478 0.870578,0.909944 1.227396,1.167669 0.359063,0.213705 1.155227,0.746909 1.578084,0.750647 1.393417,0.195138 1.20815,0.14725 2.542465,0.0834 0.550817,-0.06108 0.590691,-0.106979 1.139727,-0.250213 0.61406,-0.202692 0.95193,-0.254514 1.40274,-0.500432 0.445449,-0.163402 0.799871,-0.525074 1.139726,-0.834051 0.458736,-0.482923 0.648263,-1.311608 0.789041,-1.918314 0.172902,-0.973306 0.164401,-1.935012 0.175343,-2.919175 5.61e-4,-0.859084 -0.01179,-1.726541 0,-2.585557 0.0065,-0.435094 -0.0031,-0.899346 0,-1.334479 -0.0097,-0.566015 0.08733,-1.109399 0.175342,-1.668101 0.08482,-0.349031 0.0779,-0.738106 0.175344,-1.084264 0.03265,-0.115995 0.131661,-0.30218 0.175342,-0.417026 0.135732,-0.437885 0.21229,-0.897508 0.350686,-1.334481 0.171982,-0.546641 0.413218,-1.047387 0.613697,-1.584694 0.246248,-0.50512 0.445539,-1.000876 0.70137,-1.501289 0.246964,-0.441705 0.572606,-0.926616 0.876714,-1.334481 0.03315,-0.04157 0.218406,-0.126155 0.263011,-0.166802 0.293329,-0.267338 0.76163,-0.447691 1.139727,-0.50043 0.528527,-0.04891 1.047242,-0.07541 1.578083,-0.0834 0.179941,0.0077 0.269946,0.05558 0.438357,0.0834 0.267974,0.04426 0.532984,0.08192 0.789041,0.166803 0.380221,0.159541 0.796447,0.341287 1.052054,0.66724 0.0601,0.07666 0.124001,0.167992 0.175344,0.250213 0.260094,0.453812 0.255999,1.073891 0.263012,1.584695 0.01596,0.438277 0.06731,0.736388 0,1.16767 -0.01254,0.08388 0.0094,0.166051 0,0.250217 -1.366141,0.331328 -2.367123,1.399411 -2.367123,2.752365 0,1.612533 1.391967,2.919174 3.156166,2.919174 1.764197,0 3.156164,-1.306641 3.156164,-2.919174 0,-1.297892 -0.910325,-2.372472 -2.191782,-2.752365 0.01153,-0.08559 0.07249,-0.16505 0.08768,-0.250217 0.08153,-0.440066 -0.06803,-0.885525 -0.08768,-1.334479 -0.01697,-0.577085 -0.03132,-0.644605 -0.08767,-1.167671 -0.0503,-0.09538 -0.171023,-1.268598 -0.263014,-1.000854 -0.241309,-0.357089 -1.015799,-1.066884 -1.402733,-1.251075 -1.239924,-0.466247 -1.82426,-0.519674 -3.243836,-0.500429 -0.946157,0.005 -1.163539,0.139885 -2.10411,0.250213 -0.742439,0.133647 -1.773583,1.138585 -2.191781,1.751505 -0.304106,0.417567 -0.635919,0.880375 -0.876713,1.334481 -0.247474,0.510249 -0.46397,0.986689 -0.701371,1.501289 -0.202984,0.540478 -0.422869,1.12352 -0.613698,1.6681 -0.134744,0.435388 -0.203452,0.902184 -0.350686,1.334481 -0.177849,0.506003 -0.283717,0.972991 -0.350683,1.501289 -0.08686,0.568269 -0.171415,1.092828 -0.175344,1.668102 0.0036,0.435301 -0.01092,0.89927 0,1.334479 0.01863,0.858075 0.09861,1.727273 0.08768,2.585556 -0.01203,0.971841 -0.07701,1.960242 -0.263014,2.919175 -0.159274,0.606473 -0.279128,1.08821 -0.876712,1.417886 -0.3804,0.223282 -0.768836,0.471258 -1.227399,0.500428 -0.449662,0.01982 -0.866472,0.125091 -1.315068,0.166823 -0.866921,0.03891 -0.660544,0.06656 -0.613699,0.0834 -0.284209,0.05 -0.884512,-0.0458 -1.139726,-0.166822 -0.06004,-0.04083 -0.293201,-0.202693 -0.350685,-0.250215 -0.221135,-0.182911 -0.399416,-0.393938 -0.613699,-0.583837 -0.316615,-0.350923 -0.697763,-0.781842 -0.964383,-1.167668 -0.228368,-0.465748 -0.35966,-0.906846 -0.438357,-1.417884 -0.09449,-0.815367 -0.08922,-1.682315 -0.08768,-2.502151 0.0021,-0.793958 -0.02592,-1.541702 0,-2.33534 1.58342,-0.317549 2.881337,-1.472394 3.331504,-2.919177 l 0.08766,-0.250215 4.471234,-12.0103191 0,-0.1668023 0.08767,0 c -0.16966,-2.0531703 -1.415802,-3.8429478 -3.156149,-5.087703 0.0025,-0.036369 0,-0.046406 0,-0.083402 0,-0.91261327 -0.864681,-1.6681019083374 -1.841098,-1.6681019083374 l -1.753426,0 C 9.894812,7.0916626e-6 9.117808,0.75549573 9.117808,1.668109 c 0,0.9126133 0.777004,1.6680999 1.753424,1.6680999 l 1.753426,0 c 0.588143,0 1.170588,-0.3391966 1.490412,-0.7506456 1.450574,1.0674072 2.360814,2.4770387 2.542466,4.1702507 l -4.295891,11.426485 0.08768,0 c 0,0.107147 -0.165244,0.228916 -0.175344,0.333619 l -0.175342,0.50043 c -0.408498,1.438056 -1.707154,1.918316 -3.3315084,1.918316 -1.5635151,0 -2.7824229,-0.395186 -3.2438357,-1.751505 L 5.2602851,18.51591 c -0.00843,-0.08666 -0.1435142,-0.229984 -0.175342,-0.33362 l 0,-0.0834 L 0.8767123,6.9226196 C 1.02977,5.1717112 2.0238991,3.5930343 3.50685,2.502155 3.8240701,2.9332661 4.3050636,3.3362039 4.9095896,3.3362039 l 1.753425,0 c 0.9764177,0 1.7534261,-0.7554866 1.7534261,-1.6680999 C 8.4164407,0.7554907 7.6394323,4.1916626e-6 6.6630146,4.1916626e-6 l -1.753425,0 z"
       id="rect2984"
       inkscape:connector-curvature="0" />
  </g>
</svg>
