<?xml version="1.0" encoding="UTF-8" standalone="no"?>
<!-- Created with Inkscape (http://www.inkscape.org/) -->

<svg
   xmlns:dc="http://purl.org/dc/elements/1.1/"
   xmlns:cc="http://creativecommons.org/ns#"
   xmlns:rdf="http://www.w3.org/1999/02/22-rdf-syntax-ns#"
   xmlns:svg="http://www.w3.org/2000/svg"
   xmlns="http://www.w3.org/2000/svg"
   xmlns:sodipodi="http://sodipodi.sourceforge.net/DTD/sodipodi-0.dtd"
   xmlns:inkscape="http://www.inkscape.org/namespaces/inkscape"
   width="32px"
   height="32px"
   id="svg3096"
   version="1.1"
   inkscape:version="0.91 r13725"
   sodipodi:docname="procedure.svg">
  <defs
     id="defs3098" />
  <sodipodi:namedview
     id="base"
     pagecolor="#ffffff"
     bordercolor="#666666"
     borderopacity="1.0"
     inkscape:pageopacity="0.0"
     inkscape:pageshadow="2"
     inkscape:zoom="11.197802"
     inkscape:cx="15.776401"
     inkscape:cy="20.487295"
     inkscape:current-layer="layer1"
     showgrid="true"
     inkscape:grid-bbox="true"
     inkscape:document-units="px"
     inkscape:window-width="1920"
     inkscape:window-height="1028"
     inkscape:window-x="-8"
     inkscape:window-y="-8"
     inkscape:window-maximized="1" />
  <metadata
     id="metadata3101">
    <rdf:RDF>
      <cc:Work
         rdf:about="">
        <dc:format>image/svg+xml</dc:format>
        <dc:type
           rdf:resource="http://purl.org/dc/dcmitype/StillImage" />
        <dc:title />
      </cc:Work>
    </rdf:RDF>
  </metadata>
  <g
     id="layer1"
     inkscape:label="Layer 1"
     inkscape:groupmode="layer">
    <path
       style="fill:#000000"
       d="m 0.349345,0 0,6.7074236 7.0917031,0 L 7.4410481,0 0.349345,0 Z m 11.563319,0 0,6.7074236 2.829694,0 2.515284,0 14.393013,0 0,-6.7074236 -14.393013,0 -2.515284,0 -2.829694,0 z m -7.0917033,8.419214 0,6.707424 2.6200874,0 0,-6.707424 -2.6200874,0 z m 7.0917033,0 0,6.707424 2.165939,0 1.606987,0 9.257641,0 0,-6.707424 -9.257641,0 -1.606987,0 -2.165939,0 z m -11.563319,8.384279 0,6.707424 7.0917031,0 0,-6.707424 -7.0917031,0 z m 11.563319,0 0,6.707424 0.768559,0 2.165939,0 12.331877,0 0,-6.707424 -12.331877,0 -2.165939,0 -0.768559,0 z m -11.563319,8.489083 0,6.707424 7.0917031,0 0,-6.707424 -7.0917031,0 z m 11.563319,0 0,6.707424 1.781659,0 2.375546,0 13.344978,0 0,-6.707424 -13.344978,0 -2.375546,0 -1.781659,0 z"
       id="rect2984"
       inkscape:connector-curvature="0" />
  </g>
</svg>
