<?xml version="1.0" encoding="UTF-8" standalone="no"?>
<svg
   xmlns:dc="http://purl.org/dc/elements/1.1/"
   xmlns:cc="http://creativecommons.org/ns#"
   xmlns:rdf="http://www.w3.org/1999/02/22-rdf-syntax-ns#"
   xmlns:svg="http://www.w3.org/2000/svg"
   xmlns="http://www.w3.org/2000/svg"
   xmlns:sodipodi="http://sodipodi.sourceforge.net/DTD/sodipodi-0.dtd"
   xmlns:inkscape="http://www.inkscape.org/namespaces/inkscape"
   version="1.1"
   width="32px"
   height="32px"
   id="svg2985"
   inkscape:version="0.91 r13725"
   sodipodi:docname="projector.svg">
  <metadata
     id="metadata2995">
    <rdf:RDF>
      <cc:Work
         rdf:about="">
        <dc:format>image/svg+xml</dc:format>
        <dc:type
           rdf:resource="http://purl.org/dc/dcmitype/StillImage" />
      </cc:Work>
    </rdf:RDF>
  </metadata>
  <defs
     id="defs2993" />
  <sodipodi:namedview
     pagecolor="#ffffff"
     bordercolor="#666666"
     borderopacity="1"
     objecttolerance="10"
     gridtolerance="10"
     guidetolerance="10"
     inkscape:pageopacity="0"
     inkscape:pageshadow="2"
     inkscape:window-width="1920"
     inkscape:window-height="1028"
     id="namedview2991"
     showgrid="false"
     inkscape:zoom="7.375"
     inkscape:cx="-23.322034"
     inkscape:cy="16"
     inkscape:window-x="-8"
     inkscape:window-y="-8"
     inkscape:window-maximized="1"
     inkscape:current-layer="svg2985" />
  <g
     id="g2987"
     transform="matrix(0.01142857,0,0,-0.01142857,0.85714286,34.785714)" />
  <path
     d="M 0,25.714285 0,13.142857 q 0,-0.937143 0.6742857,-1.611428 0.6742857,-0.674286 1.6114286,-0.674286 l 14.6514287,0 q 1.028571,-1.0742858 2.417143,-1.6800001 1.388571,-0.6057143 2.931428,-0.6057143 1.554286,0 2.948572,0.6114286 1.394285,0.6114285 2.422857,1.6971428 0.868571,0.09143 1.462857,0.737143 0.594286,0.645714 0.594286,1.525714 l 0,12.571428 q 0,0.937143 -0.674286,1.611429 Q 28.365714,28 27.428571,28 l 0,1.142857 -1.714285,1.142857 L 24,29.142857 24,28 5.7142857,28 l 0,1.142857 L 4,30.285714 2.2857143,29.142857 2.2857143,28 Q 1.3485714,28 0.6742857,27.325714 0,26.651428 0,25.714285 Z m 2.2857143,-4.571428 12.5714287,0 0,-1.142857 -12.5714287,0 0,1.142857 z m 0,-2.285714 12.5714287,0 0,-1.142858 -12.5714287,0 0,1.142858 z m 0.32,3.428571 Q 2.9142857,22.8 3.4342857,23.114285 q 0.52,0.314286 1.1371429,0.314286 l 10.2857144,0 0,-1.142857 -12.2514287,0 z m 0,-5.714286 12.2514287,0 0,-1.142857 -10.2857144,0 q -0.6171429,0 -1.1371429,0.314286 -0.52,0.314286 -0.8285714,0.828571 z m 9.9657147,-6.8571423 0,-1.1428571 3.897142,0 Q 15.885714,9.12 15.44,9.7142857 l -2.868571,0 z m 2.72,-5.6114285 0.811428,-0.8114286 3.451429,3.4514286 q -0.491429,0.16 -1.142857,0.48 z M 17.257143,16 q 0,2.08 1.474286,3.554285 1.474285,1.474286 3.554285,1.474286 2.08,0 3.554286,-1.474286 Q 27.314286,18.08 27.314286,16 q 0,-2.08 -1.474286,-3.554286 -1.474286,-1.474285 -3.554286,-1.474285 -2.08,0 -3.554285,1.474285 Q 17.257143,13.92 17.257143,16 Z M 18.4,16 q 0,-0.697143 0.274286,-1.394286 0.48,0.708571 1.325714,0.708571 0.662857,0 1.131429,-0.468571 Q 21.6,14.377143 21.6,13.714285 q 0,-0.845714 -0.708571,-1.325714 0.697142,-0.274286 1.394285,-0.274286 1.611429,0 2.748572,1.137143 1.137143,1.137143 1.137143,2.748572 0,1.611428 -1.137143,2.748571 -1.137143,1.137143 -2.748572,1.137143 -1.611428,0 -2.748571,-1.137143 Q 18.4,17.611428 18.4,16 Z m 3.314286,-9.68 0,-4.6057143 1.142857,0 0,4.6057143 q -0.09143,-0.011429 -0.571429,-0.011429 -0.48,0 -0.571428,0.011429 z M 25.028571,6.7428572 28.48,3.2914286 l 0.8,0.8114286 -3.12,3.12 q -0.651429,-0.32 -1.131429,-0.48 z m 3.074286,1.8285714 3.897143,0 0,1.1428571 -2.868571,0 Q 28.685714,9.12 28.102857,8.5714286 Z"
     id="path2989"
     inkscape:connector-curvature="0" />
</svg>
