<?xml version="1.0" encoding="UTF-8" standalone="no"?>
<svg
   xmlns:dc="http://purl.org/dc/elements/1.1/"
   xmlns:cc="http://creativecommons.org/ns#"
   xmlns:rdf="http://www.w3.org/1999/02/22-rdf-syntax-ns#"
   xmlns:svg="http://www.w3.org/2000/svg"
   xmlns="http://www.w3.org/2000/svg"
   xmlns:sodipodi="http://sodipodi.sourceforge.net/DTD/sodipodi-0.dtd"
   xmlns:inkscape="http://www.inkscape.org/namespaces/inkscape"
   version="1.1"
   width="32px"
   height="32px"
   id="svg2985"
   inkscape:version="0.91 r13725"
   sodipodi:docname="qrcode.svg">
  <metadata
     id="metadata2995">
    <rdf:RDF>
      <cc:Work
         rdf:about="">
        <dc:format>image/svg+xml</dc:format>
        <dc:type
           rdf:resource="http://purl.org/dc/dcmitype/StillImage" />
      </cc:Work>
    </rdf:RDF>
  </metadata>
  <defs
     id="defs2993" />
  <sodipodi:namedview
     pagecolor="#ffffff"
     bordercolor="#666666"
     borderopacity="1"
     objecttolerance="10"
     gridtolerance="10"
     guidetolerance="10"
     inkscape:pageopacity="0"
     inkscape:pageshadow="2"
     inkscape:window-width="1920"
     inkscape:window-height="1028"
     id="namedview2991"
     showgrid="false"
     inkscape:zoom="7.375"
     inkscape:cx="-0.20338983"
     inkscape:cy="16"
     inkscape:window-x="-8"
     inkscape:window-y="-8"
     inkscape:window-maximized="1"
     inkscape:current-layer="svg2985" />
  <g
     id="g2987"
     transform="matrix(0.01333333,0,0,-0.01333333,-1.3333333,33.333333)" />
  <path
     d="m 0,32 0,-13.333333 13.333333,0 0,13.333333 L 0,32 Z m 0,-14.666667 0,-2.666666 2.6666667,0 0,2.666666 -2.6666667,0 z m 0,-4 L 0,0 l 13.333333,0 0,13.333333 -13.333333,0 z M 1.3333333,30.666667 12,30.666667 12,20 1.3333333,20 l 0,10.666667 z M 1.3333333,12 12,12 12,1.3333333 l -10.6666667,0 0,10.6666667 z m 1.3333334,17.333333 0,-8 8.0000003,0 0,8 -8.0000003,0 z m 0,-18.666666 0,-8.0000003 8.0000003,0 0,8.0000003 -8.0000003,0 z M 4,17.333333 l 0,-2.666666 2.666667,0 0,2.666666 -2.666667,0 z m 5.333333,0 0,-2.666666 13.333334,0 0,5.333333 -5.333334,0 0,-2.666667 -8,0 z M 14.666667,12 l 0,-2.6666667 2.666666,0 0,2.6666667 -2.666666,0 z m 0,-5.3333333 0,-5.3333334 2.666666,0 0,5.3333334 -2.666666,0 z M 16,32 l 0,-2.666667 6.666667,0 0,2.666667 L 16,32 Z m 0,-5.333333 0,-5.333334 8,0 0,-2.666666 2.666667,0 0,5.333333 -5.333334,0 0,2.666667 -5.333333,0 z M 18.666667,13.333333 18.666667,0 32,0 l 0,13.333333 -13.333333,0 z M 20,12 l 10.666667,0 0,-10.6666667 L 20,1.3333333 20,12 Z m 1.333333,-1.333333 0,-8.0000003 8,0 0,8.0000003 -8,0 z m 1.333334,18.666666 0,-2.666666 2.666666,0 0,2.666666 -2.666666,0 z M 25.333333,32 l 0,-2.666667 4,0 0,-2.666666 2.666667,0 L 32,32 25.333333,32 Z m 0,-14.666667 0,-2.666666 2.666667,0 0,2.666666 -2.666667,0 z m 4,8 0,-2.666666 2.666667,0 0,2.666666 -2.666667,0 z m 0,-4 0,-6.666666 2.666667,0 0,6.666666 -2.666667,0 z"
     id="path2989"
     inkscape:connector-curvature="0" />
</svg>
