<?xml version="1.0" encoding="UTF-8" standalone="no"?>
<svg
   xmlns:dc="http://purl.org/dc/elements/1.1/"
   xmlns:cc="http://creativecommons.org/ns#"
   xmlns:rdf="http://www.w3.org/1999/02/22-rdf-syntax-ns#"
   xmlns:svg="http://www.w3.org/2000/svg"
   xmlns="http://www.w3.org/2000/svg"
   xmlns:sodipodi="http://sodipodi.sourceforge.net/DTD/sodipodi-0.dtd"
   xmlns:inkscape="http://www.inkscape.org/namespaces/inkscape"
   version="1.1"
   width="32px"
   height="32px"
   id="svg2985"
   inkscape:version="0.91 r13725"
   sodipodi:docname="rabbit.svg">
  <metadata
     id="metadata2995">
    <rdf:RDF>
      <cc:Work
         rdf:about="">
        <dc:format>image/svg+xml</dc:format>
        <dc:type
           rdf:resource="http://purl.org/dc/dcmitype/StillImage" />
      </cc:Work>
    </rdf:RDF>
  </metadata>
  <defs
     id="defs2993" />
  <sodipodi:namedview
     pagecolor="#ffffff"
     bordercolor="#666666"
     borderopacity="1"
     objecttolerance="10"
     gridtolerance="10"
     guidetolerance="10"
     inkscape:pageopacity="0"
     inkscape:pageshadow="2"
     inkscape:window-width="1920"
     inkscape:window-height="1028"
     id="namedview2991"
     showgrid="false"
     inkscape:zoom="7.375"
     inkscape:cx="-0.20338983"
     inkscape:cy="16"
     inkscape:window-x="-8"
     inkscape:window-y="-8"
     inkscape:window-maximized="1"
     inkscape:current-layer="svg2985" />
  <g
     id="g2987"
     transform="matrix(0.01230991,0,0,-0.01231013,0.51804109,33.912933)" />
  <path
     d="m 0.00518323,13.63179 q -0.04924,-0.713987 0.3692971,-1.403355 0.4185369,-0.689367 1.19406097,-0.849399 1.2186807,-0.258512 2.3081075,-0.06155 1.0894268,0.196962 1.5202735,0.787847 1.3540899,-0.984809 3.0467018,-1.311028 1.6926129,-0.326218 3.3852249,-0.03693 1.692612,0.289289 3.39138,1.089446 0.08617,0.03693 0.283128,0.135412 0.984792,0.467785 1.594133,0.738607 0.60934,0.270823 1.526428,0.547802 0.917089,0.276977 1.409485,0.190807 0.393917,-0.07386 0.677045,-0.233894 0.283128,-0.160031 0.449311,-0.400078 0.166184,-0.240047 0.264663,-0.44932 0.09848,-0.209272 0.215424,-0.517026 0.116944,-0.307753 0.203113,-0.480095 -1.144821,0.04924 -2.406587,-0.135412 -1.261765,-0.184651 -2.258868,-0.48625 Q 16.180402,10.455777 15.349483,10.154178 14.518564,9.8525801 14.063097,9.6309978 L 13.619941,9.4217255 Q 13.472222,9.3601752 13.250644,9.2432284 13.029065,9.1262829 12.641303,8.8000638 12.253541,8.4738452 12.198146,8.159937 q -0.05539,-0.3139083 0.504707,-0.7078324 0.5601,-0.3939241 1.864951,-0.7016774 0.738594,-0.1723418 1.563358,-0.196962 0.824764,-0.02462 1.618753,0.09848 0.793989,0.1231014 1.563358,0.3139084 0.769369,0.1908069 1.507964,0.4677849 0.738594,0.2769779 1.347935,0.5354906 0.609339,0.2585127 1.175595,0.5539559 0.566256,0.295443 0.892468,0.4800951 0.326213,0.1846522 0.597031,0.3569942 l 0.04924,-0.02462 Q 24.477278,8.9293207 23.947952,8.4615352 23.418626,7.9937502 22.347666,7.2551425 21.276704,6.5165347 20.199587,5.9933542 19.12247,5.4701738 17.688365,5.1624206 16.254261,4.8546674 14.924791,5.0393193 14.678593,4.8054268 14.481634,4.5284489 14.284676,4.251471 14.210816,3.9190975 14.136957,3.586724 14.303141,3.3343664 14.469324,3.0820088 15.0602,2.9404422 q 0.590876,-0.1415664 1.587978,-0.080015 0.972483,0.06155 2.006515,0.4185444 1.034032,0.3569937 1.914191,0.8801742 0.880158,0.5231805 1.711077,1.138687 0.830918,0.6155064 1.471033,1.2248577 0.640115,0.6093515 1.126356,1.1079117 0.486242,0.4985603 0.74475,0.8063135 l 0.258508,0.3077536 q 0.135409,0.08617 0.744749,0.3139078 0.609341,0.2277385 1.464879,0.6955233 0.855539,0.467785 1.840332,1.231012 0.861693,0.677057 1.274075,1.058672 0.412382,0.381614 0.627805,0.800159 0.215424,0.418544 0.153874,0.794002 -0.06155,0.375459 -0.332367,0.978656 -0.160029,0.381614 -0.326213,0.627817 -0.166184,0.246202 -0.283128,0.332374 -0.116944,0.08617 -0.233888,0.104635 -0.116944,0.01846 -0.166184,-0.0062 -0.04924,-0.02462 -0.09848,-0.06155 0.529326,0.590887 0.04924,0.972501 -0.418537,0.332373 -1.077117,0.455475 -0.65858,0.1231 -1.335625,0.11079 -0.677045,-0.01231 -1.34178,-0.02462 -0.664735,-0.01231 -1.237146,0.116946 -0.572411,0.129255 -0.880158,0.473939 -0.590876,0.640127 -1.194062,1.655712 -0.603185,1.015586 -1.052495,1.945001 -0.449312,0.929415 -1.138667,2.074257 -0.689355,1.144842 -1.415639,1.994241 0.184648,0.07386 0.517016,0.160032 0.332367,0.08617 0.60934,0.166186 0.276973,0.08002 0.541636,0.178497 0.264663,0.09848 0.406227,0.233892 0.141564,0.135412 0.116944,0.295444 -0.02462,0.160031 -0.104634,0.295443 -0.08001,0.135412 -0.221578,0.215427 -0.141564,0.08002 -0.283128,0.141567 -0.141564,0.06155 -0.363142,0.08002 -0.221579,0.01847 -0.381608,0.03693 -0.160028,0.01846 -0.430846,0.0062 -0.270818,-0.01231 -0.412382,-0.02462 -0.141564,-0.01231 -0.412382,-0.03078 -0.270818,-0.01846 -0.356988,-0.03077 -2.511221,1.981931 -3.582183,2.043481 -0.467776,0.03693 -0.443156,-0.332374 0.03693,-0.553955 0.960172,-1.354114 0.196959,-0.184652 0.430847,-0.356993 -0.603185,-0.06155 -2.086529,-0.04924 -1.483344,0.01231 -2.65894,-0.09232 -1.175597,-0.104646 -1.8526419,-0.46164 -0.590874,-0.320065 -1.126355,-0.93557 Q 8.2528211,24.95711 7.9204531,24.378534 7.5880861,23.799958 7.1326191,23.196762 6.6771527,22.593565 6.233996,22.310433 5.9877979,22.150401 5.5261763,21.947283 5.0645549,21.744166 4.7014126,21.559514 4.3382703,21.374863 3.9381983,21.091729 3.5381264,20.808597 3.2488436,20.359277 2.9595607,19.909957 2.8118419,19.306761 2.4056149,17.681824 2.38715,17.164798 2.368685,16.647773 2.7010527,14.875113 2.6271927,14.616601 2.3563753,14.57967 2.0855574,14.54274 1.7654998,14.635066 1.4454422,14.727391 1.088455,14.745856 0.73146763,14.764321 0.47295963,14.616601 0.05442283,14.345778 0.00518323,13.63179 Z M 10.727112,19.442173 q 0.11079,0.03693 0.172339,0.06155 0.06155,0.02462 0.320058,0.178497 0.258508,0.153877 0.443156,0.338528 0.184649,0.184652 0.449312,0.541646 0.264663,0.356993 0.443157,0.787848 0.178493,0.430854 0.320057,1.083291 0.141564,0.652437 0.166184,1.415666 0.480086,0.1231 2.043445,0.455474 1.563358,0.332373 2.68356,0.640127 0.307747,-0.566266 0.461621,-1.231013 0.153874,-0.664747 0.153874,-1.212547 0,-0.547802 -0.04309,-1.015586 -0.04308,-0.467785 -0.116944,-0.726298 l -0.06155,-0.270822 q -0.110789,0.04924 -0.307748,0.129255 -0.196958,0.08002 -0.793989,0.221583 -0.59703,0.141567 -1.169441,0.172342 -0.572411,0.03078 -1.32947,-0.147722 -0.75706,-0.178497 -1.384865,-0.609352 -1.30485,-0.898639 -2.265023,-0.861708 -0.184649,0.01231 -0.184649,0.04924 z m 16.039809,-7.767694 q -0.123099,0.320064 0.08001,0.652437 0.203113,0.332374 0.62165,0.492406 0.406227,0.147721 0.775524,0.03078 0.369297,-0.116945 0.492397,-0.43701 0.123099,-0.320064 -0.08617,-0.652436 -0.209268,-0.33238 -0.615495,-0.4801 -0.406227,-0.160032 -0.781679,-0.04309 -0.375453,0.116945 -0.486242,0.437009 z"
     id="path2989"
     inkscape:connector-curvature="0" />
</svg>
