<?xml version="1.0" encoding="UTF-8" standalone="no"?>
<svg
   xmlns:dc="http://purl.org/dc/elements/1.1/"
   xmlns:cc="http://creativecommons.org/ns#"
   xmlns:rdf="http://www.w3.org/1999/02/22-rdf-syntax-ns#"
   xmlns:svg="http://www.w3.org/2000/svg"
   xmlns="http://www.w3.org/2000/svg"
   xmlns:sodipodi="http://sodipodi.sourceforge.net/DTD/sodipodi-0.dtd"
   xmlns:inkscape="http://www.inkscape.org/namespaces/inkscape"
   version="1.1"
   width="32px"
   height="32px"
   id="svg2985"
   inkscape:version="0.91 r13725"
   sodipodi:docname="radar.svg">
  <metadata
     id="metadata2995">
    <rdf:RDF>
      <cc:Work
         rdf:about="">
        <dc:format>image/svg+xml</dc:format>
        <dc:type
           rdf:resource="http://purl.org/dc/dcmitype/StillImage" />
      </cc:Work>
    </rdf:RDF>
  </metadata>
  <defs
     id="defs2993" />
  <sodipodi:namedview
     pagecolor="#ffffff"
     bordercolor="#666666"
     borderopacity="1"
     objecttolerance="10"
     gridtolerance="10"
     guidetolerance="10"
     inkscape:pageopacity="0"
     inkscape:pageshadow="2"
     inkscape:window-width="1920"
     inkscape:window-height="1028"
     id="namedview2991"
     showgrid="false"
     inkscape:zoom="7.375"
     inkscape:cx="-0.20338983"
     inkscape:cy="16"
     inkscape:window-x="-8"
     inkscape:window-y="-8"
     inkscape:window-maximized="1"
     inkscape:current-layer="svg2985" />
  <g
     id="g2987"
     transform="matrix(0.01351351,0,0,-0.01351351,-1.6778378,33.677838)" />
  <path
     d="M 0,16 Q 0,12.743243 1.2702703,9.7837838 2.5405405,6.8243243 4.6824324,4.6824324 6.824324,2.5405405 9.783784,1.2702703 12.743243,0 16,0 q 3.256757,0 6.216216,1.2702703 2.95946,1.2702702 5.101352,3.4121621 2.141891,2.1418919 3.412162,5.1013514 Q 32,12.743243 32,16 q 0,3.256757 -1.27027,6.216216 -1.270271,2.95946 -3.412162,5.101352 -2.141892,2.141891 -5.101352,3.412162 Q 19.256757,32 16,32 12.743243,32 9.783784,30.72973 6.824324,29.459459 4.6824324,27.317568 2.5405405,25.175676 1.2702703,22.216216 0,19.256757 0,16 Z m 3.527027,0 q 0,2.527027 0.9864865,4.837838 Q 5.5,23.148649 7.175676,24.824324 8.851351,26.5 11.162162,27.486486 13.472973,28.472973 16,28.472973 q 2.527027,0 4.837838,-0.986487 Q 23.148649,26.5 24.824324,24.824324 26.5,23.148649 27.486486,20.837838 28.472973,18.527027 28.472973,16 q 0,-2.405405 -0.878378,-4.581081 -0.878379,-2.1756758 -2.45946,-3.8783785 l -2.283784,2.2702703 q 1.135135,1.2702702 1.770271,2.8581082 0.635135,1.587838 0.635135,3.331081 0,1.878378 -0.736487,3.594595 -0.736486,1.716216 -1.979729,2.952702 -1.243244,1.236487 -2.952703,1.972973 -1.70946,0.736487 -3.587838,0.736487 -1.878378,0 -3.587838,-0.736487 Q 10.702703,23.783784 9.466216,22.547297 8.22973,21.310811 7.493243,19.594595 6.756757,17.878378 6.756757,16 q 0,-1.851351 0.695946,-3.52027 Q 8.148649,10.810811 9.405405,9.527027 9.162162,9.0675676 9.162162,8.5675676 q 0,-0.8648649 0.621622,-1.4864865 0.621621,-0.6216216 1.486486,-0.6216216 1.040541,0 1.662162,0.8243243 1.5,-0.527027 3.067568,-0.527027 1,0 1.945946,0.2027027 l -0.22973,0.9189189 Q 16.851351,7.6891892 16,7.6891892 q -1.351351,0 -2.662162,0.4459459 0.04054,0.2162163 0.04054,0.4324325 0,0.8783783 -0.614864,1.4932434 -0.614865,0.614865 -1.493244,0.614865 -0.689189,0 -1.256756,-0.418919 -1.094595,1.148648 -1.70946,2.628378 Q 7.689189,14.364865 7.689189,16 q 0,2.256757 1.114865,4.168919 1.114865,1.912162 3.027027,3.027027 1.912162,1.114865 4.168919,1.114865 2.256757,0 4.168919,-1.114865 1.912162,-1.114865 3.027027,-3.027027 Q 24.310811,18.256757 24.310811,16 q 0,-3.148649 -2.121622,-5.513514 l -2.22973,2.216217 Q 21.202703,14.189189 21.202703,16 q 0,2.148649 -1.527027,3.675676 Q 18.148649,21.202703 16,21.202703 q -0.864865,0 -1.851351,-0.364865 -0.621622,0.648648 -1.527027,0.648648 -0.878379,0 -1.493244,-0.614864 -0.614864,-0.614865 -0.614864,-1.493244 0,-0.878378 0.648648,-1.527027 Q 10.810811,16.932432 10.810811,16 q 0,-2.148649 1.52027,-3.668919 1.52027,-1.52027 3.668919,-1.52027 0.513514,0 0.945946,0.09459 l -0.202703,0.851351 Q 16.337838,11.689189 16,11.689189 q -1.783784,0 -3.047297,1.263514 Q 11.689189,14.216216 11.689189,16 q 0,0.662162 0.243243,1.391892 0.324325,-0.121622 0.68919,-0.121622 0.864864,0 1.486486,0.621622 0.621622,0.621622 0.621622,1.486486 0,0.364865 -0.121622,0.68919 0.72973,0.243243 1.391892,0.243243 1.783784,0 3.047297,-1.263514 Q 20.310811,17.783784 20.310811,16 q 0,-1.5 -0.95946,-2.675676 l -3,2.986487 q -0.337837,0.337838 -0.662162,0 -0.148648,-0.148649 -0.148648,-0.331081 0,-0.182433 0.148648,-0.331081 l 8.77027,-8.7837841 Q 22.756757,5.2837838 20.581081,4.4054054 18.405405,3.527027 16,3.527027 q -2.527027,0 -4.837838,0.9864865 Q 8.851351,5.5 7.175676,7.1756757 5.5,8.8513514 4.5135135,11.162162 3.527027,13.472973 3.527027,16 Z"
     id="path2989"
     inkscape:connector-curvature="0" />
</svg>
