<?xml version="1.0" encoding="UTF-8" standalone="no"?>
<svg
   xmlns:dc="http://purl.org/dc/elements/1.1/"
   xmlns:cc="http://creativecommons.org/ns#"
   xmlns:rdf="http://www.w3.org/1999/02/22-rdf-syntax-ns#"
   xmlns:svg="http://www.w3.org/2000/svg"
   xmlns="http://www.w3.org/2000/svg"
   xmlns:sodipodi="http://sodipodi.sourceforge.net/DTD/sodipodi-0.dtd"
   xmlns:inkscape="http://www.inkscape.org/namespaces/inkscape"
   version="1.1"
   width="32px"
   height="32px"
   id="svg2985"
   inkscape:version="0.91 r13725"
   sodipodi:docname="record.svg">
  <metadata
     id="metadata2995">
    <rdf:RDF>
      <cc:Work
         rdf:about="">
        <dc:format>image/svg+xml</dc:format>
        <dc:type
           rdf:resource="http://purl.org/dc/dcmitype/StillImage" />
      </cc:Work>
    </rdf:RDF>
  </metadata>
  <defs
     id="defs2993" />
  <sodipodi:namedview
     pagecolor="#ffffff"
     bordercolor="#666666"
     borderopacity="1"
     objecttolerance="10"
     gridtolerance="10"
     guidetolerance="10"
     inkscape:pageopacity="0"
     inkscape:pageshadow="2"
     inkscape:window-width="1920"
     inkscape:window-height="1028"
     id="namedview2991"
     showgrid="false"
     inkscape:zoom="7.375"
     inkscape:cx="-23.322034"
     inkscape:cy="16"
     inkscape:window-x="-8"
     inkscape:window-y="-8"
     inkscape:window-maximized="1"
     inkscape:current-layer="svg2985" />
  <g
     id="g2987"
     transform="matrix(0.01632653,0,0,-0.01632653,-7.5142857,39.514286)" />
  <path
     d="M 0,16 Q 0,12.75102 1.2653061,9.7877551 2.5306122,6.8244898 4.677551,4.677551 6.82449,2.5306122 9.787755,1.2653061 12.75102,0 16,0 19.24898,0 22.212245,1.2653061 25.17551,2.5306122 27.322449,4.677551 29.469388,6.8244898 30.734694,9.7877551 32,12.75102 32,16 q 0,3.24898 -1.265306,6.212245 -1.265306,2.963265 -3.412245,5.110204 -2.146939,2.146939 -5.110204,3.412245 Q 19.24898,32 16,32 12.75102,32 9.787755,30.734694 6.82449,29.469388 4.677551,27.322449 2.5306122,25.17551 1.2653061,22.212245 0,19.24898 0,16 Z m 4.065306,0 q 0,3.24898 1.6,6 1.6,2.75102 4.342857,4.35102 2.742857,1.6 5.991837,1.6 2.432653,0 4.644898,-0.946938 2.212245,-0.946939 3.812245,-2.546939 1.6,-1.6 2.546939,-3.812245 Q 27.95102,18.432653 27.95102,16 q 0,-2.432653 -0.946938,-4.644898 -0.946939,-2.2122449 -2.546939,-3.8122449 -1.6,-1.6 -3.812245,-2.5469387 Q 18.432653,4.0489796 16,4.0489796 q -3.24898,0 -5.991837,1.6 -2.742857,1.6 -4.342857,4.3510204 -1.6,2.75102 -1.6,6 z m 5.730612,0 q 0,2.579592 1.812245,4.391837 1.812245,1.812245 4.391837,1.812245 2.579592,0 4.391837,-1.812245 Q 22.204082,18.579592 22.204082,16 q 0,-2.579592 -1.812245,-4.391837 Q 18.579592,9.7959184 16,9.7959184 q -2.579592,0 -4.391837,1.8122446 Q 9.795918,13.420408 9.795918,16 Z"
     id="path2989"
     inkscape:connector-curvature="0" />
</svg>
