<?xml version="1.0" encoding="UTF-8" standalone="no"?>
<svg
   xmlns:dc="http://purl.org/dc/elements/1.1/"
   xmlns:cc="http://creativecommons.org/ns#"
   xmlns:rdf="http://www.w3.org/1999/02/22-rdf-syntax-ns#"
   xmlns:svg="http://www.w3.org/2000/svg"
   xmlns="http://www.w3.org/2000/svg"
   xmlns:sodipodi="http://sodipodi.sourceforge.net/DTD/sodipodi-0.dtd"
   xmlns:inkscape="http://www.inkscape.org/namespaces/inkscape"
   version="1.1"
   width="32px"
   height="32px"
   id="svg2985"
   inkscape:version="0.91 r13725"
   sodipodi:docname="refresh.svg">
  <metadata
     id="metadata2995">
    <rdf:RDF>
      <cc:Work
         rdf:about="">
        <dc:format>image/svg+xml</dc:format>
        <dc:type
           rdf:resource="http://purl.org/dc/dcmitype/StillImage" />
      </cc:Work>
    </rdf:RDF>
  </metadata>
  <defs
     id="defs2993" />
  <sodipodi:namedview
     pagecolor="#ffffff"
     bordercolor="#666666"
     borderopacity="1"
     objecttolerance="10"
     gridtolerance="10"
     guidetolerance="10"
     inkscape:pageopacity="0"
     inkscape:pageshadow="2"
     inkscape:window-width="1920"
     inkscape:window-height="1028"
     id="namedview2991"
     showgrid="false"
     inkscape:zoom="7.375"
     inkscape:cx="-32.393613"
     inkscape:cy="16"
     inkscape:window-x="-8"
     inkscape:window-y="-8"
     inkscape:window-maximized="1"
     inkscape:current-layer="svg2985" />
  <g
     id="g2987"
     transform="matrix(0.01333333,0,0,-0.01333333,-1.3285922,33.077193)" />
  <path
     d="m 0.00474518,15.426488 q -0.053384,2.224747 0.4937972,4.46918 l 3.87030312,-0.06563 0.2669174,-0.03937 Q 3.7015519,17.204976 4.115274,14.323961 4.528996,11.442948 6.2639595,9.0803862 8.1056895,6.573445 10.894977,5.2937238 q 2.789287,-1.2797212 5.858837,-1.082841 3.069552,0.1968802 5.712035,1.863799 l -1.935152,2.6250697 q -0.160151,0.2100053 -0.08008,0.3675093 0.08008,0.157504 0.360337,0.157504 l 8.674818,-0.157504 q 0.266918,0 0.407048,-0.1837546 0.140132,-0.1837547 0.06005,-0.4462627 L 27.37713,0.28640184 q -0.08008,-0.2493816 -0.253572,-0.2821949 -0.173496,-0.032813 -0.333647,0.1903174 L 24.814722,2.8720949 24.734642,2.8195939 Q 22.092159,1.1264243 19.022609,0.54890914 15.953058,-0.02860606 13.063677,0.49640814 10.174296,1.0214219 7.5184675,2.6358394 4.8626388,4.2502562 3.0209084,6.7703224 1.5929,8.7128742 0.82551238,10.957308 q -0.7673877,2.244434 -0.8207712,4.46918 z M 2.0333178,23.55764 q -0.080075,-0.262507 0.060056,-0.446261 0.1401317,-0.183755 0.4070492,-0.183755 l 8.674817,-0.157505 q 0.266917,0 0.353665,0.157505 0.08675,0.157504 -0.0734,0.367509 l -1.9351515,2.62507 q 1.9751885,1.260032 4.2640065,1.673481 2.288817,0.413448 4.444176,0.01969 2.155358,-0.39376 4.137219,-1.601292 1.981863,-1.207532 3.356487,-3.084456 1.161092,-1.575042 1.734964,-3.406028 0.573872,-1.830985 0.540508,-3.66197 -0.03336,-1.830987 -0.620583,-3.589783 l 4.123875,-0.07875 q 0.867481,3.21571 0.22688,6.687364 -0.640603,3.471654 -2.762596,6.346104 -1.841731,2.520067 -4.49756,4.134484 -2.655828,1.614418 -5.545209,2.139431 -2.889381,0.525015 -5.958933,-0.05251 -3.0695505,-0.577514 -5.7120325,-2.270684 l -0.08007,-0.05251 -1.9751895,2.67757 Q 5.0361406,32.023488 4.8626442,31.997237 4.689148,31.970984 4.6090726,31.70848 Z"
     id="path2989"
     inkscape:connector-curvature="0" />
</svg>
