<?xml version="1.0" encoding="UTF-8" standalone="no"?>
<svg
   xmlns:dc="http://purl.org/dc/elements/1.1/"
   xmlns:cc="http://creativecommons.org/ns#"
   xmlns:rdf="http://www.w3.org/1999/02/22-rdf-syntax-ns#"
   xmlns:svg="http://www.w3.org/2000/svg"
   xmlns="http://www.w3.org/2000/svg"
   xmlns:sodipodi="http://sodipodi.sourceforge.net/DTD/sodipodi-0.dtd"
   xmlns:inkscape="http://www.inkscape.org/namespaces/inkscape"
   version="1.1"
   width="32px"
   height="32px"
   id="svg2985"
   inkscape:version="0.91 r13725"
   sodipodi:docname="remove_2.svg">
  <metadata
     id="metadata2995">
    <rdf:RDF>
      <cc:Work
         rdf:about="">
        <dc:format>image/svg+xml</dc:format>
        <dc:type
           rdf:resource="http://purl.org/dc/dcmitype/StillImage" />
      </cc:Work>
    </rdf:RDF>
  </metadata>
  <defs
     id="defs2993" />
  <sodipodi:namedview
     pagecolor="#ffffff"
     bordercolor="#666666"
     borderopacity="1"
     objecttolerance="10"
     gridtolerance="10"
     guidetolerance="10"
     inkscape:pageopacity="0"
     inkscape:pageshadow="2"
     inkscape:window-width="1920"
     inkscape:window-height="1028"
     id="namedview2991"
     showgrid="false"
     inkscape:zoom="7.375"
     inkscape:cx="-0.20338983"
     inkscape:cy="16"
     inkscape:window-x="-8"
     inkscape:window-y="-8"
     inkscape:window-maximized="1"
     inkscape:current-layer="svg2985" />
  <g
     id="g2987"
     transform="matrix(0.01777778,0,0,-0.01777778,-10.777778,42.777778)" />
  <path
     d="M 0,26.755556 Q 0,26.346667 0.3022222,26.044444 L 10.346667,16 0.3022222,5.9555556 Q 0,5.6533333 0,5.2266667 0,4.8 0.3022222,4.5155556 L 4.533333,0.2844444 Q 4.835556,0 5.244444,0 5.653333,0 5.955556,0.2844444 L 16.017778,10.328889 26.062222,0.2844444 Q 26.346667,0 26.773333,0 27.2,0 27.484444,0.2844444 l 4.231112,4.2311112 Q 32,4.8 32,5.2266667 32,5.6533333 31.715556,5.9555556 L 21.671111,16 31.715556,26.026667 Q 32,26.328889 32,26.746667 q 0,0.417777 -0.284444,0.72 l -4.231112,4.231111 Q 27.2,32 26.773333,32 26.346667,32 26.044444,31.697778 L 16.017778,21.671111 5.973333,31.715556 Q 5.688889,32 5.262222,32 4.835556,32 4.533333,31.715556 L 0.3022222,27.466667 Q 0,27.164444 0,26.755556 Z"
     id="path2989"
     inkscape:connector-curvature="0" />
</svg>
