<?xml version="1.0" encoding="UTF-8" standalone="no"?>
<svg
   xmlns:dc="http://purl.org/dc/elements/1.1/"
   xmlns:cc="http://creativecommons.org/ns#"
   xmlns:rdf="http://www.w3.org/1999/02/22-rdf-syntax-ns#"
   xmlns:svg="http://www.w3.org/2000/svg"
   xmlns="http://www.w3.org/2000/svg"
   xmlns:sodipodi="http://sodipodi.sourceforge.net/DTD/sodipodi-0.dtd"
   xmlns:inkscape="http://www.inkscape.org/namespaces/inkscape"
   version="1.1"
   width="32px"
   height="32px"
   id="svg2985"
   inkscape:version="0.91 r13725"
   sodipodi:docname="restart.svg">
  <metadata
     id="metadata2995">
    <rdf:RDF>
      <cc:Work
         rdf:about="">
        <dc:format>image/svg+xml</dc:format>
        <dc:type
           rdf:resource="http://purl.org/dc/dcmitype/StillImage" />
      </cc:Work>
    </rdf:RDF>
  </metadata>
  <defs
     id="defs2993" />
  <sodipodi:namedview
     pagecolor="#ffffff"
     bordercolor="#666666"
     borderopacity="1"
     objecttolerance="10"
     gridtolerance="10"
     guidetolerance="10"
     inkscape:pageopacity="0"
     inkscape:pageshadow="2"
     inkscape:window-width="1920"
     inkscape:window-height="1028"
     id="namedview2991"
     showgrid="false"
     inkscape:zoom="7.375"
     inkscape:cx="-0.20338983"
     inkscape:cy="16"
     inkscape:window-x="-8"
     inkscape:window-y="-8"
     inkscape:window-maximized="1"
     inkscape:current-layer="svg2985" />
  <g
     id="g2987"
     transform="matrix(0.0132604,0,0,-0.01326034,-1.3237229,33.041122)" />
  <path
     d="m 0.167081,15.84611 q 0,-2.983577 1.0608321,-5.701947 Q 2.2887452,7.4257919 4.2115033,5.2776167 L 7.009448,8.088809 q -1.3658213,1.5912409 -2.115034,3.580293 -0.7492127,1.989051 -0.7492127,4.163748 0,2.426643 0.9414885,4.63449 0.9414885,2.207847 2.5327362,3.805719 1.591249,1.597871 3.805736,2.539355 2.214487,0.941484 4.6544,0.941484 1.922759,0 3.388033,-0.450851 1.465274,-0.450852 3.016741,-1.445377 l -2.00232,-2.811194 q -0.159125,-0.225426 -0.07956,-0.37792 0.07956,-0.152493 0.358031,-0.139233 l 9.056854,0 q 0.278468,0 0.417703,0.185645 0.139234,0.185644 0.04641,0.450851 l -2.917288,8.539662 q -0.07956,0.265207 -0.251948,0.291728 -0.172385,0.02652 -0.33151,-0.198905 l -1.962539,-2.705111 -0.07956,0.05304 q -1.922758,1.259734 -4.243328,1.922751 -2.32057,0.663017 -4.415714,0.676277 -3.407923,0 -6.391513,-1.259732 Q 6.704459,29.225796 4.629206,27.084251 2.5539532,24.942706 1.3605171,22.0188 0.167081,19.094895 0.167081,15.84611 Z M 5.5242831,3.964843 Q 7.128792,2.5459852 8.971987,1.6310217 L 10.483673,5.290877 Q 9.330018,5.9008527 8.322228,6.7760352 Z M 11.05387,0.75583929 Q 12.910326,0.14586359 14.753522,-1.117734e-7 l 0,3.9781034117734 q -1.166915,0.1193431 -2.187966,0.4508516 z m 6.351732,3.22226401 0,-3.9781034117734 Q 19.142715,0.14586359 20.733963,0.63649619 L 19.195757,4.3228722 Q 18.267529,4.0709257 17.405602,3.9781033 Z m 4.61462,1.5249392 1.524946,-3.6996363 Q 24.831427,2.4929439 26.024863,3.46095 L 23.200398,6.2854026 Q 22.630201,5.8610717 22.020222,5.5030425 Z m 3.62009,3.2222629 2.824465,-2.8244527 q 0.782364,0.9547445 1.445384,2.1349148 L 26.210509,9.5739672 Q 25.91878,9.1098552 25.640312,8.7253054 Z m 2.042101,4.1107066 3.699652,-1.670803 q 0.07956,0.278467 0.172385,0.808881 0.09282,0.530414 0.165755,0.875183 0.07293,0.344768 0.112714,0.344768 l -4.017902,0 q -0.03978,0 -0.132604,-0.358029 z"
     id="path2989"
     inkscape:connector-curvature="0" />
</svg>
