<?xml version="1.0" encoding="UTF-8" standalone="no"?>
<svg
   xmlns:dc="http://purl.org/dc/elements/1.1/"
   xmlns:cc="http://creativecommons.org/ns#"
   xmlns:rdf="http://www.w3.org/1999/02/22-rdf-syntax-ns#"
   xmlns:svg="http://www.w3.org/2000/svg"
   xmlns="http://www.w3.org/2000/svg"
   xmlns:sodipodi="http://sodipodi.sourceforge.net/DTD/sodipodi-0.dtd"
   xmlns:inkscape="http://www.inkscape.org/namespaces/inkscape"
   version="1.1"
   width="32px"
   height="32px"
   id="svg2985"
   inkscape:version="0.91 r13725"
   sodipodi:docname="retweet_2.svg">
  <metadata
     id="metadata2995">
    <rdf:RDF>
      <cc:Work
         rdf:about="">
        <dc:format>image/svg+xml</dc:format>
        <dc:type
           rdf:resource="http://purl.org/dc/dcmitype/StillImage" />
      </cc:Work>
    </rdf:RDF>
  </metadata>
  <defs
     id="defs2993" />
  <sodipodi:namedview
     pagecolor="#ffffff"
     bordercolor="#666666"
     borderopacity="1"
     objecttolerance="10"
     gridtolerance="10"
     guidetolerance="10"
     inkscape:pageopacity="0"
     inkscape:pageshadow="2"
     inkscape:window-width="1920"
     inkscape:window-height="1028"
     id="namedview2991"
     showgrid="false"
     inkscape:zoom="7.375"
     inkscape:cx="-0.20338983"
     inkscape:cy="16"
     inkscape:window-x="-8"
     inkscape:window-y="-8"
     inkscape:window-maximized="1"
     inkscape:current-layer="svg2985" />
  <g
     id="g2987"
     transform="matrix(0.01001252,0,0,-0.01001252,3.9649312,33.369036)" />
  <path
     d="m 0,14.498123 6.3579474,-8.6508138 6.6483106,8.6508138 -4.035044,0 0,6.007509 9.221527,0 3.854818,5.006258 -16.5807255,0 q -0.6207759,0 -1.0613266,-0.440551 -0.4405507,-0.44055 -0.4405507,-1.061326 l 0,-9.51189 -3.9649562,0 z m 9.9524406,-8.0100128 16.5807254,0 q 0.620776,0 1.041302,0.4505632 0.420526,0.4505632 0.420526,1.0813517 l 0,9.4818519 4.005006,0 -6.347935,8.650814 -6.658323,-8.650814 3.994994,0 0,-6.007509 -9.181477,0 z"
     id="path2989"
     inkscape:connector-curvature="0" />
</svg>
