<?xml version="1.0" encoding="UTF-8" standalone="no"?>
<svg
   xmlns:dc="http://purl.org/dc/elements/1.1/"
   xmlns:cc="http://creativecommons.org/ns#"
   xmlns:rdf="http://www.w3.org/1999/02/22-rdf-syntax-ns#"
   xmlns:svg="http://www.w3.org/2000/svg"
   xmlns="http://www.w3.org/2000/svg"
   xmlns:sodipodi="http://sodipodi.sourceforge.net/DTD/sodipodi-0.dtd"
   xmlns:inkscape="http://www.inkscape.org/namespaces/inkscape"
   version="1.1"
   width="32px"
   height="32px"
   id="svg2985"
   inkscape:version="0.91 r13725"
   sodipodi:docname="rewind.svg">
  <metadata
     id="metadata2995">
    <rdf:RDF>
      <cc:Work
         rdf:about="">
        <dc:format>image/svg+xml</dc:format>
        <dc:type
           rdf:resource="http://purl.org/dc/dcmitype/StillImage" />
      </cc:Work>
    </rdf:RDF>
  </metadata>
  <defs
     id="defs2993" />
  <sodipodi:namedview
     pagecolor="#ffffff"
     bordercolor="#666666"
     borderopacity="1"
     objecttolerance="10"
     gridtolerance="10"
     guidetolerance="10"
     inkscape:pageopacity="0"
     inkscape:pageshadow="2"
     inkscape:window-width="1920"
     inkscape:window-height="1028"
     id="namedview2991"
     showgrid="false"
     inkscape:zoom="7.375"
     inkscape:cx="-0.20338983"
     inkscape:cy="16"
     inkscape:window-x="-8"
     inkscape:window-y="-8"
     inkscape:window-maximized="1"
     inkscape:current-layer="svg2985" />
  <g
     id="g2987"
     transform="matrix(0.01408551,0,0,-0.01408583,-2.2926867,39.103873)" />
  <path
     d="M 0.0047586,16.014085 Q -0.0304551,15.767583 0.194913,15.584467 L 15.731233,3.4565698 q 0.239454,-0.1831158 0.507078,-0.0986 0.267625,0.084515 0.267625,0.3662302 l 0,11.2123212 14.719361,-11.4799506 q 0.239454,-0.1831158 0.507078,-0.0986 Q 32,3.4424847 32,3.7242004 l 0,24.5375136 q 0,0.295804 -0.267625,0.380318 -0.267624,0.08451 -0.507078,-0.0986 l -14.719361,-11.536294 0,11.254577 q 0,0.295804 -0.267625,0.380318 -0.267624,0.08451 -0.507078,-0.0986 L 0.2794261,16.443703 Q 0.0399724,16.260587 0.0047586,16.014085 Z"
     id="path2989"
     inkscape:connector-curvature="0" />
</svg>
