<?xml version="1.0" encoding="UTF-8" standalone="no"?>
<svg
   xmlns:dc="http://purl.org/dc/elements/1.1/"
   xmlns:cc="http://creativecommons.org/ns#"
   xmlns:rdf="http://www.w3.org/1999/02/22-rdf-syntax-ns#"
   xmlns:svg="http://www.w3.org/2000/svg"
   xmlns="http://www.w3.org/2000/svg"
   xmlns:sodipodi="http://sodipodi.sourceforge.net/DTD/sodipodi-0.dtd"
   xmlns:inkscape="http://www.inkscape.org/namespaces/inkscape"
   version="1.1"
   width="32px"
   height="32px"
   id="svg2985"
   inkscape:version="0.91 r13725"
   sodipodi:docname="riflescope.svg">
  <metadata
     id="metadata2995">
    <rdf:RDF>
      <cc:Work
         rdf:about="">
        <dc:format>image/svg+xml</dc:format>
        <dc:type
           rdf:resource="http://purl.org/dc/dcmitype/StillImage" />
      </cc:Work>
    </rdf:RDF>
  </metadata>
  <defs
     id="defs2993" />
  <sodipodi:namedview
     pagecolor="#ffffff"
     bordercolor="#666666"
     borderopacity="1"
     objecttolerance="10"
     gridtolerance="10"
     guidetolerance="10"
     inkscape:pageopacity="0"
     inkscape:pageshadow="2"
     inkscape:window-width="1920"
     inkscape:window-height="1028"
     id="namedview2991"
     showgrid="false"
     inkscape:zoom="7.375"
     inkscape:cx="-0.20338983"
     inkscape:cy="16"
     inkscape:window-x="-8"
     inkscape:window-y="-8"
     inkscape:window-maximized="1"
     inkscape:current-layer="svg2985" />
  <g
     id="g2987"
     transform="matrix(0.01290323,0,0,-0.01290323,-1.3032258,32.012903)" />
  <path
     d="M 0,16 Q 0,12.748387 1.2709677,9.7870968 2.5419355,6.8258065 4.683871,4.683871 6.825806,2.5419355 9.787097,1.2709677 12.748387,0 16,0 q 3.251613,0 6.212903,1.2709677 2.961291,1.2709678 5.103226,3.4129033 2.141936,2.1419355 3.412903,5.1032258 Q 32,12.748387 32,16 q 0,3.251613 -1.270968,6.212903 -1.270967,2.961291 -3.412903,5.103226 -2.141935,2.141936 -5.103226,3.412903 Q 19.251613,32 16,32 12.748387,32 9.787097,30.729032 6.825806,29.458065 4.683871,27.316129 2.5419355,25.174194 1.2709677,22.212903 0,19.251613 0,16 Z m 3.9096774,0.774194 q 0.2451613,4.838709 3.3612906,7.954838 3.116129,3.116129 7.954838,3.361291 l 0,-7.445162 1.290323,0 0,7.445162 q 3.2,-0.154839 5.774194,-1.625807 2.574193,-1.470968 4.109677,-4 1.535484,-2.529032 1.690323,-5.690322 l -7.703226,0 0,-1.290323 7.703226,0 Q 27.974194,13.096774 27.051613,11.006452 26.129032,8.916129 24.606452,7.3935484 23.083871,5.8709677 20.993548,4.9483871 18.903226,4.0258065 16.516129,3.9096774 l 0,7.7032256 -1.290323,0 0,-7.7032256 Q 12.051613,4.0645161 9.522581,5.6 6.993548,7.1354839 5.5290323,9.7096774 4.0645161,12.283871 3.9096774,15.483871 l 7.4451616,0 0,1.290323 -7.4451616,0 z"
     id="path2989"
     inkscape:connector-curvature="0" />
</svg>
