<?xml version="1.0" encoding="UTF-8" standalone="no"?>
<svg
   xmlns:dc="http://purl.org/dc/elements/1.1/"
   xmlns:cc="http://creativecommons.org/ns#"
   xmlns:rdf="http://www.w3.org/1999/02/22-rdf-syntax-ns#"
   xmlns:svg="http://www.w3.org/2000/svg"
   xmlns="http://www.w3.org/2000/svg"
   xmlns:sodipodi="http://sodipodi.sourceforge.net/DTD/sodipodi-0.dtd"
   xmlns:inkscape="http://www.inkscape.org/namespaces/inkscape"
   version="1.1"
   width="32px"
   height="32px"
   id="svg2985"
   inkscape:version="0.91 r13725"
   sodipodi:docname="right_arrow.svg">
  <metadata
     id="metadata2995">
    <rdf:RDF>
      <cc:Work
         rdf:about="">
        <dc:format>image/svg+xml</dc:format>
        <dc:type
           rdf:resource="http://purl.org/dc/dcmitype/StillImage" />
      </cc:Work>
    </rdf:RDF>
  </metadata>
  <defs
     id="defs2993" />
  <sodipodi:namedview
     pagecolor="#ffffff"
     bordercolor="#666666"
     borderopacity="1"
     objecttolerance="10"
     gridtolerance="10"
     guidetolerance="10"
     inkscape:pageopacity="0"
     inkscape:pageshadow="2"
     inkscape:window-width="1920"
     inkscape:window-height="1028"
     id="namedview2991"
     showgrid="false"
     inkscape:zoom="7.375"
     inkscape:cx="-0.20338983"
     inkscape:cy="16"
     inkscape:window-x="-8"
     inkscape:window-y="-8"
     inkscape:window-maximized="1"
     inkscape:current-layer="svg2985" />
  <g
     id="g2987"
     transform="matrix(0.016,0,0,-0.01600034,-6.8,42.183633)" />
  <path
     d="m 0,19.983339 0,-7.968172 q 0,-0.320006 0.248,-0.568013 0.248,-0.248005 0.568,-0.248005 l 13.584,0 0,-8.2881774 q 0,-0.3360072 0.192,-0.4240091 0.192,-0.088002 0.448,0.1200032 L 31.728,15.519243 Q 32,15.711247 32,15.999254 32,16.28726 31.728,16.495263 L 15.056,29.407541 q -0.272,0.192005 -0.464,0.104 -0.192,-0.088 -0.192,-0.42401 l 0,-8.288178 -13.584,0 q -0.32,0 -0.568,-0.248006 Q 0,20.303345 0,19.983339 Z"
     id="path2989"
     inkscape:connector-curvature="0" />
</svg>
