<?xml version="1.0" encoding="UTF-8" standalone="no"?>
<svg
   xmlns:dc="http://purl.org/dc/elements/1.1/"
   xmlns:cc="http://creativecommons.org/ns#"
   xmlns:rdf="http://www.w3.org/1999/02/22-rdf-syntax-ns#"
   xmlns:svg="http://www.w3.org/2000/svg"
   xmlns="http://www.w3.org/2000/svg"
   xmlns:sodipodi="http://sodipodi.sourceforge.net/DTD/sodipodi-0.dtd"
   xmlns:inkscape="http://www.inkscape.org/namespaces/inkscape"
   version="1.1"
   width="32px"
   height="32px"
   id="svg2985"
   inkscape:version="0.91 r13725"
   sodipodi:docname="right_indent.svg">
  <metadata
     id="metadata2995">
    <rdf:RDF>
      <cc:Work
         rdf:about="">
        <dc:format>image/svg+xml</dc:format>
        <dc:type
           rdf:resource="http://purl.org/dc/dcmitype/StillImage" />
      </cc:Work>
    </rdf:RDF>
  </metadata>
  <defs
     id="defs2993" />
  <sodipodi:namedview
     pagecolor="#ffffff"
     bordercolor="#666666"
     borderopacity="1"
     objecttolerance="10"
     gridtolerance="10"
     guidetolerance="10"
     inkscape:pageopacity="0"
     inkscape:pageshadow="2"
     inkscape:window-width="1920"
     inkscape:window-height="1028"
     id="namedview2991"
     showgrid="false"
     inkscape:zoom="7.375"
     inkscape:cx="-0.20338983"
     inkscape:cy="16"
     inkscape:window-x="-8"
     inkscape:window-y="-8"
     inkscape:window-maximized="1"
     inkscape:current-layer="svg2985" />
  <g
     id="g2987"
     transform="matrix(0.01333333,0,0,-0.01333333,-1.3333333,35)" />
  <path
     d="M 0,27.333334 0,24.666667 Q 0,24.4 0.1933333,24.2 0.3866667,24 0.6666667,24 L 18,24 q 0.28,0 0.473333,0.2 0.193334,0.2 0.193334,0.466667 l 0,2.666667 q 0,0.28 -0.193334,0.473333 Q 18.28,28 18,28 L 0.6666667,28 q -0.28,0 -0.4733334,-0.193333 Q 0,27.613334 0,27.333334 Z M 0,20.666667 0,18 q 0,-0.266666 0.1933333,-0.466666 0.1933334,-0.2 0.4733334,-0.2 l 10.6666663,0 q 0.28,0 0.473334,0.2 Q 12,17.733334 12,18 l 0,2.666667 q 0,0.28 -0.193333,0.473333 -0.193334,0.193334 -0.473334,0.193334 l -10.6666663,0 q -0.28,0 -0.4733334,-0.193334 Q 0,20.946667 0,20.666667 Z M 0,14 0,11.333333 q 0,-0.28 0.1933333,-0.473333 0.1933334,-0.193333 0.4733334,-0.193333 l 14.6666663,0 q 0.28,0 0.473334,0.193333 Q 16,11.053333 16,11.333333 L 16,14 q 0,0.28 -0.193333,0.473334 -0.193334,0.193333 -0.473334,0.193333 l -14.6666663,0 q -0.28,0 -0.4733334,-0.193333 Q 0,14.28 0,14 Z M 0,7.3333333 0,4.6666666 Q 0,4.4 0.1933333,4.2 0.3866667,4 0.6666667,4 L 8.666667,4 q 0.28,0 0.473333,0.2 0.193333,0.2 0.193333,0.4666666 l 0,2.6666667 q 0,0.28 -0.193333,0.4733333 -0.193333,0.1933333 -0.473333,0.1933333 l -8.0000003,0 q -0.28,0 -0.4733334,-0.1933333 Q 0,7.6133333 0,7.3333333 Z m 20,23.3333337 0,-29.3333336 2.666667,0 0,29.3333336 -2.666667,0 z m 3.56,-14 L 28,13.333333 28,16 l 4,0 0,1.333334 -4,0 L 28,20 Z"
     id="path2989"
     inkscape:connector-curvature="0" />
</svg>
