<?xml version="1.0" encoding="UTF-8" standalone="no"?>
<svg
   xmlns:dc="http://purl.org/dc/elements/1.1/"
   xmlns:cc="http://creativecommons.org/ns#"
   xmlns:rdf="http://www.w3.org/1999/02/22-rdf-syntax-ns#"
   xmlns:svg="http://www.w3.org/2000/svg"
   xmlns="http://www.w3.org/2000/svg"
   xmlns:sodipodi="http://sodipodi.sourceforge.net/DTD/sodipodi-0.dtd"
   xmlns:inkscape="http://www.inkscape.org/namespaces/inkscape"
   version="1.1"
   width="32px"
   height="32px"
   id="svg2985"
   inkscape:version="0.91 r13725"
   sodipodi:docname="ring.svg">
  <metadata
     id="metadata2995">
    <rdf:RDF>
      <cc:Work
         rdf:about="">
        <dc:format>image/svg+xml</dc:format>
        <dc:type
           rdf:resource="http://purl.org/dc/dcmitype/StillImage" />
      </cc:Work>
    </rdf:RDF>
  </metadata>
  <defs
     id="defs2993" />
  <sodipodi:namedview
     pagecolor="#ffffff"
     bordercolor="#666666"
     borderopacity="1"
     objecttolerance="10"
     gridtolerance="10"
     guidetolerance="10"
     inkscape:pageopacity="0"
     inkscape:pageshadow="2"
     inkscape:window-width="1920"
     inkscape:window-height="1028"
     id="namedview2991"
     showgrid="false"
     inkscape:zoom="7.375"
     inkscape:cx="-0.20338983"
     inkscape:cy="16"
     inkscape:window-x="-8"
     inkscape:window-y="-8"
     inkscape:window-maximized="1"
     inkscape:current-layer="svg2985" />
  <g
     id="g2987"
     transform="matrix(0.01346785,0,0,-0.01346801,-3.7471723,33.752054)" />
  <path
     d="M 2.3099284,18.760943 Q 2.2964604,15.744108 3.3873568,13.420875 4.4782532,11.097643 7.2256953,8.956229 l 4.2154387,4.215488 q -1.8181607,1.077441 -3.0100657,3.037037 -1.191905,1.959596 -1.191905,4.491583 0,0.323232 0.01347,0.484848 0.06734,1.387206 0.848474,2.794613 0.781136,1.407407 1.9730417,2.491582 1.191904,1.084176 2.774378,1.771044 1.582474,0.686869 3.158213,0.686869 1.56227,0 3.124541,-0.693603 1.562272,-0.693602 2.72724,-1.791246 1.16497,-1.097643 1.925903,-2.498316 0.760935,-1.400673 0.828274,-2.760943 0.01347,-0.161616 0.01347,-0.484848 0,-2.531987 -1.191905,-4.491583 -1.191909,-1.959596 -3.01007,-3.037037 l 4.215439,-4.215488 q 2.774379,2.154882 3.919147,4.491582 1.144766,2.336701 1.1313,5.313132 -0.01347,2.760943 -0.962953,5.171717 -0.949484,2.410774 -2.680103,4.20202 -1.73062,1.791246 -4.323181,2.828283 Q 19.131279,32 16.006738,32 12.882195,32 10.289632,30.962963 7.6970703,29.925926 5.9664511,28.13468 4.2358318,26.343434 3.279614,23.93266 2.3233963,21.521886 2.3099284,18.760943 Z M 7.2526313,5.3872054 12.208801,0.4309764 q 0.363632,0.4309765 0.70033,0.7138047 l -2.9629287,6.936027 z m 5.3871407,4.8350166 3.528579,3.79798 3.205349,-3.79798 q -0.175081,0.121212 -0.478109,0.296296 -0.303026,0.175085 -1.158234,0.471381 -0.855209,0.296296 -1.622877,0.296296 -0.767667,0 -1.636344,-0.26936 -0.868677,-0.26936 -1.35352,-0.538721 z m 0,-2.1414139 1.737355,-6.0875421 q 0.861942,0.3097643 1.683481,0.3097643 0.767669,0 1.575739,-0.2828283 L 19.3737,8.0808081 q -0.06734,0.053872 -0.181815,0.1346801 -0.114478,0.080808 -0.491577,0.2828283 -0.3771,0.2020202 -0.754199,0.3636364 -0.377101,0.1616161 -0.909081,0.2895623 -0.531981,0.1279461 -1.03029,0.1279461 -0.781136,0 -1.622877,-0.3030303 Q 13.542119,8.6734007 13.084212,8.3771044 Z M 13.636395,0 18.484822,0 Q 17.447797,0.956229 16.060608,0.956229 14.673419,0.956229 13.636395,0 Z m 5.481416,1.2121212 q 0.3771,-0.3097643 0.740732,-0.7272727 l 4.902299,4.9023569 -2.69357,2.6936027 z"
     id="path2989"
     inkscape:connector-curvature="0" />
</svg>
