<?xml version="1.0" encoding="UTF-8" standalone="no"?>
<svg
   xmlns:dc="http://purl.org/dc/elements/1.1/"
   xmlns:cc="http://creativecommons.org/ns#"
   xmlns:rdf="http://www.w3.org/1999/02/22-rdf-syntax-ns#"
   xmlns:svg="http://www.w3.org/2000/svg"
   xmlns="http://www.w3.org/2000/svg"
   xmlns:sodipodi="http://sodipodi.sourceforge.net/DTD/sodipodi-0.dtd"
   xmlns:inkscape="http://www.inkscape.org/namespaces/inkscape"
   version="1.1"
   width="32px"
   height="32px"
   id="svg2985"
   inkscape:version="0.91 r13725"
   sodipodi:docname="rotation_lock.svg">
  <metadata
     id="metadata2995">
    <rdf:RDF>
      <cc:Work
         rdf:about="">
        <dc:format>image/svg+xml</dc:format>
        <dc:type
           rdf:resource="http://purl.org/dc/dcmitype/StillImage" />
      </cc:Work>
    </rdf:RDF>
  </metadata>
  <defs
     id="defs2993" />
  <sodipodi:namedview
     pagecolor="#ffffff"
     bordercolor="#666666"
     borderopacity="1"
     objecttolerance="10"
     gridtolerance="10"
     guidetolerance="10"
     inkscape:pageopacity="0"
     inkscape:pageshadow="2"
     inkscape:window-width="1920"
     inkscape:window-height="1028"
     id="namedview2991"
     showgrid="false"
     inkscape:zoom="7.375"
     inkscape:cx="-0.20338983"
     inkscape:cy="16"
     inkscape:window-x="-8"
     inkscape:window-y="-8"
     inkscape:window-maximized="1"
     inkscape:current-layer="svg2985" />
  <g
     id="g2987"
     transform="matrix(0.01194922,0,0,-0.01194922,-0.50874533,32.831382)" />
  <path
     d="M 0,16.023899 Q 0,13.10829 1.1351755,10.455564 2.270351,7.802838 4.1941748,5.8790142 6.1179985,3.9551905 8.770724,2.8200149 11.42345,1.6848394 14.339059,1.6848394 q 1.876027,0 3.698282,0.4958925 1.822256,0.4958924 3.369679,1.3741598 1.547424,0.8782674 2.867812,2.1090366 1.320388,1.2307693 2.264376,2.6646752 0.943988,1.4339059 1.493652,3.0828975 0.549664,1.648992 0.60941,3.333832 l 0.01195,0.08364 3.011202,0 Q 32,14.828973 32,15.067958 q 0,0.131441 -0.09559,0.238984 l -4.660194,6.811053 q -0.14339,0.203137 -0.358476,0.203137 -0.215086,0 -0.358477,-0.203137 l -4.660194,-6.811053 q -0.09559,-0.107543 -0.09559,-0.238984 0,-0.238985 0.334578,-0.238985 l 2.951457,0 Q 24.973861,12.929052 24.083645,11.166542 23.193428,9.4040329 21.765497,8.1135176 20.337565,6.8230023 18.389843,6.0463032 q -1.947722,-0.776699 -4.050784,-0.776699 -2.186706,0 -4.176251,0.8543689 -1.989544,0.854369 -3.4294249,2.2942495 -1.4398805,1.4398805 -2.2942494,3.4294244 -0.854369,1.989545 -0.854369,4.176252 0,1.589246 0.4002988,3.017177 0.4002987,1.427931 1.0634802,2.491411 0.6631815,1.063481 1.5474234,1.953697 0.8842419,0.890217 1.8342049,1.481703 0.949962,0.591486 1.935773,1.003734 0.98581,0.412248 1.840179,0.597461 0.854369,0.185213 1.559373,0.185213 2.342046,0 3.979089,-0.519791 1.637042,-0.519791 3.166542,-1.714713 0.693054,-0.549664 1.505601,-1.290515 0.203137,-0.191187 0.525765,-0.191187 0.525766,0 0.943988,0.45407 l 0.812547,0.872293 q 0.394324,0.418222 0.394324,0.90814 0,0.346527 -0.227035,0.573562 -0.0239,0.0239 -0.209111,0.203137 -0.185213,0.179238 -0.460045,0.418223 -0.274832,0.238984 -0.728902,0.59746 -0.932039,0.705004 -1.852129,1.236744 -0.920089,0.53174 -2.12696,1.015683 -1.206871,0.483944 -2.682599,0.740852 -1.475728,0.256908 -3.160568,0.256908 -1.027632,0 -2.228528,-0.274832 Q 10.21658,29.765497 8.896191,29.179985 7.575803,28.594474 6.309186,27.769978 5.0425691,26.945482 3.8954444,25.744586 2.7483196,24.54369 1.8820015,23.133682 1.0156833,21.723675 0.5078417,19.883496 0,18.043316 0,16.023899 Z m 9.559373,5.377147 0,-5.974608 q 0,-0.238984 0.173263,-0.418222 0.173264,-0.179239 0.424197,-0.179239 l 0.597461,0 0,-1.816281 q 0,-1.242718 0.830471,-2.103062 0.83047,-0.860344 2.025392,-0.860344 l 1.457804,0 q 1.194922,0 2.025392,0.860344 0.830471,0.860344 0.830471,2.103062 l 0,1.816281 0.597461,0 q 0.250933,0 0.424197,0.179239 0.173263,0.179238 0.173263,0.418222 l 0,5.974608 q 0,0.250934 -0.173263,0.424197 -0.173264,0.173264 -0.424197,0.173264 l -8.364452,0 q -0.250933,0 -0.424197,-0.173264 Q 9.559373,21.65198 9.559373,21.401046 Z m 3.584764,-6.572069 2.389844,0 0,-1.816281 q 0,-0.262882 -0.125467,-0.418222 -0.125467,-0.15534 -0.340553,-0.15534 l -1.457804,0 q -0.215086,0 -0.340553,0.15534 -0.125467,0.15534 -0.125467,0.418222 l 0,1.816281 z"
     id="path2989"
     inkscape:connector-curvature="0" />
</svg>
