<?xml version="1.0" encoding="UTF-8" standalone="no"?>
<svg
   xmlns:dc="http://purl.org/dc/elements/1.1/"
   xmlns:cc="http://creativecommons.org/ns#"
   xmlns:rdf="http://www.w3.org/1999/02/22-rdf-syntax-ns#"
   xmlns:svg="http://www.w3.org/2000/svg"
   xmlns="http://www.w3.org/2000/svg"
   xmlns:sodipodi="http://sodipodi.sourceforge.net/DTD/sodipodi-0.dtd"
   xmlns:inkscape="http://www.inkscape.org/namespaces/inkscape"
   version="1.1"
   width="32px"
   height="32px"
   id="svg2985"
   inkscape:version="0.91 r13725"
   sodipodi:docname="roundabout.svg">
  <metadata
     id="metadata2995">
    <rdf:RDF>
      <cc:Work
         rdf:about="">
        <dc:format>image/svg+xml</dc:format>
        <dc:type
           rdf:resource="http://purl.org/dc/dcmitype/StillImage" />
      </cc:Work>
    </rdf:RDF>
  </metadata>
  <defs
     id="defs2993" />
  <sodipodi:namedview
     pagecolor="#ffffff"
     bordercolor="#666666"
     borderopacity="1"
     objecttolerance="10"
     gridtolerance="10"
     guidetolerance="10"
     inkscape:pageopacity="0"
     inkscape:pageshadow="2"
     inkscape:window-width="1920"
     inkscape:window-height="1028"
     id="namedview2991"
     showgrid="false"
     inkscape:zoom="7.375"
     inkscape:cx="-0.20338983"
     inkscape:cy="16"
     inkscape:window-x="-8"
     inkscape:window-y="-8"
     inkscape:window-maximized="1"
     inkscape:current-layer="svg2985" />
  <g
     id="g2987"
     transform="matrix(0.01222768,0,0,-0.01222756,-0.64323824,30.262456)" />
  <path
     d="m 0.53190442,18.678842 q -1.0638077,-3.863909 0,-7.715591 l 3.31370008,1.895272 q -0.4401964,2.45774 0.220098,4.85434 0.6358392,2.311011 2.1520708,4.108462 1.5162322,1.797452 3.5949362,2.824565 0.2567815,-1.846361 0.3790585,-2.531103 0.146732,-0.758109 0.745888,-0.195642 0.269009,0.256779 2.549471,2.537219 2.280461,2.28044 2.683975,2.696177 0.330147,0.354599 0.311806,0.519671 -0.01834,0.165072 -0.348489,0.360714 -0.342375,0.207868 -3.325928,1.846362 -2.9835535,1.638493 -3.3626115,1.821907 -0.403514,0.220094 -0.562473,0.158957 -0.15896,-0.06114 -0.110049,-0.464646 l 0.452424,-2.995753 Q 6.083269,27.140314 3.7722384,24.603094 1.4612078,22.065876 0.53190442,18.678842 Z M 2.6228369,9.2880757 Q 2.8307073,2.5996 2.9040734,1.8414911 2.9896674,0.97333422 3.674417,1.5602571 l 2.0053387,1.6629487 q 2.3477138,-1.821907 5.1111683,-2.58001588 3.986223,-1.0271153 7.709549,-0.012228 3.723327,1.01488758 6.486782,3.74163288 l -3.3137,1.9441826 Q 19.631533,4.629374 17.057607,4.0546785 14.483682,3.4799843 11.756911,4.1769547 10.081719,4.641602 8.5899425,5.6442622 10.3385,7.0748871 10.70533,7.3805762 q 0.183416,0.1589583 0.256782,0.305689 0.07337,0.1467309 -0.0061,0.2751203 -0.07948,0.1283893 -0.299578,0.1895272 Q 10.191782,8.2731877 7.1715465,9.0251831 4.1513102,9.7771783 3.6010649,9.8994545 2.9774534,10.058413 2.7940384,9.9544793 2.6106233,9.8505435 2.6228509,9.2880772 Z m 15.7003351,19.7108273 0,-3.827227 q 1.883062,-0.660288 3.399294,-1.92584 1.516231,-1.265553 2.518901,-3.014094 1.638509,-2.873477 1.393955,-6.199374 -2.188754,0.953751 -2.641178,1.124937 -0.330147,0.134502 -0.44631,0 -0.116163,-0.134504 -0.03057,-0.513558 l 1.773014,-7.5321774 q 0.122276,-0.4891025 0.586928,-0.2200962 l 6.859725,3.8639086 q 0.256782,0.146731 0.262895,0.366827 0.0061,0.220096 -0.201756,0.293461 l -2.628951,1.112708 q 0.391286,2.494423 -0.06725,4.939935 -0.458538,2.445512 -1.669077,4.585335 -1.41841,2.494423 -3.704985,4.297988 -2.286576,1.803565 -5.172308,2.586129 -0.03668,0.01223 -0.116162,0.03057 -0.07948,0.01834 -0.116163,0.03057 z"
     id="path2989"
     inkscape:connector-curvature="0" />
</svg>
