<?xml version="1.0" encoding="UTF-8" standalone="no"?>
<svg
   xmlns:dc="http://purl.org/dc/elements/1.1/"
   xmlns:cc="http://creativecommons.org/ns#"
   xmlns:rdf="http://www.w3.org/1999/02/22-rdf-syntax-ns#"
   xmlns:svg="http://www.w3.org/2000/svg"
   xmlns="http://www.w3.org/2000/svg"
   xmlns:sodipodi="http://sodipodi.sourceforge.net/DTD/sodipodi-0.dtd"
   xmlns:inkscape="http://www.inkscape.org/namespaces/inkscape"
   version="1.1"
   width="32px"
   height="32px"
   id="svg2985"
   inkscape:version="0.91 r13725"
   sodipodi:docname="router.svg">
  <metadata
     id="metadata2995">
    <rdf:RDF>
      <cc:Work
         rdf:about="">
        <dc:format>image/svg+xml</dc:format>
        <dc:type
           rdf:resource="http://purl.org/dc/dcmitype/StillImage" />
      </cc:Work>
    </rdf:RDF>
  </metadata>
  <defs
     id="defs2993" />
  <sodipodi:namedview
     pagecolor="#ffffff"
     bordercolor="#666666"
     borderopacity="1"
     objecttolerance="10"
     gridtolerance="10"
     guidetolerance="10"
     inkscape:pageopacity="0"
     inkscape:pageshadow="2"
     inkscape:window-width="1920"
     inkscape:window-height="1028"
     id="namedview2991"
     showgrid="false"
     inkscape:zoom="7.375"
     inkscape:cx="-0.20338983"
     inkscape:cy="16"
     inkscape:window-x="-8"
     inkscape:window-y="-8"
     inkscape:window-maximized="1"
     inkscape:current-layer="svg2985" />
  <g
     id="g2987"
     transform="matrix(0.01185185,0,0,-0.01185185,3.0925926,32.622222)" />
  <path
     d="M 0,7.8696297 Q 0,5.925926 0.7111111,4.1600001 1.4222222,2.3940741 2.7022222,1.0192593 l 1.682963,1.6711111 q -2.0148148,2.2281482 -2.0148148,5.1792593 0,1.682963 0.6933333,3.1822223 0.6933333,1.499259 1.9140741,2.577778 L 3.3066667,15.312593 Q 1.7540741,13.890371 0.877037,11.964444 0,10.038519 0,7.8696297 Z m 3.5555556,19.5555553 0,-3.555555 q 0,-0.485926 0.3496296,-0.835556 0.3496296,-0.349629 0.8355555,-0.349629 l 3.5555553,0 0,-5.925926 1.185185,-4.740741 0,-4.7407409 q 0,-0.5688889 0.592593,-0.5688889 0.272593,0 0.420741,0.1422222 0.148148,0.1422223 0.16,0.2844445 l 0.01185,0.1422222 0,4.7407409 1.185185,4.740741 0,5.925926 18.962963,0 q 0.485926,0 0.835555,0.349629 Q 32,23.383704 32,23.86963 l 0,3.555555 q 0,0.971852 -0.699259,1.671112 -0.69926,0.699259 -1.671111,0.699259 l 0,1.185185 -23.7037041,0 0,-1.185185 q -0.9718518,0 -1.6711111,-0.699259 -0.6992592,-0.69926 -0.6992592,-1.671112 z m 1.92,-19.5555554 q 0,-1.6711111 1.114074,-2.9748147 L 8.260741,6.5777778 q -0.414815,0.5807408 -0.414815,1.2918519 0,0.5807407 0.272593,1.0785185 0.272592,0.4977778 0.746666,0.7940741 L 7.1822222,11.425185 Q 6.3881481,10.773333 5.9318519,9.8488889 5.4755556,8.9244445 5.4755556,7.8696297 Z m 5.8074074,1.8725927 q 0.474074,-0.2962963 0.752593,-0.7940741 0.278518,-0.4977778 0.278518,-1.0785186 0,-0.6874073 -0.426667,-1.2918519 l 1.671112,-1.6829628 q 1.125925,1.3155555 1.125925,2.9748147 0,1.0548148 -0.462222,1.9792593 Q 13.76,10.773333 12.965926,11.425185 Z M 15.17037,13.62963 q 1.220741,-1.078519 1.914074,-2.577778 0.693334,-1.4992594 0.693334,-3.1822224 0,-2.9511111 -2.014815,-5.1792592 L 17.434074,1.0192592 Q 18.725926,2.3940741 19.437037,4.16 q 0.711111,1.7659259 0.711111,3.7096296 0,2.1688894 -0.877037,4.0948144 -0.877037,1.925927 -2.42963,3.348149 z m 0.237037,12.61037 1.185186,0 0,-1.185185 -1.185186,0 0,1.185185 z m 2.370371,0 1.185185,0 0,-1.185185 -1.185185,0 0,1.185185 z m 2.37037,0 1.185185,0 0,-1.185185 -1.185185,0 0,1.185185 z m 2.370371,0 1.185185,0 0,-1.185185 -1.185185,0 0,1.185185 z m 3.555555,1.185185 2.37037,0 0,-2.37037 -2.37037,0 0,2.37037 z"
     id="path2989"
     inkscape:connector-curvature="0" />
</svg>
