<?xml version="1.0" encoding="UTF-8" standalone="no"?>
<svg
   xmlns:dc="http://purl.org/dc/elements/1.1/"
   xmlns:cc="http://creativecommons.org/ns#"
   xmlns:rdf="http://www.w3.org/1999/02/22-rdf-syntax-ns#"
   xmlns:svg="http://www.w3.org/2000/svg"
   xmlns="http://www.w3.org/2000/svg"
   xmlns:sodipodi="http://sodipodi.sourceforge.net/DTD/sodipodi-0.dtd"
   xmlns:inkscape="http://www.inkscape.org/namespaces/inkscape"
   version="1.1"
   width="32px"
   height="32px"
   id="svg2985"
   inkscape:version="0.91 r13725"
   sodipodi:docname="rugby.svg">
  <metadata
     id="metadata2995">
    <rdf:RDF>
      <cc:Work
         rdf:about="">
        <dc:format>image/svg+xml</dc:format>
        <dc:type
           rdf:resource="http://purl.org/dc/dcmitype/StillImage" />
      </cc:Work>
    </rdf:RDF>
  </metadata>
  <defs
     id="defs2993" />
  <sodipodi:namedview
     pagecolor="#ffffff"
     bordercolor="#666666"
     borderopacity="1"
     objecttolerance="10"
     gridtolerance="10"
     guidetolerance="10"
     inkscape:pageopacity="0"
     inkscape:pageshadow="2"
     inkscape:window-width="1920"
     inkscape:window-height="1028"
     id="namedview2991"
     showgrid="false"
     inkscape:zoom="7.375"
     inkscape:cx="-0.20338983"
     inkscape:cy="16"
     inkscape:window-x="-8"
     inkscape:window-y="-8"
     inkscape:window-maximized="1"
     inkscape:current-layer="svg2985" />
  <g
     id="g2987"
     transform="matrix(0.01405192,0,0,-0.01405163,-3.2746076,34.30033)" />
  <path
     d="m 0.09836347,27.003676 q -0.2950903,-2.487139 0.2950903,-5.67686 2.71202063,1.925074 4.96032783,4.173335 2.7541755,2.75412 5.0024824,6.112461 Q 7.2507911,32.146573 4.8479124,31.844464 2.4450342,31.542353 1.4332959,30.530636 0.39345377,29.490816 0.09836347,27.003676 Z M 1.7705421,16.619519 q 2.0656321,-5.25531 5.831546,-9.0070969 3.6113429,-3.6112703 8.5576189,-5.6206528 3.962643,2.4590348 7.124324,5.6206528 1.700283,1.6861961 3.245994,3.6955809 1.545711,2.009381 2.220203,3.084331 0.674492,1.074951 1.124154,1.903997 -2.023477,4.665143 -5.466197,8.093742 -3.864278,3.864198 -9.386683,5.943841 -2.627709,-4.524627 -6.3093119,-8.192104 -3.07737,-3.063255 -6.941648,-5.522291 z m 4.187472,-5.114794 q 0,0.379394 0.29509,0.702583 l 1.222517,1.22249 -0.758803,0.772839 q -0.281039,0.281034 -0.281039,0.695557 0,0.414523 0.281039,0.695556 0.29509,0.295084 0.688544,0.295084 0.407505,0 0.702595,-0.295084 l 0.758804,-0.772841 1.2365689,1.236545 q 0.281038,0.281032 0.688544,0.281032 0.421557,0 0.702596,-0.281032 0.281038,-0.309136 0.281038,-0.702582 0,-0.407497 -0.281038,-0.68853 l -1.222517,-1.236544 1.405192,-1.419213 1.236569,1.236542 q 0.281038,0.281032 0.688544,0.281032 0.421557,0 0.702596,-0.281032 0.281038,-0.309137 0.281038,-0.702581 0,-0.407497 -0.281038,-0.68853 l -1.222517,-1.236544 1.405192,-1.4192145 1.236569,1.2365435 q 0.281038,0.281033 0.688544,0.281033 0.421557,0 0.702596,-0.281033 0.281039,-0.309137 0.281039,-0.7025821 0,-0.4074973 -0.281039,-0.688529 l -1.222517,-1.236545 0.829063,-0.8290465 q 0.281038,-0.2810327 0.281038,-0.6885302 0,-0.421549 -0.281038,-0.7025817 -0.309142,-0.2810326 -0.702596,-0.2810326 -0.407506,0 -0.688544,0.2810326 L 14.487529,6.4180331 13.265012,5.1955408 q -0.266987,-0.2950844 -0.702596,-0.2950844 -0.421558,0 -0.688544,0.2950844 -0.295091,0.2950843 -0.295091,0.6885301 0,0.3793942 0.295091,0.7025818 l 1.222517,1.2224922 -1.419244,1.419216 -1.222517,-1.2224933 Q 10.187641,7.7107842 9.7520321,7.7107842 q -0.421558,0 -0.688544,0.2950834 -0.29509,0.2950849 -0.29509,0.6885305 0,0.3793938 0.29509,0.7025822 l 1.2225169,1.2224917 -1.4192439,1.419215 -1.222517,-1.222492 q -0.281038,-0.295084 -0.702596,-0.295084 -0.421557,0 -0.688544,0.295084 -0.29509,0.295085 -0.29509,0.68853 z M 22.019359,0.31962459 q 2.979007,-0.4637039 5.283521,-0.1405158 2.304515,0.3231876 3.274097,1.29275061 1.011739,1.0117163 1.313855,3.4075201 0.302116,2.3958032 -0.231857,5.5012145 Q 29.410668,7.0222533 26.656492,4.2681328 24.59086,2.2025438 22.019359,0.31962459 Z"
     id="path2989"
     inkscape:connector-curvature="0" />
</svg>
