<?xml version="1.0" encoding="UTF-8" standalone="no"?>
<svg
   xmlns:dc="http://purl.org/dc/elements/1.1/"
   xmlns:cc="http://creativecommons.org/ns#"
   xmlns:rdf="http://www.w3.org/1999/02/22-rdf-syntax-ns#"
   xmlns:svg="http://www.w3.org/2000/svg"
   xmlns="http://www.w3.org/2000/svg"
   xmlns:sodipodi="http://sodipodi.sourceforge.net/DTD/sodipodi-0.dtd"
   xmlns:inkscape="http://www.inkscape.org/namespaces/inkscape"
   version="1.1"
   width="32px"
   height="32px"
   id="svg2985"
   inkscape:version="0.91 r13725"
   sodipodi:docname="ruller.svg">
  <metadata
     id="metadata2995">
    <rdf:RDF>
      <cc:Work
         rdf:about="">
        <dc:format>image/svg+xml</dc:format>
        <dc:type
           rdf:resource="http://purl.org/dc/dcmitype/StillImage" />
      </cc:Work>
    </rdf:RDF>
  </metadata>
  <defs
     id="defs2993" />
  <sodipodi:namedview
     pagecolor="#ffffff"
     bordercolor="#666666"
     borderopacity="1"
     objecttolerance="10"
     gridtolerance="10"
     guidetolerance="10"
     inkscape:pageopacity="0"
     inkscape:pageshadow="2"
     inkscape:window-width="1920"
     inkscape:window-height="1028"
     id="namedview2991"
     showgrid="false"
     inkscape:zoom="7.375"
     inkscape:cx="-0.20338983"
     inkscape:cy="16"
     inkscape:window-x="-8"
     inkscape:window-y="-8"
     inkscape:window-maximized="1"
     inkscape:current-layer="svg2985" />
  <g
     id="g2987"
     transform="matrix(0.01185185,0,0,-0.01185185,0.72222222,38.407407)" />
  <path
     d="m 0,23.703703 0,-15.9999993 1.1851852,0 0,11.8518513 1.1851852,0 0,-11.8518513 1.1851852,0 0,7.1111113 1.1851851,0 0,-7.1111113 1.1851852,0 0,7.1111113 1.1851852,0 0,-7.1111113 1.1851849,0 0,7.1111113 1.185185,0 0,-7.1111113 1.185186,0 0,7.1111113 1.185185,0 0,-7.1111113 1.185185,0 0,11.8518513 1.185185,0 0,-11.8518513 1.185185,0 0,7.1111113 1.185186,0 0,-7.1111113 1.185185,0 0,7.1111113 1.185185,0 0,-7.1111113 1.185185,0 0,7.1111113 1.185185,0 0,-7.1111113 1.185186,0 0,7.1111113 1.185185,0 0,-7.1111113 1.185185,0 0,11.8518513 1.185185,0 0,-11.8518513 1.185185,0 0,7.1111113 1.185185,0 0,-7.1111113 1.185186,0 0,7.1111113 1.185185,0 0,-7.1111113 1.185185,0 0,15.9999993 q 0,0.248889 -0.171852,0.420741 -0.171852,0.171852 -0.420741,0.171852 l -30.8148144,0 q -0.2488889,0 -0.4207407,-0.171852 Q 0,23.952592 0,23.703703 Z"
     id="path2989"
     inkscape:connector-curvature="0" />
</svg>
