<?xml version="1.0" encoding="UTF-8" standalone="no"?>
<svg
   xmlns:dc="http://purl.org/dc/elements/1.1/"
   xmlns:cc="http://creativecommons.org/ns#"
   xmlns:rdf="http://www.w3.org/1999/02/22-rdf-syntax-ns#"
   xmlns:svg="http://www.w3.org/2000/svg"
   xmlns="http://www.w3.org/2000/svg"
   xmlns:sodipodi="http://sodipodi.sourceforge.net/DTD/sodipodi-0.dtd"
   xmlns:inkscape="http://www.inkscape.org/namespaces/inkscape"
   version="1.1"
   width="32px"
   height="32px"
   id="svg2985"
   inkscape:version="0.91 r13725"
   sodipodi:docname="sampler.svg">
  <metadata
     id="metadata2995">
    <rdf:RDF>
      <cc:Work
         rdf:about="">
        <dc:format>image/svg+xml</dc:format>
        <dc:type
           rdf:resource="http://purl.org/dc/dcmitype/StillImage" />
      </cc:Work>
    </rdf:RDF>
  </metadata>
  <defs
     id="defs2993" />
  <sodipodi:namedview
     pagecolor="#ffffff"
     bordercolor="#666666"
     borderopacity="1"
     objecttolerance="10"
     gridtolerance="10"
     guidetolerance="10"
     inkscape:pageopacity="0"
     inkscape:pageshadow="2"
     inkscape:window-width="1920"
     inkscape:window-height="1028"
     id="namedview2991"
     showgrid="false"
     inkscape:zoom="7.375"
     inkscape:cx="-0.20338983"
     inkscape:cy="16"
     inkscape:window-x="-8"
     inkscape:window-y="-8"
     inkscape:window-maximized="1"
     inkscape:current-layer="svg2985" />
  <g
     id="g2987"
     transform="matrix(0.0120024,0,0,-0.01200262,0.67773439,34.232907)" />
  <path
     d="m 5.188879e-6,22.347678 q 0,-0.150033 0.018004001121,-0.414091 0.018004,-0.264057 0.066013,-0.420091 0.04801,-0.156035 0.1380276,-0.354078 0.090018,-0.198043 0.2220445,-0.306067 0.1320264,-0.108023 0.3360672,-0.186041 0.2040407,-0.07802 0.46809361,-0.07802 l 1.6443288,0 8.2216441,0 14.102819,0 q 0.34807,0 0.594119,0.144032 0.24605,0.144031 0.360072,0.312068 0.114023,0.168036 0.174035,0.510112 0.06001,0.342075 0.06601,0.528115 0.006,0.186041 0.006,0.570125 l 0,0.192042 0,3.564782 q 0,0.108023 0.018,0.510112 0.018,0.402088 0,0.600131 -0.018,0.198043 -0.07201,0.510112 -0.05401,0.312067 -0.210042,0.516113 -0.156031,0.204045 -0.408082,0.32407 -0.288057,0.144032 -0.732146,0.120027 l -0.408082,0 -16.7433476,0 -6.3372672,0 -0.2280455,0 q -0.1560313,0 -0.2280457,-0.012 -0.55211031,-0.06001 -0.80416081,-0.474104 -0.2520504,-0.41409 -0.2520504,-1.002219 l 0,-4.33295 q 0,-0.108023 -0.006,-0.390085 Q 3.788879e-6,22.497711 3.788879e-6,22.347678 Z M 1.8363724,15.488174 q 0,-0.168036 0.012002,-0.288062 0.012002,-0.120027 0.090018,-0.312069 0.078016,-0.192042 0.1260253,-0.294063 0.04801,-0.102022 0.180036,-0.300066 0.1320264,-0.198044 0.1860371,-0.276062 0.054011,-0.07802 0.1980396,-0.276059 0.1440288,-0.198044 0.180036,-0.246054 1.3082617,-1.812397 2.2924585,-3.144689 0.024005,-0.03601 0.210042,-0.294065 0.1860372,-0.2580558 0.2820564,-0.3780825 0.3240648,-0.4440968 0.8761752,-0.4440968 0.4440889,0 0.8281656,0.2880625 l 1.3322673,0.9722138 12.0744146,8.893948 -6.313262,0 -6.2892586,0 -1.2362476,0 q -0.024005,0 -0.1500301,0.012 -0.1260252,0.012 -0.1980396,0.012 -0.120024,0 -0.1440288,-0.024 Q 6.0012054,19.11297 5.2810612,18.560849 L 2.3524757,16.328359 Q 2.1844421,16.208332 2.0764205,16.064301 1.9683988,15.92027 1.9023856,15.788241 1.8363724,15.656211 1.8363724,15.488174 Z M 11.150235,6.1021182 q 0.012,-0.2280499 0.07201,-0.4741039 0.06001,-0.2460538 0.252051,-0.4200919 0.192038,-0.174038 0.504101,-0.2700591 0.708141,-0.2280499 2.016403,-0.6661458 1.308261,-0.438096 1.716343,-0.5701249 0.09602,-0.024005 0.630126,-0.2280499 0.534106,-0.2040447 0.936187,-0.3120684 0.40208,-0.1080241 0.75015,-0.1080241 0.864173,0 1.116223,0.7801708 0.384077,1.1522523 0.564113,1.7163758 L 24.424885,19.84513 q -1.176234,-0.86419 -1.764352,-1.284281 l 0.012,0.012 -2.316464,-1.69237 0.132026,0.09602 q -5.137028,-3.720814 -7.70554,-5.593224 L 11.738353,8.1785741 Q 11.690343,8.0465452 11.564318,7.7224742 11.438293,7.3984021 11.372279,7.188356 11.306269,6.97831 11.222249,6.6542391 11.138229,6.3301681 11.150239,6.1021182 Z m 9.265853,18.6880938 q 0,0.744163 0.528106,1.27228 0.528105,0.528116 1.272254,0.528116 0.744149,0 1.272255,-0.528116 0.528104,-0.528117 0.528104,-1.27228 0,-0.744163 -0.528104,-1.272277 -0.528106,-0.528116 -1.272255,-0.528116 -0.744149,0 -1.272254,0.528116 -0.528106,0.528114 -0.528106,1.272277 z m 0.07201,-7.81371 0.360072,0.264058 Q 20.78816,17.19255 20.668134,17.10253 20.54811,17.01251 20.488098,16.976502 Z M 22.432487,8.6586791 Q 22.732548,7.7224742 22.960593,6.9903127 L 23.680737,4.721816 q 0.03601,-0.09602 0.102021,-0.3420749 0.06601,-0.2460539 0.114023,-0.3900855 0.04801,-0.1440314 0.144027,-0.3300721 0.09602,-0.1860408 0.204041,-0.3060671 0.336067,-0.3480763 0.816163,-0.3480763 0.360072,0 0.840168,0.1680368 1.104221,0.3360737 1.968394,0.6241367 l 3.324666,1.0562313 q 0.30006,0.096022 0.486097,0.2640578 0.186037,0.1680368 0.246049,0.4080894 0.06001,0.2400525 0.07201,0.4681024 0.012,0.2280499 -0.06601,0.5401183 -0.07802,0.3120683 -0.144029,0.5221143 -0.06601,0.2100461 -0.186037,0.5221155 -0.120024,0.3120684 -0.156031,0.4440973 -1.512303,4.7770461 -4.560913,14.3311391 -1.80036,-5.509206 -4.092817,-12.4347243 -0.02401,-0.060013 -0.156032,-0.3600789 -0.132026,-0.300065 -0.192038,-0.5281146 -0.06001,-0.2280509 -0.012,-0.3720821 z m 0.240049,9.9141729 0.08402,0.06001 z"
     id="path2989"
     inkscape:connector-curvature="0" />
</svg>
