<?xml version="1.0" encoding="UTF-8" standalone="no"?>
<svg
   xmlns:dc="http://purl.org/dc/elements/1.1/"
   xmlns:cc="http://creativecommons.org/ns#"
   xmlns:rdf="http://www.w3.org/1999/02/22-rdf-syntax-ns#"
   xmlns:svg="http://www.w3.org/2000/svg"
   xmlns="http://www.w3.org/2000/svg"
   xmlns:sodipodi="http://sodipodi.sourceforge.net/DTD/sodipodi-0.dtd"
   xmlns:inkscape="http://www.inkscape.org/namespaces/inkscape"
   version="1.1"
   width="32px"
   height="32px"
   id="svg2"
   inkscape:version="0.91 r13725"
   sodipodi:docname="sand_glass.svg">
  <metadata
     id="metadata12">
    <rdf:RDF>
      <cc:Work
         rdf:about="">
        <dc:format>image/svg+xml</dc:format>
        <dc:type
           rdf:resource="http://purl.org/dc/dcmitype/StillImage" />
        <dc:title />
      </cc:Work>
    </rdf:RDF>
  </metadata>
  <defs
     id="defs10" />
  <sodipodi:namedview
     pagecolor="#ffffff"
     bordercolor="#666666"
     borderopacity="1"
     objecttolerance="10"
     gridtolerance="10"
     guidetolerance="10"
     inkscape:pageopacity="0"
     inkscape:pageshadow="2"
     inkscape:window-width="1920"
     inkscape:window-height="1028"
     id="namedview8"
     showgrid="false"
     inkscape:zoom="7.375"
     inkscape:cx="3.2481356"
     inkscape:cy="16"
     inkscape:window-x="-8"
     inkscape:window-y="-8"
     inkscape:window-maximized="1"
     inkscape:current-layer="svg2" />
  <g
     id="g4"
     transform="matrix(0.01333333,0,0,-0.01333333,-3.3333335,22.666668)" />
  <path
     inkscape:connector-curvature="0"
     style="fill:#030303"
     d="M 11.580668,31.94904 C 7.5213124,31.715942 4.3312166,31.094857 2.8402134,30.247328 1.5303124,29.502756 1.2468162,28.8323 1.3646734,26.758234 c 0.1119272,-1.968808 0.38874,-2.76956 1.2891687,-3.729296 0.5573753,-0.59408 2.088502,-1.796364 2.9436313,-2.311449 l 0.606656,-0.365417 0.749676,0.01908 c 0.412311,0.01027 0.768973,0.03108 0.79264,0.04572 0.02367,0.01475 -0.536193,0.420971 -1.243954,0.902788 -3.4709513,2.36291 -3.7145646,2.68835 -3.8496236,5.142061 -0.1465508,2.663609 0.1682686,3.105847 2.6934186,3.782818 2.921318,0.783198 7.9423256,1.157485 13.0756366,0.974685 3.798846,-0.135315 6.46665,-0.458435 8.426914,-1.020743 1.261606,-0.361895 1.711411,-0.57537 2.06581,-0.980375 0.450706,-0.514993 0.52117,-0.974056 0.428926,-2.793516 -0.06861,-1.353645 -0.125146,-1.714387 -0.331497,-2.114374 -0.384079,-0.744479 -1.375556,-1.588055 -3.662059,-3.115882 l -1.165746,-0.779005 0.524846,-0.02365 c 0.28868,-0.01307 0.591099,-0.05783 0.672078,-0.09965 0.220849,-0.113947 0.669073,0.116346 1.826713,0.938798 2.972849,2.112124 3.568452,3.225435 3.433699,6.418802 -0.0526,1.246547 -0.07344,1.341884 -0.374463,1.716559 -1.045711,1.301379 -3.594077,2.060419 -8.318001,2.477572 -1.59144,0.14056 -8.527798,0.211018 -10.368245,0.105374 z m 1.192785,-2.420386 C 11.313021,29.441004 9.3082884,29.23614 8.1811444,29.059363 6.5837754,28.80877 4.9082033,28.41437 4.8176785,28.26773 4.7154292,28.101994 5.5974004,27.363926 6.3314464,27.000874 c 0.832532,-0.411702 1.67881,-0.717758 4.3544916,-1.574695 3.88629,-1.244569 4.32497,-1.436443 4.948144,-2.163458 l 0.39355,-0.459212 0.175466,0.215497 c 0.812554,0.997781 0.953091,1.060524 6.05305,2.703059 2.872876,0.925301 3.576583,1.230924 4.493384,1.95178 0.735701,0.578412 0.642485,0.670172 -1.060955,1.044365 -2.825324,0.62065 -5.667996,0.864398 -9.873381,0.846649 -1.443304,-0.0057 -2.81203,-0.02228 -3.041584,-0.03611 z M 6.9289344,19.869959 c 0,-0.08572 0.406687,-0.308228 0.563231,-0.308228 0.239549,0 0.266673,0.219016 0.03656,0.295645 -0.274927,0.09155 -0.599813,0.0984 -0.599813,0.01267 z m 17.1023216,-0.04503 c -0.166081,-0.269269 0.480228,-0.368457 0.830801,-0.127546 0.290924,0.199919 0.24834,0.235269 -0.283422,0.235269 -0.310379,0 -0.504406,-0.03817 -0.547306,-0.107774 z M 8.5991014,19.714409 c 0,-0.0384 0.05376,-0.09052 0.11928,-0.11568 0.06559,-0.02525 0.119293,0.0057 0.119293,0.06983 0,0.06365 -0.05375,0.11568 -0.119293,0.11568 -0.06559,0 -0.11928,-0.03143 -0.11928,-0.06983 z M 22.809845,19.262433 c -0.15489,-0.08023 -0.352608,-0.14592 -0.439288,-0.14592 -0.08673,0 -0.563534,-0.275772 -1.059529,-0.612879 -1.722005,-1.170216 -2.573236,-2.008204 -2.573236,-2.533037 0,-0.636457 0.881583,-1.360925 5.018839,-4.124453 5.558174,-3.7125999 5.5783,-3.7356972 5.590242,-6.398642 0.0063,-1.3292895 -0.01792,-1.5393922 -0.17427,-1.5393922 -0.09963,0 -0.73037,0.1644799 -1.401547,0.3655654 C 24.537924,5.2421381 20.242477,5.6819663 14.92054,5.589429 10.256645,5.508401 6.8868734,5.083544 4.157626,4.2327908 2.537483,3.7276714 2.6344612,3.6614201 2.6344612,5.2740581 c 0,1.9652424 0.2195704,2.559745 1.2903733,3.4932982 0.5005839,0.4365012 1.6830839,1.3020557 2.6351289,1.9288767 4.9510686,3.259859 5.9786766,4.00892 6.5403286,4.768107 0.2231,0.301624 0.271333,0.457716 0.21056,0.681601 -0.142355,0.524159 -1.136154,1.413632 -2.759523,2.469619 l -0.7697276,0.50072 -0.844769,0 c -0.999071,0 -1.084327,0.11756 0.830646,-1.144421 1.5803256,-1.041462 2.2901066,-1.662067 2.2901066,-2.002501 0,-0.501738 -0.566763,-0.910365 -6.8507159,-4.939388 C 3.070145,9.659972 2.3700525,8.9874936 1.8660116,7.8211751 1.4828342,6.9344446 1.2778362,5.402961 1.3464238,3.9382083 1.3909478,2.9860953 1.4241572,2.8560841 1.718182,2.4822789 2.642423,1.3073892 5.2131757,0.57245277 9.6911614,0.20308197 c 2.8775996,-0.2373369 8.2639136,-0.2723997 11.4850996,-0.074743 5.517684,0.3387082 8.635964,1.22413573 9.325246,2.64775653 0.198314,0.409828 0.224977,2.8311278 0.04212,3.8237436 -0.22378,1.2146383 -0.89676,2.3513902 -1.857658,3.13763 -0.406162,0.3323309 -1.778186,1.2436559 -6.19097,4.1120159 -1.829258,1.189016 -2.492996,1.751804 -2.492996,2.113793 0,0.351142 0.633464,0.900674 2.421257,2.100307 l 1.478997,0.992375 -0.345766,0.175863 c -0.417435,0.212261 -0.397154,0.211451 -0.746672,0.03028 z M 20.10944,4.6882758 c 2.443048,-0.1712796 4.429385,-0.4378392 6.166557,-0.8276103 0.991552,-0.2224911 1.310647,-0.333931 1.855031,-0.6481819 0.311509,-0.1797597 0.387683,-0.2814625 0.387683,-0.5174507 0,-0.5996221 -1.354898,-1.0820213 -4.064542,-1.4471524 C 20.597033,0.72786967 13.616652,0.64102407 9.2551724,1.0584636 6.5279584,1.3195377 4.5274985,1.7530913 3.8577556,2.2283021 3.1209964,2.7511129 3.4685649,3.2046778 4.9427537,3.6441058 c 1.4692967,0.4379422 4.6014787,0.9009589 7.2347923,1.069393 1.69571,0.1084573 6.228455,0.093943 7.932051,-0.0256 z M 15.954016,16.371609 c -0.04065,-0.142821 -0.159407,-0.560078 -0.263968,-0.927325 -0.331415,-1.164193 -0.386174,-1.213426 -4.44133,-3.98828 C 8.7265764,9.7300854 7.1675824,8.6161457 7.1675824,8.539859 c 0,-0.019773 0.38919,0.09612 0.864759,0.2574519 1.838424,0.6237812 4.1153916,1.0959518 6.0919546,1.2634721 2.98142,0.252627 6.274652,-0.1372337 9.40052,-1.1129814 0.644807,-0.201268 1.204728,-0.3658959 1.244247,-0.3658959 0.147157,0 -0.998844,0.8307864 -3.664835,2.6568633 -4.472434,3.063355 -4.458679,3.050339 -4.86792,4.601355 -0.174126,0.65985 -0.220996,0.748 -0.282596,0.53144 z"
     id="path19" />
</svg>
