<?xml version="1.0" encoding="UTF-8" standalone="no"?>
<svg
   xmlns:dc="http://purl.org/dc/elements/1.1/"
   xmlns:cc="http://creativecommons.org/ns#"
   xmlns:rdf="http://www.w3.org/1999/02/22-rdf-syntax-ns#"
   xmlns:svg="http://www.w3.org/2000/svg"
   xmlns="http://www.w3.org/2000/svg"
   xmlns:sodipodi="http://sodipodi.sourceforge.net/DTD/sodipodi-0.dtd"
   xmlns:inkscape="http://www.inkscape.org/namespaces/inkscape"
   version="1.1"
   width="32px"
   height="32px"
   id="svg2985"
   inkscape:version="0.91 r13725"
   sodipodi:docname="scissors.svg">
  <metadata
     id="metadata2995">
    <rdf:RDF>
      <cc:Work
         rdf:about="">
        <dc:format>image/svg+xml</dc:format>
        <dc:type
           rdf:resource="http://purl.org/dc/dcmitype/StillImage" />
      </cc:Work>
    </rdf:RDF>
  </metadata>
  <defs
     id="defs2993" />
  <sodipodi:namedview
     pagecolor="#ffffff"
     bordercolor="#666666"
     borderopacity="1"
     objecttolerance="10"
     gridtolerance="10"
     guidetolerance="10"
     inkscape:pageopacity="0"
     inkscape:pageshadow="2"
     inkscape:window-width="1920"
     inkscape:window-height="1028"
     id="namedview2991"
     showgrid="false"
     inkscape:zoom="7.375"
     inkscape:cx="-0.20338983"
     inkscape:cy="16"
     inkscape:window-x="-8"
     inkscape:window-y="-8"
     inkscape:window-maximized="1"
     inkscape:current-layer="svg2985" />
  <g
     id="g2987"
     transform="matrix(0.01185159,0,0,-0.01185185,-3.2628495,31.277778)" />
  <path
     d="M 2.8712802,8.082963 Q 2.8357253,7.1703704 3.0075735,6.4592593 3.1794217,5.7481481 3.369047,5.2088889 3.5586725,4.6696296 3.7245949,4.3851852 L 3.8905172,4.0888889 13.549566,13.973333 13.549566,0 q 0.118518,0.023704 0.331844,0.082963 0.213329,0.059259 0.829612,0.32 0.616282,0.2607407 1.179233,0.6162963 0.56295,0.3555555 1.244416,1.0251851 0.681468,0.6696297 1.173309,1.4933334 0.491841,0.8237037 0.829612,2.0681481 0.33777,1.2444445 0.33777,2.6903704 l 0,4.7407407 -1.8607,4.788148 1.908107,1.671111 q 0.296289,-0.912592 0.936276,-1.576296 1.161455,-1.161481 3.01623,-1.078519 1.854774,0.08296 3.134746,1.362963 l 1.114049,1.114075 q 1.291824,1.268148 1.398488,3.057777 0.130368,1.825185 -1.125901,3.081482 -1.137752,1.137778 -2.820679,1.137778 -0.924425,0 -1.801443,-0.367408 -0.877018,-0.367407 -1.552558,-1.042963 l -4.503605,-4.420741 -0.853315,-0.296296 -0.545172,0.734815 0,6.257778 q 0,1.872592 -1.214789,3.205926 Q 13.490308,32 11.771826,32 10.053346,32 8.838557,30.666667 7.623769,29.333333 7.623769,27.460741 l 0,-1.576297 q 0,-1.884444 1.214788,-3.217777 1.214789,-1.333334 2.933269,-1.333334 0.557025,0 1.167382,0.130371 0.610358,0.13037 0.610358,0.32 l 0,-2.370371 -4.68138,-1.908148 Q 8.192645,16.651852 5.6801078,14.151111 4.6490192,13.12 3.9971815,12.011852 3.3453438,10.903704 3.1260894,9.9496296 2.9068349,8.9955556 2.8712802,8.082963 Z M 9.994088,27.460741 q 0,0.877037 0.527396,1.522963 0.527395,0.645926 1.250342,0.645926 0.722947,0 1.250343,-0.645926 0.527397,-0.645926 0.527397,-1.522963 l 0,-1.576297 q 0,-0.888888 -0.527397,-1.534814 -0.527396,-0.645926 -1.250343,-0.645926 -0.722947,0 -1.250342,0.645926 -0.527396,0.645926 -0.527396,1.534814 l 0,1.576297 z m 11.709374,-6.601482 q 0.05926,0.877037 0.711095,1.528889 l 1.125901,1.114074 q 0.699245,0.722963 1.647371,0.722963 0.699244,0 1.137753,-0.438518 0.497767,-0.474074 0.438509,-1.268148 -0.05926,-0.877038 -0.711095,-1.528889 l -1.11405,-1.114074 q -0.722947,-0.722963 -1.659223,-0.722963 -0.699244,0 -1.137753,0.45037 -0.497766,0.474074 -0.438508,1.256296 z"
     id="path2989"
     inkscape:connector-curvature="0" />
</svg>
