<?xml version="1.0" encoding="UTF-8" standalone="no"?>
<svg
   xmlns:dc="http://purl.org/dc/elements/1.1/"
   xmlns:cc="http://creativecommons.org/ns#"
   xmlns:rdf="http://www.w3.org/1999/02/22-rdf-syntax-ns#"
   xmlns:svg="http://www.w3.org/2000/svg"
   xmlns="http://www.w3.org/2000/svg"
   xmlns:sodipodi="http://sodipodi.sourceforge.net/DTD/sodipodi-0.dtd"
   xmlns:inkscape="http://www.inkscape.org/namespaces/inkscape"
   version="1.1"
   width="32px"
   height="32px"
   id="svg2985"
   inkscape:version="0.91 r13725"
   sodipodi:docname="screenshot.svg">
  <metadata
     id="metadata2995">
    <rdf:RDF>
      <cc:Work
         rdf:about="">
        <dc:format>image/svg+xml</dc:format>
        <dc:type
           rdf:resource="http://purl.org/dc/dcmitype/StillImage" />
      </cc:Work>
    </rdf:RDF>
  </metadata>
  <defs
     id="defs2993" />
  <sodipodi:namedview
     pagecolor="#ffffff"
     bordercolor="#666666"
     borderopacity="1"
     objecttolerance="10"
     gridtolerance="10"
     guidetolerance="10"
     inkscape:pageopacity="0"
     inkscape:pageshadow="2"
     inkscape:window-width="1920"
     inkscape:window-height="1028"
     id="namedview2991"
     showgrid="false"
     inkscape:zoom="7.375"
     inkscape:cx="-23.322034"
     inkscape:cy="16"
     inkscape:window-x="-8"
     inkscape:window-y="-8"
     inkscape:window-maximized="1"
     inkscape:current-layer="svg2985" />
  <g
     id="g2987"
     transform="matrix(0.01185185,0,0,-0.01185185,0.72222222,31.277778)" />
  <path
     d="m 0,16 q 0,-0.237037 0.1718519,-0.414815 0.1718518,-0.177778 0.4207407,-0.177778 l 6.5540741,0 Q 7.2533333,13.783704 7.940741,12.308148 8.628148,10.832593 9.724444,9.7362963 10.820741,8.64 12.296296,7.9525926 13.771852,7.2651852 15.407407,7.1585185 l 0,-6.5659259 q 0,-0.2488889 0.171852,-0.4207407 Q 15.751111,0 16,0 q 0.248889,0 0.420741,0.1718519 0.171852,0.1718518 0.171852,0.4207407 l 0,6.5659259 q 2.18074,0.1422222 4.023703,1.2622222 1.842963,1.12 2.974815,2.9629633 1.131852,1.842963 1.285926,4.023703 l 6.53037,0 q 0.248889,0 0.420741,0.171852 Q 32,15.751111 32,16 q 0,0.248889 -0.171852,0.420741 -0.171852,0.171852 -0.420741,0.171852 l -6.53037,0 q -0.13037,2.192592 -1.262222,4.047407 -1.131852,1.854815 -2.980741,2.986667 -1.848889,1.131852 -4.041481,1.274074 l 0,6.506666 q 0,0.248889 -0.171852,0.420741 Q 16.248889,32 16,32 15.751111,32 15.579259,31.828148 15.407407,31.656296 15.407407,31.407407 l 0,-6.506666 q -1.635555,-0.106667 -3.117037,-0.8 Q 10.808889,23.407407 9.712593,22.305185 8.616296,21.202963 7.928889,19.715556 7.2414815,18.228148 7.1348148,16.592593 l -6.5422222,0 q -0.2488889,0 -0.4207407,-0.171852 Q 0,16.248889 0,16 Z m 8.32,0.592593 q 0.213333,2.844444 2.234074,4.871111 2.020741,2.026666 4.853333,2.24 l 0,-5.925926 1.185186,0 0,5.937778 q 1.872592,-0.142223 3.448888,-1.12 1.576297,-0.977778 2.548149,-2.554075 0.971851,-1.576296 1.102222,-3.448888 l -5.914074,0 0,-1.185186 5.914074,0 Q 23.454815,12.574815 21.434074,10.565926 19.413333,8.557037 16.592593,8.3437037 l 0,5.8785183 -1.185186,0 0,-5.8785183 q -2.82074,0.2251852 -4.835555,2.2340743 -2.014815,2.008889 -2.24,4.829629 l 5.89037,0 0,1.185186 -5.902222,0 z"
     id="path2989"
     inkscape:connector-curvature="0" />
</svg>
