<?xml version="1.0" encoding="UTF-8" standalone="no"?>
<!-- Created with Inkscape (http://www.inkscape.org/) -->

<svg
   xmlns:dc="http://purl.org/dc/elements/1.1/"
   xmlns:cc="http://creativecommons.org/ns#"
   xmlns:rdf="http://www.w3.org/1999/02/22-rdf-syntax-ns#"
   xmlns:svg="http://www.w3.org/2000/svg"
   xmlns="http://www.w3.org/2000/svg"
   xmlns:sodipodi="http://sodipodi.sourceforge.net/DTD/sodipodi-0.dtd"
   xmlns:inkscape="http://www.inkscape.org/namespaces/inkscape"
   width="32px"
   height="32px"
   id="svg2985"
   version="1.1"
   inkscape:version="0.91 r13725"
   sodipodi:docname="script.svg">
  <defs
     id="defs2987" />
  <sodipodi:namedview
     id="base"
     pagecolor="#ffffff"
     bordercolor="#666666"
     borderopacity="1.0"
     inkscape:pageopacity="0.0"
     inkscape:pageshadow="2"
     inkscape:zoom="31.672167"
     inkscape:cx="-2.4887246"
     inkscape:cy="21.146447"
     inkscape:current-layer="layer1"
     showgrid="false"
     inkscape:grid-bbox="true"
     inkscape:document-units="px"
     inkscape:window-width="1920"
     inkscape:window-height="1028"
     inkscape:window-x="-8"
     inkscape:window-y="-8"
     inkscape:window-maximized="1">
    <inkscape:grid
       type="xygrid"
       id="grid3050" />
  </sodipodi:namedview>
  <metadata
     id="metadata2990">
    <rdf:RDF>
      <cc:Work
         rdf:about="">
        <dc:format>image/svg+xml</dc:format>
        <dc:type
           rdf:resource="http://purl.org/dc/dcmitype/StillImage" />
        <dc:title />
      </cc:Work>
    </rdf:RDF>
  </metadata>
  <g
     id="layer1"
     inkscape:label="Layer 1"
     inkscape:groupmode="layer">
    <path
       style="fill:#000000;fill-opacity:1"
       d="m 24.6146,0.08164795 -0.01701,-0.00546 -19.893975,0 -0.3084342,0 -0.1275764,0.028571 C 1.8325519,0.32497715 0,3.0159701 0,6.285035 c 0,3.4132009 2.116964,6.129233 4.703614,6.129233 1.731984,0 3.199284,-1.259964 4.00964,-3.1044176 l -4.00964,0 c -1.2933237,0 -2.3903601,-1.3182111 -2.3903601,-3.0248154 0,-1.7066029 0.9949756,-3.1639526 2.2883001,-3.1639526 l 0.10206,-0.020067 2.698797,0 0.05103,0.071096 c 1.502455,1.3986095 2.41644,3.4072096 2.41644,5.6601367 0,2.2529299 -0.965014,4.2530239 -2.467469,5.6516329 -2.9456451,1.762888 -4.9349415,4.988186 -4.9349415,8.756049 0,3.767862 1.9892964,6.920994 4.9349415,8.683882 l 0,-0.0075 17.195178,0 2.698797,0 0.308434,0 0.07654,-0.02857 C 30.116419,31.667605 32,28.976612 32,25.707545 c 0,-3.413201 -2.116965,-6.129233 -4.703614,-6.129233 -1.731984,0 -3.199284,1.259964 -4.00964,3.104419 l 4.00964,0 c 1.293324,0 2.39036,1.31821 2.39036,3.024814 0,1.706603 -1.028995,3.163953 -2.322319,3.163953 l -0.06804,0.02007 -2.698797,0 -0.05954,-0.03707 c -1.502455,-1.398608 -2.407934,-3.441225 -2.407934,-5.694153 0,-2.252931 0.965015,-4.253024 2.467469,-5.651633 2.945645,-1.762891 4.934941,-4.988187 4.934941,-8.7560503 0,-3.767859 -1.972286,-6.9081103 -4.91793,-8.67100315 z m -14.050745,3.01936825 14.033734,0 c 1.502458,1.3986095 2.467472,3.3987046 2.467472,5.6516303 0,2.2529315 -0.965014,4.2530245 -2.467472,5.6516325 -2.945641,1.762891 -4.934939,4.988188 -4.934939,8.756051 0,2.150875 0.669147,4.105071 1.773493,5.731231 l -14.033732,0 c -1.50246,-1.398611 -2.467472,-3.398702 -2.467472,-5.65163 0,-2.252931 0.965012,-4.253024 2.467472,-5.651633 2.945641,-1.762891 4.934939,-4.988188 4.934939,-8.7560508 0,-2.150874 -0.669147,-4.1050719 -1.773495,-5.731231 z"
       id="path3043"
       inkscape:connector-curvature="0"
       sodipodi:nodetypes="cccccsscssccccscsccccccsscssccccscscccscsccscsc" />
  </g>
</svg>
