<?xml version="1.0" encoding="UTF-8" standalone="no"?>
<svg
   xmlns:dc="http://purl.org/dc/elements/1.1/"
   xmlns:cc="http://creativecommons.org/ns#"
   xmlns:rdf="http://www.w3.org/1999/02/22-rdf-syntax-ns#"
   xmlns:svg="http://www.w3.org/2000/svg"
   xmlns="http://www.w3.org/2000/svg"
   xmlns:sodipodi="http://sodipodi.sourceforge.net/DTD/sodipodi-0.dtd"
   xmlns:inkscape="http://www.inkscape.org/namespaces/inkscape"
   version="1.1"
   width="32px"
   height="32px"
   id="svg2985"
   inkscape:version="0.91 r13725"
   sodipodi:docname="scuba_diving.svg">
  <metadata
     id="metadata2995">
    <rdf:RDF>
      <cc:Work
         rdf:about="">
        <dc:format>image/svg+xml</dc:format>
        <dc:type
           rdf:resource="http://purl.org/dc/dcmitype/StillImage" />
      </cc:Work>
    </rdf:RDF>
  </metadata>
  <defs
     id="defs2993" />
  <sodipodi:namedview
     pagecolor="#ffffff"
     bordercolor="#666666"
     borderopacity="1"
     objecttolerance="10"
     gridtolerance="10"
     guidetolerance="10"
     inkscape:pageopacity="0"
     inkscape:pageshadow="2"
     inkscape:window-width="1920"
     inkscape:window-height="1028"
     id="namedview2991"
     showgrid="false"
     inkscape:zoom="7.375"
     inkscape:cx="-0.20338983"
     inkscape:cy="16"
     inkscape:window-x="-8"
     inkscape:window-y="-8"
     inkscape:window-maximized="1"
     inkscape:current-layer="svg2985" />
  <g
     id="g2987"
     transform="matrix(0.01185185,0,0,-0.01185183,0.72222222,33.934056)" />
  <path
     d="M 0,12.961222 0,7.0590123 Q 0,6.8219757 0.1718519,6.6441983 0.3437037,6.4664209 0.5925926,6.4664209 l 1.7777778,0 q 0,-0.4859249 0.1659259,-0.9007389 Q 2.7022222,5.150868 2.9511111,4.8604983 3.2,4.5701286 3.6148148,4.3153143 4.0296296,4.0605006 4.3911111,3.9064268 4.7525926,3.7523531 5.2977778,3.6042053 5.842963,3.4560574 6.2044444,3.3849464 6.5659259,3.3138353 7.122963,3.2071691 7.68,3.1005024 7.928889,3.0412434 9.896296,2.6027258 10.797037,2.4130966 q 0.900741,-0.1896292 2.53037,-0.3970362 1.62963,-0.207407 2.921482,-0.1837033 1.291852,0.023704 2.844444,0.2370365 1.552593,0.2133329 2.595556,0.4266658 1.042963,0.2133328 2.785185,0.6044431 0.13037,0.035555 0.568889,0.1303702 0.438518,0.094815 0.663704,0.1481479 0.225185,0.053333 0.663703,0.1718515 0.438519,0.1185185 0.69926,0.2133328 0.26074,0.094815 0.645926,0.2607402 0.385185,0.165925 0.622222,0.3259246 0.237037,0.1599998 0.509629,0.3911104 0.272593,0.2311105 0.426667,0.4799989 0.154074,0.2488884 0.254815,0.5688877 0.100741,0.3199993 0.100741,0.6755542 l 1.777777,0 q 0.248889,0 0.420741,0.1777774 Q 32,6.8219757 32,7.0590123 l 0,5.9259137 q 0,0.248888 -0.171852,0.42074 -0.171852,0.171851 -0.420741,0.171851 l -1.777777,0 q 0,0.936294 -0.645926,1.66518 -0.645926,0.728888 -1.582223,0.835555 l -8.438518,0.91259 q -0.331852,0.04741 -0.77037,-0.03556 -0.237037,0.177778 -0.533334,0.177778 l -3.555555,0 q -0.32,0 -0.533334,-0.177778 -0.45037,0.08296 -0.782222,0.03556 L 4.5985185,16.042696 Q 3.6622222,15.947881 3.0162963,15.22492 2.3703704,14.501959 2.3703704,13.553813 l -1.7777778,0 q -0.2488889,0 -0.4207407,-0.177776 Q 0,13.198259 0,12.961222 Z m 3.5555556,0.592591 q 0,0.485925 0.3437037,0.871109 0.3437037,0.385184 0.8296296,0.444443 l 8.1896301,0.948146 q 0.426666,0.04741 0.942222,-0.734812 0.515555,-0.782221 0.74074,-1.445923 l 0.426667,-1.303701 q 0.05926,-0.154073 0.112593,-0.539258 0.05333,-0.385184 0.112592,-0.675553 0.05926,-0.290371 0.248889,-0.527408 Q 15.691852,10.35382 16,10.35382 q 0.308148,0 0.497778,0.242962 0.189629,0.242963 0.248889,0.527408 0.05926,0.284443 0.118518,0.675553 0.05926,0.391111 0.106667,0.533332 l 0.426667,1.303701 q 0.13037,0.367406 0.237037,0.634072 0.106666,0.266667 0.308148,0.693332 0.201481,0.426666 0.432592,0.651851 0.231111,0.225184 0.456297,0.20148 l 8.438518,-0.924442 q 0.485926,-0.05926 0.82963,-0.444443 0.343703,-0.385185 0.343703,-0.871109 l 0,-7.1110961 q 0,-0.474073 -0.343703,-0.8355538 -0.343704,-0.3614808 -0.841482,-0.4681472 -2.56,-0.5214804 -5.06074,-0.959998 Q 21.724444,4.1197589 20.705185,3.9123527 19.685926,3.7049458 19.075556,3.5923534 18.465185,3.4797608 17.594074,3.3790206 16.722963,3.2782798 16,3.2782798 q -0.746667,0 -1.659259,0.1066667 -0.912593,0.1066667 -1.552593,0.2251847 -0.64,0.1185185 -1.700741,0.3259253 -1.06074,0.2074064 -1.558518,0.302221 Q 7.1111111,4.688647 4.6933333,5.16272 4.2074074,5.2575348 3.8814815,5.6190154 3.5555556,5.9804961 3.5555556,6.466421 l 0,7.087392 z m 1.2325925,-2.01481 0,-3.6503629 q 0,-0.3792584 0.2725926,-0.68148 0.2725926,-0.3022217 0.64,-0.3377771 l 8.5688893,-0.9244425 0.0237,0 q 0.308148,0 0.444445,0.1718515 0.136296,0.1718514 0.05333,0.4562953 L 13.084438,12.68863 q -0.106666,0.367407 -0.45037,0.586666 -0.343704,0.219258 -0.722963,0.171851 L 5.7125926,12.593816 Q 5.3333333,12.534556 5.0607407,12.220483 4.7881481,11.906409 4.7881481,11.539003 Z m 5.8785189,13.297748 q 0,-2.204439 1.564444,-3.76888 Q 13.795556,19.50343 16,19.50343 q 1.742222,0 3.111111,0.983701 1.368889,0.983702 1.902222,2.571847 l 1.505186,0 q 0.485925,0 0.835555,0.349629 0.34963,0.349628 0.34963,0.835553 l 5.925926,0 0,1.185183 -5.925926,0 q 0,0.485924 -0.34963,0.835554 -0.34963,0.349629 -0.835555,0.349629 l -1.552593,0 q -0.545185,1.599996 -1.89037,2.577773 Q 17.73037,30.170074 16,30.170074 q -1.445926,0 -2.672593,-0.71111 -1.226666,-0.711109 -1.943703,-1.943699 -0.717037,-1.23259 -0.717037,-2.678514 z m 2.37037,0 q 0,1.232591 0.865185,2.097775 0.865185,0.865182 2.097778,0.865182 1.232593,0 2.097778,-0.865182 0.865185,-0.865184 0.865185,-2.097775 0,-1.232589 -0.865185,-2.097773 Q 17.232593,21.873795 16,21.873795 q -1.232593,0 -2.097778,0.865183 -0.865185,0.865184 -0.865185,2.097773 z M 17.208889,6.5730873 q -0.08296,-0.2607401 0.03556,-0.4444435 0.118519,-0.1837033 0.391112,-0.1837033 l 8.687407,0.9244425 q 0.367407,0.035556 0.64,0.3377771 0.272593,0.3022216 0.272593,0.68148 l 0,3.6503629 q 0,0.379258 -0.272593,0.693332 -0.272593,0.314073 -0.64,0.361481 l -6.222222,0.853331 q -0.37926,0.04741 -0.722963,-0.171851 -0.343704,-0.219259 -0.450371,-0.586666 z"
     id="path2989"
     inkscape:connector-curvature="0" />
</svg>
