<?xml version="1.0" encoding="UTF-8" standalone="no"?>
<svg
   xmlns:dc="http://purl.org/dc/elements/1.1/"
   xmlns:cc="http://creativecommons.org/ns#"
   xmlns:rdf="http://www.w3.org/1999/02/22-rdf-syntax-ns#"
   xmlns:svg="http://www.w3.org/2000/svg"
   xmlns="http://www.w3.org/2000/svg"
   xmlns:sodipodi="http://sodipodi.sourceforge.net/DTD/sodipodi-0.dtd"
   xmlns:inkscape="http://www.inkscape.org/namespaces/inkscape"
   version="1.1"
   width="32px"
   height="32px"
   id="svg2985"
   inkscape:version="0.91 r13725"
   sodipodi:docname="server_plus.svg">
  <metadata
     id="metadata2995">
    <rdf:RDF>
      <cc:Work
         rdf:about="">
        <dc:format>image/svg+xml</dc:format>
        <dc:type
           rdf:resource="http://purl.org/dc/dcmitype/StillImage" />
      </cc:Work>
    </rdf:RDF>
  </metadata>
  <defs
     id="defs2993" />
  <sodipodi:namedview
     pagecolor="#ffffff"
     bordercolor="#666666"
     borderopacity="1"
     objecttolerance="10"
     gridtolerance="10"
     guidetolerance="10"
     inkscape:pageopacity="0"
     inkscape:pageshadow="2"
     inkscape:window-width="1920"
     inkscape:window-height="1028"
     id="namedview2991"
     showgrid="false"
     inkscape:zoom="7.375"
     inkscape:cx="-23.322034"
     inkscape:cy="16"
     inkscape:window-x="-8"
     inkscape:window-y="-8"
     inkscape:window-maximized="1"
     inkscape:current-layer="svg2985" />
  <g
     id="g2987"
     transform="matrix(0.01185185,0,0,-0.01185185,-0.46296296,32.648148)" />
  <path
     d="m 0,29.62963 1.1851852,0 0,0.592592 q 0,0.248889 0.1777778,0.420741 0.1777777,0.171852 0.4148148,0.171852 l 22.5185182,0 q 0.248889,0 0.420741,-0.171852 0.171852,-0.171852 0.171852,-0.420741 l 0,-0.592592 1.185185,0 0,-3.555556 -1.185185,0 0,-0.592592 q 0,-0.248889 -0.171852,-0.420741 -0.171852,-0.171852 -0.420741,-0.171852 l -22.5185182,0 q -0.2370371,0 -0.4148148,0.171852 -0.1777778,0.171852 -0.1777778,0.420741 l 0,0.592592 -1.1851852,0 0,3.555556 z m 0,-7.111111 1.1851852,0 0,0.592592 q 0,0.248889 0.1777778,0.420741 0.1777777,0.171852 0.4148148,0.171852 l 22.5185182,0 q 0.248889,0 0.420741,-0.171852 0.171852,-0.171852 0.171852,-0.420741 l 0,-0.592592 1.185185,0 0,-3.555556 -1.185185,0 0,-0.592592 q 0,-0.248889 -0.171852,-0.420741 -0.171852,-0.171852 -0.420741,-0.171852 l -22.5185182,0 q -0.2370371,0 -0.4148148,0.171852 -0.1777778,0.171852 -0.1777778,0.420741 l 0,0.592592 -1.1851852,0 0,3.555556 z m 0,-7.111111 1.1851852,0 0,0.592592 q 0,0.248889 0.1777778,0.420741 0.1777777,0.171852 0.4148148,0.171852 l 22.5185182,0 q 0.248889,0 0.420741,-0.171852 Q 24.888889,16.248889 24.888889,16 l 0,-0.331852 q -2.145185,-0.284444 -3.940741,-1.70074 -1.795555,-1.416297 -2.755555,-3.300741 l -16.4148152,0 q -0.2370371,0 -0.4148148,0.177777 -0.1777778,0.177778 -0.1777778,0.414815 l 0,0.592593 -1.1851852,0 0,3.555556 z m 3.5555556,-5.9259266 14.2103704,0 Q 17.706666,9.1733332 17.623704,8.7466666 17.540744,8.3199999 17.511111,8.1362962 17.481481,7.9525925 17.451851,7.6799999 17.422221,7.4074073 17.422221,7.111111 q 0,-1.1851852 0.09481,-1.1851852 l -11.117032,0 z M 20.148148,7.111111 q 0,1.6118518 0.794074,2.974815 0.794074,1.362963 2.157037,2.157037 1.362963,0.794074 2.974815,0.794074 1.611852,0 2.974815,-0.794074 1.362963,-0.794074 2.157037,-2.157037 Q 32,8.7229628 32,7.111111 32,5.4992591 31.205926,4.1362962 30.411852,2.7733332 29.048889,1.9792591 q -1.362963,-0.794074 -2.974815,-0.794074 -1.611852,0 -2.974815,0.794074 -1.362963,0.7940741 -2.157037,2.1570371 -0.794074,1.3629629 -0.794074,2.9748148 z m 1.185185,20.148148 0,-1.185185 1.185186,0 0,1.185185 -1.185186,0 z m 0,-7.111111 0,-1.185185 1.185186,0 0,1.185185 -1.185186,0 z m 1.185186,-12.4444444 0,-1.1851852 q 0,-0.2488889 0.177777,-0.4207407 0.177778,-0.1718519 0.414815,-0.1718519 l 1.777778,0 0,-1.7777778 q 0,-0.2488889 0.177778,-0.4207407 0.177777,-0.1718519 0.414814,-0.1718519 l 1.185186,0 q 0.248889,0 0.42074,0.1718519 0.171852,0.1718518 0.171852,0.4207407 l 0,1.7777778 1.777778,0 q 0.248889,0 0.420741,0.1718519 0.171852,0.1718518 0.171852,0.4207407 l 0,1.1851852 q 0,0.2488889 -0.171852,0.4207407 -0.171852,0.1718519 -0.420741,0.1718519 l -1.777778,0 0,1.7777778 q 0,0.248889 -0.171852,0.420741 -0.171851,0.171852 -0.42074,0.171852 l -1.185186,0 q -0.237037,0 -0.414814,-0.171852 -0.177778,-0.171852 -0.177778,-0.420741 l 0,-1.7777778 -1.777778,0 q -0.237037,0 -0.414815,-0.1718519 -0.177777,-0.1718518 -0.177777,-0.4207407 z"
     id="path2989"
     inkscape:connector-curvature="0" />
</svg>
