<?xml version="1.0" encoding="UTF-8" standalone="no"?>
<svg
   xmlns:dc="http://purl.org/dc/elements/1.1/"
   xmlns:cc="http://creativecommons.org/ns#"
   xmlns:rdf="http://www.w3.org/1999/02/22-rdf-syntax-ns#"
   xmlns:svg="http://www.w3.org/2000/svg"
   xmlns="http://www.w3.org/2000/svg"
   xmlns:sodipodi="http://sodipodi.sourceforge.net/DTD/sodipodi-0.dtd"
   xmlns:inkscape="http://www.inkscape.org/namespaces/inkscape"
   version="1.1"
   width="32px"
   height="32px"
   id="svg2985"
   inkscape:version="0.91 r13725"
   sodipodi:docname="server_lock.svg">
  <metadata
     id="metadata2995">
    <rdf:RDF>
      <cc:Work
         rdf:about="">
        <dc:format>image/svg+xml</dc:format>
        <dc:type
           rdf:resource="http://purl.org/dc/dcmitype/StillImage" />
      </cc:Work>
    </rdf:RDF>
  </metadata>
  <defs
     id="defs2993" />
  <sodipodi:namedview
     pagecolor="#ffffff"
     bordercolor="#666666"
     borderopacity="1"
     objecttolerance="10"
     gridtolerance="10"
     guidetolerance="10"
     inkscape:pageopacity="0"
     inkscape:pageshadow="2"
     inkscape:window-width="1920"
     inkscape:window-height="1028"
     id="namedview2991"
     showgrid="false"
     inkscape:zoom="7.375"
     inkscape:cx="-0.20338983"
     inkscape:cy="16"
     inkscape:window-x="-8"
     inkscape:window-y="-8"
     inkscape:window-maximized="1"
     inkscape:current-layer="svg2985" />
  <g
     id="g2987"
     transform="matrix(0.01142857,0,0,-0.01142857,-0.28571429,32.428571)" />
  <path
     d="m 0,29.714286 1.1428571,0 0,0.571428 q 0,0.24 0.1657143,0.405715 0.1657143,0.165714 0.4057143,0.165714 l 21.7142853,0 q 0.24,0 0.405715,-0.165714 Q 24,30.525714 24,30.285714 l 0,-0.571428 1.142857,0 0,-3.428572 -1.142857,0 0,-0.571428 q 0,-0.24 -0.165714,-0.405714 -0.165715,-0.165715 -0.405715,-0.165715 l -21.7142853,0 q -0.24,0 -0.4057143,0.165715 -0.1657143,0.165714 -0.1657143,0.405714 l 0,0.571428 -1.1428571,0 0,3.428572 z m 0,-6.857143 1.1428571,0 0,0.571429 q 0,0.24 0.1657143,0.405714 Q 1.4742857,24 1.7142857,24 l 21.7142853,0 q 0.24,0 0.405715,-0.165714 Q 24,23.668572 24,23.428572 l 0,-0.571429 1.142857,0 0,-3.428571 -1.142857,0 0,-0.571429 q 0,-0.24 -0.165714,-0.405714 -0.165715,-0.165715 -0.405715,-0.165715 l -21.7142853,0 q -0.24,0 -0.4057143,0.165715 -0.1657143,0.165714 -0.1657143,0.405714 l 0,0.571429 -1.1428571,0 0,3.428571 z M 0,16 l 1.1428571,0 0,0.571429 q 0,0.24 0.1657143,0.405714 0.1657143,0.165714 0.4057143,0.165714 l 21.7142853,0 q 0.24,0 0.405715,-0.165714 Q 24,16.811429 24,16.571429 L 24,16 l 1.142857,0 0,-1.142857 -3.428571,0 -0.16,0 -0.4,0 q 0,0 -0.262857,-0.04 -0.262858,-0.04 -0.182858,-0.09714 0.08,-0.05714 -0.08,-0.205714 -0.16,-0.148572 -0.05143,-0.314286 0.108571,-0.165714 -0.0057,-0.485714 l 0,-2.285715 -18.8571433,0 q -0.24,0 -0.4057143,0.165715 -0.1657263,0.165714 -0.1657263,0.405714 l 0,0.571429 -1.1428571,0 0,3.428571 z m 3.4285714,-5.714286 17.1428576,0 0,-1.8514284 -1.6,-1.5771429 -12.8000004,0 z m 17.1428576,17.142858 0,-1.142858 1.142857,0 0,1.142858 -1.142857,0 z m 0,-6.857143 0,-1.142857 1.142857,0 0,1.142857 -1.142857,0 z m 2.285714,-8.182857 0,-6.4685722 q 0,-0.068571 0.05714,-0.1371428 0.05715,-0.068571 0.137146,-0.068571 l 0.948571,0 0,-2.9142858 q 0,-0.64 0.497143,-1.1485714 0.497143,-0.5085715 1.125714,-0.5085715 l 3.577143,0 q 0.628571,0 1.142857,0.5142858 0.514286,0.5142857 0.514286,1.1428571 l 0,2.9142858 0.925714,0 q 0.08,0 0.148572,0.068571 Q 32,5.8514284 32,5.9199998 l 0,6.4685722 q 0,0.06857 -0.06857,0.125714 -0.06857,0.05714 -0.148573,0.05714 l -8.731428,0 q -0.08,0 -0.137143,-0.05714 -0.05714,-0.05714 -0.05714,-0.125714 z m 2.285714,-6.6742864 4.571429,0 0,-2.9142858 q 0,-0.2857143 -0.125715,-0.4 -0.125714,-0.1142857 -0.411428,-0.1142857 l -3.542857,0 q -0.285715,0 -0.388572,0.1085714 -0.102857,0.1085714 -0.102857,0.4057143 l 0,2.9142858 z"
     id="path2989"
     inkscape:connector-curvature="0" />
</svg>
