<?xml version="1.0" encoding="UTF-8" standalone="no"?>
<svg
   xmlns:dc="http://purl.org/dc/elements/1.1/"
   xmlns:cc="http://creativecommons.org/ns#"
   xmlns:rdf="http://www.w3.org/1999/02/22-rdf-syntax-ns#"
   xmlns:svg="http://www.w3.org/2000/svg"
   xmlns="http://www.w3.org/2000/svg"
   xmlns:sodipodi="http://sodipodi.sourceforge.net/DTD/sodipodi-0.dtd"
   xmlns:inkscape="http://www.inkscape.org/namespaces/inkscape"
   version="1.1"
   width="32px"
   height="32px"
   id="svg2985"
   inkscape:version="0.91 r13725"
   sodipodi:docname="server.svg">
  <metadata
     id="metadata2995">
    <rdf:RDF>
      <cc:Work
         rdf:about="">
        <dc:format>image/svg+xml</dc:format>
        <dc:type
           rdf:resource="http://purl.org/dc/dcmitype/StillImage" />
      </cc:Work>
    </rdf:RDF>
  </metadata>
  <defs
     id="defs2993" />
  <sodipodi:namedview
     pagecolor="#ffffff"
     bordercolor="#666666"
     borderopacity="1"
     objecttolerance="10"
     gridtolerance="10"
     guidetolerance="10"
     inkscape:pageopacity="0"
     inkscape:pageshadow="2"
     inkscape:window-width="1920"
     inkscape:window-height="1028"
     id="namedview2991"
     showgrid="false"
     inkscape:zoom="7.375"
     inkscape:cx="-23.322034"
     inkscape:cy="16"
     inkscape:window-x="-8"
     inkscape:window-y="-8"
     inkscape:window-maximized="1"
     inkscape:current-layer="svg2985" />
  <g
     id="g2987"
     transform="matrix(0.01454545,0,0,-0.01454545,-2.2727273,34.5)" />
  <path
     d="m 0,29.818182 0,-4.363637 1.4545455,0 0,-0.727273 q 0,-0.305454 0.2181818,-0.516363 Q 1.8909091,24 2.1818182,24 l 27.6363638,0 q 0.305454,0 0.516363,0.210909 0.21091,0.210909 0.21091,0.516363 l 0,0.727273 1.454545,0 0,4.363637 -1.454545,0 0,0.727272 q 0,0.305455 -0.21091,0.516364 -0.210909,0.210909 -0.516363,0.210909 l -27.6363638,0 q -0.2909091,0 -0.5090909,-0.210909 -0.2181818,-0.210909 -0.2181818,-0.516364 l 0,-0.727272 -1.4545455,0 z m 0,-8.727273 0,-4.363637 1.4545455,0 0,-0.727272 q 0,-0.305455 0.2181818,-0.516364 0.2181818,-0.210909 0.5090909,-0.210909 l 27.6363638,0 q 0.305454,0 0.516363,0.210909 0.21091,0.210909 0.21091,0.516364 l 0,0.727272 1.454545,0 0,4.363637 -1.454545,0 0,0.727273 q 0,0.305454 -0.21091,0.516363 -0.210909,0.210909 -0.516363,0.210909 l -27.6363638,0 q -0.2909091,0 -0.5090909,-0.210909 -0.2181818,-0.210909 -0.2181818,-0.516363 l 0,-0.727273 -1.4545455,0 z m 0,-8.727273 0,-4.3636361 1.4545455,0 0,-0.7272727 q 0,-0.3054545 0.2181818,-0.5163636 0.2181818,-0.2109091 0.5090909,-0.2109091 l 27.6363638,0 q 0.305454,0 0.516363,0.2109091 0.21091,0.2109091 0.21091,0.5163636 l 0,0.7272727 1.454545,0 0,4.3636361 -1.454545,0 0,0.727273 q 0,0.305455 -0.21091,0.516364 -0.210909,0.210909 -0.516363,0.210909 l -27.6363638,0 q -0.2909091,0 -0.5090909,-0.210909 -0.2181818,-0.210909 -0.2181818,-0.516364 l 0,-0.727273 -1.4545455,0 z m 4.3636364,-7.2727269 23.2727276,0 -3.490909,-4.36363635 -16.29091,0 z m 21.8181816,21.8181819 1.454546,0 0,-1.454546 -1.454546,0 0,1.454546 z m 0,-8.727273 1.454546,0 0,-1.454546 -1.454546,0 0,1.454546 z m 0,-8.7272725 1.454546,0 0,-1.4545456 -1.454546,0 0,1.4545456 z"
     id="path2989"
     inkscape:connector-curvature="0" />
</svg>
