<?xml version="1.0" encoding="UTF-8" standalone="no"?>
<svg
   xmlns:dc="http://purl.org/dc/elements/1.1/"
   xmlns:cc="http://creativecommons.org/ns#"
   xmlns:rdf="http://www.w3.org/1999/02/22-rdf-syntax-ns#"
   xmlns:svg="http://www.w3.org/2000/svg"
   xmlns="http://www.w3.org/2000/svg"
   xmlns:sodipodi="http://sodipodi.sourceforge.net/DTD/sodipodi-0.dtd"
   xmlns:inkscape="http://www.inkscape.org/namespaces/inkscape"
   version="1.1"
   width="32px"
   height="32px"
   id="svg2985"
   inkscape:version="0.91 r13725"
   sodipodi:docname="server_minus.svg">
  <metadata
     id="metadata2995">
    <rdf:RDF>
      <cc:Work
         rdf:about="">
        <dc:format>image/svg+xml</dc:format>
        <dc:type
           rdf:resource="http://purl.org/dc/dcmitype/StillImage" />
      </cc:Work>
    </rdf:RDF>
  </metadata>
  <defs
     id="defs2993" />
  <sodipodi:namedview
     pagecolor="#ffffff"
     bordercolor="#666666"
     borderopacity="1"
     objecttolerance="10"
     gridtolerance="10"
     guidetolerance="10"
     inkscape:pageopacity="0"
     inkscape:pageshadow="2"
     inkscape:window-width="1920"
     inkscape:window-height="1028"
     id="namedview2991"
     showgrid="false"
     inkscape:zoom="7.375"
     inkscape:cx="-23.322034"
     inkscape:cy="16"
     inkscape:window-x="-8"
     inkscape:window-y="-8"
     inkscape:window-maximized="1"
     inkscape:current-layer="svg2985" />
  <g
     id="g2987"
     transform="matrix(0.01142857,0,0,-0.01142857,-0.28571429,32.5)" />
  <path
     d="m 0,29.142857 1.1428571,0 0,0.571428 q 0,0.24 0.1714286,0.405715 0.1714286,0.165714 0.4,0.165714 l 21.7142853,0 q 0.24,0 0.405715,-0.165714 Q 24,29.954285 24,29.714285 l 0,-0.571428 1.142857,0 0,-3.428572 -1.142857,0 0,-0.571428 q 0,-0.228572 -0.165714,-0.4 -0.165715,-0.171429 -0.405715,-0.171429 l -21.7142853,0 q -0.2285714,0 -0.4,0.171429 -0.1714286,0.171428 -0.1714286,0.4 l 0,0.571428 -1.1428571,0 0,3.428572 z m 0,-6.857143 1.1428571,0 0,0.571429 q 0,0.24 0.1714286,0.405714 0.1714286,0.165714 0.4,0.165714 l 21.7142853,0 q 0.24,0 0.405715,-0.165714 Q 24,23.097143 24,22.857143 l 0,-0.571429 1.142857,0 0,-3.428571 -1.142857,0 0,-0.571429 q 0,-0.228571 -0.165714,-0.4 -0.165715,-0.171429 -0.405715,-0.171429 l -21.7142853,0 q -0.2285714,0 -0.4,0.171429 -0.1714286,0.171429 -0.1714286,0.4 l 0,0.571429 -1.1428571,0 0,3.428571 z m 0,-6.857143 1.1428571,0 0,0.571429 q 0,0.24 0.1714286,0.405714 0.1714286,0.165714 0.4,0.165714 l 21.7142853,0 q 0.24,0 0.405715,-0.165714 Q 24,16.24 24,16 l 0,-0.548572 Q 22.205714,14.937143 20.817143,13.748571 19.428571,12.56 18.685714,10.857143 l -16.9714283,0 q -0.2285714,0 -0.4,0.171428 -0.1714286,0.171429 -0.1714286,0.4 L 1.1428571,12 0,12 0,15.428571 Z m 3.4285714,-5.7142853 14.8457146,0 Q 18.217143,9.4171429 18.137143,9.0057143 18.057143,8.5942857 18.028571,8.4171429 18,8.24 17.971429,7.9771429 q -0.02857,-0.2628572 -0.02857,-0.5485715 0,-1.1428571 0.09143,-1.1428571 l -11.8628574,0 z m 17.1428576,17.1428573 0,-1.142858 1.142857,0 0,1.142858 -1.142857,0 z m 0,-6.857143 0,-1.142857 1.142857,0 0,1.142857 -1.142857,0 z m 0,-12.5714286 q 0,1.5542858 0.765714,2.8685716 0.765714,1.314286 2.08,2.08 1.314286,0.765714 2.868571,0.765714 1.554286,0 2.868572,-0.765714 1.314285,-0.765714 2.08,-2.08 Q 32,8.9828572 32,7.4285714 32,5.8742857 31.234286,4.56 30.468571,3.2457143 29.154286,2.48 27.84,1.7142857 26.285714,1.7142857 q -1.554285,0 -2.868571,0.7657143 -1.314286,0.7657143 -2.08,2.08 -0.765714,1.3142857 -0.765714,2.8685714 z M 22.857143,8 l 0,-1.1428571 q 0,-0.24 0.165714,-0.4057143 0.165714,-0.1657143 0.405714,-0.1657143 l 5.714286,0 q 0.24,0 0.405714,0.1657143 0.165715,0.1657143 0.165715,0.4057143 l 0,1.1428571 q 0,0.24 -0.165715,0.4057143 -0.165714,0.1657143 -0.405714,0.1657143 l -5.714286,0 q -0.24,0 -0.405714,-0.1657143 Q 22.857143,8.24 22.857143,8 Z"
     id="path2989"
     inkscape:connector-curvature="0" />
</svg>
