<?xml version="1.0" encoding="UTF-8" standalone="no"?>
<svg
   xmlns:dc="http://purl.org/dc/elements/1.1/"
   xmlns:cc="http://creativecommons.org/ns#"
   xmlns:rdf="http://www.w3.org/1999/02/22-rdf-syntax-ns#"
   xmlns:svg="http://www.w3.org/2000/svg"
   xmlns="http://www.w3.org/2000/svg"
   xmlns:sodipodi="http://sodipodi.sourceforge.net/DTD/sodipodi-0.dtd"
   xmlns:inkscape="http://www.inkscape.org/namespaces/inkscape"
   version="1.1"
   width="32px"
   height="32px"
   id="svg2985"
   inkscape:version="0.91 r13725"
   sodipodi:docname="server_ban.svg">
  <metadata
     id="metadata2995">
    <rdf:RDF>
      <cc:Work
         rdf:about="">
        <dc:format>image/svg+xml</dc:format>
        <dc:type
           rdf:resource="http://purl.org/dc/dcmitype/StillImage" />
      </cc:Work>
    </rdf:RDF>
  </metadata>
  <defs
     id="defs2993" />
  <sodipodi:namedview
     pagecolor="#ffffff"
     bordercolor="#666666"
     borderopacity="1"
     objecttolerance="10"
     gridtolerance="10"
     guidetolerance="10"
     inkscape:pageopacity="0"
     inkscape:pageshadow="2"
     inkscape:window-width="1920"
     inkscape:window-height="1028"
     id="namedview2991"
     showgrid="false"
     inkscape:zoom="7.375"
     inkscape:cx="-0.20338983"
     inkscape:cy="16"
     inkscape:window-x="-8"
     inkscape:window-y="-8"
     inkscape:window-maximized="1"
     inkscape:current-layer="svg2985" />
  <g
     id="g2987"
     transform="matrix(0.01142857,0,0,-0.01142857,-0.28571429,32.505)" />
  <path
     d="m 0,29.102857 0,-3.428572 1.1428571,0 0,-0.571428 q 0,-0.228572 0.1714286,-0.4 0.1714286,-0.171429 0.4,-0.171429 l 21.7142853,0 q 0.24,0 0.405715,0.171429 Q 24,24.874285 24,25.102857 l 0,0.571428 1.142857,0 0,3.428572 -1.142857,0 0,0.571428 q 0,0.24 -0.165714,0.405715 -0.165715,0.165714 -0.405715,0.165714 l -21.7142853,0 q -0.2285714,0 -0.4,-0.165714 -0.1714286,-0.165715 -0.1714286,-0.405715 l 0,-0.571428 -1.1428571,0 z m 0,-6.857143 0,-3.428571 1.1428571,0 0,-0.571429 q 0,-0.228571 0.1714286,-0.4 0.1714286,-0.171429 0.4,-0.171429 l 21.7142853,0 q 0.24,0 0.405715,0.171429 Q 24,18.017143 24,18.245714 l 0,0.571429 1.142857,0 0,3.428571 -1.142857,0 0,0.571429 q 0,0.24 -0.165714,0.405714 -0.165715,0.165714 -0.405715,0.165714 l -21.7142853,0 q -0.2285714,0 -0.4,-0.165714 -0.1714286,-0.165714 -0.1714286,-0.405714 l 0,-0.571429 -1.1428571,0 z M 0,15.388571 0,11.96 l 1.1428571,0 0,-0.571429 q 0,-0.228571 0.1714286,-0.4 0.1714286,-0.171428 0.4,-0.171428 l 16.9714283,0 Q 19.428571,12.52 20.817143,13.708571 22.205714,14.897143 24,15.411428 L 24,15.96 q 0,0.24 -0.165714,0.405714 -0.165715,0.165714 -0.405715,0.165714 l -21.7142853,0 q -0.2285714,0 -0.4,-0.165714 Q 1.1428571,16.2 1.1428571,15.96 l 0,-0.571429 -1.1428571,0 z m 3.4285714,-5.7142853 14.8457146,0 Q 18.217146,9.3771429 18.137143,8.9657143 18.057143,8.5542857 18.028571,8.3771429 18,8.2 17.971429,7.9371429 q -0.02857,-0.2628572 -0.02857,-0.5485715 0,-1.1428571 0.09143,-1.1428571 l -11.8628574,0 z m 17.1428576,17.1428573 1.142857,0 0,-1.142858 -1.142857,0 0,1.142858 z m 0,-6.857143 1.142857,0 0,-1.142857 -1.142857,0 0,1.142857 z M 20.674286,7.4114286 q 0,1.5314286 0.76,2.8342854 0.76,1.302857 2.068571,2.062857 1.308572,0.76 2.84,0.76 1.531429,0 2.834286,-0.76 Q 30.48,11.548571 31.24,10.245714 32,8.9428572 32,7.4114286 32,5.88 31.24,4.5771429 30.48,3.2742857 29.177143,2.5142857 q -1.302857,-0.76 -2.834286,-0.76 -1.531428,0 -2.84,0.76 -1.308571,0.76 -2.068571,2.0628572 -0.76,1.3028571 -0.76,2.8342857 z m 1.417143,0 q 0,-1.76 1.245714,-3.0057143 Q 24.582857,3.16 26.342857,3.16 q 1.211429,0 2.262857,0.6628572 L 22.754286,9.6742857 Q 22.091429,8.6228572 22.091429,7.4114286 Z M 24.08,11 29.931429,5.1485714 q 0.651428,1.0285715 0.651428,2.2628572 0,1.76 -1.24,3.0000004 -1.24,1.24 -3,1.24 Q 25.108571,11.651429 24.08,11 Z"
     id="path2989"
     inkscape:connector-curvature="0" />
</svg>
