<?xml version="1.0" encoding="UTF-8" standalone="no"?>
<svg
   xmlns:dc="http://purl.org/dc/elements/1.1/"
   xmlns:cc="http://creativecommons.org/ns#"
   xmlns:rdf="http://www.w3.org/1999/02/22-rdf-syntax-ns#"
   xmlns:svg="http://www.w3.org/2000/svg"
   xmlns="http://www.w3.org/2000/svg"
   xmlns:sodipodi="http://sodipodi.sourceforge.net/DTD/sodipodi-0.dtd"
   xmlns:inkscape="http://www.inkscape.org/namespaces/inkscape"
   version="1.1"
   width="32px"
   height="32px"
   id="svg2985"
   inkscape:version="0.91 r13725"
   sodipodi:docname="server_flag.svg">
  <metadata
     id="metadata2995">
    <rdf:RDF>
      <cc:Work
         rdf:about="">
        <dc:format>image/svg+xml</dc:format>
        <dc:type
           rdf:resource="http://purl.org/dc/dcmitype/StillImage" />
      </cc:Work>
    </rdf:RDF>
  </metadata>
  <defs
     id="defs2993" />
  <sodipodi:namedview
     pagecolor="#ffffff"
     bordercolor="#666666"
     borderopacity="1"
     objecttolerance="10"
     gridtolerance="10"
     guidetolerance="10"
     inkscape:pageopacity="0"
     inkscape:pageshadow="2"
     inkscape:window-width="1920"
     inkscape:window-height="1028"
     id="namedview2991"
     showgrid="false"
     inkscape:zoom="7.375"
     inkscape:cx="-0.20338983"
     inkscape:cy="16"
     inkscape:window-x="-8"
     inkscape:window-y="-8"
     inkscape:window-maximized="1"
     inkscape:current-layer="svg2985" />
  <g
     id="g2987"
     transform="matrix(0.01185185,0,0,-0.01185185,-0.46296296,32.648148)" />
  <path
     d="m 0,29.62963 1.1851852,0 0,0.592592 q 0,0.248889 0.1718518,0.420741 0.1718519,0.171852 0.4207408,0.171852 l 22.5185182,0 q 0.248889,0 0.420741,-0.171852 0.171852,-0.171852 0.171852,-0.420741 l 0,-0.592592 1.185185,0 0,-3.555556 -1.185185,0 0,-0.592592 q 0,-0.237037 -0.171852,-0.414815 -0.171852,-0.177778 -0.420741,-0.177778 l -22.5185182,0 q -0.2488889,0 -0.4207408,0.177778 -0.1718518,0.177778 -0.1718518,0.414815 l 0,0.592592 -1.1851852,0 0,3.555556 z m 0,-7.111111 1.1851852,0 0,0.592592 q 0,0.248889 0.1718518,0.420741 0.1718519,0.171852 0.4207408,0.171852 l 22.5185182,0 q 0.248889,0 0.420741,-0.171852 0.171852,-0.171852 0.171852,-0.420741 l 0,-0.592592 1.185185,0 0,-3.555556 -1.185185,0 0,-0.592592 q 0,-0.237037 -0.171852,-0.414815 -0.171852,-0.177778 -0.420741,-0.177778 l -22.5185182,0 q -0.2488889,0 -0.4207408,0.177778 -0.1718518,0.177778 -0.1718518,0.414815 l 0,0.592592 -1.1851852,0 0,3.555556 z m 0,-7.111111 1.1851852,0 0,0.592592 q 0,0.248889 0.1718518,0.420741 0.1718519,0.171852 0.4207408,0.171852 l 22.5185182,0 q 0.248889,0 0.420741,-0.171852 Q 24.888889,16.248889 24.888889,16 l 0,-0.592592 1.185185,0 0,-0.888889 q -0.32,0.05926 -0.592593,0.05926 -0.96,0 -1.754074,-0.50963 -0.794074,-0.509629 -1.208888,-1.339259 l 0,0.308148 -1.185186,0 0,-1.185185 0.888889,0 q 0.296297,-0.391111 0.296297,-0.592593 l 0,-0.592592 -20.7407412,0 q -0.2488889,0 -0.4207408,0.177777 -0.1718518,0.177778 -0.1718518,0.414815 l 0,0.592593 -1.1851852,0 0,3.555556 z m 3.5555556,-5.9259265 18.9629634,0 0,-0.4385186 -2.844445,-3.117037 -13.274074,0 z m 17.7777774,17.7777775 0,-1.185185 1.185186,0 0,1.185185 -1.185186,0 z m 0,-7.111111 0,-1.185185 1.185186,0 0,1.185185 -1.185186,0 z m 3.555556,-8.888889 0,-10.0740738 6.518518,0 q 0.248889,0 0.420741,0.1777777 Q 32,1.5407407 32,1.7777778 l 0,3.5555555 q 0,0.2488889 -0.16,0.4859259 -0.16,0.2370371 -0.385185,0.3318519 l -5.380741,2.1451852 0,2.9629627 q 0,0.248889 -0.177778,0.420741 -0.177777,0.171852 -0.414815,0.171852 -0.237037,0 -0.414814,-0.171852 -0.177778,-0.171852 -0.177778,-0.420741 z"
     id="path2989"
     inkscape:connector-curvature="0" />
</svg>
