<?xml version="1.0" encoding="UTF-8" standalone="no"?>
<svg
   xmlns:dc="http://purl.org/dc/elements/1.1/"
   xmlns:cc="http://creativecommons.org/ns#"
   xmlns:rdf="http://www.w3.org/1999/02/22-rdf-syntax-ns#"
   xmlns:svg="http://www.w3.org/2000/svg"
   xmlns="http://www.w3.org/2000/svg"
   xmlns:sodipodi="http://sodipodi.sourceforge.net/DTD/sodipodi-0.dtd"
   xmlns:inkscape="http://www.inkscape.org/namespaces/inkscape"
   version="1.1"
   width="32px"
   height="32px"
   id="svg2985"
   inkscape:version="0.91 r13725"
   sodipodi:docname="server_new.svg">
  <metadata
     id="metadata2995">
    <rdf:RDF>
      <cc:Work
         rdf:about="">
        <dc:format>image/svg+xml</dc:format>
        <dc:type
           rdf:resource="http://purl.org/dc/dcmitype/StillImage" />
      </cc:Work>
    </rdf:RDF>
  </metadata>
  <defs
     id="defs2993" />
  <sodipodi:namedview
     pagecolor="#ffffff"
     bordercolor="#666666"
     borderopacity="1"
     objecttolerance="10"
     gridtolerance="10"
     guidetolerance="10"
     inkscape:pageopacity="0"
     inkscape:pageshadow="2"
     inkscape:window-width="1920"
     inkscape:window-height="1028"
     id="namedview2991"
     showgrid="false"
     inkscape:zoom="7.375"
     inkscape:cx="-0.20338983"
     inkscape:cy="16"
     inkscape:window-x="-8"
     inkscape:window-y="-8"
     inkscape:window-maximized="1"
     inkscape:current-layer="svg2985" />
  <g
     id="g2987"
     transform="matrix(0.01142857,0,0,-0.01142857,-0.28571429,32.571429)" />
  <path
     d="m 0,28.571429 1.1428571,0 0,0.571428 q 0,0.24 0.1657143,0.405715 0.1657143,0.165714 0.4057143,0.165714 l 21.7142853,0 q 0.24,0 0.405715,-0.165714 Q 24,29.382857 24,29.142857 l 0,-0.571428 1.142857,0 0,-3.428572 -1.142857,0 0,-0.571428 q 0,-0.24 -0.165714,-0.405714 Q 23.668571,24 23.428571,24 L 1.7142857,24 q -0.24,0 -0.4057143,0.165715 -0.1657143,0.165714 -0.1657143,0.405714 l 0,0.571428 -1.1428571,0 0,3.428572 z m 0,-6.857143 1.1428571,0 0,0.571429 q 0,0.24 0.1657143,0.405714 0.1657143,0.165714 0.4057143,0.165714 l 21.7142853,0 q 0.24,0 0.405715,-0.165714 Q 24,22.525715 24,22.285715 l 0,-0.571429 1.142857,0 0,-3.428571 -1.142857,0 0,-0.571429 q 0,-0.24 -0.165714,-0.405714 -0.165715,-0.165715 -0.405715,-0.165715 l -21.7142853,0 q -0.24,0 -0.4057143,0.165715 -0.1657143,0.165714 -0.1657143,0.405714 l 0,0.571429 -1.1428571,0 0,3.428571 z m 0,-6.857143 1.1428571,0 0,0.571429 q 0,0.24 0.1657143,0.405714 Q 1.4742857,16 1.7142857,16 l 21.7142853,0 q 0.24,0 0.405715,-0.165714 Q 24,15.668572 24,15.428572 l 0,-0.571429 1.142857,0 0,-1.222857 Q 24.72,13.405715 24.468571,13.154286 23.634286,13.017143 22.96,12.365715 L 22.011429,11.44 Q 21.874286,11.291429 21.72,11 21.565714,10.708571 21.457143,10.497143 21.348571,10.285714 21.291429,10.285714 l -19.5771433,0 q -0.24,0 -0.4057143,0.165715 -0.1657143,0.165714 -0.1657143,0.405714 l 0,0.571428 -1.1428571,0 0,3.428572 z m 3.4285714,-5.7142859 17.2342856,0 q -0.125714,0 -0.148571,-0.2457143 -0.02286,-0.2457142 0.01714,-0.7142857 0.04,-0.4685714 0.04,-0.6171428 l 0,-0.2742857 -1.6,-1.5771429 -12.8000004,0 z m 17.1428576,17.1428579 0,-1.142858 1.142857,0 0,1.142858 -1.142857,0 z m 0,-6.857143 0,-1.142857 1.142857,0 0,1.142857 -1.142857,0 z m 0,-6.857143 0,-1.142858 1.142857,0 0,1.142858 -1.142857,0 z M 22.857143,7.5657143 Q 22.857143,7.68 22.931433,7.84 23.005713,8 23.085714,8 L 25.222857,8 23.84,9.28 q -0.137143,0.1371428 0,0.2742857 l 0.971429,0.9485713 q 0.102857,0.102857 0.205714,-0.01143 l 1.268571,-1.3942857 0,2.1257147 q 0,0.08 0.165715,0.142857 0.165714,0.06286 0.291428,0.06286 l 1.371429,0 q 0.125714,0 0.291428,-0.06286 0.165715,-0.06286 0.165715,-0.142857 l 0,-2.1371432 L 29.84,10.468571 q 0.137143,0.137143 0.274286,0 L 31.051429,9.5085714 Q 31.154286,9.4057143 31.04,9.28 L 29.645714,8 31.771429,8 q 0.08,0 0.154285,-0.16 Q 32,7.68 32,7.5657143 L 32,6.1942857 Q 32,6.08 31.925714,5.8971428 31.851429,5.7142857 31.771429,5.7142857 l -2.125715,0 1.382857,-1.2571429 q 0.114286,-0.1371428 0,-0.2628571 L 30.057143,3.2571428 Q 29.965714,3.1542857 29.84,3.28 l -1.268571,1.3942857 0,-2.1371428 q 0,-0.091429 -0.171429,-0.1714286 -0.171429,-0.08 -0.285714,-0.08 l -1.371429,0 q -0.114286,0 -0.285714,0.08 -0.171429,0.08 -0.171429,0.1714286 l 0,2.1257142 -1.268571,-1.3714285 q -0.137143,-0.1371429 -0.262857,0 l -0.948572,0.9714285 q -0.05714,0.068572 -0.05714,0.097143 0,0.028571 0.08,0.097143 l 1.394283,1.2571426 -2.137143,0 q -0.08,0 -0.154285,0.1828571 Q 22.857139,6.08 22.857139,6.1942857 l 0,1.3714286 z"
     id="path2989"
     inkscape:connector-curvature="0" />
</svg>
