<?xml version="1.0" encoding="UTF-8" standalone="no"?>
<svg
   xmlns:dc="http://purl.org/dc/elements/1.1/"
   xmlns:cc="http://creativecommons.org/ns#"
   xmlns:rdf="http://www.w3.org/1999/02/22-rdf-syntax-ns#"
   xmlns:svg="http://www.w3.org/2000/svg"
   xmlns="http://www.w3.org/2000/svg"
   xmlns:sodipodi="http://sodipodi.sourceforge.net/DTD/sodipodi-0.dtd"
   xmlns:inkscape="http://www.inkscape.org/namespaces/inkscape"
   version="1.1"
   width="32px"
   height="32px"
   id="svg2985"
   inkscape:version="0.91 r13725"
   sodipodi:docname="settings.svg">
  <metadata
     id="metadata2995">
    <rdf:RDF>
      <cc:Work
         rdf:about="">
        <dc:format>image/svg+xml</dc:format>
        <dc:type
           rdf:resource="http://purl.org/dc/dcmitype/StillImage" />
      </cc:Work>
    </rdf:RDF>
  </metadata>
  <defs
     id="defs2993" />
  <sodipodi:namedview
     pagecolor="#ffffff"
     bordercolor="#666666"
     borderopacity="1"
     objecttolerance="10"
     gridtolerance="10"
     guidetolerance="10"
     inkscape:pageopacity="0"
     inkscape:pageshadow="2"
     inkscape:window-width="1920"
     inkscape:window-height="1028"
     id="namedview2991"
     showgrid="false"
     inkscape:zoom="7.375"
     inkscape:cx="-0.20338983"
     inkscape:cy="16"
     inkscape:window-x="-8"
     inkscape:window-y="-8"
     inkscape:window-maximized="1"
     inkscape:current-layer="svg2985" />
  <g
     id="g2987"
     transform="matrix(0.01349632,0,0,-0.01349627,-1.5711567,33.368184)" />
  <path
     d="M 0.12629523,4.7915143 Q 0.15328803,4.4811 0.35573263,4.2786559 L 2.2857062,2.3351926 Q 2.4881511,2.1462448 2.7985663,2.1125041 3.1089817,2.0787631 3.3384191,2.2272224 l 3.8329546,2.4833142 q 0.229437,0.148459 0.391393,0.4588733 0.161956,0.3104142 0.14846,0.593836 l -0.02699,0.7018061 q -0.0135,0.2834218 0.114718,0.6208286 0.128216,0.3374068 0.33066,0.5263546 L 12.259486,11.68811 9.6681937,14.103942 5.619297,10.122542 Q 5.4168523,9.9200978 5.0794443,9.7918833 4.7420363,9.6636687 4.4586136,9.6771649 L 3.756805,9.7041575 Q 3.4868786,9.7176538 3.1764632,9.5556985 2.866048,9.3937432 2.7175885,9.1643066 L 0.24776203,5.3313651 Q 0.09930253,5.1019285 0.12629523,4.7915143 Z m 0.6343271,22.0529097 q 0,-0.566844 0.39139317,-0.944739 L 16.699776,10.351979 q -0.863764,-2.6317736 0.155207,-5.2365542 1.018973,-2.6047807 3.502294,-4.008393 1.309143,-0.72879875 2.604791,-0.98522785 1.295646,-0.2564292 2.679019,0.026992 1.383372,0.2834217 2.652027,1.18767195 l -6.707671,3.5900091 3.751978,6.019338 6.518722,-3.2795947 q 0.161956,2.3078626 -0.88401,4.0623777 -1.045965,1.754516 -3.029923,2.874706 -1.552077,0.863762 -3.293103,1.012221 -1.741024,0.148459 -3.266109,-0.404888 L 5.9297127,30.663869 q -0.3913936,0.391392 -0.958239,0.391392 -0.5668454,0 -0.9582387,-0.391392 L 1.1520155,27.802659 Q 0.76062233,27.411267 0.76062233,26.844424 Z M 16.672783,23.20043 l 4.764199,-4.993621 8.664638,7.935809 q 0.215941,0.188947 0.215941,0.465621 0,0.276674 -0.188948,0.479118 l -4.723712,4.723695 Q 25.202456,32 24.925783,32 24.649107,32 24.460159,31.78406 Z"
     id="path2989"
     inkscape:connector-curvature="0" />
</svg>
