<?xml version="1.0" encoding="UTF-8" standalone="no"?>
<svg
   xmlns:dc="http://purl.org/dc/elements/1.1/"
   xmlns:cc="http://creativecommons.org/ns#"
   xmlns:rdf="http://www.w3.org/1999/02/22-rdf-syntax-ns#"
   xmlns:svg="http://www.w3.org/2000/svg"
   xmlns="http://www.w3.org/2000/svg"
   xmlns:sodipodi="http://sodipodi.sourceforge.net/DTD/sodipodi-0.dtd"
   xmlns:inkscape="http://www.inkscape.org/namespaces/inkscape"
   version="1.1"
   width="32px"
   height="32px"
   id="svg2985"
   inkscape:version="0.91 r13725"
   sodipodi:docname="share_alt.svg">
  <metadata
     id="metadata2995">
    <rdf:RDF>
      <cc:Work
         rdf:about="">
        <dc:format>image/svg+xml</dc:format>
        <dc:type
           rdf:resource="http://purl.org/dc/dcmitype/StillImage" />
      </cc:Work>
    </rdf:RDF>
  </metadata>
  <defs
     id="defs2993" />
  <sodipodi:namedview
     pagecolor="#ffffff"
     bordercolor="#666666"
     borderopacity="1"
     objecttolerance="10"
     gridtolerance="10"
     guidetolerance="10"
     inkscape:pageopacity="0"
     inkscape:pageshadow="2"
     inkscape:window-width="1920"
     inkscape:window-height="1028"
     id="namedview2991"
     showgrid="false"
     inkscape:zoom="7.375"
     inkscape:cx="-0.20338983"
     inkscape:cy="16"
     inkscape:window-x="-8"
     inkscape:window-y="-8"
     inkscape:window-maximized="1"
     inkscape:current-layer="svg2985" />
  <g
     id="g2987"
     transform="matrix(0.01454545,0,0,-0.01454545,-2.4577273,35.727273)" />
  <path
     d="m 0.08,16 q 0,-2.938182 2.0872727,-5.025454 2.0872728,-2.0872733 5.0254543,-2.0872733 1.687273,0 3.149091,0.7490909 1.461818,0.7490914 2.465455,2.0436364 l 9.090909,-5.3672727 q -0.16,-0.7127273 -0.16,-1.2218182 0,-2.1090909 1.490909,-3.6 Q 24.72,0 26.829091,0 q 2.109091,0 3.6,1.4909091 1.490909,1.4909091 1.490909,3.6 0,2.1090909 -1.490909,3.6 -1.490909,1.4909089 -3.6,1.4909089 -1.992727,0 -3.447273,-1.3672725 L 14.087273,14.298182 Q 14.305455,15.214545 14.305455,16 q 0,0.727273 -0.203637,1.643636 l 9.323637,5.512728 q 1.454545,-1.338182 3.403636,-1.338182 2.109091,0 3.6,1.490909 1.490909,1.490909 1.490909,3.6 0,2.109091 -1.490909,3.6 Q 28.938182,32 26.829091,32 q -2.109091,0 -3.6,-1.490909 -1.490909,-1.490909 -1.490909,-3.6 0,-0.567273 0.174545,-1.265455 L 12.836364,20.290909 Q 11.847273,21.6 10.370909,22.356364 q -1.476364,0.756363 -3.178182,0.756363 -2.9381815,0 -5.0254543,-2.087272 Q 0.08,18.938182 0.08,16 Z"
     id="path2989"
     inkscape:connector-curvature="0" />
</svg>
