<?xml version="1.0" encoding="UTF-8" standalone="no"?>
<svg
   xmlns:dc="http://purl.org/dc/elements/1.1/"
   xmlns:cc="http://creativecommons.org/ns#"
   xmlns:rdf="http://www.w3.org/1999/02/22-rdf-syntax-ns#"
   xmlns:svg="http://www.w3.org/2000/svg"
   xmlns="http://www.w3.org/2000/svg"
   xmlns:sodipodi="http://sodipodi.sourceforge.net/DTD/sodipodi-0.dtd"
   xmlns:inkscape="http://www.inkscape.org/namespaces/inkscape"
   version="1.1"
   width="32px"
   height="32px"
   id="svg2985"
   inkscape:version="0.91 r13725"
   sodipodi:docname="shield.svg">
  <metadata
     id="metadata2995">
    <rdf:RDF>
      <cc:Work
         rdf:about="">
        <dc:format>image/svg+xml</dc:format>
        <dc:type
           rdf:resource="http://purl.org/dc/dcmitype/StillImage" />
      </cc:Work>
    </rdf:RDF>
  </metadata>
  <defs
     id="defs2993" />
  <sodipodi:namedview
     pagecolor="#ffffff"
     bordercolor="#666666"
     borderopacity="1"
     objecttolerance="10"
     gridtolerance="10"
     guidetolerance="10"
     inkscape:pageopacity="0"
     inkscape:pageshadow="2"
     inkscape:window-width="1920"
     inkscape:window-height="1028"
     id="namedview2991"
     showgrid="false"
     inkscape:zoom="7.375"
     inkscape:cx="-23.322034"
     inkscape:cy="16"
     inkscape:window-x="-8"
     inkscape:window-y="-8"
     inkscape:window-maximized="1"
     inkscape:current-layer="svg2985" />
  <g
     id="g2987"
     transform="matrix(0.01333333,0,0,-0.01333333,-3,33.333333)" />
  <path
     d="M 1.3333335,9.3333333 1.3333335,4 q 0.2133333,-0.16 0.6333333,-0.4333333 0.42,-0.2733334 1.84,-0.96 1.42,-0.6866667 2.9999997,-1.2133334 1.58,-0.5266666 4.0799995,-0.96 Q 13.386666,0 16,0 q 1.906666,0 3.746666,0.22 1.84,0.22 3.253334,0.5733333 1.413333,0.3533334 2.68,0.78 Q 26.946666,2 27.84,2.4266667 q 0.893333,0.4266666 1.546666,0.78 0.653335,0.3533333 0.960001,0.58 L 30.666667,4 l 0,5.3333333 Q 30.56,12.36 29.993333,15.066667 29.426666,17.773333 28.553333,19.8 27.68,21.826667 26.58,23.58 25.48,25.333333 24.286666,26.546667 23.093333,27.76 21.906666,28.74 20.72,29.72 19.66,30.313333 18.6,30.906667 17.78,31.3 q -0.82,0.393333 -1.3,0.54 L 16,32 q -0.173334,-0.05333 -0.486667,-0.153333 -0.313333,-0.1 -1.28,-0.54 -0.966667,-0.44 -1.906667,-0.993334 Q 11.386666,29.76 10.1,28.746667 8.8133335,27.733333 7.7000005,26.54 6.5866665,25.346667 5.4266668,23.58 q -1.16,-1.766667 -2,-3.78 -0.84,-2.013333 -1.4133333,-4.726667 -0.5733333,-2.713333 -0.68,-5.7399997 z m 4,-0.066667 q 0.093333,2.7466667 0.7066667,5.4000007 l 9.9599998,0 0,13.066666 q 0.6,-0.266666 1.206666,-0.606666 0.606667,-0.34 1.46,-0.946667 0.853334,-0.606667 1.64,-1.32 Q 21.093333,24.146667 21.96,23.093333 22.826666,22.04 23.546666,20.84 q 0.72,-1.2 1.36,-2.8 0.64,-1.6 1.053334,-3.373333 l -9.96,0 L 16,4 13.333333,4 q -1.8,0 -3.9999995,0.7066667 -2.2,0.7066666 -4,1.5866666 l 0,2.9733334 z"
     id="path2989"
     inkscape:connector-curvature="0" />
</svg>
