<?xml version="1.0" encoding="UTF-8" standalone="no"?>
<svg
   xmlns:dc="http://purl.org/dc/elements/1.1/"
   xmlns:cc="http://creativecommons.org/ns#"
   xmlns:rdf="http://www.w3.org/1999/02/22-rdf-syntax-ns#"
   xmlns:svg="http://www.w3.org/2000/svg"
   xmlns="http://www.w3.org/2000/svg"
   xmlns:sodipodi="http://sodipodi.sourceforge.net/DTD/sodipodi-0.dtd"
   xmlns:inkscape="http://www.inkscape.org/namespaces/inkscape"
   version="1.1"
   width="32px"
   height="32px"
   id="svg2985"
   inkscape:version="0.91 r13725"
   sodipodi:docname="shirt.svg">
  <metadata
     id="metadata2995">
    <rdf:RDF>
      <cc:Work
         rdf:about="">
        <dc:format>image/svg+xml</dc:format>
        <dc:type
           rdf:resource="http://purl.org/dc/dcmitype/StillImage" />
      </cc:Work>
    </rdf:RDF>
  </metadata>
  <defs
     id="defs2993" />
  <sodipodi:namedview
     pagecolor="#ffffff"
     bordercolor="#666666"
     borderopacity="1"
     objecttolerance="10"
     gridtolerance="10"
     guidetolerance="10"
     inkscape:pageopacity="0"
     inkscape:pageshadow="2"
     inkscape:window-width="1920"
     inkscape:window-height="1028"
     id="namedview2991"
     showgrid="false"
     inkscape:zoom="7.375"
     inkscape:cx="-23.322034"
     inkscape:cy="16"
     inkscape:window-x="-8"
     inkscape:window-y="-8"
     inkscape:window-maximized="1"
     inkscape:current-layer="svg2985" />
  <g
     id="g2987"
     transform="matrix(0.0128,0,0,-0.0128,-0.98,33.2784)" />
  <path
     d="m 0,28.1472 5.76,-23.04 4.48,-2.3296 0,5.248 5.76,-1.6384 5.76,1.6384 0,-5.248 4.48,2.3296 5.76,23.04 -3.84,0 -3.84,-12.16 0,12.16 q -0.1152,0.1024 -0.3264,0.2624 -0.2112,0.16 -0.9536,0.5888 -0.7424,0.4288 -1.5744,0.7616 -0.832,0.3328 -2.1376,0.6144 -1.3056,0.2816 -2.688,0.32 l 0,-12.7872 -3.4944,11.2896 -5.4656,-2.3296 0,-10.88 -3.84,12.16 -3.84,0 z m 11.52,-22.4 3.84,-0.64 -2.7008,-3.8016 -1.1392,1.2416 0,3.2 z m 5.12,-0.64 3.84,0.64 0,-3.2 -1.1392,-1.2416 z m 1.6384,7.68 4.4032,0 -2.2016,-2.2016 z"
     id="path2989"
     inkscape:connector-curvature="0" />
</svg>
