<?xml version="1.0" encoding="UTF-8" standalone="no"?>
<svg
   xmlns:dc="http://purl.org/dc/elements/1.1/"
   xmlns:cc="http://creativecommons.org/ns#"
   xmlns:rdf="http://www.w3.org/1999/02/22-rdf-syntax-ns#"
   xmlns:svg="http://www.w3.org/2000/svg"
   xmlns="http://www.w3.org/2000/svg"
   xmlns:sodipodi="http://sodipodi.sourceforge.net/DTD/sodipodi-0.dtd"
   xmlns:inkscape="http://www.inkscape.org/namespaces/inkscape"
   version="1.1"
   width="32px"
   height="32px"
   id="svg2985"
   inkscape:version="0.91 r13725"
   sodipodi:docname="shoe_steps.svg">
  <metadata
     id="metadata2995">
    <rdf:RDF>
      <cc:Work
         rdf:about="">
        <dc:format>image/svg+xml</dc:format>
        <dc:type
           rdf:resource="http://purl.org/dc/dcmitype/StillImage" />
      </cc:Work>
    </rdf:RDF>
  </metadata>
  <defs
     id="defs2993" />
  <sodipodi:namedview
     pagecolor="#ffffff"
     bordercolor="#666666"
     borderopacity="1"
     objecttolerance="10"
     gridtolerance="10"
     guidetolerance="10"
     inkscape:pageopacity="0"
     inkscape:pageshadow="2"
     inkscape:window-width="1920"
     inkscape:window-height="1028"
     id="namedview2991"
     showgrid="false"
     inkscape:zoom="7.375"
     inkscape:cx="-0.20338983"
     inkscape:cy="16"
     inkscape:window-x="-8"
     inkscape:window-y="-8"
     inkscape:window-maximized="1"
     inkscape:current-layer="svg2985" />
  <g
     id="g2987"
     transform="matrix(0.01355159,0,0,-0.01355113,-7.152207,33.739071)" />
  <path
     d="M 5.3776761,14.145819 Q 5.4318824,13.630876 5.5945016,13.115933 5.7571207,12.600991 6.0078252,12.18768 6.2585296,11.77437 6.4889067,11.455919 6.719284,11.137467 6.8819031,10.961303 l 0.1626191,-0.176165 4.5262318,5.162982 q -0.121961,0.09486 -0.352341,0.24392 -0.230377,0.149062 -0.894405,0.453963 -0.6640278,0.3049 -1.2874018,0.42686 -0.623372,0.12196 -1.436469,-0.04065 Q 6.787042,16.869596 6.1365652,16.286898 5.7029143,15.799057 5.513192,15.22991 5.3234697,14.660762 5.3776761,14.145819 Z M 5.486089,28.787817 Q 5.580951,28.035729 5.9671707,27.412377 6.3533911,26.789025 6.7734906,26.348612 7.19359,25.9082 7.5323802,25.66428 l 0.338789,-0.24392 3.3201408,6.016702 q -0.08131,0.04065 -0.230377,0.101634 -0.149068,0.06098 -0.589494,0.189715 -0.4404278,0.128736 -0.8673028,0.203267 -0.426874,0.07453 -0.996042,0.06776 -0.569166,-0.0068 -1.050248,-0.142287 Q 6.9767643,31.721636 6.5024583,31.355755 6.0281525,30.989875 5.7164659,30.407176 5.3912276,29.539904 5.4860888,28.787817 Z M 8.5351982,9.1319003 13.386668,14.660762 q 1.328056,-1.08409 2.479942,-1.781973 1.151885,-0.697885 2.053065,-1.063765 0.901182,-0.365881 1.748158,-0.65723 0.846974,-0.291349 1.951429,-0.813068 Q 22.723717,9.8230079 23.902706,9.0641447 25.000384,8.3459349 25.68474,7.3499271 26.369096,6.3539191 26.552043,5.3579112 26.734989,4.3619019 26.511393,3.3997717 26.287791,2.4376416 25.664419,1.7329831 24.661601,0.59468829 22.87279,0.18137889 21.08398,-0.23193061 19.058017,0.29656349 17.032051,0.82505749 15.595583,2.2750281 14.457249,3.4133229 12.695542,5.127542 10.93383,6.8417598 9.7277392,7.9936056 Z m 1.165436,15.0146537 q 1.4364698,-0.907926 2.5951298,-1.951363 1.158662,-1.043437 1.856569,-1.870056 0.697908,-0.826618 1.863344,-1.985241 1.165437,-1.158622 2.520596,-2.188508 1.395816,-1.043436 2.940698,-1.239928 1.544881,-0.196491 2.744197,0.379432 1.199316,0.575923 1.809138,1.687115 0.542064,0.989233 0.535288,2.32402 -0.0068,1.334786 -0.494634,2.64247 -0.487857,1.307684 -1.531329,2.493408 -1.043473,1.185724 -2.439288,1.836178 -0.840198,0.392984 -2.141151,0.982458 -1.300954,0.589474 -2.039517,0.935028 -0.738561,0.345554 -1.985307,0.982457 -1.246747,0.636903 -2.669664,1.409317 z"
     id="path2989"
     inkscape:connector-curvature="0" />
</svg>
