<?xml version="1.0" encoding="UTF-8" standalone="no"?>
<svg
   xmlns:dc="http://purl.org/dc/elements/1.1/"
   xmlns:cc="http://creativecommons.org/ns#"
   xmlns:rdf="http://www.w3.org/1999/02/22-rdf-syntax-ns#"
   xmlns:svg="http://www.w3.org/2000/svg"
   xmlns="http://www.w3.org/2000/svg"
   xmlns:sodipodi="http://sodipodi.sourceforge.net/DTD/sodipodi-0.dtd"
   xmlns:inkscape="http://www.inkscape.org/namespaces/inkscape"
   version="1.1"
   width="32px"
   height="32px"
   id="svg2985"
   inkscape:version="0.91 r13725"
   sodipodi:docname="shopping_bag.svg">
  <metadata
     id="metadata2995">
    <rdf:RDF>
      <cc:Work
         rdf:about="">
        <dc:format>image/svg+xml</dc:format>
        <dc:type
           rdf:resource="http://purl.org/dc/dcmitype/StillImage" />
      </cc:Work>
    </rdf:RDF>
  </metadata>
  <defs
     id="defs2993" />
  <sodipodi:namedview
     pagecolor="#ffffff"
     bordercolor="#666666"
     borderopacity="1"
     objecttolerance="10"
     gridtolerance="10"
     guidetolerance="10"
     inkscape:pageopacity="0"
     inkscape:pageshadow="2"
     inkscape:window-width="1920"
     inkscape:window-height="1028"
     id="namedview2991"
     showgrid="false"
     inkscape:zoom="7.375"
     inkscape:cx="-0.20338983"
     inkscape:cy="16"
     inkscape:window-x="-8"
     inkscape:window-y="-8"
     inkscape:window-maximized="1"
     inkscape:current-layer="svg2985" />
  <g
     id="g2987"
     transform="matrix(0.0125,0,0,-0.0125,-1.125,32.8)" />
  <path
     d="m 1.625,32 0,-21.25 5,-5 1.75,0 Q 8.375,3.8875 9.69375,2.56875 11.0125,1.25 12.875,1.25 l 1.9,0 Q 16.0875,0 17.875,0 l 3.75,0 Q 23.4875,0 24.80625,1.31875 26.125,2.6375 26.125,4.5 l 0,1.25 4.25,0 0,21.25 -5,5 -23.75,0 z m 3.75,-21.25 3,0 0,-2.5 -0.5,0 z m 4.5,0 9.75,0 0,-2.5 -9.75,0 0,2.5 z m 0,-5 3.5,0 0,-1.25 q 0,-0.9125 0.35,-1.75 l -0.85,0 q -1.2375,0 -2.11875,0.88125 Q 9.875,4.5125 9.875,5.75 Z m 5,0 4.75,0 q 0,-1.2375 -0.88125,-2.11875 Q 17.8625,2.75 16.625,2.75 l -1.175,0 Q 14.875,3.5375 14.875,4.5 l 0,1.25 z M 18.05,1.5 q 1.35,0.4625 2.2125,1.625 0.8625,1.1625 0.8625,2.625 l 3.5,0 0,-1.25 q 0,-1.2375 -0.88125,-2.11875 Q 22.8625,1.5 21.625,1.5 l -3.575,0 z m 3.075,9.25 3.625,0 2.5,-2.5 -6.125,0 0,2.5 z"
     id="path2989"
     inkscape:connector-curvature="0" />
</svg>
