<?xml version="1.0" encoding="UTF-8" standalone="no"?>
<svg
   xmlns:dc="http://purl.org/dc/elements/1.1/"
   xmlns:cc="http://creativecommons.org/ns#"
   xmlns:rdf="http://www.w3.org/1999/02/22-rdf-syntax-ns#"
   xmlns:svg="http://www.w3.org/2000/svg"
   xmlns="http://www.w3.org/2000/svg"
   xmlns:sodipodi="http://sodipodi.sourceforge.net/DTD/sodipodi-0.dtd"
   xmlns:inkscape="http://www.inkscape.org/namespaces/inkscape"
   version="1.1"
   width="32px"
   height="32px"
   id="svg2985"
   inkscape:version="0.91 r13725"
   sodipodi:docname="shopping_cart.svg">
  <metadata
     id="metadata2995">
    <rdf:RDF>
      <cc:Work
         rdf:about="">
        <dc:format>image/svg+xml</dc:format>
        <dc:type
           rdf:resource="http://purl.org/dc/dcmitype/StillImage" />
      </cc:Work>
    </rdf:RDF>
  </metadata>
  <defs
     id="defs2993" />
  <sodipodi:namedview
     pagecolor="#ffffff"
     bordercolor="#666666"
     borderopacity="1"
     objecttolerance="10"
     gridtolerance="10"
     guidetolerance="10"
     inkscape:pageopacity="0"
     inkscape:pageshadow="2"
     inkscape:window-width="1920"
     inkscape:window-height="1028"
     id="namedview2991"
     showgrid="false"
     inkscape:zoom="7.375"
     inkscape:cx="-23.322034"
     inkscape:cy="16"
     inkscape:window-x="-8"
     inkscape:window-y="-8"
     inkscape:window-maximized="1"
     inkscape:current-layer="svg2985" />
  <g
     id="g2987"
     transform="matrix(0.01254656,0,0,-0.01254656,-1.4480499,33.145952)" />
  <path
     d="M 0.0313664,8.1207606 Q -0.0940992,7.5185258 0.2822976,7.0543031 0.6712409,6.5900804 1.2609292,6.5900804 l 24.1646738,0 0.966085,-4.0525388 q 0.100372,-0.426583 0.445403,-0.696334 0.34503,-0.269751 0.771613,-0.269751 l 3.13664,0 q 0.514409,0 0.884532,0.3701235 Q 32,2.3117036 32,2.8261125 32,3.3405214 31.629876,3.7106449 31.259753,4.0807685 30.745344,4.0807685 l -2.145462,0 -5.420113,22.5838065 q -0.100373,0.489316 -0.445403,0.871986 -0.345031,0.38267 -0.771614,0.38267 l -1.367575,0 q 0.112919,0.36385 0.112919,0.627328 0,0.777887 -0.552048,1.329935 -0.552049,0.552049 -1.329935,0.552049 -0.777887,0 -1.329936,-0.552049 -0.552048,-0.552048 -0.552048,-1.329935 0,-0.263478 0.112919,-0.627328 l -6.499118,0 q 0.112919,0.301118 0.112919,0.627328 0,0.777887 -0.552049,1.329935 -0.552048,0.552049 -1.329935,0.552049 -0.777887,0 -1.329935,-0.552049 -0.552049,-0.552048 -0.552049,-1.329935 0,-0.263478 0.112919,-0.627328 l -1.3675749,0 q -0.514409,0 -0.8845325,-0.370123 -0.3701235,-0.370124 -0.3701235,-0.884533 0,-0.514409 0.3701235,-0.884532 0.3701235,-0.370124 0.8845325,-0.370124 l 15.3193489,0 1.191923,-5.018624 -18.3932559,0 q -0.4391296,0 -0.7904332,-0.276024 -0.3513037,-0.276024 -0.4391296,-0.702607 z m 2.7978828,0.9786317 0.2760243,1.2546557 1.2922956,0 0,-1.2546557 -1.5683199,0 z m 0.5520486,2.5093117 0.2760243,1.254656 0.740247,0 0,-1.254656 -1.0162713,0 z m 0.5645952,2.509312 0.2760243,1.254656 0.1756518,0 0,-1.254656 -0.4516761,0 z m 1.7063321,3.763968 1.2546559,0 0,-1.254656 -1.2546559,0 0,1.254656 z m 0,-2.509312 1.2546559,0 0,-1.254656 -1.2546559,0 0,1.254656 z m 0,-2.509312 1.2546559,0 0,-1.254656 -1.2546559,0 0,1.254656 z m 0,-2.509312 1.2546559,0 0,-1.2546557 -1.2546559,0 0,1.2546557 z m 2.5093119,7.527936 1.254656,0 0,-1.254656 -1.254656,0 0,1.254656 z m 0,-2.509312 1.254656,0 0,-1.254656 -1.254656,0 0,1.254656 z m 0,-2.509312 1.254656,0 0,-1.254656 -1.254656,0 0,1.254656 z m 0,-2.509312 1.254656,0 0,-1.2546557 -1.254656,0 0,1.2546557 z m 2.509312,7.527936 1.254656,0 0,-1.254656 -1.254656,0 0,1.254656 z m 0,-2.509312 1.254656,0 0,-1.254656 -1.254656,0 0,1.254656 z m 0,-2.509312 1.254656,0 0,-1.254656 -1.254656,0 0,1.254656 z m 0,-2.509312 1.254656,0 0,-1.2546557 -1.254656,0 0,1.2546557 z m 2.509312,7.527936 1.254656,0 0,-1.254656 -1.254656,0 0,1.254656 z m 0,-2.509312 1.254656,0 0,-1.254656 -1.254656,0 0,1.254656 z m 0,-2.509312 1.254656,0 0,-1.254656 -1.254656,0 0,1.254656 z m 0,-2.509312 1.254656,0 0,-1.2546557 -1.254656,0 0,1.2546557 z m 2.509312,7.527936 1.254656,0 0,-1.254656 -1.254656,0 0,1.254656 z m 0,-2.509312 1.254656,0 0,-1.254656 -1.254656,0 0,1.254656 z m 0,-2.509312 1.254656,0 0,-1.254656 -1.254656,0 0,1.254656 z m 0,-2.509312 1.254656,0 0,-1.2546557 -1.254656,0 0,1.2546557 z m 2.509312,7.527936 1.254656,0 0,-1.254656 -1.254656,0 0,1.254656 z m 0,-2.509312 1.254656,0 0,-1.254656 -1.254656,0 0,1.254656 z m 0,-2.509312 1.254656,0 0,-1.254656 -1.254656,0 0,1.254656 z m 0,-2.509312 1.254656,0 0,-1.2546557 -1.254656,0 0,1.2546557 z m 2.509311,7.527936 1.254656,0 0,-1.254656 -1.254656,0 0,1.254656 z m 0,-2.509312 1.254656,0 0,-1.254656 -1.254656,0 0,1.254656 z m 0,-2.509312 1.254656,0 0,-1.254656 -1.254656,0 0,1.254656 z m 0,-2.509312 1.254656,0 0,-1.2546557 -1.254656,0 0,1.2546557 z m 2.509312,5.018624 0.125466,0 0.301117,-1.254656 -0.426583,0 0,1.254656 z m 0,-2.509312 0.727701,0 0.288571,-1.254656 -1.016272,0 0,1.254656 z m 0,-2.509312 1.292296,0 0.276024,-1.2546557 -1.56832,0 0,1.2546557 z"
     id="path2989"
     inkscape:connector-curvature="0" />
</svg>
