<?xml version="1.0" encoding="UTF-8" standalone="no"?>
<svg
   xmlns:dc="http://purl.org/dc/elements/1.1/"
   xmlns:cc="http://creativecommons.org/ns#"
   xmlns:rdf="http://www.w3.org/1999/02/22-rdf-syntax-ns#"
   xmlns:svg="http://www.w3.org/2000/svg"
   xmlns="http://www.w3.org/2000/svg"
   xmlns:sodipodi="http://sodipodi.sourceforge.net/DTD/sodipodi-0.dtd"
   xmlns:inkscape="http://www.inkscape.org/namespaces/inkscape"
   version="1.1"
   width="32px"
   height="32px"
   id="svg2985"
   inkscape:version="0.91 r13725"
   sodipodi:docname="shop.svg">
  <metadata
     id="metadata2995">
    <rdf:RDF>
      <cc:Work
         rdf:about="">
        <dc:format>image/svg+xml</dc:format>
        <dc:type
           rdf:resource="http://purl.org/dc/dcmitype/StillImage" />
      </cc:Work>
    </rdf:RDF>
  </metadata>
  <defs
     id="defs2993" />
  <sodipodi:namedview
     pagecolor="#ffffff"
     bordercolor="#666666"
     borderopacity="1"
     objecttolerance="10"
     gridtolerance="10"
     guidetolerance="10"
     inkscape:pageopacity="0"
     inkscape:pageshadow="2"
     inkscape:window-width="1920"
     inkscape:window-height="1028"
     id="namedview2991"
     showgrid="false"
     inkscape:zoom="7.375"
     inkscape:cx="-23.322034"
     inkscape:cy="16"
     inkscape:window-x="-8"
     inkscape:window-y="-8"
     inkscape:window-maximized="1"
     inkscape:current-layer="svg2985" />
  <g
     id="g2987"
     transform="matrix(0.01321768,0,0,-0.01321768,-0.46022511,33.447955)" />
  <path
     d="m 5e-7,12.563404 q 0,-0.185048 0.033044,-0.482446 0.033044,-0.297397 0.072697,-0.495663 l 0.026435,-0.211483 3.3044196,-5.287071 25.1135889,0 3.30442,5.287071 q 0.145394,0.766626 0.145394,1.189592 0,1.163155 -0.812887,1.976042 -0.812887,0.812887 -1.976043,0.812887 -1.110285,0 -1.909955,-0.773234 -0.799669,-0.773234 -0.85254,-1.883519 -0.01322,-0.05287 -0.03965,-0.125568 -0.02643,-0.0727 -0.165221,-0.191656 -0.138786,-0.118959 -0.337051,-0.118959 -0.198265,0 -0.330442,0.11235 -0.132177,0.11235 -0.17183,0.218092 l -0.02643,0.105741 q -0.05287,1.110285 -0.85254,1.883519 -0.79967,0.773234 -1.923173,0.773234 -1.110285,0 -1.909954,-0.773234 -0.79967,-0.773234 -0.85254,-1.883519 -0.01322,-0.05287 -0.03965,-0.125568 -0.02644,-0.0727 -0.165221,-0.191656 -0.138786,-0.118959 -0.337051,-0.118959 -0.198265,0 -0.330442,0.11235 -0.132177,0.11235 -0.17183,0.218092 l -0.02644,0.105741 q -0.05287,1.110285 -0.852541,1.883519 -0.799669,0.773234 -1.923172,0.773234 -1.110285,0 -1.909954,-0.773234 -0.79967,-0.773234 -0.852541,-1.883519 -0.01322,-0.05287 -0.03965,-0.125568 -0.02643,-0.0727 -0.165221,-0.191656 -0.138785,-0.118959 -0.337051,-0.118959 -0.198265,0 -0.330441,0.11235 -0.132177,0.11235 -0.17183,0.218092 l -0.02644,0.105741 q -0.05287,1.110285 -0.85254,1.883519 -0.799669,0.773234 -1.9231715,0.773234 -1.110285,0 -1.909955,-0.773234 -0.799669,-0.773234 -0.85254,-1.883519 -0.01322,-0.05287 -0.03965,-0.125568 -0.02643,-0.0727 -0.165221,-0.191656 -0.138786,-0.118959 -0.3370506,-0.118959 -0.1982652,0 -0.330442,0.11235 -0.132184,0.11235 -0.171837,0.218092 l -0.026435,0.105741 q -0.052871,1.110285 -0.8525402,1.883519 -0.7996696,0.773234 -1.9231723,0.773234 -1.149938,0 -1.9628253,-0.812887 Q 5e-7,13.726559 5e-7,12.563404 Z m 0.7930607,18.636926 30.4006608,0 0,-1.321768 q 0,-0.541925 -0.389922,-0.931846 -0.389921,-0.389922 -0.931846,-0.389922 l 0,-11.895911 -27.7571249,0 0,11.895911 q -0.5419248,0 -0.9318464,0.389922 -0.3899215,0.389921 -0.3899215,0.931846 l 0,1.321768 z m 1.3217679,-26.4353569 27.7571249,0 0,-2.6435357 q 0,-0.5419248 -0.389922,-0.9318464 -0.389921,-0.38992145 -0.931846,-0.38992145 l -25.1135891,0 q -0.5419248,0 -0.9318463,0.38992145 -0.3899215,0.3899216 -0.3899215,0.9318464 l 0,2.6435357 z m 3.9653036,23.7918209 0,-9.252375 5.2870723,0 0,9.252375 -5.2870723,0 z m 9.2523753,-2.643535 0,-5.287072 10.574143,0 0,5.287072 -10.574143,0 z"
     id="path2989"
     inkscape:connector-curvature="0" />
</svg>
