<?xml version="1.0" encoding="UTF-8" standalone="no"?>
<svg
   xmlns:dc="http://purl.org/dc/elements/1.1/"
   xmlns:cc="http://creativecommons.org/ns#"
   xmlns:rdf="http://www.w3.org/1999/02/22-rdf-syntax-ns#"
   xmlns:svg="http://www.w3.org/2000/svg"
   xmlns="http://www.w3.org/2000/svg"
   xmlns:sodipodi="http://sodipodi.sourceforge.net/DTD/sodipodi-0.dtd"
   xmlns:inkscape="http://www.inkscape.org/namespaces/inkscape"
   version="1.1"
   width="32px"
   height="32px"
   id="svg2985"
   inkscape:version="0.91 r13725"
   sodipodi:docname="show_thumbnails.svg">
  <metadata
     id="metadata2995">
    <rdf:RDF>
      <cc:Work
         rdf:about="">
        <dc:format>image/svg+xml</dc:format>
        <dc:type
           rdf:resource="http://purl.org/dc/dcmitype/StillImage" />
      </cc:Work>
    </rdf:RDF>
  </metadata>
  <defs
     id="defs2993" />
  <sodipodi:namedview
     pagecolor="#ffffff"
     bordercolor="#666666"
     borderopacity="1"
     objecttolerance="10"
     gridtolerance="10"
     guidetolerance="10"
     inkscape:pageopacity="0"
     inkscape:pageshadow="2"
     inkscape:window-width="1920"
     inkscape:window-height="1028"
     id="namedview2991"
     showgrid="false"
     inkscape:zoom="7.375"
     inkscape:cx="-0.20338983"
     inkscape:cy="16"
     inkscape:window-x="-8"
     inkscape:window-y="-8"
     inkscape:window-maximized="1"
     inkscape:current-layer="svg2985" />
  <g
     id="g2987"
     transform="matrix(0.01454545,0,0,-0.01454545,-3.7272727,35.727273)" />
  <path
     d="M 0,31.272727 0,24 q 0,-0.290909 0.2109091,-0.509091 0.2109091,-0.218182 0.5163636,-0.218182 l 7.2727273,0 q 0.305455,0 0.516364,0.218182 Q 8.727273,23.709091 8.727273,24 l 0,7.272727 q 0,0.305455 -0.210909,0.516364 Q 8.305455,32 8,32 L 0.7272727,32 Q 0.4218182,32 0.2109091,31.789091 0,31.578182 0,31.272727 Z M 0,19.636364 0,12.363636 q 0,-0.290909 0.2109091,-0.50909 0.2109091,-0.218182 0.5163636,-0.218182 l 7.2727273,0 q 0.305455,0 0.516364,0.218182 0.210909,0.218181 0.210909,0.50909 l 0,7.272728 q 0,0.305454 -0.210909,0.516363 Q 8.305455,20.363636 8,20.363636 l -7.2727273,0 q -0.3054545,0 -0.5163636,-0.210909 Q 0,19.941818 0,19.636364 Z M 0,8 0,0.7272727 Q 0,0.4363636 0.2109091,0.2181818 0.4218182,0 0.7272727,0 L 8,0 Q 8.305455,0 8.516364,0.2181818 8.727273,0.4363636 8.727273,0.7272727 L 8.727273,8 q 0,0.3054545 -0.210909,0.5163636 Q 8.305455,8.7272727 8,8.7272727 l -7.2727273,0 q -0.3054545,0 -0.5163636,-0.2109091 Q 0,8.3054545 0,8 Z m 11.636364,23.272727 0,-7.272727 q 0,-0.290909 0.210909,-0.509091 0.210909,-0.218182 0.516363,-0.218182 l 7.272728,0 q 0.305454,0 0.516363,0.218182 Q 20.363636,23.709091 20.363636,24 l 0,7.272727 q 0,0.305455 -0.210909,0.516364 Q 19.941818,32 19.636364,32 l -7.272728,0 q -0.305454,0 -0.516363,-0.210909 -0.210909,-0.210909 -0.210909,-0.516364 z m 0,-11.636363 0,-7.272728 q 0,-0.290909 0.210909,-0.50909 0.210909,-0.218182 0.516363,-0.218182 l 7.272728,0 q 0.305454,0 0.516363,0.218182 0.210909,0.218181 0.210909,0.50909 l 0,7.272728 q 0,0.305454 -0.210909,0.516363 -0.210909,0.210909 -0.516363,0.210909 l -7.272728,0 q -0.305454,0 -0.516363,-0.210909 -0.210909,-0.210909 -0.210909,-0.516363 z m 0,-11.636364 0,-7.2727273 q 0,-0.2909091 0.210909,-0.5090909 Q 12.058182,0 12.363636,0 l 7.272728,0 q 0.305454,0 0.516363,0.2181818 0.210909,0.2181818 0.210909,0.5090909 l 0,7.2727273 q 0,0.3054545 -0.210909,0.5163636 -0.210909,0.2109091 -0.516363,0.2109091 l -7.272728,0 q -0.305454,0 -0.516363,-0.2109091 Q 11.636364,8.3054545 11.636364,8 Z m 11.636363,23.272727 0,-7.272727 q 0,-0.290909 0.210909,-0.509091 Q 23.694545,23.272727 24,23.272727 l 7.272727,0 q 0.305455,0 0.516364,0.218182 Q 32,23.709091 32,24 l 0,7.272727 q 0,0.305455 -0.210909,0.516364 Q 31.578182,32 31.272727,32 L 24,32 q -0.305455,0 -0.516364,-0.210909 -0.210909,-0.210909 -0.210909,-0.516364 z m 0,-11.636363 0,-7.272728 q 0,-0.290909 0.210909,-0.50909 Q 23.694545,11.636364 24,11.636364 l 7.272727,0 q 0.305455,0 0.516364,0.218182 Q 32,12.072727 32,12.363636 l 0,7.272728 q 0,0.305454 -0.210909,0.516363 -0.210909,0.210909 -0.516364,0.210909 l -7.272727,0 q -0.305455,0 -0.516364,-0.210909 -0.210909,-0.210909 -0.210909,-0.516363 z m 0,-11.636364 0,-7.2727273 q 0,-0.2909091 0.210909,-0.5090909 Q 23.694545,0 24,0 l 7.272727,0 Q 31.578182,0 31.789091,0.2181818 32,0.4363636 32,0.7272727 L 32,8 q 0,0.3054545 -0.210909,0.5163636 -0.210909,0.2109091 -0.516364,0.2109091 l -7.272727,0 q -0.305455,0 -0.516364,-0.2109091 Q 23.272727,8.3054545 23.272727,8 Z"
     id="path2989"
     inkscape:connector-curvature="0" />
</svg>
