<?xml version="1.0" encoding="UTF-8" standalone="no"?>
<svg
   xmlns:dc="http://purl.org/dc/elements/1.1/"
   xmlns:cc="http://creativecommons.org/ns#"
   xmlns:rdf="http://www.w3.org/1999/02/22-rdf-syntax-ns#"
   xmlns:svg="http://www.w3.org/2000/svg"
   xmlns="http://www.w3.org/2000/svg"
   xmlns:sodipodi="http://sodipodi.sourceforge.net/DTD/sodipodi-0.dtd"
   xmlns:inkscape="http://www.inkscape.org/namespaces/inkscape"
   version="1.1"
   width="32px"
   height="32px"
   id="svg2985"
   inkscape:version="0.91 r13725"
   sodipodi:docname="show_lines.svg">
  <metadata
     id="metadata2995">
    <rdf:RDF>
      <cc:Work
         rdf:about="">
        <dc:format>image/svg+xml</dc:format>
        <dc:type
           rdf:resource="http://purl.org/dc/dcmitype/StillImage" />
      </cc:Work>
    </rdf:RDF>
  </metadata>
  <defs
     id="defs2993" />
  <sodipodi:namedview
     pagecolor="#ffffff"
     bordercolor="#666666"
     borderopacity="1"
     objecttolerance="10"
     gridtolerance="10"
     guidetolerance="10"
     inkscape:pageopacity="0"
     inkscape:pageshadow="2"
     inkscape:window-width="1920"
     inkscape:window-height="1028"
     id="namedview2991"
     showgrid="false"
     inkscape:zoom="7.375"
     inkscape:cx="-0.20338983"
     inkscape:cy="16"
     inkscape:window-x="-8"
     inkscape:window-y="-8"
     inkscape:window-maximized="1"
     inkscape:current-layer="svg2985" />
  <g
     id="g2987"
     transform="matrix(0.01333333,0,0,-0.01333333,-1.3333333,40.166667)" />
  <path
     d="M 0,25.333333 0,22.666667 Q 0,22.4 0.1933333,22.2 0.3866667,22 0.6666667,22 l 30.6666663,0 q 0.28,0 0.473334,0.2 Q 32,22.4 32,22.666667 l 0,2.666666 q 0,0.28 -0.193333,0.473334 Q 31.613333,26 31.333333,26 L 0.6666667,26 q -0.28,0 -0.4733334,-0.193333 Q 0,25.613333 0,25.333333 Z m 0,-8 0,-2.666666 Q 0,14.4 0.1933333,14.2 0.3866667,14 0.6666667,14 l 30.6666663,0 q 0.28,0 0.473334,0.2 Q 32,14.4 32,14.666667 l 0,2.666666 q 0,0.28 -0.193333,0.473334 Q 31.613333,18 31.333333,18 L 0.6666667,18 q -0.28,0 -0.4733334,-0.193333 Q 0,17.613333 0,17.333333 Z M 0,9.3333333 0,6.6666667 Q 0,6.4 0.1933333,6.2 0.3866667,6 0.6666667,6 L 31.333333,6 q 0.28,0 0.473334,0.2 Q 32,6.4 32,6.6666667 l 0,2.6666666 q 0,0.28 -0.193333,0.4733334 Q 31.613333,10 31.333333,10 L 0.6666667,10 q -0.28,0 -0.4733334,-0.1933333 Q 0,9.6133333 0,9.3333333 Z"
     id="path2989"
     inkscape:connector-curvature="0" />
</svg>
