<?xml version="1.0" encoding="UTF-8" standalone="no"?>
<svg
   xmlns:dc="http://purl.org/dc/elements/1.1/"
   xmlns:cc="http://creativecommons.org/ns#"
   xmlns:rdf="http://www.w3.org/1999/02/22-rdf-syntax-ns#"
   xmlns:svg="http://www.w3.org/2000/svg"
   xmlns="http://www.w3.org/2000/svg"
   xmlns:sodipodi="http://sodipodi.sourceforge.net/DTD/sodipodi-0.dtd"
   xmlns:inkscape="http://www.inkscape.org/namespaces/inkscape"
   version="1.1"
   width="32px"
   height="32px"
   id="svg2985"
   inkscape:version="0.91 r13725"
   sodipodi:docname="show_big_thumbnails.svg">
  <metadata
     id="metadata2995">
    <rdf:RDF>
      <cc:Work
         rdf:about="">
        <dc:format>image/svg+xml</dc:format>
        <dc:type
           rdf:resource="http://purl.org/dc/dcmitype/StillImage" />
      </cc:Work>
    </rdf:RDF>
  </metadata>
  <defs
     id="defs2993" />
  <sodipodi:namedview
     pagecolor="#ffffff"
     bordercolor="#666666"
     borderopacity="1"
     objecttolerance="10"
     gridtolerance="10"
     guidetolerance="10"
     inkscape:pageopacity="0"
     inkscape:pageshadow="2"
     inkscape:window-width="1920"
     inkscape:window-height="1028"
     id="namedview2991"
     showgrid="false"
     inkscape:zoom="7.375"
     inkscape:cx="-0.20338983"
     inkscape:cy="16"
     inkscape:window-x="-8"
     inkscape:window-y="-8"
     inkscape:window-maximized="1"
     inkscape:current-layer="svg2985" />
  <g
     id="g2987"
     transform="matrix(0.01454545,0,0,-0.01454545,-3.7272727,35.727273)" />
  <path
     d="M 0,31.272727 0,18.181818 q 0,-0.290909 0.2109091,-0.509091 0.2109091,-0.218182 0.5163636,-0.218182 l 13.0909093,0 q 0.305454,0 0.516363,0.218182 0.21091,0.218182 0.21091,0.509091 l 0,13.090909 q 0,0.305455 -0.21091,0.516364 Q 14.123636,32 13.818182,32 L 0.7272727,32 Q 0.4218182,32 0.2109091,31.789091 0,31.578182 0,31.272727 Z M 0,13.818182 0,0.7272727 Q 0,0.4363636 0.2109091,0.2181818 0.4218182,0 0.7272727,0 L 13.818182,0 q 0.305454,0 0.516363,0.2181818 0.21091,0.2181818 0.21091,0.5090909 l 0,13.0909093 q 0,0.305454 -0.21091,0.516363 -0.210909,0.210909 -0.516363,0.210909 l -13.0909093,0 q -0.3054545,0 -0.5163636,-0.210909 Q 0,14.123636 0,13.818182 Z m 17.454545,17.454545 0,-13.090909 q 0,-0.290909 0.21091,-0.509091 0.210909,-0.218182 0.516363,-0.218182 l 13.090909,0 q 0.305455,0 0.516364,0.218182 Q 32,17.890909 32,18.181818 l 0,13.090909 q 0,0.305455 -0.210909,0.516364 Q 31.578182,32 31.272727,32 l -13.090909,0 q -0.305454,0 -0.516363,-0.210909 -0.21091,-0.210909 -0.21091,-0.516364 z m 0,-17.454545 0,-13.0909093 q 0,-0.2909091 0.21091,-0.5090909 Q 17.876364,0 18.181818,0 L 31.272727,0 Q 31.578182,0 31.789091,0.2181818 32,0.4363636 32,0.7272727 l 0,13.0909093 q 0,0.305454 -0.210909,0.516363 -0.210909,0.210909 -0.516364,0.210909 l -13.090909,0 q -0.305454,0 -0.516363,-0.210909 -0.21091,-0.210909 -0.21091,-0.516363 z"
     id="path2989"
     inkscape:connector-curvature="0" />
</svg>
