<?xml version="1.0" encoding="UTF-8" standalone="no"?>
<svg
   xmlns:dc="http://purl.org/dc/elements/1.1/"
   xmlns:cc="http://creativecommons.org/ns#"
   xmlns:rdf="http://www.w3.org/1999/02/22-rdf-syntax-ns#"
   xmlns:svg="http://www.w3.org/2000/svg"
   xmlns="http://www.w3.org/2000/svg"
   xmlns:sodipodi="http://sodipodi.sourceforge.net/DTD/sodipodi-0.dtd"
   xmlns:inkscape="http://www.inkscape.org/namespaces/inkscape"
   version="1.1"
   width="32px"
   height="32px"
   id="svg2985"
   inkscape:version="0.91 r13725"
   sodipodi:docname="signal.svg">
  <metadata
     id="metadata2995">
    <rdf:RDF>
      <cc:Work
         rdf:about="">
        <dc:format>image/svg+xml</dc:format>
        <dc:type
           rdf:resource="http://purl.org/dc/dcmitype/StillImage" />
      </cc:Work>
    </rdf:RDF>
  </metadata>
  <defs
     id="defs2993" />
  <sodipodi:namedview
     pagecolor="#ffffff"
     bordercolor="#666666"
     borderopacity="1"
     objecttolerance="10"
     gridtolerance="10"
     guidetolerance="10"
     inkscape:pageopacity="0"
     inkscape:pageshadow="2"
     inkscape:window-width="1920"
     inkscape:window-height="1028"
     id="namedview2991"
     showgrid="false"
     inkscape:zoom="7.375"
     inkscape:cx="-23.322034"
     inkscape:cy="16"
     inkscape:window-x="-8"
     inkscape:window-y="-8"
     inkscape:window-maximized="1"
     inkscape:current-layer="svg2985" />
  <g
     id="g2987"
     transform="matrix(0.01333333,0,0,-0.01333333,-1.3333333,33.333333)" />
  <path
     d="m 0,32 0,-8.666667 q 0,-0.266666 0.1933333,-0.466666 0.1933334,-0.2 0.4733334,-0.2 l 4,0 q 0.28,0 0.4733333,0.2 0.1933333,0.2 0.1933333,0.466666 L 5.3333333,32 0,32 Z m 6.666667,0 0,-12.666667 q 0,-0.266666 0.193333,-0.466666 0.193333,-0.2 0.473333,-0.2 l 4,0 q 0.28,0 0.473334,0.2 Q 12,19.066667 12,19.333333 L 12,32 6.666667,32 Z m 6.666666,0 0,-16.666667 q 0,-0.266666 0.193334,-0.466666 0.193333,-0.2 0.473333,-0.2 l 4,0 q 0.28,0 0.473333,0.2 0.193334,0.2 0.193334,0.466666 l 0,16.666667 -5.333334,0 z M 20,32 20,8.6666667 Q 20,8.4 20.193333,8.2 20.386667,8 20.666667,8 l 4,0 q 0.28,0 0.473333,0.2 0.193333,0.2 0.193333,0.4666667 L 25.333333,32 20,32 Z m 6.666667,0 0,-31.3333333 Q 26.666667,0.4 26.86,0.2 27.053333,0 27.333333,0 l 4,0 q 0.28,0 0.473334,0.2 Q 32,0.4 32,0.6666667 L 32,32 26.666667,32 Z"
     id="path2989"
     inkscape:connector-curvature="0" />
</svg>
