<?xml version="1.0" encoding="UTF-8" standalone="no"?>
<svg
   xmlns:dc="http://purl.org/dc/elements/1.1/"
   xmlns:cc="http://creativecommons.org/ns#"
   xmlns:rdf="http://www.w3.org/1999/02/22-rdf-syntax-ns#"
   xmlns:svg="http://www.w3.org/2000/svg"
   xmlns="http://www.w3.org/2000/svg"
   xmlns:sodipodi="http://sodipodi.sourceforge.net/DTD/sodipodi-0.dtd"
   xmlns:inkscape="http://www.inkscape.org/namespaces/inkscape"
   version="1.1"
   width="32px"
   height="32px"
   id="svg2985"
   inkscape:version="0.91 r13725"
   sodipodi:docname="skateboard.svg">
  <metadata
     id="metadata2995">
    <rdf:RDF>
      <cc:Work
         rdf:about="">
        <dc:format>image/svg+xml</dc:format>
        <dc:type
           rdf:resource="http://purl.org/dc/dcmitype/StillImage" />
      </cc:Work>
    </rdf:RDF>
  </metadata>
  <defs
     id="defs2993" />
  <sodipodi:namedview
     pagecolor="#ffffff"
     bordercolor="#666666"
     borderopacity="1"
     objecttolerance="10"
     gridtolerance="10"
     guidetolerance="10"
     inkscape:pageopacity="0"
     inkscape:pageshadow="2"
     inkscape:window-width="1920"
     inkscape:window-height="1028"
     id="namedview2991"
     showgrid="false"
     inkscape:zoom="7.375"
     inkscape:cx="-23.322034"
     inkscape:cy="16"
     inkscape:window-x="-8"
     inkscape:window-y="-8"
     inkscape:window-maximized="1"
     inkscape:current-layer="svg2985" />
  <g
     id="g2987"
     transform="matrix(0.01327259,0,0,-0.01327286,-1.2342812,38.144248)" />
  <path
     d="m 0.12314785,22.703815 q 0.2521794,0.491096 1.02198985,1.048557 1.154716,0.822918 3.3513308,1.333922 2.1966145,0.511006 4.4463205,0.418096 2.249705,-0.09291 3.35133,-0.889281 L 28.619414,12.258074 Q 29.667949,11.501521 30.457668,10.638785 31.247388,9.776049 31.652202,8.90004 32.057016,8.0240321 31.990653,7.2741156 31.924293,6.524199 31.134571,5.9468282 30.344851,5.3694589 28.871593,5.1438203 28.738867,5.117274 28.055329,5.0044552 27.371789,4.8916363 27.185973,4.8717266 q -0.185817,-0.019909 -0.78972,-0.09291 -0.603903,-0.073 -0.856082,-0.059728 -0.252179,0.013273 -0.776447,0.026546 -0.524267,0.013273 -0.84281,0.1128189 Q 23.602372,4.9579995 23.15774,5.097365 22.713108,5.2367302 22.334839,5.4756417 21.95657,5.7145532 21.584938,6.019829 20.576221,6.8692933 19.560867,7.5727549 18.545512,8.2762166 18.027881,8.5682195 L 17.523522,8.8469487 2.6183961,19.491782 q -1.6059844,1.15474 -2.00416215,1.566198 -0.889264,0.876009 -0.4910861,1.645835 z M 15.121183,25.00002 q 0,-0.942372 0.451268,-1.612651 0.451268,-0.670281 1.07508,-0.670281 0.623812,0 1.07508,0.670281 0.451269,0.670279 0.451269,1.612651 0,0.942375 -0.451269,1.612653 -0.451268,0.67028 -1.07508,0.67028 -0.623812,0 -1.07508,-0.67028 -0.451268,-0.670278 -0.451268,-1.612653 z m 11.945336,-9.291003 q 0,-0.942372 0.451268,-1.612652 0.45127,-0.670279 1.075082,-0.670279 0.623812,0 1.07508,0.670279 0.451268,0.67028 0.451268,1.612652 0,0.942373 -0.451268,1.612653 -0.451268,0.670281 -1.07508,0.670281 -0.623812,0 -1.075082,-0.670281 -0.451268,-0.67028 -0.451268,-1.612653 z"
     id="path2989"
     inkscape:connector-curvature="0" />
</svg>
