<?xml version="1.0" encoding="UTF-8" standalone="no"?>
<svg
   xmlns:dc="http://purl.org/dc/elements/1.1/"
   xmlns:cc="http://creativecommons.org/ns#"
   xmlns:rdf="http://www.w3.org/1999/02/22-rdf-syntax-ns#"
   xmlns:svg="http://www.w3.org/2000/svg"
   xmlns="http://www.w3.org/2000/svg"
   xmlns:sodipodi="http://sodipodi.sourceforge.net/DTD/sodipodi-0.dtd"
   xmlns:inkscape="http://www.inkscape.org/namespaces/inkscape"
   version="1.1"
   width="32px"
   height="32px"
   id="svg2985"
   inkscape:version="0.91 r13725"
   sodipodi:docname="smoking.svg">
  <metadata
     id="metadata2995">
    <rdf:RDF>
      <cc:Work
         rdf:about="">
        <dc:format>image/svg+xml</dc:format>
        <dc:type
           rdf:resource="http://purl.org/dc/dcmitype/StillImage" />
      </cc:Work>
    </rdf:RDF>
  </metadata>
  <defs
     id="defs2993" />
  <sodipodi:namedview
     pagecolor="#ffffff"
     bordercolor="#666666"
     borderopacity="1"
     objecttolerance="10"
     gridtolerance="10"
     guidetolerance="10"
     inkscape:pageopacity="0"
     inkscape:pageshadow="2"
     inkscape:window-width="1920"
     inkscape:window-height="1028"
     id="namedview2991"
     showgrid="false"
     inkscape:zoom="7.375"
     inkscape:cx="-23.322034"
     inkscape:cy="16"
     inkscape:window-x="-8"
     inkscape:window-y="-8"
     inkscape:window-maximized="1"
     inkscape:current-layer="svg2985" />
  <g
     id="g2987"
     transform="matrix(0.01332515,0,0,-0.01332498,-4.1041117,31.982572)" />
  <path
     d="m 0.38472964,22.02049 q 0.066626,0.572974 0.1865522,0.572974 0.1066013,0 0.1532393,-0.126587 0.046638,-0.126588 0.1399141,-0.526337 0.093276,-0.39975 0.25317816,-0.952736 0.1599019,-0.552987 0.5729819,-1.592336 0.4130799,-1.039349 1.0127122,-2.265247 0.426405,-0.87945 1.1393011,-1.732249 Q 4.5555047,14.545173 5.2484129,13.938886 5.9413213,13.332599 6.647555,12.739638 7.353788,12.146676 7.806844,11.686964 8.259899,11.227252 8.453114,10.774203 8.646329,10.321153 8.353176,9.8880912 8.060022,9.4550292 7.247188,9.0153048 5.9812982,8.3357307 7.220538,6.8699821 7.79352,6.1904066 9.619067,4.6580336 11.417963,3.1523105 11.950969,2.4594112 13.016982,1.0869379 11.577865,0.5139637 10.738381,0.1675141 8.992785,0.0475893 6.91406,-0.0856606 5.3283655,0.1541891 3.7426715,0.3940388 2.8232355,0.8870632 1.9037995,1.3800876 1.3308175,2.0863117 0.75783564,2.7925359 0.59127104,3.5320725 q -0.1665644,0.7395366 -0.1199264,1.5257106 0.046638,0.786174 0.2331903,1.3991245 0.1865522,0.6129493 0.45305546,1.1059736 0.3997548,0.7328745 1.0326999,1.3191738 0.6329452,0.5862992 1.0393625,0.8861113 0.4064173,0.2998127 0.6529329,0.7395367 0.2465155,0.439724 0,1.125961 -0.2465172,0.686237 -1.0593518,1.79221 -0.7861845,1.079324 -1.3391788,2.418485 -0.55299406,1.339162 -0.77952176,2.48511 -0.2265276,1.145949 -0.3064786,2.131998 -0.0799514,0.986048 -0.013325,1.559023 z m 0.61961976,6.056206 q 0.086614,-0.792837 0.6462703,-1.445761 L 6.354401,31.334654 Q 5.7014683,31.894304 4.9086214,31.980916 4.1157744,32.067528 3.4095409,31.761054 2.7033075,31.454579 2.1170004,30.86828 1.5306933,30.281981 1.2242146,29.575756 0.91773594,28.869532 1.0043494,28.076696 Z M 2.9698107,25.298437 19.732861,8.5356054 24.449968,13.239325 7.686917,30.015481 Z M 21.012077,7.2697316 25.715858,11.973451 31.645555,6.0571568 26.928448,1.3401126 Z"
     id="path2989"
     inkscape:connector-curvature="0" />
</svg>
