<?xml version="1.0" encoding="UTF-8" standalone="no"?>
<svg
   xmlns:dc="http://purl.org/dc/elements/1.1/"
   xmlns:cc="http://creativecommons.org/ns#"
   xmlns:rdf="http://www.w3.org/1999/02/22-rdf-syntax-ns#"
   xmlns:svg="http://www.w3.org/2000/svg"
   xmlns="http://www.w3.org/2000/svg"
   xmlns:sodipodi="http://sodipodi.sourceforge.net/DTD/sodipodi-0.dtd"
   xmlns:inkscape="http://www.inkscape.org/namespaces/inkscape"
   version="1.1"
   width="32px"
   height="32px"
   id="svg2985"
   inkscape:version="0.91 r13725"
   sodipodi:docname="snorkel_diving.svg">
  <metadata
     id="metadata2995">
    <rdf:RDF>
      <cc:Work
         rdf:about="">
        <dc:format>image/svg+xml</dc:format>
        <dc:type
           rdf:resource="http://purl.org/dc/dcmitype/StillImage" />
      </cc:Work>
    </rdf:RDF>
  </metadata>
  <defs
     id="defs2993" />
  <sodipodi:namedview
     pagecolor="#ffffff"
     bordercolor="#666666"
     borderopacity="1"
     objecttolerance="10"
     gridtolerance="10"
     guidetolerance="10"
     inkscape:pageopacity="0"
     inkscape:pageshadow="2"
     inkscape:window-width="1920"
     inkscape:window-height="1028"
     id="namedview2991"
     showgrid="false"
     inkscape:zoom="7.375"
     inkscape:cx="-23.322034"
     inkscape:cy="16"
     inkscape:window-x="-8"
     inkscape:window-y="-8"
     inkscape:window-maximized="1"
     inkscape:current-layer="svg2985" />
  <g
     id="g2987"
     transform="matrix(0.01185185,0,0,-0.01185183,0.72222222,32.656283)" />
  <path
     d="M 0,12.368629 0,6.4664185 Q 0,6.229382 0.1718519,6.0516046 0.3437037,5.8738271 0.5925926,5.8738271 l 1.7777778,0 q 0,-0.4859248 0.1659259,-0.9007388 Q 2.7022222,4.5582749 2.9511111,4.2679051 3.2,3.9775353 3.6148148,3.722721 4.0296296,3.4679067 4.3911111,3.3138329 4.7525926,3.1597591 5.2977778,3.0116113 5.842963,2.8634634 6.2044444,2.7923525 6.5659259,2.7212414 7.122963,2.6145751 7.68,2.5079084 7.928889,2.4486494 9.896296,2.0101318 10.797037,1.8205026 q 0.900741,-0.1896293 2.53037,-0.3970363 1.62963,-0.207407 2.921482,-0.1837033 1.291852,0.023704 2.844444,0.2370366 1.552593,0.2133328 2.595556,0.4266658 1.042963,0.2133329 2.785185,0.6044431 0.13037,0.035556 0.568889,0.1303702 0.438518,0.094815 0.663704,0.1481479 0.225185,0.053333 0.663703,0.1718515 0.438519,0.1185185 0.69926,0.2133328 0.26074,0.094815 0.645926,0.2607403 0.385185,0.1659256 0.622222,0.3259252 0.237037,0.1599998 0.509629,0.3911104 0.272593,0.2311107 0.426667,0.4799991 0.154074,0.2488877 0.254815,0.5688871 0.100741,0.3199993 0.100741,0.6755541 l 1.777777,0 q 0.248889,0 0.420741,0.1777775 Q 32,6.229382 32,6.4664185 l 0,5.9259145 q 0,0.248888 -0.171852,0.420739 -0.171852,0.171852 -0.420741,0.171852 l -1.777777,0 q 0,0.936293 -0.645926,1.66518 -0.645926,0.728888 -1.582223,0.835555 l -8.438518,0.91259 q -0.331852,0.04741 -0.77037,-0.03556 -0.237037,0.177778 -0.533334,0.177778 l -3.555555,0 q -0.32,0 -0.533334,-0.177778 -0.45037,0.08296 -0.782222,0.03556 L 4.5985185,15.450103 Q 3.6622222,15.355288 3.0162963,14.632327 2.3703704,13.909365 2.3703704,12.96122 l -1.7777778,0 q -0.2488889,0 -0.4207407,-0.177778 Q 0,12.605666 0,12.368629 Z m 2.0740741,13.060713 q 0,-1.220738 0.5333333,-2.245921 0.5333333,-1.025183 1.4162963,-1.688885 0.882963,-0.663703 1.9911111,-1.03111 1.1081482,-0.367406 2.2814812,-0.367406 0.01185,-0.04741 0.02963,-0.130371 0.01778,-0.08296 0.09481,-0.284443 0.07704,-0.201481 0.171852,-0.355556 0.09481,-0.154072 0.254814,-0.284443 0.16,-0.13037 0.337778,-0.13037 l 1.481482,0 q 0,0.165926 0.02963,0.539258 0.02963,0.373332 0.02963,0.604443 0,0.231111 -0.05333,0.497777 -0.05333,0.266666 -0.237037,0.408889 -0.183704,0.142221 -0.503704,0.165924 -0.284445,0.0237 -0.414815,0.34963 -0.13037,0.325925 -0.05333,0.675554 0.07704,0.349629 0.325926,0.42074 0.13037,0.03556 0.355555,0.07704 0.225185,0.04148 0.302222,0.07704 0.07704,0.03556 0.148149,0.183703 0.07111,0.148148 0.07111,0.432592 l 0,1.49333 -1.481482,0 q -0.284444,0 -0.509629,-0.296295 Q 8.450371,24.244166 8.367408,23.94787 l -0.07111,-0.296296 q -0.462222,0 -0.711111,0.01185 -0.2488887,0.01185 -0.6162961,0.05926 -0.3674074,0.04741 -0.562963,0.16 -0.1955555,0.112593 -0.397037,0.302221 -0.2014815,0.18963 -0.2903704,0.503703 -0.088889,0.314074 -0.088889,0.740739 0,0.426666 0.088889,0.74074 0.088889,0.314073 0.2903704,0.503702 0.2014815,0.18963 0.397037,0.302221 0.1955556,0.112593 0.562963,0.16 0.3674074,0.04741 0.6162961,0.05926 0.248889,0.01185 0.711111,0.01185 l 0,3.555548 q -1.173333,0 -2.2814812,-0.367406 Q 4.9066687,30.027851 4.0237057,29.364149 3.1407407,28.700446 2.6074074,27.675264 2.0740741,26.650081 2.0740741,25.429342 Z M 3.5555556,12.96122 q 0,0.485925 0.3437037,0.871109 0.3437037,0.385184 0.8296296,0.444443 l 8.1896301,0.948146 q 0.426666,0.04741 0.942222,-0.734814 0.515555,-0.782219 0.74074,-1.445921 l 0.426667,-1.303701 q 0.05926,-0.154074 0.112593,-0.539258 0.05333,-0.385184 0.112592,-0.675554 0.05926,-0.29037 0.248889,-0.5274066 0.18963,-0.237037 0.497778,-0.237037 0.308148,0 0.497778,0.2429626 0.189629,0.242963 0.248889,0.527407 0.05926,0.284444 0.118518,0.675554 0.05926,0.39111 0.106667,0.533332 l 0.426667,1.303701 q 0.13037,0.367406 0.237037,0.634072 0.106666,0.266665 0.308148,0.693332 0.201481,0.426666 0.432592,0.651851 0.231111,0.225184 0.456297,0.20148 l 8.438518,-0.924442 q 0.485926,-0.05926 0.82963,-0.444443 0.343703,-0.385185 0.343703,-0.871109 l 0,-7.1110969 q 0,-0.4740731 -0.343703,-0.8355537 -0.343704,-0.3614802 -0.841482,-0.4681466 -2.56,-0.5214806 -5.06074,-0.9599981 Q 21.724444,3.5271657 20.705185,3.3197589 19.685926,3.1123518 19.075556,2.9997594 18.465185,2.8871668 17.594074,2.7864266 16.722963,2.6856858 16,2.6856858 q -0.746667,0 -1.659259,0.1066667 -0.912593,0.1066667 -1.552593,0.2251847 -0.64,0.1185185 -1.700741,0.3259253 -1.06074,0.207407 -1.558518,0.3022216 Q 7.1111111,4.0960536 4.6933333,4.5701268 4.2074074,4.6649416 3.8814815,5.0264215 3.5555556,5.3879023 3.5555556,5.8738271 l 0,7.0873929 z m 1.2325925,-2.014811 0,-3.6503625 q 0,-0.3792584 0.2725926,-0.68148 0.2725926,-0.3022217 0.64,-0.3377771 l 8.5688893,-0.9244427 0.0237,0 q 0.308148,0 0.444445,0.1718515 0.136296,0.1718515 0.05333,0.4562955 l -1.706667,6.1155443 q -0.106666,0.367406 -0.45037,0.586665 -0.343704,0.219258 -0.722963,0.171851 L 5.7125926,12.001223 Q 5.3333333,11.941964 5.0607407,11.627889 4.7881481,11.313817 4.7881481,10.946409 Z m 4.6933329,19.816256 0,-3.555548 14.222223,0 0,3.555548 -14.222223,0 z M 17.208889,5.9804937 q -0.08296,-0.2607403 0.03556,-0.4444436 0.118519,-0.1837034 0.391112,-0.1837034 l 8.687407,0.9244427 q 0.367407,0.035556 0.64,0.3377771 0.272593,0.3022216 0.272593,0.68148 l 0,3.6503625 q 0,0.379259 -0.272593,0.693332 -0.272593,0.314074 -0.64,0.361482 l -6.222222,0.853331 q -0.37926,0.04741 -0.722963,-0.171851 -0.343704,-0.219259 -0.450371,-0.586665 z m 7.68,24.7821713 0,-3.555548 4.740741,0 0,3.555548 -4.740741,0 z"
     id="path2989"
     inkscape:connector-curvature="0" />
</svg>
