<?xml version="1.0" encoding="UTF-8" standalone="no"?>
<svg
   xmlns:dc="http://purl.org/dc/elements/1.1/"
   xmlns:cc="http://creativecommons.org/ns#"
   xmlns:rdf="http://www.w3.org/1999/02/22-rdf-syntax-ns#"
   xmlns:svg="http://www.w3.org/2000/svg"
   xmlns="http://www.w3.org/2000/svg"
   xmlns:sodipodi="http://sodipodi.sourceforge.net/DTD/sodipodi-0.dtd"
   xmlns:inkscape="http://www.inkscape.org/namespaces/inkscape"
   version="1.1"
   width="32px"
   height="32px"
   id="svg2985"
   inkscape:version="0.91 r13725"
   sodipodi:docname="snowflake.svg">
  <metadata
     id="metadata2995">
    <rdf:RDF>
      <cc:Work
         rdf:about="">
        <dc:format>image/svg+xml</dc:format>
        <dc:type
           rdf:resource="http://purl.org/dc/dcmitype/StillImage" />
      </cc:Work>
    </rdf:RDF>
  </metadata>
  <defs
     id="defs2993" />
  <sodipodi:namedview
     pagecolor="#ffffff"
     bordercolor="#666666"
     borderopacity="1"
     objecttolerance="10"
     gridtolerance="10"
     guidetolerance="10"
     inkscape:pageopacity="0"
     inkscape:pageshadow="2"
     inkscape:window-width="1920"
     inkscape:window-height="1028"
     id="namedview2991"
     showgrid="false"
     inkscape:zoom="7.375"
     inkscape:cx="-0.20338983"
     inkscape:cy="16"
     inkscape:window-x="-8"
     inkscape:window-y="-8"
     inkscape:window-maximized="1"
     inkscape:current-layer="svg2985" />
  <g
     id="g2987"
     transform="matrix(0.01144492,0,0,-0.01144492,1.9742203,30.02578)" />
  <path
     d="m 0,16 q 0,-0.434907 0.297568,-0.7897 0.2975679,-0.354792 0.8240343,-0.354792 l 1.8197425,0 -1.0872675,-1.075823 Q 1.602289,13.527897 1.5393419,13.224607 q -0.062947,-0.303291 0.034335,-0.566524 0.097282,-0.263233 0.3090129,-0.474964 0.211731,-0.211731 0.4749642,-0.309013 0.2632332,-0.09728 0.5665236,-0.03433 0.3032904,0.06295 0.5550787,0.314735 l 2.6895565,2.701002 3.4334764,0 1.213162,-2.426323 -2.151646,-2.151646 -4.1087263,0 q -0.5264664,0 -0.8240344,-0.3547922 -0.2975679,-0.3547926 -0.2975679,-0.7896996 0,-0.434907 0.2975679,-0.7896996 0.297568,-0.3547925 0.8240344,-0.3547925 l 1.8197425,0 L 4.6695279,6.2947067 Q 4.4177396,6.0429185 4.3547926,5.739628 4.2918455,5.4363376 4.3891273,5.1731044 4.4864092,4.9098712 4.6981402,4.6981402 4.9098712,4.4864092 5.1731044,4.3891273 5.4363376,4.2918455 5.739628,4.3547926 6.0429185,4.4177396 6.2947067,4.6695279 l 1.6938483,1.7052933 0,-1.8197425 q 0,-0.5264664 0.354793,-0.8240344 0.354792,-0.2975679 0.789699,-0.2975679 0.434907,0 0.7897,0.2975679 0.354792,0.297568 0.354792,0.8240344 l 0,4.1087267 2.151646,2.1516456 2.426323,-1.213162 0,-3.4334764 -2.701002,-2.6895565 q -0.251788,-0.2517883 -0.314735,-0.5550787 -0.06295,-0.3032904 0.03434,-0.5665236 0.09728,-0.2632332 0.309013,-0.4749642 0.211731,-0.2117311 0.474964,-0.3090129 0.263233,-0.097282 0.566524,-0.034335 0.30329,0.062947 0.555078,0.3147353 l 1.075823,1.0872675 0,-1.8197425 q 0,-0.5264663 0.354792,-0.8240342 Q 15.565093,0 16,0 q 0.434907,0 0.7897,0.297568 0.354792,0.2975679 0.354792,0.8240343 l 0,1.8197425 1.075823,-1.0872676 q 0.251788,-0.2517882 0.555078,-0.3147353 0.303291,-0.062947 0.566524,0.034335 0.263233,0.097282 0.474964,0.3090129 0.211731,0.211731 0.309013,0.4749642 0.09728,0.2632332 0.03434,0.5665236 -0.06295,0.3032904 -0.314735,0.5550787 l -2.701002,2.6895565 0,3.4334764 2.426323,1.213162 2.151646,-2.1516456 0,-4.1087267 q 0,-0.5264664 0.354792,-0.8240344 0.354793,-0.2975679 0.7897,-0.2975679 0.434907,0 0.789699,0.2975679 0.354793,0.297568 0.354793,0.8240344 l 0,1.8197425 1.705293,-1.7052933 q 0.217454,-0.2174535 0.474964,-0.297568 0.257511,-0.080114 0.48641,-0.02289 0.228898,0.057225 0.440629,0.1888412 0.211731,0.1316166 0.343348,0.3490701 0.131616,0.2174535 0.188841,0.4463519 0.05723,0.2288985 -0.02289,0.4864092 -0.08011,0.2575107 -0.297568,0.4749642 l -1.705298,1.6938484 1.819742,0 q 0.526467,0 0.824035,0.3547925 0.297568,0.3547926 0.297568,0.7896996 0,0.434907 -0.297568,0.7896996 -0.297568,0.3547924 -0.824035,0.3547924 l -4.108726,0 -2.151646,2.151646 1.213162,2.426323 3.433476,0 2.689557,-2.701002 q 0.251788,-0.251788 0.555079,-0.314735 0.30329,-0.06295 0.566523,0.03433 0.263233,0.09728 0.474964,0.309013 0.211731,0.211731 0.309013,0.474964 0.09728,0.263233 0.03433,0.566524 -0.06295,0.30329 -0.314735,0.555078 l -1.087268,1.075823 1.819743,0 q 0.526466,0 0.824034,0.354792 Q 32,15.565093 32,16 q 0,0.434907 -0.297568,0.7897 -0.297568,0.354792 -0.824034,0.354792 l -1.819743,0 1.087268,1.075823 q 0.251788,0.251788 0.314735,0.555078 0.06295,0.303291 -0.03433,0.566524 -0.09728,0.263233 -0.309013,0.474964 -0.211731,0.211731 -0.474964,0.309013 -0.263233,0.09728 -0.566523,0.03434 -0.303296,-0.06295 -0.555084,-0.314735 l -2.689557,-2.701002 -3.433476,0 -1.213162,2.414879 2.151646,2.16309 4.108726,0 q 0.526467,0 0.824035,0.354792 0.297568,0.354793 0.297568,0.7897 0,0.434907 -0.297568,0.789699 -0.297568,0.354793 -0.824035,0.354793 l -1.819742,0 1.705293,1.705293 q 0.217454,0.217454 0.297568,0.474964 0.08011,0.257511 0.02289,0.48641 -0.05722,0.228898 -0.188841,0.440629 -0.131617,0.211731 -0.343348,0.343348 -0.211731,0.131616 -0.440629,0.188841 -0.228899,0.05722 -0.48641,-0.02289 -0.25751,-0.08011 -0.474964,-0.297568 l -1.705293,-1.705293 0,1.819742 q 0,0.526467 -0.354793,0.824035 -0.354792,0.297568 -0.789699,0.297568 -0.434907,0 -0.7897,-0.297568 -0.354792,-0.297568 -0.354792,-0.824035 l 0,-4.108726 -2.16309,-2.151646 -2.414879,1.213162 0,3.433476 2.701002,2.689557 q 0.251788,0.251788 0.314735,0.555079 0.06295,0.30329 -0.03434,0.566523 -0.09728,0.263233 -0.309013,0.474964 -0.211731,0.211731 -0.474964,0.309013 -0.263233,0.09728 -0.566524,0.03433 -0.30329,-0.06295 -0.555078,-0.314735 l -1.075823,-1.087268 0,1.819743 q 0,0.526466 -0.354792,0.824034 Q 16.434902,32 15.999995,32 q -0.434907,0 -0.7897,-0.297568 -0.354787,-0.297568 -0.354787,-0.824034 l 0,-1.819743 -1.075823,1.087268 q -0.251788,0.251788 -0.555078,0.314735 -0.303291,0.06295 -0.566524,-0.03433 -0.263233,-0.09728 -0.474964,-0.309013 -0.211731,-0.211731 -0.309013,-0.474964 -0.09728,-0.263233 -0.03434,-0.566523 0.06295,-0.303291 0.314735,-0.555079 l 2.701002,-2.689557 0,-3.433476 -2.426323,-1.213162 -2.151646,2.151646 0,4.108726 q 0,0.526467 -0.354792,0.824035 -0.354793,0.297568 -0.7897,0.297568 -0.434907,0 -0.789699,-0.297568 -0.354788,-0.297568 -0.354788,-0.824035 l 0,-1.819742 -1.6938483,1.705293 Q 6.0772532,27.547926 5.8197425,27.62804 5.5622318,27.708155 5.3333333,27.65093 5.1044349,27.593705 4.8869814,27.462089 4.6695279,27.330472 4.5379113,27.118741 4.4062947,26.90701 4.3490701,26.678112 q -0.057225,-0.228899 0.02289,-0.48641 0.080115,-0.25751 0.297568,-0.474964 l 1.7052931,-1.705293 -1.8197425,0 q -0.5264664,0 -0.8240344,-0.354793 -0.2975679,-0.354792 -0.2975679,-0.789699 0,-0.434907 0.2975679,-0.7897 0.297568,-0.354792 0.8240344,-0.354792 l 4.1087263,0 2.151646,-2.151646 -1.213162,-2.426323 -3.4334764,0 -2.6895565,2.701002 Q 2.9871245,20.337625 2.3633763,20.120172 1.739628,19.902718 1.5793991,19.341917 1.4191702,18.781116 1.8540773,18.220315 l 1.0872675,-1.075823 -1.8197425,0 q -0.5264664,0 -0.8240343,-0.354792 Q 0,16.434907 0,16 Z m 11.593705,0 1.46495,2.941345 L 16,20.406295 18.941345,18.941345 20.406295,16 18.941345,13.058655 16,11.593705 l -2.941345,1.46495 z"
     id="path2989"
     inkscape:connector-curvature="0" />
</svg>
