<?xml version="1.0" encoding="UTF-8" standalone="no"?>
<svg
   xmlns:dc="http://purl.org/dc/elements/1.1/"
   xmlns:cc="http://creativecommons.org/ns#"
   xmlns:rdf="http://www.w3.org/1999/02/22-rdf-syntax-ns#"
   xmlns:svg="http://www.w3.org/2000/svg"
   xmlns="http://www.w3.org/2000/svg"
   xmlns:sodipodi="http://sodipodi.sourceforge.net/DTD/sodipodi-0.dtd"
   xmlns:inkscape="http://www.inkscape.org/namespaces/inkscape"
   version="1.1"
   width="32px"
   height="32px"
   id="svg2985"
   inkscape:version="0.91 r13725"
   sodipodi:docname="soccer_ball.svg">
  <metadata
     id="metadata2995">
    <rdf:RDF>
      <cc:Work
         rdf:about="">
        <dc:format>image/svg+xml</dc:format>
        <dc:type
           rdf:resource="http://purl.org/dc/dcmitype/StillImage" />
      </cc:Work>
    </rdf:RDF>
  </metadata>
  <defs
     id="defs2993" />
  <sodipodi:namedview
     pagecolor="#ffffff"
     bordercolor="#666666"
     borderopacity="1"
     objecttolerance="10"
     gridtolerance="10"
     guidetolerance="10"
     inkscape:pageopacity="0"
     inkscape:pageshadow="2"
     inkscape:window-width="1920"
     inkscape:window-height="1028"
     id="namedview2991"
     showgrid="false"
     inkscape:zoom="7.375"
     inkscape:cx="-0.20338983"
     inkscape:cy="16"
     inkscape:window-x="-8"
     inkscape:window-y="-8"
     inkscape:window-maximized="1"
     inkscape:current-layer="svg2985" />
  <g
     id="g2987"
     transform="matrix(0.0132725,0,0,-0.0132725,-1.2910017,33.291002)" />
  <path
     d="M 0,15.993364 Q 0,13.391954 0.8096226,10.95645 1.6192451,8.5209457 3.099129,6.5499793 4.5790129,4.5790129 6.549979,3.099129 8.520946,1.6192451 10.963086,0.8096226 13.405226,0 16.006636,0 q 2.163418,0 4.240564,0.5773538 2.077147,0.5773538 3.829117,1.6059726 1.75197,1.0286189 3.231854,2.5085027 1.479884,1.4798839 2.508503,3.231854 Q 30.845292,9.6756533 31.422646,11.7528 32,13.829946 32,15.993364 q 0,2.60141 -0.809623,5.04355 -0.809622,2.44214 -2.289506,4.413107 -1.479884,1.970966 -3.45085,3.45085 -1.970967,1.479884 -4.406471,2.289506 Q 18.608046,32 16.006636,32 13.405226,32 10.963086,31.190377 8.520946,30.380755 6.549979,28.900871 4.5790129,27.420987 3.099129,25.450021 1.6192451,23.479054 0.8096226,21.036914 0,18.594774 0,15.993364 Z m 2.6545002,0 q 0,4.074658 2.2828702,7.472418 l 0.9423476,-1.951058 3.902115,1.300705 1.43343,3.875571 -1.75197,0.929075 q 3.052675,1.725425 6.543343,1.725425 3.304853,0 6.211531,-1.53961 l -2.1236,-1.11489 1.43343,-3.875571 3.915387,-1.300705 1.207798,2.508503 q 2.694318,-3.583575 2.694318,-8.029863 0,-1.207798 -0.225633,-2.415595 l -1.605972,1.871422 -3.623393,-2.747407 0.172542,-4.5259234 2.694318,-0.05309 Q 24.182497,4.6188304 20.081294,3.2915803 L 20.970552,4.8710079 15.927001,6.941518 10.870178,4.8444629 11.719618,3.3712153 Q 7.751141,4.7250104 5.2426379,8.1227706 l 2.5483201,0.05309 0.172543,4.5259224 -3.6233932,2.747408 -1.4732476,-1.725425 q -0.21236,1.194525 -0.21236,2.269598 z m 8.2156778,-1.712153 5.056823,-3.596848 5.043551,3.557031 -1.924513,5.813355 -6.238075,0 z"
     id="path2989"
     inkscape:connector-curvature="0" />
</svg>
