<?xml version="1.0" encoding="UTF-8" standalone="no"?>
<svg
   xmlns:dc="http://purl.org/dc/elements/1.1/"
   xmlns:cc="http://creativecommons.org/ns#"
   xmlns:rdf="http://www.w3.org/1999/02/22-rdf-syntax-ns#"
   xmlns:svg="http://www.w3.org/2000/svg"
   xmlns="http://www.w3.org/2000/svg"
   xmlns:sodipodi="http://sodipodi.sourceforge.net/DTD/sodipodi-0.dtd"
   xmlns:inkscape="http://www.inkscape.org/namespaces/inkscape"
   version="1.1"
   width="32px"
   height="32px"
   id="svg2985"
   inkscape:version="0.91 r13725"
   sodipodi:docname="sort_by_attributes_alt.svg">
  <metadata
     id="metadata2995">
    <rdf:RDF>
      <cc:Work
         rdf:about="">
        <dc:format>image/svg+xml</dc:format>
        <dc:type
           rdf:resource="http://purl.org/dc/dcmitype/StillImage" />
      </cc:Work>
    </rdf:RDF>
  </metadata>
  <defs
     id="defs2993" />
  <sodipodi:namedview
     pagecolor="#ffffff"
     bordercolor="#666666"
     borderopacity="1"
     objecttolerance="10"
     gridtolerance="10"
     guidetolerance="10"
     inkscape:pageopacity="0"
     inkscape:pageshadow="2"
     inkscape:window-width="1920"
     inkscape:window-height="1028"
     id="namedview2991"
     showgrid="false"
     inkscape:zoom="7.375"
     inkscape:cx="-0.20338983"
     inkscape:cy="16"
     inkscape:window-x="-8"
     inkscape:window-y="-8"
     inkscape:window-maximized="1"
     inkscape:current-layer="svg2985" />
  <g
     id="g2987"
     transform="matrix(0.01391304,0,0,-0.01391304,-1.7608696,34.554348)" />
  <path
     d="m 0,22.608696 5.565217,0 0,-20.8695656 q 0,-0.5704348 0.410435,-0.9808695 0.410435,-0.4104348 0.98087,-0.4104348 l 4.173913,0 q 0.570435,0 0.980869,0.4104348 0.410435,0.4104347 0.410435,0.9808695 l 0,20.8695656 5.565218,0 -9.043479,9.043478 z m 19.478261,6.956521 q 0,0.570435 0.410435,0.98087 0.410434,0.410435 0.980869,0.410435 l 2.782609,0 q 0.570435,0 0.980869,-0.410435 0.410435,-0.410435 0.410435,-0.98087 l 0,-2.782608 q 0,-0.570435 -0.410435,-0.98087 -0.410434,-0.410435 -0.980869,-0.410435 l -2.782609,0 q -0.570435,0 -0.980869,0.410435 -0.410435,0.410435 -0.410435,0.98087 l 0,2.782608 z m 0,-8.347826 0,-2.782608 q 0,-0.570435 0.410435,-0.98087 0.410434,-0.410435 0.980869,-0.410435 l 4.173913,0 q 0.570435,0 0.98087,0.410435 0.410435,0.410435 0.410435,0.98087 l 0,2.782608 q 0,0.570435 -0.410435,0.98087 -0.410435,0.410435 -0.98087,0.410435 l -4.173913,0 q -0.570435,0 -0.980869,-0.410435 -0.410435,-0.410435 -0.410435,-0.98087 z m 0,-8.347826 0,-2.782608 q 0,-0.5704353 0.410435,-0.9808701 0.410434,-0.4104347 0.980869,-0.4104347 l 6.956522,0 q 0.570435,0 0.98087,0.4104347 0.410434,0.4104348 0.410434,0.9808701 l 0,2.782608 q 0,0.570435 -0.410434,0.98087 -0.410435,0.410435 -0.98087,0.410435 l -6.956522,0 q -0.570435,0 -0.980869,-0.410435 Q 19.478261,13.44 19.478261,12.869565 Z m 0,-8.3478259 0,-2.7826087 q 0,-0.5704348 0.410435,-0.9808695 0.410434,-0.4104348 0.980869,-0.4104348 l 9.739131,0 q 0.570434,0 0.980869,0.4104348 Q 32,1.1686956 32,1.7391304 l 0,2.7826087 q 0,0.5704348 -0.410435,0.9808696 -0.410435,0.4104348 -0.980869,0.4104348 l -9.739131,0 q -0.570435,0 -0.980869,-0.4104348 -0.410435,-0.4104348 -0.410435,-0.9808696 z"
     id="path2989"
     inkscape:connector-curvature="0" />
</svg>
