<?xml version="1.0" encoding="UTF-8" standalone="no"?>
<svg
   xmlns:dc="http://purl.org/dc/elements/1.1/"
   xmlns:cc="http://creativecommons.org/ns#"
   xmlns:rdf="http://www.w3.org/1999/02/22-rdf-syntax-ns#"
   xmlns:svg="http://www.w3.org/2000/svg"
   xmlns="http://www.w3.org/2000/svg"
   xmlns:sodipodi="http://sodipodi.sourceforge.net/DTD/sodipodi-0.dtd"
   xmlns:inkscape="http://www.inkscape.org/namespaces/inkscape"
   version="1.1"
   width="32px"
   height="32px"
   id="svg2985"
   inkscape:version="0.91 r13725"
   sodipodi:docname="sort_by_alphabet_alt.svg">
  <metadata
     id="metadata2995">
    <rdf:RDF>
      <cc:Work
         rdf:about="">
        <dc:format>image/svg+xml</dc:format>
        <dc:type
           rdf:resource="http://purl.org/dc/dcmitype/StillImage" />
      </cc:Work>
    </rdf:RDF>
  </metadata>
  <defs
     id="defs2993" />
  <sodipodi:namedview
     pagecolor="#ffffff"
     bordercolor="#666666"
     borderopacity="1"
     objecttolerance="10"
     gridtolerance="10"
     guidetolerance="10"
     inkscape:pageopacity="0"
     inkscape:pageshadow="2"
     inkscape:window-width="1920"
     inkscape:window-height="1028"
     id="namedview2991"
     showgrid="false"
     inkscape:zoom="7.375"
     inkscape:cx="-23.322034"
     inkscape:cy="16"
     inkscape:window-x="-8"
     inkscape:window-y="-8"
     inkscape:window-maximized="1"
     inkscape:current-layer="svg2985" />
  <g
     id="g2987"
     transform="matrix(0.01422222,0,0,-0.01422222,-2.1111111,34.716667)" />
  <path
     d="m 0.3555555,22.755556 5.688889,0 0,-21.3333338 q 0,-0.5831111 0.419555,-1.0026666 Q 6.8835555,0 7.4666665,0 l 4.2666675,0 q 0.58311,0 1.002666,0.4195556 0.419556,0.4195555 0.419556,1.0026666 l 0,21.3333338 5.688889,0 L 9.5999995,32 Z m 22.7555555,4.266666 0,-1.422222 2.844444,-2.133333 -2.844444,-2.133334 0,-1.422222 1.422222,0 2.844444,2.844445 2.844445,-2.844445 1.422222,0 0,1.422222 -2.844445,2.133334 2.844445,2.133333 0,1.422222 -1.422222,0 -2.844445,-2.844444 -2.844444,2.844444 -1.422222,0 z m 0,-14.222222 0,-1.422222 1.422222,0 2.844444,2.844444 2.844445,-2.844444 1.422222,0 0,1.422222 -2.844445,2.844444 0,2.844445 -2.844444,0 0,-2.844445 z m 0,-4.2666667 8.533333,0 0,-1.4222222 -4.977778,0 4.266667,-4.2666667 0.711111,0 0,-1.4222222 -8.533333,0 0,1.4222222 4.977778,0 -4.266666,4.2666667 -0.711111,0 0,1.4222222 z"
     id="path2989"
     inkscape:connector-curvature="0" />
</svg>
