<?xml version="1.0" encoding="UTF-8" standalone="no"?>
<svg
   xmlns:dc="http://purl.org/dc/elements/1.1/"
   xmlns:cc="http://creativecommons.org/ns#"
   xmlns:rdf="http://www.w3.org/1999/02/22-rdf-syntax-ns#"
   xmlns:svg="http://www.w3.org/2000/svg"
   xmlns="http://www.w3.org/2000/svg"
   xmlns:sodipodi="http://sodipodi.sourceforge.net/DTD/sodipodi-0.dtd"
   xmlns:inkscape="http://www.inkscape.org/namespaces/inkscape"
   version="1.1"
   width="32px"
   height="32px"
   id="svg2985"
   inkscape:version="0.91 r13725"
   sodipodi:docname="sorting.svg">
  <metadata
     id="metadata2995">
    <rdf:RDF>
      <cc:Work
         rdf:about="">
        <dc:format>image/svg+xml</dc:format>
        <dc:type
           rdf:resource="http://purl.org/dc/dcmitype/StillImage" />
      </cc:Work>
    </rdf:RDF>
  </metadata>
  <defs
     id="defs2993" />
  <sodipodi:namedview
     pagecolor="#ffffff"
     bordercolor="#666666"
     borderopacity="1"
     objecttolerance="10"
     gridtolerance="10"
     guidetolerance="10"
     inkscape:pageopacity="0"
     inkscape:pageshadow="2"
     inkscape:window-width="1920"
     inkscape:window-height="1028"
     id="namedview2991"
     showgrid="false"
     inkscape:zoom="7.375"
     inkscape:cx="-0.20338983"
     inkscape:cy="16"
     inkscape:window-x="-8"
     inkscape:window-y="-8"
     inkscape:window-maximized="1"
     inkscape:current-layer="svg2985" />
  <g
     id="g2987"
     transform="matrix(0.01333333,0,0,-0.01333333,-1.3333333,34.333333)" />
  <path
     d="M 0,22 8.666667,30.666667 17.333333,22 12,22 12,3.3333333 q 0,-0.5466666 -0.393333,-0.94 -0.393334,-0.3933334 -0.94,-0.3933334 l -4,0 q -0.546667,0 -0.9400003,0.3933334 -0.3933334,0.3933334 -0.3933334,0.94 L 5.3333333,22 0,22 Z M 14.666667,10 23.333333,1.3333333 32,10 l -5.333333,0 0,18.666667 q 0,0.546667 -0.393334,0.94 Q 25.88,30 25.333333,30 l -4,0 q -0.546666,0 -0.94,-0.393333 Q 20,29.213334 20,28.666667 L 20,10 14.666667,10 Z"
     id="path2989"
     inkscape:connector-curvature="0" />
</svg>
