<?xml version="1.0" encoding="UTF-8" standalone="no"?>
<svg
   xmlns:dc="http://purl.org/dc/elements/1.1/"
   xmlns:cc="http://creativecommons.org/ns#"
   xmlns:rdf="http://www.w3.org/1999/02/22-rdf-syntax-ns#"
   xmlns:svg="http://www.w3.org/2000/svg"
   xmlns="http://www.w3.org/2000/svg"
   xmlns:sodipodi="http://sodipodi.sourceforge.net/DTD/sodipodi-0.dtd"
   xmlns:inkscape="http://www.inkscape.org/namespaces/inkscape"
   version="1.1"
   width="32px"
   height="32px"
   id="svg2985"
   inkscape:version="0.91 r13725"
   sodipodi:docname="sort_by_order_alt.svg">
  <metadata
     id="metadata2995">
    <rdf:RDF>
      <cc:Work
         rdf:about="">
        <dc:format>image/svg+xml</dc:format>
        <dc:type
           rdf:resource="http://purl.org/dc/dcmitype/StillImage" />
      </cc:Work>
    </rdf:RDF>
  </metadata>
  <defs
     id="defs2993" />
  <sodipodi:namedview
     pagecolor="#ffffff"
     bordercolor="#666666"
     borderopacity="1"
     objecttolerance="10"
     gridtolerance="10"
     guidetolerance="10"
     inkscape:pageopacity="0"
     inkscape:pageshadow="2"
     inkscape:window-width="1920"
     inkscape:window-height="1028"
     id="namedview2991"
     showgrid="false"
     inkscape:zoom="7.375"
     inkscape:cx="-23.322034"
     inkscape:cy="16"
     inkscape:window-x="-8"
     inkscape:window-y="-8"
     inkscape:window-maximized="1"
     inkscape:current-layer="svg2985" />
  <g
     id="g2987"
     transform="matrix(0.01422222,0,0,-0.01422222,-2.3222222,34.716667)" />
  <path
     d="M 1.0666665,22.755556 10.311111,32 l 9.244444,-9.244444 -5.688888,0 0,-21.3333338 q 0,-0.5831111 -0.419556,-1.0026666 Q 13.027556,0 12.444444,0 L 8.1777775,0 q -0.583111,0 -1.002667,0.4195556 -0.419555,0.4195555 -0.419555,1.0026666 l 0,21.3333338 -5.688889,0 z m 21.3333325,-5.688889 0,-1.422223 1.422223,-1.422222 4.266666,0 0,-1.422222 -5.688889,0 0,-1.422222 7.111111,0 1.422223,1.422222 0,1.422222 -1.422223,1.422222 -4.266666,0 0,1.422223 5.688889,0 0,1.422222 -7.111111,0 z m 0,-8.5333337 0,-1.4222222 5.688889,0 0,-1.4222222 -4.266666,0 0,-1.4222222 4.266666,0 0,-1.4222223 -5.688889,0 0,-1.4222222 7.111111,0 1.422223,1.4222222 0,1.4222223 -1.422223,0.7111111 1.422223,0.7111111 0,1.4222222 -1.422223,1.4222222 -7.111111,0 z m 1.422223,14.2222227 0,-1.422223 4.266666,0 0,7.111111 -2.844444,0 0,-5.688888 -1.422222,0 z"
     id="path2989"
     inkscape:connector-curvature="0" />
</svg>
