<?xml version="1.0" encoding="UTF-8" standalone="no"?>
<svg
   xmlns:dc="http://purl.org/dc/elements/1.1/"
   xmlns:cc="http://creativecommons.org/ns#"
   xmlns:rdf="http://www.w3.org/1999/02/22-rdf-syntax-ns#"
   xmlns:svg="http://www.w3.org/2000/svg"
   xmlns="http://www.w3.org/2000/svg"
   xmlns:sodipodi="http://sodipodi.sourceforge.net/DTD/sodipodi-0.dtd"
   xmlns:inkscape="http://www.inkscape.org/namespaces/inkscape"
   version="1.1"
   width="32px"
   height="32px"
   id="svg2985"
   inkscape:version="0.91 r13725"
   sodipodi:docname="sort.svg">
  <metadata
     id="metadata2995">
    <rdf:RDF>
      <cc:Work
         rdf:about="">
        <dc:format>image/svg+xml</dc:format>
        <dc:type
           rdf:resource="http://purl.org/dc/dcmitype/StillImage" />
      </cc:Work>
    </rdf:RDF>
  </metadata>
  <defs
     id="defs2993" />
  <sodipodi:namedview
     pagecolor="#ffffff"
     bordercolor="#666666"
     borderopacity="1"
     objecttolerance="10"
     gridtolerance="10"
     guidetolerance="10"
     inkscape:pageopacity="0"
     inkscape:pageshadow="2"
     inkscape:window-width="1920"
     inkscape:window-height="1028"
     id="namedview2991"
     showgrid="false"
     inkscape:zoom="7.375"
     inkscape:cx="-23.322034"
     inkscape:cy="16"
     inkscape:window-x="-8"
     inkscape:window-y="-8"
     inkscape:window-maximized="1"
     inkscape:current-layer="svg2985" />
  <g
     id="g2987"
     transform="matrix(0.0128,0,0,-0.0128,0.3,31.7)" />
  <path
     d="M 0,31.36 0,10.88 Q 0,10.6112 0.1856,10.4256 0.3712,10.24 0.64,10.24 l 21.12,0 0,21.12 q 0,0.2688 -0.1856,0.4544 Q 21.3888,32 21.12,32 L 0.64,32 Q 0.3712,32 0.1856,31.8144 0,31.6288 0,31.36 Z M 5.12,8.32 5.12,5.76 Q 5.12,5.504 5.3312,5.312 5.5424,5.12 5.8112,5.12 l 20.4288,0 q 0.2688,0 0.4544,0.1856 Q 26.88,5.4912 26.88,5.76 l 0,20.48 q 0,0.2688 -0.1856,0.4544 Q 26.5088,26.88 26.24,26.88 l -2.56,0 q -0.2688,0 -0.4544,-0.1856 Q 23.04,26.5088 23.04,26.24 l 0,-17.28 -17.2288,0 Q 5.5424,8.96 5.3312,8.768 5.12,8.576 5.12,8.32 Z m 5.12,-5.12 0,-2.56 q 0,-0.256 0.2112,-0.448 Q 10.6624,0 10.9312,0 L 31.36,0 Q 31.6288,0 31.8144,0.192 32,0.384 32,0.64 l 0,20.48 q 0,0.2688 -0.1856,0.4544 Q 31.6288,21.76 31.36,21.76 l -2.56,0 q -0.2688,0 -0.4544,-0.1856 Q 28.16,21.3888 28.16,21.12 l 0,-17.28 -17.2288,0 q -0.2688,0 -0.48,-0.192 Q 10.24,3.456 10.24,3.2 Z"
     id="path2989"
     inkscape:connector-curvature="0" />
</svg>
