<?xml version="1.0" encoding="UTF-8" standalone="no"?>
<svg
   xmlns:dc="http://purl.org/dc/elements/1.1/"
   xmlns:cc="http://creativecommons.org/ns#"
   xmlns:rdf="http://www.w3.org/1999/02/22-rdf-syntax-ns#"
   xmlns:svg="http://www.w3.org/2000/svg"
   xmlns="http://www.w3.org/2000/svg"
   xmlns:sodipodi="http://sodipodi.sourceforge.net/DTD/sodipodi-0.dtd"
   xmlns:inkscape="http://www.inkscape.org/namespaces/inkscape"
   version="1.1"
   width="32px"
   height="32px"
   id="svg2985"
   inkscape:version="0.91 r13725"
   sodipodi:docname="sort_by_alphabet.svg">
  <metadata
     id="metadata2995">
    <rdf:RDF>
      <cc:Work
         rdf:about="">
        <dc:format>image/svg+xml</dc:format>
        <dc:type
           rdf:resource="http://purl.org/dc/dcmitype/StillImage" />
      </cc:Work>
    </rdf:RDF>
  </metadata>
  <defs
     id="defs2993" />
  <sodipodi:namedview
     pagecolor="#ffffff"
     bordercolor="#666666"
     borderopacity="1"
     objecttolerance="10"
     gridtolerance="10"
     guidetolerance="10"
     inkscape:pageopacity="0"
     inkscape:pageshadow="2"
     inkscape:window-width="1920"
     inkscape:window-height="1028"
     id="namedview2991"
     showgrid="false"
     inkscape:zoom="7.375"
     inkscape:cx="-0.20338983"
     inkscape:cy="16"
     inkscape:window-x="-8"
     inkscape:window-y="-8"
     inkscape:window-maximized="1"
     inkscape:current-layer="svg2985" />
  <g
     id="g2987"
     transform="matrix(0.01422222,0,0,-0.01422222,-2.1111111,34.716667)" />
  <path
     d="M 0.3555555,22.755556 9.5999995,32 l 9.2444455,-9.244444 -5.688889,0 0,-21.3333338 q 0,-0.5831111 -0.419556,-1.0026666 Q 12.316445,0 11.733334,0 L 7.4666665,0 q -0.583111,0 -1.002667,0.4195556 -0.419555,0.4195555 -0.419555,1.0026666 l 0,21.3333338 -5.688889,0 z m 22.7555555,4.266666 1.422222,1.422222 5.688889,0 1.422222,-1.422222 0,-1.422222 -2.844445,0 0,1.422222 -2.844444,0 0,-4.266666 2.844444,0 0,1.422222 2.844445,0 0,-1.422222 -1.422222,-1.422223 -5.688889,0 -1.422222,1.422223 0,4.266666 z m 0,-8.533333 0,-7.111111 7.111111,0 1.422222,1.422222 0,1.422222 -1.422222,0.711111 1.422222,0.711111 0,1.422223 -1.422222,1.422222 -7.111111,0 z m 0,-9.9555557 0,-5.6888889 1.422222,-1.4222222 5.688889,0 1.422222,1.4222222 0,5.6888889 -2.844445,0 0,-2.8444444 -2.844444,0 0,2.8444444 -2.844444,0 z m 2.844445,8.5333337 2.844444,0 0,-1.422223 -2.844444,0 0,1.422223 z m 0,-2.844445 2.844444,0 0,-1.422222 -2.844444,0 0,1.422222 z m 0,-9.9555553 2.844444,0 0,-1.4222223 -2.844444,0 0,1.4222223 z"
     id="path2989"
     inkscape:connector-curvature="0" />
</svg>
