<?xml version="1.0" encoding="UTF-8" standalone="no"?>
<svg
   xmlns:dc="http://purl.org/dc/elements/1.1/"
   xmlns:cc="http://creativecommons.org/ns#"
   xmlns:rdf="http://www.w3.org/1999/02/22-rdf-syntax-ns#"
   xmlns:svg="http://www.w3.org/2000/svg"
   xmlns="http://www.w3.org/2000/svg"
   xmlns:sodipodi="http://sodipodi.sourceforge.net/DTD/sodipodi-0.dtd"
   xmlns:inkscape="http://www.inkscape.org/namespaces/inkscape"
   version="1.1"
   width="32px"
   height="32px"
   id="svg2985"
   inkscape:version="0.91 r13725"
   sodipodi:docname="spray.svg">
  <metadata
     id="metadata2995">
    <rdf:RDF>
      <cc:Work
         rdf:about="">
        <dc:format>image/svg+xml</dc:format>
        <dc:type
           rdf:resource="http://purl.org/dc/dcmitype/StillImage" />
      </cc:Work>
    </rdf:RDF>
  </metadata>
  <defs
     id="defs2993" />
  <sodipodi:namedview
     pagecolor="#ffffff"
     bordercolor="#666666"
     borderopacity="1"
     objecttolerance="10"
     gridtolerance="10"
     guidetolerance="10"
     inkscape:pageopacity="0"
     inkscape:pageshadow="2"
     inkscape:window-width="1920"
     inkscape:window-height="1028"
     id="namedview2991"
     showgrid="false"
     inkscape:zoom="7.375"
     inkscape:cx="-23.322034"
     inkscape:cy="16"
     inkscape:window-x="-8"
     inkscape:window-y="-8"
     inkscape:window-maximized="1"
     inkscape:current-layer="svg2985" />
  <g
     id="g2987"
     transform="matrix(0.01185624,0,0,-0.01185624,-3.3457762,32.464989)" />
  <path
     d="m 3.2545385,30.814376 q 0,0.486106 0.3497592,0.835865 Q 3.9540568,32 4.4401628,32 L 17.48203,32 q 0.486106,0 0.835865,-0.349759 0.349759,-0.349759 0.349759,-0.835865 l 0,-17.784365 -15.4131155,0 0,17.784365 z m 1.1856243,-18.969989 13.0418672,0 -3.556873,-2.3712488 -5.9281213,0 z m 4.7424977,-3.5568731 0,-1.2449055 q 0,-0.486106 0.343831,-0.8062246 0.343831,-0.3201185 0.8417925,-0.3201185 l 1.185624,0 q 0.497962,0 0.841793,0.3201185 0.343831,0.3201186 0.343831,0.8062246 l 0,1.2449055 -3.5568715,0 z M 15.229343,6.7580585 q 0,-0.343831 0.243053,-0.586884 0.243053,-0.243053 0.586884,-0.243053 0.343832,0 0.586885,0.243053 0.243053,0.243053 0.243053,0.586884 0,0.3438311 -0.243053,0.5868841 -0.243053,0.243053 -0.586885,0.243053 -0.343831,0 -0.586884,-0.243053 -0.243053,-0.243053 -0.243053,-0.5868841 z m 2.371249,1.1856243 q 0,-0.343831 0.243053,-0.586884 0.243053,-0.243053 0.586884,-0.243053 0.343831,0 0.586884,0.243053 0.243053,0.243053 0.243053,0.586884 0,0.3438311 -0.243053,0.5868841 -0.243053,0.243053 -0.586884,0.243053 -0.343831,0 -0.586884,-0.243053 -0.243053,-0.243053 -0.243053,-0.5868841 z m 0,-2.3712486 q 0,-0.343831 0.243053,-0.586884 0.243053,-0.243053 0.586884,-0.243053 0.343831,0 0.586884,0.243053 0.243053,0.243053 0.243053,0.586884 0,0.3438311 -0.243053,0.5868841 -0.243053,0.2430529 -0.586884,0.2430529 -0.343831,0 -0.586884,-0.2430529 -0.243053,-0.243053 -0.243053,-0.5868841 z m 2.371249,3.556873 q 0,-0.3438311 0.243053,-0.5868841 0.243053,-0.243053 0.586884,-0.243053 0.343831,0 0.586884,0.243053 0.243053,0.243053 0.243053,0.5868841 0,0.343831 -0.243053,0.586884 -0.243053,0.243053 -0.586884,0.243053 -0.343831,0 -0.586884,-0.243053 -0.243053,-0.243053 -0.243053,-0.586884 z m 0,-2.3712487 q 0,-0.343831 0.243053,-0.586884 0.243053,-0.243053 0.586884,-0.243053 0.343831,0 0.586884,0.243053 0.243053,0.243053 0.243053,0.586884 0,0.3438311 -0.243053,0.5868841 -0.243053,0.243053 -0.586884,0.243053 -0.343831,0 -0.586884,-0.243053 -0.243053,-0.243053 -0.243053,-0.5868841 z m 0,-2.3712486 q 0,-0.343831 0.243053,-0.586884 0.243053,-0.243053 0.586884,-0.243053 0.343831,0 0.586884,0.243053 0.243053,0.243053 0.243053,0.586884 0,0.3438311 -0.243053,0.5868841 -0.243053,0.2430529 -0.586884,0.2430529 -0.343831,0 -0.586884,-0.2430529 -0.243053,-0.243053 -0.243053,-0.5868841 z m 2.371248,5.9281221 q 0,-0.3438316 0.243053,-0.5868846 0.243053,-0.243053 0.586884,-0.243053 0.343831,0 0.586884,0.243053 0.243053,0.243053 0.243053,0.5868846 0,0.343831 -0.243053,0.586884 -0.243053,0.243053 -0.586884,0.243053 -0.343831,0 -0.586884,-0.243053 -0.243053,-0.243053 -0.243053,-0.586884 z m 0,-2.3712492 q 0,-0.343831 0.243053,-0.586884 0.243053,-0.243053 0.586884,-0.243053 0.343831,0 0.586884,0.243053 0.243053,0.243053 0.243053,0.586884 0,0.3438311 -0.243053,0.5868841 -0.243053,0.243053 -0.586884,0.243053 -0.343831,0 -0.586884,-0.243053 -0.243053,-0.243053 -0.243053,-0.5868841 z m 0,-2.3712486 q 0,-0.343831 0.243053,-0.586884 0.243053,-0.243053 0.586884,-0.243053 0.343831,0 0.586884,0.243053 0.243053,0.243053 0.243053,0.586884 0,0.3438311 -0.243053,0.5868841 -0.243053,0.2430529 -0.586884,0.2430529 -0.343831,0 -0.586884,-0.2430529 -0.243053,-0.243053 -0.243053,-0.5868841 z m 0,-2.3712486 q 0,-0.343831 0.243053,-0.586884 0.243053,-0.243053 0.586884,-0.243053 0.343831,0 0.586884,0.243053 0.243053,0.243053 0.243053,0.586884 0,0.3438311 -0.243053,0.5868841 -0.243053,0.2430529 -0.586884,0.2430529 -0.343831,0 -0.586884,-0.2430529 -0.243053,-0.243053 -0.243053,-0.5868841 z m 2.371249,8.2993704 q 0,-0.343831 0.243053,-0.586884 0.243053,-0.243053 0.586884,-0.243053 0.343832,0 0.586885,0.243053 0.243053,0.243053 0.243053,0.586884 0,0.343831 -0.243053,0.586884 -0.243053,0.243053 -0.586885,0.243053 -0.343831,0 -0.586884,-0.243053 -0.243053,-0.243053 -0.243053,-0.586884 z m 0,-2.3712488 q 0,-0.3438311 0.243053,-0.5868841 0.243053,-0.243053 0.586884,-0.243053 0.343832,0 0.586885,0.243053 0.243053,0.243053 0.243053,0.5868841 0,0.343831 -0.243053,0.586884 -0.243053,0.243053 -0.586885,0.243053 -0.343831,0 -0.586884,-0.243053 -0.243053,-0.243053 -0.243053,-0.586884 z m 0,-2.3712487 q 0,-0.343831 0.243053,-0.586884 0.243053,-0.243053 0.586884,-0.243053 0.343832,0 0.586885,0.243053 0.243053,0.243053 0.243053,0.586884 0,0.3438311 -0.243053,0.5868841 -0.243053,0.243053 -0.586885,0.243053 -0.343831,0 -0.586884,-0.243053 -0.243053,-0.243053 -0.243053,-0.5868841 z m 0,-2.3712486 q 0,-0.343831 0.243053,-0.586884 0.243053,-0.243053 0.586884,-0.243053 0.343832,0 0.586885,0.243053 0.243053,0.243053 0.243053,0.586884 0,0.3438311 -0.243053,0.5868841 -0.243053,0.2430529 -0.586885,0.2430529 -0.343831,0 -0.586884,-0.2430529 -0.243053,-0.243053 -0.243053,-0.5868841 z m 0,-2.3712486 q 0,-0.343831 0.243053,-0.586884 0.243053,-0.243053 0.586884,-0.243053 0.343832,0 0.586885,0.243053 0.243053,0.243053 0.243053,0.586884 0,0.3438311 -0.243053,0.5868841 -0.243053,0.2430529 -0.586885,0.2430529 -0.343831,0 -0.586884,-0.2430529 -0.243053,-0.243053 -0.243053,-0.5868841 z M 27.085587,12.68618 q 0,-0.343831 0.243053,-0.586884 0.243053,-0.243053 0.586884,-0.243053 0.343832,0 0.586885,0.243053 0.243052,0.243053 0.243052,0.586884 0,0.343831 -0.243052,0.586884 -0.243053,0.243053 -0.586885,0.243053 -0.343831,0 -0.586884,-0.243053 -0.243053,-0.243053 -0.243053,-0.586884 z m 0,-2.371248 q 0,-0.3438316 0.243053,-0.5868846 0.243053,-0.243053 0.586884,-0.243053 0.343832,0 0.586885,0.243053 0.243052,0.243053 0.243052,0.5868846 0,0.343831 -0.243052,0.586884 -0.243053,0.243053 -0.586885,0.243053 -0.343831,0 -0.586884,-0.243053 -0.243053,-0.243053 -0.243053,-0.586884 z m 0,-2.3712492 q 0,-0.343831 0.243053,-0.586884 0.243053,-0.243053 0.586884,-0.243053 0.343832,0 0.586885,0.243053 0.243052,0.243053 0.243052,0.586884 0,0.3438311 -0.243052,0.5868841 -0.243053,0.243053 -0.586885,0.243053 -0.343831,0 -0.586884,-0.243053 -0.243053,-0.243053 -0.243053,-0.5868841 z m 0,-2.3712486 q 0,-0.343831 0.243053,-0.586884 0.243053,-0.243053 0.586884,-0.243053 0.343832,0 0.586885,0.243053 0.243052,0.243053 0.243052,0.586884 0,0.3438311 -0.243052,0.5868841 -0.243053,0.2430529 -0.586885,0.2430529 -0.343831,0 -0.586884,-0.2430529 -0.243053,-0.243053 -0.243053,-0.5868841 z m 0,-2.3712486 q 0,-0.343831 0.243053,-0.586884 0.243053,-0.243053 0.586884,-0.243053 0.343832,0 0.586885,0.243053 0.243052,0.243053 0.243052,0.586884 0,0.3438311 -0.243052,0.5868841 -0.243053,0.2430529 -0.586885,0.2430529 -0.343831,0 -0.586884,-0.2430529 -0.243053,-0.243053 -0.243053,-0.5868841 z m 0,-2.3712486 q 0,-0.343831 0.243053,-0.586884 Q 27.571693,0 27.915524,0 q 0.343832,0 0.586885,0.243053 0.243052,0.243053 0.243052,0.586884 0,0.3438311 -0.243052,0.586884 -0.243053,0.243053 -0.586885,0.243053 -0.343831,0 -0.586884,-0.243053 -0.243053,-0.2430529 -0.243053,-0.586884 z"
     id="path2989"
     inkscape:connector-curvature="0" />
</svg>
