<?xml version="1.0" encoding="UTF-8" standalone="no"?>
<!-- Created with Inkscape (http://www.inkscape.org/) -->

<svg
   xmlns:dc="http://purl.org/dc/elements/1.1/"
   xmlns:cc="http://creativecommons.org/ns#"
   xmlns:rdf="http://www.w3.org/1999/02/22-rdf-syntax-ns#"
   xmlns:svg="http://www.w3.org/2000/svg"
   xmlns="http://www.w3.org/2000/svg"
   xmlns:sodipodi="http://sodipodi.sourceforge.net/DTD/sodipodi-0.dtd"
   xmlns:inkscape="http://www.inkscape.org/namespaces/inkscape"
   width="32px"
   height="32px"
   id="svg3904"
   version="1.1"
   inkscape:version="0.91 r13725"
   sodipodi:docname="squaresmall_plus.svg">
  <defs
     id="defs3906" />
  <sodipodi:namedview
     id="base"
     pagecolor="#ffffff"
     bordercolor="#666666"
     borderopacity="1.0"
     inkscape:pageopacity="0.0"
     inkscape:pageshadow="2"
     inkscape:zoom="11.197802"
     inkscape:cx="5.3282628"
     inkscape:cy="16"
     inkscape:current-layer="layer1"
     showgrid="true"
     inkscape:grid-bbox="true"
     inkscape:document-units="px"
     inkscape:window-width="1920"
     inkscape:window-height="1028"
     inkscape:window-x="-8"
     inkscape:window-y="-8"
     inkscape:window-maximized="1" />
  <metadata
     id="metadata3909">
    <rdf:RDF>
      <cc:Work
         rdf:about="">
        <dc:format>image/svg+xml</dc:format>
        <dc:type
           rdf:resource="http://purl.org/dc/dcmitype/StillImage" />
        <dc:title />
      </cc:Work>
    </rdf:RDF>
  </metadata>
  <g
     id="layer1"
     inkscape:label="Layer 1"
     inkscape:groupmode="layer">
    <path
       d="M 7.111111,0 C 5.155556,0 3.503704,0.6688889 2.1111111,2.0555556 0.7185184,3.4422222 0,5.1437038 0,7.1111111 L 0,24.888889 c 0,1.967408 0.7185184,3.668889 2.1111111,5.055555 C 3.503704,31.331111 5.155556,32 7.111111,32 l 17.777778,0 c 1.967408,0 3.668889,-0.668889 5.055555,-2.055556 C 31.331111,28.557778 32,26.856297 32,24.888889 L 32,7.1111111 C 32,5.1437038 31.331111,3.4422222 29.944444,2.0555556 28.557778,0.6688889 26.856297,0 24.888889,0 L 7.111111,0 Z m 7.555556,7.1111111 2.666666,0 c 0.124445,0 0.241481,0.025191 0.333334,0.1111111 0.09185,0.08592 0.111111,0.2088889 0.111111,0.3333334 l 0,6.6666664 6.666666,0 c 0.124445,0 0.241481,0.02519 0.333334,0.111111 0.09185,0.08592 0.111111,0.208889 0.111111,0.333334 l 0,2.611111 c 0,0.124444 -0.07185,0.235555 -0.166667,0.333333 -0.09481,0.09778 -0.159258,0.166667 -0.277778,0.166667 l -6.666666,0 0,6.611111 c 0,0.124444 -0.01926,0.235555 -0.111111,0.333333 -0.09185,0.09778 -0.208889,0.166667 -0.333334,0.166667 l -2.666666,0 c -0.118519,0 -0.182964,-0.06592 -0.277778,-0.166667 -0.09481,-0.100746 -0.166667,-0.214814 -0.166667,-0.333333 l 0,-6.611111 -6.666666,0 c -0.124445,0 -0.247408,-0.06889 -0.333334,-0.166667 -0.08592,-0.09778 -0.111111,-0.208889 -0.111111,-0.333333 l 0,-2.611111 c 0,-0.124445 0.02519,-0.247408 0.111111,-0.333334 0.08593,-0.08592 0.208889,-0.111111 0.333334,-0.111111 l 6.666666,0 0,-6.6666664 c 0,-0.1244445 0.01926,-0.247408 0.111111,-0.3333334 0.09185,-0.085925 0.208889,-0.1111111 0.333334,-0.1111111 z"
       id="path2989"
       inkscape:connector-curvature="0" />
  </g>
</svg>
