<?xml version="1.0" encoding="UTF-8" standalone="no"?>
<!-- Created with Inkscape (http://www.inkscape.org/) -->

<svg
   xmlns:dc="http://purl.org/dc/elements/1.1/"
   xmlns:cc="http://creativecommons.org/ns#"
   xmlns:rdf="http://www.w3.org/1999/02/22-rdf-syntax-ns#"
   xmlns:svg="http://www.w3.org/2000/svg"
   xmlns="http://www.w3.org/2000/svg"
   xmlns:sodipodi="http://sodipodi.sourceforge.net/DTD/sodipodi-0.dtd"
   xmlns:inkscape="http://www.inkscape.org/namespaces/inkscape"
   width="32px"
   height="32px"
   id="svg3096"
   version="1.1"
   inkscape:version="0.91 r13725"
   sodipodi:docname="square.svg">
  <defs
     id="defs3098" />
  <sodipodi:namedview
     id="base"
     pagecolor="#ffffff"
     bordercolor="#666666"
     borderopacity="1.0"
     inkscape:pageopacity="0.0"
     inkscape:pageshadow="2"
     inkscape:zoom="11.197802"
     inkscape:cx="-9.8979396"
     inkscape:cy="16"
     inkscape:current-layer="layer1"
     showgrid="true"
     inkscape:grid-bbox="true"
     inkscape:document-units="px"
     inkscape:window-width="1920"
     inkscape:window-height="1028"
     inkscape:window-x="-8"
     inkscape:window-y="-8"
     inkscape:window-maximized="1" />
  <metadata
     id="metadata3101">
    <rdf:RDF>
      <cc:Work
         rdf:about="">
        <dc:format>image/svg+xml</dc:format>
        <dc:type
           rdf:resource="http://purl.org/dc/dcmitype/StillImage" />
        <dc:title />
      </cc:Work>
    </rdf:RDF>
  </metadata>
  <g
     id="layer1"
     inkscape:label="Layer 1"
     inkscape:groupmode="layer">
    <text
       xml:space="preserve"
       style="font-style:normal;font-weight:normal;font-size:15.32339668px;line-height:5.99999987%;font-family:Sans;letter-spacing:0px;word-spacing:0px;fill:#000000;fill-opacity:1;stroke:none"
       x="3.2506831"
       y="2.7421749"
       id="text2990"
       sodipodi:linespacing="5.9999999%"
       transform="scale(1.0000057,0.99999431)"><tspan
         sodipodi:role="line"
         id="tspan2992"
         x="3.2506831"
         y="2.7421749" /></text>
    <path
       style="fill:#000000"
       d="M 5.5848191,3.9922215e-4 C 5.2585129,-0.00801078 4.9234812,0.11595142 4.6670063,0.35953932 L 0.95585,3.8711314 C 0.4429001,4.3583072 0.4287636,5.1538878 0.915945,5.6668318 L 10.732552,16.002086 0.915945,26.33734 c -0.4871814,0.512944 -0.4730449,1.308525 0.039905,1.7957 l 3.7111563,3.511592 c 0.5129498,0.487176 1.3085395,0.47304 1.7957209,-0.0399 L 16,21.548809 25.537273,31.604732 c 0.487181,0.512944 1.282771,0.52708 1.795721,0.0399 L 31.04415,28.13304 c 0.51295,-0.487175 0.527085,-1.282756 0.0399,-1.7957 L 21.267447,16.002086 31.084055,5.6668318 c 0.48718,-0.512944 0.473044,-1.3085246 -0.0399,-1.7957004 L 27.332993,0.35953932 c -0.51295,-0.4871758 -1.308539,-0.4730395 -1.795721,0.039905 L 15.999999,10.455366 6.4627271,0.39944382 C 6.2191364,0.14297182 5.9111254,0.00880632 5.5848191,3.9922215e-4 Z"
       id="rect3024"
       inkscape:connector-curvature="0" />
  </g>
</svg>
