<?xml version="1.0" encoding="UTF-8" standalone="no"?>
<svg
   xmlns:dc="http://purl.org/dc/elements/1.1/"
   xmlns:cc="http://creativecommons.org/ns#"
   xmlns:rdf="http://www.w3.org/1999/02/22-rdf-syntax-ns#"
   xmlns:svg="http://www.w3.org/2000/svg"
   xmlns="http://www.w3.org/2000/svg"
   xmlns:sodipodi="http://sodipodi.sourceforge.net/DTD/sodipodi-0.dtd"
   xmlns:inkscape="http://www.inkscape.org/namespaces/inkscape"
   version="1.1"
   width="32px"
   height="32px"
   id="svg2985"
   inkscape:version="0.91 r13725"
   sodipodi:docname="stats.svg">
  <metadata
     id="metadata2995">
    <rdf:RDF>
      <cc:Work
         rdf:about="">
        <dc:format>image/svg+xml</dc:format>
        <dc:type
           rdf:resource="http://purl.org/dc/dcmitype/StillImage" />
      </cc:Work>
    </rdf:RDF>
  </metadata>
  <defs
     id="defs2993" />
  <sodipodi:namedview
     pagecolor="#ffffff"
     bordercolor="#666666"
     borderopacity="1"
     objecttolerance="10"
     gridtolerance="10"
     guidetolerance="10"
     inkscape:pageopacity="0"
     inkscape:pageshadow="2"
     inkscape:window-width="1920"
     inkscape:window-height="1028"
     id="namedview2991"
     showgrid="false"
     inkscape:zoom="7.375"
     inkscape:cx="-0.20338983"
     inkscape:cy="16"
     inkscape:window-x="-8"
     inkscape:window-y="-8"
     inkscape:window-maximized="1"
     inkscape:current-layer="svg2985" />
  <g
     id="g2987"
     transform="matrix(0.01230769,0,0,-0.01230769,-0.69230769,32.807692)" />
  <path
     d="m 0,31.384615 0,-30.7692304 2.4615385,0 0,3.6923077 3.6923077,0 0,-3.6923077 1.2307688,0 0,3.6923077 3.692308,0 0,-3.6923077 1.230769,0 0,3.6923077 3.692308,0 0,-3.6923077 1.230769,0 0,3.6923077 3.692308,0 0,-3.6923077 1.230769,0 0,3.6923077 3.692308,0 0,-3.6923077 1.230769,0 0,0.64 Q 27.913846,0.64 28.923077,0.64 q 1.28,0 2.178461,0.8984616 Q 32,2.4369231 32,3.7169231 q 0,1.28 -0.898462,2.1784615 -0.898461,0.8984616 -2.178461,0.8984616 -0.344615,0 -0.787692,-0.1107693 l -1.058462,1.6 0,0.9476923 3.692308,0 0,1.2307698 -3.692308,0 0,3.692307 3.692308,0 0,1.230769 -3.692308,0 0,3.692308 3.692308,0 0,1.230769 -3.692308,0 0,3.692308 3.692308,0 0,1.230769 -3.692308,0 0,3.692308 3.692308,0 0,2.461538 -30.769231,0 z m 2.4615385,-3.876923 1.9692307,-2.276923 -1.9692307,0 0,2.276923 z m 0,-3.507692 3.04,0 0.6523077,-0.75077 0,-2.941538 -3.6923077,0 0,3.692308 z m 0,-4.923077 3.6923077,0 0,-3.692308 -3.6923077,0 0,3.692308 z m 0,-4.923077 3.6923077,0 0,-3.692307 -3.6923077,0 0,3.692307 z m 0,-4.9230768 3.6923077,0 0,-3.6923076 -3.6923077,0 0,3.6923076 z M 3.68,28.923077 l 2.4738462,0 0,-2.855385 z m 3.704615,0 3.692308,0 0,-3.692308 -3.692308,0 0,3.692308 z m 0,-7.101539 L 7.84,21.304615 q -0.283077,-0.48 -0.393846,-0.996923 l -0.06154,0 0,1.513846 z m 0,-2.744615 0.06154,0 Q 7.667693,18.030769 8.516924,17.335384 9.366155,16.64 10.461539,16.64 q 0.283077,0 0.615385,0.06154 l 0,-1.316923 -3.692308,0 0,3.692308 z m 0,-4.923077 3.692308,0 0,-3.692307 -3.692308,0 0,3.692307 z m 0,-4.9230768 3.692308,0 0,-3.6923076 -3.692308,0 0,3.6923076 z M 7.950769,24 l 3.126154,0 0,-1.267693 q -0.332308,0.06154 -0.615385,0.06154 -0.64,0 -1.243076,-0.270769 z m 4.356923,4.923077 3.692308,0 0,-3.692308 -3.692308,0 0,3.692308 z M 12.307692,24 16,24 l 0,-3.692308 -2.523077,0 q -0.233846,1.181538 -1.169231,1.870769 l 0,1.821539 z m 0,-6.732308 q 0.258462,0.196923 0.467693,0.430769 l 5.243077,-2.313846 -0.787693,0 0,0.344615 L 16,16.270769 l 0,-0.886154 -3.692308,0 0,1.883077 z m 0,-3.113846 3.692308,0 0,-3.692307 -3.692308,0 0,3.692307 z m 0,-4.9230768 3.692308,0 0,-3.6923076 -3.692308,0 0,3.6923076 z M 14.24,19.076923 l 1.76,0 0,-0.775385 z m 2.990769,9.846154 3.692308,0 0,-3.692308 -3.692308,0 0,3.692308 z m 0,-4.923077 3.692308,0 0,-3.692308 -3.692308,0 0,3.692308 z m 0,-4.923077 3.692308,0 0,-1.267693 Q 19.938462,17.6 19.261538,16.84923 l -2.030769,0.898462 0,1.329231 z m 0,-4.923077 1.292308,0 q 0.196923,-0.898462 0.849231,-1.544615 0.652307,-0.646154 1.550769,-0.830769 l 0,-1.316923 -3.692308,0 0,3.692307 z m 0,-4.9230768 3.692308,0 0,-3.6923076 -3.692308,0 0,3.6923076 z m 4.32,2.4861538 0.03692,0 -0.03692,0 z m 0.603077,17.206154 3.692308,0 0,-3.692308 -3.692308,0 0,3.692308 z m 0,-4.923077 3.692308,0 0,-3.692308 -3.692308,0 0,3.692308 z m 0,-4.923077 3.692308,0 0,-3.692308 -1.292308,0 q -0.172308,0.910769 -0.830769,1.575385 -0.658462,0.664615 -1.569231,0.84923 l 0,1.267693 z m 0,-7.286154 q 0.04923,0.01231 0.16,0.04308 0.110769,0.03077 0.172308,0.04308 l 0.947692,-1.415384 -1.28,0 0,1.32923 z m 0,-2.5599998 2.08,0 1.612308,-2.436923 0,-1.2553846 -3.692308,0 0,3.6923076 z M 24,12.96 q 0.418462,0.553846 0.541538,1.193846 l 1.304616,0 0,-3.692307 -0.209231,0 z"
     id="path2989"
     inkscape:connector-curvature="0" />
</svg>
