<?xml version="1.0" encoding="UTF-8" standalone="no"?>
<svg
   xmlns:dc="http://purl.org/dc/elements/1.1/"
   xmlns:cc="http://creativecommons.org/ns#"
   xmlns:rdf="http://www.w3.org/1999/02/22-rdf-syntax-ns#"
   xmlns:svg="http://www.w3.org/2000/svg"
   xmlns="http://www.w3.org/2000/svg"
   xmlns:sodipodi="http://sodipodi.sourceforge.net/DTD/sodipodi-0.dtd"
   xmlns:inkscape="http://www.inkscape.org/namespaces/inkscape"
   version="1.1"
   width="32px"
   height="32px"
   id="svg2985"
   inkscape:version="0.91 r13725"
   sodipodi:docname="step_forward.svg">
  <metadata
     id="metadata2995">
    <rdf:RDF>
      <cc:Work
         rdf:about="">
        <dc:format>image/svg+xml</dc:format>
        <dc:type
           rdf:resource="http://purl.org/dc/dcmitype/StillImage" />
      </cc:Work>
    </rdf:RDF>
  </metadata>
  <defs
     id="defs2993" />
  <sodipodi:namedview
     pagecolor="#ffffff"
     bordercolor="#666666"
     borderopacity="1"
     objecttolerance="10"
     gridtolerance="10"
     guidetolerance="10"
     inkscape:pageopacity="0"
     inkscape:pageshadow="2"
     inkscape:window-width="1920"
     inkscape:window-height="1028"
     id="namedview2991"
     showgrid="false"
     inkscape:zoom="7.375"
     inkscape:cx="-23.322034"
     inkscape:cy="16"
     inkscape:window-x="-8"
     inkscape:window-y="-8"
     inkscape:window-maximized="1"
     inkscape:current-layer="svg2985" />
  <g
     id="g2987"
     transform="matrix(0.01777778,0,0,-0.01777778,-15.888889,42.777778)" />
  <path
     d="m 3.5555555,31.466667 0,-30.9688892 q 0,-0.3555556 0.3377778,-0.4622222 0.3377778,-0.1066667 0.64,0.1244444 l 18.5777787,14.488889 0,-13.7600001 q 0,-0.3555556 0.257777,-0.6222222 Q 23.626666,0 24,0 l 3.555555,0 q 0.373334,0 0.631111,0.2577778 0.257778,0.2577778 0.257778,0.6311111 l 0,30.2222221 q 0,0.373333 -0.257778,0.631111 Q 27.928889,32 27.555555,32 L 24,32 q -0.373333,0 -0.631112,-0.257778 -0.257777,-0.257778 -0.257777,-0.631111 l 0,-13.848889 -18.5777777,14.56 q -0.3022222,0.231111 -0.64,0.124445 -0.3377778,-0.106667 -0.3377778,-0.48 z"
     id="path2989"
     inkscape:connector-curvature="0" />
</svg>
