<?xml version="1.0" encoding="UTF-8" standalone="no"?>
<svg
   xmlns:dc="http://purl.org/dc/elements/1.1/"
   xmlns:cc="http://creativecommons.org/ns#"
   xmlns:rdf="http://www.w3.org/1999/02/22-rdf-syntax-ns#"
   xmlns:svg="http://www.w3.org/2000/svg"
   xmlns="http://www.w3.org/2000/svg"
   xmlns:sodipodi="http://sodipodi.sourceforge.net/DTD/sodipodi-0.dtd"
   xmlns:inkscape="http://www.inkscape.org/namespaces/inkscape"
   version="1.1"
   width="32px"
   height="32px"
   id="svg2985"
   inkscape:version="0.91 r13725"
   sodipodi:docname="step_backward.svg">
  <metadata
     id="metadata2995">
    <rdf:RDF>
      <cc:Work
         rdf:about="">
        <dc:format>image/svg+xml</dc:format>
        <dc:type
           rdf:resource="http://purl.org/dc/dcmitype/StillImage" />
      </cc:Work>
    </rdf:RDF>
  </metadata>
  <defs
     id="defs2993" />
  <sodipodi:namedview
     pagecolor="#ffffff"
     bordercolor="#666666"
     borderopacity="1"
     objecttolerance="10"
     gridtolerance="10"
     guidetolerance="10"
     inkscape:pageopacity="0"
     inkscape:pageshadow="2"
     inkscape:window-width="1920"
     inkscape:window-height="1028"
     id="namedview2991"
     showgrid="false"
     inkscape:zoom="7.375"
     inkscape:cx="-23.322034"
     inkscape:cy="16"
     inkscape:window-x="-8"
     inkscape:window-y="-8"
     inkscape:window-maximized="1"
     inkscape:current-layer="svg2985" />
  <g
     id="g2987"
     transform="matrix(0.01777778,0,0,-0.01777778,-15.888889,42.777778)" />
  <path
     d="m 3.5555555,31.111111 0,-30.2222221 q 0,-0.3555556 0.2577778,-0.6222222 Q 4.0711111,0 4.4444444,0 l 3.5555551,0 q 0.373334,0 0.631112,0.2666667 0.257777,0.2666666 0.257777,0.6222222 l 0,13.7600001 L 27.466666,0.16 q 0.302222,-0.2311111 0.64,-0.1244444 0.337778,0.1066666 0.337778,0.4622222 l 0,30.9688892 q 0,0.373333 -0.337778,0.48 -0.337778,0.106666 -0.64,-0.124445 l -18.5777775,-14.56 0,13.848889 q 0,0.373333 -0.257777,0.631111 Q 8.3733335,32 7.9999995,32 L 4.4444444,32 Q 4.0711111,32 3.8133333,31.742222 3.5555555,31.484444 3.5555555,31.111111 Z"
     id="path2989"
     inkscape:connector-curvature="0" />
</svg>
