<?xml version="1.0" encoding="UTF-8" standalone="no"?>
<!-- Generated by IcoMoon.io -->

<svg
   xmlns:dc="http://purl.org/dc/elements/1.1/"
   xmlns:cc="http://creativecommons.org/ns#"
   xmlns:rdf="http://www.w3.org/1999/02/22-rdf-syntax-ns#"
   xmlns:svg="http://www.w3.org/2000/svg"
   xmlns="http://www.w3.org/2000/svg"
   xmlns:sodipodi="http://sodipodi.sourceforge.net/DTD/sodipodi-0.dtd"
   xmlns:inkscape="http://www.inkscape.org/namespaces/inkscape"
   version="1.1"
   width="22"
   height="28"
   viewBox="0 0 22 28"
   id="svg4136"
   inkscape:version="0.91 r13725"
   sodipodi:docname="stethoscope.svg">
  <metadata
     id="metadata4144">
    <rdf:RDF>
      <cc:Work
         rdf:about="">
        <dc:format>image/svg+xml</dc:format>
        <dc:type
           rdf:resource="http://purl.org/dc/dcmitype/StillImage" />
      </cc:Work>
    </rdf:RDF>
  </metadata>
  <defs
     id="defs4142" />
  <sodipodi:namedview
     pagecolor="#ffffff"
     bordercolor="#666666"
     borderopacity="1"
     objecttolerance="10"
     gridtolerance="10"
     guidetolerance="10"
     inkscape:pageopacity="0"
     inkscape:pageshadow="2"
     inkscape:window-width="732"
     inkscape:window-height="480"
     id="namedview4140"
     showgrid="false"
     inkscape:zoom="30.678571"
     inkscape:cx="11"
     inkscape:cy="14"
     inkscape:window-x="0"
     inkscape:window-y="0"
     inkscape:window-maximized="1"
     inkscape:current-layer="svg4136" />
  <path
     d="m 29.090909,11 q 0,-0.406 -0.432,-0.703 Q 28.226909,10 27.636364,10 q -0.590546,0 -1.022546,0.297 -0.432,0.297 -0.432,0.703 0,0.406 0.432,0.703 0.432,0.297 1.022546,0.297 0.590545,0 1.022545,-0.297 0.432,-0.297 0.432,-0.703 z M 32,11 q 0,0.969 -0.807273,1.734 -0.807272,0.765 -2.101818,1.094 l 0,6.172 q 0,2.484 -2.989091,4.242 Q 23.112727,26 18.909091,26 14.705455,26 11.716364,24.242 8.7272727,22.484 8.7272727,20 l 0,-2.063 Q 5.0007273,17.624 2.5003636,15.937 0,14.25 0,11.999 l 0,-8 Q 0,3.593 0.432,3.296 0.864,2.999 1.4545455,2.999 1.5912727,2.999 1.8181818,3.03 2.2050909,2.561 2.8858182,2.28 3.5665455,1.999 4.3636364,1.999 q 1.2043636,0 2.0567272,0.586 0.8523637,0.586 0.8523637,1.414 0,0.828 -0.8523637,1.414 Q 5.568,5.999 4.3636364,5.999 3.6130909,5.999 2.9090909,5.718 l 0,6.281 q 0,1.656 2.1367273,2.828 2.1367273,1.172 5.1359998,1.172 2.999273,0 5.136,-1.172 2.136727,-1.172 2.136727,-2.828 l 0,-6.281 Q 16.750545,5.999 16,5.999 q -1.204364,0 -2.056727,-0.586 -0.852364,-0.586 -0.852364,-1.414 0,-0.828 0.852364,-1.414 Q 14.795636,1.999 16,1.999 q 0.795636,0 1.477818,0.281 0.682182,0.281 1.067637,0.75 0.226909,-0.031 0.363636,-0.031 0.590545,0 1.022545,0.297 0.432,0.297 0.432,0.703 l 0,8 q 0,2.25 -2.500363,3.938 -2.500364,1.688 -6.226909,2 l 0,2.063 q 0,1.656 2.136727,2.828 2.136727,1.172 5.136,1.172 2.999273,0 5.136,-1.172 2.136727,-1.172 2.136727,-2.828 l 0,-6.172 Q 24.885818,13.5 24.08,12.734 23.274182,11.968 23.272727,11 q 0,-1.25 1.272728,-2.125 Q 25.818182,8 27.636364,8 29.454545,8 30.727273,8.875 32,9.75 32,11 Z"
     id="path4138"
     inkscape:connector-curvature="0"
     style="fill:#444444" />
</svg>
