<?xml version="1.0" encoding="UTF-8" standalone="no"?>
<svg
   xmlns:dc="http://purl.org/dc/elements/1.1/"
   xmlns:cc="http://creativecommons.org/ns#"
   xmlns:rdf="http://www.w3.org/1999/02/22-rdf-syntax-ns#"
   xmlns:svg="http://www.w3.org/2000/svg"
   xmlns="http://www.w3.org/2000/svg"
   xmlns:sodipodi="http://sodipodi.sourceforge.net/DTD/sodipodi-0.dtd"
   xmlns:inkscape="http://www.inkscape.org/namespaces/inkscape"
   version="1.1"
   width="32px"
   height="32px"
   id="svg2985"
   inkscape:version="0.91 r13725"
   sodipodi:docname="stopwatch.svg">
  <metadata
     id="metadata2995">
    <rdf:RDF>
      <cc:Work
         rdf:about="">
        <dc:format>image/svg+xml</dc:format>
        <dc:type
           rdf:resource="http://purl.org/dc/dcmitype/StillImage" />
      </cc:Work>
    </rdf:RDF>
  </metadata>
  <defs
     id="defs2993" />
  <sodipodi:namedview
     pagecolor="#ffffff"
     bordercolor="#666666"
     borderopacity="1"
     objecttolerance="10"
     gridtolerance="10"
     guidetolerance="10"
     inkscape:pageopacity="0"
     inkscape:pageshadow="2"
     inkscape:window-width="1920"
     inkscape:window-height="1028"
     id="namedview2991"
     showgrid="false"
     inkscape:zoom="7.375"
     inkscape:cx="-0.20338983"
     inkscape:cy="16"
     inkscape:window-x="-8"
     inkscape:window-y="-8"
     inkscape:window-maximized="1"
     inkscape:current-layer="svg2985" />
  <g
     id="g2987"
     transform="matrix(0.01191363,0,0,-0.01191363,-2.0745011,32.658593)" />
  <path
     d="m 2.4363365,18.895011 q 0,-2.656738 1.0424423,-5.087118 1.0424423,-2.43038 2.7937453,-4.181683 1.7513034,-1.7513031 4.1816829,-2.7937454 2.43038,-1.0424423 5.087119,-1.0424423 2.668651,0 5.093075,1.0424423 2.424423,1.0424423 4.181683,2.7997022 1.757259,1.7572602 2.793745,4.1816832 1.036486,2.424423 1.036486,5.081161 0,1.77513 -0.470589,3.478779 -0.470588,1.703649 -1.316456,3.139241 -0.845867,1.435591 -2.055101,2.644825 -1.209233,1.209233 -2.644825,2.0551 -1.435592,0.845868 -3.13924,1.316456 Q 17.316455,32 15.541326,32 12.884587,32 10.460164,30.963515 8.0357405,29.927029 6.278481,28.169769 4.5212211,26.412509 3.4787788,23.988086 2.4363365,21.563663 2.4363365,18.895011 Z m 3.5740879,0 q 0,1.941921 0.7565152,3.705138 0.7565153,1.763217 2.0312729,3.037975 1.2747585,1.274758 3.0439325,2.031273 1.769173,0.756515 3.699181,0.756515 1.930007,0 3.699181,-0.756515 1.769172,-0.756515 3.043931,-2.031273 1.274758,-1.274758 2.031274,-3.037975 0.756515,-1.763217 0.756515,-3.705138 0,-1.930007 -0.756515,-3.699181 -0.756516,-1.769173 -2.031274,-3.043931 -1.274759,-1.274758 -3.043931,-2.031273 -1.769174,-0.7565158 -3.699181,-0.7565158 -1.930008,0 -3.699181,0.7565158 -1.769174,0.756515 -3.0439325,2.031273 -1.2747576,1.274758 -2.0312729,3.043931 -0.7565152,1.769174 -0.7565152,3.699181 z m 7.1481766,0 q 0,-0.643336 0.321667,-1.185406 0.321668,-0.54207 0.869695,-0.863738 l 0,-4.336559 q 0,-0.250187 0.172747,-0.422934 0.172748,-0.172748 0.422935,-0.172748 l 1.191362,0 q 0.250185,0 0.422934,0.172748 0.172747,0.172747 0.172747,0.422934 l 0,4.336559 q 0.548027,0.321668 0.869695,0.863738 0.321668,0.54207 0.321668,1.185406 0,0.65525 -0.321668,1.19732 -0.321668,0.54207 -0.869695,0.863738 l 0,1.060312 q 0,0.250186 -0.172747,0.434848 -0.172748,0.184661 -0.422934,0.184661 l -1.191362,0 q -0.250187,0 -0.422935,-0.184661 -0.172747,-0.184662 -0.172747,-0.434848 l 0,-1.060312 q -0.548027,-0.321668 -0.869695,-0.863738 -0.321667,-0.54207 -0.321667,-1.19732 z m 0,-15.3209231 0,-2.9426657 q 0,-0.2501862 0.172747,-0.4408042 Q 13.504096,0 13.754282,0 l 3.574087,0 q 0.250186,0 0.422934,0.190618 0.172747,0.190618 0.172747,0.4408042 l 0,2.9426657 q -0.869695,-0.1072227 -2.382725,-0.1072227 -1.501117,0 -2.382725,0.1072227 z M 25.096053,7.172003 26.85927,5.4087863 q 0.178704,-0.1787044 0.42889,-0.1787044 0.250186,0 0.416977,0.1787044 l 1.679821,1.6798213 q 0.178705,0.1787044 0.178705,0.4229337 0,0.2442294 -0.178705,0.4229338 L 27.621742,9.6976917 Q 27.061802,8.9709605 26.442294,8.351452 25.822784,7.7319434 25.096053,7.172003 Z"
     id="path2989"
     inkscape:connector-curvature="0" />
</svg>
