<?xml version="1.0" encoding="UTF-8" standalone="no"?>
<svg
   xmlns:dc="http://purl.org/dc/elements/1.1/"
   xmlns:cc="http://creativecommons.org/ns#"
   xmlns:rdf="http://www.w3.org/1999/02/22-rdf-syntax-ns#"
   xmlns:svg="http://www.w3.org/2000/svg"
   xmlns="http://www.w3.org/2000/svg"
   xmlns:sodipodi="http://sodipodi.sourceforge.net/DTD/sodipodi-0.dtd"
   xmlns:inkscape="http://www.inkscape.org/namespaces/inkscape"
   version="1.1"
   width="32px"
   height="32px"
   id="svg2985"
   inkscape:version="0.91 r13725"
   sodipodi:docname="stroller.svg">
  <metadata
     id="metadata2995">
    <rdf:RDF>
      <cc:Work
         rdf:about="">
        <dc:format>image/svg+xml</dc:format>
        <dc:type
           rdf:resource="http://purl.org/dc/dcmitype/StillImage" />
      </cc:Work>
    </rdf:RDF>
  </metadata>
  <defs
     id="defs2993" />
  <sodipodi:namedview
     pagecolor="#ffffff"
     bordercolor="#666666"
     borderopacity="1"
     objecttolerance="10"
     gridtolerance="10"
     guidetolerance="10"
     inkscape:pageopacity="0"
     inkscape:pageshadow="2"
     inkscape:window-width="1920"
     inkscape:window-height="1028"
     id="namedview2991"
     showgrid="false"
     inkscape:zoom="7.375"
     inkscape:cx="-23.322034"
     inkscape:cy="16"
     inkscape:window-x="-8"
     inkscape:window-y="-8"
     inkscape:window-maximized="1"
     inkscape:current-layer="svg2985" />
  <g
     id="g2987"
     transform="matrix(0.01278443,0,0,-0.01278466,1.5205983,32.932099)" />
  <path
     d="M 0.10668881,8.4506592 Q 0.27288631,7.9520575 0.70116451,7.7602877 1.1294428,7.5685178 1.6536043,7.7347183 l 4.730238,1.2145426 0.7159277,1.2784661 10.636645,0 L 15.332941,0 l 5.113771,0 7.120926,2.5569317 4.385059,5.1138633 -4.385059,8.949261 -14.38248,0 8.527213,8.949261 3.822543,0 0.66479,0.01278 q 1.32958,0 2.262843,0.933281 0.933264,0.93328 0.933264,2.250099 0,1.329605 -0.933264,2.262885 -0.933263,0.93328 -2.262843,0.93328 -1.316796,0 -2.250059,-0.939672 -0.933262,-0.939673 -0.933262,-2.256493 0,-0.639232 0.06392,-0.639232 l -2.45461,0 -4.93479,-5.177787 -3.362303,2.659209 q 0.447454,0.93328 0.447454,1.930483 0,1.853776 -1.304011,3.157811 Q 10.168029,32 8.314288,32 6.4605458,32 5.1565342,30.695965 3.8525227,29.39193 3.8525227,27.538154 q 0,-1.853775 1.3040115,-3.15781 1.3040116,-1.304036 3.1577538,-1.304036 1.201735,0 2.288412,0.639233 l 3.323951,-2.620855 -4.269999,-4.47463 -3.2728127,0 L 5.028693,11.084299 0.95046091,10.010388 Q 0.43908391,9.844187 0.19617971,9.4031163 -0.04672449,8.9620455 0.10668881,8.4506592 Z M 6.4094112,27.538154 q 0,0.792649 0.5561228,1.348782 0.556122,0.556132 1.348757,0.556132 0.779849,0 1.342364,-0.556132 0.562516,-0.556133 0.562516,-1.348782 0,-0.792649 -0.556124,-1.348781 -0.556122,-0.556133 -1.348756,-0.556133 -0.792635,0 -1.348757,0.556133 -0.5561228,0.556132 -0.5561228,1.348781 z m 18.9720898,1.227327 q 0,0.345186 0.242903,0.581702 0.242905,0.236517 0.5753,0.236517 0.345179,0 0.581692,-0.236517 0.236512,-0.236516 0.236512,-0.581702 0,-0.332401 -0.236512,-0.575309 -0.236513,-0.242909 -0.581692,-0.242909 -0.332395,0 -0.5753,0.242909 -0.242903,0.242908 -0.242903,0.575309 z"
     id="path2989"
     inkscape:connector-curvature="0" />
</svg>
