<?xml version="1.0" encoding="UTF-8" standalone="no"?>
<svg
   xmlns:dc="http://purl.org/dc/elements/1.1/"
   xmlns:cc="http://creativecommons.org/ns#"
   xmlns:rdf="http://www.w3.org/1999/02/22-rdf-syntax-ns#"
   xmlns:svg="http://www.w3.org/2000/svg"
   xmlns="http://www.w3.org/2000/svg"
   xmlns:sodipodi="http://sodipodi.sourceforge.net/DTD/sodipodi-0.dtd"
   xmlns:inkscape="http://www.inkscape.org/namespaces/inkscape"
   version="1.1"
   width="32px"
   height="32px"
   id="svg2985"
   inkscape:version="0.91 r13725"
   sodipodi:docname="suitcase.svg">
  <metadata
     id="metadata2995">
    <rdf:RDF>
      <cc:Work
         rdf:about="">
        <dc:format>image/svg+xml</dc:format>
        <dc:type
           rdf:resource="http://purl.org/dc/dcmitype/StillImage" />
      </cc:Work>
    </rdf:RDF>
  </metadata>
  <defs
     id="defs2993" />
  <sodipodi:namedview
     pagecolor="#ffffff"
     bordercolor="#666666"
     borderopacity="1"
     objecttolerance="10"
     gridtolerance="10"
     guidetolerance="10"
     inkscape:pageopacity="0"
     inkscape:pageshadow="2"
     inkscape:window-width="1920"
     inkscape:window-height="1028"
     id="namedview2991"
     showgrid="false"
     inkscape:zoom="7.375"
     inkscape:cx="-23.322034"
     inkscape:cy="16"
     inkscape:window-x="-8"
     inkscape:window-y="-8"
     inkscape:window-maximized="1"
     inkscape:current-layer="svg2985" />
  <g
     id="g2987"
     transform="matrix(0.01333333,0,0,-0.01333333,-1.3333333,35)" />
  <path
     d="m 0,26.666667 0,-16 Q 0,9.0133334 1.1733333,7.8399999 2.3466667,6.6666666 4,6.6666666 l 24,0 q 1.653333,0 2.826667,1.1733333 Q 32,9.0133334 32,10.666667 l 0,16 Q 32,28.32 30.826667,29.493334 29.653333,30.666667 28,30.666667 l -24,0 q -1.6533333,0 -2.8266667,-1.173333 Q 0,28.32 0,26.666667 Z m 9.333333,-21.3333337 2.666667,0 q 0,-0.48 0.09333,-0.7666667 0.09333,-0.2866666 0.313334,-0.4 Q 12.626667,4.0533333 12.8,4.0266666 12.973333,4 13.333333,4 l 5.333334,0 q 0.36,0 0.533333,0.026667 0.173333,0.026667 0.393333,0.14 0.22,0.1133334 0.313334,0.4 Q 20,4.8533333 20,5.3333333 l 2.666667,0 q 0,-1.92 -1.133334,-2.96 -1.133333,-1.04 -2.866666,-1.04 l -5.333334,0 q -1.733333,0 -2.866666,1.04 -1.133334,1.04 -1.133334,2.96 z"
     id="path2989"
     inkscape:connector-curvature="0" />
</svg>
