<?xml version="1.0" encoding="UTF-8" standalone="no"?>
<!-- Created with Inkscape (http://www.inkscape.org/) -->

<svg
   xmlns:dc="http://purl.org/dc/elements/1.1/"
   xmlns:cc="http://creativecommons.org/ns#"
   xmlns:rdf="http://www.w3.org/1999/02/22-rdf-syntax-ns#"
   xmlns:svg="http://www.w3.org/2000/svg"
   xmlns="http://www.w3.org/2000/svg"
   xmlns:sodipodi="http://sodipodi.sourceforge.net/DTD/sodipodi-0.dtd"
   xmlns:inkscape="http://www.inkscape.org/namespaces/inkscape"
   width="32px"
   height="32px"
   id="svg3096"
   version="1.1"
   inkscape:version="0.91 r13725"
   sodipodi:docname="summary.svg">
  <defs
     id="defs3098" />
  <sodipodi:namedview
     id="base"
     pagecolor="#ffffff"
     bordercolor="#666666"
     borderopacity="1.0"
     inkscape:pageopacity="0.0"
     inkscape:pageshadow="2"
     inkscape:zoom="11.197802"
     inkscape:cx="-9.8979396"
     inkscape:cy="16"
     inkscape:current-layer="layer1"
     showgrid="true"
     inkscape:grid-bbox="true"
     inkscape:document-units="px"
     inkscape:window-width="1920"
     inkscape:window-height="1028"
     inkscape:window-x="-8"
     inkscape:window-y="-8"
     inkscape:window-maximized="1" />
  <metadata
     id="metadata3101">
    <rdf:RDF>
      <cc:Work
         rdf:about="">
        <dc:format>image/svg+xml</dc:format>
        <dc:type
           rdf:resource="http://purl.org/dc/dcmitype/StillImage" />
        <dc:title />
      </cc:Work>
    </rdf:RDF>
  </metadata>
  <g
     id="layer1"
     inkscape:label="Layer 1"
     inkscape:groupmode="layer">
    <path
       style="fill:#000000"
       d="M 2.2857143,0 C 1.0194286,0 0,1.0194286 0,2.2857143 L 0,29.714286 C 0,30.980571 1.0194286,32 2.2857143,32 L 29.714286,32 C 30.980571,32 32,30.980571 32,29.714286 L 32,2.2857143 C 32,1.0194286 30.980571,0 29.714286,0 L 2.2857143,0 Z m 1.2857143,2.2857143 4.2857143,0 c 0.7067711,0 1.2857141,0.578943 1.2857141,1.2857143 l 0,4.2857143 c 0,0.7067713 -0.578943,1.2857142 -1.2857141,1.2857142 l -4.2857143,0 c -0.7067713,0 -1.2857143,-0.5789429 -1.2857143,-1.2857142 l 0,-4.2857143 c 0,-0.7067713 0.578943,-1.2857143 1.2857143,-1.2857143 z m 10.2857144,0 4.285714,0 c 0.706772,0 1.285714,0.578943 1.285714,1.2857143 l 0,4.2857143 c 0,0.7067713 -0.578942,1.2857142 -1.285714,1.2857142 l -4.285714,0 c -0.706772,0 -1.285714,-0.5789429 -1.285714,-1.2857142 l 0,-4.2857143 c 0,-0.7067713 0.578942,-1.2857143 1.285714,-1.2857143 z m 10.285714,0 4.285714,0 c 0.706772,0 1.285715,0.578943 1.285715,1.2857143 l 0,4.2857143 c 0,0.7067713 -0.578943,1.2857142 -1.285715,1.2857142 l -4.285714,0 c -0.706771,0 -1.285714,-0.5789429 -1.285714,-1.2857142 l 0,-4.2857143 c 0,-0.7067713 0.578943,-1.2857143 1.285714,-1.2857143 z M 3.5714286,12.571429 l 4.2857143,0 c 0.7067711,0 1.2857141,0.578942 1.2857141,1.285714 l 0,4.285714 c 0,0.706772 -0.578943,1.285714 -1.2857141,1.285714 l -4.2857143,0 c -0.7067713,0 -1.2857143,-0.578942 -1.2857143,-1.285714 l 0,-4.285714 c 0,-0.706772 0.578943,-1.285714 1.2857143,-1.285714 z m 10.2857144,0 4.285714,0 c 0.706772,0 1.285714,0.578942 1.285714,1.285714 l 0,4.285714 c 0,0.706772 -0.578942,1.285714 -1.285714,1.285714 l -4.285714,0 c -0.706772,0 -1.285714,-0.578942 -1.285714,-1.285714 l 0,-4.285714 c 0,-0.706772 0.578942,-1.285714 1.285714,-1.285714 z m 10.285714,0 4.285714,0 c 0.706772,0 1.285715,0.578942 1.285715,1.285714 l 0,4.285714 c 0,0.706772 -0.578943,1.285714 -1.285715,1.285714 l -4.285714,0 c -0.706771,0 -1.285714,-0.578942 -1.285714,-1.285714 l 0,-4.285714 c 0,-0.706772 0.578943,-1.285714 1.285714,-1.285714 z m -20.5714284,10.285714 4.2857143,0 c 0.7067711,0 1.2857141,0.578943 1.2857141,1.285714 l 0,4.285714 c 0,0.706772 -0.578943,1.285715 -1.2857141,1.285715 l -4.2857143,0 c -0.7067713,0 -1.2857143,-0.578943 -1.2857143,-1.285715 l 0,-4.285714 c 0,-0.706771 0.578943,-1.285714 1.2857143,-1.285714 z m 10.2857144,0 4.285714,0 c 0.706772,0 1.285714,0.578943 1.285714,1.285714 l 0,4.285714 c 0,0.706772 -0.578942,1.285715 -1.285714,1.285715 l -4.285714,0 c -0.706772,0 -1.285714,-0.578943 -1.285714,-1.285715 l 0,-4.285714 c 0,-0.706771 0.578942,-1.285714 1.285714,-1.285714 z"
       id="rect2984"
       inkscape:connector-curvature="0" />
  </g>
</svg>
