<?xml version="1.0" encoding="UTF-8" standalone="no"?>
<svg
   xmlns:dc="http://purl.org/dc/elements/1.1/"
   xmlns:cc="http://creativecommons.org/ns#"
   xmlns:rdf="http://www.w3.org/1999/02/22-rdf-syntax-ns#"
   xmlns:svg="http://www.w3.org/2000/svg"
   xmlns="http://www.w3.org/2000/svg"
   xmlns:sodipodi="http://sodipodi.sourceforge.net/DTD/sodipodi-0.dtd"
   xmlns:inkscape="http://www.inkscape.org/namespaces/inkscape"
   version="1.1"
   width="32px"
   height="32px"
   id="svg2985"
   inkscape:version="0.91 r13725"
   sodipodi:docname="sun.svg">
  <metadata
     id="metadata2995">
    <rdf:RDF>
      <cc:Work
         rdf:about="">
        <dc:format>image/svg+xml</dc:format>
        <dc:type
           rdf:resource="http://purl.org/dc/dcmitype/StillImage" />
      </cc:Work>
    </rdf:RDF>
  </metadata>
  <defs
     id="defs2993" />
  <sodipodi:namedview
     pagecolor="#ffffff"
     bordercolor="#666666"
     borderopacity="1"
     objecttolerance="10"
     gridtolerance="10"
     guidetolerance="10"
     inkscape:pageopacity="0"
     inkscape:pageshadow="2"
     inkscape:window-width="1920"
     inkscape:window-height="1028"
     id="namedview2991"
     showgrid="false"
     inkscape:zoom="7.375"
     inkscape:cx="-23.322034"
     inkscape:cy="16"
     inkscape:window-x="-8"
     inkscape:window-y="-8"
     inkscape:window-maximized="1"
     inkscape:current-layer="svg2985" />
  <g
     id="g2987"
     transform="matrix(0.01333333,0,0,-0.01333333,-1.3333333,33.333333)" />
  <path
     d="m 0,17.333333 0,-2.666666 5.3466667,0 q -0.093333,0 -0.093333,1.333333 0,1.333333 0.093333,1.333333 L 0,17.333333 Z m 3.7066667,9 3.7866663,-3.8 q 0.853334,1.12 1.973334,1.973334 l -3.8000003,3.786666 z m 0,-20.6666663 1.96,-1.96 3.8000003,3.7866666 Q 8.386667,8.32 7.493333,9.4666667 Z M 9.493333,16 q 0,-1.746667 0.88,-3.246667 0.88,-1.5 2.38,-2.38 1.5,-0.8799997 3.246667,-0.8799997 1.746667,0 3.246667,0.8799997 1.5,0.88 2.38,2.38 0.88,1.5 0.88,3.246667 0,1.746667 -0.88,3.246667 -0.88,1.5 -2.38,2.38 -1.5,0.88 -3.246667,0.88 -1.746667,0 -3.246667,-0.88 -1.5,-0.88 -2.38,-2.38 -0.88,-1.5 -0.88,-3.246667 z m 5.173334,16 0,-5.346667 q 0,0.09333 1.333333,0.09333 1.333333,0 1.333333,-0.09333 l 0,5.346667 -2.666666,0 z m 0,-26.6533333 0,-5.3466667 2.666666,0 0,5.3466667 q 0,-0.093333 -1.333333,-0.093333 -1.333333,0 -1.333333,0.093333 z m 7.866666,19.1600003 q 1.12,-0.853334 1.973334,-1.973334 l 3.786666,3.8 -1.96,1.96 z m 0,-17.0133337 3.8,-3.7866666 1.96,1.96 -3.786666,3.8 Q 23.64,8.36 22.533333,7.4933333 Z m 4.12,9.8399997 q 0.09333,0 0.09333,-1.333333 0,-1.333333 -0.09333,-1.333333 l 5.346667,0 0,2.666666 -5.346667,0 z"
     id="path2989"
     inkscape:connector-curvature="0" />
</svg>
