<?xml version="1.0" encoding="UTF-8" standalone="no"?>
<svg
   xmlns:dc="http://purl.org/dc/elements/1.1/"
   xmlns:cc="http://creativecommons.org/ns#"
   xmlns:rdf="http://www.w3.org/1999/02/22-rdf-syntax-ns#"
   xmlns:svg="http://www.w3.org/2000/svg"
   xmlns="http://www.w3.org/2000/svg"
   xmlns:sodipodi="http://sodipodi.sourceforge.net/DTD/sodipodi-0.dtd"
   xmlns:inkscape="http://www.inkscape.org/namespaces/inkscape"
   version="1.1"
   width="32px"
   height="32px"
   id="svg2985"
   inkscape:version="0.91 r13725"
   sodipodi:docname="sweater.svg">
  <metadata
     id="metadata2995">
    <rdf:RDF>
      <cc:Work
         rdf:about="">
        <dc:format>image/svg+xml</dc:format>
        <dc:type
           rdf:resource="http://purl.org/dc/dcmitype/StillImage" />
      </cc:Work>
    </rdf:RDF>
  </metadata>
  <defs
     id="defs2993" />
  <sodipodi:namedview
     pagecolor="#ffffff"
     bordercolor="#666666"
     borderopacity="1"
     objecttolerance="10"
     gridtolerance="10"
     guidetolerance="10"
     inkscape:pageopacity="0"
     inkscape:pageshadow="2"
     inkscape:window-width="1920"
     inkscape:window-height="1028"
     id="namedview2991"
     showgrid="false"
     inkscape:zoom="7.375"
     inkscape:cx="-23.322034"
     inkscape:cy="16"
     inkscape:window-x="-8"
     inkscape:window-y="-8"
     inkscape:window-maximized="1"
     inkscape:current-layer="svg2985" />
  <g
     id="g2987"
     transform="matrix(0.01104848,0,0,-0.01104858,2.0195618,32.419432)" />
  <path
     d="m 0.01325678,23.822394 q -0.033145,-0.320409 0.016573,-0.574526 0.049718,-0.254117 0.1546788,-0.475089 0.1049606,-0.220972 0.1049606,-0.276214 L 7.2279167,8.7852778 Q 7.3052561,8.5864034 7.5704197,8.3654318 7.8355833,8.1444602 8.0676015,8.045023 l 5.1596425,-2.1434244 0,-2.6074647 q 0,-0.2209716 0.165727,-0.3867002 0.165727,-0.1657287 0.386697,-0.1657287 l 4.441491,0 q 0.220969,0 0.375648,0.1657287 0.154679,0.1657286 0.154679,0.3867002 l 0,2.6074647 5.17069,2.1434244 q 0.243067,0.099437 0.50823,0.3204088 0.265164,0.2209716 0.342503,0.419846 l 6.938448,13.7112872 q 0,0.05524 0.09944,0.276214 0.09944,0.220972 0.154678,0.475089 0.05524,0.254117 0.0221,0.574526 -0.03314,0.320409 -0.342503,0.673963 -0.309357,0.353555 -0.894927,0.662915 -0.497182,0.265166 -0.9115,0.331457 -0.414318,0.06629 -0.685006,-0.01105 -0.270688,-0.07734 -0.530327,-0.287263 -0.259639,-0.209923 -0.40327,-0.419846 -0.14363,-0.209923 -0.348027,-0.508235 -0.204397,-0.298311 -0.336979,-0.441943 l -5.148593,-8.39692 q -0.04419,-0.143632 -0.121533,-0.19335 -0.07734,-0.04972 -0.138106,0.01105 -0.06077,0.06077 -0.06077,0.204399 l 0,13.258295 q 0,0.23202 -0.149155,0.392225 -0.149157,0.160204 -0.381175,0.160204 l -11.070581,0 q -0.232018,0 -0.392221,-0.160204 -0.1602034,-0.160205 -0.1602034,-0.392225 l 0,-13.258295 q 0,-0.143632 -0.06077,-0.204399 -0.06077,-0.06077 -0.132582,-0.01105 -0.07182,0.04972 -0.116009,0.19335 l -5.1485933,8.39692 Q 4.333214,23.966026 4.128817,24.264337 3.9244201,24.562649 3.7752655,24.772572 3.626111,24.982495 3.3719959,25.197942 3.1178807,25.413389 2.8416686,25.485205 2.5654566,25.557025 2.1511384,25.490705 1.7368203,25.424415 1.2396385,25.159248 0.65406878,24.849888 0.35023548,24.496333 0.04640218,24.142779 0.01325678,23.82237 Z"
     id="path2989"
     inkscape:connector-curvature="0" />
</svg>
