<?xml version="1.0" encoding="UTF-8" standalone="no"?>
<svg
   xmlns:dc="http://purl.org/dc/elements/1.1/"
   xmlns:cc="http://creativecommons.org/ns#"
   xmlns:rdf="http://www.w3.org/1999/02/22-rdf-syntax-ns#"
   xmlns:svg="http://www.w3.org/2000/svg"
   xmlns="http://www.w3.org/2000/svg"
   xmlns:sodipodi="http://sodipodi.sourceforge.net/DTD/sodipodi-0.dtd"
   xmlns:inkscape="http://www.inkscape.org/namespaces/inkscape"
   version="1.1"
   width="32px"
   height="32px"
   id="svg2985"
   inkscape:version="0.91 r13725"
   sodipodi:docname="t_shirt.svg">
  <metadata
     id="metadata2995">
    <rdf:RDF>
      <cc:Work
         rdf:about="">
        <dc:format>image/svg+xml</dc:format>
        <dc:type
           rdf:resource="http://purl.org/dc/dcmitype/StillImage" />
      </cc:Work>
    </rdf:RDF>
  </metadata>
  <defs
     id="defs2993" />
  <sodipodi:namedview
     pagecolor="#ffffff"
     bordercolor="#666666"
     borderopacity="1"
     objecttolerance="10"
     gridtolerance="10"
     guidetolerance="10"
     inkscape:pageopacity="0"
     inkscape:pageshadow="2"
     inkscape:window-width="1920"
     inkscape:window-height="1028"
     id="namedview2991"
     showgrid="false"
     inkscape:zoom="7.375"
     inkscape:cx="-23.322034"
     inkscape:cy="16"
     inkscape:window-x="-8"
     inkscape:window-y="-8"
     inkscape:window-maximized="1"
     inkscape:current-layer="svg2985" />
  <g
     id="g2987"
     transform="matrix(0.01142857,0,0,-0.01142857,2,32.642857)" />
  <path
     d="M 0,12 11.462857,2.8571428 q 0,0.045714 0.04,0.2571429 0.04,0.2114285 0.177143,0.5828571 0.137143,0.3714286 0.337143,0.7828572 0.2,0.4114285 0.565714,0.8342857 0.365714,0.4228571 0.822857,0.7657143 0.457143,0.3428571 1.142857,0.56 0.685715,0.2171428 1.485715,0.2171428 1.097143,0 1.971428,-0.4114286 0.874286,-0.4114285 1.342857,-0.9714285 0.468572,-0.56 0.771429,-1.1714286 0.302857,-0.6114286 0.394286,-0.9885714 0.09143,-0.3771429 0.08,-0.4571429 L 32,12 27.428571,16.571428 22.857143,13.52 l 0,14.48 q 0,0.468571 -0.337143,0.805714 -0.337143,0.337143 -0.805714,0.337143 l -11.428572,0 Q 9.817143,29.142857 9.48,28.805714 9.142857,28.468571 9.142857,28 l 0,-14.48 -4.5714284,3.051428 z"
     id="path2989"
     inkscape:connector-curvature="0" />
</svg>
