<?xml version="1.0" encoding="UTF-8" standalone="no"?>
<svg
   xmlns:dc="http://purl.org/dc/elements/1.1/"
   xmlns:cc="http://creativecommons.org/ns#"
   xmlns:rdf="http://www.w3.org/1999/02/22-rdf-syntax-ns#"
   xmlns:svg="http://www.w3.org/2000/svg"
   xmlns="http://www.w3.org/2000/svg"
   xmlns:sodipodi="http://sodipodi.sourceforge.net/DTD/sodipodi-0.dtd"
   xmlns:inkscape="http://www.inkscape.org/namespaces/inkscape"
   version="1.1"
   width="32px"
   height="32px"
   id="svg2985"
   inkscape:version="0.91 r13725"
   sodipodi:docname="table_tennis.svg">
  <metadata
     id="metadata2995">
    <rdf:RDF>
      <cc:Work
         rdf:about="">
        <dc:format>image/svg+xml</dc:format>
        <dc:type
           rdf:resource="http://purl.org/dc/dcmitype/StillImage" />
      </cc:Work>
    </rdf:RDF>
  </metadata>
  <defs
     id="defs2993" />
  <sodipodi:namedview
     pagecolor="#ffffff"
     bordercolor="#666666"
     borderopacity="1"
     objecttolerance="10"
     gridtolerance="10"
     guidetolerance="10"
     inkscape:pageopacity="0"
     inkscape:pageshadow="2"
     inkscape:window-width="1920"
     inkscape:window-height="1028"
     id="namedview2991"
     showgrid="false"
     inkscape:zoom="7.375"
     inkscape:cx="-23.322034"
     inkscape:cy="16"
     inkscape:window-x="-8"
     inkscape:window-y="-8"
     inkscape:window-maximized="1"
     inkscape:current-layer="svg2985" />
  <g
     id="g2987"
     transform="matrix(0.01373732,0,0,-0.01373733,-0.7892965,34.080152)" />
  <path
     d="m 0.25414274,27.604056 q 0.027475,0.453332 0.405251,0.989087 0.37777636,0.535756 1.16080356,1.332521 0.7692901,0.741815 1.3325205,1.147067 0.5632302,0.405251 1.0028245,0.432725 0.5082809,-0.659391 1.7240335,-2.05373 1.215753,-1.394338 2.039993,-2.218578 0.109899,-0.109898 0.522019,-0.56323 0.412119,-0.453332 0.638785,-0.659392 0.226665,-0.20606 0.659392,-0.501412 0.4327252,-0.295353 0.8723192,-0.460201 l 1.428682,-2.582617 -2.7474642,-2.733727 -2.582618,1.414944 q -0.164847,0.453332 -0.453331,0.879189 -0.288484,0.425857 -0.51515,0.659391 Q 5.5155371,22.919628 5.0896801,23.31801 4.6638232,23.716393 4.5401872,23.840029 3.715948,24.650531 2.3353471,25.845678 0.95474614,27.040826 0.25414274,27.604056 Z M 5.5704865,14.059053 Q 5.2820026,9.0311936 10.103803,4.1819175 11.889656,2.3960652 14.06702,1.3382919 q 2.177365,-1.0577741 4.519579,-1.2913086 2.342214,-0.2335346 4.801195,0.6937349 2.45898,0.9272695 4.574529,3.0428169 2.115547,2.115548 3.042816,4.5745295 0.92727,2.4589814 0.693735,4.8011934 -0.233534,2.342214 -1.298177,4.512712 -1.064643,2.170497 -2.850495,3.956349 -2.266658,2.280396 -4.787456,3.482412 -2.520799,1.202016 -5.103416,1.037168 z M 24.967586,29.019 q 0,1.23636 0.872319,2.10868 Q 26.712226,32 27.948585,32 q 1.236359,0 2.108678,-0.87232 0.872321,-0.87232 0.872321,-2.10868 0,-1.236359 -0.872321,-2.108679 -0.872319,-0.87232 -2.108678,-0.87232 -1.236359,0 -2.10868,0.87232 -0.872319,0.87232 -0.872319,2.108679 z"
     id="path2989"
     inkscape:connector-curvature="0" />
</svg>
