<?xml version="1.0" encoding="UTF-8" standalone="no"?>
<svg
   xmlns:dc="http://purl.org/dc/elements/1.1/"
   xmlns:cc="http://creativecommons.org/ns#"
   xmlns:rdf="http://www.w3.org/1999/02/22-rdf-syntax-ns#"
   xmlns:svg="http://www.w3.org/2000/svg"
   xmlns="http://www.w3.org/2000/svg"
   xmlns:sodipodi="http://sodipodi.sourceforge.net/DTD/sodipodi-0.dtd"
   xmlns:inkscape="http://www.inkscape.org/namespaces/inkscape"
   version="1.1"
   width="32px"
   height="32px"
   id="svg2985"
   inkscape:version="0.91 r13725"
   sodipodi:docname="tags.svg">
  <metadata
     id="metadata2995">
    <rdf:RDF>
      <cc:Work
         rdf:about="">
        <dc:format>image/svg+xml</dc:format>
        <dc:type
           rdf:resource="http://purl.org/dc/dcmitype/StillImage" />
      </cc:Work>
    </rdf:RDF>
  </metadata>
  <defs
     id="defs2993" />
  <sodipodi:namedview
     pagecolor="#ffffff"
     bordercolor="#666666"
     borderopacity="1"
     objecttolerance="10"
     gridtolerance="10"
     guidetolerance="10"
     inkscape:pageopacity="0"
     inkscape:pageshadow="2"
     inkscape:window-width="1920"
     inkscape:window-height="1028"
     id="namedview2991"
     showgrid="false"
     inkscape:zoom="7.375"
     inkscape:cx="-23.322034"
     inkscape:cy="16"
     inkscape:window-x="-8"
     inkscape:window-y="-8"
     inkscape:window-maximized="1"
     inkscape:current-layer="svg2985" />
  <g
     id="g2987"
     transform="matrix(0.010818,0,0,-0.01081812,3.1464354,32.560773)" />
  <path
     d="m 5.3688848e-8,13.299797 0,-9.6281269 q 0,-0.2163624 0.156861096311152,-0.3786342 0.156861,-0.1622718 0.3840391,-0.1622718 l 9.62802175,0 q 0.21636,0 0.492219,0.1135902 0.275859,0.1135903 0.427312,0.265044 L 25.573758,17.994861 q 0.16227,0.162272 0.16227,0.389453 0,0.22718 -0.16227,0.378634 l -9.941744,9.941853 q -0.151452,0.162271 -0.37863,0.162271 -0.227178,0 -0.389448,-0.162271 L 0.37863015,14.219337 Q 0.22717815,14.067884 0.11358905,13.792022 5.3688848e-8,13.51616 5.3688848e-8,13.299797 Z M 3.2454008,8.5398242 q 0,0.8870859 0.6382622,1.5253548 0.6274441,0.638269 1.5253384,0.638269 0.8978942,0 1.5253383,-0.638269 0.6382622,-0.6382689 0.6382622,-1.5253548 0,-0.8870858 -0.6382622,-1.5253549 -0.6382621,-0.6382691 -1.5253383,-0.6382691 -0.8870762,0 -1.5253384,0.6382691 -0.6382622,0.6382691 -0.6382622,1.5253549 z m 9.6172042,-5.4090601 3.256219,0 q 0.248814,0 0.638262,0.0595 0.389449,0.0595 0.508447,0.1352265 0.292086,0.1622718 0.70317,0.5733604 l 13.717226,13.717376 q 0.302904,0.302908 0.313722,0.735632 0.01082,0.432725 -0.313722,0.789723 l -9.606386,9.606491 q -0.16227,0.151454 -0.384039,0.11359 -0.221769,-0.03786 -0.384039,-0.200135 l -1.730881,-1.741717 7.778145,-7.778229 q 0.421902,-0.432725 0.416493,-0.773495 -0.0054,-0.340771 -0.416493,-0.75186 z"
     id="path2989"
     inkscape:connector-curvature="0" />
</svg>
