<?xml version="1.0" encoding="UTF-8" standalone="no"?>
<svg
   xmlns:dc="http://purl.org/dc/elements/1.1/"
   xmlns:cc="http://creativecommons.org/ns#"
   xmlns:rdf="http://www.w3.org/1999/02/22-rdf-syntax-ns#"
   xmlns:svg="http://www.w3.org/2000/svg"
   xmlns="http://www.w3.org/2000/svg"
   xmlns:sodipodi="http://sodipodi.sourceforge.net/DTD/sodipodi-0.dtd"
   xmlns:inkscape="http://www.inkscape.org/namespaces/inkscape"
   version="1.1"
   width="32px"
   height="32px"
   id="svg2985"
   inkscape:version="0.91 r13725"
   sodipodi:docname="tea_kettle.svg">
  <metadata
     id="metadata2995">
    <rdf:RDF>
      <cc:Work
         rdf:about="">
        <dc:format>image/svg+xml</dc:format>
        <dc:type
           rdf:resource="http://purl.org/dc/dcmitype/StillImage" />
      </cc:Work>
    </rdf:RDF>
  </metadata>
  <defs
     id="defs2993" />
  <sodipodi:namedview
     pagecolor="#ffffff"
     bordercolor="#666666"
     borderopacity="1"
     objecttolerance="10"
     gridtolerance="10"
     guidetolerance="10"
     inkscape:pageopacity="0"
     inkscape:pageshadow="2"
     inkscape:window-width="1920"
     inkscape:window-height="1028"
     id="namedview2991"
     showgrid="false"
     inkscape:zoom="7.375"
     inkscape:cx="-23.322034"
     inkscape:cy="16"
     inkscape:window-x="-8"
     inkscape:window-y="-8"
     inkscape:window-maximized="1"
     inkscape:current-layer="svg2985" />
  <g
     id="g2987"
     transform="matrix(0.01260835,0,0,-0.01260835,0.87658786,33.173759)" />
  <path
     d="m 0,20.677699 1.891253,-1.891253 5.522459,3.517731 q 0.03782,-0.100867 0.107171,-0.264776 0.06935,-0.163908 0.340425,-0.668243 0.27108,-0.504334 0.598897,-0.970843 0.327817,-0.466509 0.895193,-1.07171 0.567376,-0.605201 1.210402,-1.084318 l 0,-2.483846 q -0.126084,0.365643 -0.428684,0.611505 -0.302601,0.245863 -0.69346,0.258472 Q 8.926714,16.655638 8.535855,16.3026 8.144996,15.949567 8.119779,15.432624 l -0.01261,-0.176517 q -0.02522,-0.37825 -0.02522,-0.592592 0,-6.3672187 2.925138,-9.7651698 2.925143,-3.3979512 8.409777,-3.3979512 5.472025,0 8.397163,3.3979512 2.925138,3.3979511 2.925138,9.7651698 0,0.214342 -0.02522,0.592592 l -0.01261,0.176517 q -0.01261,0.504334 -0.378251,0.851064 -0.365642,0.34673 -0.869976,0.34673 l -0.06304,0 q -0.466509,0 -0.794326,-0.334122 -0.327814,-0.334121 -0.378248,-0.80063 l 0,3.706856 q 3.21513,2.874704 3.782506,6.253743 0,0.970843 -0.277384,1.771473 -0.277384,0.800631 -0.72498,1.311269 -0.447597,0.510638 -0.983452,0.895193 -0.535855,0.384555 -1.07171,0.579984 -0.535855,0.19543 -0.983451,0.315209 -0.447597,0.11978 -0.72498,0.144996 l -0.277384,0.02522 -18.282112,0 z m 10.603625,-6.152876 q 0.1513,-0.416076 0.592592,-0.416076 0.264776,0 0.447597,0.189125 0.182821,0.189126 0.182821,0.441293 l 0,2.710796 q 1.185185,-0.592593 2.521671,-0.819543 l 0,-1.260836 10.086682,0 0,1.260836 q 1.134752,0.52955 2.521671,1.550827 l 0,-3.44208 q 0,-0.252167 0.189125,-0.441293 0.189125,-0.189125 0.441292,-0.189125 0.252167,0 0.434989,0.182821 0.182821,0.182821 0.195429,0.434988 l 0,-0.05043 q 0,-5.3837668 -2.174941,-8.0189126 -2.174941,-2.6351458 -6.625689,-2.6351458 -4.412924,0 -6.594169,2.6036249 -2.181245,2.6036249 -2.21907,7.8991335 z m 3.744681,-0.416076 q 0,-0.554767 0.661938,-1.14736 0.661939,-0.592593 1.657999,-0.983452 0.99606,-0.390859 1.916469,-0.390859 -0.718676,-0.479117 -0.718676,-1.260835 0,-0.6304175 0.447597,-1.078014 0.447596,-0.4475966 1.078014,-0.4475966 0.630418,0 1.078014,0.4475966 0.447597,0.4475965 0.447597,1.078014 0,0.806935 -0.718676,1.260835 1.475177,0 2.855792,0.832152 1.380614,0.832151 1.380614,1.689519 l -10.086682,0 z"
     id="path2989"
     inkscape:connector-curvature="0" />
</svg>
