<?xml version="1.0" encoding="UTF-8" standalone="no"?>
<svg
   xmlns:dc="http://purl.org/dc/elements/1.1/"
   xmlns:cc="http://creativecommons.org/ns#"
   xmlns:rdf="http://www.w3.org/1999/02/22-rdf-syntax-ns#"
   xmlns:svg="http://www.w3.org/2000/svg"
   xmlns="http://www.w3.org/2000/svg"
   xmlns:sodipodi="http://sodipodi.sourceforge.net/DTD/sodipodi-0.dtd"
   xmlns:inkscape="http://www.inkscape.org/namespaces/inkscape"
   version="1.1"
   width="32px"
   height="32px"
   id="svg2985"
   inkscape:version="0.91 r13725"
   sodipodi:docname="temple_christianity_church.svg">
  <metadata
     id="metadata2995">
    <rdf:RDF>
      <cc:Work
         rdf:about="">
        <dc:format>image/svg+xml</dc:format>
        <dc:type
           rdf:resource="http://purl.org/dc/dcmitype/StillImage" />
      </cc:Work>
    </rdf:RDF>
  </metadata>
  <defs
     id="defs2993" />
  <sodipodi:namedview
     pagecolor="#ffffff"
     bordercolor="#666666"
     borderopacity="1"
     objecttolerance="10"
     gridtolerance="10"
     guidetolerance="10"
     inkscape:pageopacity="0"
     inkscape:pageshadow="2"
     inkscape:window-width="1920"
     inkscape:window-height="1028"
     id="namedview2991"
     showgrid="false"
     inkscape:zoom="7.375"
     inkscape:cx="-23.322034"
     inkscape:cy="16"
     inkscape:window-x="-8"
     inkscape:window-y="-8"
     inkscape:window-maximized="1"
     inkscape:current-layer="svg2985" />
  <g
     id="g2987"
     transform="matrix(0.0128,0,0,-0.0128,-1.12,31.7)" />
  <path
     d="m 0.64,14.08 1.28,0 0,17.92 29.44,0 0,-1.28 -1.28,0 0,-7.68 -19.2,0 0,-8.96 1.28,0 0,-1.28 -5.12,-5.056 0,-3.904 2.56,0 0,-1.28 -2.56,0 0,-2.56 -1.28,0 0,2.56 -2.56,0 0,1.28 2.56,0 0,3.904 -5.12,5.056 0,1.28 z m 11.52,7.68 17.92,0 0,-1.28 -3.84,-3.84 -14.08,0 0,5.12 z m 1.28,7.68 0,-3.84 1.28,0 0,3.84 -1.28,0 z m 2.56,0 0,-3.84 1.28,0 0,3.84 -1.28,0 z m 2.56,0 0,-3.84 1.28,0 0,3.84 -1.28,0 z m 2.56,0 0,-3.84 1.28,0 0,3.84 -1.28,0 z m 2.56,0 0,-3.84 1.28,0 0,3.84 -1.28,0 z m 2.56,0 0,-3.84 1.28,0 0,3.84 -1.28,0 z"
     id="path2989"
     inkscape:connector-curvature="0" />
</svg>
