<?xml version="1.0" encoding="UTF-8" standalone="no"?>
<svg
   xmlns:dc="http://purl.org/dc/elements/1.1/"
   xmlns:cc="http://creativecommons.org/ns#"
   xmlns:rdf="http://www.w3.org/1999/02/22-rdf-syntax-ns#"
   xmlns:svg="http://www.w3.org/2000/svg"
   xmlns="http://www.w3.org/2000/svg"
   xmlns:sodipodi="http://sodipodi.sourceforge.net/DTD/sodipodi-0.dtd"
   xmlns:inkscape="http://www.inkscape.org/namespaces/inkscape"
   version="1.1"
   width="32px"
   height="32px"
   id="svg2985"
   inkscape:version="0.91 r13725"
   sodipodi:docname="temple_buddhist.svg">
  <metadata
     id="metadata2995">
    <rdf:RDF>
      <cc:Work
         rdf:about="">
        <dc:format>image/svg+xml</dc:format>
        <dc:type
           rdf:resource="http://purl.org/dc/dcmitype/StillImage" />
      </cc:Work>
    </rdf:RDF>
  </metadata>
  <defs
     id="defs2993" />
  <sodipodi:namedview
     pagecolor="#ffffff"
     bordercolor="#666666"
     borderopacity="1"
     objecttolerance="10"
     gridtolerance="10"
     guidetolerance="10"
     inkscape:pageopacity="0"
     inkscape:pageshadow="2"
     inkscape:window-width="1920"
     inkscape:window-height="1028"
     id="namedview2991"
     showgrid="false"
     inkscape:zoom="7.375"
     inkscape:cx="-23.322034"
     inkscape:cy="16"
     inkscape:window-x="-8"
     inkscape:window-y="-8"
     inkscape:window-maximized="1"
     inkscape:current-layer="svg2985" />
  <g
     id="g2987"
     transform="matrix(0.01142857,0,0,-0.01142857,2,33.857143)" />
  <path
     d="M 0,17.142858 0,16 1.1428571,16 q 0.5485715,0 1.92,-0.702857 1.3714286,-0.702857 2.5542858,-1.542857 1.1828571,-0.84 1.24,-1.182857 l 0,-1.142858 -4.5714286,0 0,-1.142857 1.1428571,0 q 0.5028572,0 1.8971429,-0.5714283 Q 6.72,9.1428572 7.92,8.5714286 9.12,8 9.142857,8 l 0,-1.1428571 -2.2857141,0 0,-1.1428572 1.1428571,0 q 0.502857,0 1.611429,-0.5714285 Q 10.72,4.5714285 11.634286,4 12.548571,3.4285715 12.571429,3.4285715 l 6.857142,0 q 0.02286,0 0.937143,0.5714285 Q 21.28,4.5714285 22.388571,5.1428571 23.497143,5.7142856 24,5.7142856 l 1.142857,0 0,1.1428572 -2.285714,0 0,1.1428571 Q 22.88,8 24.08,8.5714286 q 1.2,0.5714286 2.594286,1.1428571 1.394285,0.5714283 1.897143,0.5714283 l 1.142857,0 0,1.142857 -4.571429,0 0,1.142858 q 0.05714,0.342857 1.24,1.182857 1.182857,0.84 2.554286,1.542857 Q 30.308571,16 30.857143,16 L 32,16 l 0,1.142858 -5.714286,0 0,5.714285 3.428572,0 0,5.714286 -27.4285717,0 0,-5.714286 3.4285714,0 0,-5.714285 -5.7142857,0 z m 8,3.428571 2.285714,0 0,-3.428571 -2.285714,0 0,3.428571 z m 4.571429,0 2.285714,0 0,-3.428571 -2.285714,0 0,3.428571 z m 4.571428,0 2.285714,0 0,-3.428571 -2.285714,0 0,3.428571 z m 4.571429,0 2.285714,0 0,-3.428571 -2.285714,0 0,3.428571 z"
     id="path2989"
     inkscape:connector-curvature="0" />
</svg>
