<?xml version="1.0" encoding="UTF-8" standalone="no"?>
<svg
   xmlns:dc="http://purl.org/dc/elements/1.1/"
   xmlns:cc="http://creativecommons.org/ns#"
   xmlns:rdf="http://www.w3.org/1999/02/22-rdf-syntax-ns#"
   xmlns:svg="http://www.w3.org/2000/svg"
   xmlns="http://www.w3.org/2000/svg"
   xmlns:sodipodi="http://sodipodi.sourceforge.net/DTD/sodipodi-0.dtd"
   xmlns:inkscape="http://www.inkscape.org/namespaces/inkscape"
   version="1.1"
   width="32px"
   height="32px"
   id="svg2985"
   inkscape:version="0.91 r13725"
   sodipodi:docname="temple_islam.svg">
  <metadata
     id="metadata2995">
    <rdf:RDF>
      <cc:Work
         rdf:about="">
        <dc:format>image/svg+xml</dc:format>
        <dc:type
           rdf:resource="http://purl.org/dc/dcmitype/StillImage" />
      </cc:Work>
    </rdf:RDF>
  </metadata>
  <defs
     id="defs2993" />
  <sodipodi:namedview
     pagecolor="#ffffff"
     bordercolor="#666666"
     borderopacity="1"
     objecttolerance="10"
     gridtolerance="10"
     guidetolerance="10"
     inkscape:pageopacity="0"
     inkscape:pageshadow="2"
     inkscape:window-width="1920"
     inkscape:window-height="1028"
     id="namedview2991"
     showgrid="false"
     inkscape:zoom="7.375"
     inkscape:cx="-23.322034"
     inkscape:cy="16"
     inkscape:window-x="-8"
     inkscape:window-y="-8"
     inkscape:window-maximized="1"
     inkscape:current-layer="svg2985" />
  <g
     id="g2987"
     transform="matrix(0.0128,0,0,-0.0128,-0.98,31.84)" />
  <path
     d="M 0,14.08 0,12.8 Q 0,12.5312 0.1856,12.3456 0.3712,12.16 0.64,12.16 l 0.64,0 0,-2.56 -0.64,0 Q 0.3712,9.6 0.1856,9.4144 0,9.2288 0,8.96 L 0,8.32 3.2,0.64 6.4,8.32 6.4,8.96 Q 6.4,9.2288 6.2144,9.4144 6.0288,9.6 5.76,9.6 l -0.64,0 0,2.56 0.64,0 q 0.2688,0 0.4544,0.1856 Q 6.4,12.5312 6.4,12.8 l 0,1.28 q 0,0.2688 -0.1856,0.4544 Q 6.0288,14.72 5.76,14.72 l -0.64,0 0,7.68 1.28,0 0,-1.28 1.28,0 0,-3.84 0.0384,0 Q 7.9616,15.0656 9.6448,13.3824 11.328,11.6992 13.824,11.1232 L 15.36,9.6 l 0,-1.92 q 0,-0.2688 0.1856,-0.4544 Q 15.7312,7.04 16,7.04 q 0.2688,0 0.4544,0.1856 Q 16.64,7.4112 16.64,7.68 l 0,1.92 1.5232,1.5232 q 2.496,0.576 4.1856,2.2592 1.6896,1.6832 1.9328,3.8976 l 0.0384,0 0,3.84 1.28,0 0,1.28 1.28,0 0,-7.68 -0.64,0 q -0.2688,0 -0.4544,-0.1856 Q 25.6,14.3488 25.6,14.08 l 0,-1.28 q 0,-0.2688 0.1856,-0.4544 Q 25.9712,12.16 26.24,12.16 l 0.64,0 0,-2.56 -0.64,0 Q 25.9712,9.6 25.7856,9.4144 25.6,9.2288 25.6,8.96 l 0,-0.64 3.2,-7.68 3.2,7.68 0,0.64 Q 32,9.2288 31.8144,9.4144 31.6288,9.6 31.36,9.6 l -0.64,0 0,2.56 0.64,0 q 0.2688,0 0.4544,0.1856 Q 32,12.5312 32,12.8 l 0,1.28 q 0,0.2688 -0.1856,0.4544 Q 31.6288,14.72 31.36,14.72 l -0.64,0 0,16.64 -29.44,0 0,-16.64 -0.64,0 Q 0.3712,14.72 0.1856,14.5344 0,14.3488 0,14.08 Z m 5.12,14.72 1.28,0 0,-3.84 -1.28,0 0,3.84 z m 2.56,0 1.28,0 0,-3.84 -1.28,0 0,3.84 z m 2.56,0 1.28,0 0,-3.84 -1.28,0 0,3.84 z m 10.24,0 1.28,0 0,-3.84 -1.28,0 0,3.84 z m 2.56,0 1.28,0 0,-3.84 -1.28,0 0,3.84 z m 2.56,0 1.28,0 0,-3.84 -1.28,0 0,3.84 z"
     id="path2989"
     inkscape:connector-curvature="0" />
</svg>
