<?xml version="1.0" encoding="UTF-8" standalone="no"?>
<svg
   xmlns:dc="http://purl.org/dc/elements/1.1/"
   xmlns:cc="http://creativecommons.org/ns#"
   xmlns:rdf="http://www.w3.org/1999/02/22-rdf-syntax-ns#"
   xmlns:svg="http://www.w3.org/2000/svg"
   xmlns="http://www.w3.org/2000/svg"
   xmlns:sodipodi="http://sodipodi.sourceforge.net/DTD/sodipodi-0.dtd"
   xmlns:inkscape="http://www.inkscape.org/namespaces/inkscape"
   version="1.1"
   width="32px"
   height="32px"
   id="svg2985"
   inkscape:version="0.91 r13725"
   sodipodi:docname="text_bigger.svg">
  <metadata
     id="metadata2995">
    <rdf:RDF>
      <cc:Work
         rdf:about="">
        <dc:format>image/svg+xml</dc:format>
        <dc:type
           rdf:resource="http://purl.org/dc/dcmitype/StillImage" />
      </cc:Work>
    </rdf:RDF>
  </metadata>
  <defs
     id="defs2993" />
  <sodipodi:namedview
     pagecolor="#ffffff"
     bordercolor="#666666"
     borderopacity="1"
     objecttolerance="10"
     gridtolerance="10"
     guidetolerance="10"
     inkscape:pageopacity="0"
     inkscape:pageshadow="2"
     inkscape:window-width="1920"
     inkscape:window-height="1028"
     id="namedview2991"
     showgrid="false"
     inkscape:zoom="7.375"
     inkscape:cx="-23.322034"
     inkscape:cy="16"
     inkscape:window-x="-8"
     inkscape:window-y="-8"
     inkscape:window-maximized="1"
     inkscape:current-layer="svg2985" />
  <g
     id="g2987"
     transform="matrix(0.01333333,0,0,-0.01333333,-1.3333333,35)" />
  <path
     d="m 0,7.9999999 0,-6.6666666 26.666667,0 0,6.6666666 -1.333334,0 q 0,-1.9466666 -1.086666,-2.9733333 Q 23.16,4 21.333333,4 L 16,4 16,28 q 0,0.32 0.186667,0.56 0.186666,0.24 0.566666,0.38 0.38,0.14 0.733334,0.226667 0.353333,0.08667 0.9,0.12 0.546666,0.03333 0.84,0.04 Q 19.52,29.333334 20,29.333334 l 0,1.333333 -13.333333,0 0,-1.333333 q 0.48,0 0.773333,-0.0067 0.293333,-0.0067 0.84,-0.04 0.546667,-0.03333 0.9,-0.12 0.353333,-0.08667 0.733333,-0.226667 0.38,-0.14 0.566667,-0.38 0.186667,-0.24 0.186667,-0.56 l 0,-24 -5.3333337,0 Q 3.5066667,4 2.42,5.0266666 1.3333333,6.0533333 1.3333333,7.9999999 L 0,7.9999999 Z m 21.333333,10.6666671 0,-2.666667 4,0 0,-4 L 28,12 l 0,4 4,0 0,2.666667 -4,0 0,4 -2.666667,0 0,-4 -4,0 z"
     id="path2989"
     inkscape:connector-curvature="0" />
</svg>
