<?xml version="1.0" encoding="UTF-8" standalone="no"?>
<svg
   xmlns:dc="http://purl.org/dc/elements/1.1/"
   xmlns:cc="http://creativecommons.org/ns#"
   xmlns:rdf="http://www.w3.org/1999/02/22-rdf-syntax-ns#"
   xmlns:svg="http://www.w3.org/2000/svg"
   xmlns="http://www.w3.org/2000/svg"
   xmlns:sodipodi="http://sodipodi.sourceforge.net/DTD/sodipodi-0.dtd"
   xmlns:inkscape="http://www.inkscape.org/namespaces/inkscape"
   version="1.1"
   width="32px"
   height="32px"
   id="svg2985"
   inkscape:version="0.91 r13725"
   sodipodi:docname="text_width.svg">
  <metadata
     id="metadata2995">
    <rdf:RDF>
      <cc:Work
         rdf:about="">
        <dc:format>image/svg+xml</dc:format>
        <dc:type
           rdf:resource="http://purl.org/dc/dcmitype/StillImage" />
      </cc:Work>
    </rdf:RDF>
  </metadata>
  <defs
     id="defs2993" />
  <sodipodi:namedview
     pagecolor="#ffffff"
     bordercolor="#666666"
     borderopacity="1"
     objecttolerance="10"
     gridtolerance="10"
     guidetolerance="10"
     inkscape:pageopacity="0"
     inkscape:pageshadow="2"
     inkscape:window-width="1920"
     inkscape:window-height="1028"
     id="namedview2991"
     showgrid="false"
     inkscape:zoom="7.375"
     inkscape:cx="-23.322034"
     inkscape:cy="16"
     inkscape:window-x="-8"
     inkscape:window-y="-8"
     inkscape:window-maximized="1"
     inkscape:current-layer="svg2985" />
  <g
     id="g2987"
     transform="matrix(0.01333333,0,0,-0.01333333,-4.1166667,33.333333)" />
  <path
     d="m 2.2266665,28.666667 4.44,-3.333334 0,2.666667 18.6666665,0 0,-2.666667 4.44,3.333334 -4.44,3.333333 0,-2.666667 -18.6666665,0 0,2.666667 z m 0.44,-22.0000003 0,-6.6666667 26.6666675,0 0,6.6666667 -1.333334,0 Q 27.999999,4.72 26.913333,3.6933333 25.826666,2.6666667 23.999999,2.6666667 l -5.333333,0 0,20.0000003 q 0,0.32 0.186667,0.56 0.186666,0.24 0.566666,0.38 0.38,0.14 0.733334,0.226666 0.353333,0.08667 0.9,0.12 0.546666,0.03333 0.84,0.04 Q 22.186666,24 22.666666,24 l 0,1.333333 -13.3333325,0 0,-1.333333 q 0.48,0 0.7733325,-0.0067 0.293334,-0.0067 0.84,-0.04 0.546667,-0.03333 0.900001,-0.12 0.353332,-0.08667 0.733333,-0.226666 0.379999,-0.14 0.566666,-0.38 0.186667,-0.24 0.186667,-0.56 l 0,-20.0000003 -5.3333335,0 q -1.8266663,0 -2.913333,1.0266666 Q 3.9999998,4.72 3.9999998,6.6666667 l -1.3333333,0 z"
     id="path2989"
     inkscape:connector-curvature="0" />
</svg>
