<?xml version="1.0" encoding="UTF-8" standalone="no"?>
<svg
   xmlns:dc="http://purl.org/dc/elements/1.1/"
   xmlns:cc="http://creativecommons.org/ns#"
   xmlns:rdf="http://www.w3.org/1999/02/22-rdf-syntax-ns#"
   xmlns:svg="http://www.w3.org/2000/svg"
   xmlns="http://www.w3.org/2000/svg"
   xmlns:sodipodi="http://sodipodi.sourceforge.net/DTD/sodipodi-0.dtd"
   xmlns:inkscape="http://www.inkscape.org/namespaces/inkscape"
   version="1.1"
   width="32px"
   height="32px"
   id="svg2985"
   inkscape:version="0.91 r13725"
   sodipodi:docname="text_height.svg">
  <metadata
     id="metadata2995">
    <rdf:RDF>
      <cc:Work
         rdf:about="">
        <dc:format>image/svg+xml</dc:format>
        <dc:type
           rdf:resource="http://purl.org/dc/dcmitype/StillImage" />
      </cc:Work>
    </rdf:RDF>
  </metadata>
  <defs
     id="defs2993" />
  <sodipodi:namedview
     pagecolor="#ffffff"
     bordercolor="#666666"
     borderopacity="1"
     objecttolerance="10"
     gridtolerance="10"
     guidetolerance="10"
     inkscape:pageopacity="0"
     inkscape:pageshadow="2"
     inkscape:window-width="1920"
     inkscape:window-height="1028"
     id="namedview2991"
     showgrid="false"
     inkscape:zoom="7.375"
     inkscape:cx="-23.322034"
     inkscape:cy="16"
     inkscape:window-x="-8"
     inkscape:window-y="-8"
     inkscape:window-maximized="1"
     inkscape:current-layer="svg2985" />
  <g
     id="g2987"
     transform="matrix(0.01230769,0,0,-0.01230769,0.53846154,35.133077)" />
  <path
     d="m 0,25.846153 2.4615385,0 0,-19.6923068 -2.4615385,0 3.0769231,-4.0984616 3.0769231,4.0984616 -2.4615385,0 0,19.6923068 2.4615385,0 -3.0769231,4.098462 z m 7.384615,-17.2307684 0,-6.1538461 24.615385,0 0,6.1538461 -1.230769,0 q 0,-1.796923 -1.003077,-2.7446154 -1.003077,-0.9476923 -2.689231,-0.9476923 l -4.923077,0 0,22.1538461 q 0,0.295384 0.172308,0.516923 0.172308,0.221538 0.523077,0.350769 0.350769,0.129231 0.676923,0.209231 0.326154,0.08 0.830769,0.110769 0.504615,0.03077 0.775385,0.03692 0.270769,0.0062 0.713846,0.0062 l 0,1.230769 -12.307692,0 0,-1.230769 q 0.443076,0 0.713846,-0.0062 0.270769,-0.0062 0.775384,-0.03692 0.504616,-0.03077 0.83077,-0.110769 0.326153,-0.08 0.676923,-0.209231 0.350769,-0.129231 0.523077,-0.350769 0.172307,-0.221539 0.172307,-0.516923 l 0,-22.1538461 -4.923077,0 q -1.686154,0 -2.68923,0.9476923 -1.003077,0.9476924 -1.003077,2.7446154 l -1.23077,0 z"
     id="path2989"
     inkscape:connector-curvature="0" />
</svg>
