<?xml version="1.0" encoding="UTF-8" standalone="no"?>
<svg
   xmlns:dc="http://purl.org/dc/elements/1.1/"
   xmlns:cc="http://creativecommons.org/ns#"
   xmlns:rdf="http://www.w3.org/1999/02/22-rdf-syntax-ns#"
   xmlns:svg="http://www.w3.org/2000/svg"
   xmlns="http://www.w3.org/2000/svg"
   xmlns:sodipodi="http://sodipodi.sourceforge.net/DTD/sodipodi-0.dtd"
   xmlns:inkscape="http://www.inkscape.org/namespaces/inkscape"
   version="1.1"
   width="32px"
   height="32px"
   id="svg2985"
   inkscape:version="0.91 r13725"
   sodipodi:docname="text_smaller.svg">
  <metadata
     id="metadata2995">
    <rdf:RDF>
      <cc:Work
         rdf:about="">
        <dc:format>image/svg+xml</dc:format>
        <dc:type
           rdf:resource="http://purl.org/dc/dcmitype/StillImage" />
      </cc:Work>
    </rdf:RDF>
  </metadata>
  <defs
     id="defs2993" />
  <sodipodi:namedview
     pagecolor="#ffffff"
     bordercolor="#666666"
     borderopacity="1"
     objecttolerance="10"
     gridtolerance="10"
     guidetolerance="10"
     inkscape:pageopacity="0"
     inkscape:pageshadow="2"
     inkscape:window-width="1920"
     inkscape:window-height="1028"
     id="namedview2991"
     showgrid="false"
     inkscape:zoom="7.375"
     inkscape:cx="-23.322034"
     inkscape:cy="16"
     inkscape:window-x="-8"
     inkscape:window-y="-8"
     inkscape:window-maximized="1"
     inkscape:current-layer="svg2985" />
  <g
     id="g2987"
     transform="matrix(0.01454545,0,0,-0.01454545,-5.1818182,41.454545)" />
  <path
     d="m 0,11.636364 0,-7.2727276 18.909091,0 0,7.2727276 -1.454546,0 q 0,-2.1236368 -1.185454,-3.2436368 -1.185455,-1.12 -3.178182,-1.12 l -1.454545,0 0,17.4545458 q 0,0.349091 0.203636,0.610909 0.203636,0.261818 0.618182,0.414546 0.414545,0.152727 0.8,0.247272 0.385454,0.09455 0.981818,0.130909 0.596364,0.03636 0.916364,0.04364 0.32,0.0073 0.843636,0.0073 l 0,1.454515 -13.0909091,0 0,-1.454545 q 0.5236364,0 0.8436364,-0.0073 0.32,-0.0073 0.9163636,-0.04364 0.5963641,-0.03636 0.9818181,-0.130909 0.385455,-0.09455 0.8,-0.247272 0.414546,-0.152728 0.618182,-0.414546 0.203636,-0.261818 0.203636,-0.610909 l 0,-17.4545458 -1.454545,0 q -1.9927275,0 -3.178182,1.12 -1.1854545,1.12003 -1.1854545,3.2436668 L 0,11.636364 Z M 20.363636,18.909091 20.363636,16 32,16 l 0,2.909091 -11.636364,0 z"
     id="path2989"
     inkscape:connector-curvature="0" />
</svg>
