<?xml version="1.0" encoding="UTF-8" standalone="no"?>
<svg
   xmlns:dc="http://purl.org/dc/elements/1.1/"
   xmlns:cc="http://creativecommons.org/ns#"
   xmlns:rdf="http://www.w3.org/1999/02/22-rdf-syntax-ns#"
   xmlns:svg="http://www.w3.org/2000/svg"
   xmlns="http://www.w3.org/2000/svg"
   xmlns:sodipodi="http://sodipodi.sourceforge.net/DTD/sodipodi-0.dtd"
   xmlns:inkscape="http://www.inkscape.org/namespaces/inkscape"
   version="1.1"
   width="32px"
   height="32px"
   id="svg2985"
   inkscape:version="0.91 r13725"
   sodipodi:docname="text_resize.svg">
  <metadata
     id="metadata2995">
    <rdf:RDF>
      <cc:Work
         rdf:about="">
        <dc:format>image/svg+xml</dc:format>
        <dc:type
           rdf:resource="http://purl.org/dc/dcmitype/StillImage" />
      </cc:Work>
    </rdf:RDF>
  </metadata>
  <defs
     id="defs2993" />
  <sodipodi:namedview
     pagecolor="#ffffff"
     bordercolor="#666666"
     borderopacity="1"
     objecttolerance="10"
     gridtolerance="10"
     guidetolerance="10"
     inkscape:pageopacity="0"
     inkscape:pageshadow="2"
     inkscape:window-width="1920"
     inkscape:window-height="1028"
     id="namedview2991"
     showgrid="false"
     inkscape:zoom="7.375"
     inkscape:cx="-23.322034"
     inkscape:cy="16"
     inkscape:window-x="-8"
     inkscape:window-y="-8"
     inkscape:window-maximized="1"
     inkscape:current-layer="svg2985" />
  <g
     id="g2987"
     transform="matrix(0.01230769,0,0,-0.01230769,0.53846154,31.461538)" />
  <path
     d="m 0,32 0,-3.692308 1.2307692,0 0,-24.6153843 L 0,3.6923077 0,0 l 3.6923077,0 0,1.2307692 24.6153843,0 L 28.307692,0 32,0 l 0,3.6923077 -1.230769,0 0,24.6153843 1.230769,0 L 32,32 l -3.692308,0 0,-1.230769 -24.6153843,0 0,1.230769 L 0,32 Z m 1.2307692,-1.230769 1.2307693,0 0,-1.230769 -1.2307693,0 0,1.230769 z m 0,-28.3076925 1.2307693,0 0,-1.2307693 -1.2307693,0 0,1.2307693 z m 1.2307693,25.8461535 1.2307692,0 0,1.23077 24.6153843,0 0,-1.23077 1.23077,0 0,-24.6153843 -1.23077,0 0,-1.2307692 -24.6153843,0 0,1.2307692 -1.2307692,0 0,24.6153843 z m 1.2307692,-17.230769 0,-6.1538461 24.6153843,0 0,6.1538461 -1.230769,0 q 0,-1.796923 -1.003077,-2.7446153 -1.003077,-0.9476923 -2.689231,-0.9476923 l -4.923077,0 0,17.2307696 q 0,0.295384 0.172308,0.516923 0.172308,0.221538 0.523077,0.350769 0.350769,0.129231 0.676923,0.209231 0.326154,0.08 0.830769,0.110769 0.504616,0.03077 0.775385,0.03692 0.270769,0.0062 0.713846,0.0062 l 0,1.230769 -12.307692,0 0,-1.230769 q 0.443077,0 0.713846,-0.0062 0.270769,-0.0062 0.775385,-0.03692 0.504615,-0.03077 0.830769,-0.110769 0.326154,-0.08 0.676923,-0.209231 0.350769,-0.129231 0.523077,-0.350769 0.172308,-0.221539 0.172308,-0.516923 l 0,-17.2307696 -4.923077,0 q -1.6861542,0 -2.6892312,0.9476923 Q 4.9230769,9.28 4.9230769,11.076923 l -1.2307692,0 z m 25.8461543,19.692308 1.230769,0 0,-1.230769 -1.230769,0 0,1.230769 z m 0,-28.3076925 1.230769,0 0,-1.2307693 -1.230769,0 0,1.2307693 z"
     id="path2989"
     inkscape:connector-curvature="0" />
</svg>
