<?xml version="1.0" encoding="UTF-8" standalone="no"?>
<svg
   xmlns:dc="http://purl.org/dc/elements/1.1/"
   xmlns:cc="http://creativecommons.org/ns#"
   xmlns:rdf="http://www.w3.org/1999/02/22-rdf-syntax-ns#"
   xmlns:svg="http://www.w3.org/2000/svg"
   xmlns="http://www.w3.org/2000/svg"
   xmlns:sodipodi="http://sodipodi.sourceforge.net/DTD/sodipodi-0.dtd"
   xmlns:inkscape="http://www.inkscape.org/namespaces/inkscape"
   version="1.1"
   width="32px"
   height="32px"
   id="svg2985"
   inkscape:version="0.91 r13725"
   sodipodi:docname="thumbs_down.svg">
  <metadata
     id="metadata2995">
    <rdf:RDF>
      <cc:Work
         rdf:about="">
        <dc:format>image/svg+xml</dc:format>
        <dc:type
           rdf:resource="http://purl.org/dc/dcmitype/StillImage" />
      </cc:Work>
    </rdf:RDF>
  </metadata>
  <defs
     id="defs2993" />
  <sodipodi:namedview
     pagecolor="#ffffff"
     bordercolor="#666666"
     borderopacity="1"
     objecttolerance="10"
     gridtolerance="10"
     guidetolerance="10"
     inkscape:pageopacity="0"
     inkscape:pageshadow="2"
     inkscape:window-width="1920"
     inkscape:window-height="1028"
     id="namedview2991"
     showgrid="false"
     inkscape:zoom="7.375"
     inkscape:cx="-23.322034"
     inkscape:cy="16"
     inkscape:window-x="-8"
     inkscape:window-y="-8"
     inkscape:window-maximized="1"
     inkscape:current-layer="svg2985" />
  <g
     id="g2987"
     transform="matrix(0.01333333,0,0,-0.01333333,-1.3333333,35.166667)" />
  <path
     d="m 0,20.666667 0,-17.3333337 5.3333333,0 q 0.5466667,0 0.9399997,0.3933334 0.393334,0.3933333 0.393334,0.94 l 0,14.6666663 q 0,0.546667 -0.393334,0.94 Q 5.88,20.666667 5.3333333,20.666667 L 0,20.666667 Z m 8,-4 L 8,6 q 0,-1.0933333 0.786667,-1.88 0.786666,-0.7866667 1.88,-0.7866667 l 2.04,0 L 14.813333,2.28 Q 15.346667,2 16,2 l 6.666667,0 Q 23.333333,2 23.92,2.3133333 24.506667,2.6266667 24.88,3.1866667 L 30.08,10.973333 31.213333,12.12 Q 32,12.88 32,14 l 0,2.666667 q 0,1.106666 -0.78,1.886666 -0.78,0.78 -1.886667,0.78 l -8.746666,0 0.693333,3.48 q 0.05333,0.226667 0.05333,0.52 l 0,4 q 0,1.106667 -0.78,1.886667 -0.78,0.78 -1.886666,0.78 l -1.333334,0 q -0.76,0 -1.4,-0.4 -0.64,-0.4 -0.986666,-1.066667 l -2.56,-5.12 L 8.53333,18.266667 Q 8,17.546667 8,16.666667 Z m 2.666667,0 4,5.333333 2.666666,5.333333 1.333334,0 0,-4 -1.333334,-6.666666 12,0 0,-2.666667 L 28,12.666667 22.666667,4.6666667 16,4.6666667 13.333333,6 l -2.666666,0 0,10.666667 z"
     id="path2989"
     inkscape:connector-curvature="0" />
</svg>
