<?xml version="1.0" encoding="UTF-8" standalone="no"?>
<svg
   xmlns:dc="http://purl.org/dc/elements/1.1/"
   xmlns:cc="http://creativecommons.org/ns#"
   xmlns:rdf="http://www.w3.org/1999/02/22-rdf-syntax-ns#"
   xmlns:svg="http://www.w3.org/2000/svg"
   xmlns="http://www.w3.org/2000/svg"
   xmlns:sodipodi="http://sodipodi.sourceforge.net/DTD/sodipodi-0.dtd"
   xmlns:inkscape="http://www.inkscape.org/namespaces/inkscape"
   version="1.1"
   width="32px"
   height="32px"
   id="svg2985"
   inkscape:version="0.91 r13725"
   sodipodi:docname="thumbs_up.svg">
  <metadata
     id="metadata2995">
    <rdf:RDF>
      <cc:Work
         rdf:about="">
        <dc:format>image/svg+xml</dc:format>
        <dc:type
           rdf:resource="http://purl.org/dc/dcmitype/StillImage" />
      </cc:Work>
    </rdf:RDF>
  </metadata>
  <defs
     id="defs2993" />
  <sodipodi:namedview
     pagecolor="#ffffff"
     bordercolor="#666666"
     borderopacity="1"
     objecttolerance="10"
     gridtolerance="10"
     guidetolerance="10"
     inkscape:pageopacity="0"
     inkscape:pageshadow="2"
     inkscape:window-width="1920"
     inkscape:window-height="1028"
     id="namedview2991"
     showgrid="false"
     inkscape:zoom="7.375"
     inkscape:cx="-23.322034"
     inkscape:cy="16"
     inkscape:window-x="-8"
     inkscape:window-y="-8"
     inkscape:window-maximized="1"
     inkscape:current-layer="svg2985" />
  <g
     id="g2987"
     transform="matrix(0.01333333,0,0,-0.01333333,-1.3333333,37.833333)" />
  <path
     d="m 0,30 0,-17.333333 5.3333333,0 Q 5.88,12.666667 6.273333,13.06 6.666667,13.453333 6.666667,14 l 0,14.666667 q 0,0.546666 -0.393334,0.94 Q 5.88,30 5.3333333,30 L 0,30 Z M 8,26 8,15.333333 q 0,-0.88 0.533333,-1.6 L 12.386667,8.6 l 2.56,-5.12 q 0.346666,-0.68 0.986666,-1.08 0.64,-0.4 1.4,-0.4 l 1.333334,0 q 1.106666,0 1.886666,0.78 0.78,0.78 0.78,1.8866667 l 0,4 -0.746666,4.0000003 8.746666,0 q 1.106667,0 1.886667,0.78 0.78,0.78 0.78,1.886666 L 32,18 q 0,1.12 -0.786667,1.88 L 30.066667,21.04 24.88,28.813333 q -0.373333,0.56 -0.96,0.873334 Q 23.333333,30 22.666667,30 L 16,30 q -0.64,0 -1.186667,-0.28 l -2.106666,-1.053333 -2.04,0 Q 9.56,28.666667 8.78,27.886667 8,27.106667 8,26 Z m 2.666667,0 2.666666,0 L 16,27.333333 l 6.666667,0 5.333333,-8 L 29.333333,18 l 0,-2.666667 -12,0 1.333334,-6.6666663 0,-4 -1.333334,0 L 14.666667,10 l -4,5.333333 0,10.666667 z"
     id="path2989"
     inkscape:connector-curvature="0" />
</svg>
