<?xml version="1.0" encoding="UTF-8" standalone="no"?>
<svg
   xmlns:dc="http://purl.org/dc/elements/1.1/"
   xmlns:cc="http://creativecommons.org/ns#"
   xmlns:rdf="http://www.w3.org/1999/02/22-rdf-syntax-ns#"
   xmlns:svg="http://www.w3.org/2000/svg"
   xmlns="http://www.w3.org/2000/svg"
   xmlns:sodipodi="http://sodipodi.sourceforge.net/DTD/sodipodi-0.dtd"
   xmlns:inkscape="http://www.inkscape.org/namespaces/inkscape"
   version="1.1"
   width="32px"
   height="32px"
   id="svg2985"
   inkscape:version="0.91 r13725"
   sodipodi:docname="tint.svg">
  <metadata
     id="metadata2995">
    <rdf:RDF>
      <cc:Work
         rdf:about="">
        <dc:format>image/svg+xml</dc:format>
        <dc:type
           rdf:resource="http://purl.org/dc/dcmitype/StillImage" />
      </cc:Work>
    </rdf:RDF>
  </metadata>
  <defs
     id="defs2993" />
  <sodipodi:namedview
     pagecolor="#ffffff"
     bordercolor="#666666"
     borderopacity="1"
     objecttolerance="10"
     gridtolerance="10"
     guidetolerance="10"
     inkscape:pageopacity="0"
     inkscape:pageshadow="2"
     inkscape:window-width="1920"
     inkscape:window-height="1028"
     id="namedview2991"
     showgrid="false"
     inkscape:zoom="7.375"
     inkscape:cx="-23.322034"
     inkscape:cy="16"
     inkscape:window-x="-8"
     inkscape:window-y="-8"
     inkscape:window-maximized="1"
     inkscape:current-layer="svg2985" />
  <g
     id="g2987"
     transform="matrix(0.01330008,0,0,-0.01330008,-2.7594971,34.560341)" />
  <path
     d="m 1.0706565,22.729842 q 0,-1.60931 0.4256027,-3.17872 0.4256026,-1.56941 1.1504572,-2.945968 0.7248545,-1.376559 1.6226101,-2.726517 0.8977556,-1.349959 1.915212,-2.753118 1.017456,-1.4031582 1.941812,-2.7797168 0.924356,-1.3765586 1.782211,-3.0523691 0.8578555,-1.6758105 1.3765595,-3.3383209 0.492103,1.6625104 1.343307,3.3316708 0.851207,1.6691605 1.775561,3.039069 0.924356,1.3699086 1.941812,2.766417 1.017457,1.396509 1.921862,2.739817 0.904406,1.343309 1.635911,2.713217 0.731504,1.369909 1.163757,2.939319 0.432253,1.56941 0.432253,3.17872 0,1.67581 -0.605154,3.18537 -0.605154,1.509559 -1.62926,2.613466 -1.024107,1.103907 -2.334164,1.915212 -1.310058,0.811305 -2.766417,1.216957 Q 12.708229,32 11.285121,32 9.8620115,32 8.4123025,31.600998 6.9625935,31.201995 5.6458851,30.39734 4.3291769,29.592685 3.3050705,28.502078 2.2809641,27.411471 1.6758103,25.908562 1.0706565,24.405653 1.0706565,22.729842 Z m 2.7398171,0 q 0.0133,1.103907 0.5985038,2.114713 0.5852036,1.010807 1.7024106,1.689111 1.1172065,0.678304 2.5137155,0.744804 0.665004,-0.0266 0.864506,-0.272651 0.199501,-0.246052 -0.0532,-0.565254 -0.252701,-0.319202 -0.811305,-0.558603 -0.824605,-0.372403 -1.330008,-1.336659 -0.505403,-0.964256 -0.505403,-2.094763 0,-1.62261 0.232751,-3.418121 0.232752,-1.795511 0.658354,-3.059019 0.172901,-0.545304 -0.252701,-0.744805 -0.452203,-0.226101 -0.970906,0.186201 -0.266003,0.226102 -0.4522042,0.558604 -0.8911055,1.502909 -1.5494596,3.371571 -0.6583542,1.868662 -0.6450541,3.384871 z M 20.714879,10.387365 q 0,-1.103907 0.399002,-2.1745637 Q 21.512884,7.1421446 22.151288,6.1978387 22.789692,5.2535328 23.461346,4.3358271 24.133001,3.4181214 24.804655,2.2676642 25.47631,1.117207 25.822112,0 q 0.292601,0.957606 0.811305,1.9351621 0.518703,0.9775561 1.070656,1.7223608 0.551953,0.7448046 1.137158,1.5960099 0.585203,0.8512054 1.044055,1.58936 0.458853,0.7381546 0.751455,1.6558603 0.292603,0.9177058 0.292603,1.8487119 0,1.383208 -0.791356,2.480465 -0.791355,1.097257 -1.948463,1.64921 -1.157107,0.551954 -2.367414,0.551954 -0.891106,0 -1.788861,-0.325852 -0.897756,-0.325852 -1.642561,-0.904406 -0.744804,-0.578553 -1.210307,-1.476309 -0.465503,-0.897756 -0.465503,-1.935162 z m 1.369908,0 q 0.0133,0.864505 0.684955,1.54281 0.671654,0.678304 1.72236,0.731504 0.332502,-0.0133 0.432253,-0.139651 0.09975,-0.126351 -0.0266,-0.279302 -0.126351,-0.15295 -0.405652,-0.285951 -0.399003,-0.172901 -0.658355,-0.665004 -0.259351,-0.492104 -0.259351,-1.050707 0,-1.8753117 0.452202,-3.2319202 0.0931,-0.319202 -0.186201,-0.3990025 -0.332502,-0.093101 -0.598503,0.3059019 l -0.0532,0.093101 Q 22.749792,7.7406488 22.41729,8.6783046 22.084788,9.6159605 22.084788,10.387365 Z"
     id="path2989"
     inkscape:connector-curvature="0" />
</svg>
