<?xml version="1.0" encoding="UTF-8" standalone="no"?>
<svg
   xmlns:dc="http://purl.org/dc/elements/1.1/"
   xmlns:cc="http://creativecommons.org/ns#"
   xmlns:rdf="http://www.w3.org/1999/02/22-rdf-syntax-ns#"
   xmlns:svg="http://www.w3.org/2000/svg"
   xmlns="http://www.w3.org/2000/svg"
   xmlns:sodipodi="http://sodipodi.sourceforge.net/DTD/sodipodi-0.dtd"
   xmlns:inkscape="http://www.inkscape.org/namespaces/inkscape"
   version="1.1"
   width="32px"
   height="32px"
   id="svg2985"
   inkscape:version="0.91 r13725"
   sodipodi:docname="tower.svg">
  <metadata
     id="metadata2995">
    <rdf:RDF>
      <cc:Work
         rdf:about="">
        <dc:format>image/svg+xml</dc:format>
        <dc:type
           rdf:resource="http://purl.org/dc/dcmitype/StillImage" />
      </cc:Work>
    </rdf:RDF>
  </metadata>
  <defs
     id="defs2993" />
  <sodipodi:namedview
     pagecolor="#ffffff"
     bordercolor="#666666"
     borderopacity="1"
     objecttolerance="10"
     gridtolerance="10"
     guidetolerance="10"
     inkscape:pageopacity="0"
     inkscape:pageshadow="2"
     inkscape:window-width="1920"
     inkscape:window-height="1028"
     id="namedview2991"
     showgrid="false"
     inkscape:zoom="7.375"
     inkscape:cx="-23.322034"
     inkscape:cy="16"
     inkscape:window-x="-8"
     inkscape:window-y="-8"
     inkscape:window-maximized="1"
     inkscape:current-layer="svg2985" />
  <g
     id="g2987"
     transform="matrix(0.01333333,0,0,-0.01333333,-6.1666667,33.333333)" />
  <path
     d="m 3.3333335,32 25.3333335,0 0,-2.666667 q 0,-0.546666 -0.393333,-0.94 Q 27.880001,28 27.333334,28 L 4.6666668,28 q -0.5466666,0 -0.94,0.393333 -0.3933333,0.393334 -0.3933333,0.94 l 0,2.666667 z m 2.6666667,-5.333333 4.0000008,-4 0,-8 -4.0000008,-5.3333337 20.0000008,0 -4,5.3333337 0,8 4,4 -20.0000008,0 z m 0,-18.666667 0,-6.6666667 1.3333333,0 0,2.6666667 4.0000005,0 0,-4 2.666667,0 0,4 4,0 0,-4 2.666666,0 0,4 4,0 0,-2.6666667 1.333334,0 0,6.6666667 -20.0000008,0 z"
     id="path2989"
     inkscape:connector-curvature="0" />
</svg>
