<?xml version="1.0" encoding="UTF-8" standalone="no"?>
<svg
   xmlns:dc="http://purl.org/dc/elements/1.1/"
   xmlns:cc="http://creativecommons.org/ns#"
   xmlns:rdf="http://www.w3.org/1999/02/22-rdf-syntax-ns#"
   xmlns:svg="http://www.w3.org/2000/svg"
   xmlns="http://www.w3.org/2000/svg"
   xmlns:sodipodi="http://sodipodi.sourceforge.net/DTD/sodipodi-0.dtd"
   xmlns:inkscape="http://www.inkscape.org/namespaces/inkscape"
   version="1.1"
   width="32px"
   height="32px"
   id="svg2985"
   inkscape:version="0.91 r13725"
   sodipodi:docname="translate.svg">
  <metadata
     id="metadata2995">
    <rdf:RDF>
      <cc:Work
         rdf:about="">
        <dc:format>image/svg+xml</dc:format>
        <dc:type
           rdf:resource="http://purl.org/dc/dcmitype/StillImage" />
      </cc:Work>
    </rdf:RDF>
  </metadata>
  <defs
     id="defs2993" />
  <sodipodi:namedview
     pagecolor="#ffffff"
     bordercolor="#666666"
     borderopacity="1"
     objecttolerance="10"
     gridtolerance="10"
     guidetolerance="10"
     inkscape:pageopacity="0"
     inkscape:pageshadow="2"
     inkscape:window-width="1920"
     inkscape:window-height="1028"
     id="namedview2991"
     showgrid="false"
     inkscape:zoom="7.375"
     inkscape:cx="-23.322034"
     inkscape:cy="16"
     inkscape:window-x="-8"
     inkscape:window-y="-8"
     inkscape:window-maximized="1"
     inkscape:current-layer="svg2985" />
  <g
     id="g2987"
     transform="matrix(0.01391304,0,0,-0.01391304,-1.7608696,35.152174)" />
  <path
     d="M 0,13.913044 0,5.5652174 Q 0,3.2556522 1.6347826,1.6278261 3.2695652,0 5.565217,0 l 8.347826,0 q 2.309566,0 3.937392,1.6278261 1.627826,1.6278261 1.627826,3.9373913 l 0,4.5913046 -1.391304,0 q -1.627827,0 -3.08174,0.626087 -1.453913,0.626087 -2.566956,1.73913 l -1.307826,0 0,-1.391304 2.782608,0 0,-1.3913046 -2.782608,0 0,-1.0713043 Q 12.034783,8.5426087 12.82087,8.2643478 13.606957,7.986087 14.128696,7.6452174 14.650435,7.3043478 14.866087,7.1304348 15.081739,6.9565217 15.234783,6.8034783 15.735652,6.2608696 15.714783,5.5304348 15.693913,4.8 15.165217,4.2852174 14.650435,3.7704348 13.913043,3.7704348 q -0.765217,0 -1.307826,0.5426087 Q 12.452174,4.48 12.201739,4.6678261 11.951304,4.8556522 11.255652,5.0921739 10.56,5.3286956 9.73913,5.3286956 q -1.850434,0 -2.88,-1.0295652 -0.514782,-0.5426087 -1.293913,-0.5426087 -0.7095648,0 -1.2382605,0.4869566 Q 3.7843478,4.7721739 3.7565217,5.5095652 3.7286957,6.2747826 4.2434783,6.8034783 4.3965217,6.9565217 4.6121739,7.1304348 4.8278261,7.3043478 5.3495652,7.6452174 5.871304,7.986087 6.657391,8.2643478 7.443478,8.5426087 8.347826,8.6678261 l 0,1.0713043 -2.782609,0 0,1.3913046 2.782609,0 0,1.391304 -1.391304,0 0,1.391305 1.391304,0 0,1.391304 2.323478,0 Q 10.156522,16.64 10.156522,18.086957 l 0,1.391304 -4.591305,0 q -2.2956518,0 -3.9304344,-1.627826 Q 0,16.222609 0,13.913044 Z M 2.7826087,26.434783 4.5773913,24.64 7.36,27.422609 l -1.794783,1.794782 5.565218,0 0,-5.565217 -1.794783,1.794783 -2.782609,-2.782609 1.794783,-1.794783 -5.5652173,0 0,5.565218 z m 9.7391303,0 q 0,2.309565 1.627826,3.937391 Q 15.777391,32 18.086957,32 l 8.347826,0 q 2.295652,0 3.930434,-1.627826 Q 32,28.744348 32,26.434783 l 0,-8.347826 q 0,-2.309566 -1.634783,-3.937392 -1.634782,-1.627826 -3.930434,-1.627826 l -8.347826,0 q -2.309566,0 -3.937392,1.627826 -1.627826,1.627826 -1.627826,3.937392 l 0,8.347826 z m 5.565218,0 0,-6.956522 2.782608,-1.391304 2.782609,0 2.782609,1.391304 0,6.956522 -2.782609,0 0,-2.782609 -2.782609,0 0,2.782609 -2.782608,0 z m 2.782608,-4.173913 0,-1.391305 2.782609,0 0,1.391305 -2.782609,0 z"
     id="path2989"
     inkscape:connector-curvature="0" />
</svg>
