<?xml version="1.0" encoding="UTF-8" standalone="no"?>
<svg
   xmlns:dc="http://purl.org/dc/elements/1.1/"
   xmlns:cc="http://creativecommons.org/ns#"
   xmlns:rdf="http://www.w3.org/1999/02/22-rdf-syntax-ns#"
   xmlns:svg="http://www.w3.org/2000/svg"
   xmlns="http://www.w3.org/2000/svg"
   xmlns:sodipodi="http://sodipodi.sourceforge.net/DTD/sodipodi-0.dtd"
   xmlns:inkscape="http://www.inkscape.org/namespaces/inkscape"
   version="1.1"
   width="32px"
   height="32px"
   id="svg2985"
   inkscape:version="0.91 r13725"
   sodipodi:docname="transfer_thin.svg">
  <metadata
     id="metadata2995">
    <rdf:RDF>
      <cc:Work
         rdf:about="">
        <dc:format>image/svg+xml</dc:format>
        <dc:type
           rdf:resource="http://purl.org/dc/dcmitype/StillImage" />
        <dc:title />
      </cc:Work>
    </rdf:RDF>
  </metadata>
  <defs
     id="defs2993" />
  <sodipodi:namedview
     pagecolor="#ffffff"
     bordercolor="#666666"
     borderopacity="1"
     objecttolerance="10"
     gridtolerance="10"
     guidetolerance="10"
     inkscape:pageopacity="0"
     inkscape:pageshadow="2"
     inkscape:window-width="1920"
     inkscape:window-height="1028"
     id="namedview2991"
     showgrid="false"
     inkscape:zoom="7.375"
     inkscape:cx="-39.525424"
     inkscape:cy="16"
     inkscape:window-x="-8"
     inkscape:window-y="-8"
     inkscape:window-maximized="1"
     inkscape:current-layer="svg2985" />
  <g
     id="g2987"
     transform="matrix(0.01777778,0,0,-0.01777778,-5.8711111,40.375197)" />
  <path
     d="m 0,22.591103 q 0,0.224096 0.2176871,0.395465 l 9.7959179,7.118395 q 0.217687,0.171377 0.380953,0.09228 0.163271,-0.07909 0.163271,-0.355918 l 0,-4.613774 8.163264,0 0,-5.272888 -8.163265,0 0,-4.61377 q 0,-0.276827 -0.163272,-0.355918 -0.163271,-0.07909 -0.380951,0.09227 L 0.2176871,22.195636 Q 0,22.367005 0,22.591103 Z m 2.3945579,-11.20488 q 0,0.276827 0.1972789,0.46797 0.1972788,0.191141 0.4829932,0.191141 l 0.680272,0 0,-5.2728867 -0.680272,0 q -0.2857144,0 -0.4829932,0.1911431 -0.1972789,0.1911413 -0.1972789,0.467968 l 0,3.9546646 z m 2.7210881,0.659111 1.360544,0 0,-5.2728867 -1.360544,0 0,5.2728867 z m 2.721088,0 1.360544,0 0,-5.2728867 -1.360544,0 0,5.2728867 z m 2.721088,0 1.360546,0 0,-5.2728867 -1.360546,0 0,5.2728867 z m 2.72109,0 0,-5.2728867 8.163266,0 0,-4.6137744 q 0,-0.2768249 0.163271,-0.3559182 0.163271,-0.079093 0.380953,0.092284 L 31.78232,9.013434 Q 32,9.184794 32,9.4154837 q 0,0.230688 -0.217687,0.3888747 l -9.795918,7.1183946 q -0.217687,0.17136 -0.380951,0.09227 -0.163272,-0.07909 -0.163272,-0.35592 l 0,-4.613775 -8.163265,0 z m 6.80272,13.182212 1.360546,0 0,-5.272887 -1.360546,0 0,5.272887 z m 2.72109,0 1.360544,0 0,-5.272887 -1.360544,0 0,5.272887 z m 2.721088,0 1.360544,0 0,-5.272887 -1.360544,0 0,5.272887 z m 2.721088,0 0.680272,0 q 0.285714,0 0.482992,-0.191143 0.19728,-0.191142 0.19728,-0.467968 l 0,-3.954667 q 0,-0.276827 -0.19728,-0.467968 -0.197278,-0.191141 -0.482992,-0.191141 l -0.680272,0 0,5.272887 z"
     id="path2989"
     inkscape:connector-curvature="0" />
</svg>
