<?xml version="1.0" encoding="UTF-8" standalone="no"?>
<svg
   xmlns:dc="http://purl.org/dc/elements/1.1/"
   xmlns:cc="http://creativecommons.org/ns#"
   xmlns:rdf="http://www.w3.org/1999/02/22-rdf-syntax-ns#"
   xmlns:svg="http://www.w3.org/2000/svg"
   xmlns="http://www.w3.org/2000/svg"
   xmlns:sodipodi="http://sodipodi.sourceforge.net/DTD/sodipodi-0.dtd"
   xmlns:inkscape="http://www.inkscape.org/namespaces/inkscape"
   version="1.1"
   width="32px"
   height="32px"
   id="svg2985"
   inkscape:version="0.91 r13725"
   sodipodi:docname="tree_deciduous.svg">
  <metadata
     id="metadata2995">
    <rdf:RDF>
      <cc:Work
         rdf:about="">
        <dc:format>image/svg+xml</dc:format>
        <dc:type
           rdf:resource="http://purl.org/dc/dcmitype/StillImage" />
      </cc:Work>
    </rdf:RDF>
  </metadata>
  <defs
     id="defs2993" />
  <sodipodi:namedview
     pagecolor="#ffffff"
     bordercolor="#666666"
     borderopacity="1"
     objecttolerance="10"
     gridtolerance="10"
     guidetolerance="10"
     inkscape:pageopacity="0"
     inkscape:pageshadow="2"
     inkscape:window-width="1920"
     inkscape:window-height="1028"
     id="namedview2991"
     showgrid="false"
     inkscape:zoom="7.375"
     inkscape:cx="-23.322034"
     inkscape:cy="16"
     inkscape:window-x="-8"
     inkscape:window-y="-8"
     inkscape:window-maximized="1"
     inkscape:current-layer="svg2985" />
  <g
     id="g2987"
     transform="matrix(0.0128,0,0,-0.0128,-4.24,32.98)" />
  <path
     d="M 3.2,14.08 Q 3.2,12.736 4.032,11.6928 4.864,10.6496 6.144,10.3552 5.76,9.344 5.76,8.32 5.76,6.7584 6.5344,5.4272 7.3088,4.096 8.6336,3.328 9.9584,2.56 11.52,2.56 q 0.4864,0 1.0368,0.1024 Q 13.0816,1.472 14.1824,0.736 15.2832,0 16.64,0 18.3808,0 19.6544,1.184 20.928,2.368 21.0816,4.0832 21.7344,3.84 22.4,3.84 q 1.5872,0 2.7136,1.1264 1.1264,1.1264 1.1264,2.7136 0,0.9088 -0.4352,1.7536 1.344,0.6144 2.1696,1.8624 0.8256,1.248 0.8256,2.784 0,1.7792 -1.088,3.1488 -1.088,1.3696 -2.7648,1.792 L 24.96,19.2 q 0.0512,0.9216 -0.2176,1.7216 -0.2688,0.8 -0.7808,1.3056 -0.512,0.5056 -1.1584,0.7296 -0.6464,0.224 -1.4336,-0.0064 Q 20.5824,22.72 19.84,22.0416 l 0,8.6784 1.28,1.28 -8.96,0 1.28,-1.28 0,-8.1664 Q 12.8256,23.424 11.9744,23.8528 11.1232,24.2816 10.272,24.2496 9.4208,24.2176 8.5824,23.8272 7.744,23.4368 7.1104,22.7776 6.4768,22.1184 6.0992,21.1776 5.7216,20.2368 5.76,19.2 5.7984,18.368 5.9904,17.7536 4.7744,17.408 3.9872,16.3904 3.2,15.3728 3.2,14.08 Z"
     id="path2989"
     inkscape:connector-curvature="0" />
</svg>
