<?xml version="1.0" encoding="UTF-8" standalone="no"?>
<svg
   xmlns:dc="http://purl.org/dc/elements/1.1/"
   xmlns:cc="http://creativecommons.org/ns#"
   xmlns:rdf="http://www.w3.org/1999/02/22-rdf-syntax-ns#"
   xmlns:svg="http://www.w3.org/2000/svg"
   xmlns="http://www.w3.org/2000/svg"
   xmlns:sodipodi="http://sodipodi.sourceforge.net/DTD/sodipodi-0.dtd"
   xmlns:inkscape="http://www.inkscape.org/namespaces/inkscape"
   version="1.1"
   width="32px"
   height="32px"
   id="svg2985"
   inkscape:version="0.91 r13725"
   sodipodi:docname="tree_conifer.svg">
  <metadata
     id="metadata2995">
    <rdf:RDF>
      <cc:Work
         rdf:about="">
        <dc:format>image/svg+xml</dc:format>
        <dc:type
           rdf:resource="http://purl.org/dc/dcmitype/StillImage" />
      </cc:Work>
    </rdf:RDF>
  </metadata>
  <defs
     id="defs2993" />
  <sodipodi:namedview
     pagecolor="#ffffff"
     bordercolor="#666666"
     borderopacity="1"
     objecttolerance="10"
     gridtolerance="10"
     guidetolerance="10"
     inkscape:pageopacity="0"
     inkscape:pageshadow="2"
     inkscape:window-width="1920"
     inkscape:window-height="1028"
     id="namedview2991"
     showgrid="false"
     inkscape:zoom="7.375"
     inkscape:cx="-23.322034"
     inkscape:cy="16"
     inkscape:window-x="-8"
     inkscape:window-y="-8"
     inkscape:window-maximized="1"
     inkscape:current-layer="svg2985" />
  <g
     id="g2987"
     transform="matrix(0.01328332,0,0,-0.01328352,-4.8626258,33.298632)" />
  <path
     d="m 2.3842867,25.218763 q -0.053133,-0.139477 0.1461164,-0.325446 l 6.2962926,-6.176837 -4.728861,0 q -0.2789496,0 -0.3320829,-0.139477 -0.053133,-0.139477 0.1328325,-0.325446 l 6.3095757,-6.176837 -3.4005293,0 q -0.2789496,0 -0.3320829,-0.139477 -0.053133,-0.139477 0.1328325,-0.325446 l 6.2962917,-6.1768373 -2.072197,0 q -0.265666,0 -0.3188,-0.1394769 -0.05313,-0.139477 0.132835,-0.3254463 L 15.521488,0.1859693 Q 15.720737,0 15.999687,0 q 0.278949,0 0.4782,0.1859693 l 4.874976,4.7820672 q 0.19925,0.1859693 0.139476,0.3254463 -0.05978,0.1394769 -0.325442,0.1394769 l -2.072197,0 6.296291,6.1768373 q 0.185967,0.185969 0.132836,0.325446 -0.05314,0.139477 -0.318801,0.139477 l -3.400529,0 6.296293,6.176837 q 0.185966,0.185969 0.132836,0.325446 -0.05313,0.139477 -0.332083,0.139477 l -4.715578,0 6.296293,6.176837 q 0.185966,0.185969 0.132835,0.325446 -0.05313,0.139477 -0.332083,0.139477 l -9.962488,0 0,5.313408 L 20.648854,32 l -9.298322,0 1.328332,-1.328352 0,-5.313408 -9.9624878,0 q -0.2789496,0 -0.3320829,-0.139477 z"
     id="path2989"
     inkscape:connector-curvature="0" />
</svg>
