<?xml version="1.0" encoding="UTF-8" standalone="no"?>
<svg
   xmlns:dc="http://purl.org/dc/elements/1.1/"
   xmlns:cc="http://creativecommons.org/ns#"
   xmlns:rdf="http://www.w3.org/1999/02/22-rdf-syntax-ns#"
   xmlns:svg="http://www.w3.org/2000/svg"
   xmlns="http://www.w3.org/2000/svg"
   xmlns:sodipodi="http://sodipodi.sourceforge.net/DTD/sodipodi-0.dtd"
   xmlns:inkscape="http://www.inkscape.org/namespaces/inkscape"
   version="1.1"
   width="32px"
   height="32px"
   id="svg2985"
   inkscape:version="0.48.4 r9939"
   sodipodi:docname="truck.svg">
  <metadata
     id="metadata2995">
    <rdf:RDF>
      <cc:Work
         rdf:about="">
        <dc:format>image/svg+xml</dc:format>
        <dc:type
           rdf:resource="http://purl.org/dc/dcmitype/StillImage" />
      </cc:Work>
    </rdf:RDF>
  </metadata>
  <defs
     id="defs2993" />
  <sodipodi:namedview
     pagecolor="#ffffff"
     bordercolor="#666666"
     borderopacity="1"
     objecttolerance="10"
     gridtolerance="10"
     guidetolerance="10"
     inkscape:pageopacity="0"
     inkscape:pageshadow="2"
     inkscape:window-width="1920"
     inkscape:window-height="1018"
     id="namedview2991"
     showgrid="false"
     inkscape:zoom="7.375"
     inkscape:cx="-0.20338983"
     inkscape:cy="16"
     inkscape:window-x="-8"
     inkscape:window-y="-8"
     inkscape:window-maximized="1"
     inkscape:current-layer="svg2985" />
  <g
     id="g2987"
     transform="matrix(0.01,0,0,-0.01,4,31)" />
  <path
     d="m 0,15.51 v -5 Q 0,10.1 0.295,9.8 0.59,9.5 1,9.5 V 9 Q 1,8.79 1.145,8.645 1.29,8.5 1.5,8.5 H 4 V 7.92 Q 4,7.45 4.28,7.085 4.56,6.72 5,6.58 V 2.5 H 27 V 6.58 Q 27.44,6.72 27.72,7.085 28,7.45 28,7.92 V 8.5 h 2.5 q 0.21,0 0.355,0.145 Q 31,8.79 31,9 v 0.5 q 0.41,0 0.705,0.3 Q 32,10.1 32,10.51 v 5 q 0,0.41 -0.295,0.7 Q 31.41,16.5 31,16.5 V 17 q 0,0.21 -0.145,0.355 Q 30.71,17.5 30.5,17.5 H 28 V 29 q 0,0.21 -0.145,0.355 Q 27.71,29.5 27.5,29.5 h -2 q -0.21,0 -0.355,-0.145 Q 25,29.21 25,29 V 27.5 H 7 V 29 Q 7,29.21 6.855,29.355 6.71,29.5 6.5,29.5 h -2 Q 4.29,29.5 4.145,29.355 4,29.21 4,29 V 17.5 H 1.5 Q 1.29,17.5 1.145,17.355 1,17.21 1,17 V 16.5 Q 0.59,16.5 0.295,16.21 0,15.92 0,15.51 z m 5,6.1 1,0.89 h 4 v -1.99 l -5,-1 v 2.1 z m 1,-6.89 q 0,0.2 0.14,0.4 0.14,0.2 0.33,0.27 0.13,0.05 0.38,0.13 0.25,0.08 1.14,0.29 0.89,0.21 1.905,0.375 1.015,0.165 2.67,0.295 1.655,0.13 3.435,0.13 1.78,0 3.415,-0.125 1.635,-0.125 2.7,-0.305 1.065,-0.18 1.875,-0.36 0.81,-0.18 1.17,-0.3 l 0.37,-0.13 Q 25.72,15.32 25.86,15.12 26,14.92 26,14.72 V 10.01 Q 26,9.8 25.855,9.65 25.71,9.5 25.5,9.5 H 6.5 Q 6.29,9.5 6.145,9.65 6,9.8 6,10.01 v 4.71 z m 1,9.78 h 3 v -1 H 7 v 1 z m 4,-3 h 10 v -1 H 11 v 1 z m 0,-2 h 10 v -1 H 11 v 1 z m 2,7 h 6 v -2 h -6 v 2 z m 9,-2 h 3 v -1 h -3 v 1 z m 0,-2 h 4 l 1,-0.89 v -2.1 l -5,1 v 1.99 z"
     id="path2989"
     inkscape:connector-curvature="0" />
</svg>
