<?xml version="1.0" encoding="UTF-8" standalone="no"?>
<svg
   xmlns:dc="http://purl.org/dc/elements/1.1/"
   xmlns:cc="http://creativecommons.org/ns#"
   xmlns:rdf="http://www.w3.org/1999/02/22-rdf-syntax-ns#"
   xmlns:svg="http://www.w3.org/2000/svg"
   xmlns="http://www.w3.org/2000/svg"
   xmlns:sodipodi="http://sodipodi.sourceforge.net/DTD/sodipodi-0.dtd"
   xmlns:inkscape="http://www.inkscape.org/namespaces/inkscape"
   version="1.1"
   width="32px"
   height="32px"
   id="svg2985"
   inkscape:version="0.91 r13725"
   sodipodi:docname="turtle.svg">
  <metadata
     id="metadata2995">
    <rdf:RDF>
      <cc:Work
         rdf:about="">
        <dc:format>image/svg+xml</dc:format>
        <dc:type
           rdf:resource="http://purl.org/dc/dcmitype/StillImage" />
      </cc:Work>
    </rdf:RDF>
  </metadata>
  <defs
     id="defs2993" />
  <sodipodi:namedview
     pagecolor="#ffffff"
     bordercolor="#666666"
     borderopacity="1"
     objecttolerance="10"
     gridtolerance="10"
     guidetolerance="10"
     inkscape:pageopacity="0"
     inkscape:pageshadow="2"
     inkscape:window-width="1920"
     inkscape:window-height="1028"
     id="namedview2991"
     showgrid="false"
     inkscape:zoom="7.375"
     inkscape:cx="-23.322034"
     inkscape:cy="16"
     inkscape:window-x="-8"
     inkscape:window-y="-8"
     inkscape:window-maximized="1"
     inkscape:current-layer="svg2985" />
  <g
     id="g2987"
     transform="matrix(0.01183947,0,0,-0.01183957,0.75948532,37.023531)" />
  <path
     d="M 0.00912863,17.977209 Q 0.12752333,17.456268 1.6666542,16.55646 2.5901328,16.023679 3.5846483,15.621134 l 0,-0.331508 q 0,-1.787776 0.716288,-3.380199 Q 5.0172241,10.317005 6.3018065,9.1212076 7.5863885,7.9254107 9.4925435,7.2268758 11.398699,6.528341 13.648198,6.528341 q 1.823278,0 3.403847,0.5031818 1.580571,0.5031819 2.734919,1.3970698 1.154348,0.8938878 1.983111,2.0245674 0.828763,1.130679 1.33786,2.48039 0.22495,0.248631 0.491338,0.390706 0.266388,0.142075 0.550535,0.165754 0.284147,0.02368 0.568294,-0.159834 0.284148,-0.183513 0.485419,-0.586059 l 0.01184,-0.07104 q 0.153913,-0.911647 0.390703,-1.444428 0.236789,-0.532781 0.591973,-0.787332 0.355184,-0.254551 0.852442,-0.290069 0.497257,-0.03552 1.172107,0.04736 0.08288,0.01184 0.21903,0.04144 0.136154,0.0296 0.532776,0.118396 0.396623,0.0888 0.751807,0.183514 0.355185,0.09472 0.793245,0.248631 0.438061,0.153914 0.751806,0.307829 0.313746,0.153914 0.526857,0.355187 0.21311,0.201272 0.201271,0.402545 -0.01184,0.390706 -0.03552,0.674856 -0.02368,0.28415 -0.0592,0.54462 -0.03552,0.260471 -0.0592,0.384786 -0.02368,0.124316 -0.09472,0.426225 -0.07104,0.301909 -0.106555,0.443984 -0.118395,0.509102 -0.372944,0.668936 -0.254548,0.159834 -0.799164,0.171674 l -1.598329,0.118396 q -1.622007,0.343347 -3.5696,1.870652 -1.947592,1.527305 -2.575084,2.758621 l 0.402542,2.024567 q 0.09472,0.485423 0.337425,1.000444 0.242709,0.515021 0.491337,0.751813 0.23679,0.248631 0.06512,0.420305 -0.171665,0.171674 -0.657083,0.171674 l -2.367894,0 q -0.189431,0 -0.343344,-0.0296 -0.153913,-0.0296 -0.242709,-0.08288 -0.0888,-0.05328 -0.124315,-0.124316 -0.03552,-0.07104 -0.0059,-0.165754 0.0296,-0.09472 0.124314,-0.189433 0.236789,-0.236792 0.343345,-0.757733 0.106555,-0.520941 0.01184,-0.994524 l -0.201271,-0.982685 q -1.243144,0.402546 -2.817795,0.591979 l -0.307826,1.574663 q -0.09472,0.485423 0.0059,1.000444 0.100635,0.515022 0.349264,0.751813 0.09472,0.09472 0.124315,0.189433 0.0296,0.09472 -0.0059,0.165755 -0.03552,0.07104 -0.124315,0.124315 -0.0888,0.05328 -0.242709,0.08288 -0.153933,0.0296 -0.343364,0.0296 l -2.367894,0 q -0.189431,0 -0.343344,-0.0296 -0.153914,-0.0296 -0.24271,-0.08288 -0.0888,-0.05328 -0.124314,-0.124315 -0.03552,-0.07104 -0.0059,-0.165755 0.0296,-0.09472 0.124315,-0.189433 0.248629,-0.236791 0.491338,-0.751813 0.242709,-0.515021 0.337424,-1.000444 l 0.272308,-1.361551 q -0.840602,0.03552 -1.704883,0.03552 -1.314181,0 -2.391573,-0.08288 l 0.04736,0.224952 q 0.09472,0.485423 0.337425,1.000444 0.242709,0.515021 0.479498,0.751813 0.248629,0.248631 0.07696,0.420305 -0.171697,0.171674 -0.668955,0.171674 l -2.3678955,0 q -0.485418,0 -0.65709,-0.171674 -0.171672,-0.171674 0.06512,-0.420305 0.248629,-0.236792 0.355184,-0.751813 0.106555,-0.515021 0.01184,-1.000444 l -0.09472,-0.497262 Q 7.8586965,21.292289 7.1838467,21.102856 l -0.4025419,2.024567 q -0.094716,0.485423 0.00592,1.000444 0.1006355,0.515022 0.3492643,0.751813 0.2486289,0.248631 0.071037,0.420305 -0.1775921,0.171674 -0.6630105,0.171674 l -2.3678939,0 q -0.3196656,0 -0.5150169,-0.0888 -0.1953512,-0.0888 -0.2131104,-0.224952 -0.017759,-0.136155 0.1361539,-0.301909 0.2486288,-0.248631 0.4913379,-0.775492 0.2427093,-0.526861 0.337425,-1.012283 L 4.9935452,20.09649 Q 4.8988294,20.037295 4.6561203,19.90114 4.4134112,19.764984 4.3364547,19.711706 4.2594981,19.658428 4.0937454,19.516353 3.9279929,19.374279 3.8628758,19.238123 3.7977587,19.101968 3.7148824,18.877016 3.6320062,18.652065 3.5846483,18.367915 l -2.78227527,0 q -0.8879602,0 -0.7932444,-0.390706 z"
     id="path2989"
     inkscape:connector-curvature="0" />
</svg>
