<?xml version="1.0" encoding="UTF-8" standalone="no"?>
<svg
   xmlns:dc="http://purl.org/dc/elements/1.1/"
   xmlns:cc="http://creativecommons.org/ns#"
   xmlns:rdf="http://www.w3.org/1999/02/22-rdf-syntax-ns#"
   xmlns:svg="http://www.w3.org/2000/svg"
   xmlns="http://www.w3.org/2000/svg"
   xmlns:sodipodi="http://sodipodi.sourceforge.net/DTD/sodipodi-0.dtd"
   xmlns:inkscape="http://www.inkscape.org/namespaces/inkscape"
   version="1.1"
   width="32px"
   height="32px"
   id="svg2985"
   inkscape:version="0.91 r13725"
   sodipodi:docname="umbrella.svg">
  <metadata
     id="metadata2995">
    <rdf:RDF>
      <cc:Work
         rdf:about="">
        <dc:format>image/svg+xml</dc:format>
        <dc:type
           rdf:resource="http://purl.org/dc/dcmitype/StillImage" />
      </cc:Work>
    </rdf:RDF>
  </metadata>
  <defs
     id="defs2993" />
  <sodipodi:namedview
     pagecolor="#ffffff"
     bordercolor="#666666"
     borderopacity="1"
     objecttolerance="10"
     gridtolerance="10"
     guidetolerance="10"
     inkscape:pageopacity="0"
     inkscape:pageshadow="2"
     inkscape:window-width="1920"
     inkscape:window-height="1028"
     id="namedview2991"
     showgrid="false"
     inkscape:zoom="7.375"
     inkscape:cx="-23.322034"
     inkscape:cy="16"
     inkscape:window-x="-8"
     inkscape:window-y="-8"
     inkscape:window-maximized="1"
     inkscape:current-layer="svg2985" />
  <g
     id="g2987"
     transform="matrix(0.01143265,0,0,-0.01143265,0.7134691,30.000716)" />
  <path
     d="m 1.137549,17.9607 q 0,-3.018221 1.0746695,-5.802072 Q 3.286888,9.3747767 5.1161128,7.2883173 6.9453375,5.2018578 9.489103,3.8756699 12.032869,2.549482 14.856734,2.3436942 l 0,-1.2004287 q 0,-0.4687389 0.337264,-0.8060022 Q 15.531261,0 16,0 q 0.468739,0 0.806002,0.3372633 0.337263,0.3372633 0.337263,0.8060022 l 0,1.2004287 q 2.823866,0.2057878 5.367632,1.5319757 2.543765,1.3261879 4.37299,3.4126474 1.829225,2.0864594 2.903894,4.8703107 1.07467,2.783851 1.07467,5.802072 l -0.05716,0 q -1.554841,-3.075384 -5.0418,-3.075384 -1.486245,0 -2.749554,0.588782 -1.263308,0.588782 -2.13219,1.697749 -0.903179,-1.154698 -2.17792,-1.840657 -1.274741,-0.68596 -2.703823,-0.68596 -1.406217,0 -2.680958,0.725974 -1.274741,0.725974 -2.200786,1.91497 -0.880314,-1.143266 -2.149339,-1.783494 -1.2690243,-0.640229 -2.7209714,-0.640229 -3.4869597,0 -5.0532333,3.098249 l -0.057167,0 z m 6.8595927,9.477671 0,-0.5602 q 0,-0.240086 0.1657733,-0.405859 0.165774,-0.165774 0.405859,-0.177207 l 1.143266,0 q 0.240086,0.01143 0.405859,0.177207 0.165774,0.165773 0.165774,0.405859 l 0,0.5602 q 0,0.434441 0.10861,0.811718 0.10861,0.377278 0.354412,0.720258 0.245802,0.342979 0.708825,0.543051 0.463022,0.200071 1.114684,0.200071 0.640228,0 1.108967,-0.211504 0.468739,-0.211504 0.685959,-0.468739 0.217221,-0.257235 0.337264,-0.634512 0.120042,-0.377278 0.137191,-0.565917 0.01715,-0.188638 0.01715,-0.394426 l 0,-10.060736 q 0,-0.0343 0.160058,-0.08575 0.160057,-0.05145 0.43444,-0.09718 0.274384,-0.04573 0.548768,-0.04573 0.274384,0 0.548767,0.04573 0.274384,0.04573 0.434441,0.09718 0.160057,0.05145 0.160057,0.08575 l 0,10.060736 q 0,0.857449 -0.285816,1.657735 -0.285816,0.800286 -0.8403,1.457663 -0.554484,0.657378 -1.474813,1.051804 Q 13.622009,32 12.467311,32 10.420865,32 9.209004,30.77099 7.9971427,29.541979 7.9971427,27.438371 Z"
     id="path2989"
     inkscape:connector-curvature="0" />
</svg>
