<?xml version="1.0" encoding="UTF-8" standalone="no"?>
<svg
   xmlns:dc="http://purl.org/dc/elements/1.1/"
   xmlns:cc="http://creativecommons.org/ns#"
   xmlns:rdf="http://www.w3.org/1999/02/22-rdf-syntax-ns#"
   xmlns:svg="http://www.w3.org/2000/svg"
   xmlns="http://www.w3.org/2000/svg"
   xmlns:sodipodi="http://sodipodi.sourceforge.net/DTD/sodipodi-0.dtd"
   xmlns:inkscape="http://www.inkscape.org/namespaces/inkscape"
   version="1.1"
   width="32px"
   height="32px"
   id="svg2985"
   inkscape:version="0.91 r13725"
   sodipodi:docname="underwear.svg">
  <metadata
     id="metadata2995">
    <rdf:RDF>
      <cc:Work
         rdf:about="">
        <dc:format>image/svg+xml</dc:format>
        <dc:type
           rdf:resource="http://purl.org/dc/dcmitype/StillImage" />
      </cc:Work>
    </rdf:RDF>
  </metadata>
  <defs
     id="defs2993" />
  <sodipodi:namedview
     pagecolor="#ffffff"
     bordercolor="#666666"
     borderopacity="1"
     objecttolerance="10"
     gridtolerance="10"
     guidetolerance="10"
     inkscape:pageopacity="0"
     inkscape:pageshadow="2"
     inkscape:window-width="1920"
     inkscape:window-height="1028"
     id="namedview2991"
     showgrid="false"
     inkscape:zoom="7.375"
     inkscape:cx="-23.322034"
     inkscape:cy="16"
     inkscape:window-x="-8"
     inkscape:window-y="-8"
     inkscape:window-maximized="1"
     inkscape:current-layer="svg2985" />
  <g
     id="g2987"
     transform="matrix(0.01333333,0,0,-0.01333333,-1.3333333,33.333333)" />
  <path
     d="m 0,16.666667 0,-6 L 0,4 l 6.666667,0 0,6.666667 q 0.05333,1.24 0.24,1.773333 Q 7.333333,13.68 8.64,14 L 8,16.666667 q -0.133333,0.08 -0.4,0.186666 Q 7.333333,16.96 6.326667,17.146667 5.32,17.333333 4.0933333,17.333333 2.8666667,17.333333 1.84,17.166667 0.8133333,17 0.4,16.826667 Z M 0,2.6666667 0,0 l 20,0 0,2.6666667 -20,0 z M 8,10.666667 8,4 l 4,0 0,6.666667 Q 11.98667,10.84 11.90667,11.1 q -0.08,0.26 -0.273334,0.606667 -0.193333,0.346666 -0.62,0.586666 -0.426669,0.24 -1.013336,0.24 -0.466667,0 -0.846667,-0.18 -0.38,-0.18 -0.58,-0.413333 -0.2,-0.233333 -0.34,-0.533333 -0.14,-0.3 -0.18,-0.46 -0.04,-0.16 -0.05333,-0.28 z M 11.373333,14 12,16.666667 q 0.146667,0.08 0.446667,0.186666 0.3,0.106667 1.36,0.293334 1.06,0.186666 2.286666,0.186666 1.226667,0 2.2,-0.166666 0.973334,-0.166667 1.333334,-0.34 l 0.373333,-0.16 0,-6 L 20,4 l -6.666667,0 0,6.666667 Q 13.28,11.92 13.106667,12.466667 12.68,13.68 11.373333,14 Z M 12,21.333333 q 1.28,0.64 2.373333,1.393334 1.093334,0.753333 1.86,1.486666 0.766667,0.733334 1.393334,1.493334 0.626666,0.76 1.006666,1.446666 0.38,0.686667 0.66,1.326667 0.28,0.64 0.413334,1.153333 0.133333,0.513334 0.206666,0.9 Q 19.986667,30.92 20,31.12 l 0,0.213333 q 0.08,0.08 0.24,0.186667 0.16,0.106667 0.68,0.293333 Q 21.44,32 22,32 q 0.56,0 1.06,-0.166667 0.5,-0.166666 0.726667,-0.34 L 24,31.333333 q 0,-0.12 0.02,-0.346666 Q 24.04,30.76 24.193333,30.06 24.346667,29.36 24.62,28.653333 q 0.273333,-0.706666 0.873333,-1.7 0.6,-0.993333 1.413334,-1.893333 0.813333,-0.9 2.14,-1.906667 1.326666,-1.006666 2.953333,-1.82 L 22,20.666667 q -1.68,0 -3.326667,-0.206667 -1.646666,-0.206667 -2.8,-0.5 Q 14.72,19.666667 13.806667,19.373333 12.893333,19.08 12.453333,18.88 L 12,18.666667 12,21.333333 Z M 16.053333,22 q 0,-0.253333 0.18,-0.433333 0.18,-0.18 0.433334,-0.18 0.253333,0 0.433333,0.18 0.18,0.18 0.18,0.433333 0,0.266667 -0.173333,0.44 -0.173334,0.173333 -0.44,0.173333 -0.253334,0 -0.433334,-0.18 -0.18,-0.18 -0.18,-0.433333 z"
     id="path2989"
     inkscape:connector-curvature="0" />
</svg>
