<?xml version="1.0" encoding="UTF-8" standalone="no"?>
<svg
   xmlns:dc="http://purl.org/dc/elements/1.1/"
   xmlns:cc="http://creativecommons.org/ns#"
   xmlns:rdf="http://www.w3.org/1999/02/22-rdf-syntax-ns#"
   xmlns:svg="http://www.w3.org/2000/svg"
   xmlns="http://www.w3.org/2000/svg"
   xmlns:sodipodi="http://sodipodi.sourceforge.net/DTD/sodipodi-0.dtd"
   xmlns:inkscape="http://www.inkscape.org/namespaces/inkscape"
   version="1.1"
   width="32px"
   height="32px"
   id="svg2985"
   inkscape:version="0.91 r13725"
   sodipodi:docname="unshare.svg">
  <metadata
     id="metadata2995">
    <rdf:RDF>
      <cc:Work
         rdf:about="">
        <dc:format>image/svg+xml</dc:format>
        <dc:type
           rdf:resource="http://purl.org/dc/dcmitype/StillImage" />
      </cc:Work>
    </rdf:RDF>
  </metadata>
  <defs
     id="defs2993" />
  <sodipodi:namedview
     pagecolor="#ffffff"
     bordercolor="#666666"
     borderopacity="1"
     objecttolerance="10"
     gridtolerance="10"
     guidetolerance="10"
     inkscape:pageopacity="0"
     inkscape:pageshadow="2"
     inkscape:window-width="1920"
     inkscape:window-height="1028"
     id="namedview2991"
     showgrid="false"
     inkscape:zoom="7.375"
     inkscape:cx="-23.322034"
     inkscape:cy="16"
     inkscape:window-x="-8"
     inkscape:window-y="-8"
     inkscape:window-maximized="1"
     inkscape:current-layer="svg2985" />
  <g
     id="g2987"
     transform="matrix(0.01405975,0,0,-0.0140598,-2.9160281,40.35204)" />
  <path
     d="M 0,15.979649 Q 0,15.733604 0.2249561,15.564885 L 15.268893,4.4717054 q 0.224956,-0.1687176 0.393673,-0.084359 0.168717,0.084359 0.168717,0.3655547 l 0,6.3550299 q 0.660808,0.05624 1.384886,0.154657 0.724077,0.09842 1.898067,0.358525 1.173989,0.260107 2.27768,0.625661 1.10369,0.365555 2.411247,0.998245 1.307558,0.632692 2.418278,1.434099 1.110721,0.801409 2.186292,1.975403 1.075571,1.173993 1.841828,2.565913 0.766256,1.391919 1.244288,3.275933 Q 31.97188,24.380378 32,26.53153 q -0.492091,-1.181025 -1.300527,-2.137091 -0.808436,-0.956066 -1.778559,-1.588756 -0.970123,-0.632692 -2.123023,-1.131815 -1.1529,-0.499122 -2.326889,-0.745168 -1.17399,-0.246047 -2.390158,-0.442884 -1.216169,-0.196838 -2.33392,-0.217927 -1.11775,-0.02109 -2.137082,-0.06327 -1.019332,-0.04218 -1.806679,0 l 0,7.029899 q 0,0.295257 -0.168717,0.379615 -0.168717,0.08436 -0.393673,-0.09842 L 0.2249561,16.394414 Q 0,16.225697 0,15.979649 Z"
     id="path2989"
     inkscape:connector-curvature="0" />
</svg>
