<?xml version="1.0" encoding="UTF-8" standalone="no"?>
<svg
   xmlns:dc="http://purl.org/dc/elements/1.1/"
   xmlns:cc="http://creativecommons.org/ns#"
   xmlns:rdf="http://www.w3.org/1999/02/22-rdf-syntax-ns#"
   xmlns:svg="http://www.w3.org/2000/svg"
   xmlns="http://www.w3.org/2000/svg"
   xmlns:sodipodi="http://sodipodi.sourceforge.net/DTD/sodipodi-0.dtd"
   xmlns:inkscape="http://www.inkscape.org/namespaces/inkscape"
   version="1.1"
   width="32px"
   height="32px"
   id="svg2985"
   inkscape:version="0.91 r13725"
   sodipodi:docname="up_arrow.svg">
  <metadata
     id="metadata2995">
    <rdf:RDF>
      <cc:Work
         rdf:about="">
        <dc:format>image/svg+xml</dc:format>
        <dc:type
           rdf:resource="http://purl.org/dc/dcmitype/StillImage" />
      </cc:Work>
    </rdf:RDF>
  </metadata>
  <defs
     id="defs2993" />
  <sodipodi:namedview
     pagecolor="#ffffff"
     bordercolor="#666666"
     borderopacity="1"
     objecttolerance="10"
     gridtolerance="10"
     guidetolerance="10"
     inkscape:pageopacity="0"
     inkscape:pageshadow="2"
     inkscape:window-width="1920"
     inkscape:window-height="1028"
     id="namedview2991"
     showgrid="false"
     inkscape:zoom="7.375"
     inkscape:cx="-23.322034"
     inkscape:cy="16"
     inkscape:window-x="-8"
     inkscape:window-y="-8"
     inkscape:window-maximized="1"
     inkscape:current-layer="svg2985" />
  <g
     id="g2987"
     transform="matrix(0.01599978,0,0,-0.016,-10.189073,38.8)" />
  <path
     d="M 2.4935154,17.408 Q 2.3975169,17.216 2.605514,16.96 L 15.517335,0.272 Q 15.709334,0 15.997329,0 16.285326,0 16.493323,0.272 L 29.405144,16.96 q 0.191997,0.256 0.104,0.448 -0.088,0.192 -0.423995,0.192 l -8.287884,0 0,13.584 q 0,0.32 -0.247997,0.568 Q 20.30127,32 19.981273,32 l -7.967888,0 q -0.319995,0 -0.567992,-0.248 -0.247997,-0.248 -0.247997,-0.568 l 0,-13.584 -8.2878863,0 q -0.3199955,0 -0.4159943,-0.192 z"
     id="path2989"
     inkscape:connector-curvature="0" />
</svg>
