<?xml version="1.0" encoding="UTF-8" standalone="no"?>
<svg
   xmlns:dc="http://purl.org/dc/elements/1.1/"
   xmlns:cc="http://creativecommons.org/ns#"
   xmlns:rdf="http://www.w3.org/1999/02/22-rdf-syntax-ns#"
   xmlns:svg="http://www.w3.org/2000/svg"
   xmlns="http://www.w3.org/2000/svg"
   xmlns:sodipodi="http://sodipodi.sourceforge.net/DTD/sodipodi-0.dtd"
   xmlns:inkscape="http://www.inkscape.org/namespaces/inkscape"
   version="1.1"
   width="32px"
   height="32px"
   id="svg2985"
   inkscape:version="0.91 r13725"
   sodipodi:docname="upload.svg">
  <metadata
     id="metadata2995">
    <rdf:RDF>
      <cc:Work
         rdf:about="">
        <dc:format>image/svg+xml</dc:format>
        <dc:type
           rdf:resource="http://purl.org/dc/dcmitype/StillImage" />
      </cc:Work>
    </rdf:RDF>
  </metadata>
  <defs
     id="defs2993" />
  <sodipodi:namedview
     pagecolor="#ffffff"
     bordercolor="#666666"
     borderopacity="1"
     objecttolerance="10"
     gridtolerance="10"
     guidetolerance="10"
     inkscape:pageopacity="0"
     inkscape:pageshadow="2"
     inkscape:window-width="1920"
     inkscape:window-height="1028"
     id="namedview2991"
     showgrid="false"
     inkscape:zoom="7.375"
     inkscape:cx="-23.322034"
     inkscape:cy="16"
     inkscape:window-x="-8"
     inkscape:window-y="-8"
     inkscape:window-maximized="1"
     inkscape:current-layer="svg2985" />
  <g
     id="g2987"
     transform="matrix(0.01306122,0,0,-0.01306122,-0.82142857,32.821429)" />
  <path
     d="M 0,16 Q 0,13.831837 0.5746939,11.755102 1.1493878,9.6783673 2.1812245,7.9281633 3.2130612,6.1779592 4.6955102,4.6955102 6.1779592,3.2130612 7.928163,2.1812245 9.678367,1.1493878 11.755102,0.5746939 13.831837,0 16,0 q 2.168163,0 4.244898,0.5746939 2.076735,0.5746939 3.833469,1.6065306 1.756735,1.0318367 3.232653,2.5142857 1.475919,1.482449 2.507756,3.2326531 1.031836,1.750204 1.60653,3.8269387 Q 32,13.831837 32,16 q 0,2.168163 -0.574694,4.244898 -0.574694,2.076735 -1.60653,3.833469 -1.031837,1.756735 -2.507756,3.232653 -1.475918,1.475919 -3.232653,2.507756 -1.756734,1.031836 -3.833469,1.60653 Q 18.168163,32 16,32 13.831837,32 11.755102,31.425306 9.678367,30.850612 7.928163,29.818776 6.1779592,28.786939 4.6955102,27.31102 3.2130612,25.835102 2.1812245,24.078367 1.1493878,22.321633 0.5746939,20.244898 0,18.168163 0,16 Z m 4.244898,0 q 0,2.390204 0.9338775,4.564898 0.9338776,2.174694 2.5077555,3.748571 1.573877,1.573878 3.748571,2.507755 2.174694,0.933878 4.564898,0.933878 2.390204,0 4.564898,-0.933878 2.174694,-0.933877 3.748571,-2.507755 1.573878,-1.573877 2.507755,-3.748571 Q 27.755102,18.390204 27.755102,16 q 0,-2.390204 -0.933878,-4.564898 Q 25.887347,9.2604082 24.313469,7.6865306 22.739592,6.1126531 20.564898,5.1787755 18.390204,4.244898 16,4.244898 q -2.390204,0 -4.564898,0.9338775 Q 9.260408,6.1126531 7.686531,7.6865306 6.1126531,9.2604082 5.1787755,11.435102 4.244898,13.609796 4.244898,16 Z m 3.983673,1.097143 q -0.05224,-0.20898 0.06531,-0.352653 l 7.379591,-9.6391839 q 0.117551,-0.1567347 0.280817,-0.1697959 0.163265,-0.013061 0.280816,0.1306122 l 7.366531,9.7044896 q 0.117551,0.143674 0.06531,0.339592 -0.05225,0.195918 -0.235109,0.195918 l -3.51347,0 0,5.838368 q 0,0.261224 -0.189387,0.457143 -0.189388,0.195918 -0.463674,0.195918 l -6.530612,0 q -0.274286,0 -0.463674,-0.195918 -0.189387,-0.195919 -0.189387,-0.457143 l 0,-5.838368 -3.604898,0 q -0.195919,0 -0.248164,-0.208979 z"
     id="path2989"
     inkscape:connector-curvature="0" />
</svg>
