<?xml version="1.0" encoding="UTF-8" standalone="no"?>
<svg
   xmlns:dc="http://purl.org/dc/elements/1.1/"
   xmlns:cc="http://creativecommons.org/ns#"
   xmlns:rdf="http://www.w3.org/1999/02/22-rdf-syntax-ns#"
   xmlns:svg="http://www.w3.org/2000/svg"
   xmlns="http://www.w3.org/2000/svg"
   xmlns:sodipodi="http://sodipodi.sourceforge.net/DTD/sodipodi-0.dtd"
   xmlns:inkscape="http://www.inkscape.org/namespaces/inkscape"
   version="1.1"
   width="32px"
   height="32px"
   id="svg2985"
   inkscape:version="0.91 r13725"
   sodipodi:docname="usd.svg">
  <metadata
     id="metadata2995">
    <rdf:RDF>
      <cc:Work
         rdf:about="">
        <dc:format>image/svg+xml</dc:format>
        <dc:type
           rdf:resource="http://purl.org/dc/dcmitype/StillImage" />
      </cc:Work>
    </rdf:RDF>
  </metadata>
  <defs
     id="defs2993" />
  <sodipodi:namedview
     pagecolor="#ffffff"
     bordercolor="#666666"
     borderopacity="1"
     objecttolerance="10"
     gridtolerance="10"
     guidetolerance="10"
     inkscape:pageopacity="0"
     inkscape:pageshadow="2"
     inkscape:window-width="1920"
     inkscape:window-height="1028"
     id="namedview2991"
     showgrid="false"
     inkscape:zoom="7.375"
     inkscape:cx="-23.322034"
     inkscape:cy="16"
     inkscape:window-x="-8"
     inkscape:window-y="-8"
     inkscape:window-maximized="1"
     inkscape:current-layer="svg2985" />
  <g
     id="g2987"
     transform="matrix(0.01230756,0,0,-0.01230769,-6.7849809,31.461538)" />
  <path
     d="m 5.8463778,20.923077 5.2922492,0 q 0,3.36 3.249195,4.32 l 0,-7.36 -0.60307,-0.172308 Q 12.8863,17.452308 12.203231,17.218462 11.520161,16.984615 10.707862,16.615385 9.895563,16.246154 9.3048,15.84 8.714038,15.433846 8.12943,14.849231 7.5448205,14.264615 7.1817477,13.587692 6.8186747,12.910769 6.5909849,12.006154 6.3632952,11.101539 6.3632952,10.043077 q 0,-1.4523078 0.443072,-2.7076924 Q 7.2494393,6.08 8.006354,5.1692308 8.763268,4.2584615 9.797103,3.5753846 10.830938,2.8923077 11.981695,2.4984615 13.132451,2.1046154 14.387822,1.9692308 l 0,-1.9692308 2.461511,0 0,1.9938462 q 1.526138,0.1599999 2.775355,0.5538461 1.249217,0.3938462 2.313819,1.1076923 1.064605,0.7138462 1.796904,1.7169231 0.7323,1.0030769 1.138449,2.4492308 0.40615,1.4461538 0.40615,3.2553845 l -5.304556,0 Q 19.926223,10.08 19.778532,9.4092308 19.630842,8.7384615 19.292384,8.1723077 18.953926,7.6061538 18.357009,7.2615385 17.760092,6.9169231 16.849333,6.7569231 l 0,6.4246149 q 0.553841,0.06154 0.843068,0.129231 0.289227,0.06769 0.516917,0.166154 0.22769,0.09846 0.412304,0.147692 1.759981,0.48 2.584586,0.824616 4.947638,2.055384 4.947638,7.04 0,1.735384 -0.596917,3.218461 -0.596915,1.483077 -1.741518,2.621539 -1.144603,1.138461 -2.923044,1.852307 -1.778443,0.713847 -4.043034,0.886154 l 0,1.932308 -2.461511,0 0,-1.993846 Q 12.615534,29.784615 11.04632,29.027692 9.477107,28.270769 8.320197,27.101538 q -1.1569107,-1.16923 -1.8215187,-2.76923 -0.6646081,-1.6 -0.6523005,-3.409231 z M 11.655545,9.5507692 q 0,1.0461538 0.55384,1.5999998 0.55384,0.553846 2.178437,1.107693 l 0,-5.6615389 q -1.193833,0.2215384 -1.963055,0.9538461 -0.769222,0.7323077 -0.769222,2 z M 16.849333,25.44 q 1.919979,-0.172308 2.812278,-0.904615 0.892298,-0.732308 0.892298,-2.369231 0,-1.366154 -0.886145,-2.135385 -0.886144,-0.769231 -2.818431,-1.298461 l 0,6.707692 z"
     id="path2989"
     inkscape:connector-curvature="0" />
</svg>
