<?xml version="1.0" encoding="UTF-8" standalone="no"?>
<svg
   xmlns:dc="http://purl.org/dc/elements/1.1/"
   xmlns:cc="http://creativecommons.org/ns#"
   xmlns:rdf="http://www.w3.org/1999/02/22-rdf-syntax-ns#"
   xmlns:svg="http://www.w3.org/2000/svg"
   xmlns="http://www.w3.org/2000/svg"
   xmlns:sodipodi="http://sodipodi.sourceforge.net/DTD/sodipodi-0.dtd"
   xmlns:inkscape="http://www.inkscape.org/namespaces/inkscape"
   version="1.1"
   width="32px"
   height="32px"
   id="svg2985"
   inkscape:version="0.91 r13725"
   sodipodi:docname="user.svg">
  <metadata
     id="metadata2995">
    <rdf:RDF>
      <cc:Work
         rdf:about="">
        <dc:format>image/svg+xml</dc:format>
        <dc:type
           rdf:resource="http://purl.org/dc/dcmitype/StillImage" />
      </cc:Work>
    </rdf:RDF>
  </metadata>
  <defs
     id="defs2993" />
  <sodipodi:namedview
     pagecolor="#ffffff"
     bordercolor="#666666"
     borderopacity="1"
     objecttolerance="10"
     gridtolerance="10"
     guidetolerance="10"
     inkscape:pageopacity="0"
     inkscape:pageshadow="2"
     inkscape:window-width="1920"
     inkscape:window-height="1028"
     id="namedview2991"
     showgrid="false"
     inkscape:zoom="7.375"
     inkscape:cx="-23.322034"
     inkscape:cy="16"
     inkscape:window-x="-8"
     inkscape:window-y="-8"
     inkscape:window-maximized="1"
     inkscape:current-layer="svg2985" />
  <g
     id="g2987"
     transform="matrix(0.01391304,0,0,-0.01391304,-3.1521739,35.347826)" />
  <path
     d="M 0,30.608696 0,27.339131 Q 0,26.226087 0.2852174,25.662609 0.5704348,25.099131 1.3913043,24.64 8.083478,20.772174 11.130435,19.464348 l 0,-5.245218 Q 9.73913,13.189565 9.73913,11.102609 l 0,-4.1460873 q 0,-1.7530434 0.674783,-3.1443478 Q 11.088696,2.4208695 12.535652,1.5582608 13.982609,0.69565215 16,0.69565215 q 2.017391,0 3.464348,0.86260865 1.446956,0.8626087 2.121739,2.2539131 0.674783,1.3913044 0.674783,3.1443478 l 0,4.1460873 q 0,2.073043 -1.391305,3.102608 l 0,5.259131 q 2.587826,1.043478 9.739131,5.175652 0.820869,0.459131 1.106087,1.022609 Q 32,26.226087 32,27.339131 l 0,3.269565 q 0,0.292174 -0.201739,0.493913 -0.201739,0.201739 -0.493913,0.201739 l -30.6086958,0 q -0.2782609,0 -0.4869565,-0.201739 Q 0,30.90087 0,30.608696 Z"
     id="path2989"
     inkscape:connector-curvature="0" />
</svg>
