<?xml version="1.0" encoding="UTF-8" standalone="no"?>
<svg
   xmlns:dc="http://purl.org/dc/elements/1.1/"
   xmlns:cc="http://creativecommons.org/ns#"
   xmlns:rdf="http://www.w3.org/1999/02/22-rdf-syntax-ns#"
   xmlns:svg="http://www.w3.org/2000/svg"
   xmlns="http://www.w3.org/2000/svg"
   width="32"
   height="32"
   viewBox="0 0 31.999999 31.999998"
   id="svg4138"
   version="1.1">
  <defs
     id="defs4140" />
  <metadata
     id="metadata4143">
    <rdf:RDF>
      <cc:Work
         rdf:about="">
        <dc:format>image/svg+xml</dc:format>
        <dc:type
           rdf:resource="http://purl.org/dc/dcmitype/StillImage" />
        <dc:title></dc:title>
      </cc:Work>
    </rdf:RDF>
  </metadata>
  <g
     id="layer1"
     transform="translate(0,-1020.3622)">
    <path
       style="fill:#444444"
       d="m 9.333726,1045.6955 q 0,0.5414 -0.395937,0.9374 -0.395937,0.396 -0.937184,0.396 -0.541247,0 -0.937184,-0.396 -0.395937,-0.396 -0.395937,-0.9374 0,-0.5413 0.395937,-0.9373 0.395937,-0.396 0.937184,-0.396 0.541247,0 0.937184,0.396 0.395937,0.396 0.395937,0.9373 z m 21.329936,1.2707 q 0,2.5213 -1.52109,3.9587 -1.521091,1.4373 -4.04069,1.4373 l -18.205102,0 q -2.520932,0 -4.04069,-1.4373 -1.519757,-1.4374 -1.52109,-3.9587 0,-1.416 0.114648,-2.7293 0.114649,-1.3134 0.499921,-2.8747 0.385272,-1.5613 0.989176,-2.76 0.603904,-1.1987 1.687731,-2.1453 1.083828,-0.9467 2.499603,-1.26 -0.458594,1.0826 -0.458594,2.5 l 0,4.2293 q -1.207808,0.4173 -1.937025,1.4587 -0.729218,1.0413 -0.729218,2.312 0,1.6666 1.166481,2.8333 1.166482,1.1667 2.832883,1.1667 1.666402,0 2.832883,-1.1667 1.166481,-1.1667 1.166481,-2.8333 0,-1.2707 -0.739883,-2.312 -0.739882,-1.0414 -1.92636,-1.4587 l 0,-4.2293 q 0,-1.292 0.521251,-1.9374 2.750229,2.1667 6.144355,2.1667 3.394126,0 6.144355,-2.1667 0.52125,0.6454 0.52125,1.9374 l 0,1.3333 q -2.207649,0 -3.770067,1.5627 -1.562416,1.5626 -1.562416,3.7706 l 0,1.8547 q -0.666561,0.604 -0.666561,1.4787 0,0.8333 0.583907,1.416 0.583907,0.5826 1.415773,0.584 0.831868,0 1.415775,-0.584 0.583907,-0.5854 0.583907,-1.416 0,-0.8747 -0.66656,-1.4787 l 0,-1.8547 q 0,-1.0826 0.791874,-1.8746 0.791874,-0.792 1.874368,-0.792 1.082494,0 1.874368,0.792 0.791874,0.792 0.791874,1.8746 l 0,1.8547 q -0.66656,0.604 -0.66656,1.4787 0,0.8333 0.583907,1.416 0.583907,0.5826 1.415775,0.584 0.831867,0 1.415774,-0.584 0.583907,-0.5854 0.583907,-1.416 0,-0.8747 -0.666561,-1.4787 l 0,-1.8547 q 0,-1.416 -0.718552,-2.656 -0.718552,-1.24 -1.94769,-1.948 0,-0.208 0.01066,-0.8853 0.01066,-0.6773 0,-1 -0.01066,-0.3227 -0.05199,-0.864 -0.04133,-0.5413 -0.14531,-0.9787 -0.103983,-0.4373 -0.270623,-0.8333 1.415774,0.312 2.499601,1.26 1.083828,0.948 1.687732,2.1453 0.603902,1.1974 0.989174,2.76 0.385272,1.5627 0.499921,2.8747 0.114648,1.312 0.114648,2.7293 z m -6.665604,-18.604 q 0,3.312 -2.343627,5.656 -2.343627,2.344 -5.655099,2.344 -3.311473,0 -5.6551,-2.344 -2.343627,-2.344 -2.343627,-5.656 0,-3.312 2.343627,-5.656 2.343627,-2.344 5.6551,-2.344 3.311472,0 5.655099,2.344 2.343627,2.344 2.343627,5.656 z"
       id="path4-6" />
  </g>
</svg>
