<?xml version="1.0" encoding="UTF-8" standalone="no"?>
<svg
   xmlns:dc="http://purl.org/dc/elements/1.1/"
   xmlns:cc="http://creativecommons.org/ns#"
   xmlns:rdf="http://www.w3.org/1999/02/22-rdf-syntax-ns#"
   xmlns:svg="http://www.w3.org/2000/svg"
   xmlns="http://www.w3.org/2000/svg"
   xmlns:sodipodi="http://sodipodi.sourceforge.net/DTD/sodipodi-0.dtd"
   xmlns:inkscape="http://www.inkscape.org/namespaces/inkscape"
   version="1.1"
   width="32px"
   height="32px"
   id="svg2985"
   inkscape:version="0.91 r13725"
   sodipodi:docname="user_remove.svg">
  <metadata
     id="metadata2995">
    <rdf:RDF>
      <cc:Work
         rdf:about="">
        <dc:format>image/svg+xml</dc:format>
        <dc:type
           rdf:resource="http://purl.org/dc/dcmitype/StillImage" />
      </cc:Work>
    </rdf:RDF>
  </metadata>
  <defs
     id="defs2993" />
  <sodipodi:namedview
     pagecolor="#ffffff"
     bordercolor="#666666"
     borderopacity="1"
     objecttolerance="10"
     gridtolerance="10"
     guidetolerance="10"
     inkscape:pageopacity="0"
     inkscape:pageshadow="2"
     inkscape:window-width="1920"
     inkscape:window-height="1028"
     id="namedview2991"
     showgrid="false"
     inkscape:zoom="7.375"
     inkscape:cx="-23.322034"
     inkscape:cy="16"
     inkscape:window-x="-8"
     inkscape:window-y="-8"
     inkscape:window-maximized="1"
     inkscape:current-layer="svg2985" />
  <g
     id="g2987"
     transform="matrix(0.01230769,0,0,-0.01230769,1.7692308,34.384615)" />
  <path
     d="M 0,15.384616 Q 0,15.643077 0.1784615,15.821539 0.3569231,16 0.6153846,16 l 8.6153844,0 q 0.258462,0 0.436923,-0.178461 0.178462,-0.178462 0.178462,-0.436923 l 0,-1.230769 q 0,-0.246154 -0.178462,-0.43077 -0.178461,-0.184615 -0.436923,-0.184615 l -8.6153844,0 q -0.2584615,0 -0.4369231,0.184615 Q 0,13.907693 0,14.153847 l 0,1.230769 z m 3.6923077,13.538461 0,-2.892307 q 0,-0.984616 0.2523077,-1.483077 0.2523077,-0.498462 0.9784615,-0.904616 5.9200001,-3.421538 8.6153851,-4.578461 l 0,-4.64 Q 12.307692,13.513847 12.307692,11.68 l 0,-3.68 q 0,-1.5507693 0.596923,-2.7815385 0.596923,-1.2307692 1.876923,-1.9938461 1.28,-0.7630769 3.064616,-0.7630769 1.784615,0 3.064615,0.7630769 1.28,0.7630769 1.876923,1.9938461 Q 23.384615,6.4492307 23.384615,8 l 0,3.667692 q 0,1.846155 -1.230769,2.744616 l 0,4.652308 q 2.289231,0.923077 8.615385,4.578461 0.726154,0.406154 0.978461,0.904616 Q 32,25.046154 32,26.03077 l 0,2.892307 q 0,0.258462 -0.178462,0.436923 -0.178461,0.178462 -0.436923,0.178462 l -27.0769227,0 q -0.2584615,0 -0.4369231,-0.178462 -0.1784615,-0.178461 -0.1784615,-0.436923 z"
     id="path2989"
     inkscape:connector-curvature="0" />
</svg>
