<?xml version="1.0" encoding="UTF-8" standalone="no"?>
<svg
   xmlns:dc="http://purl.org/dc/elements/1.1/"
   xmlns:cc="http://creativecommons.org/ns#"
   xmlns:rdf="http://www.w3.org/1999/02/22-rdf-syntax-ns#"
   xmlns:svg="http://www.w3.org/2000/svg"
   xmlns="http://www.w3.org/2000/svg"
   xmlns:sodipodi="http://sodipodi.sourceforge.net/DTD/sodipodi-0.dtd"
   xmlns:inkscape="http://www.inkscape.org/namespaces/inkscape"
   version="1.1"
   width="32px"
   height="32px"
   id="svg2985"
   inkscape:version="0.91 r13725"
   sodipodi:docname="user_add.svg">
  <metadata
     id="metadata2995">
    <rdf:RDF>
      <cc:Work
         rdf:about="">
        <dc:format>image/svg+xml</dc:format>
        <dc:type
           rdf:resource="http://purl.org/dc/dcmitype/StillImage" />
      </cc:Work>
    </rdf:RDF>
  </metadata>
  <defs
     id="defs2993" />
  <sodipodi:namedview
     pagecolor="#ffffff"
     bordercolor="#666666"
     borderopacity="1"
     objecttolerance="10"
     gridtolerance="10"
     guidetolerance="10"
     inkscape:pageopacity="0"
     inkscape:pageshadow="2"
     inkscape:window-width="1920"
     inkscape:window-height="1028"
     id="namedview2991"
     showgrid="false"
     inkscape:zoom="7.375"
     inkscape:cx="-23.322034"
     inkscape:cy="16"
     inkscape:window-x="-8"
     inkscape:window-y="-8"
     inkscape:window-maximized="1"
     inkscape:current-layer="svg2985" />
  <g
     id="g2987"
     transform="matrix(0.01142857,0,0,-0.01142857,4.2857143,33.857143)" />
  <path
     d="m 0,15.428572 0,-1.142857 q 0,-0.228572 0.1657143,-0.4 0.1657143,-0.171429 0.4057143,-0.171429 l 4,0 0,-4.0000003 q 0,-0.2285714 0.1657143,-0.4 0.1657142,-0.1714285 0.4057142,-0.1714285 l 1.1428572,0 q 0.24,0 0.4057143,0.1714285 0.1657143,0.1714286 0.1657143,0.4 l 0,4.0000003 4.0000001,0 q 0.24,0 0.405714,0.171429 0.165714,0.171428 0.165714,0.4 l 0,1.142857 q 0,0.24 -0.165714,0.405714 Q 11.097143,16 10.857143,16 l -4.0000001,0 0,4 q 0,0.24 -0.1657143,0.405715 -0.1657143,0.165714 -0.4057143,0.165714 l -1.1428572,0 q -0.24,0 -0.4057142,-0.165714 Q 4.5714286,20.24 4.5714286,20 l 0,-4 -4,0 q -0.24,0 -0.4057143,-0.165714 Q 0,15.668572 0,15.428572 Z M 5.7142857,28 l 0,-2.685714 q 0,-0.914286 0.2342857,-1.377143 0.2342857,-0.462857 0.9085715,-0.84 Q 12.354286,19.92 14.857143,18.845715 l 0,-4.308572 q -1.142857,-0.845714 -1.142857,-2.548571 l 0,-3.4171434 q 0,-1.44 0.554285,-2.5828572 Q 14.822857,4.8457143 16.011429,4.1371428 17.2,3.4285715 18.857143,3.4285715 q 1.657143,0 2.845714,0.7085713 1.188572,0.7085715 1.742857,1.8514286 Q 24,7.1314285 24,8.5714286 l 0,3.4057144 q 0,1.714286 -1.142857,2.548572 l 0,4.32 q 2.125714,0.857143 8,4.251428 0.674286,0.377143 0.908571,0.84 Q 32,24.4 32,25.314286 L 32,28 q 0,0.24 -0.165714,0.405715 -0.165715,0.165714 -0.405715,0.165714 l -25.1428567,0 q -0.2285714,0 -0.4,-0.165714 Q 5.7142857,28.24 5.7142857,28 Z"
     id="path2989"
     inkscape:connector-curvature="0" />
</svg>
