<?xml version="1.0" encoding="UTF-8" standalone="no"?>
<svg
   xmlns:dc="http://purl.org/dc/elements/1.1/"
   xmlns:cc="http://creativecommons.org/ns#"
   xmlns:rdf="http://www.w3.org/1999/02/22-rdf-syntax-ns#"
   xmlns:svg="http://www.w3.org/2000/svg"
   xmlns="http://www.w3.org/2000/svg"
   version="1.1"
   id="svg4138"
   viewBox="0 0 31.999999 31.999998"
   height="32"
   width="32">
  <defs
     id="defs4140" />
  <metadata
     id="metadata4143">
    <rdf:RDF>
      <cc:Work
         rdf:about="">
        <dc:format>image/svg+xml</dc:format>
        <dc:type
           rdf:resource="http://purl.org/dc/dcmitype/StillImage" />
        <dc:title></dc:title>
      </cc:Work>
    </rdf:RDF>
  </metadata>
  <g
     transform="translate(0,-1020.3622)"
     id="layer1">
    <path
       id="path4"
       d="m 30.664999,1046.9662 q 0,2.5 -1.521161,3.948 -1.52116,1.448 -4.040874,1.448 l -18.2059319,0 q -2.521047,0 -4.040875,-1.448 -1.519827,-1.448 -1.52116,-3.948 0,-1.104 0.07332,-2.156 0.07332,-1.052 0.291967,-2.2707 0.218642,-1.2186 0.551937,-2.26 0.333296,-1.0413 0.895898,-2.0306 0.562603,-0.9894 1.291853,-1.688 0.729251,-0.6987 1.781131,-1.1147 1.051881,-0.416 2.322403,-0.4173 0.187979,0 0.874567,0.448 0.6865889,0.448 1.5518239,1 0.865236,0.552 2.249079,1 1.383843,0.448 2.781018,0.448 1.397174,0 2.781017,-0.448 1.383843,-0.448 2.249078,-1 0.865235,-0.552 1.551823,-1 0.686589,-0.448 0.874568,-0.448 1.270522,0 2.322402,0.4173 1.051881,0.4173 1.781131,1.1147 0.729251,0.6973 1.291853,1.688 0.562603,0.9906 0.895899,2.0306 0.333295,1.04 0.551937,2.26 0.218642,1.22 0.291967,2.2707 0.07332,1.0507 0.07332,2.156 z m -6.665909,-18.604 q 0,3.312 -2.343734,5.656 -2.343734,2.344 -5.655357,2.344 -3.311624,0 -5.655359,-2.344 -2.3437339,-2.344 -2.3437339,-5.656 0,-3.312 2.3437339,-5.656 2.343735,-2.344 5.655359,-2.344 3.311623,0 5.655357,2.344 2.343734,2.344 2.343734,5.656 z"
       style="fill:#444444" />
  </g>
</svg>
