<?xml version="1.0" encoding="UTF-8" standalone="no"?>
<svg
   xmlns:dc="http://purl.org/dc/elements/1.1/"
   xmlns:cc="http://creativecommons.org/ns#"
   xmlns:rdf="http://www.w3.org/1999/02/22-rdf-syntax-ns#"
   xmlns:svg="http://www.w3.org/2000/svg"
   xmlns="http://www.w3.org/2000/svg"
   xmlns:sodipodi="http://sodipodi.sourceforge.net/DTD/sodipodi-0.dtd"
   xmlns:inkscape="http://www.inkscape.org/namespaces/inkscape"
   version="1.1"
   width="32px"
   height="32px"
   id="svg2985"
   inkscape:version="0.91 r13725"
   sodipodi:docname="vases.svg">
  <metadata
     id="metadata2995">
    <rdf:RDF>
      <cc:Work
         rdf:about="">
        <dc:format>image/svg+xml</dc:format>
        <dc:type
           rdf:resource="http://purl.org/dc/dcmitype/StillImage" />
      </cc:Work>
    </rdf:RDF>
  </metadata>
  <defs
     id="defs2993" />
  <sodipodi:namedview
     pagecolor="#ffffff"
     bordercolor="#666666"
     borderopacity="1"
     objecttolerance="10"
     gridtolerance="10"
     guidetolerance="10"
     inkscape:pageopacity="0"
     inkscape:pageshadow="2"
     inkscape:window-width="1920"
     inkscape:window-height="1028"
     id="namedview2991"
     showgrid="false"
     inkscape:zoom="7.375"
     inkscape:cx="-0.20338983"
     inkscape:cy="16"
     inkscape:window-x="-8"
     inkscape:window-y="-8"
     inkscape:window-maximized="1"
     inkscape:current-layer="svg2985" />
  <g
     id="g2987"
     transform="matrix(0.01333333,0,0,-0.01333333,-1.345,33.333333)" />
  <path
     d="m 0.0466665,13.333332 q 0,-1.36 0.22,-2.473334 0.22,-1.1133328 0.5733333,-1.8399995 0.3533334,-0.7266667 0.78,-1.3133333 0.4266667,-0.5866667 0.8533334,-1.02 0.4266666,-0.4333334 0.78,-0.8266667 0.3533333,-0.3933333 0.5733333,-0.86 0.22,-0.4666667 0.22,-1 0,-0.64 -0.14,-1.28 -0.14,-0.64 -0.3333333,-1.1133333 Q 3.3799998,1.1333318 3.1866665,0.7599985 2.9933332,0.3866652 2.8466665,0.1866652 L 2.7133332,-1.5e-6 l 10.6666658,0 q -0.05333,0.066667 -0.146666,0.2 -0.09333,0.1333333 -0.32,0.5533333 -0.226667,0.42 -0.4,0.86 -0.173334,0.44 -0.32,1.0933334 -0.146667,0.6533333 -0.146667,1.2933333 0,0.5333333 0.213333,1 0.213334,0.4666667 0.56,0.86 0.346667,0.3933333 0.76,0.8266667 0.413334,0.4333333 0.833334,1.02 0.42,0.5866666 0.766666,1.3133333 0.346667,0.7266667 0.56,1.8399995 0.213334,1.113334 0.213334,2.473334 0,1.853333 -0.54,3.939999 -0.54,2.086667 -1.313334,3.84 -0.773333,1.753334 -1.54,3.326667 -0.766666,1.573333 -1.306666,2.88 -0.54,1.306667 -0.54,2.013333 0,0.893334 0.413333,1.333334 l 2.253333,0 0,1.333333 -10.6666658,0 0,-1.333333 2.2533333,0 q 0.4133333,-0.413334 0.4133333,-1.333334 0,-0.613333 -0.3933333,-1.653333 -0.3933333,-1.04 -0.9866667,-2.193333 -0.5933333,-1.153334 -1.2866666,-2.66 Q 2.0199998,21.319998 1.4266665,19.853331 0.8333332,18.386665 0.4399998,16.639998 0.0466665,14.893331 0.0466665,13.333332 Z M 16.046666,25.239998 q 0,-1.106667 0.293333,-2.073333 0.293334,-0.966667 0.766667,-1.64 0.473333,-0.673334 1.04,-1.246667 0.566667,-0.573333 1.133333,-0.986667 0.566667,-0.413333 1.04,-0.753333 0.473334,-0.34 0.766667,-0.64 0.293333,-0.3 0.293333,-0.566667 0,-0.586666 -0.333333,-1.253333 -0.333333,-0.666667 -0.666667,-1.04 l -0.333333,-0.373333 8,0 q -0.05333,0.05333 -0.146667,0.153333 -0.09333,0.1 -0.32,0.4 -0.226666,0.3 -0.4,0.6 -0.173333,0.3 -0.32,0.72 -0.146666,0.42 -0.146666,0.793333 0,0.266667 0.286666,0.58 0.286667,0.313334 0.753334,0.66 0.466666,0.346667 1.02,0.773334 0.553334,0.426666 1.113333,1.006666 0.56,0.58 1.026667,1.253334 0.466667,0.673333 0.753333,1.62 0.286667,0.946666 0.286667,2.013333 0,1.066667 -0.253334,1.946667 -0.253333,0.88 -0.646666,1.426666 -0.393334,0.546667 -0.88,0.960001 -0.486667,0.413333 -0.973334,0.613334 -0.486666,0.2 -0.88,0.32 -0.393333,0.12 -0.646666,0.133333 l -0.253334,0.02667 1.96,0 0,1.333333 -10.666666,0 0,-1.333333 2.053333,0 q -0.106667,0 -0.28,-0.01333 -0.173333,-0.01333 -0.66,-0.12 -0.486667,-0.106673 -0.933333,-0.29334 -0.446667,-0.186667 -0.986667,-0.593334 -0.54,-0.406666 -0.933333,-0.96 -0.393334,-0.553334 -0.66,-1.446667 -0.266667,-0.893333 -0.266667,-2 z"
     id="path2989"
     inkscape:connector-curvature="0" />
</svg>
