<?xml version="1.0" encoding="UTF-8" standalone="no"?>
<svg
   xmlns:dc="http://purl.org/dc/elements/1.1/"
   xmlns:cc="http://creativecommons.org/ns#"
   xmlns:rdf="http://www.w3.org/1999/02/22-rdf-syntax-ns#"
   xmlns:svg="http://www.w3.org/2000/svg"
   xmlns="http://www.w3.org/2000/svg"
   xmlns:sodipodi="http://sodipodi.sourceforge.net/DTD/sodipodi-0.dtd"
   xmlns:inkscape="http://www.inkscape.org/namespaces/inkscape"
   version="1.1"
   width="32px"
   height="32px"
   id="svg2985"
   inkscape:version="0.91 r13725"
   sodipodi:docname="vcard.svg">
  <metadata
     id="metadata2995">
    <rdf:RDF>
      <cc:Work
         rdf:about="">
        <dc:format>image/svg+xml</dc:format>
        <dc:type
           rdf:resource="http://purl.org/dc/dcmitype/StillImage" />
      </cc:Work>
    </rdf:RDF>
  </metadata>
  <defs
     id="defs2993" />
  <sodipodi:namedview
     pagecolor="#ffffff"
     bordercolor="#666666"
     borderopacity="1"
     objecttolerance="10"
     gridtolerance="10"
     guidetolerance="10"
     inkscape:pageopacity="0"
     inkscape:pageshadow="2"
     inkscape:window-width="1920"
     inkscape:window-height="1028"
     id="namedview2991"
     showgrid="false"
     inkscape:zoom="7.375"
     inkscape:cx="-23.322034"
     inkscape:cy="16"
     inkscape:window-x="-8"
     inkscape:window-y="-8"
     inkscape:window-maximized="1"
     inkscape:current-layer="svg2985" />
  <g
     id="g2987"
     transform="matrix(0.01333333,0,0,-0.01333333,-3,33.333333)" />
  <path
     d="m 1.3333335,32 0,-32 29.3333325,0 0,32 -4,0 0,-1.333333 q 0,-0.546667 -0.393333,-0.94 -0.393332,-0.393334 -0.939999,-0.393334 l -6.666667,0 q -0.546666,0 -0.940001,0.393334 -0.393332,0.393333 -0.393332,0.94 l 0,1.333333 -2.666667,0 0,-1.333333 q 0,-0.546667 -0.393333,-0.94 -0.393333,-0.393334 -0.94,-0.393334 l -6.6666675,0 q -0.5466663,0 -0.9399997,0.393334 -0.3933333,0.393333 -0.3933333,0.94 l 0,1.333333 -4,0 z m 5.333333,-9.333333 18.6666675,0 0,-1.56 q 0,-0.68 -0.293333,-1.06 -0.293335,-0.38 -0.920001,-0.74 -0.06667,-0.04 -0.52,-0.32 -0.453334,-0.28 -0.913334,-0.546667 -0.46,-0.266667 -1.1,-0.606667 -0.64,-0.34 -1.406666,-0.66 -0.766667,-0.32 -1.513334,-0.546666 l 0,-2.613334 Q 19.133334,13.866667 19.426667,13.58 19.72,13.293333 19.833334,12.86 q 0.113333,-0.433333 0.14,-0.72 0.02667,-0.286667 0.02667,-0.793333 l 0,-2.666667 q 0,-1.8133333 -1,-2.9066667 -1,-1.0933333 -3,-1.0933333 -2,0 -3,1.0933333 -1,1.0933334 -1,2.9066667 l 0,2.666667 q 0,0.52 0.02667,0.806666 0.02667,0.286667 0.14,0.72 0.113334,0.433334 0.406667,0.713334 0.293333,0.28 0.76,0.426666 l 0,2.613334 q -0.746667,0.226666 -1.513333,0.546666 -0.766667,0.32 -1.406667,0.66 -0.6400005,0.34 -1.1000005,0.606667 -0.46,0.266667 -0.913333,0.546667 -0.453334,0.28 -0.52,0.32 -0.626667,0.36 -0.92,0.74 -0.293334,0.38 -0.293334,1.06 l 0,1.56 z"
     id="path2989"
     inkscape:connector-curvature="0" />
</svg>
