<?xml version="1.0" encoding="UTF-8" standalone="no"?>
<svg
   xmlns:dc="http://purl.org/dc/elements/1.1/"
   xmlns:cc="http://creativecommons.org/ns#"
   xmlns:rdf="http://www.w3.org/1999/02/22-rdf-syntax-ns#"
   xmlns:svg="http://www.w3.org/2000/svg"
   xmlns="http://www.w3.org/2000/svg"
   xmlns:sodipodi="http://sodipodi.sourceforge.net/DTD/sodipodi-0.dtd"
   xmlns:inkscape="http://www.inkscape.org/namespaces/inkscape"
   version="1.1"
   width="32px"
   height="32px"
   id="svg2985"
   inkscape:version="0.91 r13725"
   sodipodi:docname="vector_path_circle.svg">
  <metadata
     id="metadata2995">
    <rdf:RDF>
      <cc:Work
         rdf:about="">
        <dc:format>image/svg+xml</dc:format>
        <dc:type
           rdf:resource="http://purl.org/dc/dcmitype/StillImage" />
      </cc:Work>
    </rdf:RDF>
  </metadata>
  <defs
     id="defs2993" />
  <sodipodi:namedview
     pagecolor="#ffffff"
     bordercolor="#666666"
     borderopacity="1"
     objecttolerance="10"
     gridtolerance="10"
     guidetolerance="10"
     inkscape:pageopacity="0"
     inkscape:pageshadow="2"
     inkscape:window-width="1920"
     inkscape:window-height="1028"
     id="namedview2991"
     showgrid="false"
     inkscape:zoom="7.375"
     inkscape:cx="-23.322034"
     inkscape:cy="16"
     inkscape:window-x="-8"
     inkscape:window-y="-8"
     inkscape:window-maximized="1"
     inkscape:current-layer="svg2985" />
  <g
     id="g2987"
     transform="matrix(0.01333333,0,0,-0.01333333,-1.3333333,33.333333)" />
  <path
     d="m 0,18.666667 0,-5.333334 1.5866667,0 Q 2,11.133333 3.06,9.1533333 4.12,7.1733333 5.6466667,5.6466667 7.173333,4.12 9.153333,3.06 q 1.98,-1.06 4.18,-1.4733333 l 0,-1.5866667 5.333334,0 0,1.5866667 q 4.453333,0.8266666 7.686666,4.06 3.233334,3.2333333 4.06,7.6866663 l 1.586667,0 0,5.333334 -1.586667,0 q -0.413333,2.2 -1.473333,4.18 -1.06,1.98 -2.586667,3.506666 Q 24.826667,27.88 22.846667,28.94 q -1.98,1.06 -4.18,1.473333 l 0,1.586667 -5.333334,0 0,-1.586667 Q 8.88,29.586667 5.6466667,26.353333 2.4133333,23.12 1.5866667,18.666667 L 0,18.666667 Z m 1.3333333,-1.333334 2.6666667,0 0,-2.666666 -2.6666667,0 0,2.666666 z m 2.9733334,1.333334 q 0.7733333,3.36 3.2200003,5.806666 2.446666,2.446667 5.806666,3.22 l 0,-1.026666 5.333334,0 0,1.026666 q 3.36,-0.773333 5.806666,-3.22 2.446667,-2.446666 3.22,-5.806666 l -1.026666,0 0,-5.333334 1.026666,0 Q 26.92,9.9733333 24.473333,7.5266667 22.026667,5.08 18.666667,4.3066667 l 0,1.0266666 -5.333334,0 0,-1.0266666 Q 9.973333,5.08 7.526667,7.5266667 5.08,9.9733333 4.3066667,13.333333 l 1.0266666,0 0,5.333334 -1.0266666,0 z m 10.3600003,12 2.666666,0 0,-2.666667 -2.666666,0 0,2.666667 z m 0,-26.666667 2.666666,0 0,-2.6666667 -2.666666,0 0,2.6666667 z M 28,17.333333 l 2.666667,0 0,-2.666666 -2.666667,0 0,2.666666 z"
     id="path2989"
     inkscape:connector-curvature="0" />
</svg>
