<?xml version="1.0" encoding="UTF-8" standalone="no"?>
<svg
   xmlns:dc="http://purl.org/dc/elements/1.1/"
   xmlns:cc="http://creativecommons.org/ns#"
   xmlns:rdf="http://www.w3.org/1999/02/22-rdf-syntax-ns#"
   xmlns:svg="http://www.w3.org/2000/svg"
   xmlns="http://www.w3.org/2000/svg"
   xmlns:sodipodi="http://sodipodi.sourceforge.net/DTD/sodipodi-0.dtd"
   xmlns:inkscape="http://www.inkscape.org/namespaces/inkscape"
   version="1.1"
   width="32px"
   height="32px"
   id="svg2985"
   inkscape:version="0.91 r13725"
   sodipodi:docname="vector_path_square.svg">
  <metadata
     id="metadata2995">
    <rdf:RDF>
      <cc:Work
         rdf:about="">
        <dc:format>image/svg+xml</dc:format>
        <dc:type
           rdf:resource="http://purl.org/dc/dcmitype/StillImage" />
      </cc:Work>
    </rdf:RDF>
  </metadata>
  <defs
     id="defs2993" />
  <sodipodi:namedview
     pagecolor="#ffffff"
     bordercolor="#666666"
     borderopacity="1"
     objecttolerance="10"
     gridtolerance="10"
     guidetolerance="10"
     inkscape:pageopacity="0"
     inkscape:pageshadow="2"
     inkscape:window-width="1920"
     inkscape:window-height="1028"
     id="namedview2991"
     showgrid="false"
     inkscape:zoom="7.375"
     inkscape:cx="-23.322034"
     inkscape:cy="16"
     inkscape:window-x="-8"
     inkscape:window-y="-8"
     inkscape:window-maximized="1"
     inkscape:current-layer="svg2985" />
  <g
     id="g2987"
     transform="matrix(0.01333333,0,0,-0.01333333,-1.3333333,33.333333)" />
  <path
     d="m 0,32 0,-5.333333 1.3333333,0 0,-21.3333337 L 0,5.3333333 0,0 l 5.3333333,0 0,1.3333333 21.3333337,0 L 26.666667,0 32,0 l 0,5.3333333 -1.333333,0 0,21.3333337 1.333333,0 L 32,32 l -5.333333,0 0,-1.333333 -21.3333337,0 0,1.333333 L 0,32 Z M 1.3333333,30.666667 4,30.666667 4,28 l -2.6666667,0 0,2.666667 z M 1.3333333,4 4,4 4,1.3333333 l -2.6666667,0 0,2.6666667 z M 4,26.666667 l 1.3333333,0 0,1.333333 21.3333337,0 0,-1.333333 1.333333,0 0,-21.3333337 -1.333333,0 0,-1.3333333 -21.3333337,0 0,1.3333333 -1.3333333,0 0,21.3333337 z m 24,4 2.666667,0 0,-2.666667 L 28,28 28,30.666667 Z M 28,4 l 2.666667,0 0,-2.6666667 -2.666667,0 L 28,4 Z"
     id="path2989"
     inkscape:connector-curvature="0" />
</svg>
