<?xml version="1.0" encoding="UTF-8" standalone="no"?>
<svg
   xmlns:dc="http://purl.org/dc/elements/1.1/"
   xmlns:cc="http://creativecommons.org/ns#"
   xmlns:rdf="http://www.w3.org/1999/02/22-rdf-syntax-ns#"
   xmlns:svg="http://www.w3.org/2000/svg"
   xmlns="http://www.w3.org/2000/svg"
   xmlns:sodipodi="http://sodipodi.sourceforge.net/DTD/sodipodi-0.dtd"
   xmlns:inkscape="http://www.inkscape.org/namespaces/inkscape"
   version="1.1"
   width="32px"
   height="32px"
   id="svg2985"
   inkscape:version="0.91 r13725"
   sodipodi:docname="vector_path_curve.svg">
  <metadata
     id="metadata2995">
    <rdf:RDF>
      <cc:Work
         rdf:about="">
        <dc:format>image/svg+xml</dc:format>
        <dc:type
           rdf:resource="http://purl.org/dc/dcmitype/StillImage" />
      </cc:Work>
    </rdf:RDF>
  </metadata>
  <defs
     id="defs2993" />
  <sodipodi:namedview
     pagecolor="#ffffff"
     bordercolor="#666666"
     borderopacity="1"
     objecttolerance="10"
     gridtolerance="10"
     guidetolerance="10"
     inkscape:pageopacity="0"
     inkscape:pageshadow="2"
     inkscape:window-width="1920"
     inkscape:window-height="1028"
     id="namedview2991"
     showgrid="false"
     inkscape:zoom="7.375"
     inkscape:cx="-23.322034"
     inkscape:cy="16"
     inkscape:window-x="-8"
     inkscape:window-y="-8"
     inkscape:window-maximized="1"
     inkscape:current-layer="svg2985" />
  <g
     id="g2987"
     transform="matrix(0.01333333,0,0,-0.01333333,-1.3333333,33.333333)" />
  <path
     d="m 0,32 0,-5.333333 1.8133333,0 Q 2.9066667,20.386667 6.38,15.12 9.853333,9.8533333 15.12,6.38 20.386667,2.9066667 26.666667,1.8133333 L 26.666667,0 32,0 l 0,5.3333333 -5.333333,0 0,-0.8133333 q -4.16,0.8 -7.88,2.8 -3.72,2 -6.593334,4.873333 Q 9.32,15.066667 7.32,18.786667 q -2,3.72 -2.8,7.88 l 0.8133333,0 0,5.333333 L 0,32 Z M 1.3333333,30.666667 4,30.666667 4,28 l -2.6666667,0 0,2.666667 z M 28,4 l 2.666667,0 0,-2.6666667 -2.666667,0 L 28,4 Z"
     id="path2989"
     inkscape:connector-curvature="0" />
</svg>
