<?xml version="1.0" encoding="UTF-8" standalone="no"?>
<svg
   xmlns:dc="http://purl.org/dc/elements/1.1/"
   xmlns:cc="http://creativecommons.org/ns#"
   xmlns:rdf="http://www.w3.org/1999/02/22-rdf-syntax-ns#"
   xmlns:svg="http://www.w3.org/2000/svg"
   xmlns="http://www.w3.org/2000/svg"
   xmlns:sodipodi="http://sodipodi.sourceforge.net/DTD/sodipodi-0.dtd"
   xmlns:inkscape="http://www.inkscape.org/namespaces/inkscape"
   version="1.1"
   width="32px"
   height="32px"
   id="svg2985"
   inkscape:version="0.91 r13725"
   sodipodi:docname="vector_path_polygon.svg">
  <metadata
     id="metadata2995">
    <rdf:RDF>
      <cc:Work
         rdf:about="">
        <dc:format>image/svg+xml</dc:format>
        <dc:type
           rdf:resource="http://purl.org/dc/dcmitype/StillImage" />
      </cc:Work>
    </rdf:RDF>
  </metadata>
  <defs
     id="defs2993" />
  <sodipodi:namedview
     pagecolor="#ffffff"
     bordercolor="#666666"
     borderopacity="1"
     objecttolerance="10"
     gridtolerance="10"
     guidetolerance="10"
     inkscape:pageopacity="0"
     inkscape:pageshadow="2"
     inkscape:window-width="1920"
     inkscape:window-height="1028"
     id="namedview2991"
     showgrid="false"
     inkscape:zoom="7.375"
     inkscape:cx="-0.20338983"
     inkscape:cy="16"
     inkscape:window-x="-8"
     inkscape:window-y="-8"
     inkscape:window-maximized="1"
     inkscape:current-layer="svg2985" />
  <g
     id="g2987"
     transform="matrix(0.01230769,0,0,-0.01230769,0.53846154,32.807692)" />
  <path
     d="m 0,15.384615 0,-4.923076 3.7538462,0 9.7846158,-7.0646159 0,-2.7815385 4.923076,0 0,2.7815385 9.821539,7.0646159 3.716923,0 0,4.923076 -1.846154,0 -3.618461,11.076923 0.541538,0 0,4.923077 -4.923077,0 0,-1.230769 -12.307692,0 0,1.230769 -4.9230771,0 0,-4.923077 0.5415385,0 L 1.8338462,15.384615 0,15.384615 Z m 1.2307692,-1.230769 2.4615385,0 0,-2.461538 -2.4615385,0 0,2.461538 z m 3.1876923,1.230769 3.6307695,11.076923 1.796923,0 0,1.230769 12.307692,0 0,-1.230769 1.796923,0 3.618462,-11.076923 -0.492308,0 0,-2.756923 -9.846154,-7.0892304 -2.461538,0 -9.8461541,7.1138464 0,2.732307 -0.5046154,0 z m 1.7353847,14.769231 2.4615388,0 0,-2.461539 -2.4615388,0 0,2.461539 z m 8.6153848,-25.8461537 2.461538,0 0,-2.4615384 -2.461538,0 0,2.4615384 z m 8.615384,25.8461537 2.461539,0 0,-2.461539 -2.461539,0 0,2.461539 z m 4.923077,-16 2.461539,0 0,-2.461538 -2.461539,0 0,2.461538 z"
     id="path2989"
     inkscape:connector-curvature="0" />
</svg>
