<?xml version="1.0" encoding="UTF-8" standalone="no"?>
<svg
   xmlns:dc="http://purl.org/dc/elements/1.1/"
   xmlns:cc="http://creativecommons.org/ns#"
   xmlns:rdf="http://www.w3.org/1999/02/22-rdf-syntax-ns#"
   xmlns:svg="http://www.w3.org/2000/svg"
   xmlns="http://www.w3.org/2000/svg"
   xmlns:sodipodi="http://sodipodi.sourceforge.net/DTD/sodipodi-0.dtd"
   xmlns:inkscape="http://www.inkscape.org/namespaces/inkscape"
   version="1.1"
   width="32px"
   height="32px"
   id="svg2985"
   inkscape:version="0.91 r13725"
   sodipodi:docname="video_hd.svg">
  <metadata
     id="metadata2995">
    <rdf:RDF>
      <cc:Work
         rdf:about="">
        <dc:format>image/svg+xml</dc:format>
        <dc:type
           rdf:resource="http://purl.org/dc/dcmitype/StillImage" />
      </cc:Work>
    </rdf:RDF>
  </metadata>
  <defs
     id="defs2993" />
  <sodipodi:namedview
     pagecolor="#ffffff"
     bordercolor="#666666"
     borderopacity="1"
     objecttolerance="10"
     gridtolerance="10"
     guidetolerance="10"
     inkscape:pageopacity="0"
     inkscape:pageshadow="2"
     inkscape:window-width="1920"
     inkscape:window-height="1028"
     id="namedview2991"
     showgrid="false"
     inkscape:zoom="7.375"
     inkscape:cx="-0.20338983"
     inkscape:cy="16"
     inkscape:window-x="-8"
     inkscape:window-y="-8"
     inkscape:window-maximized="1"
     inkscape:current-layer="svg2985" />
  <g
     id="g2987"
     transform="matrix(0.0128,0,0,-0.0128,-0.98,34.82)" />
  <path
     d="m 0,21.1584 q 0,2.2528 1.1072,4.16 1.1072,1.9072 3.0144,3.0144 1.9072,1.1072 4.16,1.1072 l 15.4496,0 q 2.2528,0 4.1536,-1.1072 1.9008,-1.1072 3.008,-3.0144 Q 32,23.4112 32,21.1584 L 32,10.8288 Q 32,8.576 30.8928,6.6752 29.7856,4.7744 27.8848,3.6672 25.984,2.56 23.7312,2.56 l -15.4496,0 q -2.2528,0 -4.16,1.1072 Q 2.2144,4.7744 1.1072,6.6752 0,8.576 0,10.8288 l 0,10.3296 z m 5.12,0 0,-10.3296 Q 5.12,9.5232 6.0416,8.6016 6.9632,7.68 8.2816,7.68 l 15.4496,0 q 1.3056,0 2.2272,0.9216 0.9216,0.9216 0.9216,2.2272 l 0,10.3296 q 0,1.3184 -0.9216,2.24 -0.9216,0.9216 -2.2272,0.9216 l -15.4496,0 q -1.3184,0 -2.24,-0.9216 Q 5.12,22.4768 5.12,21.1584 Z M 7.68,19.2 l 2.56,0 0,-2.56 2.56,0 0,2.56 2.56,0 0,-6.4 -2.56,0 0,2.56 -2.56,0 0,-2.56 -2.56,0 0,6.4 z m 8.96,0 6.4,0 1.28,-1.28 0,-3.84 -1.28,-1.28 -6.4,0 0,6.4 z m 2.56,-1.28 0,-3.84 2.56,0 0,3.84 -2.56,0 z"
     id="path2989"
     inkscape:connector-curvature="0" />
</svg>
