<?xml version="1.0" encoding="UTF-8" standalone="no"?>
<svg
   xmlns:dc="http://purl.org/dc/elements/1.1/"
   xmlns:cc="http://creativecommons.org/ns#"
   xmlns:rdf="http://www.w3.org/1999/02/22-rdf-syntax-ns#"
   xmlns:svg="http://www.w3.org/2000/svg"
   xmlns="http://www.w3.org/2000/svg"
   xmlns:sodipodi="http://sodipodi.sourceforge.net/DTD/sodipodi-0.dtd"
   xmlns:inkscape="http://www.inkscape.org/namespaces/inkscape"
   version="1.1"
   width="32px"
   height="32px"
   id="svg2985"
   inkscape:version="0.91 r13725"
   sodipodi:docname="volume_down.svg">
  <metadata
     id="metadata2995">
    <rdf:RDF>
      <cc:Work
         rdf:about="">
        <dc:format>image/svg+xml</dc:format>
        <dc:type
           rdf:resource="http://purl.org/dc/dcmitype/StillImage" />
      </cc:Work>
    </rdf:RDF>
  </metadata>
  <defs
     id="defs2993" />
  <sodipodi:namedview
     pagecolor="#ffffff"
     bordercolor="#666666"
     borderopacity="1"
     objecttolerance="10"
     gridtolerance="10"
     guidetolerance="10"
     inkscape:pageopacity="0"
     inkscape:pageshadow="2"
     inkscape:window-width="1920"
     inkscape:window-height="1028"
     id="namedview2991"
     showgrid="false"
     inkscape:zoom="7.375"
     inkscape:cx="-23.322034"
     inkscape:cy="16"
     inkscape:window-x="-8"
     inkscape:window-y="-8"
     inkscape:window-maximized="1"
     inkscape:current-layer="svg2985" />
  <g
     id="g2987"
     transform="matrix(0.02031746,0,0,-0.02031703,-8.3829365,50.908313)" />
  <path
     d="M 0,20.022776 0,11.9366 Q 0,11.530258 0.2946032,11.225503 0.5892063,10.920747 1.015873,10.920747 l 6.907937,0 q 0.406349,0 0.934603,-0.203175 0.528254,-0.203174 0.833016,-0.467291 l 9.874285,-9.26456789 q 0.304762,-0.2844383 0.528254,-0.182853 0.223492,0.1015852 0.223492,0.50792549 l 0,29.3784294 q 0,0.406339 -0.213333,0.507924 -0.213333,0.101588 -0.518095,-0.182857 L 9.813333,21.729398 Q 9.508571,21.44496 8.990476,21.241789 8.472381,21.038615 8.066032,21.038615 l -7.050159,0 q -0.4266667,0 -0.7212698,-0.294595 Q 0,20.449434 0,20.022776 Z M 23.568254,4.9475395 26.79873,2.4688619 q 2.47873,3.0069214 3.84,6.7249374 Q 32,12.911815 32,16.975222 q 0,3.961821 -1.290159,7.578252 -1.290158,3.616431 -3.667301,6.603036 l -3.149207,-2.580264 q 4.043175,-5.11989 4.043175,-11.601024 0,-3.372627 -1.137778,-6.450657 -1.137778,-3.0780328 -3.230476,-5.5770255 z"
     id="path2989"
     inkscape:connector-curvature="0" />
</svg>
