<?xml version="1.0" encoding="UTF-8" standalone="no"?>
<svg
   xmlns:dc="http://purl.org/dc/elements/1.1/"
   xmlns:cc="http://creativecommons.org/ns#"
   xmlns:rdf="http://www.w3.org/1999/02/22-rdf-syntax-ns#"
   xmlns:svg="http://www.w3.org/2000/svg"
   xmlns="http://www.w3.org/2000/svg"
   xmlns:sodipodi="http://sodipodi.sourceforge.net/DTD/sodipodi-0.dtd"
   xmlns:inkscape="http://www.inkscape.org/namespaces/inkscape"
   version="1.1"
   width="32px"
   height="32px"
   id="svg2985"
   inkscape:version="0.91 r13725"
   sodipodi:docname="webcam.svg">
  <metadata
     id="metadata2995">
    <rdf:RDF>
      <cc:Work
         rdf:about="">
        <dc:format>image/svg+xml</dc:format>
        <dc:type
           rdf:resource="http://purl.org/dc/dcmitype/StillImage" />
      </cc:Work>
    </rdf:RDF>
  </metadata>
  <defs
     id="defs2993" />
  <sodipodi:namedview
     pagecolor="#ffffff"
     bordercolor="#666666"
     borderopacity="1"
     objecttolerance="10"
     gridtolerance="10"
     guidetolerance="10"
     inkscape:pageopacity="0"
     inkscape:pageshadow="2"
     inkscape:window-width="1920"
     inkscape:window-height="1028"
     id="namedview2991"
     showgrid="false"
     inkscape:zoom="7.375"
     inkscape:cx="-23.322034"
     inkscape:cy="16"
     inkscape:window-x="-8"
     inkscape:window-y="-8"
     inkscape:window-maximized="1"
     inkscape:current-layer="svg2985" />
  <g
     id="g2987"
     transform="matrix(0.01377529,0,0,-0.01377529,-7.885269,33.655465)" />
  <path
     d="m 3.9328455,12.025829 q 0,-2.355575 0.9436074,-4.5251833 Q 5.8200603,5.3310374 7.4111065,3.7331037 9.0021525,2.13517 11.157986,1.1364615 13.313819,0.1377529 15.655618,0 l 0,8.1825226 q -1.997417,0.2617305 -3.471373,1.7563495 -1.473956,1.4946189 -1.473956,3.4644859 0,1.969866 1.473956,3.471373 1.473956,1.501507 3.471373,1.749462 l 0,5.110633 0.688765,0 0,-5.110633 q 1.997416,-0.247955 3.471373,-1.749462 1.473956,-1.501507 1.473956,-3.471373 0,-1.969867 -1.473956,-3.4644859 -1.473957,-1.494619 -3.471373,-1.7563495 L 16.344383,0 q 2.341798,0.1377529 4.497631,1.1364615 2.155834,0.9987085 3.746879,2.5966422 1.591046,1.5979337 2.534654,3.767542 0.943607,2.1696083 0.943607,4.5251833 0,4.077486 -2.458888,7.280241 -2.45889,3.202755 -6.28842,4.304778 l 7.411106,7.411106 q 0.399483,0.399484 0.282393,0.688765 Q 26.896255,32 26.331468,32 l -2.755059,0 q -0.564786,0 -1.260439,-0.289281 -0.695652,-0.289281 -1.095135,-0.688765 l -2.176496,-2.176496 q -0.399483,-0.399483 -1.095136,-0.688764 -0.695652,-0.289281 -1.260438,-0.289281 l -1.377529,0 q -0.564787,0 -1.260439,0.289281 -0.695652,0.289281 -1.095136,0.688764 l -2.176496,2.176496 Q 10.379682,31.421438 9.6840295,31.710719 8.9883775,32 8.4235905,32 L 5.6685321,32 Q 5.1037452,32 4.9866552,31.710719 4.8695653,31.421438 5.2690487,31.021954 L 12.680156,23.610848 Q 8.8506245,22.508825 6.3917349,19.30607 3.9328455,16.103315 3.9328455,12.025829 Z m 8.1825235,1.735686 q 0.716315,0.413259 1.542832,0.413259 1.294876,0 2.204046,-0.909169 0.909169,-0.909169 0.909169,-2.204047 0,-0.826517 -0.413259,-1.5428322 1.501507,0.1515282 2.527766,1.2604392 1.026259,1.108911 1.026259,2.624193 0,1.625484 -1.143349,2.768833 Q 17.625484,17.31554 16,17.31554 q -1.529058,0 -2.637969,-1.026259 -1.10891,-1.026259 -1.246663,-2.527766 z"
     id="path2989"
     inkscape:connector-curvature="0" />
</svg>
