<?xml version="1.0" encoding="UTF-8" standalone="no"?>
<svg
   xmlns:dc="http://purl.org/dc/elements/1.1/"
   xmlns:cc="http://creativecommons.org/ns#"
   xmlns:rdf="http://www.w3.org/1999/02/22-rdf-syntax-ns#"
   xmlns:svg="http://www.w3.org/2000/svg"
   xmlns="http://www.w3.org/2000/svg"
   xmlns:sodipodi="http://sodipodi.sourceforge.net/DTD/sodipodi-0.dtd"
   xmlns:inkscape="http://www.inkscape.org/namespaces/inkscape"
   version="1.1"
   width="32px"
   height="32px"
   id="svg2985"
   inkscape:version="0.91 r13725"
   sodipodi:docname="wifi.svg">
  <metadata
     id="metadata2995">
    <rdf:RDF>
      <cc:Work
         rdf:about="">
        <dc:format>image/svg+xml</dc:format>
        <dc:type
           rdf:resource="http://purl.org/dc/dcmitype/StillImage" />
      </cc:Work>
    </rdf:RDF>
  </metadata>
  <defs
     id="defs2993" />
  <sodipodi:namedview
     pagecolor="#ffffff"
     bordercolor="#666666"
     borderopacity="1"
     objecttolerance="10"
     gridtolerance="10"
     guidetolerance="10"
     inkscape:pageopacity="0"
     inkscape:pageshadow="2"
     inkscape:window-width="1920"
     inkscape:window-height="1028"
     id="namedview2991"
     showgrid="false"
     inkscape:zoom="7.375"
     inkscape:cx="-23.322034"
     inkscape:cy="16"
     inkscape:window-x="-8"
     inkscape:window-y="-8"
     inkscape:window-maximized="1"
     inkscape:current-layer="svg2985" />
  <g
     id="g2987"
     transform="matrix(0.01039636,0,0,-0.01039636,2.9595776,32.930286)" />
  <path
     d="M 0,11.300844 Q 3.1293047,8.17154 7.2618583,6.4249513 11.394412,4.6783625 15.979207,4.6783625 q 4.605588,0 8.748538,1.7569852 Q 28.870695,8.1923328 32,11.332033 l -2.100065,2.100065 Q 27.186485,10.697855 23.589344,9.1747889 19.992203,7.651722 15.979207,7.651722 q -3.981806,0 -7.5737489,1.5178687 Q 4.8135153,10.687459 2.100065,13.400909 Z M 4.1273554,15.4282 q 2.328785,-2.318389 5.3905136,-3.612736 3.061728,-1.294347 6.461338,-1.294347 3.420403,0 6.492528,1.304744 3.072125,1.304743 5.40091,3.633528 l -2.224822,2.224821 q -1.892137,-1.902534 -4.392462,-2.962963 -2.500325,-1.060429 -5.276154,-1.060429 -2.765432,0 -5.25536,1.055231 -2.4899289,1.055231 -4.3716703,2.936972 z m 4.2521118,4.252111 q 1.4970758,-1.486679 3.4567898,-2.318388 1.959714,-0.831709 4.14295,-0.831709 2.193633,0 4.168941,0.842105 1.975309,0.842106 3.472385,2.339182 l -2.016894,2.016894 q -1.091618,-1.102015 -2.547109,-1.720598 -1.45549,-0.618584 -3.077323,-0.618584 -1.601039,0 -3.040935,0.608187 -1.439896,0.608188 -2.541911,1.699806 z m 4.0545808,4.054581 q 0.68616,-0.696556 1.606238,-1.081221 0.920078,-0.384666 1.938921,-0.384666 1.02924,0 1.959714,0.395062 0.930475,0.395062 1.627031,1.102014 l -3.545159,3.555556 z"
     id="path2989"
     inkscape:connector-curvature="0" />
</svg>
