<?xml version="1.0" encoding="UTF-8" standalone="no"?>
<svg
   xmlns:dc="http://purl.org/dc/elements/1.1/"
   xmlns:cc="http://creativecommons.org/ns#"
   xmlns:rdf="http://www.w3.org/1999/02/22-rdf-syntax-ns#"
   xmlns:svg="http://www.w3.org/2000/svg"
   xmlns="http://www.w3.org/2000/svg"
   xmlns:sodipodi="http://sodipodi.sourceforge.net/DTD/sodipodi-0.dtd"
   xmlns:inkscape="http://www.inkscape.org/namespaces/inkscape"
   version="1.1"
   width="32px"
   height="32px"
   id="svg2985"
   inkscape:version="0.91 r13725"
   sodipodi:docname="wifi_alt.svg">
  <metadata
     id="metadata2995">
    <rdf:RDF>
      <cc:Work
         rdf:about="">
        <dc:format>image/svg+xml</dc:format>
        <dc:type
           rdf:resource="http://purl.org/dc/dcmitype/StillImage" />
      </cc:Work>
    </rdf:RDF>
  </metadata>
  <defs
     id="defs2993" />
  <sodipodi:namedview
     pagecolor="#ffffff"
     bordercolor="#666666"
     borderopacity="1"
     objecttolerance="10"
     gridtolerance="10"
     guidetolerance="10"
     inkscape:pageopacity="0"
     inkscape:pageshadow="2"
     inkscape:window-width="1920"
     inkscape:window-height="1028"
     id="namedview2991"
     showgrid="false"
     inkscape:zoom="7.375"
     inkscape:cx="-23.322034"
     inkscape:cy="16"
     inkscape:window-x="-8"
     inkscape:window-y="-8"
     inkscape:window-maximized="1"
     inkscape:current-layer="svg2985" />
  <g
     id="g2987"
     transform="matrix(0.01230769,0,0,-0.01230769,0.53846154,32.777692)" />
  <path
     d="M 0,11.876923 Q 0,8.5784616 1.2738462,5.6246154 2.5476923,2.6707693 4.8246154,0.4553846 L 6.56,2.1907693 Q 4.6276923,4.0738462 3.5446154,6.5784616 2.4615385,9.0830769 2.4615385,11.876923 q 0,2.793846 1.0830769,5.298461 Q 4.6276923,19.68 6.56,21.563077 L 4.8246154,23.310769 Q 2.5476923,21.083077 1.2738462,18.12923 0,15.175384 0,11.876923 Z m 6.3261538,0 Q 6.3261538,9.8707692 7.113846,8.08 7.901538,6.2892308 9.304615,4.9353846 L 11.04,6.6707692 Q 9.981538,7.68 9.384615,9.0276923 8.787692,10.375385 8.787692,11.876923 q 0,1.513846 0.596923,2.861538 0.596923,1.347692 1.655385,2.344616 L 9.304615,18.830769 Q 7.901538,17.48923 7.113846,15.686153 6.3261538,13.883077 6.3261538,11.876923 Z m 6.5846152,0 q 0,-1.28 0.904616,-2.1784614 Q 14.72,8.8 16,8.8 q 1.28,0 2.184615,0.9046154 0.904616,0.9046156 0.904616,2.1723076 0,1.009231 -0.590769,1.80923 -0.59077,0.8 -1.526154,1.107693 l 1.48923,16.750769 -4.923076,0 1.48923,-16.750769 q -0.935384,-0.307693 -1.526154,-1.107693 -0.590769,-0.799999 -0.590769,-1.80923 z M 20.96,17.083077 q 1.058462,-0.996924 1.655385,-2.344616 0.596923,-1.347692 0.596923,-2.861538 0,-1.501538 -0.596923,-2.8492307 Q 22.018462,7.68 20.96,6.6707692 L 22.695385,4.9353846 Q 24.098462,6.2892308 24.886154,8.08 q 0.787692,1.7907692 0.787692,3.796923 0,2.006154 -0.787692,3.80923 -0.787692,1.803077 -2.190769,3.144616 z m 4.48,4.48 q 1.932308,-1.883077 3.015385,-4.387693 1.083077,-2.504615 1.083077,-5.298461 0,-2.7938461 -1.083077,-5.2984614 Q 27.372308,4.0738462 25.44,2.1907693 L 27.175385,0.4553846 Q 29.452308,2.6707693 30.726154,5.6246154 32,8.5784616 32,11.876923 q 0,3.298461 -1.273846,6.252307 -1.273846,2.953847 -3.550769,5.181539 z"
     id="path2989"
     inkscape:connector-curvature="0" />
</svg>
