<?xml version="1.0" encoding="UTF-8" standalone="no"?>
<svg
   xmlns:dc="http://purl.org/dc/elements/1.1/"
   xmlns:cc="http://creativecommons.org/ns#"
   xmlns:rdf="http://www.w3.org/1999/02/22-rdf-syntax-ns#"
   xmlns:svg="http://www.w3.org/2000/svg"
   xmlns="http://www.w3.org/2000/svg"
   xmlns:sodipodi="http://sodipodi.sourceforge.net/DTD/sodipodi-0.dtd"
   xmlns:inkscape="http://www.inkscape.org/namespaces/inkscape"
   version="1.1"
   width="32px"
   height="32px"
   id="svg2985"
   inkscape:version="0.91 r13725"
   sodipodi:docname="woman.svg">
  <metadata
     id="metadata2995">
    <rdf:RDF>
      <cc:Work
         rdf:about="">
        <dc:format>image/svg+xml</dc:format>
        <dc:type
           rdf:resource="http://purl.org/dc/dcmitype/StillImage" />
      </cc:Work>
    </rdf:RDF>
  </metadata>
  <defs
     id="defs2993" />
  <sodipodi:namedview
     pagecolor="#ffffff"
     bordercolor="#666666"
     borderopacity="1"
     objecttolerance="10"
     gridtolerance="10"
     guidetolerance="10"
     inkscape:pageopacity="0"
     inkscape:pageshadow="2"
     inkscape:window-width="1920"
     inkscape:window-height="1028"
     id="namedview2991"
     showgrid="false"
     inkscape:zoom="7.375"
     inkscape:cx="-23.322034"
     inkscape:cy="16"
     inkscape:window-x="-8"
     inkscape:window-y="-8"
     inkscape:window-maximized="1"
     inkscape:current-layer="svg2985" />
  <g
     id="g2987"
     transform="matrix(0.01454545,0,0,-0.01454545,-3.7272727,35.729545)" />
  <path
     d="M 0,31.265454 0,29.490909 Q 0,28.661818 0.4145455,28.094545 0.8290909,27.527272 1.6290909,27.076363 2.0509091,26.843636 6.029091,25.381818 10.007273,23.92 11.636364,23.105454 l 0,-3.345454 Q 9.658182,19.629091 7.905455,18.705454 6.152727,17.781818 5.265455,16.807272 5.032727,16.56 5.010909,16.283636 4.989091,16.007272 5.12,15.752727 5.250909,15.498182 5.541818,15.170909 5.832727,14.843636 6.145455,14.56 6.458182,14.276364 6.887273,13.854545 7.316364,13.432727 7.621818,13.069091 8.669091,11.847273 8.996364,10.538182 9.323636,9.2290908 9.323636,6.6254545 q 0,-1.1781818 0.48,-2.3490909 0.48,-1.1709091 1.316364,-2.1163637 0.836364,-0.9454545 2.116364,-1.54181815 1.28,-0.5963636 2.763636,-0.610909 1.483636,0.014545 2.763636,0.610909 1.28,0.59636365 2.116364,1.54181815 0.836364,0.9454546 1.316364,2.1163637 0.48,1.1709091 0.48,2.3490909 0,2.6036363 0.327272,3.9127275 0.327273,1.309091 1.374546,2.530909 0.305454,0.363636 0.734545,0.785454 0.429091,0.421819 0.741818,0.705455 0.312728,0.283636 0.603637,0.610909 0.290909,0.327273 0.421818,0.581818 0.130909,0.254545 0.109091,0.530909 Q 26.967271,16.56 26.734545,16.807272 25.832727,17.781818 24.08,18.705454 22.327273,19.629091 20.363636,19.76 l 0,3.345454 q 1.629091,0.814546 5.6,2.276364 3.970909,1.461818 4.392728,1.694545 Q 32,27.978182 32,29.490909 l 0,1.774545 q 0,0.305455 -0.210909,0.516364 -0.210909,0.210909 -0.516364,0.210909 l -30.5454543,0 q -0.2909091,0 -0.5090909,-0.210909 Q 0,31.570909 0,31.265454 Z"
     id="path2989"
     inkscape:connector-curvature="0" />
</svg>
