<?xml version="1.0" encoding="UTF-8" standalone="no"?>
<svg
   xmlns:dc="http://purl.org/dc/elements/1.1/"
   xmlns:cc="http://creativecommons.org/ns#"
   xmlns:rdf="http://www.w3.org/1999/02/22-rdf-syntax-ns#"
   xmlns:svg="http://www.w3.org/2000/svg"
   xmlns="http://www.w3.org/2000/svg"
   xmlns:sodipodi="http://sodipodi.sourceforge.net/DTD/sodipodi-0.dtd"
   xmlns:inkscape="http://www.inkscape.org/namespaces/inkscape"
   version="1.1"
   width="32px"
   height="32px"
   id="svg2985"
   inkscape:version="0.91 r13725"
   sodipodi:docname="wrench.svg">
  <metadata
     id="metadata2995">
    <rdf:RDF>
      <cc:Work
         rdf:about="">
        <dc:format>image/svg+xml</dc:format>
        <dc:type
           rdf:resource="http://purl.org/dc/dcmitype/StillImage" />
      </cc:Work>
    </rdf:RDF>
  </metadata>
  <defs
     id="defs2993" />
  <sodipodi:namedview
     pagecolor="#ffffff"
     bordercolor="#666666"
     borderopacity="1"
     objecttolerance="10"
     gridtolerance="10"
     guidetolerance="10"
     inkscape:pageopacity="0"
     inkscape:pageshadow="2"
     inkscape:window-width="1920"
     inkscape:window-height="1028"
     id="namedview2991"
     showgrid="false"
     inkscape:zoom="7.375"
     inkscape:cx="-23.322034"
     inkscape:cy="16"
     inkscape:window-x="-8"
     inkscape:window-y="-8"
     inkscape:window-maximized="1"
     inkscape:current-layer="svg2985" />
  <g
     id="g2987"
     transform="matrix(0.01350808,0,0,-0.01350781,-1.7790682,33.754667)" />
  <path
     d="m 0.09320376,27.934149 q 0,0.472774 0.3241938,0.796961 L 3.3621577,31.675813 Q 3.6863515,32 4.1456259,32 4.6049003,32 4.9290941,31.675813 l 16.4258179,-16.425496 0.162096,0.05403 q 1.107662,0.391726 2.553026,0.378218 1.918147,-0.02702 3.93085,-1.161671 0.76996,-0.43225 1.418347,-0.979316 0.648388,-0.547066 1.256252,-1.330519 0.607863,-0.783453 0.932058,-1.85057 0.324194,-1.0671173 0.297177,-2.3098357 L 25.353302,11.346559 21.206323,4.7007166 27.973868,1.0941315 Q 26.27185,0 24.380721,0 22.462574,0 20.463379,1.1211482 18.058942,2.4854369 17.032329,5.1599831 16.005715,7.8345293 16.870231,10.48206 l 0.04052,0.162094 -16.49335744,16.506542 q -0.3241938,0.31068 -0.3241938,0.783453 z M 2.8083266,27.515407 q 0,-0.688898 0.4862907,-1.175179 0.4862906,-0.486281 1.1752024,-0.486281 0.6889116,0 1.1819565,0.486281 0.4930448,0.486281 0.4930448,1.175179 0,0.688899 -0.4930448,1.181934 -0.4930449,0.493035 -1.1819565,0.493035 -0.6889118,0 -1.1752024,-0.493035 -0.4862907,-0.493035 -0.4862907,-1.181934 z"
     id="path2989"
     inkscape:connector-curvature="0" />
</svg>
