<?xml version="1.0" encoding="UTF-8" standalone="no"?>
<svg
   xmlns:dc="http://purl.org/dc/elements/1.1/"
   xmlns:cc="http://creativecommons.org/ns#"
   xmlns:rdf="http://www.w3.org/1999/02/22-rdf-syntax-ns#"
   xmlns:svg="http://www.w3.org/2000/svg"
   xmlns="http://www.w3.org/2000/svg"
   xmlns:sodipodi="http://sodipodi.sourceforge.net/DTD/sodipodi-0.dtd"
   xmlns:inkscape="http://www.inkscape.org/namespaces/inkscape"
   version="1.1"
   width="32px"
   height="32px"
   id="svg2985"
   inkscape:version="0.91 r13725"
   sodipodi:docname="zoom_in.svg">
  <metadata
     id="metadata2995">
    <rdf:RDF>
      <cc:Work
         rdf:about="">
        <dc:format>image/svg+xml</dc:format>
        <dc:type
           rdf:resource="http://purl.org/dc/dcmitype/StillImage" />
      </cc:Work>
    </rdf:RDF>
  </metadata>
  <defs
     id="defs2993" />
  <sodipodi:namedview
     pagecolor="#ffffff"
     bordercolor="#666666"
     borderopacity="1"
     objecttolerance="10"
     gridtolerance="10"
     guidetolerance="10"
     inkscape:pageopacity="0"
     inkscape:pageshadow="2"
     inkscape:window-width="1920"
     inkscape:window-height="1028"
     id="namedview2991"
     showgrid="false"
     inkscape:zoom="7.375"
     inkscape:cx="-23.322034"
     inkscape:cy="16"
     inkscape:window-x="-8"
     inkscape:window-y="-8"
     inkscape:window-maximized="1"
     inkscape:current-layer="svg2985" />
  <g
     id="g2987"
     transform="matrix(0.0131309,0,0,-0.0131309,-2.8358002,32.380322)" />
  <path
     d="M 0,12.933935 Q 0,10.832991 0.6565449,8.8567911 1.3130899,6.8805909 2.5080016,5.2917522 3.7029134,3.7029134 5.2917522,2.5080016 6.880591,1.3130899 8.856791,0.6565449 10.832991,0 12.933935,0 q 2.100944,0 4.077144,0.6565449 1.9762,0.656545 3.565039,1.8514567 1.588839,1.1949118 2.783751,2.7837506 1.194911,1.5888387 1.851456,3.5650389 0.656545,1.9761999 0.656545,4.0771439 0,3.755437 -2.074682,6.985638 l 8.009849,8.009848 Q 32,28.126385 32,28.408699 q 0,0.282315 -0.196963,0.492409 l -2.901929,2.901929 Q 28.704144,32 28.415265,32 q -0.28888,0 -0.485844,-0.196963 l -8.009848,-8.009849 q -3.203939,2.074682 -6.985638,2.074682 -2.100944,0 -4.077144,-0.656545 Q 6.880591,24.55478 5.2917522,23.359869 3.7029134,22.164957 2.5080016,20.576118 1.3130899,18.987279 0.6565449,17.011079 0,15.034879 0,12.933935 Z m 4.1099713,0 q 0,1.785802 0.6959376,3.420599 0.6959376,1.634797 1.8777181,2.816578 1.181781,1.181781 2.816578,1.884284 1.634797,0.702503 3.43373,0.702503 1.798933,0 3.43373,-0.702503 1.634797,-0.702503 2.816578,-1.884284 1.181781,-1.181781 1.877718,-2.816578 0.695938,-1.634797 0.695938,-3.420599 0,-2.389823 -1.181781,-4.4251127 -1.181781,-2.0352893 -3.21707,-3.2170701 -2.035289,-1.1817809 -4.425113,-1.1817809 -2.389823,0 -4.425113,1.1817809 Q 6.473533,6.473533 5.2917522,8.5088223 4.1099713,10.544112 4.1099713,12.933935 Z m 3.4402957,0.525236 0,-1.31309 q 0,-0.262618 0.190398,-0.459581 0.190398,-0.196964 0.466147,-0.196964 l 3.282724,0 0,-3.2827243 q 0,-0.262618 0.190398,-0.4595815 0.190398,-0.1969635 0.466147,-0.1969635 l 1.31309,0 q 0.275749,0 0.466147,0.1969635 0.190398,0.1969635 0.190398,0.4595815 l 0,3.2827243 3.282725,0 q 0.275749,0 0.466147,0.196964 0.190398,0.196963 0.190398,0.459581 l 0,1.31309 q 0,0.275749 -0.190398,0.466147 -0.190398,0.190398 -0.466147,0.190398 l -3.282725,0 0,3.282725 q 0,0.275749 -0.190398,0.466147 -0.190398,0.190398 -0.466147,0.190398 l -1.31309,0 q -0.275749,0 -0.466147,-0.190398 -0.190398,-0.190398 -0.190398,-0.466147 l 0,-3.282725 -3.282724,0 q -0.275749,0 -0.466147,-0.190398 Q 7.550267,13.73492 7.550267,13.459171 Z"
     id="path2989"
     inkscape:connector-curvature="0" />
</svg>
