<?xml version="1.0" standalone="no"?>
<!DOCTYPE svg PUBLIC "-//W3C//DTD SVG 1.1//EN" "http://www.w3.org/Graphics/SVG/1.1/DTD/svg11.dtd" >
<svg xmlns="http://www.w3.org/2000/svg">
<metadata>Generated by IcoMoon</metadata>
<defs>
<font id="cui-mime-type-font" horiz-adv-x="512">
<font-face units-per-em="512" ascent="480" descent="-32" />
<missing-glyph horiz-adv-x="512" />
<glyph unicode="&#x20;" d="" horiz-adv-x="256" />
<glyph unicode="&#xe600;" d="M229 200.5l-44-205h31l8.5 41.5h44l8.5-41.5h31.5l-44 205h-35.5zM348.5 200.5v-131c0-25.238 4.548-44.51 13.5-58s22.522-20 40-20c17.478 0 30.52 6.509 39.5 20s13.5 33.171 13.5 58.5v130.5h-31v-128c0-14.776-1.945-25.3-5.5-32s-8.803-10-16.5-10c-7.803 0-13.526 3.525-17 10.5s-5.5 17.275-5.5 31.5v128h-31zM246.5 148l14.5-73.5h-29l14.5 73.5z" />
<glyph unicode="&#xe601;" d="M449 202.5c-20.738 0-36.901-9.498-48.5-29s-17.5-45.154-17.5-77c0-33.406 5.509-59.549 17-78.5s27.69-28.5 48-28.5c8.765 0 17.181 1.466 26 5s16.155 7.421 21.5 11v101h-55v-38.5h23.5v-40.5c-1.176-0.183-2.084-0.409-3.5-0.5s-2.824 0-4 0c-13.683 0-23.998 5.978-31 18s-10.5 29.332-10.5 52c0 11.104 1.049 21.011 3 29.5s4.632 15.493 8 21c3.527 5.69 7.563 9.747 12 12.5s9.048 4.5 14.5 4.5c4.65 0 9.358-1.389 13.5-3.5s7.4-4.563 10.5-7.5c2.673-2.478 5.613-5.467 8.5-9s5.003-6.073 6.5-8h3.5v48c-8.712 7.25-16.392 12.068-23.5 14.5s-14.643 3.5-22.5 3.5zM144.5 198.5v-205h29v137.5l22-89h21.5l22 89v-137.5h30.5v205h-35.5l-27-102.5-26.5 102.5h-36zM281 198.5v-205h31v67h19c8.712 0 16.147 1.87 22 6s11.243 10.424 16 18.5c3.474 5.965 6.129 13.236 8 22s3 17.822 3 27c0 11.839-1.462 22.057-4 30.5s-6.19 15.085-11 20.5c-4.009 4.497-8.789 8.252-14 10.5s-11.411 3-19 3h-51zM312 160.5h5.5c5.077 0 8.954-0.271 12-0.5s6.293-1.298 9.5-3.5c2.405-1.652 4.183-4.825 6-9s3-9.219 3-15c0-5.873-0.618-10.416-1.5-14.5s-2.022-8.063-4-11c-2.298-3.304-5.106-5.399-8.5-6.5s-7.762-1.5-13-1.5h-9v61.5z" />
<glyph unicode="&#xe602;" d="M198.5 198.5l-44-205h31l8.5 41.5h44l8.5-41.5h31.5l-44 205h-35.5zM282 198.5l43.5-205h34.5l43.5 205h-31.5l-28.5-144-29 144h-32.5zM415.5 198.5v-36.5h19.5v-132h-19.5v-36.5h70v36.5h-19.5v132h19.5v36.5h-70zM216 146l14.5-73.5h-29l14.5 73.5z" />
<glyph unicode="&#xe603;" d="M202 202.5c-9.087 0-17.33-2.545-25-7.5s-14.315-11.914-19.5-21c-5.399-9.453-9.167-20.784-12-34s-4.5-27.756-4.5-44c0-17.437 1.534-33.193 4.5-46.5s7.101-24.098 12.5-33c5.399-8.902 11.99-15.503 19.5-20s15.627-7 24.5-7c5.986 0 10.579 0.49 14 1.5s7.098 2.573 11 4.5c2.993 1.469 5.774 2.981 8.5 5s6.007 4.205 9 6.5v49h-3.5c-1.443-2.202-3.255-4.471-5.5-7.5s-4.381-5.839-7-8.5c-3.1-3.304-6.839-6.073-10.5-8s-7.258-3-11-3c-3.902 0-7.992 1.344-12 3.5s-7.239 5.452-10.5 10.5c-3.207 4.955-5.889 11.873-8 20.5s-3.5 19.151-3.5 32c0 12.298 1.049 22.873 3 31.5s4.346 15.769 7.5 21c3.314 5.414 7.098 9.159 11 11.5s8.171 3.5 12.5 3.5c3.901 0 7.579-0.981 11-3s6.56-4.563 9.5-7.5c2.886-2.937 5.228-5.971 7.5-9s4.504-5.798 6-8h3.5v50c-2.191 1.836-5.087 3.843-8 6s-5.919 3.756-9.5 5.5c-3.421 1.56-7.464 3.036-11.5 4s-8.476 1.5-13.5 1.5zM321 202.5c-9.087 0-17.33-2.545-25-7.5s-14.315-11.914-19.5-21c-5.399-9.453-9.167-20.784-12-34s-4.5-27.756-4.5-44c0-17.437 1.534-33.193 4.5-46.5s7.101-24.098 12.5-33c5.399-8.902 11.99-15.503 19.5-20s15.627-7 24.5-7c5.986 0 10.579 0.49 14 1.5s7.098 2.573 11 4.5c2.993 1.469 5.774 2.981 8.5 5s6.007 4.205 9 6.5v49h-3.5c-1.443-2.202-3.255-4.471-5.5-7.5s-4.381-5.839-7-8.5c-3.1-3.304-6.839-6.073-10.5-8s-7.259-3-11-3c-3.902 0-7.991 1.344-12 3.5s-7.74 5.452-11 10.5c-3.207 4.955-5.389 11.873-7.5 20.5s-3.5 19.151-3.5 32c0 12.298 1.049 22.873 3 31.5s4.346 15.769 7.5 21c3.314 5.414 7.098 9.159 11 11.5s8.171 3.5 12.5 3.5c3.901 0 7.579-0.981 11-3s6.56-4.563 9.5-7.5c2.886-2.937 5.228-5.971 7.5-9s4.503-5.798 6-8h3.5v50c-2.192 1.836-5.087 3.843-8 6s-5.919 3.756-9.5 5.5c-3.421 1.56-7.464 3.036-11.5 4s-8.476 1.5-13.5 1.5zM386 198.5v-205h42c9.514 0 18.051 1.114 25 3.5s13.174 6.943 19 13c7.75 8.076 14.422 19.403 19.5 34.5s7.5 32.411 7.5 51.5c0 19.823-2.27 36.862-7 51.5s-11.269 26.373-19.5 35c-4.81 5.139-10.945 9.2-18 12s-15.272 4-25 4h-43.5zM417 160h7.5c6.627 0 11.713-0.036 15-1s6.346-2.839 9.5-5.5c6.2-5.415 10.64-12.91 13.5-22.5s4.5-21.51 4.5-35c0-13.582-1.381-24.777-4-34s-6.388-16.493-12-22c-3.26-3.029-7.079-5.353-10.5-6.5s-8.678-1.5-16-1.5h-7.5v128z" />
<glyph unicode="&#xe604;" d="M182 172.5c-6.775 0-12.781-1.941-18.5-5.5s-10.634-8.475-14.5-15c-4.025-6.789-6.887-15.009-9-24.5s-3.5-19.834-3.5-31.5c0-12.524 1.288-23.943 3.5-33.5s5.475-17.106 9.5-23.5c4.025-6.394 8.9-11.271 14.5-14.5s11.384-5 18-5c4.464 0 7.95 0.275 10.5 1s5.59 2.116 8.5 3.5c2.232 1.055 4.468 2.050 6.5 3.5s3.768 2.852 6 4.5v35.5h-2c-1.076-1.582-2.826-3.825-4.5-6s-3.547-4.089-5.5-6c-2.311-2.373-4.77-4.116-7.5-5.5s-5.21-2-8-2c-2.91 0-6.011 0.451-9 2s-5.569 4.375-8 8c-2.392 3.559-4.426 8.304-6 14.5s-2.5 14.272-2.5 23.5c0 8.832 1.046 16.304 2.5 22.5s3.149 10.743 5.5 14.5c2.471 3.889 5.090 6.819 8 8.5s6.272 2.5 9.5 2.5c2.91 0 5.45-0.55 8-2s4.808-3.391 7-5.5c2.152-2.11 4.306-4.325 6-6.5s2.884-3.918 4-5.5h2.5v35.5c-1.634 1.318-3.328 2.951-5.5 4.5s-4.83 2.748-7.5 4c-2.55 1.12-4.991 2.308-8 3s-6.754 1-10.5 1zM271 172.5c-6.775 0-13.281-1.941-19-5.5s-10.134-8.475-14-15c-4.025-6.789-7.387-15.009-9.5-24.5s-3-19.834-3-31.5c0-12.524 1.288-23.943 3.5-33.5s4.975-17.106 9-23.5c4.025-6.394 8.9-11.271 14.5-14.5s11.884-5 18.5-5c4.464 0 7.95 0.275 10.5 1s5.091 2.116 8 3.5c2.232 1.055 4.467 2.050 6.5 3.5s4.268 2.852 6.5 4.5v35.5h-2.5c-1.076-1.582-2.326-3.825-4-6s-3.547-4.089-5.5-6c-2.312-2.373-4.77-4.116-7.5-5.5s-5.711-2-8.5-2c-2.909 0-6.011 0.451-9 2s-5.569 4.375-8 8c-2.392 3.559-4.426 8.304-6 14.5s-2 14.272-2 23.5c0 8.832 0.546 16.304 2 22.5s3.149 10.743 5.5 14.5c2.471 3.889 5.591 6.819 8.5 8.5s5.772 2.5 9 2.5c2.909 0 5.45-0.55 8-2s5.308-3.391 7.5-5.5c2.152-2.11 3.806-4.325 5.5-6.5s3.384-3.918 4.5-5.5h2.5v35.5c-1.634 1.318-3.828 2.951-6 4.5s-4.33 2.748-7 4c-2.55 1.12-5.491 2.308-8.5 3s-6.254 1-10 1zM319.5 169.5v-147h31.5c7.094 0 12.819 0.786 18 2.5s10.156 4.65 14.5 9c5.779 5.8 10.714 14.158 14.5 25s5.5 23.29 5.5 37c0 14.237-1.973 26.487-5.5 37s-8.363 18.804-14.5 25c-3.587 3.691-7.74 6.49-13 8.5s-11.747 3-19 3h-32zM444 169.5l-33-147h23l6.5 29.5h33l6-29.5h24l-33 147h-26.5zM342.5 142h5.5c4.942 0 8.549-0.308 11-1s5.149-2.089 7.5-4c4.623-3.889 7.868-9.113 10-16s3.5-15.311 3.5-25c0-9.755-1.047-17.876-3-24.5s-5.315-12.046-9.5-16c-2.431-2.175-4.95-3.676-7.5-4.5s-6.54-1-12-1h-5.5v92zM457 132l11-53h-22l11 53z" />
<glyph unicode="&#xe605;" d="M202 202.5c-9.087 0-17.33-2.545-25-7.5s-14.315-11.914-19.5-21c-5.399-9.453-9.167-20.784-12-34s-4.5-27.756-4.5-44c0-17.437 1.534-33.193 4.5-46.5s7.101-24.098 12.5-33c5.399-8.902 11.99-15.503 19.5-20s15.627-7 24.5-7c5.986 0 10.579 0.49 14 1.5s7.098 2.573 11 4.5c2.993 1.469 5.774 2.981 8.5 5s6.007 4.205 9 6.5v49h-3.5c-1.443-2.202-3.255-4.471-5.5-7.5s-4.381-5.839-7-8.5c-3.1-3.304-6.839-6.073-10.5-8s-7.258-3-11-3c-3.902 0-7.992 1.344-12 3.5s-7.239 5.452-10.5 10.5c-3.207 4.955-5.889 11.873-8 20.5s-3.5 19.151-3.5 32c0 12.298 1.049 22.873 3 31.5s4.346 15.769 7.5 21c3.314 5.414 7.098 9.159 11 11.5s8.171 3.5 12.5 3.5c3.901 0 7.579-0.981 11-3s6.56-4.563 9.5-7.5c2.886-2.937 5.228-5.971 7.5-9s4.504-5.798 6-8h3.5v50c-2.191 1.836-5.087 3.843-8 6s-5.919 3.756-9.5 5.5c-3.421 1.56-7.464 3.036-11.5 4s-8.476 1.5-13.5 1.5zM321 202.5c-9.087 0-17.33-2.545-25-7.5s-14.315-11.914-19.5-21c-5.399-9.453-9.167-20.784-12-34s-4.5-27.756-4.5-44c0-17.437 1.534-33.193 4.5-46.5s7.101-24.098 12.5-33c5.399-8.902 11.99-15.503 19.5-20s15.627-7 24.5-7c5.986 0 10.579 0.49 14 1.5s7.098 2.573 11 4.5c2.993 1.469 5.774 2.981 8.5 5s6.007 4.205 9 6.5v49h-3.5c-1.443-2.202-3.255-4.471-5.5-7.5s-4.381-5.839-7-8.5c-3.1-3.304-6.839-6.073-10.5-8s-7.259-3-11-3c-3.902 0-7.991 1.344-12 3.5s-7.74 5.452-11 10.5c-3.207 4.955-5.389 11.873-7.5 20.5s-3.5 19.151-3.5 32c0 12.298 1.049 22.873 3 31.5s4.346 15.769 7.5 21c3.314 5.414 7.098 9.159 11 11.5s8.171 3.5 12.5 3.5c3.901 0 7.579-0.981 11-3s6.56-4.563 9.5-7.5c2.886-2.937 5.228-5.971 7.5-9s4.503-5.798 6-8h3.5v50c-2.192 1.836-5.087 3.843-8 6s-5.919 3.756-9.5 5.5c-3.421 1.56-7.464 3.036-11.5 4s-8.476 1.5-13.5 1.5zM386 198.5v-205h30.5v75h14.5l32.5-75h37.5l-40 88c7.589 6.332 13.411 13.956 17.5 23.5s6.5 21.857 6.5 37c0 11.012-1.354 20.204-4 27.5s-6.51 13.411-11 18c-4.437 4.589-8.923 7.623-14 9s-11.445 2-18.5 2h-51.5zM416.5 161h11.5c3.688 0 6.721-0.179 9.5-0.5s5.416-1.532 7.5-3c2.993-2.111 4.771-4.829 6-8.5s2-8.361 2-13.5c0-5.782-0.512-10.058-1.5-13.5s-2.362-6.655-4.5-9.5c-2.245-2.937-5.186-4.674-8.5-5.5s-7.583-1.5-12.5-1.5h-9.5v55.5z" />
<glyph unicode="&#xe606;" d="M202 202c-8.946 0-16.948-2.565-24.5-7.5s-13.895-11.952-19-21c-5.315-9.413-9.711-20.34-12.5-33.5s-4-27.824-4-44c0-17.364 1.579-32.748 4.5-46s6.685-24.635 12-33.5c5.315-8.865 12.107-15.522 19.5-20s15.264-6.5 24-6.5c5.893 0 10.632 0.495 14 1.5s6.659 2.581 10.5 4.5c2.947 1.462 5.816 2.99 8.5 5s5.553 4.216 8.5 6.5v49h-3c-1.421-2.193-3.29-4.984-5.5-8s-4.422-5.85-7-8.5c-3.052-3.29-6.395-6.081-10-8s-7.316-2.5-11-2.5c-3.841 0-8.053 0.853-12 3s-7.29 5.974-10.5 11c-3.157 4.935-5.922 11.409-8 20s-3 19.206-3 32c0 12.246 1.079 22.909 3 31.5s4.395 15.291 7.5 20.5c3.262 5.392 6.659 9.169 10.5 11.5s7.738 3.5 12 3.5c3.841 0 7.632-0.99 11-3s6.606-4.075 9.5-7c2.841-2.925 5.263-5.985 7.5-9s4.026-5.807 5.5-8h3.5v49.5c-2.157 1.827-4.632 3.852-7.5 6s-5.975 4.264-9.5 6c-3.368 1.553-7.027 2.54-11 3.5s-8.553 1.5-13.5 1.5zM266 198v-204h41.5c9.367 0 17.659 1.124 24.5 3.5s12.764 6.469 18.5 12.5c7.63 8.042 14 19.466 19 34.5s7.5 32.491 7.5 51.5c0 19.74-2.343 36.923-7 51.5s-10.896 25.909-19 34.5c-4.736 5.118-10.554 9.212-17.5 12s-15.423 4-25 4h-42.5zM430.5 198l-43.5-204h30.5l8.5 41h43.5l8-41h31.5l-43.5 204h-35zM296.5 160h7.5c6.525 0 11.264-0.541 14.5-1.5s6.395-2.85 9.5-5.5c6.104-5.392 10.685-12.95 13.5-22.5s4-21.066 4-34.5c0-13.526-0.921-24.815-3.5-34s-6.974-16.517-12.5-22c-3.21-3.016-6.132-4.858-9.5-6s-8.791-2-16-2h-7.5v128zM447.5 146l14.5-73.5h-29l14.5 73.5z" />
<glyph unicode="&#xe607;" d="M320 202.5c-9.087 0-17.33-2.545-25-7.5s-14.315-11.914-19.5-21c-5.399-9.453-9.167-20.784-12-34s-4.5-27.756-4.5-44c0-17.437 1.534-33.193 4.5-46.5s7.101-24.098 12.5-33c5.399-8.902 11.99-15.503 19.5-20s15.627-7 24.5-7c5.986 0 10.579 0.49 14 1.5s7.098 2.573 11 4.5c2.993 1.469 5.774 2.981 8.5 5s6.007 4.205 9 6.5v49h-3.5c-1.443-2.202-3.255-4.471-5.5-7.5s-4.381-5.839-7-8.5c-3.1-3.304-6.839-6.073-10.5-8s-7.259-3-11-3c-3.902 0-7.991 1.344-12 3.5s-7.74 5.452-11 10.5c-3.207 4.955-5.389 11.873-7.5 20.5s-3.5 19.151-3.5 32c0 12.298 1.049 22.873 3 31.5s4.346 15.769 7.5 21c3.314 5.414 7.098 9.159 11 11.5s8.171 3.5 12.5 3.5c3.901 0 7.579-0.981 11-3s6.56-4.563 9.5-7.5c2.886-2.937 5.228-5.971 7.5-9s4.503-5.798 6-8h3.5v50c-2.192 1.836-5.087 3.843-8 6s-5.919 3.756-9.5 5.5c-3.421 1.56-7.464 3.036-11.5 4s-8.476 1.5-13.5 1.5zM141 198.5v-205h42c9.514 0 17.552 1.114 24.5 3.5s13.174 6.943 19 13c7.75 8.076 14.422 19.403 19.5 34.5s7.5 32.411 7.5 51.5c0 19.823-2.27 36.862-7 51.5s-11.269 26.373-19.5 35c-4.81 5.139-10.945 9.2-18 12s-15.273 4-25 4h-43zM374 198.5v-205h29v137.5l22-89.5h21.5l22 89.5v-137.5h30.5v205h-35.5l-27-103-26.5 103h-36zM171.5 160h8c6.627 0 11.213-0.036 14.5-1s6.846-2.839 10-5.5c6.2-5.415 10.641-12.91 13.5-22.5s4.5-21.51 4.5-35c0-13.582-1.381-24.777-4-34s-6.888-16.493-12.5-22c-3.261-3.029-6.579-5.353-10-6.5s-8.678-1.5-16-1.5h-8v128z" />
<glyph unicode="&#xe608;" d="M199.5 202.5c-7.322 0-14.892-1.293-22-4s-12.079-5.022-15.5-7.5v-42h3c4.008 4.497 8.663 8.155 13.5 11s9.151 4 13 4c6.254 0 11.053-2.1 14.5-6s5-10.323 5-19.5c0-6.149-0.709-11.636-2.5-16.5s-4.346-8.829-7.5-12.5c-3.368-4.13-6.427-7.164-9.5-9s-6.705-3.757-10.5-5.5v-46.5h28.5v31.5c5.077 3.396 9.464 7.37 13.5 11.5s7.613 8.769 10.5 14c2.886 5.231 4.923 11.387 6.5 18.5s2.5 15.231 2.5 24.5c0 16.152-3.75 28.997-11.5 39s-18.298 15-31.5 15zM317 202.5c-7.322 0-14.392-1.293-21.5-4s-12.079-5.022-15.5-7.5v-42h3c4.009 4.497 8.163 8.155 13 11s9.651 4 13.5 4c6.253 0 11.053-2.1 14.5-6s5-10.323 5-19.5c0-6.149-0.709-11.636-2.5-16.5s-4.346-8.829-7.5-12.5c-3.368-4.13-6.926-7.164-10-9s-6.205-3.757-10-5.5v-46.5h28v31.5c5.077 3.396 9.964 7.37 14 11.5s7.113 8.769 10 14c2.886 5.231 5.423 11.387 7 18.5s2 15.231 2 24.5c0 16.152-3.75 28.997-11.5 39s-18.298 15-31.5 15zM435 202.5c-7.322 0-14.392-1.293-21.5-4s-12.579-5.022-16-7.5v-42h3.5c4.009 4.497 8.163 8.155 13 11s9.151 4 13 4c6.253 0 11.053-2.1 14.5-6s5.5-10.323 5.5-19.5c0-6.149-1.209-11.636-3-16.5s-4.346-8.829-7.5-12.5c-3.368-4.13-6.426-7.164-9.5-9s-6.705-3.757-10.5-5.5v-46.5h28.5v31.5c5.077 3.396 9.464 7.37 13.5 11.5s7.613 8.769 10.5 14c2.886 5.231 4.923 11.387 6.5 18.5s2.5 15.231 2.5 24.5c0 16.152-3.75 28.997-11.5 39s-18.298 15-31.5 15zM179 30v-36.5h32.5v36.5h-32.5zM297 30v-36.5h32.5v36.5h-32.5zM415 30v-36.5h32v36.5h-32z" />
<glyph unicode="&#xe609;" d="M325 203c-19.188 0-34.596-9.865-45.5-29s-16-45.053-16-78c0-32.671 5.096-58.774 16-78s26.312-29 45.5-29c19.241 0 34.096 9.774 45 29s16.5 45.329 16.5 78c0 32.947-5.543 58.865-16.5 78s-25.865 29-45 29zM457 202.5c-9.087 0-17.83-2.545-25.5-7.5s-13.815-11.914-19-21c-5.399-9.453-9.667-20.784-12.5-34s-4-27.756-4-44c0-17.437 1.534-33.193 4.5-46.5s7.101-24.098 12.5-33c5.399-8.902 11.49-15.503 19-20s16.127-7 25-7c5.986 0 10.579 0.49 14 1.5s7.098 2.573 11 4.5c2.993 1.469 5.774 2.981 8.5 5s5.507 4.205 8.5 6.5v49h-3c-1.443-2.202-3.255-4.471-5.5-7.5s-4.881-5.839-7.5-8.5c-3.1-3.304-6.339-6.073-10-8s-7.259-3-11-3c-3.902 0-7.991 1.344-12 3.5s-7.74 5.452-11 10.5c-3.207 4.955-5.889 11.873-8 20.5s-3 19.151-3 32c0 12.298 1.049 22.873 3 31.5s4.346 15.769 7.5 21c3.314 5.414 7.098 9.159 11 11.5s7.671 3.5 12 3.5c3.901 0 7.579-0.981 11-3s6.56-4.563 9.5-7.5c2.886-2.937 5.728-5.971 8-9s4.003-5.798 5.5-8h3.5v50c-2.192 1.836-4.587 3.843-7.5 6s-6.419 3.756-10 5.5c-3.421 1.56-6.964 3.036-11 4s-8.476 1.5-13.5 1.5zM141 198.5v-205h42c9.514 0 17.552 1.114 24.5 3.5s13.674 6.943 19.5 13c7.75 8.076 13.922 19.403 19 34.5s8 32.411 8 51.5c0 19.823-2.77 36.862-7.5 51.5s-11.269 26.373-19.5 35c-4.81 5.139-10.445 9.2-17.5 12s-15.273 4-25 4h-43.5zM325 164c3.849 0 7.445-1.022 11-3.5s6.774-6.493 9.5-12c2.673-5.323 4.843-12.373 6.5-21s2.5-19.202 2.5-31.5c0-11.472-1.057-21.511-2.5-30s-3.507-15.76-6.5-22c-2.673-5.507-5.919-9.385-9.5-12s-7.045-4-11-4c-3.955 0-7.919 1.43-11.5 4s-6.827 6.586-9.5 12c-2.673 5.414-4.37 12.419-6 21s-2.5 18.794-2.5 31c0 11.93 0.817 22.46 2.5 31.5s3.827 15.861 6.5 21c2.886 5.507 6.053 9.613 9.5 12s7.098 3.5 11 3.5zM171.5 160h8c6.627 0 11.713-0.036 15-1s6.346-2.839 9.5-5.5c6.2-5.415 10.641-12.91 13.5-22.5s4.5-21.51 4.5-35c0-13.582-1.381-24.777-4-34s-6.888-16.493-12.5-22c-3.261-3.029-6.579-5.353-10-6.5s-8.678-1.5-16-1.5h-8v128z" />
<glyph unicode="&#xe60a;" d="M49.5 430l-13-62.5v-0.5l-2.5 0.5h-34v-118.5h106l3 7.5c0.143 0.348 0.147 0.129 0.5 0l1-0.5v0.5h278c-56.328 5.705-100.246 53.227-100.5 111h-32v0.5c-0.339-0.162-0.838 0.161-1 0.5l-29.5 61.5h-176zM512 367.5c-0.254-57.773-44.172-105.295-100.5-111h100.5v111zM119.5 225l-6-15v-1h-113.5v-161h128v176h384v1h-392.5z" />
<glyph unicode="&#xe60b;" d="M397.5 203c-7.75 0-15.464-1.701-23-4.5s-13.617-5.471-18-8.5v-44.5h3c5.505 5.598 11.12 9.517 17 12.5s11.476 4.5 16.5 4.5c2.031 0 4.667 0.050 7.5-0.5s4.916-1.848 7-3.5c1.87-1.469 3.771-3.476 5-6s1.5-5.87 1.5-10c0-5.599-0.324-9.61-1.5-12.5s-3.149-5.257-5.5-7c-2.245-1.652-4.793-3.041-8-3.5s-6.831-0.5-11-0.5h-7v-36.5h6.5c3.154 0 6.812-0.363 10.5-0.5s6.881-0.531 9.5-2c2.619-1.377 4.397-3.742 6-7s2.5-8.035 2.5-14c0-6.149-0.324-10.742-1.5-14s-3.022-6.205-5-8.5c-2.512-2.937-5.365-4.628-9-5.5s-6.9-1.5-10-1.5c-5.291 0-11.613 2.012-18 5.5s-11.404 7.228-16 12h-3.5v-45c4.436-3.304 10.418-6.339 17.5-9s15.612-4 25.5-4c8.659 0 15.933 1.925 22 5s11.51 7.218 16 13c4.596 5.966 7.782 13.149 10 21.5s3.5 17.363 3.5 27c0 8.535-0.95 15.361-2.5 20.5s-3.381 9.646-6 13.5c-2.512 3.671-5.454 6.572-8.5 8.5s-5.774 3.358-8.5 4v2c6.735 2.478 11.885 8.052 16 17s6 19.12 6 30.5c0 8.627-0.862 16.075-3 22.5s-5.618 12.003-10 16.5c-3.688 3.762-8.334 6.752-14 9s-11.964 3.5-19.5 3.5zM258.5 202.5c-20.738 0-36.901-9.998-48.5-29.5s-17.5-45.154-17.5-77c0-33.406 6.008-59.549 17.5-78.5s27.19-28.5 47.5-28.5c8.765 0 17.681 1.966 26.5 5.5s15.655 6.921 21 10.5v101.5h-55v-39h24v-40c-1.176-0.183-2.584-0.409-4-0.5s-2.824 0-4 0c-13.683 0-23.998 5.978-31 18s-10.5 29.332-10.5 52c0 11.104 1.049 21.011 3 29.5s4.632 15.493 8 21c3.528 5.69 7.564 9.747 12 12.5s9.548 4 15 4c4.65 0 8.858-0.889 13-3s7.9-4.563 11-7.5c2.673-2.478 5.113-5.467 8-9s5.503-6.073 7-8h3v48c-8.712 7.25-16.392 12.068-23.5 14.5s-14.643 3.5-22.5 3.5z" />
<glyph unicode="&#xe60c;" d="M218 202.5c-20.738 0-36.901-9.998-48.5-29.5s-17.5-45.154-17.5-77c0-33.406 5.508-59.549 17-78.5s27.69-28.5 48-28.5c8.766 0 17.181 1.966 26 5.5s16.155 6.921 21.5 10.5v101.5h-55v-39h23.5v-40c-1.176-0.183-2.083-0.409-3.5-0.5s-2.824 0-4 0c-13.683 0-23.998 5.978-31 18s-10.5 29.332-10.5 52c0 11.104 1.049 21.011 3 29.5s4.632 15.493 8 21c3.528 5.69 7.564 9.747 12 12.5s9.048 4 14.5 4c4.65 0 9.357-0.889 13.5-3s7.4-4.563 10.5-7.5c2.673-2.478 5.613-5.467 8.5-9s5.003-6.073 6.5-8h3.5v48c-8.713 7.25-16.392 12.068-23.5 14.5s-14.643 3.5-22.5 3.5zM297 198.5v-36.5h19.5v-132h-19.5v-36.5h70v36.5h-19.5v132h19.5v36.5h-70zM402.5 198.5v-205h30.5v87.5h51v39.5h-51v38.5h55v39.5h-85.5z" />
<glyph unicode="&#xe60d;" d="M144.5 195v-198h29.5v87h44v-87h30v198h-30v-72.5h-44v72.5h-29.5zM260.5 195v-38h36v-160h29.5v160h36v38h-101.5zM374.5 195v-198h28v132.5l21.5-86h20.5l21.5 86v-132.5h29.5v198h-34.5l-26-99.5-26 99.5h-34.5z" />
<glyph unicode="&#xe60e;" d="M437.5 202.5c-20.738 0-36.901-9.498-48.5-29s-17-45.154-17-77c0-33.406 5.509-59.549 17-78.5s27.69-28.5 48-28.5c8.765 0 17.181 1.466 26 5s16.155 7.421 21.5 11v101h-55v-38.5h23.5v-40.5c-1.176-0.183-2.584-0.409-4-0.5s-2.324 0-3.5 0c-13.683 0-23.998 5.978-31 18s-10.5 29.332-10.5 52c0 11.104 0.549 21.011 2.5 29.5s4.632 15.493 8 21c3.527 5.69 7.563 9.747 12 12.5s9.548 4.5 15 4.5c4.65 0 8.858-1.389 13-3.5s7.9-4.563 11-7.5c2.673-2.478 5.613-5.467 8.5-9s5.003-6.073 6.5-8h3.5v48c-8.712 7.25-16.892 12.068-24 14.5s-14.643 3.5-22.5 3.5zM171.5 198.5v-37.5h27.5v-81.5c0-8.351-0.339-15.632-0.5-21s-0.77-10.003-2-14.5c-1.283-4.589-3.48-8.43-6.5-11s-7.388-3.5-13-3.5c-4.329 0-7.72 0.577-10.5 2s-5.435 2.848-8 4.5h-3v-41.5c3.688-1.285 8.136-2.312 13-3s9.994-1 15.5-1c8.124 0 14.994 1.334 20.5 4.5s10.098 7.718 14 13.5c3.688 5.414 6.629 12.154 8.5 20s2.5 16.506 2.5 25.5v144.5h-58zM258.5 198.5v-205h31v67h19c8.712 0 16.147 1.87 22 6s11.243 10.424 16 18.5c3.474 5.965 6.129 13.236 8 22s2.5 17.822 2.5 27c0 11.839-0.962 22.057-3.5 30.5s-6.69 15.085-11.5 20.5c-4.009 4.497-8.289 8.252-13.5 10.5s-11.911 3-19.5 3h-50.5zM289.5 160.5h5c5.077 0 9.454-0.271 12.5-0.5s5.793-1.298 9-3.5c2.405-1.652 4.683-4.825 6.5-9s3-9.219 3-15c0-5.873-0.618-10.416-1.5-14.5s-2.522-8.063-4.5-11c-2.298-3.304-5.106-5.399-8.5-6.5s-7.762-1.5-13-1.5h-8.5v61.5z" />
<glyph unicode="&#xe60f;" d="M312 202.5c-9.087 0-17.33-2.545-25-7.5s-14.315-11.914-19.5-21c-5.399-9.453-9.167-20.784-12-34s-4.5-27.756-4.5-44c0-17.437 1.534-33.193 4.5-46.5s7.101-24.098 12.5-33c5.399-8.902 11.99-15.503 19.5-20s15.627-7 24.5-7c5.986 0 10.579 0.49 14 1.5s7.098 2.573 11 4.5c2.993 1.469 5.774 2.981 8.5 5s6.007 4.205 9 6.5v49h-3.5c-1.443-2.202-3.255-4.471-5.5-7.5s-4.881-5.839-7.5-8.5c-3.1-3.304-6.339-6.073-10-8s-7.259-3-11-3c-3.902 0-7.991 1.344-12 3.5s-7.74 5.452-11 10.5c-3.207 4.955-5.889 11.873-8 20.5s-3 19.151-3 32c0 12.298 1.049 22.873 3 31.5s4.346 15.769 7.5 21c3.314 5.414 7.098 9.159 11 11.5s8.171 3.5 12.5 3.5c3.901 0 7.579-0.981 11-3s6.56-4.563 9.5-7.5c2.886-2.937 5.228-5.971 7.5-9s4.003-5.798 5.5-8h4v50c-2.192 1.836-5.087 3.843-8 6s-5.919 3.756-9.5 5.5c-3.421 1.56-7.464 3.036-11.5 4s-8.476 1.5-13.5 1.5zM138 198.5v-205h30.5v67h19.5c8.712 0 15.648 1.87 21.5 6s11.243 10.424 16 18.5c3.474 5.965 6.129 13.236 8 22s3 17.822 3 27c0 11.839-1.462 21.557-4 30s-6.19 15.585-11 21c-4.009 4.497-8.789 7.752-14 10s-11.411 3.5-19 3.5h-50.5zM377 198.5v-205h29v137.5l22-89.5h21.5l22 89.5v-137.5h30.5v205h-35.5l-27-103-26.5 103h-36zM168.5 160h5.5c5.077 0 8.953 0.229 12 0s6.293-1.798 9.5-4c2.405-1.652 4.683-4.325 6.5-8.5s2.5-9.219 2.5-15c0-5.873-0.618-10.916-1.5-15s-2.023-7.563-4-10.5c-2.298-3.304-5.106-5.399-8.5-6.5s-7.762-1.5-13-1.5h-9v61z" />
<glyph unicode="&#xe610;" d="M398.5 480.5l-60.5-82.5h28.5v-48c0-0.624 0.376-1 1-1h62c0.624 0 1 0.376 1 1v48h29l-61 82.5zM286 367.5c0.274-63.599 51.025-115 113.5-115s112.726 51.401 113 115h-49.5c-3.249-31.642-29.978-56.5-63.5-56.5-33.52 0-60.25 24.86-63.5 56.5h-50z" />
<glyph unicode="&#xe611;" d="M202 203c-19.188 0-34.096-9.865-45-29s-16.5-45.053-16.5-78c0-32.671 5.596-58.774 16.5-78s25.812-29 45-29c19.242 0 34.596 9.774 45.5 29s16 45.329 16 78c0 32.947-5.543 58.865-16.5 78s-25.865 29-45 29zM341 202.5c-9.087 0-17.33-2.545-25-7.5s-14.315-11.914-19.5-21c-5.399-9.453-9.167-20.784-12-34s-4.5-27.756-4.5-44c0-17.437 1.534-33.193 4.5-46.5s7.101-24.098 12.5-33c5.399-8.902 11.99-15.503 19.5-20s15.627-7 24.5-7c5.986 0 10.579 0.49 14 1.5s7.098 2.573 11 4.5c2.993 1.469 5.774 2.981 8.5 5s6.007 4.205 9 6.5v49h-3.5c-1.443-2.202-3.255-4.471-5.5-7.5s-4.881-5.839-7.5-8.5c-3.1-3.304-6.339-6.073-10-8s-7.259-3-11-3c-3.902 0-7.991 1.344-12 3.5s-7.74 5.452-11 10.5c-3.207 4.955-5.889 11.873-8 20.5s-3 19.151-3 32c0 12.298 1.049 22.873 3 31.5s4.346 15.769 7.5 21c3.314 5.414 7.098 9.159 11 11.5s8.171 3.5 12.5 3.5c3.901 0 7.579-0.981 11-3s6.56-4.563 9.5-7.5c2.886-2.937 5.228-5.971 7.5-9s4.003-5.798 5.5-8h4v50c-2.192 1.836-5.087 3.843-8 6s-5.919 3.756-9.5 5.5c-3.421 1.56-7.464 3.036-11.5 4s-8.476 1.5-13.5 1.5zM394 198.5v-39.5h37.5v-165.5h30.5v165.5h37.5v39.5h-105.5zM202 164c3.849 0 7.446-1.022 11-3.5s6.774-6.493 9.5-12c2.673-5.323 4.843-12.373 6.5-21s2.5-19.202 2.5-31.5c0-11.472-0.557-21.511-2-30s-3.507-15.76-6.5-22c-2.673-5.507-5.919-9.385-9.5-12s-7.545-4-11.5-4c-3.956 0-7.419 1.43-11 4s-6.827 6.586-9.5 12c-2.673 5.414-4.87 12.419-6.5 21s-2.5 18.794-2.5 31c0 11.93 0.816 22.46 2.5 31.5s3.827 15.861 6.5 21c2.886 5.507 6.053 9.613 9.5 12s7.098 3.5 11 3.5z" />
<glyph unicode="&#xe612;" d="M149 198.5v-205h30.5v67h19.5c8.712 0 15.648 1.87 21.5 6s11.243 10.424 16 18.5c3.474 5.965 6.129 13.236 8 22s3 17.822 3 27c0 11.839-1.462 21.557-4 30s-6.19 15.585-11 21c-4.009 4.497-8.289 7.752-13.5 10s-11.911 3.5-19.5 3.5h-50.5zM269 198.5v-205h42.5c9.514 0 17.551 1.114 24.5 3.5s13.174 6.943 19 13c7.75 8.076 14.422 19.403 19.5 34.5s7.5 32.411 7.5 51.5c0 19.823-2.27 36.862-7 51.5s-11.269 26.373-19.5 35c-4.81 5.139-10.945 9.2-18 12s-15.272 4-25 4h-43.5zM405.5 198.5v-205h30.5v87.5h51v39.5h-51v38.5h55v39.5h-85.5zM179.5 160h5.5c5.077 0 8.953 0.229 12 0s6.293-1.798 9.5-4c2.405-1.652 4.683-4.325 6.5-8.5s2.5-9.219 2.5-15c0-5.873-0.118-10.916-1-15s-2.523-7.563-4.5-10.5c-2.298-3.304-5.106-5.399-8.5-6.5s-7.762-1.5-13-1.5h-9v61zM300 160h8c6.627 0 11.213-0.036 14.5-1s6.846-2.839 10-5.5c6.2-5.415 10.64-12.91 13.5-22.5s4-21.51 4-35c0-13.582-0.881-24.777-3.5-34s-6.888-16.493-12.5-22c-3.26-3.029-6.579-5.353-10-6.5s-8.678-1.5-16-1.5h-8v128z" />
<glyph unicode="&#xe613;" d="M109 288l-3.5-9.5h-105.5v-38.5h110l6 16h284c-30.43 0-57.815 12.305-78 32h-213zM400 256h112v32h-34c-20.185-19.695-47.57-32-78-32zM128 224h384v-256h-384z" />
<glyph unicode="&#xe614;" d="M456 202.5c-20.738 0-36.901-9.498-48.5-29s-17.5-45.154-17.5-77c0-33.406 5.509-59.549 17-78.5s27.69-28.5 48-28.5c8.765 0 17.681 1.466 26.5 5s15.655 7.421 21 11v101h-55v-38.5h23.5v-40.5c-1.176-0.183-2.084-0.409-3.5-0.5s-2.824 0-4 0c-13.683 0-23.998 5.978-31 18s-10.5 29.332-10.5 52c0 11.104 1.049 21.011 3 29.5s4.632 15.493 8 21c3.527 5.69 7.563 9.747 12 12.5s9.048 4.5 14.5 4.5c4.65 0 9.358-1.389 13.5-3.5s7.4-4.563 10.5-7.5c2.673-2.478 5.613-5.467 8.5-9s5.003-6.073 6.5-8h3.5v48c-8.712 7.25-16.392 12.068-23.5 14.5s-14.643 3.5-22.5 3.5zM137.5 198.5v-205h31v67h19c8.712 0 16.148 1.87 22 6s10.743 10.424 15.5 18.5c3.474 5.965 6.129 13.236 8 22s3 17.822 3 27c0 11.839-1.462 22.057-4 30.5s-6.19 15.085-11 20.5c-4.009 4.497-8.289 8.252-13.5 10.5s-11.911 3-19.5 3h-50.5zM257.5 198.5v-205h28.5v141l50.5-141h30v205h-28.5v-117.5l-43.5 117.5h-37zM168.5 160.5h5c5.077 0 8.953-0.271 12-0.5s6.293-1.298 9.5-3.5c2.405-1.652 4.683-4.825 6.5-9s2.5-9.219 2.5-15c0-5.873-0.118-10.416-1-14.5s-2.523-8.063-4.5-11c-2.298-3.304-5.106-5.399-8.5-6.5s-7.762-1.5-13-1.5h-8.5v61.5z" />
<glyph unicode="&#xe615;" d="M157 198.5v-205h30.5v75h14.5l32.5-75h37.5l-40 88c7.589 6.332 13.411 13.956 17.5 23.5s6 21.857 6 37c0 11.012-0.855 20.204-3.5 27.5s-6.511 13.411-11 18c-4.436 4.589-8.923 7.623-14 9s-11.445 2-18.5 2h-51.5zM273.5 198.5v-39.5h37.5v-165.5h30.5v165.5h37.5v39.5h-105.5zM397.5 198.5v-205h30.5v87.5h51v39.5h-51v38.5h55v39.5h-85.5zM187.5 161h11c3.688 0 7.22-0.179 10-0.5s4.916-1.532 7-3c2.993-2.111 5.27-4.829 6.5-8.5s2-8.361 2-13.5c0-5.782-0.512-10.058-1.5-13.5s-2.862-6.655-5-9.5c-2.245-2.937-4.686-4.674-8-5.5s-7.583-1.5-12.5-1.5h-9.5v55.5z" />
<glyph unicode="&#xe616;" d="M179 183c-12.81 0-23.346-5.128-31.5-15s-12-22.385-12-38c0-11.637 1.393-21.655 5-29.5s9.78-13.921 18-18.5c3.585-2.027 7.412-3.687 11.5-5s7.827-2.498 11.5-4c3.498-1.426 6.185-3.835 8-6.5s3-5.822 3-9.5c0-3.979-0.754-6.973-2-9s-3.077-3.649-5-5c-1.574-1.051-3.508-1.55-6-2s-4.47-1-6-1c-5.947 0-12.051 2.171-18.5 6s-12.297 9.368-17.5 16.5h-3v-40.5c5.246-3.753 10.988-6.56 17-9s12.911-4 21-4c13.991 0 25.346 5.178 33.5 15.5s12 23.984 12 40.5c0 11.561-1.436 20.755-5 28s-9.024 13.296-16.5 17.5c-3.804 2.102-7.699 3.798-11 5s-6.415 2.224-10 3.5c-5.465 1.952-9.532 4.135-11.5 6.5s-3 5.57-3 10c0 2.928 0.775 5.71 2 8s2.795 3.874 4.5 5c1.923 1.351 3.923 2.512 6 3s3.901 0.5 6 0.5c5.946 0 11.794-1.859 17.5-5.5s10.565-8.095 14.5-13.5h3v38.5c-4.591 3.228-10.226 6.361-16.5 8.5s-12.573 3-19 3zM274.5 183c-16.964 0-30.012-7.547-39.5-23.5s-14.5-36.95-14.5-63c0-27.327 4.6-48.998 14-64.5s22.885-23 39.5-23c7.171 0 14.286 1.11 21.5 4s12.627 6.072 17 9v82.5h-45v-31.5h19.5v-33c-0.962-0.15-1.841 0.075-3 0s-2.038-0.5-3-0.5c-11.193 0-19.772 5.166-25.5 15s-8.5 23.957-8.5 42.5c0 9.084 0.404 17.055 2 24s3.745 12.495 6.5 17c2.885 4.654 6.371 8.248 10 10.5s7.541 3.5 12 3.5c3.804 0 7.611-0.774 11-2.5s6.464-4.098 9-6.5c2.186-2.027 4.139-4.11 6.5-7s4.276-5.423 5.5-7h3v39.5c-7.127 5.93-13.685 9.51-19.5 11.5s-12.073 3-18.5 3zM320.5 180v-167.5h23.5v112l18-73h17.5l18 73v-112h25v167.5h-29l-22-84-22 84h-29zM435 180v-167.5h70.5v32h-45.5v135.5h-25z" />
<glyph unicode="&#xe617;" d="M189.5 202c-15.661 0-28.532-5.932-38.5-18s-15-27.411-15-46.5c0-14.225 2.090-26.41 6.5-36s11.952-16.902 22-22.5c4.383-2.478 9.002-4.894 14-6.5s9.51-3.164 14-5c4.276-1.744 7.782-4.242 10-7.5s3.5-7.003 3.5-11.5c0-4.864-0.977-8.522-2.5-11s-3.649-4.848-6-6.5c-1.924-1.285-4.453-1.95-7.5-2.5s-5.13-1-7-1c-7.269 0-15.117 2.32-23 7s-14.639 11.781-21 20.5h-3.5v-49.5c6.414-4.589 13.15-8.017 20.5-11s16.112-4.5 26-4.5c17.103 0 30.531 5.881 40.5 18.5s15 29.31 15 49.5c0 14.133-2.144 25.644-6.5 34.5s-11.361 15.861-20.5 21c-4.65 2.57-8.964 4.531-13 6s-8.117 2.94-12.5 4.5c-6.681 2.386-11.095 5.109-13.5 8s-3.5 7.085-3.5 12.5c0 3.579 0.504 6.7 2 9.5s3.416 4.623 5.5 6c2.351 1.652 4.461 2.904 7 3.5s5.435 1 8 1c7.269 0 14.525-2.049 21.5-6.5s12.69-10.392 17.5-17h3v47.5c-5.612 3.946-11.83 7.384-19.5 10s-15.643 3.5-23.5 3.5zM236 198.5l32.5-205h34l21 133.5 21-133.5h34.5l32 205h-31.5l-19-141-21 141h-31l-22-141-18 141h-32.5zM419 198.5v-205h30.5v87.5h51v39.5h-51v38.5h55v39.5h-85.5z" />
<glyph unicode="&#xe618;" d="M400 480c-61.856 0-112-50.144-112-112s50.144-112 112-112c61.856 0 112 50.144 112 112s-50.144 112-112 112zM400 457.75c48.601 0 88-39.399 88-88s-39.399-88-88-88c-48.601 0-88 39.399-88 88s39.399 88 88 88zM394.25 450.75c-1.978 0-3.75-1.522-3.75-3.5v-9c0-1.978 1.772-3.5 3.75-3.5h8.75c1.978 0 3.5 1.522 3.5 3.5v9c0 1.978-1.522 3.5-3.5 3.5h-8.75zM427.75 433c-1.966 0.181-3.757-0.893-4.75-2.75l-29.5-55c-0.993-1.857-0.743-3.966 0.5-5.5-0.053-0.097-0.202-0.149-0.25-0.25-2.302-4.765 0.18-10.68 5.5-13.25l25.75-12.5c5.32-2.57 11.448-0.765 13.75 4s-0.18 10.68-5.5 13.25l-25.75 12.5c-0.175 0.085-0.324 0.174-0.5 0.25l27.25 50.5c1.323 2.476 0.476 5.677-2 7l-2.5 1.25c-0.619 0.331-1.344 0.44-2 0.5zM343 428.5c-0.908-0.096-1.628-0.481-2.25-1.25l-0.5-0.75c-1.243-1.539-1.039-3.757 0.5-5l6.75-5.5c1.539-1.243 3.757-1.039 5 0.5l0.75 0.75c1.243 1.539 0.789 3.757-0.75 5l-6.75 5.5c-0.769 0.621-1.842 0.846-2.75 0.75zM463 420.25c-0.908 0.096-1.731-0.128-2.5-0.75l-7-5.5c-1.539-1.243-1.743-3.461-0.5-5l0.5-0.75c1.243-1.539 3.461-1.743 5-0.5l7 5.5c1.539 1.243 1.743 3.461 0.5 5l-0.5 0.75c-0.622 0.769-1.592 1.154-2.5 1.25zM468.75 375.75c-1.978 0-3.75-1.522-3.75-3.5v-8.75c0-1.978 1.772-3.75 3.75-3.75h8.75c1.978 0 3.5 1.772 3.5 3.75v8.75c0 1.978-1.522 3.5-3.5 3.5h-8.75zM322.5 375.5c-1.978 0-3.5-1.522-3.5-3.5v-9c0-1.978 1.522-3.5 3.5-3.5h9c1.978 0 3.5 1.522 3.5 3.5v9c0 1.978-1.522 3.5-3.5 3.5h-9zM449.25 322.75c-0.908-0.096-1.878-0.481-2.5-1.25l-0.5-0.75c-1.243-1.539-1.039-3.757 0.5-5l7-5.5c1.539-1.243 3.757-1.039 5 0.5l0.5 0.75c1.243 1.539 1.039 3.757-0.5 5l-7 5.5c-0.769 0.621-1.592 0.846-2.5 0.75zM352.25 321c-0.908 0.096-1.731-0.128-2.5-0.75l-7-5.75c-1.539-1.243-1.743-3.461-0.5-5l0.5-0.5c1.243-1.539 3.461-1.743 5-0.5l7 5.5c1.539 1.243 1.743 3.461 0.5 5l-0.5 0.75c-0.622 0.769-1.592 1.154-2.5 1.25zM395.5 304.5c-1.978 0-3.75-1.772-3.75-3.75v-8.75c0-1.978 1.772-3.5 3.75-3.5h8.75c1.978 0 3.5 1.522 3.5 3.5v8.75c0 1.978-1.522 3.75-3.5 3.75h-8.75z" />
<glyph unicode="&#xe619;" d="M200 202c-15.661 0-28.532-5.932-38.5-18s-15-27.411-15-46.5c0-14.225 2.59-26.41 7-36s11.452-16.902 21.5-22.5c4.383-2.478 9.002-4.894 14-6.5s10.010-3.164 14.5-5c4.276-1.744 7.282-4.242 9.5-7.5s3.5-7.003 3.5-11.5c0-4.864-0.977-8.522-2.5-11s-3.149-4.848-5.5-6.5c-1.924-1.285-4.453-1.95-7.5-2.5s-5.63-1-7.5-1c-7.269 0-14.617 2.32-22.5 7s-15.139 11.781-21.5 20.5h-3.5v-49.5c6.414-4.589 13.15-8.017 20.5-11s16.112-4.5 26-4.5c17.103 0 30.531 5.881 40.5 18.5s15 29.31 15 49.5c0 14.133-2.144 25.644-6.5 34.5s-10.861 15.861-20 21c-4.65 2.57-8.964 4.531-13 6s-8.617 2.94-13 4.5c-6.681 2.386-11.095 5.109-13.5 8s-3.5 7.085-3.5 12.5c0 3.579 0.504 6.7 2 9.5s3.416 4.623 5.5 6c2.351 1.652 4.961 2.904 7.5 3.5s4.935 1 7.5 1c7.269 0 14.525-2.049 21.5-6.5s12.69-10.392 17.5-17h3.5v47.5c-5.612 3.946-12.33 7.384-20 10s-15.643 3.5-23.5 3.5zM257.5 198.5v-39.5h37v-165.5h31v165.5h37v39.5h-105zM381 198.5v-205h42.5c9.514 0 17.551 1.114 24.5 3.5s13.174 6.943 19 13c7.75 8.076 14.422 19.403 19.5 34.5s7.5 32.411 7.5 51.5c0 19.823-2.27 36.862-7 51.5s-11.269 26.373-19.5 35c-4.81 5.139-10.945 9.2-18 12s-15.272 4-25 4h-43.5zM412 160h7.5c6.627 0 11.713-0.036 15-1s6.846-2.839 10-5.5c6.2-5.415 10.64-12.91 13.5-22.5s4-21.51 4-35c0-13.582-1.381-24.777-4-34s-6.388-16.493-12-22c-3.26-3.029-6.579-5.353-10-6.5s-9.178-1.5-16.5-1.5h-7.5v128z" />
<glyph unicode="&#xe61a;" d="M159 198.5v-39.5h37.5v-165.5h30.5v165.5h37.5v39.5h-105.5zM289 198.5v-36.5h19.5v-132h-19.5v-36.5h70v36.5h-20v132h20v36.5h-70zM395.5 198.5v-205h30.5v87.5h51v39.5h-51v38.5h55v39.5h-85.5z" />
<glyph unicode="&#xe61b;" d="M193.5 213.5c-6.601 0-13.082-1.045-19.5-3.5s-11.267-5.344-15-8v-39h2.5c4.689 4.911 9.493 8.884 14.5 11.5s9.721 4 14 4c1.73 0 3.588-0.517 6-1s4.725-1.551 6.5-3c1.593-1.288 2.953-2.786 4-5s1.5-5.377 1.5-9c0-4.911-0.499-8.464-1.5-11s-2.497-4.471-4.5-6c-1.912-1.45-4.268-2.598-7-3s-5.95-0.5-9.5-0.5h-6v-32h5.5c2.686 0 5.859-0.38 9-0.5s5.769-0.712 8-2c2.231-1.207 4.135-3.142 5.5-6s2-6.767 2-12c0-5.394-0.499-9.642-1.5-12.5s-2.315-5.488-4-7.5c-2.139-2.577-4.905-4.235-8-5s-5.859-1-8.5-1c-4.507 0-9.56 1.44-15 4.5s-10.085 6.813-14 11h-2.5v-39.5c3.779-2.899 8.469-5.665 14.5-8s13.578-3.5 22-3.5c7.375 0 13.333 1.303 18.5 4s9.676 6.928 13.5 12c3.915 5.233 7.111 11.173 9 18.5s2.5 15.546 2.5 24c0 7.488-0.68 13.491-2 18s-2.769 8.118-5 11.5c-2.139 3.221-4.905 5.809-7.5 7.5s-4.678 2.937-7 3.5v1.5c5.736 2.173 9.994 7.15 13.5 15s5.5 17.017 5.5 27c0 7.567-1.179 13.864-3 19.5s-4.267 10.555-8 14.5c-3.141 3.3-7.174 6.027-12 8s-10.582 3-17 3zM305 213.5c-16.342 0-29.214-8.214-38.5-25s-13.5-40.097-13.5-69c0-27.615 4.010-49.536 12.5-66s20.296-25.471 35.5-27c0.228-7.085 1.18-13.204 2.5-19s3.36-11.233 6-15.5c2.686-4.348 5.971-7.625 10-10s8.583-3.5 14-3.5c6.146 0 10.518 0.695 13.5 1.5s5.95 1.454 8.5 2.5v32h-2.5c-1.002-0.885-2.951-1.873-5.5-3s-4.634-2-6.5-2c-5.509 0-9.224 2.038-11.5 5.5s-3.818 9.029-4 17c10.379 6.118 18.537 17.002 24 32.5s8 33.665 8 55c0 28.903-4.668 52.214-14 69s-22.203 25-38.5 25zM377.5 209.5v-179.5h24.5v120.5l19-78.5h18l19 78.5v-120.5h26v179.5h-30.5l-22.5-90-23 90h-30.5zM305 179.5c3.277 0 6.473-1.327 9.5-3.5s5.678-5.67 8-10.5c2.276-4.67 4.089-10.432 5.5-18s2.5-16.712 2.5-27.5c0-10.064-0.771-19.053-2-26.5s-2.951-14.026-5.5-19.5c-2.276-4.83-4.95-8.206-8-10.5s-6.632-3.5-10-3.5c-3.368 0-6.45 1.245-9.5 3.5s-5.724 5.75-8 10.5c-2.276 4.75-4.111 10.973-5.5 18.5s-2 16.292-2 27c0 10.466 0.566 20.070 2 28s3.224 13.991 5.5 18.5c2.458 4.83 5.564 8.406 8.5 10.5s5.677 3 9 3z" />
<glyph unicode="&#xe61c;" d="M140.5 198.5v-39.5h37.5v-165.5h31v165.5h37v39.5h-105.5zM260 198.5l41.5-101.5-42.5-103.5h34l26.5 67.5 25.5-67.5h36l-42.5 105.5 41.5 99.5h-34l-25.5-64-25 64h-35.5zM394 198.5v-39.5h37v-165.5h31v165.5h37.5v39.5h-105.5z" />
<glyph unicode="&#xe61d;" d="M449 202.5c-20.738 0-36.901-9.498-48.5-29s-17.5-45.154-17.5-77c0-33.406 5.509-59.549 17-78.5s27.69-28.5 48-28.5c8.765 0 17.181 1.466 26 5s16.155 7.421 21.5 11v101h-55v-38.5h23.5v-40.5c-1.176-0.183-2.084-0.409-3.5-0.5s-2.824 0-4 0c-13.683 0-23.998 5.978-31 18s-10.5 29.332-10.5 52c0 11.104 1.049 21.011 3 29.5s4.632 15.493 8 21c3.527 5.69 7.563 9.747 12 12.5s9.048 4.5 14.5 4.5c4.65 0 9.358-1.389 13.5-3.5s7.4-4.563 10.5-7.5c2.673-2.478 5.613-5.467 8.5-9s5.003-6.073 6.5-8h3.5v48c-8.712 7.25-16.392 12.068-23.5 14.5s-14.643 3.5-22.5 3.5zM144.5 198.5v-205h29v137.5l22-89h21.5l22 89v-137.5h30.5v205h-35.5l-27-102.5-26.5 102.5h-36zM281 198.5v-205h31v67h19c8.712 0 16.147 1.87 22 6s11.243 10.424 16 18.5c3.474 5.965 6.129 13.236 8 22s3 17.822 3 27c0 11.839-1.462 22.057-4 30.5s-6.19 15.085-11 20.5c-4.009 4.497-8.789 8.252-14 10.5s-11.411 3-19 3h-51zM312 160.5h5.5c5.077 0 8.954-0.271 12-0.5s6.293-1.298 9.5-3.5c2.405-1.652 4.183-4.825 6-9s3-9.219 3-15c0-5.873-0.618-10.416-1.5-14.5s-2.022-8.063-4-11c-2.298-3.304-5.106-5.399-8.5-6.5s-7.762-1.5-13-1.5h-9v61.5z" />
<glyph unicode="&#xe61e;" d="M141 198.5l41.5-101.5-42.5-103.5h34l26.5 67.5 25.5-67.5h36l-42.5 105.5 41.5 99.5h-34l-25.5-64-25 64h-35.5zM268.5 198.5v-205h29v137.5l22-89.5h21.5l22 89.5v-137.5h30.5v205h-35.5l-27-103-26.5 103h-36zM413.5 198.5v-205h86.5v39.5h-55.5v165.5h-31z" />
<glyph unicode="&#xe61f;" d="M134.5 198.5l41.5-101.5-42-103.5h34l26 67.5 26-67.5h35.5l-42.5 105.5 41.5 99.5h-34l-25.5-64-25 64h-35.5zM260 198.5l41.5-101.5-42.5-103.5h34l26.5 67.5 25.5-67.5h36l-42.5 105.5 41.5 99.5h-34l-25.5-64-25 64h-35.5zM385.5 198.5l41.5-101.5-42.5-103.5h34l26.5 67.5 25.5-67.5h35.5l-42 105.5 41.5 99.5h-34l-25.5-64-25 64h-35.5z" />
</font>
</defs>
</svg>
